%TF.GenerationSoftware,KiCad,Pcbnew,(5.1.6)-1*%
%TF.CreationDate,2020-11-07T14:41:45+05:30*%
%TF.ProjectId,LT8652,4c543836-3532-42e6-9b69-6361645f7063,rev?*%
%TF.SameCoordinates,Original*%
%TF.FileFunction,Copper,L1,Top*%
%TF.FilePolarity,Positive*%
%FSLAX46Y46*%
G04 Gerber Fmt 4.6, Leading zero omitted, Abs format (unit mm)*
G04 Created by KiCad (PCBNEW (5.1.6)-1) date 2020-11-07 14:41:45*
%MOMM*%
%LPD*%
G01*
G04 APERTURE LIST*
%TA.AperFunction,ComponentPad*%
%ADD10C,5.700000*%
%TD*%
%TA.AperFunction,SMDPad,CuDef*%
%ADD11C,2.000000*%
%TD*%
%TA.AperFunction,SMDPad,CuDef*%
%ADD12R,0.700000X0.250000*%
%TD*%
%TA.AperFunction,SMDPad,CuDef*%
%ADD13R,0.250000X0.700000*%
%TD*%
%TA.AperFunction,SMDPad,CuDef*%
%ADD14R,1.100000X1.670000*%
%TD*%
%TA.AperFunction,SMDPad,CuDef*%
%ADD15R,0.375000X0.375000*%
%TD*%
%TA.AperFunction,SMDPad,CuDef*%
%ADD16R,2.200000X5.500000*%
%TD*%
%TA.AperFunction,ComponentPad*%
%ADD17O,1.700000X1.700000*%
%TD*%
%TA.AperFunction,ComponentPad*%
%ADD18R,1.700000X1.700000*%
%TD*%
%TA.AperFunction,ComponentPad*%
%ADD19C,2.100000*%
%TD*%
%TA.AperFunction,ComponentPad*%
%ADD20R,2.100000X2.100000*%
%TD*%
%TA.AperFunction,SMDPad,CuDef*%
%ADD21R,3.500000X3.550000*%
%TD*%
%TA.AperFunction,ViaPad*%
%ADD22C,0.800000*%
%TD*%
%TA.AperFunction,Conductor*%
%ADD23C,0.500000*%
%TD*%
%TA.AperFunction,Conductor*%
%ADD24C,0.300000*%
%TD*%
%TA.AperFunction,Conductor*%
%ADD25C,0.250000*%
%TD*%
%TA.AperFunction,Conductor*%
%ADD26C,0.254000*%
%TD*%
G04 APERTURE END LIST*
D10*
%TO.P,REF\u002A\u002A,1*%
%TO.N,N/C*%
X220000000Y-141000000D03*
%TD*%
%TO.P,REF\u002A\u002A,1*%
%TO.N,N/C*%
X110000000Y-141000000D03*
%TD*%
%TO.P,REF\u002A\u002A,1*%
%TO.N,N/C*%
X110000000Y-83000000D03*
%TD*%
%TO.P,REF\u002A\u002A,1*%
%TO.N,N/C*%
X220000000Y-83000000D03*
%TD*%
D11*
%TO.P,L1S1,1*%
%TO.N,Net-(L1-Pad2)*%
X162500000Y-92500000D03*
%TD*%
%TO.P,R14,2*%
%TO.N,/VO2*%
%TA.AperFunction,SMDPad,CuDef*%
G36*
G01*
X175225000Y-128425001D02*
X175225000Y-125574999D01*
G75*
G02*
X175474999Y-125325000I249999J0D01*
G01*
X176500001Y-125325000D01*
G75*
G02*
X176750000Y-125574999I0J-249999D01*
G01*
X176750000Y-128425001D01*
G75*
G02*
X176500001Y-128675000I-249999J0D01*
G01*
X175474999Y-128675000D01*
G75*
G02*
X175225000Y-128425001I0J249999D01*
G01*
G37*
%TD.AperFunction*%
%TO.P,R14,1*%
%TO.N,Net-(L2-Pad2)*%
%TA.AperFunction,SMDPad,CuDef*%
G36*
G01*
X169250000Y-128425001D02*
X169250000Y-125574999D01*
G75*
G02*
X169499999Y-125325000I249999J0D01*
G01*
X170525001Y-125325000D01*
G75*
G02*
X170775000Y-125574999I0J-249999D01*
G01*
X170775000Y-128425001D01*
G75*
G02*
X170525001Y-128675000I-249999J0D01*
G01*
X169499999Y-128675000D01*
G75*
G02*
X169250000Y-128425001I0J249999D01*
G01*
G37*
%TD.AperFunction*%
%TD*%
%TO.P,R13,2*%
%TO.N,/VO1*%
%TA.AperFunction,SMDPad,CuDef*%
G36*
G01*
X176225000Y-99425001D02*
X176225000Y-96574999D01*
G75*
G02*
X176474999Y-96325000I249999J0D01*
G01*
X177500001Y-96325000D01*
G75*
G02*
X177750000Y-96574999I0J-249999D01*
G01*
X177750000Y-99425001D01*
G75*
G02*
X177500001Y-99675000I-249999J0D01*
G01*
X176474999Y-99675000D01*
G75*
G02*
X176225000Y-99425001I0J249999D01*
G01*
G37*
%TD.AperFunction*%
%TO.P,R13,1*%
%TO.N,Net-(L1-Pad2)*%
%TA.AperFunction,SMDPad,CuDef*%
G36*
G01*
X170250000Y-99425001D02*
X170250000Y-96574999D01*
G75*
G02*
X170499999Y-96325000I249999J0D01*
G01*
X171525001Y-96325000D01*
G75*
G02*
X171775000Y-96574999I0J-249999D01*
G01*
X171775000Y-99425001D01*
G75*
G02*
X171525001Y-99675000I-249999J0D01*
G01*
X170499999Y-99675000D01*
G75*
G02*
X170250000Y-99425001I0J249999D01*
G01*
G37*
%TD.AperFunction*%
%TD*%
%TO.P,L2S1,1*%
%TO.N,Net-(L2-Pad2)*%
X169500000Y-132500000D03*
%TD*%
D12*
%TO.P,IC1,1*%
%TO.N,Net-(IC1-Pad1)*%
X148100001Y-106855000D03*
%TO.P,IC1,2*%
%TO.N,/SS2*%
X148100001Y-107355000D03*
%TO.P,IC1,3*%
%TO.N,/RT*%
X148100001Y-107855000D03*
%TO.P,IC1,4*%
%TO.N,GND*%
X148100001Y-108355000D03*
%TO.P,IC1,5*%
%TO.N,/Vin1*%
X148100001Y-108855000D03*
%TO.P,IC1,6*%
X148100001Y-109355000D03*
%TO.P,IC1,7*%
X148100001Y-109855000D03*
%TO.P,IC1,8*%
%TO.N,Net-(IC1-Pad8)*%
X148100001Y-110355000D03*
%TO.P,IC1,9*%
%TO.N,/Vin1*%
X148100001Y-110855000D03*
%TO.P,IC1,10*%
X148100001Y-111355000D03*
%TO.P,IC1,11*%
X148100001Y-111855000D03*
%TO.P,IC1,12*%
%TO.N,GND*%
X148100001Y-112355000D03*
D13*
%TO.P,IC1,13*%
%TO.N,Net-(IC1-Pad13)*%
X148750001Y-113005000D03*
%TO.P,IC1,14*%
%TO.N,Net-(IC1-Pad14)*%
X149250001Y-113005000D03*
%TO.P,IC1,15*%
%TO.N,Net-(IC1-Pad15)*%
X149750001Y-113005000D03*
%TO.P,IC1,16*%
%TO.N,Net-(IC1-Pad16)*%
X150250001Y-113005000D03*
%TO.P,IC1,17*%
%TO.N,Net-(IC1-Pad17)*%
X150750001Y-113005000D03*
%TO.P,IC1,18*%
%TO.N,Net-(IC1-Pad18)*%
X151250001Y-113005000D03*
D12*
%TO.P,IC1,19*%
%TO.N,Net-(IC1-Pad19)*%
X151900001Y-112355000D03*
%TO.P,IC1,20*%
%TO.N,/SW2*%
X151900001Y-111855000D03*
%TO.P,IC1,21*%
X151900001Y-111355000D03*
%TO.P,IC1,22*%
X151900001Y-110855000D03*
%TO.P,IC1,23*%
%TO.N,/SW1*%
X151900001Y-110355000D03*
%TO.P,IC1,24*%
X151900001Y-109855000D03*
%TO.P,IC1,25*%
X151900001Y-109355000D03*
%TO.P,IC1,26*%
%TO.N,Net-(IC1-Pad26)*%
X151900001Y-108855000D03*
%TO.P,IC1,27*%
%TO.N,GND2*%
X151900001Y-108355000D03*
%TO.P,IC1,28*%
%TO.N,/VCC*%
X151900001Y-107855000D03*
%TO.P,IC1,29*%
%TO.N,/SS1*%
X151900001Y-107355000D03*
%TO.P,IC1,30*%
%TO.N,Net-(IC1-Pad30)*%
X151900001Y-106855000D03*
D13*
%TO.P,IC1,31*%
%TO.N,/VC1*%
X151250001Y-106205000D03*
%TO.P,IC1,32*%
%TO.N,/FB1*%
X150750001Y-106205000D03*
%TO.P,IC1,33*%
%TO.N,GND2*%
X150250001Y-106205000D03*
%TO.P,IC1,34*%
X149750001Y-106205000D03*
%TO.P,IC1,35*%
%TO.N,/FB2*%
X149250001Y-106205000D03*
%TO.P,IC1,36*%
%TO.N,/VC2*%
X148750001Y-106205000D03*
D14*
%TO.P,IC1,37*%
%TO.N,GND*%
X149350001Y-107735000D03*
%TO.P,IC1,38*%
X150650001Y-107735000D03*
%TO.P,IC1,39*%
X149350001Y-109605000D03*
%TO.P,IC1,40*%
X150650001Y-109605000D03*
%TO.P,IC1,41*%
X149350001Y-111475000D03*
%TO.P,IC1,42*%
X150650001Y-111475000D03*
D15*
%TO.P,IC1,MP1*%
%TO.N,Net-(IC1-PadMP1)*%
X148187001Y-106292000D03*
%TO.P,IC1,MP2*%
%TO.N,Net-(IC1-PadMP2)*%
X148187001Y-112918000D03*
%TO.P,IC1,MP3*%
%TO.N,Net-(IC1-PadMP3)*%
X151813001Y-112918000D03*
%TO.P,IC1,MP4*%
%TO.N,Net-(IC1-PadMP4)*%
X151813001Y-106292000D03*
%TD*%
%TO.P,R8,2*%
%TO.N,GND2*%
%TA.AperFunction,SMDPad,CuDef*%
G36*
G01*
X145837500Y-98250000D02*
X145362500Y-98250000D01*
G75*
G02*
X145125000Y-98012500I0J237500D01*
G01*
X145125000Y-97437500D01*
G75*
G02*
X145362500Y-97200000I237500J0D01*
G01*
X145837500Y-97200000D01*
G75*
G02*
X146075000Y-97437500I0J-237500D01*
G01*
X146075000Y-98012500D01*
G75*
G02*
X145837500Y-98250000I-237500J0D01*
G01*
G37*
%TD.AperFunction*%
%TO.P,R8,1*%
%TO.N,/FB2*%
%TA.AperFunction,SMDPad,CuDef*%
G36*
G01*
X145837500Y-100000000D02*
X145362500Y-100000000D01*
G75*
G02*
X145125000Y-99762500I0J237500D01*
G01*
X145125000Y-99187500D01*
G75*
G02*
X145362500Y-98950000I237500J0D01*
G01*
X145837500Y-98950000D01*
G75*
G02*
X146075000Y-99187500I0J-237500D01*
G01*
X146075000Y-99762500D01*
G75*
G02*
X145837500Y-100000000I-237500J0D01*
G01*
G37*
%TD.AperFunction*%
%TD*%
%TO.P,C21,2*%
%TO.N,GND*%
%TA.AperFunction,SMDPad,CuDef*%
G36*
G01*
X142762500Y-112850000D02*
X143237500Y-112850000D01*
G75*
G02*
X143475000Y-113087500I0J-237500D01*
G01*
X143475000Y-113662500D01*
G75*
G02*
X143237500Y-113900000I-237500J0D01*
G01*
X142762500Y-113900000D01*
G75*
G02*
X142525000Y-113662500I0J237500D01*
G01*
X142525000Y-113087500D01*
G75*
G02*
X142762500Y-112850000I237500J0D01*
G01*
G37*
%TD.AperFunction*%
%TO.P,C21,1*%
%TO.N,/Vin1*%
%TA.AperFunction,SMDPad,CuDef*%
G36*
G01*
X142762500Y-111100000D02*
X143237500Y-111100000D01*
G75*
G02*
X143475000Y-111337500I0J-237500D01*
G01*
X143475000Y-111912500D01*
G75*
G02*
X143237500Y-112150000I-237500J0D01*
G01*
X142762500Y-112150000D01*
G75*
G02*
X142525000Y-111912500I0J237500D01*
G01*
X142525000Y-111337500D01*
G75*
G02*
X142762500Y-111100000I237500J0D01*
G01*
G37*
%TD.AperFunction*%
%TD*%
%TO.P,C20,2*%
%TO.N,GND*%
%TA.AperFunction,SMDPad,CuDef*%
G36*
G01*
X137750000Y-135250000D02*
X139750000Y-135250000D01*
G75*
G02*
X140000000Y-135500000I0J-250000D01*
G01*
X140000000Y-139400000D01*
G75*
G02*
X139750000Y-139650000I-250000J0D01*
G01*
X137750000Y-139650000D01*
G75*
G02*
X137500000Y-139400000I0J250000D01*
G01*
X137500000Y-135500000D01*
G75*
G02*
X137750000Y-135250000I250000J0D01*
G01*
G37*
%TD.AperFunction*%
%TO.P,C20,1*%
%TO.N,/Vin1*%
%TA.AperFunction,SMDPad,CuDef*%
G36*
G01*
X137750000Y-127850000D02*
X139750000Y-127850000D01*
G75*
G02*
X140000000Y-128100000I0J-250000D01*
G01*
X140000000Y-132000000D01*
G75*
G02*
X139750000Y-132250000I-250000J0D01*
G01*
X137750000Y-132250000D01*
G75*
G02*
X137500000Y-132000000I0J250000D01*
G01*
X137500000Y-128100000D01*
G75*
G02*
X137750000Y-127850000I250000J0D01*
G01*
G37*
%TD.AperFunction*%
%TD*%
D16*
%TO.P,C19,2*%
%TO.N,GND*%
X204000000Y-138050000D03*
%TO.P,C19,1*%
%TO.N,/VO2*%
X204000000Y-126950000D03*
%TD*%
%TO.P,C18,2*%
%TO.N,GND*%
X203500000Y-86890000D03*
%TO.P,C18,1*%
%TO.N,/VO1*%
X203500000Y-97990000D03*
%TD*%
%TO.P,C17,2*%
%TO.N,GND*%
%TA.AperFunction,SMDPad,CuDef*%
G36*
G01*
X178447500Y-115360000D02*
X177972500Y-115360000D01*
G75*
G02*
X177735000Y-115122500I0J237500D01*
G01*
X177735000Y-114547500D01*
G75*
G02*
X177972500Y-114310000I237500J0D01*
G01*
X178447500Y-114310000D01*
G75*
G02*
X178685000Y-114547500I0J-237500D01*
G01*
X178685000Y-115122500D01*
G75*
G02*
X178447500Y-115360000I-237500J0D01*
G01*
G37*
%TD.AperFunction*%
%TO.P,C17,1*%
%TO.N,/VO2*%
%TA.AperFunction,SMDPad,CuDef*%
G36*
G01*
X178447500Y-117110000D02*
X177972500Y-117110000D01*
G75*
G02*
X177735000Y-116872500I0J237500D01*
G01*
X177735000Y-116297500D01*
G75*
G02*
X177972500Y-116060000I237500J0D01*
G01*
X178447500Y-116060000D01*
G75*
G02*
X178685000Y-116297500I0J-237500D01*
G01*
X178685000Y-116872500D01*
G75*
G02*
X178447500Y-117110000I-237500J0D01*
G01*
G37*
%TD.AperFunction*%
%TD*%
%TO.P,C16,2*%
%TO.N,GND*%
%TA.AperFunction,SMDPad,CuDef*%
G36*
G01*
X182862500Y-107050000D02*
X183337500Y-107050000D01*
G75*
G02*
X183575000Y-107287500I0J-237500D01*
G01*
X183575000Y-107862500D01*
G75*
G02*
X183337500Y-108100000I-237500J0D01*
G01*
X182862500Y-108100000D01*
G75*
G02*
X182625000Y-107862500I0J237500D01*
G01*
X182625000Y-107287500D01*
G75*
G02*
X182862500Y-107050000I237500J0D01*
G01*
G37*
%TD.AperFunction*%
%TO.P,C16,1*%
%TO.N,/VO1*%
%TA.AperFunction,SMDPad,CuDef*%
G36*
G01*
X182862500Y-105300000D02*
X183337500Y-105300000D01*
G75*
G02*
X183575000Y-105537500I0J-237500D01*
G01*
X183575000Y-106112500D01*
G75*
G02*
X183337500Y-106350000I-237500J0D01*
G01*
X182862500Y-106350000D01*
G75*
G02*
X182625000Y-106112500I0J237500D01*
G01*
X182625000Y-105537500D01*
G75*
G02*
X182862500Y-105300000I237500J0D01*
G01*
G37*
%TD.AperFunction*%
%TD*%
%TO.P,C14,2*%
%TO.N,GND*%
%TA.AperFunction,SMDPad,CuDef*%
G36*
G01*
X148000000Y-135500000D02*
X150000000Y-135500000D01*
G75*
G02*
X150250000Y-135750000I0J-250000D01*
G01*
X150250000Y-139650000D01*
G75*
G02*
X150000000Y-139900000I-250000J0D01*
G01*
X148000000Y-139900000D01*
G75*
G02*
X147750000Y-139650000I0J250000D01*
G01*
X147750000Y-135750000D01*
G75*
G02*
X148000000Y-135500000I250000J0D01*
G01*
G37*
%TD.AperFunction*%
%TO.P,C14,1*%
%TO.N,/Vin1*%
%TA.AperFunction,SMDPad,CuDef*%
G36*
G01*
X148000000Y-128100000D02*
X150000000Y-128100000D01*
G75*
G02*
X150250000Y-128350000I0J-250000D01*
G01*
X150250000Y-132250000D01*
G75*
G02*
X150000000Y-132500000I-250000J0D01*
G01*
X148000000Y-132500000D01*
G75*
G02*
X147750000Y-132250000I0J250000D01*
G01*
X147750000Y-128350000D01*
G75*
G02*
X148000000Y-128100000I250000J0D01*
G01*
G37*
%TD.AperFunction*%
%TD*%
%TO.P,C6,2*%
%TO.N,GND*%
%TA.AperFunction,SMDPad,CuDef*%
G36*
G01*
X177532500Y-107050000D02*
X178007500Y-107050000D01*
G75*
G02*
X178245000Y-107287500I0J-237500D01*
G01*
X178245000Y-107862500D01*
G75*
G02*
X178007500Y-108100000I-237500J0D01*
G01*
X177532500Y-108100000D01*
G75*
G02*
X177295000Y-107862500I0J237500D01*
G01*
X177295000Y-107287500D01*
G75*
G02*
X177532500Y-107050000I237500J0D01*
G01*
G37*
%TD.AperFunction*%
%TO.P,C6,1*%
%TO.N,/VO1*%
%TA.AperFunction,SMDPad,CuDef*%
G36*
G01*
X177532500Y-105300000D02*
X178007500Y-105300000D01*
G75*
G02*
X178245000Y-105537500I0J-237500D01*
G01*
X178245000Y-106112500D01*
G75*
G02*
X178007500Y-106350000I-237500J0D01*
G01*
X177532500Y-106350000D01*
G75*
G02*
X177295000Y-106112500I0J237500D01*
G01*
X177295000Y-105537500D01*
G75*
G02*
X177532500Y-105300000I237500J0D01*
G01*
G37*
%TD.AperFunction*%
%TD*%
%TO.P,R12,2*%
%TO.N,GND2*%
%TA.AperFunction,SMDPad,CuDef*%
G36*
G01*
X153637500Y-89975000D02*
X153162500Y-89975000D01*
G75*
G02*
X152925000Y-89737500I0J237500D01*
G01*
X152925000Y-89162500D01*
G75*
G02*
X153162500Y-88925000I237500J0D01*
G01*
X153637500Y-88925000D01*
G75*
G02*
X153875000Y-89162500I0J-237500D01*
G01*
X153875000Y-89737500D01*
G75*
G02*
X153637500Y-89975000I-237500J0D01*
G01*
G37*
%TD.AperFunction*%
%TO.P,R12,1*%
%TO.N,Net-(IC1-Pad30)*%
%TA.AperFunction,SMDPad,CuDef*%
G36*
G01*
X153637500Y-91725000D02*
X153162500Y-91725000D01*
G75*
G02*
X152925000Y-91487500I0J237500D01*
G01*
X152925000Y-90912500D01*
G75*
G02*
X153162500Y-90675000I237500J0D01*
G01*
X153637500Y-90675000D01*
G75*
G02*
X153875000Y-90912500I0J-237500D01*
G01*
X153875000Y-91487500D01*
G75*
G02*
X153637500Y-91725000I-237500J0D01*
G01*
G37*
%TD.AperFunction*%
%TD*%
%TO.P,R11,2*%
%TO.N,Net-(IC1-Pad1)*%
%TA.AperFunction,SMDPad,CuDef*%
G36*
G01*
X141050000Y-86162500D02*
X141050000Y-86637500D01*
G75*
G02*
X140812500Y-86875000I-237500J0D01*
G01*
X140237500Y-86875000D01*
G75*
G02*
X140000000Y-86637500I0J237500D01*
G01*
X140000000Y-86162500D01*
G75*
G02*
X140237500Y-85925000I237500J0D01*
G01*
X140812500Y-85925000D01*
G75*
G02*
X141050000Y-86162500I0J-237500D01*
G01*
G37*
%TD.AperFunction*%
%TO.P,R11,1*%
%TO.N,GND2*%
%TA.AperFunction,SMDPad,CuDef*%
G36*
G01*
X142800000Y-86162500D02*
X142800000Y-86637500D01*
G75*
G02*
X142562500Y-86875000I-237500J0D01*
G01*
X141987500Y-86875000D01*
G75*
G02*
X141750000Y-86637500I0J237500D01*
G01*
X141750000Y-86162500D01*
G75*
G02*
X141987500Y-85925000I237500J0D01*
G01*
X142562500Y-85925000D01*
G75*
G02*
X142800000Y-86162500I0J-237500D01*
G01*
G37*
%TD.AperFunction*%
%TD*%
%TO.P,C11,2*%
%TO.N,GND*%
%TA.AperFunction,SMDPad,CuDef*%
G36*
G01*
X183567500Y-115350000D02*
X183092500Y-115350000D01*
G75*
G02*
X182855000Y-115112500I0J237500D01*
G01*
X182855000Y-114537500D01*
G75*
G02*
X183092500Y-114300000I237500J0D01*
G01*
X183567500Y-114300000D01*
G75*
G02*
X183805000Y-114537500I0J-237500D01*
G01*
X183805000Y-115112500D01*
G75*
G02*
X183567500Y-115350000I-237500J0D01*
G01*
G37*
%TD.AperFunction*%
%TO.P,C11,1*%
%TO.N,/VO2*%
%TA.AperFunction,SMDPad,CuDef*%
G36*
G01*
X183567500Y-117100000D02*
X183092500Y-117100000D01*
G75*
G02*
X182855000Y-116862500I0J237500D01*
G01*
X182855000Y-116287500D01*
G75*
G02*
X183092500Y-116050000I237500J0D01*
G01*
X183567500Y-116050000D01*
G75*
G02*
X183805000Y-116287500I0J-237500D01*
G01*
X183805000Y-116862500D01*
G75*
G02*
X183567500Y-117100000I-237500J0D01*
G01*
G37*
%TD.AperFunction*%
%TD*%
D11*
%TO.P,PG2,1*%
%TO.N,Net-(IC1-Pad15)*%
X129950000Y-118250000D03*
%TD*%
%TO.P,PG1,1*%
%TO.N,Net-(IC1-Pad16)*%
X130500000Y-122300000D03*
%TD*%
%TO.P,VC1,1*%
%TO.N,/VC1*%
X126000000Y-102000000D03*
%TD*%
%TO.P,VC2,1*%
%TO.N,/VC2*%
X129400000Y-113300000D03*
%TD*%
D17*
%TO.P,J4,14*%
%TO.N,Net-(IC1-Pad16)*%
X125440000Y-121040000D03*
%TO.P,J4,13*%
%TO.N,GND2*%
X122900000Y-121040000D03*
%TO.P,J4,12*%
%TO.N,Net-(IC1-Pad15)*%
X125440000Y-118500000D03*
%TO.P,J4,11*%
%TO.N,GND2*%
X122900000Y-118500000D03*
%TO.P,J4,10*%
%TO.N,Net-(IC1-Pad13)*%
X125440000Y-115960000D03*
%TO.P,J4,9*%
%TO.N,GND2*%
X122900000Y-115960000D03*
%TO.P,J4,8*%
%TO.N,/VC2*%
X125440000Y-113420000D03*
%TO.P,J4,7*%
%TO.N,GND2*%
X122900000Y-113420000D03*
%TO.P,J4,6*%
%TO.N,/SS2*%
X125440000Y-110880000D03*
%TO.P,J4,5*%
%TO.N,GND2*%
X122900000Y-110880000D03*
%TO.P,J4,4*%
%TO.N,/SS1*%
X125440000Y-108340000D03*
%TO.P,J4,3*%
%TO.N,GND2*%
X122900000Y-108340000D03*
%TO.P,J4,2*%
%TO.N,/VC1*%
X125440000Y-105800000D03*
D18*
%TO.P,J4,1*%
%TO.N,GND2*%
X122900000Y-105800000D03*
%TD*%
D19*
%TO.P,J3,2*%
%TO.N,GND*%
X190610000Y-114700000D03*
D20*
%TO.P,J3,1*%
%TO.N,/VO2*%
X190610000Y-117240000D03*
%TD*%
D19*
%TO.P,J2,2*%
%TO.N,GND*%
X190410000Y-107640000D03*
D20*
%TO.P,J2,1*%
%TO.N,/VO1*%
X190410000Y-105100000D03*
%TD*%
D19*
%TO.P,J1,2*%
%TO.N,GND*%
X128750000Y-132790000D03*
D20*
%TO.P,J1,1*%
%TO.N,/Vin1*%
X128750000Y-130250000D03*
%TD*%
%TO.P,R9,2*%
%TO.N,GND2*%
%TA.AperFunction,SMDPad,CuDef*%
G36*
G01*
X130237500Y-103900000D02*
X129762500Y-103900000D01*
G75*
G02*
X129525000Y-103662500I0J237500D01*
G01*
X129525000Y-103087500D01*
G75*
G02*
X129762500Y-102850000I237500J0D01*
G01*
X130237500Y-102850000D01*
G75*
G02*
X130475000Y-103087500I0J-237500D01*
G01*
X130475000Y-103662500D01*
G75*
G02*
X130237500Y-103900000I-237500J0D01*
G01*
G37*
%TD.AperFunction*%
%TO.P,R9,1*%
%TO.N,GND*%
%TA.AperFunction,SMDPad,CuDef*%
G36*
G01*
X130237500Y-105650000D02*
X129762500Y-105650000D01*
G75*
G02*
X129525000Y-105412500I0J237500D01*
G01*
X129525000Y-104837500D01*
G75*
G02*
X129762500Y-104600000I237500J0D01*
G01*
X130237500Y-104600000D01*
G75*
G02*
X130475000Y-104837500I0J-237500D01*
G01*
X130475000Y-105412500D01*
G75*
G02*
X130237500Y-105650000I-237500J0D01*
G01*
G37*
%TD.AperFunction*%
%TD*%
%TO.P,R3,2*%
%TO.N,GND2*%
%TA.AperFunction,SMDPad,CuDef*%
G36*
G01*
X160400000Y-88512500D02*
X160400000Y-88987500D01*
G75*
G02*
X160162500Y-89225000I-237500J0D01*
G01*
X159587500Y-89225000D01*
G75*
G02*
X159350000Y-88987500I0J237500D01*
G01*
X159350000Y-88512500D01*
G75*
G02*
X159587500Y-88275000I237500J0D01*
G01*
X160162500Y-88275000D01*
G75*
G02*
X160400000Y-88512500I0J-237500D01*
G01*
G37*
%TD.AperFunction*%
%TO.P,R3,1*%
%TO.N,GND*%
%TA.AperFunction,SMDPad,CuDef*%
G36*
G01*
X162150000Y-88512500D02*
X162150000Y-88987500D01*
G75*
G02*
X161912500Y-89225000I-237500J0D01*
G01*
X161337500Y-89225000D01*
G75*
G02*
X161100000Y-88987500I0J237500D01*
G01*
X161100000Y-88512500D01*
G75*
G02*
X161337500Y-88275000I237500J0D01*
G01*
X161912500Y-88275000D01*
G75*
G02*
X162150000Y-88512500I0J-237500D01*
G01*
G37*
%TD.AperFunction*%
%TD*%
D11*
%TO.P,SW1,1*%
%TO.N,/SW1*%
X167000000Y-112500000D03*
%TD*%
%TO.P,SW2,1*%
%TO.N,/SW2*%
X152000000Y-117750000D03*
%TD*%
%TO.P,C15,2*%
%TO.N,GND*%
%TA.AperFunction,SMDPad,CuDef*%
G36*
G01*
X143327500Y-108525000D02*
X142852500Y-108525000D01*
G75*
G02*
X142615000Y-108287500I0J237500D01*
G01*
X142615000Y-107712500D01*
G75*
G02*
X142852500Y-107475000I237500J0D01*
G01*
X143327500Y-107475000D01*
G75*
G02*
X143565000Y-107712500I0J-237500D01*
G01*
X143565000Y-108287500D01*
G75*
G02*
X143327500Y-108525000I-237500J0D01*
G01*
G37*
%TD.AperFunction*%
%TO.P,C15,1*%
%TO.N,/Vin1*%
%TA.AperFunction,SMDPad,CuDef*%
G36*
G01*
X143327500Y-110275000D02*
X142852500Y-110275000D01*
G75*
G02*
X142615000Y-110037500I0J237500D01*
G01*
X142615000Y-109462500D01*
G75*
G02*
X142852500Y-109225000I237500J0D01*
G01*
X143327500Y-109225000D01*
G75*
G02*
X143565000Y-109462500I0J-237500D01*
G01*
X143565000Y-110037500D01*
G75*
G02*
X143327500Y-110275000I-237500J0D01*
G01*
G37*
%TD.AperFunction*%
%TD*%
%TO.P,C10,1*%
%TO.N,Net-(C10-Pad1)*%
%TA.AperFunction,SMDPad,CuDef*%
G36*
G01*
X153637500Y-96000000D02*
X153162500Y-96000000D01*
G75*
G02*
X152925000Y-95762500I0J237500D01*
G01*
X152925000Y-95187500D01*
G75*
G02*
X153162500Y-94950000I237500J0D01*
G01*
X153637500Y-94950000D01*
G75*
G02*
X153875000Y-95187500I0J-237500D01*
G01*
X153875000Y-95762500D01*
G75*
G02*
X153637500Y-96000000I-237500J0D01*
G01*
G37*
%TD.AperFunction*%
%TO.P,C10,2*%
%TO.N,GND2*%
%TA.AperFunction,SMDPad,CuDef*%
G36*
G01*
X153637500Y-94250000D02*
X153162500Y-94250000D01*
G75*
G02*
X152925000Y-94012500I0J237500D01*
G01*
X152925000Y-93437500D01*
G75*
G02*
X153162500Y-93200000I237500J0D01*
G01*
X153637500Y-93200000D01*
G75*
G02*
X153875000Y-93437500I0J-237500D01*
G01*
X153875000Y-94012500D01*
G75*
G02*
X153637500Y-94250000I-237500J0D01*
G01*
G37*
%TD.AperFunction*%
%TD*%
%TO.P,C1,2*%
%TO.N,GND2*%
%TA.AperFunction,SMDPad,CuDef*%
G36*
G01*
X141730000Y-91477500D02*
X141730000Y-91002500D01*
G75*
G02*
X141967500Y-90765000I237500J0D01*
G01*
X142542500Y-90765000D01*
G75*
G02*
X142780000Y-91002500I0J-237500D01*
G01*
X142780000Y-91477500D01*
G75*
G02*
X142542500Y-91715000I-237500J0D01*
G01*
X141967500Y-91715000D01*
G75*
G02*
X141730000Y-91477500I0J237500D01*
G01*
G37*
%TD.AperFunction*%
%TO.P,C1,1*%
%TO.N,/VCC*%
%TA.AperFunction,SMDPad,CuDef*%
G36*
G01*
X139980000Y-91477500D02*
X139980000Y-91002500D01*
G75*
G02*
X140217500Y-90765000I237500J0D01*
G01*
X140792500Y-90765000D01*
G75*
G02*
X141030000Y-91002500I0J-237500D01*
G01*
X141030000Y-91477500D01*
G75*
G02*
X140792500Y-91715000I-237500J0D01*
G01*
X140217500Y-91715000D01*
G75*
G02*
X139980000Y-91477500I0J237500D01*
G01*
G37*
%TD.AperFunction*%
%TD*%
%TO.P,C5,1*%
%TO.N,/VC2*%
%TA.AperFunction,SMDPad,CuDef*%
G36*
G01*
X143037500Y-99800000D02*
X142562500Y-99800000D01*
G75*
G02*
X142325000Y-99562500I0J237500D01*
G01*
X142325000Y-98987500D01*
G75*
G02*
X142562500Y-98750000I237500J0D01*
G01*
X143037500Y-98750000D01*
G75*
G02*
X143275000Y-98987500I0J-237500D01*
G01*
X143275000Y-99562500D01*
G75*
G02*
X143037500Y-99800000I-237500J0D01*
G01*
G37*
%TD.AperFunction*%
%TO.P,C5,2*%
%TO.N,GND2*%
%TA.AperFunction,SMDPad,CuDef*%
G36*
G01*
X143037500Y-98050000D02*
X142562500Y-98050000D01*
G75*
G02*
X142325000Y-97812500I0J237500D01*
G01*
X142325000Y-97237500D01*
G75*
G02*
X142562500Y-97000000I237500J0D01*
G01*
X143037500Y-97000000D01*
G75*
G02*
X143275000Y-97237500I0J-237500D01*
G01*
X143275000Y-97812500D01*
G75*
G02*
X143037500Y-98050000I-237500J0D01*
G01*
G37*
%TD.AperFunction*%
%TD*%
%TO.P,R6,1*%
%TO.N,/VC1*%
%TA.AperFunction,SMDPad,CuDef*%
G36*
G01*
X153657500Y-100000000D02*
X153182500Y-100000000D01*
G75*
G02*
X152945000Y-99762500I0J237500D01*
G01*
X152945000Y-99187500D01*
G75*
G02*
X153182500Y-98950000I237500J0D01*
G01*
X153657500Y-98950000D01*
G75*
G02*
X153895000Y-99187500I0J-237500D01*
G01*
X153895000Y-99762500D01*
G75*
G02*
X153657500Y-100000000I-237500J0D01*
G01*
G37*
%TD.AperFunction*%
%TO.P,R6,2*%
%TO.N,Net-(C10-Pad1)*%
%TA.AperFunction,SMDPad,CuDef*%
G36*
G01*
X153657500Y-98250000D02*
X153182500Y-98250000D01*
G75*
G02*
X152945000Y-98012500I0J237500D01*
G01*
X152945000Y-97437500D01*
G75*
G02*
X153182500Y-97200000I237500J0D01*
G01*
X153657500Y-97200000D01*
G75*
G02*
X153895000Y-97437500I0J-237500D01*
G01*
X153895000Y-98012500D01*
G75*
G02*
X153657500Y-98250000I-237500J0D01*
G01*
G37*
%TD.AperFunction*%
%TD*%
%TO.P,C2,1*%
%TO.N,/SS1*%
%TA.AperFunction,SMDPad,CuDef*%
G36*
G01*
X139980000Y-88937500D02*
X139980000Y-88462500D01*
G75*
G02*
X140217500Y-88225000I237500J0D01*
G01*
X140792500Y-88225000D01*
G75*
G02*
X141030000Y-88462500I0J-237500D01*
G01*
X141030000Y-88937500D01*
G75*
G02*
X140792500Y-89175000I-237500J0D01*
G01*
X140217500Y-89175000D01*
G75*
G02*
X139980000Y-88937500I0J237500D01*
G01*
G37*
%TD.AperFunction*%
%TO.P,C2,2*%
%TO.N,GND2*%
%TA.AperFunction,SMDPad,CuDef*%
G36*
G01*
X141730000Y-88937500D02*
X141730000Y-88462500D01*
G75*
G02*
X141967500Y-88225000I237500J0D01*
G01*
X142542500Y-88225000D01*
G75*
G02*
X142780000Y-88462500I0J-237500D01*
G01*
X142780000Y-88937500D01*
G75*
G02*
X142542500Y-89175000I-237500J0D01*
G01*
X141967500Y-89175000D01*
G75*
G02*
X141730000Y-88937500I0J237500D01*
G01*
G37*
%TD.AperFunction*%
%TD*%
%TO.P,C7,2*%
%TO.N,GND2*%
%TA.AperFunction,SMDPad,CuDef*%
G36*
G01*
X151237500Y-98250000D02*
X150762500Y-98250000D01*
G75*
G02*
X150525000Y-98012500I0J237500D01*
G01*
X150525000Y-97437500D01*
G75*
G02*
X150762500Y-97200000I237500J0D01*
G01*
X151237500Y-97200000D01*
G75*
G02*
X151475000Y-97437500I0J-237500D01*
G01*
X151475000Y-98012500D01*
G75*
G02*
X151237500Y-98250000I-237500J0D01*
G01*
G37*
%TD.AperFunction*%
%TO.P,C7,1*%
%TO.N,/VC1*%
%TA.AperFunction,SMDPad,CuDef*%
G36*
G01*
X151237500Y-100000000D02*
X150762500Y-100000000D01*
G75*
G02*
X150525000Y-99762500I0J237500D01*
G01*
X150525000Y-99187500D01*
G75*
G02*
X150762500Y-98950000I237500J0D01*
G01*
X151237500Y-98950000D01*
G75*
G02*
X151475000Y-99187500I0J-237500D01*
G01*
X151475000Y-99762500D01*
G75*
G02*
X151237500Y-100000000I-237500J0D01*
G01*
G37*
%TD.AperFunction*%
%TD*%
%TO.P,C8,1*%
%TO.N,Net-(C8-Pad1)*%
%TA.AperFunction,SMDPad,CuDef*%
G36*
G01*
X140637500Y-95800000D02*
X140162500Y-95800000D01*
G75*
G02*
X139925000Y-95562500I0J237500D01*
G01*
X139925000Y-94987500D01*
G75*
G02*
X140162500Y-94750000I237500J0D01*
G01*
X140637500Y-94750000D01*
G75*
G02*
X140875000Y-94987500I0J-237500D01*
G01*
X140875000Y-95562500D01*
G75*
G02*
X140637500Y-95800000I-237500J0D01*
G01*
G37*
%TD.AperFunction*%
%TO.P,C8,2*%
%TO.N,GND2*%
%TA.AperFunction,SMDPad,CuDef*%
G36*
G01*
X140637500Y-94050000D02*
X140162500Y-94050000D01*
G75*
G02*
X139925000Y-93812500I0J237500D01*
G01*
X139925000Y-93237500D01*
G75*
G02*
X140162500Y-93000000I237500J0D01*
G01*
X140637500Y-93000000D01*
G75*
G02*
X140875000Y-93237500I0J-237500D01*
G01*
X140875000Y-93812500D01*
G75*
G02*
X140637500Y-94050000I-237500J0D01*
G01*
G37*
%TD.AperFunction*%
%TD*%
%TO.P,C9,2*%
%TO.N,/FB1*%
%TA.AperFunction,SMDPad,CuDef*%
G36*
G01*
X156650000Y-86362500D02*
X156650000Y-86837500D01*
G75*
G02*
X156412500Y-87075000I-237500J0D01*
G01*
X155837500Y-87075000D01*
G75*
G02*
X155600000Y-86837500I0J237500D01*
G01*
X155600000Y-86362500D01*
G75*
G02*
X155837500Y-86125000I237500J0D01*
G01*
X156412500Y-86125000D01*
G75*
G02*
X156650000Y-86362500I0J-237500D01*
G01*
G37*
%TD.AperFunction*%
%TO.P,C9,1*%
%TO.N,/VO1*%
%TA.AperFunction,SMDPad,CuDef*%
G36*
G01*
X158400000Y-86362500D02*
X158400000Y-86837500D01*
G75*
G02*
X158162500Y-87075000I-237500J0D01*
G01*
X157587500Y-87075000D01*
G75*
G02*
X157350000Y-86837500I0J237500D01*
G01*
X157350000Y-86362500D01*
G75*
G02*
X157587500Y-86125000I237500J0D01*
G01*
X158162500Y-86125000D01*
G75*
G02*
X158400000Y-86362500I0J-237500D01*
G01*
G37*
%TD.AperFunction*%
%TD*%
D16*
%TO.P,C12,1*%
%TO.N,/VO2*%
X186500000Y-126950000D03*
%TO.P,C12,2*%
%TO.N,GND*%
X186500000Y-138050000D03*
%TD*%
%TO.P,C13,2*%
%TO.N,GND*%
X187000000Y-86950000D03*
%TO.P,C13,1*%
%TO.N,/VO1*%
X187000000Y-98050000D03*
%TD*%
%TO.P,R4,1*%
%TO.N,/VC2*%
%TA.AperFunction,SMDPad,CuDef*%
G36*
G01*
X140637500Y-99800000D02*
X140162500Y-99800000D01*
G75*
G02*
X139925000Y-99562500I0J237500D01*
G01*
X139925000Y-98987500D01*
G75*
G02*
X140162500Y-98750000I237500J0D01*
G01*
X140637500Y-98750000D01*
G75*
G02*
X140875000Y-98987500I0J-237500D01*
G01*
X140875000Y-99562500D01*
G75*
G02*
X140637500Y-99800000I-237500J0D01*
G01*
G37*
%TD.AperFunction*%
%TO.P,R4,2*%
%TO.N,Net-(C8-Pad1)*%
%TA.AperFunction,SMDPad,CuDef*%
G36*
G01*
X140637500Y-98050000D02*
X140162500Y-98050000D01*
G75*
G02*
X139925000Y-97812500I0J237500D01*
G01*
X139925000Y-97237500D01*
G75*
G02*
X140162500Y-97000000I237500J0D01*
G01*
X140637500Y-97000000D01*
G75*
G02*
X140875000Y-97237500I0J-237500D01*
G01*
X140875000Y-97812500D01*
G75*
G02*
X140637500Y-98050000I-237500J0D01*
G01*
G37*
%TD.AperFunction*%
%TD*%
%TO.P,R7,1*%
%TO.N,/VO1*%
%TA.AperFunction,SMDPad,CuDef*%
G36*
G01*
X158400000Y-83962500D02*
X158400000Y-84437500D01*
G75*
G02*
X158162500Y-84675000I-237500J0D01*
G01*
X157587500Y-84675000D01*
G75*
G02*
X157350000Y-84437500I0J237500D01*
G01*
X157350000Y-83962500D01*
G75*
G02*
X157587500Y-83725000I237500J0D01*
G01*
X158162500Y-83725000D01*
G75*
G02*
X158400000Y-83962500I0J-237500D01*
G01*
G37*
%TD.AperFunction*%
%TO.P,R7,2*%
%TO.N,/FB1*%
%TA.AperFunction,SMDPad,CuDef*%
G36*
G01*
X156650000Y-83962500D02*
X156650000Y-84437500D01*
G75*
G02*
X156412500Y-84675000I-237500J0D01*
G01*
X155837500Y-84675000D01*
G75*
G02*
X155600000Y-84437500I0J237500D01*
G01*
X155600000Y-83962500D01*
G75*
G02*
X155837500Y-83725000I237500J0D01*
G01*
X156412500Y-83725000D01*
G75*
G02*
X156650000Y-83962500I0J-237500D01*
G01*
G37*
%TD.AperFunction*%
%TD*%
%TO.P,C3,2*%
%TO.N,GND2*%
%TA.AperFunction,SMDPad,CuDef*%
G36*
G01*
X138047500Y-98030000D02*
X137572500Y-98030000D01*
G75*
G02*
X137335000Y-97792500I0J237500D01*
G01*
X137335000Y-97217500D01*
G75*
G02*
X137572500Y-96980000I237500J0D01*
G01*
X138047500Y-96980000D01*
G75*
G02*
X138285000Y-97217500I0J-237500D01*
G01*
X138285000Y-97792500D01*
G75*
G02*
X138047500Y-98030000I-237500J0D01*
G01*
G37*
%TD.AperFunction*%
%TO.P,C3,1*%
%TO.N,/SS2*%
%TA.AperFunction,SMDPad,CuDef*%
G36*
G01*
X138047500Y-99780000D02*
X137572500Y-99780000D01*
G75*
G02*
X137335000Y-99542500I0J237500D01*
G01*
X137335000Y-98967500D01*
G75*
G02*
X137572500Y-98730000I237500J0D01*
G01*
X138047500Y-98730000D01*
G75*
G02*
X138285000Y-98967500I0J-237500D01*
G01*
X138285000Y-99542500D01*
G75*
G02*
X138047500Y-99780000I-237500J0D01*
G01*
G37*
%TD.AperFunction*%
%TD*%
%TO.P,C4,1*%
%TO.N,/FB2*%
%TA.AperFunction,SMDPad,CuDef*%
G36*
G01*
X149110000Y-123117500D02*
X149110000Y-122642500D01*
G75*
G02*
X149347500Y-122405000I237500J0D01*
G01*
X149922500Y-122405000D01*
G75*
G02*
X150160000Y-122642500I0J-237500D01*
G01*
X150160000Y-123117500D01*
G75*
G02*
X149922500Y-123355000I-237500J0D01*
G01*
X149347500Y-123355000D01*
G75*
G02*
X149110000Y-123117500I0J237500D01*
G01*
G37*
%TD.AperFunction*%
%TO.P,C4,2*%
%TO.N,/VO2*%
%TA.AperFunction,SMDPad,CuDef*%
G36*
G01*
X150860000Y-123117500D02*
X150860000Y-122642500D01*
G75*
G02*
X151097500Y-122405000I237500J0D01*
G01*
X151672500Y-122405000D01*
G75*
G02*
X151910000Y-122642500I0J-237500D01*
G01*
X151910000Y-123117500D01*
G75*
G02*
X151672500Y-123355000I-237500J0D01*
G01*
X151097500Y-123355000D01*
G75*
G02*
X150860000Y-123117500I0J237500D01*
G01*
G37*
%TD.AperFunction*%
%TD*%
%TO.P,R1,1*%
%TO.N,/RT*%
%TA.AperFunction,SMDPad,CuDef*%
G36*
G01*
X142800000Y-105762500D02*
X142800000Y-106237500D01*
G75*
G02*
X142562500Y-106475000I-237500J0D01*
G01*
X141987500Y-106475000D01*
G75*
G02*
X141750000Y-106237500I0J237500D01*
G01*
X141750000Y-105762500D01*
G75*
G02*
X141987500Y-105525000I237500J0D01*
G01*
X142562500Y-105525000D01*
G75*
G02*
X142800000Y-105762500I0J-237500D01*
G01*
G37*
%TD.AperFunction*%
%TO.P,R1,2*%
%TO.N,GND2*%
%TA.AperFunction,SMDPad,CuDef*%
G36*
G01*
X141050000Y-105762500D02*
X141050000Y-106237500D01*
G75*
G02*
X140812500Y-106475000I-237500J0D01*
G01*
X140237500Y-106475000D01*
G75*
G02*
X140000000Y-106237500I0J237500D01*
G01*
X140000000Y-105762500D01*
G75*
G02*
X140237500Y-105525000I237500J0D01*
G01*
X140812500Y-105525000D01*
G75*
G02*
X141050000Y-105762500I0J-237500D01*
G01*
G37*
%TD.AperFunction*%
%TD*%
%TO.P,R2,2*%
%TO.N,/FB2*%
%TA.AperFunction,SMDPad,CuDef*%
G36*
G01*
X150160000Y-120102500D02*
X150160000Y-120577500D01*
G75*
G02*
X149922500Y-120815000I-237500J0D01*
G01*
X149347500Y-120815000D01*
G75*
G02*
X149110000Y-120577500I0J237500D01*
G01*
X149110000Y-120102500D01*
G75*
G02*
X149347500Y-119865000I237500J0D01*
G01*
X149922500Y-119865000D01*
G75*
G02*
X150160000Y-120102500I0J-237500D01*
G01*
G37*
%TD.AperFunction*%
%TO.P,R2,1*%
%TO.N,/VO2*%
%TA.AperFunction,SMDPad,CuDef*%
G36*
G01*
X151910000Y-120102500D02*
X151910000Y-120577500D01*
G75*
G02*
X151672500Y-120815000I-237500J0D01*
G01*
X151097500Y-120815000D01*
G75*
G02*
X150860000Y-120577500I0J237500D01*
G01*
X150860000Y-120102500D01*
G75*
G02*
X151097500Y-119865000I237500J0D01*
G01*
X151672500Y-119865000D01*
G75*
G02*
X151910000Y-120102500I0J-237500D01*
G01*
G37*
%TD.AperFunction*%
%TD*%
%TO.P,R5,1*%
%TO.N,/FB1*%
%TA.AperFunction,SMDPad,CuDef*%
G36*
G01*
X148637500Y-100000000D02*
X148162500Y-100000000D01*
G75*
G02*
X147925000Y-99762500I0J237500D01*
G01*
X147925000Y-99187500D01*
G75*
G02*
X148162500Y-98950000I237500J0D01*
G01*
X148637500Y-98950000D01*
G75*
G02*
X148875000Y-99187500I0J-237500D01*
G01*
X148875000Y-99762500D01*
G75*
G02*
X148637500Y-100000000I-237500J0D01*
G01*
G37*
%TD.AperFunction*%
%TO.P,R5,2*%
%TO.N,GND2*%
%TA.AperFunction,SMDPad,CuDef*%
G36*
G01*
X148637500Y-98250000D02*
X148162500Y-98250000D01*
G75*
G02*
X147925000Y-98012500I0J237500D01*
G01*
X147925000Y-97437500D01*
G75*
G02*
X148162500Y-97200000I237500J0D01*
G01*
X148637500Y-97200000D01*
G75*
G02*
X148875000Y-97437500I0J-237500D01*
G01*
X148875000Y-98012500D01*
G75*
G02*
X148637500Y-98250000I-237500J0D01*
G01*
G37*
%TD.AperFunction*%
%TD*%
D21*
%TO.P,L1,2*%
%TO.N,Net-(L1-Pad2)*%
X162500000Y-97525000D03*
%TO.P,L1,1*%
%TO.N,/SW1*%
X162500000Y-106475000D03*
%TD*%
%TO.P,L2,1*%
%TO.N,/SW2*%
X161500000Y-118025000D03*
%TO.P,L2,2*%
%TO.N,Net-(L2-Pad2)*%
X161500000Y-126975000D03*
%TD*%
%TO.P,R10,1*%
%TO.N,GND*%
%TA.AperFunction,SMDPad,CuDef*%
G36*
G01*
X162150000Y-81762500D02*
X162150000Y-82237500D01*
G75*
G02*
X161912500Y-82475000I-237500J0D01*
G01*
X161337500Y-82475000D01*
G75*
G02*
X161100000Y-82237500I0J237500D01*
G01*
X161100000Y-81762500D01*
G75*
G02*
X161337500Y-81525000I237500J0D01*
G01*
X161912500Y-81525000D01*
G75*
G02*
X162150000Y-81762500I0J-237500D01*
G01*
G37*
%TD.AperFunction*%
%TO.P,R10,2*%
%TO.N,GND2*%
%TA.AperFunction,SMDPad,CuDef*%
G36*
G01*
X160400000Y-81762500D02*
X160400000Y-82237500D01*
G75*
G02*
X160162500Y-82475000I-237500J0D01*
G01*
X159587500Y-82475000D01*
G75*
G02*
X159350000Y-82237500I0J237500D01*
G01*
X159350000Y-81762500D01*
G75*
G02*
X159587500Y-81525000I237500J0D01*
G01*
X160162500Y-81525000D01*
G75*
G02*
X160400000Y-81762500I0J-237500D01*
G01*
G37*
%TD.AperFunction*%
%TD*%
D22*
%TO.N,GND*%
X136000000Y-141000000D03*
X138000000Y-141000000D03*
X140000000Y-141000000D03*
X142000000Y-141000000D03*
X142000000Y-143000000D03*
X140000000Y-143000000D03*
X138000000Y-143000000D03*
X136000000Y-143000000D03*
X146000000Y-142000000D03*
X148000000Y-142000000D03*
X150000000Y-142000000D03*
X152000000Y-142000000D03*
X146000000Y-144000000D03*
X148000000Y-144000000D03*
X150000000Y-144000000D03*
X152000000Y-144000000D03*
X179500000Y-143000000D03*
X182000000Y-143000000D03*
X184500000Y-143000000D03*
X187000000Y-143000000D03*
X189500000Y-143000000D03*
X192000000Y-143000000D03*
X194500000Y-143000000D03*
X197000000Y-143000000D03*
X199500000Y-143000000D03*
X202000000Y-143000000D03*
X204500000Y-143000000D03*
X207000000Y-143000000D03*
X209500000Y-143000000D03*
X149350001Y-109729999D03*
X150650001Y-109699999D03*
X150650001Y-107735000D03*
X150650001Y-111475000D03*
X149350001Y-107735000D03*
X149350001Y-111459999D03*
X140450000Y-108100000D03*
X138700000Y-108100000D03*
X136450000Y-108100000D03*
X128000000Y-139000000D03*
X130000000Y-139000000D03*
X132000000Y-139000000D03*
X132000000Y-137000000D03*
X130000000Y-137000000D03*
X128000000Y-137000000D03*
X126000000Y-137000000D03*
X126000000Y-139000000D03*
X124000000Y-139000000D03*
X124000000Y-137000000D03*
X199000000Y-82000000D03*
X197000000Y-82000000D03*
X195000000Y-82000000D03*
X193000000Y-82000000D03*
X191000000Y-82000000D03*
X189000000Y-82000000D03*
X187000000Y-82000000D03*
X185000000Y-82000000D03*
X183000000Y-82000000D03*
X181000000Y-82000000D03*
X179000000Y-82000000D03*
X201000000Y-82000000D03*
X176000000Y-110000000D03*
X178000000Y-110000000D03*
X180000000Y-110000000D03*
X182000000Y-110000000D03*
X184000000Y-110000000D03*
X187000000Y-111000000D03*
X189000000Y-111000000D03*
X191000000Y-111000000D03*
X193000000Y-111000000D03*
X195000000Y-111000000D03*
X197000000Y-109000000D03*
X197000000Y-111000000D03*
X199000000Y-111000000D03*
X199000000Y-109000000D03*
X184000000Y-112000000D03*
X182000000Y-112000000D03*
X180000000Y-112000000D03*
X178000000Y-112000000D03*
X176000000Y-112000000D03*
X197000000Y-113000000D03*
X199000000Y-113000000D03*
X140000000Y-114000000D03*
X138000000Y-114000000D03*
X138000000Y-116000000D03*
X140000000Y-116000000D03*
X142000000Y-116000000D03*
X144000000Y-116000000D03*
X130000000Y-107750000D03*
X203500000Y-82000000D03*
X206000000Y-82000000D03*
X208500000Y-82000000D03*
%TO.N,/VCC*%
X155000000Y-107250000D03*
X136800000Y-91400000D03*
%TO.N,/SS1*%
X154000000Y-106400000D03*
X153250000Y-87500000D03*
X131250000Y-91000000D03*
X128189999Y-109189999D03*
%TO.N,/SS2*%
X145000000Y-106000000D03*
X138000000Y-101100000D03*
%TO.N,/FB2*%
X148250000Y-102250000D03*
X148000000Y-123000000D03*
%TO.N,/VO2*%
X153880000Y-122880000D03*
X177000000Y-119000000D03*
%TO.N,/VO1*%
X157875000Y-89175000D03*
X177500000Y-103500000D03*
%TO.N,/VC1*%
X154000000Y-101750000D03*
X126000000Y-99000000D03*
%TO.N,/FB1*%
X154250000Y-84000000D03*
X151525000Y-101825000D03*
%TO.N,/Vin1*%
X143000000Y-127000000D03*
X147000000Y-127000000D03*
X136000000Y-127000000D03*
X132000000Y-127000000D03*
X151000000Y-127000000D03*
X129000000Y-127000000D03*
X126000000Y-127000000D03*
X126000000Y-125000000D03*
X129000000Y-125000000D03*
X131000000Y-125000000D03*
X139000000Y-125000000D03*
X141000000Y-125000000D03*
X143000000Y-125000000D03*
X147000000Y-125000000D03*
X149000000Y-125000000D03*
X151000000Y-125000000D03*
X124000000Y-125000000D03*
X124000000Y-127000000D03*
X136000000Y-110000000D03*
X138000000Y-110000000D03*
X140000000Y-110000000D03*
X140000000Y-112000000D03*
X138000000Y-112000000D03*
X136000000Y-112000000D03*
X136000000Y-125000000D03*
%TO.N,GND2*%
X119000000Y-106000000D03*
X119000000Y-110000000D03*
X119000000Y-112000000D03*
X119000000Y-114000000D03*
X119000000Y-116000000D03*
X119000000Y-118000000D03*
X119000000Y-120000000D03*
X119000000Y-122000000D03*
X155000000Y-108500000D03*
X149860000Y-104140000D03*
X136250000Y-97500000D03*
X130000000Y-100250000D03*
X139547040Y-104452960D03*
X144000000Y-86000000D03*
X144000000Y-88000000D03*
X144000000Y-90000000D03*
X144000000Y-92000000D03*
X144000000Y-94000000D03*
X146000000Y-96000000D03*
X144000000Y-96000000D03*
X159875000Y-85625000D03*
X151550000Y-89450000D03*
X151775000Y-93725000D03*
X148250000Y-96000000D03*
X119000000Y-108000000D03*
X151000000Y-96000000D03*
%TO.N,Net-(IC1-Pad1)*%
X145100000Y-103300000D03*
X138700000Y-86500000D03*
%TO.N,Net-(IC1-Pad30)*%
X154000000Y-104400000D03*
X157400000Y-91200000D03*
%TD*%
D23*
%TO.N,Net-(IC1-Pad15)*%
X125690000Y-118250000D02*
X125440000Y-118500000D01*
X129950000Y-118250000D02*
X125690000Y-118250000D01*
X129950000Y-118250000D02*
X131700000Y-120000000D01*
X131700000Y-120000000D02*
X144750000Y-120000000D01*
D24*
X149750001Y-113005000D02*
X149750001Y-116249999D01*
X149750001Y-116249999D02*
X147500000Y-118500000D01*
X147500000Y-118500000D02*
X146000000Y-120000000D01*
D23*
X144750000Y-120000000D02*
X146000000Y-120000000D01*
%TO.N,Net-(IC1-Pad16)*%
X126700000Y-122300000D02*
X125440000Y-121040000D01*
X130500000Y-122300000D02*
X126700000Y-122300000D01*
X133200000Y-122300000D02*
X130500000Y-122300000D01*
X145200000Y-122300000D02*
X133200000Y-122300000D01*
D24*
X150250001Y-115399999D02*
X150250001Y-113005000D01*
X150250001Y-117249999D02*
X150250001Y-115399999D01*
X145200000Y-122300000D02*
X146450000Y-122300000D01*
X146450000Y-122300000D02*
X148500000Y-120250000D01*
X148500000Y-119000000D02*
X150250001Y-117249999D01*
X148500000Y-120250000D02*
X148500000Y-119000000D01*
%TO.N,GND*%
X148100001Y-112355000D02*
X145455000Y-112355000D01*
X149350001Y-109605000D02*
X149475000Y-109605000D01*
X150650001Y-107735000D02*
X150650001Y-107735000D01*
X149475000Y-109605000D02*
X149475000Y-109605000D01*
X150650001Y-107735000D02*
X150650001Y-107735000D01*
D23*
X149350001Y-111475000D02*
X149350001Y-111459999D01*
X150650001Y-107735000D02*
X150650001Y-109699999D01*
X150650001Y-111475000D02*
X150650001Y-111475000D01*
X150650001Y-109699999D02*
X150650001Y-111475000D01*
D24*
X150650001Y-107735000D02*
X150650001Y-107735000D01*
D23*
X150650001Y-111475000D02*
X149350001Y-111475000D01*
X150650001Y-107735000D02*
X149350001Y-107735000D01*
X149350001Y-107735000D02*
X149350001Y-107735000D01*
X149350001Y-107735000D02*
X149350001Y-109605000D01*
X149350001Y-111459999D02*
X149350001Y-109729999D01*
D24*
X148100001Y-108355000D02*
X145215000Y-108355000D01*
X145455000Y-112355000D02*
X145455000Y-112355000D01*
X145455000Y-112355000D02*
X145455000Y-112355000D01*
X145455000Y-112355000D02*
X145455000Y-112795000D01*
X145455000Y-112795000D02*
X145250000Y-113000000D01*
D23*
X145215000Y-108355000D02*
X144255000Y-108355000D01*
D24*
X145250000Y-113000000D02*
X145250000Y-113750000D01*
D23*
X130000000Y-105125000D02*
X130000000Y-107750000D01*
D24*
%TO.N,/VCC*%
X140300000Y-91240000D02*
X140505000Y-91240000D01*
X154145000Y-107855000D02*
X154145000Y-107855000D01*
X140345000Y-91400000D02*
X140505000Y-91240000D01*
D23*
X136800000Y-91400000D02*
X140345000Y-91400000D01*
D24*
X154395000Y-107855000D02*
X155000000Y-107250000D01*
X151900001Y-107855000D02*
X154395000Y-107855000D01*
%TO.N,/SS1*%
X151900001Y-107355000D02*
X153045000Y-107355000D01*
X153045000Y-107355000D02*
X154000000Y-106400000D01*
X154000000Y-106400000D02*
X154000000Y-106400000D01*
X154000000Y-106400000D02*
X154000000Y-106400000D01*
D23*
X126289999Y-109189999D02*
X125440000Y-108340000D01*
X137800000Y-88000000D02*
X138400000Y-88600000D01*
X153249999Y-86850001D02*
X153249999Y-85249999D01*
X153250000Y-87500000D02*
X153249999Y-86850001D01*
X150250000Y-82250000D02*
X139250000Y-82250000D01*
X137800000Y-83700000D02*
X137800000Y-88000000D01*
X153249999Y-85249999D02*
X150250000Y-82250000D01*
X139250000Y-82250000D02*
X137800000Y-83700000D01*
X140405000Y-88600000D02*
X140505000Y-88700000D01*
X138400000Y-88600000D02*
X140405000Y-88600000D01*
X138400000Y-88600000D02*
X133650000Y-88600000D01*
X133650000Y-88600000D02*
X131250000Y-91000000D01*
X128189999Y-109189999D02*
X126289999Y-109189999D01*
D24*
%TO.N,/SS2*%
X148100001Y-107355000D02*
X147450001Y-107355000D01*
X147450001Y-107355000D02*
X146355000Y-107355000D01*
X146355000Y-107355000D02*
X145000000Y-106000000D01*
X137810000Y-99255000D02*
X137495000Y-99255000D01*
D23*
X138000000Y-99445000D02*
X137810000Y-99255000D01*
X138000000Y-101100000D02*
X138000000Y-99445000D01*
X135400000Y-101100000D02*
X138000000Y-101100000D01*
X132750000Y-103750000D02*
X135400000Y-101100000D01*
X132750000Y-107750000D02*
X132750000Y-103750000D01*
X125440000Y-110880000D02*
X129620000Y-110880000D01*
X129620000Y-110880000D02*
X132750000Y-107750000D01*
D24*
%TO.N,/FB2*%
X145600000Y-100990002D02*
X145600000Y-99475000D01*
X149250001Y-106205000D02*
X149250001Y-104640003D01*
D23*
X149635000Y-122880000D02*
X149635000Y-120340000D01*
D24*
X149250001Y-104640003D02*
X146904999Y-102295001D01*
X146904999Y-102295001D02*
X145600000Y-100990002D01*
X146950000Y-102250000D02*
X146904999Y-102295001D01*
X148250000Y-102250000D02*
X146950000Y-102250000D01*
D23*
X148120000Y-122880000D02*
X148000000Y-123000000D01*
X149635000Y-122880000D02*
X148120000Y-122880000D01*
%TO.N,/VO2*%
X151385000Y-122880000D02*
X151385000Y-120340000D01*
X151385000Y-122880000D02*
X153880000Y-122880000D01*
X153880000Y-122880000D02*
X153880000Y-122880000D01*
D24*
%TO.N,/VC2*%
X148750001Y-105555000D02*
X146925000Y-103729999D01*
X148750001Y-106205000D02*
X148750001Y-105555000D01*
X146925000Y-103400000D02*
X142800000Y-99275000D01*
X146925000Y-103729999D02*
X146925000Y-103400000D01*
D23*
X142800000Y-99275000D02*
X140400000Y-99275000D01*
X125560000Y-113300000D02*
X125440000Y-113420000D01*
X129400000Y-113300000D02*
X125560000Y-113300000D01*
X140400000Y-100500000D02*
X140400000Y-99275000D01*
X134750000Y-106150000D02*
X140400000Y-100500000D01*
X129400000Y-113300000D02*
X134750000Y-107950000D01*
X134750000Y-107950000D02*
X134750000Y-106150000D01*
%TO.N,/VO1*%
X157875000Y-84200000D02*
X157875000Y-86600000D01*
X157875000Y-86600000D02*
X157875000Y-89175000D01*
X157875000Y-89175000D02*
X157875000Y-89175000D01*
D24*
%TO.N,/VC1*%
X151250001Y-105980000D02*
X151250001Y-106205000D01*
X152795000Y-104435001D02*
X151250001Y-105980000D01*
X152795000Y-100100000D02*
X153420000Y-99475000D01*
X152795000Y-104435001D02*
X152795000Y-100100000D01*
D23*
X151000000Y-99475000D02*
X153420000Y-99475000D01*
D24*
X153420000Y-99475000D02*
X153420000Y-101170000D01*
X153420000Y-101170000D02*
X154000000Y-101750000D01*
D23*
X125500000Y-105740000D02*
X125440000Y-105800000D01*
X125740000Y-105500000D02*
X125440000Y-105800000D01*
X125440000Y-102560000D02*
X126000000Y-102000000D01*
X125440000Y-105800000D02*
X125440000Y-102560000D01*
X126000000Y-99000000D02*
X126000000Y-102000000D01*
%TO.N,Net-(C8-Pad1)*%
X140400000Y-97525000D02*
X140400000Y-95275000D01*
D24*
%TO.N,/FB1*%
X150750001Y-106205000D02*
X150750001Y-101825001D01*
D23*
X156125000Y-86600000D02*
X156125000Y-84200000D01*
D24*
X150750001Y-101825001D02*
X149962500Y-101037500D01*
X149962500Y-101037500D02*
X148400000Y-99475000D01*
D23*
X155925000Y-84000000D02*
X156125000Y-84200000D01*
X154250000Y-84000000D02*
X155925000Y-84000000D01*
D24*
X150750001Y-101825001D02*
X151524999Y-101825001D01*
X151524999Y-101825001D02*
X151525000Y-101825000D01*
D23*
%TO.N,Net-(C10-Pad1)*%
X153420000Y-95495000D02*
X153400000Y-95475000D01*
X153420000Y-97725000D02*
X153420000Y-95495000D01*
D24*
%TO.N,/RT*%
X143708542Y-106000000D02*
X142275000Y-106000000D01*
X145563542Y-107855000D02*
X143708542Y-106000000D01*
X148100001Y-107855000D02*
X145563542Y-107855000D01*
D25*
%TO.N,/Vin1*%
X148100001Y-110855000D02*
X148225000Y-110855000D01*
D24*
X148100001Y-109355000D02*
X148100001Y-108855000D01*
X148100001Y-110855000D02*
X148100001Y-111355000D01*
X148100001Y-111355000D02*
X148100001Y-111855000D01*
X148100001Y-109855000D02*
X148100001Y-109355000D01*
X144644999Y-109555001D02*
X144600000Y-109600000D01*
X148100001Y-110855000D02*
X147455000Y-110855000D01*
X147455000Y-110855000D02*
X146395000Y-110855000D01*
X148100001Y-109855000D02*
X146145000Y-109855000D01*
%TO.N,/SW2*%
X151900001Y-110855000D02*
X151900001Y-111855000D01*
X152455000Y-110855000D02*
X151900001Y-110855000D01*
X151900001Y-111355000D02*
X152955000Y-111355000D01*
X152955000Y-111355000D02*
X152455000Y-110855000D01*
X152955000Y-111355000D02*
X153605000Y-111355000D01*
X151900001Y-111855000D02*
X153895000Y-111855000D01*
X154105000Y-111855000D02*
X154500000Y-112250000D01*
X153895000Y-111855000D02*
X154105000Y-111855000D01*
X153605000Y-111355000D02*
X154105000Y-111855000D01*
D23*
X152000000Y-117750000D02*
X154250000Y-117750000D01*
D24*
%TO.N,/SW1*%
X151900001Y-109355000D02*
X151900001Y-110355000D01*
X152355000Y-110355000D02*
X151900001Y-110355000D01*
X151900001Y-109355000D02*
X153207355Y-109355000D01*
X153207355Y-109355000D02*
X153552355Y-109700000D01*
X151900001Y-109855000D02*
X153105000Y-109855000D01*
X151900001Y-110355000D02*
X153605000Y-110355000D01*
X153105000Y-109855000D02*
X153605000Y-110355000D01*
X153552355Y-110052355D02*
X153552355Y-110302355D01*
X153552355Y-109700000D02*
X153552355Y-110052355D01*
D23*
X153552355Y-110052355D02*
X156697645Y-110052355D01*
X167000000Y-112500000D02*
X165500000Y-111000000D01*
X165500000Y-111000000D02*
X165500000Y-110000000D01*
D24*
%TO.N,GND2*%
X149750001Y-106205000D02*
X149750001Y-104249999D01*
X150250001Y-104530001D02*
X149860000Y-104140000D01*
X150250001Y-106205000D02*
X150250001Y-104530001D01*
X149860000Y-104140000D02*
X149860000Y-104140000D01*
D23*
X153400000Y-89450000D02*
X151550000Y-89450000D01*
X153400000Y-93725000D02*
X151775000Y-93725000D01*
X140400000Y-93525000D02*
X143275000Y-93525000D01*
X137810000Y-97505000D02*
X136255000Y-97505000D01*
X136255000Y-97505000D02*
X136250000Y-97500000D01*
X159875000Y-88750000D02*
X159875000Y-85875000D01*
X130000000Y-103375000D02*
X130000000Y-100250000D01*
X140525000Y-106000000D02*
X140525000Y-105430920D01*
X140525000Y-105430920D02*
X139547040Y-104452960D01*
X159875000Y-82000000D02*
X159875000Y-85625000D01*
X159875000Y-85625000D02*
X159875000Y-85875000D01*
X151025000Y-93725000D02*
X151025000Y-93725000D01*
X151550000Y-89450000D02*
X151550000Y-89450000D01*
X151775000Y-93725000D02*
X151025000Y-93725000D01*
D24*
X153540000Y-108500000D02*
X155000000Y-108500000D01*
X153395000Y-108355000D02*
X153540000Y-108500000D01*
X151900001Y-108355000D02*
X153395000Y-108355000D01*
D23*
%TO.N,Net-(IC1-Pad13)*%
X131510000Y-115960000D02*
X125440000Y-115960000D01*
X133300000Y-117750000D02*
X131510000Y-115960000D01*
X145250000Y-117750000D02*
X133300000Y-117750000D01*
D24*
X146500000Y-117750000D02*
X145250000Y-117750000D01*
X148750001Y-113005000D02*
X148750001Y-115499999D01*
X148750001Y-115499999D02*
X146500000Y-117750000D01*
%TO.N,Net-(IC1-Pad1)*%
X145100000Y-104504999D02*
X145100000Y-103300000D01*
X148100001Y-106855000D02*
X147450001Y-106855000D01*
X147450001Y-106855000D02*
X145100000Y-104504999D01*
X140425000Y-86500000D02*
X140525000Y-86400000D01*
X138700000Y-86500000D02*
X140425000Y-86500000D01*
%TO.N,Net-(IC1-Pad30)*%
X151900001Y-106855000D02*
X152225000Y-106855000D01*
X152225000Y-106855000D02*
X153670000Y-105410000D01*
X153670000Y-105410000D02*
X153670000Y-104730000D01*
X153670000Y-104730000D02*
X154000000Y-104400000D01*
D23*
X156400000Y-91200000D02*
X153400000Y-91200000D01*
X156400000Y-91200000D02*
X157400000Y-91200000D01*
%TO.N,Net-(L1-Pad2)*%
X162500000Y-92500000D02*
X166000000Y-92500000D01*
X166000000Y-92500000D02*
X168500000Y-95000000D01*
%TO.N,Net-(L2-Pad2)*%
X169500000Y-132500000D02*
X169500000Y-130000000D01*
%TD*%
D26*
%TO.N,GND*%
G36*
X210873000Y-80164243D02*
G01*
X210873000Y-90835242D01*
X161727000Y-90735757D01*
X161727000Y-89860000D01*
X161752002Y-89860000D01*
X161752002Y-89701252D01*
X161910750Y-89860000D01*
X162150000Y-89863072D01*
X162274482Y-89850812D01*
X162394180Y-89814502D01*
X162504494Y-89755537D01*
X162572166Y-89700000D01*
X185261928Y-89700000D01*
X185274188Y-89824482D01*
X185310498Y-89944180D01*
X185369463Y-90054494D01*
X185448815Y-90151185D01*
X185545506Y-90230537D01*
X185655820Y-90289502D01*
X185775518Y-90325812D01*
X185900000Y-90338072D01*
X186714250Y-90335000D01*
X186873000Y-90176250D01*
X186873000Y-87077000D01*
X187127000Y-87077000D01*
X187127000Y-90176250D01*
X187285750Y-90335000D01*
X188100000Y-90338072D01*
X188224482Y-90325812D01*
X188344180Y-90289502D01*
X188454494Y-90230537D01*
X188551185Y-90151185D01*
X188630537Y-90054494D01*
X188689502Y-89944180D01*
X188725812Y-89824482D01*
X188738072Y-89700000D01*
X188737998Y-89640000D01*
X201761928Y-89640000D01*
X201774188Y-89764482D01*
X201810498Y-89884180D01*
X201869463Y-89994494D01*
X201948815Y-90091185D01*
X202045506Y-90170537D01*
X202155820Y-90229502D01*
X202275518Y-90265812D01*
X202400000Y-90278072D01*
X203214250Y-90275000D01*
X203373000Y-90116250D01*
X203373000Y-87017000D01*
X203627000Y-87017000D01*
X203627000Y-90116250D01*
X203785750Y-90275000D01*
X204600000Y-90278072D01*
X204724482Y-90265812D01*
X204844180Y-90229502D01*
X204954494Y-90170537D01*
X205051185Y-90091185D01*
X205130537Y-89994494D01*
X205189502Y-89884180D01*
X205225812Y-89764482D01*
X205238072Y-89640000D01*
X205235000Y-87175750D01*
X205076250Y-87017000D01*
X203627000Y-87017000D01*
X203373000Y-87017000D01*
X201923750Y-87017000D01*
X201765000Y-87175750D01*
X201761928Y-89640000D01*
X188737998Y-89640000D01*
X188735000Y-87235750D01*
X188576250Y-87077000D01*
X187127000Y-87077000D01*
X186873000Y-87077000D01*
X185423750Y-87077000D01*
X185265000Y-87235750D01*
X185261928Y-89700000D01*
X162572166Y-89700000D01*
X162601185Y-89676185D01*
X162680537Y-89579494D01*
X162739502Y-89469180D01*
X162775812Y-89349482D01*
X162788072Y-89225000D01*
X162785000Y-89035750D01*
X162626250Y-88877000D01*
X161752000Y-88877000D01*
X161752000Y-88897000D01*
X161727000Y-88897000D01*
X161727000Y-88603000D01*
X161752000Y-88603000D01*
X161752000Y-88623000D01*
X162626250Y-88623000D01*
X162785000Y-88464250D01*
X162788072Y-88275000D01*
X162775812Y-88150518D01*
X162739502Y-88030820D01*
X162680537Y-87920506D01*
X162601185Y-87823815D01*
X162504494Y-87744463D01*
X162394180Y-87685498D01*
X162274482Y-87649188D01*
X162150000Y-87636928D01*
X161910750Y-87640000D01*
X161752002Y-87798748D01*
X161752002Y-87640000D01*
X161727000Y-87640000D01*
X161727000Y-84200000D01*
X185261928Y-84200000D01*
X185265000Y-86664250D01*
X185423750Y-86823000D01*
X186873000Y-86823000D01*
X186873000Y-83723750D01*
X187127000Y-83723750D01*
X187127000Y-86823000D01*
X188576250Y-86823000D01*
X188735000Y-86664250D01*
X188738072Y-84200000D01*
X188732163Y-84140000D01*
X201761928Y-84140000D01*
X201765000Y-86604250D01*
X201923750Y-86763000D01*
X203373000Y-86763000D01*
X203373000Y-83663750D01*
X203627000Y-83663750D01*
X203627000Y-86763000D01*
X205076250Y-86763000D01*
X205235000Y-86604250D01*
X205238072Y-84140000D01*
X205225812Y-84015518D01*
X205189502Y-83895820D01*
X205130537Y-83785506D01*
X205051185Y-83688815D01*
X204954494Y-83609463D01*
X204844180Y-83550498D01*
X204724482Y-83514188D01*
X204600000Y-83501928D01*
X203785750Y-83505000D01*
X203627000Y-83663750D01*
X203373000Y-83663750D01*
X203214250Y-83505000D01*
X202400000Y-83501928D01*
X202275518Y-83514188D01*
X202155820Y-83550498D01*
X202045506Y-83609463D01*
X201948815Y-83688815D01*
X201869463Y-83785506D01*
X201810498Y-83895820D01*
X201774188Y-84015518D01*
X201761928Y-84140000D01*
X188732163Y-84140000D01*
X188725812Y-84075518D01*
X188689502Y-83955820D01*
X188630537Y-83845506D01*
X188551185Y-83748815D01*
X188454494Y-83669463D01*
X188344180Y-83610498D01*
X188224482Y-83574188D01*
X188100000Y-83561928D01*
X187285750Y-83565000D01*
X187127000Y-83723750D01*
X186873000Y-83723750D01*
X186714250Y-83565000D01*
X185900000Y-83561928D01*
X185775518Y-83574188D01*
X185655820Y-83610498D01*
X185545506Y-83669463D01*
X185448815Y-83748815D01*
X185369463Y-83845506D01*
X185310498Y-83955820D01*
X185274188Y-84075518D01*
X185261928Y-84200000D01*
X161727000Y-84200000D01*
X161727000Y-83110000D01*
X161752002Y-83110000D01*
X161752002Y-82951252D01*
X161910750Y-83110000D01*
X162150000Y-83113072D01*
X162274482Y-83100812D01*
X162394180Y-83064502D01*
X162504494Y-83005537D01*
X162601185Y-82926185D01*
X162680537Y-82829494D01*
X162739502Y-82719180D01*
X162775812Y-82599482D01*
X162788072Y-82475000D01*
X162785000Y-82285750D01*
X162626250Y-82127000D01*
X161752000Y-82127000D01*
X161752000Y-82147000D01*
X161727000Y-82147000D01*
X161727000Y-81853000D01*
X161752000Y-81853000D01*
X161752000Y-81873000D01*
X162626250Y-81873000D01*
X162785000Y-81714250D01*
X162788072Y-81525000D01*
X162775812Y-81400518D01*
X162739502Y-81280820D01*
X162680537Y-81170506D01*
X162601185Y-81073815D01*
X162504494Y-80994463D01*
X162394180Y-80935498D01*
X162274482Y-80899188D01*
X162150000Y-80886928D01*
X161910750Y-80890000D01*
X161752002Y-81048748D01*
X161752002Y-80890000D01*
X161727000Y-80890000D01*
X161727000Y-80064758D01*
X210873000Y-80164243D01*
G37*
X210873000Y-80164243D02*
X210873000Y-90835242D01*
X161727000Y-90735757D01*
X161727000Y-89860000D01*
X161752002Y-89860000D01*
X161752002Y-89701252D01*
X161910750Y-89860000D01*
X162150000Y-89863072D01*
X162274482Y-89850812D01*
X162394180Y-89814502D01*
X162504494Y-89755537D01*
X162572166Y-89700000D01*
X185261928Y-89700000D01*
X185274188Y-89824482D01*
X185310498Y-89944180D01*
X185369463Y-90054494D01*
X185448815Y-90151185D01*
X185545506Y-90230537D01*
X185655820Y-90289502D01*
X185775518Y-90325812D01*
X185900000Y-90338072D01*
X186714250Y-90335000D01*
X186873000Y-90176250D01*
X186873000Y-87077000D01*
X187127000Y-87077000D01*
X187127000Y-90176250D01*
X187285750Y-90335000D01*
X188100000Y-90338072D01*
X188224482Y-90325812D01*
X188344180Y-90289502D01*
X188454494Y-90230537D01*
X188551185Y-90151185D01*
X188630537Y-90054494D01*
X188689502Y-89944180D01*
X188725812Y-89824482D01*
X188738072Y-89700000D01*
X188737998Y-89640000D01*
X201761928Y-89640000D01*
X201774188Y-89764482D01*
X201810498Y-89884180D01*
X201869463Y-89994494D01*
X201948815Y-90091185D01*
X202045506Y-90170537D01*
X202155820Y-90229502D01*
X202275518Y-90265812D01*
X202400000Y-90278072D01*
X203214250Y-90275000D01*
X203373000Y-90116250D01*
X203373000Y-87017000D01*
X203627000Y-87017000D01*
X203627000Y-90116250D01*
X203785750Y-90275000D01*
X204600000Y-90278072D01*
X204724482Y-90265812D01*
X204844180Y-90229502D01*
X204954494Y-90170537D01*
X205051185Y-90091185D01*
X205130537Y-89994494D01*
X205189502Y-89884180D01*
X205225812Y-89764482D01*
X205238072Y-89640000D01*
X205235000Y-87175750D01*
X205076250Y-87017000D01*
X203627000Y-87017000D01*
X203373000Y-87017000D01*
X201923750Y-87017000D01*
X201765000Y-87175750D01*
X201761928Y-89640000D01*
X188737998Y-89640000D01*
X188735000Y-87235750D01*
X188576250Y-87077000D01*
X187127000Y-87077000D01*
X186873000Y-87077000D01*
X185423750Y-87077000D01*
X185265000Y-87235750D01*
X185261928Y-89700000D01*
X162572166Y-89700000D01*
X162601185Y-89676185D01*
X162680537Y-89579494D01*
X162739502Y-89469180D01*
X162775812Y-89349482D01*
X162788072Y-89225000D01*
X162785000Y-89035750D01*
X162626250Y-88877000D01*
X161752000Y-88877000D01*
X161752000Y-88897000D01*
X161727000Y-88897000D01*
X161727000Y-88603000D01*
X161752000Y-88603000D01*
X161752000Y-88623000D01*
X162626250Y-88623000D01*
X162785000Y-88464250D01*
X162788072Y-88275000D01*
X162775812Y-88150518D01*
X162739502Y-88030820D01*
X162680537Y-87920506D01*
X162601185Y-87823815D01*
X162504494Y-87744463D01*
X162394180Y-87685498D01*
X162274482Y-87649188D01*
X162150000Y-87636928D01*
X161910750Y-87640000D01*
X161752002Y-87798748D01*
X161752002Y-87640000D01*
X161727000Y-87640000D01*
X161727000Y-84200000D01*
X185261928Y-84200000D01*
X185265000Y-86664250D01*
X185423750Y-86823000D01*
X186873000Y-86823000D01*
X186873000Y-83723750D01*
X187127000Y-83723750D01*
X187127000Y-86823000D01*
X188576250Y-86823000D01*
X188735000Y-86664250D01*
X188738072Y-84200000D01*
X188732163Y-84140000D01*
X201761928Y-84140000D01*
X201765000Y-86604250D01*
X201923750Y-86763000D01*
X203373000Y-86763000D01*
X203373000Y-83663750D01*
X203627000Y-83663750D01*
X203627000Y-86763000D01*
X205076250Y-86763000D01*
X205235000Y-86604250D01*
X205238072Y-84140000D01*
X205225812Y-84015518D01*
X205189502Y-83895820D01*
X205130537Y-83785506D01*
X205051185Y-83688815D01*
X204954494Y-83609463D01*
X204844180Y-83550498D01*
X204724482Y-83514188D01*
X204600000Y-83501928D01*
X203785750Y-83505000D01*
X203627000Y-83663750D01*
X203373000Y-83663750D01*
X203214250Y-83505000D01*
X202400000Y-83501928D01*
X202275518Y-83514188D01*
X202155820Y-83550498D01*
X202045506Y-83609463D01*
X201948815Y-83688815D01*
X201869463Y-83785506D01*
X201810498Y-83895820D01*
X201774188Y-84015518D01*
X201761928Y-84140000D01*
X188732163Y-84140000D01*
X188725812Y-84075518D01*
X188689502Y-83955820D01*
X188630537Y-83845506D01*
X188551185Y-83748815D01*
X188454494Y-83669463D01*
X188344180Y-83610498D01*
X188224482Y-83574188D01*
X188100000Y-83561928D01*
X187285750Y-83565000D01*
X187127000Y-83723750D01*
X186873000Y-83723750D01*
X186714250Y-83565000D01*
X185900000Y-83561928D01*
X185775518Y-83574188D01*
X185655820Y-83610498D01*
X185545506Y-83669463D01*
X185448815Y-83748815D01*
X185369463Y-83845506D01*
X185310498Y-83955820D01*
X185274188Y-84075518D01*
X185261928Y-84200000D01*
X161727000Y-84200000D01*
X161727000Y-83110000D01*
X161752002Y-83110000D01*
X161752002Y-82951252D01*
X161910750Y-83110000D01*
X162150000Y-83113072D01*
X162274482Y-83100812D01*
X162394180Y-83064502D01*
X162504494Y-83005537D01*
X162601185Y-82926185D01*
X162680537Y-82829494D01*
X162739502Y-82719180D01*
X162775812Y-82599482D01*
X162788072Y-82475000D01*
X162785000Y-82285750D01*
X162626250Y-82127000D01*
X161752000Y-82127000D01*
X161752000Y-82147000D01*
X161727000Y-82147000D01*
X161727000Y-81853000D01*
X161752000Y-81853000D01*
X161752000Y-81873000D01*
X162626250Y-81873000D01*
X162785000Y-81714250D01*
X162788072Y-81525000D01*
X162775812Y-81400518D01*
X162739502Y-81280820D01*
X162680537Y-81170506D01*
X162601185Y-81073815D01*
X162504494Y-80994463D01*
X162394180Y-80935498D01*
X162274482Y-80899188D01*
X162150000Y-80886928D01*
X161910750Y-80890000D01*
X161752002Y-81048748D01*
X161752002Y-80890000D01*
X161727000Y-80890000D01*
X161727000Y-80064758D01*
X210873000Y-80164243D01*
G36*
X127102272Y-133179557D02*
G01*
X127209931Y-133493527D01*
X127309421Y-133679661D01*
X127578934Y-133781461D01*
X128233395Y-133127000D01*
X128592605Y-133127000D01*
X127758539Y-133961066D01*
X127860339Y-134230579D01*
X128158477Y-134376463D01*
X128479346Y-134461380D01*
X128810617Y-134482066D01*
X129139557Y-134437728D01*
X129453527Y-134330069D01*
X129639661Y-134230579D01*
X129741461Y-133961066D01*
X128907395Y-133127000D01*
X129266605Y-133127000D01*
X129921066Y-133781461D01*
X130190579Y-133679661D01*
X130336463Y-133381523D01*
X130403822Y-133127000D01*
X147887584Y-133127000D01*
X148000000Y-133138072D01*
X150000000Y-133138072D01*
X150112416Y-133127000D01*
X154373000Y-133127000D01*
X154373000Y-144873000D01*
X118127000Y-144873000D01*
X118127000Y-139650000D01*
X136861928Y-139650000D01*
X136874188Y-139774482D01*
X136910498Y-139894180D01*
X136969463Y-140004494D01*
X137048815Y-140101185D01*
X137145506Y-140180537D01*
X137255820Y-140239502D01*
X137375518Y-140275812D01*
X137500000Y-140288072D01*
X138464250Y-140285000D01*
X138623000Y-140126250D01*
X138623000Y-137577000D01*
X138877000Y-137577000D01*
X138877000Y-140126250D01*
X139035750Y-140285000D01*
X140000000Y-140288072D01*
X140124482Y-140275812D01*
X140244180Y-140239502D01*
X140354494Y-140180537D01*
X140451185Y-140101185D01*
X140530537Y-140004494D01*
X140586391Y-139900000D01*
X147111928Y-139900000D01*
X147124188Y-140024482D01*
X147160498Y-140144180D01*
X147219463Y-140254494D01*
X147298815Y-140351185D01*
X147395506Y-140430537D01*
X147505820Y-140489502D01*
X147625518Y-140525812D01*
X147750000Y-140538072D01*
X148714250Y-140535000D01*
X148873000Y-140376250D01*
X148873000Y-137827000D01*
X149127000Y-137827000D01*
X149127000Y-140376250D01*
X149285750Y-140535000D01*
X150250000Y-140538072D01*
X150374482Y-140525812D01*
X150494180Y-140489502D01*
X150604494Y-140430537D01*
X150701185Y-140351185D01*
X150780537Y-140254494D01*
X150839502Y-140144180D01*
X150875812Y-140024482D01*
X150888072Y-139900000D01*
X150885000Y-137985750D01*
X150726250Y-137827000D01*
X149127000Y-137827000D01*
X148873000Y-137827000D01*
X147273750Y-137827000D01*
X147115000Y-137985750D01*
X147111928Y-139900000D01*
X140586391Y-139900000D01*
X140589502Y-139894180D01*
X140625812Y-139774482D01*
X140638072Y-139650000D01*
X140635000Y-137735750D01*
X140476250Y-137577000D01*
X138877000Y-137577000D01*
X138623000Y-137577000D01*
X137023750Y-137577000D01*
X136865000Y-137735750D01*
X136861928Y-139650000D01*
X118127000Y-139650000D01*
X118127000Y-135250000D01*
X136861928Y-135250000D01*
X136865000Y-137164250D01*
X137023750Y-137323000D01*
X138623000Y-137323000D01*
X138623000Y-134773750D01*
X138877000Y-134773750D01*
X138877000Y-137323000D01*
X140476250Y-137323000D01*
X140635000Y-137164250D01*
X140637670Y-135500000D01*
X147111928Y-135500000D01*
X147115000Y-137414250D01*
X147273750Y-137573000D01*
X148873000Y-137573000D01*
X148873000Y-135023750D01*
X149127000Y-135023750D01*
X149127000Y-137573000D01*
X150726250Y-137573000D01*
X150885000Y-137414250D01*
X150888072Y-135500000D01*
X150875812Y-135375518D01*
X150839502Y-135255820D01*
X150780537Y-135145506D01*
X150701185Y-135048815D01*
X150604494Y-134969463D01*
X150494180Y-134910498D01*
X150374482Y-134874188D01*
X150250000Y-134861928D01*
X149285750Y-134865000D01*
X149127000Y-135023750D01*
X148873000Y-135023750D01*
X148714250Y-134865000D01*
X147750000Y-134861928D01*
X147625518Y-134874188D01*
X147505820Y-134910498D01*
X147395506Y-134969463D01*
X147298815Y-135048815D01*
X147219463Y-135145506D01*
X147160498Y-135255820D01*
X147124188Y-135375518D01*
X147111928Y-135500000D01*
X140637670Y-135500000D01*
X140638072Y-135250000D01*
X140625812Y-135125518D01*
X140589502Y-135005820D01*
X140530537Y-134895506D01*
X140451185Y-134798815D01*
X140354494Y-134719463D01*
X140244180Y-134660498D01*
X140124482Y-134624188D01*
X140000000Y-134611928D01*
X139035750Y-134615000D01*
X138877000Y-134773750D01*
X138623000Y-134773750D01*
X138464250Y-134615000D01*
X137500000Y-134611928D01*
X137375518Y-134624188D01*
X137255820Y-134660498D01*
X137145506Y-134719463D01*
X137048815Y-134798815D01*
X136969463Y-134895506D01*
X136910498Y-135005820D01*
X136874188Y-135125518D01*
X136861928Y-135250000D01*
X118127000Y-135250000D01*
X118127000Y-133127000D01*
X127095188Y-133127000D01*
X127102272Y-133179557D01*
G37*
X127102272Y-133179557D02*
X127209931Y-133493527D01*
X127309421Y-133679661D01*
X127578934Y-133781461D01*
X128233395Y-133127000D01*
X128592605Y-133127000D01*
X127758539Y-133961066D01*
X127860339Y-134230579D01*
X128158477Y-134376463D01*
X128479346Y-134461380D01*
X128810617Y-134482066D01*
X129139557Y-134437728D01*
X129453527Y-134330069D01*
X129639661Y-134230579D01*
X129741461Y-133961066D01*
X128907395Y-133127000D01*
X129266605Y-133127000D01*
X129921066Y-133781461D01*
X130190579Y-133679661D01*
X130336463Y-133381523D01*
X130403822Y-133127000D01*
X147887584Y-133127000D01*
X148000000Y-133138072D01*
X150000000Y-133138072D01*
X150112416Y-133127000D01*
X154373000Y-133127000D01*
X154373000Y-144873000D01*
X118127000Y-144873000D01*
X118127000Y-139650000D01*
X136861928Y-139650000D01*
X136874188Y-139774482D01*
X136910498Y-139894180D01*
X136969463Y-140004494D01*
X137048815Y-140101185D01*
X137145506Y-140180537D01*
X137255820Y-140239502D01*
X137375518Y-140275812D01*
X137500000Y-140288072D01*
X138464250Y-140285000D01*
X138623000Y-140126250D01*
X138623000Y-137577000D01*
X138877000Y-137577000D01*
X138877000Y-140126250D01*
X139035750Y-140285000D01*
X140000000Y-140288072D01*
X140124482Y-140275812D01*
X140244180Y-140239502D01*
X140354494Y-140180537D01*
X140451185Y-140101185D01*
X140530537Y-140004494D01*
X140586391Y-139900000D01*
X147111928Y-139900000D01*
X147124188Y-140024482D01*
X147160498Y-140144180D01*
X147219463Y-140254494D01*
X147298815Y-140351185D01*
X147395506Y-140430537D01*
X147505820Y-140489502D01*
X147625518Y-140525812D01*
X147750000Y-140538072D01*
X148714250Y-140535000D01*
X148873000Y-140376250D01*
X148873000Y-137827000D01*
X149127000Y-137827000D01*
X149127000Y-140376250D01*
X149285750Y-140535000D01*
X150250000Y-140538072D01*
X150374482Y-140525812D01*
X150494180Y-140489502D01*
X150604494Y-140430537D01*
X150701185Y-140351185D01*
X150780537Y-140254494D01*
X150839502Y-140144180D01*
X150875812Y-140024482D01*
X150888072Y-139900000D01*
X150885000Y-137985750D01*
X150726250Y-137827000D01*
X149127000Y-137827000D01*
X148873000Y-137827000D01*
X147273750Y-137827000D01*
X147115000Y-137985750D01*
X147111928Y-139900000D01*
X140586391Y-139900000D01*
X140589502Y-139894180D01*
X140625812Y-139774482D01*
X140638072Y-139650000D01*
X140635000Y-137735750D01*
X140476250Y-137577000D01*
X138877000Y-137577000D01*
X138623000Y-137577000D01*
X137023750Y-137577000D01*
X136865000Y-137735750D01*
X136861928Y-139650000D01*
X118127000Y-139650000D01*
X118127000Y-135250000D01*
X136861928Y-135250000D01*
X136865000Y-137164250D01*
X137023750Y-137323000D01*
X138623000Y-137323000D01*
X138623000Y-134773750D01*
X138877000Y-134773750D01*
X138877000Y-137323000D01*
X140476250Y-137323000D01*
X140635000Y-137164250D01*
X140637670Y-135500000D01*
X147111928Y-135500000D01*
X147115000Y-137414250D01*
X147273750Y-137573000D01*
X148873000Y-137573000D01*
X148873000Y-135023750D01*
X149127000Y-135023750D01*
X149127000Y-137573000D01*
X150726250Y-137573000D01*
X150885000Y-137414250D01*
X150888072Y-135500000D01*
X150875812Y-135375518D01*
X150839502Y-135255820D01*
X150780537Y-135145506D01*
X150701185Y-135048815D01*
X150604494Y-134969463D01*
X150494180Y-134910498D01*
X150374482Y-134874188D01*
X150250000Y-134861928D01*
X149285750Y-134865000D01*
X149127000Y-135023750D01*
X148873000Y-135023750D01*
X148714250Y-134865000D01*
X147750000Y-134861928D01*
X147625518Y-134874188D01*
X147505820Y-134910498D01*
X147395506Y-134969463D01*
X147298815Y-135048815D01*
X147219463Y-135145506D01*
X147160498Y-135255820D01*
X147124188Y-135375518D01*
X147111928Y-135500000D01*
X140637670Y-135500000D01*
X140638072Y-135250000D01*
X140625812Y-135125518D01*
X140589502Y-135005820D01*
X140530537Y-134895506D01*
X140451185Y-134798815D01*
X140354494Y-134719463D01*
X140244180Y-134660498D01*
X140124482Y-134624188D01*
X140000000Y-134611928D01*
X139035750Y-134615000D01*
X138877000Y-134773750D01*
X138623000Y-134773750D01*
X138464250Y-134615000D01*
X137500000Y-134611928D01*
X137375518Y-134624188D01*
X137255820Y-134660498D01*
X137145506Y-134719463D01*
X137048815Y-134798815D01*
X136969463Y-134895506D01*
X136910498Y-135005820D01*
X136874188Y-135125518D01*
X136861928Y-135250000D01*
X118127000Y-135250000D01*
X118127000Y-133127000D01*
X127095188Y-133127000D01*
X127102272Y-133179557D01*
%TO.N,/Vin1*%
G36*
X153123000Y-132373000D02*
G01*
X150887868Y-132373000D01*
X150885000Y-130585750D01*
X150726250Y-130427000D01*
X149127000Y-130427000D01*
X149127000Y-130447000D01*
X148873000Y-130447000D01*
X148873000Y-130427000D01*
X147273750Y-130427000D01*
X147115000Y-130585750D01*
X147112132Y-132373000D01*
X140625958Y-132373000D01*
X140638072Y-132250000D01*
X140635000Y-130335750D01*
X140476250Y-130177000D01*
X138877000Y-130177000D01*
X138877000Y-130197000D01*
X138623000Y-130197000D01*
X138623000Y-130177000D01*
X137023750Y-130177000D01*
X136865000Y-130335750D01*
X136861928Y-132250000D01*
X136874042Y-132373000D01*
X134377000Y-132373000D01*
X134377000Y-131250000D01*
X134374560Y-131225224D01*
X134367333Y-131201399D01*
X134355597Y-131179443D01*
X134339803Y-131160197D01*
X134320557Y-131144403D01*
X134298601Y-131132667D01*
X134274776Y-131125440D01*
X134250000Y-131123000D01*
X130437361Y-131123000D01*
X130435000Y-130535750D01*
X130276250Y-130377000D01*
X128877000Y-130377000D01*
X128877000Y-130397000D01*
X128623000Y-130397000D01*
X128623000Y-130377000D01*
X127223750Y-130377000D01*
X127065000Y-130535750D01*
X127062639Y-131123000D01*
X118127000Y-131123000D01*
X118127000Y-129200000D01*
X127061928Y-129200000D01*
X127065000Y-129964250D01*
X127223750Y-130123000D01*
X128623000Y-130123000D01*
X128623000Y-128723750D01*
X128877000Y-128723750D01*
X128877000Y-130123000D01*
X130276250Y-130123000D01*
X130435000Y-129964250D01*
X130438072Y-129200000D01*
X130425812Y-129075518D01*
X130389502Y-128955820D01*
X130330537Y-128845506D01*
X130251185Y-128748815D01*
X130154494Y-128669463D01*
X130044180Y-128610498D01*
X129924482Y-128574188D01*
X129800000Y-128561928D01*
X129035750Y-128565000D01*
X128877000Y-128723750D01*
X128623000Y-128723750D01*
X128464250Y-128565000D01*
X127700000Y-128561928D01*
X127575518Y-128574188D01*
X127455820Y-128610498D01*
X127345506Y-128669463D01*
X127248815Y-128748815D01*
X127169463Y-128845506D01*
X127110498Y-128955820D01*
X127074188Y-129075518D01*
X127061928Y-129200000D01*
X118127000Y-129200000D01*
X118127000Y-127850000D01*
X136861928Y-127850000D01*
X136865000Y-129764250D01*
X137023750Y-129923000D01*
X138623000Y-129923000D01*
X138623000Y-127373750D01*
X138877000Y-127373750D01*
X138877000Y-129923000D01*
X140476250Y-129923000D01*
X140635000Y-129764250D01*
X140637670Y-128100000D01*
X147111928Y-128100000D01*
X147115000Y-130014250D01*
X147273750Y-130173000D01*
X148873000Y-130173000D01*
X148873000Y-127623750D01*
X149127000Y-127623750D01*
X149127000Y-130173000D01*
X150726250Y-130173000D01*
X150885000Y-130014250D01*
X150888072Y-128100000D01*
X150875812Y-127975518D01*
X150839502Y-127855820D01*
X150780537Y-127745506D01*
X150701185Y-127648815D01*
X150604494Y-127569463D01*
X150494180Y-127510498D01*
X150374482Y-127474188D01*
X150250000Y-127461928D01*
X149285750Y-127465000D01*
X149127000Y-127623750D01*
X148873000Y-127623750D01*
X148714250Y-127465000D01*
X147750000Y-127461928D01*
X147625518Y-127474188D01*
X147505820Y-127510498D01*
X147395506Y-127569463D01*
X147298815Y-127648815D01*
X147219463Y-127745506D01*
X147160498Y-127855820D01*
X147124188Y-127975518D01*
X147111928Y-128100000D01*
X140637670Y-128100000D01*
X140638072Y-127850000D01*
X140625812Y-127725518D01*
X140589502Y-127605820D01*
X140530537Y-127495506D01*
X140451185Y-127398815D01*
X140354494Y-127319463D01*
X140244180Y-127260498D01*
X140124482Y-127224188D01*
X140000000Y-127211928D01*
X139035750Y-127215000D01*
X138877000Y-127373750D01*
X138623000Y-127373750D01*
X138464250Y-127215000D01*
X137500000Y-127211928D01*
X137375518Y-127224188D01*
X137255820Y-127260498D01*
X137145506Y-127319463D01*
X137048815Y-127398815D01*
X136969463Y-127495506D01*
X136910498Y-127605820D01*
X136874188Y-127725518D01*
X136861928Y-127850000D01*
X118127000Y-127850000D01*
X118127000Y-124127000D01*
X153123000Y-124127000D01*
X153123000Y-132373000D01*
G37*
X153123000Y-132373000D02*
X150887868Y-132373000D01*
X150885000Y-130585750D01*
X150726250Y-130427000D01*
X149127000Y-130427000D01*
X149127000Y-130447000D01*
X148873000Y-130447000D01*
X148873000Y-130427000D01*
X147273750Y-130427000D01*
X147115000Y-130585750D01*
X147112132Y-132373000D01*
X140625958Y-132373000D01*
X140638072Y-132250000D01*
X140635000Y-130335750D01*
X140476250Y-130177000D01*
X138877000Y-130177000D01*
X138877000Y-130197000D01*
X138623000Y-130197000D01*
X138623000Y-130177000D01*
X137023750Y-130177000D01*
X136865000Y-130335750D01*
X136861928Y-132250000D01*
X136874042Y-132373000D01*
X134377000Y-132373000D01*
X134377000Y-131250000D01*
X134374560Y-131225224D01*
X134367333Y-131201399D01*
X134355597Y-131179443D01*
X134339803Y-131160197D01*
X134320557Y-131144403D01*
X134298601Y-131132667D01*
X134274776Y-131125440D01*
X134250000Y-131123000D01*
X130437361Y-131123000D01*
X130435000Y-130535750D01*
X130276250Y-130377000D01*
X128877000Y-130377000D01*
X128877000Y-130397000D01*
X128623000Y-130397000D01*
X128623000Y-130377000D01*
X127223750Y-130377000D01*
X127065000Y-130535750D01*
X127062639Y-131123000D01*
X118127000Y-131123000D01*
X118127000Y-129200000D01*
X127061928Y-129200000D01*
X127065000Y-129964250D01*
X127223750Y-130123000D01*
X128623000Y-130123000D01*
X128623000Y-128723750D01*
X128877000Y-128723750D01*
X128877000Y-130123000D01*
X130276250Y-130123000D01*
X130435000Y-129964250D01*
X130438072Y-129200000D01*
X130425812Y-129075518D01*
X130389502Y-128955820D01*
X130330537Y-128845506D01*
X130251185Y-128748815D01*
X130154494Y-128669463D01*
X130044180Y-128610498D01*
X129924482Y-128574188D01*
X129800000Y-128561928D01*
X129035750Y-128565000D01*
X128877000Y-128723750D01*
X128623000Y-128723750D01*
X128464250Y-128565000D01*
X127700000Y-128561928D01*
X127575518Y-128574188D01*
X127455820Y-128610498D01*
X127345506Y-128669463D01*
X127248815Y-128748815D01*
X127169463Y-128845506D01*
X127110498Y-128955820D01*
X127074188Y-129075518D01*
X127061928Y-129200000D01*
X118127000Y-129200000D01*
X118127000Y-127850000D01*
X136861928Y-127850000D01*
X136865000Y-129764250D01*
X137023750Y-129923000D01*
X138623000Y-129923000D01*
X138623000Y-127373750D01*
X138877000Y-127373750D01*
X138877000Y-129923000D01*
X140476250Y-129923000D01*
X140635000Y-129764250D01*
X140637670Y-128100000D01*
X147111928Y-128100000D01*
X147115000Y-130014250D01*
X147273750Y-130173000D01*
X148873000Y-130173000D01*
X148873000Y-127623750D01*
X149127000Y-127623750D01*
X149127000Y-130173000D01*
X150726250Y-130173000D01*
X150885000Y-130014250D01*
X150888072Y-128100000D01*
X150875812Y-127975518D01*
X150839502Y-127855820D01*
X150780537Y-127745506D01*
X150701185Y-127648815D01*
X150604494Y-127569463D01*
X150494180Y-127510498D01*
X150374482Y-127474188D01*
X150250000Y-127461928D01*
X149285750Y-127465000D01*
X149127000Y-127623750D01*
X148873000Y-127623750D01*
X148714250Y-127465000D01*
X147750000Y-127461928D01*
X147625518Y-127474188D01*
X147505820Y-127510498D01*
X147395506Y-127569463D01*
X147298815Y-127648815D01*
X147219463Y-127745506D01*
X147160498Y-127855820D01*
X147124188Y-127975518D01*
X147111928Y-128100000D01*
X140637670Y-128100000D01*
X140638072Y-127850000D01*
X140625812Y-127725518D01*
X140589502Y-127605820D01*
X140530537Y-127495506D01*
X140451185Y-127398815D01*
X140354494Y-127319463D01*
X140244180Y-127260498D01*
X140124482Y-127224188D01*
X140000000Y-127211928D01*
X139035750Y-127215000D01*
X138877000Y-127373750D01*
X138623000Y-127373750D01*
X138464250Y-127215000D01*
X137500000Y-127211928D01*
X137375518Y-127224188D01*
X137255820Y-127260498D01*
X137145506Y-127319463D01*
X137048815Y-127398815D01*
X136969463Y-127495506D01*
X136910498Y-127605820D01*
X136874188Y-127725518D01*
X136861928Y-127850000D01*
X118127000Y-127850000D01*
X118127000Y-124127000D01*
X153123000Y-124127000D01*
X153123000Y-132373000D01*
%TO.N,GND*%
G36*
X142048750Y-113248000D02*
G01*
X142873000Y-113248000D01*
X142873000Y-113228000D01*
X143127000Y-113228000D01*
X143127000Y-113248000D01*
X143951250Y-113248000D01*
X144072250Y-113127000D01*
X145373000Y-113127000D01*
X145373000Y-116623000D01*
X135627000Y-116623000D01*
X135627000Y-113900000D01*
X141886928Y-113900000D01*
X141899188Y-114024482D01*
X141935498Y-114144180D01*
X141994463Y-114254494D01*
X142073815Y-114351185D01*
X142170506Y-114430537D01*
X142280820Y-114489502D01*
X142400518Y-114525812D01*
X142525000Y-114538072D01*
X142714250Y-114535000D01*
X142873000Y-114376250D01*
X142873000Y-113502000D01*
X143127000Y-113502000D01*
X143127000Y-114376250D01*
X143285750Y-114535000D01*
X143475000Y-114538072D01*
X143599482Y-114525812D01*
X143719180Y-114489502D01*
X143829494Y-114430537D01*
X143926185Y-114351185D01*
X144005537Y-114254494D01*
X144064502Y-114144180D01*
X144100812Y-114024482D01*
X144113072Y-113900000D01*
X144110000Y-113660750D01*
X143951250Y-113502000D01*
X143127000Y-113502000D01*
X142873000Y-113502000D01*
X142048750Y-113502000D01*
X141890000Y-113660750D01*
X141886928Y-113900000D01*
X135627000Y-113900000D01*
X135627000Y-113127000D01*
X141927750Y-113127000D01*
X142048750Y-113248000D01*
G37*
X142048750Y-113248000D02*
X142873000Y-113248000D01*
X142873000Y-113228000D01*
X143127000Y-113228000D01*
X143127000Y-113248000D01*
X143951250Y-113248000D01*
X144072250Y-113127000D01*
X145373000Y-113127000D01*
X145373000Y-116623000D01*
X135627000Y-116623000D01*
X135627000Y-113900000D01*
X141886928Y-113900000D01*
X141899188Y-114024482D01*
X141935498Y-114144180D01*
X141994463Y-114254494D01*
X142073815Y-114351185D01*
X142170506Y-114430537D01*
X142280820Y-114489502D01*
X142400518Y-114525812D01*
X142525000Y-114538072D01*
X142714250Y-114535000D01*
X142873000Y-114376250D01*
X142873000Y-113502000D01*
X143127000Y-113502000D01*
X143127000Y-114376250D01*
X143285750Y-114535000D01*
X143475000Y-114538072D01*
X143599482Y-114525812D01*
X143719180Y-114489502D01*
X143829494Y-114430537D01*
X143926185Y-114351185D01*
X144005537Y-114254494D01*
X144064502Y-114144180D01*
X144100812Y-114024482D01*
X144113072Y-113900000D01*
X144110000Y-113660750D01*
X143951250Y-113502000D01*
X143127000Y-113502000D01*
X142873000Y-113502000D01*
X142048750Y-113502000D01*
X141890000Y-113660750D01*
X141886928Y-113900000D01*
X135627000Y-113900000D01*
X135627000Y-113127000D01*
X141927750Y-113127000D01*
X142048750Y-113248000D01*
G36*
X141976928Y-107475000D02*
G01*
X141980000Y-107714250D01*
X142138750Y-107873000D01*
X142963000Y-107873000D01*
X142963000Y-107853000D01*
X143217000Y-107853000D01*
X143217000Y-107873000D01*
X144041250Y-107873000D01*
X144200000Y-107714250D01*
X144201428Y-107603043D01*
X144373000Y-107774615D01*
X144373000Y-108623000D01*
X144193420Y-108623000D01*
X144203072Y-108525000D01*
X144200000Y-108285750D01*
X144041250Y-108127000D01*
X143217000Y-108127000D01*
X143217000Y-108147000D01*
X142963000Y-108147000D01*
X142963000Y-108127000D01*
X142138750Y-108127000D01*
X141980000Y-108285750D01*
X141976928Y-108525000D01*
X141986580Y-108623000D01*
X135681304Y-108623000D01*
X135722838Y-107377000D01*
X141986580Y-107377000D01*
X141976928Y-107475000D01*
G37*
X141976928Y-107475000D02*
X141980000Y-107714250D01*
X142138750Y-107873000D01*
X142963000Y-107873000D01*
X142963000Y-107853000D01*
X143217000Y-107853000D01*
X143217000Y-107873000D01*
X144041250Y-107873000D01*
X144200000Y-107714250D01*
X144201428Y-107603043D01*
X144373000Y-107774615D01*
X144373000Y-108623000D01*
X144193420Y-108623000D01*
X144203072Y-108525000D01*
X144200000Y-108285750D01*
X144041250Y-108127000D01*
X143217000Y-108127000D01*
X143217000Y-108147000D01*
X142963000Y-108147000D01*
X142963000Y-108127000D01*
X142138750Y-108127000D01*
X141980000Y-108285750D01*
X141976928Y-108525000D01*
X141986580Y-108623000D01*
X135681304Y-108623000D01*
X135722838Y-107377000D01*
X141986580Y-107377000D01*
X141976928Y-107475000D01*
%TO.N,GND2*%
G36*
X121415000Y-105514250D02*
G01*
X121573750Y-105673000D01*
X122773000Y-105673000D01*
X122773000Y-105653000D01*
X123027000Y-105653000D01*
X123027000Y-105673000D01*
X123047000Y-105673000D01*
X123047000Y-105927000D01*
X123027000Y-105927000D01*
X123027000Y-108213000D01*
X123047000Y-108213000D01*
X123047000Y-108467000D01*
X123027000Y-108467000D01*
X123027000Y-110753000D01*
X123047000Y-110753000D01*
X123047000Y-111007000D01*
X123027000Y-111007000D01*
X123027000Y-113293000D01*
X123047000Y-113293000D01*
X123047000Y-113547000D01*
X123027000Y-113547000D01*
X123027000Y-115833000D01*
X123047000Y-115833000D01*
X123047000Y-116087000D01*
X123027000Y-116087000D01*
X123027000Y-118373000D01*
X123047000Y-118373000D01*
X123047000Y-118627000D01*
X123027000Y-118627000D01*
X123027000Y-120913000D01*
X123047000Y-120913000D01*
X123047000Y-121167000D01*
X123027000Y-121167000D01*
X123027000Y-122360814D01*
X123256891Y-122481481D01*
X123531252Y-122384157D01*
X123781355Y-122235178D01*
X123873000Y-122152571D01*
X123873000Y-122873000D01*
X118127000Y-122873000D01*
X118127000Y-121396890D01*
X121458524Y-121396890D01*
X121503175Y-121544099D01*
X121628359Y-121806920D01*
X121802412Y-122040269D01*
X122018645Y-122235178D01*
X122268748Y-122384157D01*
X122543109Y-122481481D01*
X122773000Y-122360814D01*
X122773000Y-121167000D01*
X121579845Y-121167000D01*
X121458524Y-121396890D01*
X118127000Y-121396890D01*
X118127000Y-118856890D01*
X121458524Y-118856890D01*
X121503175Y-119004099D01*
X121628359Y-119266920D01*
X121802412Y-119500269D01*
X122018645Y-119695178D01*
X122144255Y-119770000D01*
X122018645Y-119844822D01*
X121802412Y-120039731D01*
X121628359Y-120273080D01*
X121503175Y-120535901D01*
X121458524Y-120683110D01*
X121579845Y-120913000D01*
X122773000Y-120913000D01*
X122773000Y-118627000D01*
X121579845Y-118627000D01*
X121458524Y-118856890D01*
X118127000Y-118856890D01*
X118127000Y-116316890D01*
X121458524Y-116316890D01*
X121503175Y-116464099D01*
X121628359Y-116726920D01*
X121802412Y-116960269D01*
X122018645Y-117155178D01*
X122144255Y-117230000D01*
X122018645Y-117304822D01*
X121802412Y-117499731D01*
X121628359Y-117733080D01*
X121503175Y-117995901D01*
X121458524Y-118143110D01*
X121579845Y-118373000D01*
X122773000Y-118373000D01*
X122773000Y-116087000D01*
X121579845Y-116087000D01*
X121458524Y-116316890D01*
X118127000Y-116316890D01*
X118127000Y-113776890D01*
X121458524Y-113776890D01*
X121503175Y-113924099D01*
X121628359Y-114186920D01*
X121802412Y-114420269D01*
X122018645Y-114615178D01*
X122144255Y-114690000D01*
X122018645Y-114764822D01*
X121802412Y-114959731D01*
X121628359Y-115193080D01*
X121503175Y-115455901D01*
X121458524Y-115603110D01*
X121579845Y-115833000D01*
X122773000Y-115833000D01*
X122773000Y-113547000D01*
X121579845Y-113547000D01*
X121458524Y-113776890D01*
X118127000Y-113776890D01*
X118127000Y-111236890D01*
X121458524Y-111236890D01*
X121503175Y-111384099D01*
X121628359Y-111646920D01*
X121802412Y-111880269D01*
X122018645Y-112075178D01*
X122144255Y-112150000D01*
X122018645Y-112224822D01*
X121802412Y-112419731D01*
X121628359Y-112653080D01*
X121503175Y-112915901D01*
X121458524Y-113063110D01*
X121579845Y-113293000D01*
X122773000Y-113293000D01*
X122773000Y-111007000D01*
X121579845Y-111007000D01*
X121458524Y-111236890D01*
X118127000Y-111236890D01*
X118127000Y-108696890D01*
X121458524Y-108696890D01*
X121503175Y-108844099D01*
X121628359Y-109106920D01*
X121802412Y-109340269D01*
X122018645Y-109535178D01*
X122144255Y-109610000D01*
X122018645Y-109684822D01*
X121802412Y-109879731D01*
X121628359Y-110113080D01*
X121503175Y-110375901D01*
X121458524Y-110523110D01*
X121579845Y-110753000D01*
X122773000Y-110753000D01*
X122773000Y-108467000D01*
X121579845Y-108467000D01*
X121458524Y-108696890D01*
X118127000Y-108696890D01*
X118127000Y-106650000D01*
X121411928Y-106650000D01*
X121424188Y-106774482D01*
X121460498Y-106894180D01*
X121519463Y-107004494D01*
X121598815Y-107101185D01*
X121695506Y-107180537D01*
X121805820Y-107239502D01*
X121886466Y-107263966D01*
X121802412Y-107339731D01*
X121628359Y-107573080D01*
X121503175Y-107835901D01*
X121458524Y-107983110D01*
X121579845Y-108213000D01*
X122773000Y-108213000D01*
X122773000Y-105927000D01*
X121573750Y-105927000D01*
X121415000Y-106085750D01*
X121411928Y-106650000D01*
X118127000Y-106650000D01*
X118127000Y-105127000D01*
X121412892Y-105127000D01*
X121415000Y-105514250D01*
G37*
X121415000Y-105514250D02*
X121573750Y-105673000D01*
X122773000Y-105673000D01*
X122773000Y-105653000D01*
X123027000Y-105653000D01*
X123027000Y-105673000D01*
X123047000Y-105673000D01*
X123047000Y-105927000D01*
X123027000Y-105927000D01*
X123027000Y-108213000D01*
X123047000Y-108213000D01*
X123047000Y-108467000D01*
X123027000Y-108467000D01*
X123027000Y-110753000D01*
X123047000Y-110753000D01*
X123047000Y-111007000D01*
X123027000Y-111007000D01*
X123027000Y-113293000D01*
X123047000Y-113293000D01*
X123047000Y-113547000D01*
X123027000Y-113547000D01*
X123027000Y-115833000D01*
X123047000Y-115833000D01*
X123047000Y-116087000D01*
X123027000Y-116087000D01*
X123027000Y-118373000D01*
X123047000Y-118373000D01*
X123047000Y-118627000D01*
X123027000Y-118627000D01*
X123027000Y-120913000D01*
X123047000Y-120913000D01*
X123047000Y-121167000D01*
X123027000Y-121167000D01*
X123027000Y-122360814D01*
X123256891Y-122481481D01*
X123531252Y-122384157D01*
X123781355Y-122235178D01*
X123873000Y-122152571D01*
X123873000Y-122873000D01*
X118127000Y-122873000D01*
X118127000Y-121396890D01*
X121458524Y-121396890D01*
X121503175Y-121544099D01*
X121628359Y-121806920D01*
X121802412Y-122040269D01*
X122018645Y-122235178D01*
X122268748Y-122384157D01*
X122543109Y-122481481D01*
X122773000Y-122360814D01*
X122773000Y-121167000D01*
X121579845Y-121167000D01*
X121458524Y-121396890D01*
X118127000Y-121396890D01*
X118127000Y-118856890D01*
X121458524Y-118856890D01*
X121503175Y-119004099D01*
X121628359Y-119266920D01*
X121802412Y-119500269D01*
X122018645Y-119695178D01*
X122144255Y-119770000D01*
X122018645Y-119844822D01*
X121802412Y-120039731D01*
X121628359Y-120273080D01*
X121503175Y-120535901D01*
X121458524Y-120683110D01*
X121579845Y-120913000D01*
X122773000Y-120913000D01*
X122773000Y-118627000D01*
X121579845Y-118627000D01*
X121458524Y-118856890D01*
X118127000Y-118856890D01*
X118127000Y-116316890D01*
X121458524Y-116316890D01*
X121503175Y-116464099D01*
X121628359Y-116726920D01*
X121802412Y-116960269D01*
X122018645Y-117155178D01*
X122144255Y-117230000D01*
X122018645Y-117304822D01*
X121802412Y-117499731D01*
X121628359Y-117733080D01*
X121503175Y-117995901D01*
X121458524Y-118143110D01*
X121579845Y-118373000D01*
X122773000Y-118373000D01*
X122773000Y-116087000D01*
X121579845Y-116087000D01*
X121458524Y-116316890D01*
X118127000Y-116316890D01*
X118127000Y-113776890D01*
X121458524Y-113776890D01*
X121503175Y-113924099D01*
X121628359Y-114186920D01*
X121802412Y-114420269D01*
X122018645Y-114615178D01*
X122144255Y-114690000D01*
X122018645Y-114764822D01*
X121802412Y-114959731D01*
X121628359Y-115193080D01*
X121503175Y-115455901D01*
X121458524Y-115603110D01*
X121579845Y-115833000D01*
X122773000Y-115833000D01*
X122773000Y-113547000D01*
X121579845Y-113547000D01*
X121458524Y-113776890D01*
X118127000Y-113776890D01*
X118127000Y-111236890D01*
X121458524Y-111236890D01*
X121503175Y-111384099D01*
X121628359Y-111646920D01*
X121802412Y-111880269D01*
X122018645Y-112075178D01*
X122144255Y-112150000D01*
X122018645Y-112224822D01*
X121802412Y-112419731D01*
X121628359Y-112653080D01*
X121503175Y-112915901D01*
X121458524Y-113063110D01*
X121579845Y-113293000D01*
X122773000Y-113293000D01*
X122773000Y-111007000D01*
X121579845Y-111007000D01*
X121458524Y-111236890D01*
X118127000Y-111236890D01*
X118127000Y-108696890D01*
X121458524Y-108696890D01*
X121503175Y-108844099D01*
X121628359Y-109106920D01*
X121802412Y-109340269D01*
X122018645Y-109535178D01*
X122144255Y-109610000D01*
X122018645Y-109684822D01*
X121802412Y-109879731D01*
X121628359Y-110113080D01*
X121503175Y-110375901D01*
X121458524Y-110523110D01*
X121579845Y-110753000D01*
X122773000Y-110753000D01*
X122773000Y-108467000D01*
X121579845Y-108467000D01*
X121458524Y-108696890D01*
X118127000Y-108696890D01*
X118127000Y-106650000D01*
X121411928Y-106650000D01*
X121424188Y-106774482D01*
X121460498Y-106894180D01*
X121519463Y-107004494D01*
X121598815Y-107101185D01*
X121695506Y-107180537D01*
X121805820Y-107239502D01*
X121886466Y-107263966D01*
X121802412Y-107339731D01*
X121628359Y-107573080D01*
X121503175Y-107835901D01*
X121458524Y-107983110D01*
X121579845Y-108213000D01*
X122773000Y-108213000D01*
X122773000Y-105927000D01*
X121573750Y-105927000D01*
X121415000Y-106085750D01*
X121411928Y-106650000D01*
X118127000Y-106650000D01*
X118127000Y-105127000D01*
X121412892Y-105127000D01*
X121415000Y-105514250D01*
%TO.N,/Vin1*%
G36*
X141980000Y-109464250D02*
G01*
X142138750Y-109623000D01*
X142963000Y-109623000D01*
X142963000Y-109603000D01*
X143217000Y-109603000D01*
X143217000Y-109623000D01*
X144041250Y-109623000D01*
X144200000Y-109464250D01*
X144201120Y-109377000D01*
X146373000Y-109377000D01*
X146373000Y-111570000D01*
X145493560Y-111570000D01*
X145455000Y-111566202D01*
X145416439Y-111570000D01*
X145301113Y-111581359D01*
X145153140Y-111626246D01*
X145016767Y-111699138D01*
X144897236Y-111797236D01*
X144799138Y-111916767D01*
X144726246Y-112053140D01*
X144681359Y-112201113D01*
X144666202Y-112355000D01*
X144667975Y-112373000D01*
X144070927Y-112373000D01*
X144100812Y-112274482D01*
X144113072Y-112150000D01*
X144110000Y-111910750D01*
X143951250Y-111752000D01*
X143127000Y-111752000D01*
X143127000Y-111772000D01*
X142873000Y-111772000D01*
X142873000Y-111752000D01*
X142048750Y-111752000D01*
X141890000Y-111910750D01*
X141886928Y-112150000D01*
X141899188Y-112274482D01*
X141929073Y-112373000D01*
X135627000Y-112373000D01*
X135627000Y-111100000D01*
X141886928Y-111100000D01*
X141890000Y-111339250D01*
X142048750Y-111498000D01*
X142873000Y-111498000D01*
X142873000Y-110841250D01*
X142963000Y-110751250D01*
X142963000Y-110623750D01*
X143127000Y-110623750D01*
X143127000Y-111498000D01*
X143951250Y-111498000D01*
X144110000Y-111339250D01*
X144113072Y-111100000D01*
X144100812Y-110975518D01*
X144064502Y-110855820D01*
X144005537Y-110745506D01*
X144000347Y-110739182D01*
X144016185Y-110726185D01*
X144095537Y-110629494D01*
X144154502Y-110519180D01*
X144190812Y-110399482D01*
X144203072Y-110275000D01*
X144200000Y-110035750D01*
X144041250Y-109877000D01*
X143217000Y-109877000D01*
X143217000Y-110533750D01*
X143127000Y-110623750D01*
X142963000Y-110623750D01*
X142963000Y-109877000D01*
X142138750Y-109877000D01*
X141980000Y-110035750D01*
X141976928Y-110275000D01*
X141989188Y-110399482D01*
X142025498Y-110519180D01*
X142084463Y-110629494D01*
X142089653Y-110635818D01*
X142073815Y-110648815D01*
X141994463Y-110745506D01*
X141935498Y-110855820D01*
X141899188Y-110975518D01*
X141886928Y-111100000D01*
X135627000Y-111100000D01*
X135627000Y-109377000D01*
X141978880Y-109377000D01*
X141980000Y-109464250D01*
G37*
X141980000Y-109464250D02*
X142138750Y-109623000D01*
X142963000Y-109623000D01*
X142963000Y-109603000D01*
X143217000Y-109603000D01*
X143217000Y-109623000D01*
X144041250Y-109623000D01*
X144200000Y-109464250D01*
X144201120Y-109377000D01*
X146373000Y-109377000D01*
X146373000Y-111570000D01*
X145493560Y-111570000D01*
X145455000Y-111566202D01*
X145416439Y-111570000D01*
X145301113Y-111581359D01*
X145153140Y-111626246D01*
X145016767Y-111699138D01*
X144897236Y-111797236D01*
X144799138Y-111916767D01*
X144726246Y-112053140D01*
X144681359Y-112201113D01*
X144666202Y-112355000D01*
X144667975Y-112373000D01*
X144070927Y-112373000D01*
X144100812Y-112274482D01*
X144113072Y-112150000D01*
X144110000Y-111910750D01*
X143951250Y-111752000D01*
X143127000Y-111752000D01*
X143127000Y-111772000D01*
X142873000Y-111772000D01*
X142873000Y-111752000D01*
X142048750Y-111752000D01*
X141890000Y-111910750D01*
X141886928Y-112150000D01*
X141899188Y-112274482D01*
X141929073Y-112373000D01*
X135627000Y-112373000D01*
X135627000Y-111100000D01*
X141886928Y-111100000D01*
X141890000Y-111339250D01*
X142048750Y-111498000D01*
X142873000Y-111498000D01*
X142873000Y-110841250D01*
X142963000Y-110751250D01*
X142963000Y-110623750D01*
X143127000Y-110623750D01*
X143127000Y-111498000D01*
X143951250Y-111498000D01*
X144110000Y-111339250D01*
X144113072Y-111100000D01*
X144100812Y-110975518D01*
X144064502Y-110855820D01*
X144005537Y-110745506D01*
X144000347Y-110739182D01*
X144016185Y-110726185D01*
X144095537Y-110629494D01*
X144154502Y-110519180D01*
X144190812Y-110399482D01*
X144203072Y-110275000D01*
X144200000Y-110035750D01*
X144041250Y-109877000D01*
X143217000Y-109877000D01*
X143217000Y-110533750D01*
X143127000Y-110623750D01*
X142963000Y-110623750D01*
X142963000Y-109877000D01*
X142138750Y-109877000D01*
X141980000Y-110035750D01*
X141976928Y-110275000D01*
X141989188Y-110399482D01*
X142025498Y-110519180D01*
X142084463Y-110629494D01*
X142089653Y-110635818D01*
X142073815Y-110648815D01*
X141994463Y-110745506D01*
X141935498Y-110855820D01*
X141899188Y-110975518D01*
X141886928Y-111100000D01*
X135627000Y-111100000D01*
X135627000Y-109377000D01*
X141978880Y-109377000D01*
X141980000Y-109464250D01*
%TO.N,GND2*%
G36*
X151373000Y-87500000D02*
G01*
X151375440Y-87524776D01*
X151382667Y-87548601D01*
X151394403Y-87570557D01*
X151410197Y-87589803D01*
X151429443Y-87605597D01*
X151451399Y-87617333D01*
X151475224Y-87624560D01*
X151500000Y-87627000D01*
X152219985Y-87627000D01*
X152254774Y-87801898D01*
X152332795Y-87990256D01*
X152373000Y-88050427D01*
X152373000Y-88610660D01*
X152335498Y-88680820D01*
X152299188Y-88800518D01*
X152286928Y-88925000D01*
X152290000Y-89164250D01*
X152373000Y-89247250D01*
X152373000Y-89652750D01*
X152290000Y-89735750D01*
X152286928Y-89975000D01*
X152299188Y-90099482D01*
X152335498Y-90219180D01*
X152373000Y-90289340D01*
X152373000Y-90541095D01*
X152353577Y-90577433D01*
X152303752Y-90741684D01*
X152286928Y-90912500D01*
X152286928Y-91487500D01*
X152303752Y-91658316D01*
X152353577Y-91822567D01*
X152373000Y-91858905D01*
X152373000Y-92885660D01*
X152335498Y-92955820D01*
X152299188Y-93075518D01*
X152286928Y-93200000D01*
X152290000Y-93439250D01*
X152373000Y-93522250D01*
X152373000Y-93927750D01*
X152290000Y-94010750D01*
X152286928Y-94250000D01*
X152299188Y-94374482D01*
X152335498Y-94494180D01*
X152373000Y-94564340D01*
X152373000Y-94816095D01*
X152353577Y-94852433D01*
X152303752Y-95016684D01*
X152286928Y-95187500D01*
X152286928Y-95762500D01*
X152303752Y-95933316D01*
X152353577Y-96097567D01*
X152373000Y-96133905D01*
X152373000Y-97104335D01*
X152323752Y-97266684D01*
X152306928Y-97437500D01*
X152306928Y-98012500D01*
X152323752Y-98183316D01*
X152373000Y-98345665D01*
X152373000Y-98373000D01*
X152100958Y-98373000D01*
X152113072Y-98250000D01*
X152110000Y-98010750D01*
X151951250Y-97852000D01*
X151127000Y-97852000D01*
X151127000Y-97872000D01*
X150873000Y-97872000D01*
X150873000Y-97852000D01*
X150048750Y-97852000D01*
X149890000Y-98010750D01*
X149886928Y-98250000D01*
X149899042Y-98373000D01*
X149500958Y-98373000D01*
X149513072Y-98250000D01*
X149510000Y-98010750D01*
X149351250Y-97852000D01*
X148527000Y-97852000D01*
X148527000Y-97872000D01*
X148273000Y-97872000D01*
X148273000Y-97852000D01*
X147448750Y-97852000D01*
X147290000Y-98010750D01*
X147286928Y-98250000D01*
X147299042Y-98373000D01*
X146700958Y-98373000D01*
X146713072Y-98250000D01*
X146710000Y-98010750D01*
X146551250Y-97852000D01*
X145727000Y-97852000D01*
X145727000Y-97872000D01*
X145473000Y-97872000D01*
X145473000Y-97852000D01*
X144648750Y-97852000D01*
X144490000Y-98010750D01*
X144486928Y-98250000D01*
X144499042Y-98373000D01*
X143822371Y-98373000D01*
X143864502Y-98294180D01*
X143900812Y-98174482D01*
X143913072Y-98050000D01*
X143910000Y-97810750D01*
X143751250Y-97652000D01*
X142927000Y-97652000D01*
X142927000Y-97672000D01*
X142673000Y-97672000D01*
X142673000Y-97652000D01*
X141848750Y-97652000D01*
X141690000Y-97810750D01*
X141686928Y-98050000D01*
X141699188Y-98174482D01*
X141735498Y-98294180D01*
X141777629Y-98373000D01*
X141627000Y-98373000D01*
X141627000Y-97000000D01*
X141686928Y-97000000D01*
X141690000Y-97239250D01*
X141848750Y-97398000D01*
X142673000Y-97398000D01*
X142673000Y-96523750D01*
X142927000Y-96523750D01*
X142927000Y-97398000D01*
X143751250Y-97398000D01*
X143910000Y-97239250D01*
X143910503Y-97200000D01*
X144486928Y-97200000D01*
X144490000Y-97439250D01*
X144648750Y-97598000D01*
X145473000Y-97598000D01*
X145473000Y-96723750D01*
X145727000Y-96723750D01*
X145727000Y-97598000D01*
X146551250Y-97598000D01*
X146710000Y-97439250D01*
X146713072Y-97200000D01*
X147286928Y-97200000D01*
X147290000Y-97439250D01*
X147448750Y-97598000D01*
X148273000Y-97598000D01*
X148273000Y-96723750D01*
X148527000Y-96723750D01*
X148527000Y-97598000D01*
X149351250Y-97598000D01*
X149510000Y-97439250D01*
X149513072Y-97200000D01*
X149886928Y-97200000D01*
X149890000Y-97439250D01*
X150048750Y-97598000D01*
X150873000Y-97598000D01*
X150873000Y-96723750D01*
X151127000Y-96723750D01*
X151127000Y-97598000D01*
X151951250Y-97598000D01*
X152110000Y-97439250D01*
X152113072Y-97200000D01*
X152100812Y-97075518D01*
X152064502Y-96955820D01*
X152005537Y-96845506D01*
X151926185Y-96748815D01*
X151829494Y-96669463D01*
X151719180Y-96610498D01*
X151599482Y-96574188D01*
X151475000Y-96561928D01*
X151285750Y-96565000D01*
X151127000Y-96723750D01*
X150873000Y-96723750D01*
X150714250Y-96565000D01*
X150525000Y-96561928D01*
X150400518Y-96574188D01*
X150280820Y-96610498D01*
X150170506Y-96669463D01*
X150073815Y-96748815D01*
X149994463Y-96845506D01*
X149935498Y-96955820D01*
X149899188Y-97075518D01*
X149886928Y-97200000D01*
X149513072Y-97200000D01*
X149500812Y-97075518D01*
X149464502Y-96955820D01*
X149405537Y-96845506D01*
X149326185Y-96748815D01*
X149229494Y-96669463D01*
X149119180Y-96610498D01*
X148999482Y-96574188D01*
X148875000Y-96561928D01*
X148685750Y-96565000D01*
X148527000Y-96723750D01*
X148273000Y-96723750D01*
X148114250Y-96565000D01*
X147925000Y-96561928D01*
X147800518Y-96574188D01*
X147680820Y-96610498D01*
X147570506Y-96669463D01*
X147473815Y-96748815D01*
X147394463Y-96845506D01*
X147335498Y-96955820D01*
X147299188Y-97075518D01*
X147286928Y-97200000D01*
X146713072Y-97200000D01*
X146700812Y-97075518D01*
X146664502Y-96955820D01*
X146605537Y-96845506D01*
X146526185Y-96748815D01*
X146429494Y-96669463D01*
X146319180Y-96610498D01*
X146199482Y-96574188D01*
X146075000Y-96561928D01*
X145885750Y-96565000D01*
X145727000Y-96723750D01*
X145473000Y-96723750D01*
X145314250Y-96565000D01*
X145125000Y-96561928D01*
X145000518Y-96574188D01*
X144880820Y-96610498D01*
X144770506Y-96669463D01*
X144673815Y-96748815D01*
X144594463Y-96845506D01*
X144535498Y-96955820D01*
X144499188Y-97075518D01*
X144486928Y-97200000D01*
X143910503Y-97200000D01*
X143913072Y-97000000D01*
X143900812Y-96875518D01*
X143864502Y-96755820D01*
X143805537Y-96645506D01*
X143726185Y-96548815D01*
X143629494Y-96469463D01*
X143519180Y-96410498D01*
X143399482Y-96374188D01*
X143275000Y-96361928D01*
X143085750Y-96365000D01*
X142927000Y-96523750D01*
X142673000Y-96523750D01*
X142514250Y-96365000D01*
X142325000Y-96361928D01*
X142200518Y-96374188D01*
X142080820Y-96410498D01*
X141970506Y-96469463D01*
X141873815Y-96548815D01*
X141794463Y-96645506D01*
X141735498Y-96755820D01*
X141699188Y-96875518D01*
X141686928Y-97000000D01*
X141627000Y-97000000D01*
X141627000Y-92342928D01*
X141730000Y-92353072D01*
X141969250Y-92350000D01*
X142128000Y-92191250D01*
X142128000Y-91367000D01*
X142382000Y-91367000D01*
X142382000Y-92191250D01*
X142540750Y-92350000D01*
X142780000Y-92353072D01*
X142904482Y-92340812D01*
X143024180Y-92304502D01*
X143134494Y-92245537D01*
X143231185Y-92166185D01*
X143310537Y-92069494D01*
X143369502Y-91959180D01*
X143405812Y-91839482D01*
X143418072Y-91715000D01*
X143415000Y-91525750D01*
X143256250Y-91367000D01*
X142382000Y-91367000D01*
X142128000Y-91367000D01*
X142108000Y-91367000D01*
X142108000Y-91113000D01*
X142128000Y-91113000D01*
X142128000Y-90288750D01*
X142382000Y-90288750D01*
X142382000Y-91113000D01*
X143256250Y-91113000D01*
X143415000Y-90954250D01*
X143418072Y-90765000D01*
X143405812Y-90640518D01*
X143369502Y-90520820D01*
X143310537Y-90410506D01*
X143231185Y-90313815D01*
X143134494Y-90234463D01*
X143024180Y-90175498D01*
X142904482Y-90139188D01*
X142780000Y-90126928D01*
X142540750Y-90130000D01*
X142382000Y-90288750D01*
X142128000Y-90288750D01*
X141969250Y-90130000D01*
X141730000Y-90126928D01*
X141627000Y-90137072D01*
X141627000Y-89802928D01*
X141730000Y-89813072D01*
X141969250Y-89810000D01*
X142128000Y-89651250D01*
X142128000Y-88827000D01*
X142382000Y-88827000D01*
X142382000Y-89651250D01*
X142540750Y-89810000D01*
X142780000Y-89813072D01*
X142904482Y-89800812D01*
X143024180Y-89764502D01*
X143134494Y-89705537D01*
X143231185Y-89626185D01*
X143310537Y-89529494D01*
X143369502Y-89419180D01*
X143405812Y-89299482D01*
X143418072Y-89175000D01*
X143415000Y-88985750D01*
X143256250Y-88827000D01*
X142382000Y-88827000D01*
X142128000Y-88827000D01*
X142108000Y-88827000D01*
X142108000Y-88573000D01*
X142128000Y-88573000D01*
X142128000Y-87748750D01*
X142382000Y-87748750D01*
X142382000Y-88573000D01*
X143256250Y-88573000D01*
X143415000Y-88414250D01*
X143418072Y-88225000D01*
X143405812Y-88100518D01*
X143369502Y-87980820D01*
X143310537Y-87870506D01*
X143231185Y-87773815D01*
X143134494Y-87694463D01*
X143024180Y-87635498D01*
X142904482Y-87599188D01*
X142780000Y-87586928D01*
X142540750Y-87590000D01*
X142382000Y-87748750D01*
X142128000Y-87748750D01*
X141969250Y-87590000D01*
X141730000Y-87586928D01*
X141627000Y-87597072D01*
X141627000Y-87500958D01*
X141750000Y-87513072D01*
X141989250Y-87510000D01*
X142148000Y-87351250D01*
X142148000Y-86527000D01*
X142402000Y-86527000D01*
X142402000Y-87351250D01*
X142560750Y-87510000D01*
X142800000Y-87513072D01*
X142924482Y-87500812D01*
X143044180Y-87464502D01*
X143154494Y-87405537D01*
X143251185Y-87326185D01*
X143330537Y-87229494D01*
X143389502Y-87119180D01*
X143425812Y-86999482D01*
X143438072Y-86875000D01*
X143435000Y-86685750D01*
X143276250Y-86527000D01*
X142402000Y-86527000D01*
X142148000Y-86527000D01*
X142128000Y-86527000D01*
X142128000Y-86273000D01*
X142148000Y-86273000D01*
X142148000Y-86253000D01*
X142402000Y-86253000D01*
X142402000Y-86273000D01*
X143276250Y-86273000D01*
X143435000Y-86114250D01*
X143438072Y-85925000D01*
X143425812Y-85800518D01*
X143389502Y-85680820D01*
X143330537Y-85570506D01*
X143251185Y-85473815D01*
X143154494Y-85394463D01*
X143121824Y-85377000D01*
X151373000Y-85377000D01*
X151373000Y-87500000D01*
G37*
X151373000Y-87500000D02*
X151375440Y-87524776D01*
X151382667Y-87548601D01*
X151394403Y-87570557D01*
X151410197Y-87589803D01*
X151429443Y-87605597D01*
X151451399Y-87617333D01*
X151475224Y-87624560D01*
X151500000Y-87627000D01*
X152219985Y-87627000D01*
X152254774Y-87801898D01*
X152332795Y-87990256D01*
X152373000Y-88050427D01*
X152373000Y-88610660D01*
X152335498Y-88680820D01*
X152299188Y-88800518D01*
X152286928Y-88925000D01*
X152290000Y-89164250D01*
X152373000Y-89247250D01*
X152373000Y-89652750D01*
X152290000Y-89735750D01*
X152286928Y-89975000D01*
X152299188Y-90099482D01*
X152335498Y-90219180D01*
X152373000Y-90289340D01*
X152373000Y-90541095D01*
X152353577Y-90577433D01*
X152303752Y-90741684D01*
X152286928Y-90912500D01*
X152286928Y-91487500D01*
X152303752Y-91658316D01*
X152353577Y-91822567D01*
X152373000Y-91858905D01*
X152373000Y-92885660D01*
X152335498Y-92955820D01*
X152299188Y-93075518D01*
X152286928Y-93200000D01*
X152290000Y-93439250D01*
X152373000Y-93522250D01*
X152373000Y-93927750D01*
X152290000Y-94010750D01*
X152286928Y-94250000D01*
X152299188Y-94374482D01*
X152335498Y-94494180D01*
X152373000Y-94564340D01*
X152373000Y-94816095D01*
X152353577Y-94852433D01*
X152303752Y-95016684D01*
X152286928Y-95187500D01*
X152286928Y-95762500D01*
X152303752Y-95933316D01*
X152353577Y-96097567D01*
X152373000Y-96133905D01*
X152373000Y-97104335D01*
X152323752Y-97266684D01*
X152306928Y-97437500D01*
X152306928Y-98012500D01*
X152323752Y-98183316D01*
X152373000Y-98345665D01*
X152373000Y-98373000D01*
X152100958Y-98373000D01*
X152113072Y-98250000D01*
X152110000Y-98010750D01*
X151951250Y-97852000D01*
X151127000Y-97852000D01*
X151127000Y-97872000D01*
X150873000Y-97872000D01*
X150873000Y-97852000D01*
X150048750Y-97852000D01*
X149890000Y-98010750D01*
X149886928Y-98250000D01*
X149899042Y-98373000D01*
X149500958Y-98373000D01*
X149513072Y-98250000D01*
X149510000Y-98010750D01*
X149351250Y-97852000D01*
X148527000Y-97852000D01*
X148527000Y-97872000D01*
X148273000Y-97872000D01*
X148273000Y-97852000D01*
X147448750Y-97852000D01*
X147290000Y-98010750D01*
X147286928Y-98250000D01*
X147299042Y-98373000D01*
X146700958Y-98373000D01*
X146713072Y-98250000D01*
X146710000Y-98010750D01*
X146551250Y-97852000D01*
X145727000Y-97852000D01*
X145727000Y-97872000D01*
X145473000Y-97872000D01*
X145473000Y-97852000D01*
X144648750Y-97852000D01*
X144490000Y-98010750D01*
X144486928Y-98250000D01*
X144499042Y-98373000D01*
X143822371Y-98373000D01*
X143864502Y-98294180D01*
X143900812Y-98174482D01*
X143913072Y-98050000D01*
X143910000Y-97810750D01*
X143751250Y-97652000D01*
X142927000Y-97652000D01*
X142927000Y-97672000D01*
X142673000Y-97672000D01*
X142673000Y-97652000D01*
X141848750Y-97652000D01*
X141690000Y-97810750D01*
X141686928Y-98050000D01*
X141699188Y-98174482D01*
X141735498Y-98294180D01*
X141777629Y-98373000D01*
X141627000Y-98373000D01*
X141627000Y-97000000D01*
X141686928Y-97000000D01*
X141690000Y-97239250D01*
X141848750Y-97398000D01*
X142673000Y-97398000D01*
X142673000Y-96523750D01*
X142927000Y-96523750D01*
X142927000Y-97398000D01*
X143751250Y-97398000D01*
X143910000Y-97239250D01*
X143910503Y-97200000D01*
X144486928Y-97200000D01*
X144490000Y-97439250D01*
X144648750Y-97598000D01*
X145473000Y-97598000D01*
X145473000Y-96723750D01*
X145727000Y-96723750D01*
X145727000Y-97598000D01*
X146551250Y-97598000D01*
X146710000Y-97439250D01*
X146713072Y-97200000D01*
X147286928Y-97200000D01*
X147290000Y-97439250D01*
X147448750Y-97598000D01*
X148273000Y-97598000D01*
X148273000Y-96723750D01*
X148527000Y-96723750D01*
X148527000Y-97598000D01*
X149351250Y-97598000D01*
X149510000Y-97439250D01*
X149513072Y-97200000D01*
X149886928Y-97200000D01*
X149890000Y-97439250D01*
X150048750Y-97598000D01*
X150873000Y-97598000D01*
X150873000Y-96723750D01*
X151127000Y-96723750D01*
X151127000Y-97598000D01*
X151951250Y-97598000D01*
X152110000Y-97439250D01*
X152113072Y-97200000D01*
X152100812Y-97075518D01*
X152064502Y-96955820D01*
X152005537Y-96845506D01*
X151926185Y-96748815D01*
X151829494Y-96669463D01*
X151719180Y-96610498D01*
X151599482Y-96574188D01*
X151475000Y-96561928D01*
X151285750Y-96565000D01*
X151127000Y-96723750D01*
X150873000Y-96723750D01*
X150714250Y-96565000D01*
X150525000Y-96561928D01*
X150400518Y-96574188D01*
X150280820Y-96610498D01*
X150170506Y-96669463D01*
X150073815Y-96748815D01*
X149994463Y-96845506D01*
X149935498Y-96955820D01*
X149899188Y-97075518D01*
X149886928Y-97200000D01*
X149513072Y-97200000D01*
X149500812Y-97075518D01*
X149464502Y-96955820D01*
X149405537Y-96845506D01*
X149326185Y-96748815D01*
X149229494Y-96669463D01*
X149119180Y-96610498D01*
X148999482Y-96574188D01*
X148875000Y-96561928D01*
X148685750Y-96565000D01*
X148527000Y-96723750D01*
X148273000Y-96723750D01*
X148114250Y-96565000D01*
X147925000Y-96561928D01*
X147800518Y-96574188D01*
X147680820Y-96610498D01*
X147570506Y-96669463D01*
X147473815Y-96748815D01*
X147394463Y-96845506D01*
X147335498Y-96955820D01*
X147299188Y-97075518D01*
X147286928Y-97200000D01*
X146713072Y-97200000D01*
X146700812Y-97075518D01*
X146664502Y-96955820D01*
X146605537Y-96845506D01*
X146526185Y-96748815D01*
X146429494Y-96669463D01*
X146319180Y-96610498D01*
X146199482Y-96574188D01*
X146075000Y-96561928D01*
X145885750Y-96565000D01*
X145727000Y-96723750D01*
X145473000Y-96723750D01*
X145314250Y-96565000D01*
X145125000Y-96561928D01*
X145000518Y-96574188D01*
X144880820Y-96610498D01*
X144770506Y-96669463D01*
X144673815Y-96748815D01*
X144594463Y-96845506D01*
X144535498Y-96955820D01*
X144499188Y-97075518D01*
X144486928Y-97200000D01*
X143910503Y-97200000D01*
X143913072Y-97000000D01*
X143900812Y-96875518D01*
X143864502Y-96755820D01*
X143805537Y-96645506D01*
X143726185Y-96548815D01*
X143629494Y-96469463D01*
X143519180Y-96410498D01*
X143399482Y-96374188D01*
X143275000Y-96361928D01*
X143085750Y-96365000D01*
X142927000Y-96523750D01*
X142673000Y-96523750D01*
X142514250Y-96365000D01*
X142325000Y-96361928D01*
X142200518Y-96374188D01*
X142080820Y-96410498D01*
X141970506Y-96469463D01*
X141873815Y-96548815D01*
X141794463Y-96645506D01*
X141735498Y-96755820D01*
X141699188Y-96875518D01*
X141686928Y-97000000D01*
X141627000Y-97000000D01*
X141627000Y-92342928D01*
X141730000Y-92353072D01*
X141969250Y-92350000D01*
X142128000Y-92191250D01*
X142128000Y-91367000D01*
X142382000Y-91367000D01*
X142382000Y-92191250D01*
X142540750Y-92350000D01*
X142780000Y-92353072D01*
X142904482Y-92340812D01*
X143024180Y-92304502D01*
X143134494Y-92245537D01*
X143231185Y-92166185D01*
X143310537Y-92069494D01*
X143369502Y-91959180D01*
X143405812Y-91839482D01*
X143418072Y-91715000D01*
X143415000Y-91525750D01*
X143256250Y-91367000D01*
X142382000Y-91367000D01*
X142128000Y-91367000D01*
X142108000Y-91367000D01*
X142108000Y-91113000D01*
X142128000Y-91113000D01*
X142128000Y-90288750D01*
X142382000Y-90288750D01*
X142382000Y-91113000D01*
X143256250Y-91113000D01*
X143415000Y-90954250D01*
X143418072Y-90765000D01*
X143405812Y-90640518D01*
X143369502Y-90520820D01*
X143310537Y-90410506D01*
X143231185Y-90313815D01*
X143134494Y-90234463D01*
X143024180Y-90175498D01*
X142904482Y-90139188D01*
X142780000Y-90126928D01*
X142540750Y-90130000D01*
X142382000Y-90288750D01*
X142128000Y-90288750D01*
X141969250Y-90130000D01*
X141730000Y-90126928D01*
X141627000Y-90137072D01*
X141627000Y-89802928D01*
X141730000Y-89813072D01*
X141969250Y-89810000D01*
X142128000Y-89651250D01*
X142128000Y-88827000D01*
X142382000Y-88827000D01*
X142382000Y-89651250D01*
X142540750Y-89810000D01*
X142780000Y-89813072D01*
X142904482Y-89800812D01*
X143024180Y-89764502D01*
X143134494Y-89705537D01*
X143231185Y-89626185D01*
X143310537Y-89529494D01*
X143369502Y-89419180D01*
X143405812Y-89299482D01*
X143418072Y-89175000D01*
X143415000Y-88985750D01*
X143256250Y-88827000D01*
X142382000Y-88827000D01*
X142128000Y-88827000D01*
X142108000Y-88827000D01*
X142108000Y-88573000D01*
X142128000Y-88573000D01*
X142128000Y-87748750D01*
X142382000Y-87748750D01*
X142382000Y-88573000D01*
X143256250Y-88573000D01*
X143415000Y-88414250D01*
X143418072Y-88225000D01*
X143405812Y-88100518D01*
X143369502Y-87980820D01*
X143310537Y-87870506D01*
X143231185Y-87773815D01*
X143134494Y-87694463D01*
X143024180Y-87635498D01*
X142904482Y-87599188D01*
X142780000Y-87586928D01*
X142540750Y-87590000D01*
X142382000Y-87748750D01*
X142128000Y-87748750D01*
X141969250Y-87590000D01*
X141730000Y-87586928D01*
X141627000Y-87597072D01*
X141627000Y-87500958D01*
X141750000Y-87513072D01*
X141989250Y-87510000D01*
X142148000Y-87351250D01*
X142148000Y-86527000D01*
X142402000Y-86527000D01*
X142402000Y-87351250D01*
X142560750Y-87510000D01*
X142800000Y-87513072D01*
X142924482Y-87500812D01*
X143044180Y-87464502D01*
X143154494Y-87405537D01*
X143251185Y-87326185D01*
X143330537Y-87229494D01*
X143389502Y-87119180D01*
X143425812Y-86999482D01*
X143438072Y-86875000D01*
X143435000Y-86685750D01*
X143276250Y-86527000D01*
X142402000Y-86527000D01*
X142148000Y-86527000D01*
X142128000Y-86527000D01*
X142128000Y-86273000D01*
X142148000Y-86273000D01*
X142148000Y-86253000D01*
X142402000Y-86253000D01*
X142402000Y-86273000D01*
X143276250Y-86273000D01*
X143435000Y-86114250D01*
X143438072Y-85925000D01*
X143425812Y-85800518D01*
X143389502Y-85680820D01*
X143330537Y-85570506D01*
X143251185Y-85473815D01*
X143154494Y-85394463D01*
X143121824Y-85377000D01*
X151373000Y-85377000D01*
X151373000Y-87500000D01*
%TO.N,GND*%
G36*
X176660000Y-107289250D02*
G01*
X176818750Y-107448000D01*
X177643000Y-107448000D01*
X177643000Y-107428000D01*
X177897000Y-107428000D01*
X177897000Y-107448000D01*
X178721250Y-107448000D01*
X178880000Y-107289250D01*
X178882083Y-107127000D01*
X181987917Y-107127000D01*
X181990000Y-107289250D01*
X182148750Y-107448000D01*
X182973000Y-107448000D01*
X182973000Y-107428000D01*
X183227000Y-107428000D01*
X183227000Y-107448000D01*
X184051250Y-107448000D01*
X184210000Y-107289250D01*
X184212083Y-107127000D01*
X188802756Y-107127000D01*
X188738620Y-107369346D01*
X188717934Y-107700617D01*
X188762272Y-108029557D01*
X188869931Y-108343527D01*
X188969421Y-108529661D01*
X189238934Y-108631461D01*
X190230395Y-107640000D01*
X190216253Y-107625858D01*
X190395858Y-107446253D01*
X190410000Y-107460395D01*
X190424143Y-107446253D01*
X190603748Y-107625858D01*
X190589605Y-107640000D01*
X191581066Y-108631461D01*
X191850579Y-108529661D01*
X191996463Y-108231523D01*
X192081380Y-107910654D01*
X192102066Y-107579383D01*
X192057728Y-107250443D01*
X192015400Y-107127000D01*
X211373000Y-107127000D01*
X211373000Y-114873000D01*
X192287478Y-114873000D01*
X192302066Y-114639383D01*
X192257728Y-114310443D01*
X192150069Y-113996473D01*
X192050579Y-113810339D01*
X191781066Y-113708539D01*
X190789605Y-114700000D01*
X190803748Y-114714143D01*
X190644890Y-114873000D01*
X190575110Y-114873000D01*
X190416253Y-114714143D01*
X190430395Y-114700000D01*
X189438934Y-113708539D01*
X189169421Y-113810339D01*
X189023537Y-114108477D01*
X188938620Y-114429346D01*
X188917934Y-114760617D01*
X188933082Y-114873000D01*
X172127000Y-114873000D01*
X172127000Y-114310000D01*
X177096928Y-114310000D01*
X177100000Y-114549250D01*
X177258750Y-114708000D01*
X178083000Y-114708000D01*
X178083000Y-113833750D01*
X178337000Y-113833750D01*
X178337000Y-114708000D01*
X179161250Y-114708000D01*
X179320000Y-114549250D01*
X179323072Y-114310000D01*
X179322088Y-114300000D01*
X182216928Y-114300000D01*
X182220000Y-114539250D01*
X182378750Y-114698000D01*
X183203000Y-114698000D01*
X183203000Y-113823750D01*
X183457000Y-113823750D01*
X183457000Y-114698000D01*
X184281250Y-114698000D01*
X184440000Y-114539250D01*
X184443072Y-114300000D01*
X184430812Y-114175518D01*
X184394502Y-114055820D01*
X184335537Y-113945506D01*
X184256185Y-113848815D01*
X184159494Y-113769463D01*
X184049180Y-113710498D01*
X183929482Y-113674188D01*
X183805000Y-113661928D01*
X183615750Y-113665000D01*
X183457000Y-113823750D01*
X183203000Y-113823750D01*
X183044250Y-113665000D01*
X182855000Y-113661928D01*
X182730518Y-113674188D01*
X182610820Y-113710498D01*
X182500506Y-113769463D01*
X182403815Y-113848815D01*
X182324463Y-113945506D01*
X182265498Y-114055820D01*
X182229188Y-114175518D01*
X182216928Y-114300000D01*
X179322088Y-114300000D01*
X179310812Y-114185518D01*
X179274502Y-114065820D01*
X179215537Y-113955506D01*
X179136185Y-113858815D01*
X179039494Y-113779463D01*
X178929180Y-113720498D01*
X178809482Y-113684188D01*
X178685000Y-113671928D01*
X178495750Y-113675000D01*
X178337000Y-113833750D01*
X178083000Y-113833750D01*
X177924250Y-113675000D01*
X177735000Y-113671928D01*
X177610518Y-113684188D01*
X177490820Y-113720498D01*
X177380506Y-113779463D01*
X177283815Y-113858815D01*
X177204463Y-113955506D01*
X177145498Y-114065820D01*
X177109188Y-114185518D01*
X177096928Y-114310000D01*
X172127000Y-114310000D01*
X172127000Y-113528934D01*
X189618539Y-113528934D01*
X190610000Y-114520395D01*
X191601461Y-113528934D01*
X191499661Y-113259421D01*
X191201523Y-113113537D01*
X190880654Y-113028620D01*
X190549383Y-113007934D01*
X190220443Y-113052272D01*
X189906473Y-113159931D01*
X189720339Y-113259421D01*
X189618539Y-113528934D01*
X172127000Y-113528934D01*
X172127000Y-108811066D01*
X189418539Y-108811066D01*
X189520339Y-109080579D01*
X189818477Y-109226463D01*
X190139346Y-109311380D01*
X190470617Y-109332066D01*
X190799557Y-109287728D01*
X191113527Y-109180069D01*
X191299661Y-109080579D01*
X191401461Y-108811066D01*
X190410000Y-107819605D01*
X189418539Y-108811066D01*
X172127000Y-108811066D01*
X172127000Y-108100000D01*
X176656928Y-108100000D01*
X176669188Y-108224482D01*
X176705498Y-108344180D01*
X176764463Y-108454494D01*
X176843815Y-108551185D01*
X176940506Y-108630537D01*
X177050820Y-108689502D01*
X177170518Y-108725812D01*
X177295000Y-108738072D01*
X177484250Y-108735000D01*
X177643000Y-108576250D01*
X177643000Y-107702000D01*
X177897000Y-107702000D01*
X177897000Y-108576250D01*
X178055750Y-108735000D01*
X178245000Y-108738072D01*
X178369482Y-108725812D01*
X178489180Y-108689502D01*
X178599494Y-108630537D01*
X178696185Y-108551185D01*
X178775537Y-108454494D01*
X178834502Y-108344180D01*
X178870812Y-108224482D01*
X178883072Y-108100000D01*
X181986928Y-108100000D01*
X181999188Y-108224482D01*
X182035498Y-108344180D01*
X182094463Y-108454494D01*
X182173815Y-108551185D01*
X182270506Y-108630537D01*
X182380820Y-108689502D01*
X182500518Y-108725812D01*
X182625000Y-108738072D01*
X182814250Y-108735000D01*
X182973000Y-108576250D01*
X182973000Y-107702000D01*
X183227000Y-107702000D01*
X183227000Y-108576250D01*
X183385750Y-108735000D01*
X183575000Y-108738072D01*
X183699482Y-108725812D01*
X183819180Y-108689502D01*
X183929494Y-108630537D01*
X184026185Y-108551185D01*
X184105537Y-108454494D01*
X184164502Y-108344180D01*
X184200812Y-108224482D01*
X184213072Y-108100000D01*
X184210000Y-107860750D01*
X184051250Y-107702000D01*
X183227000Y-107702000D01*
X182973000Y-107702000D01*
X182148750Y-107702000D01*
X181990000Y-107860750D01*
X181986928Y-108100000D01*
X178883072Y-108100000D01*
X178880000Y-107860750D01*
X178721250Y-107702000D01*
X177897000Y-107702000D01*
X177643000Y-107702000D01*
X176818750Y-107702000D01*
X176660000Y-107860750D01*
X176656928Y-108100000D01*
X172127000Y-108100000D01*
X172127000Y-107127000D01*
X176657917Y-107127000D01*
X176660000Y-107289250D01*
G37*
X176660000Y-107289250D02*
X176818750Y-107448000D01*
X177643000Y-107448000D01*
X177643000Y-107428000D01*
X177897000Y-107428000D01*
X177897000Y-107448000D01*
X178721250Y-107448000D01*
X178880000Y-107289250D01*
X178882083Y-107127000D01*
X181987917Y-107127000D01*
X181990000Y-107289250D01*
X182148750Y-107448000D01*
X182973000Y-107448000D01*
X182973000Y-107428000D01*
X183227000Y-107428000D01*
X183227000Y-107448000D01*
X184051250Y-107448000D01*
X184210000Y-107289250D01*
X184212083Y-107127000D01*
X188802756Y-107127000D01*
X188738620Y-107369346D01*
X188717934Y-107700617D01*
X188762272Y-108029557D01*
X188869931Y-108343527D01*
X188969421Y-108529661D01*
X189238934Y-108631461D01*
X190230395Y-107640000D01*
X190216253Y-107625858D01*
X190395858Y-107446253D01*
X190410000Y-107460395D01*
X190424143Y-107446253D01*
X190603748Y-107625858D01*
X190589605Y-107640000D01*
X191581066Y-108631461D01*
X191850579Y-108529661D01*
X191996463Y-108231523D01*
X192081380Y-107910654D01*
X192102066Y-107579383D01*
X192057728Y-107250443D01*
X192015400Y-107127000D01*
X211373000Y-107127000D01*
X211373000Y-114873000D01*
X192287478Y-114873000D01*
X192302066Y-114639383D01*
X192257728Y-114310443D01*
X192150069Y-113996473D01*
X192050579Y-113810339D01*
X191781066Y-113708539D01*
X190789605Y-114700000D01*
X190803748Y-114714143D01*
X190644890Y-114873000D01*
X190575110Y-114873000D01*
X190416253Y-114714143D01*
X190430395Y-114700000D01*
X189438934Y-113708539D01*
X189169421Y-113810339D01*
X189023537Y-114108477D01*
X188938620Y-114429346D01*
X188917934Y-114760617D01*
X188933082Y-114873000D01*
X172127000Y-114873000D01*
X172127000Y-114310000D01*
X177096928Y-114310000D01*
X177100000Y-114549250D01*
X177258750Y-114708000D01*
X178083000Y-114708000D01*
X178083000Y-113833750D01*
X178337000Y-113833750D01*
X178337000Y-114708000D01*
X179161250Y-114708000D01*
X179320000Y-114549250D01*
X179323072Y-114310000D01*
X179322088Y-114300000D01*
X182216928Y-114300000D01*
X182220000Y-114539250D01*
X182378750Y-114698000D01*
X183203000Y-114698000D01*
X183203000Y-113823750D01*
X183457000Y-113823750D01*
X183457000Y-114698000D01*
X184281250Y-114698000D01*
X184440000Y-114539250D01*
X184443072Y-114300000D01*
X184430812Y-114175518D01*
X184394502Y-114055820D01*
X184335537Y-113945506D01*
X184256185Y-113848815D01*
X184159494Y-113769463D01*
X184049180Y-113710498D01*
X183929482Y-113674188D01*
X183805000Y-113661928D01*
X183615750Y-113665000D01*
X183457000Y-113823750D01*
X183203000Y-113823750D01*
X183044250Y-113665000D01*
X182855000Y-113661928D01*
X182730518Y-113674188D01*
X182610820Y-113710498D01*
X182500506Y-113769463D01*
X182403815Y-113848815D01*
X182324463Y-113945506D01*
X182265498Y-114055820D01*
X182229188Y-114175518D01*
X182216928Y-114300000D01*
X179322088Y-114300000D01*
X179310812Y-114185518D01*
X179274502Y-114065820D01*
X179215537Y-113955506D01*
X179136185Y-113858815D01*
X179039494Y-113779463D01*
X178929180Y-113720498D01*
X178809482Y-113684188D01*
X178685000Y-113671928D01*
X178495750Y-113675000D01*
X178337000Y-113833750D01*
X178083000Y-113833750D01*
X177924250Y-113675000D01*
X177735000Y-113671928D01*
X177610518Y-113684188D01*
X177490820Y-113720498D01*
X177380506Y-113779463D01*
X177283815Y-113858815D01*
X177204463Y-113955506D01*
X177145498Y-114065820D01*
X177109188Y-114185518D01*
X177096928Y-114310000D01*
X172127000Y-114310000D01*
X172127000Y-113528934D01*
X189618539Y-113528934D01*
X190610000Y-114520395D01*
X191601461Y-113528934D01*
X191499661Y-113259421D01*
X191201523Y-113113537D01*
X190880654Y-113028620D01*
X190549383Y-113007934D01*
X190220443Y-113052272D01*
X189906473Y-113159931D01*
X189720339Y-113259421D01*
X189618539Y-113528934D01*
X172127000Y-113528934D01*
X172127000Y-108811066D01*
X189418539Y-108811066D01*
X189520339Y-109080579D01*
X189818477Y-109226463D01*
X190139346Y-109311380D01*
X190470617Y-109332066D01*
X190799557Y-109287728D01*
X191113527Y-109180069D01*
X191299661Y-109080579D01*
X191401461Y-108811066D01*
X190410000Y-107819605D01*
X189418539Y-108811066D01*
X172127000Y-108811066D01*
X172127000Y-108100000D01*
X176656928Y-108100000D01*
X176669188Y-108224482D01*
X176705498Y-108344180D01*
X176764463Y-108454494D01*
X176843815Y-108551185D01*
X176940506Y-108630537D01*
X177050820Y-108689502D01*
X177170518Y-108725812D01*
X177295000Y-108738072D01*
X177484250Y-108735000D01*
X177643000Y-108576250D01*
X177643000Y-107702000D01*
X177897000Y-107702000D01*
X177897000Y-108576250D01*
X178055750Y-108735000D01*
X178245000Y-108738072D01*
X178369482Y-108725812D01*
X178489180Y-108689502D01*
X178599494Y-108630537D01*
X178696185Y-108551185D01*
X178775537Y-108454494D01*
X178834502Y-108344180D01*
X178870812Y-108224482D01*
X178883072Y-108100000D01*
X181986928Y-108100000D01*
X181999188Y-108224482D01*
X182035498Y-108344180D01*
X182094463Y-108454494D01*
X182173815Y-108551185D01*
X182270506Y-108630537D01*
X182380820Y-108689502D01*
X182500518Y-108725812D01*
X182625000Y-108738072D01*
X182814250Y-108735000D01*
X182973000Y-108576250D01*
X182973000Y-107702000D01*
X183227000Y-107702000D01*
X183227000Y-108576250D01*
X183385750Y-108735000D01*
X183575000Y-108738072D01*
X183699482Y-108725812D01*
X183819180Y-108689502D01*
X183929494Y-108630537D01*
X184026185Y-108551185D01*
X184105537Y-108454494D01*
X184164502Y-108344180D01*
X184200812Y-108224482D01*
X184213072Y-108100000D01*
X184210000Y-107860750D01*
X184051250Y-107702000D01*
X183227000Y-107702000D01*
X182973000Y-107702000D01*
X182148750Y-107702000D01*
X181990000Y-107860750D01*
X181986928Y-108100000D01*
X178883072Y-108100000D01*
X178880000Y-107860750D01*
X178721250Y-107702000D01*
X177897000Y-107702000D01*
X177643000Y-107702000D01*
X176818750Y-107702000D01*
X176660000Y-107860750D01*
X176656928Y-108100000D01*
X172127000Y-108100000D01*
X172127000Y-107127000D01*
X176657917Y-107127000D01*
X176660000Y-107289250D01*
%TO.N,/SW1*%
G36*
X166373000Y-110373000D02*
G01*
X156127000Y-110373000D01*
X156127000Y-108250000D01*
X160111928Y-108250000D01*
X160124188Y-108374482D01*
X160160498Y-108494180D01*
X160219463Y-108604494D01*
X160298815Y-108701185D01*
X160395506Y-108780537D01*
X160505820Y-108839502D01*
X160625518Y-108875812D01*
X160750000Y-108888072D01*
X162214250Y-108885000D01*
X162373000Y-108726250D01*
X162373000Y-106602000D01*
X162627000Y-106602000D01*
X162627000Y-108726250D01*
X162785750Y-108885000D01*
X164250000Y-108888072D01*
X164374482Y-108875812D01*
X164494180Y-108839502D01*
X164604494Y-108780537D01*
X164701185Y-108701185D01*
X164780537Y-108604494D01*
X164839502Y-108494180D01*
X164875812Y-108374482D01*
X164888072Y-108250000D01*
X164885000Y-106760750D01*
X164726250Y-106602000D01*
X162627000Y-106602000D01*
X162373000Y-106602000D01*
X160273750Y-106602000D01*
X160115000Y-106760750D01*
X160111928Y-108250000D01*
X156127000Y-108250000D01*
X156127000Y-104700000D01*
X160111928Y-104700000D01*
X160115000Y-106189250D01*
X160273750Y-106348000D01*
X162373000Y-106348000D01*
X162373000Y-104223750D01*
X162627000Y-104223750D01*
X162627000Y-106348000D01*
X164726250Y-106348000D01*
X164885000Y-106189250D01*
X164888072Y-104700000D01*
X164875812Y-104575518D01*
X164839502Y-104455820D01*
X164780537Y-104345506D01*
X164701185Y-104248815D01*
X164604494Y-104169463D01*
X164494180Y-104110498D01*
X164374482Y-104074188D01*
X164250000Y-104061928D01*
X162785750Y-104065000D01*
X162627000Y-104223750D01*
X162373000Y-104223750D01*
X162214250Y-104065000D01*
X160750000Y-104061928D01*
X160625518Y-104074188D01*
X160505820Y-104110498D01*
X160395506Y-104169463D01*
X160298815Y-104248815D01*
X160219463Y-104345506D01*
X160160498Y-104455820D01*
X160124188Y-104575518D01*
X160111928Y-104700000D01*
X156127000Y-104700000D01*
X156127000Y-103627000D01*
X166373000Y-103627000D01*
X166373000Y-110373000D01*
G37*
X166373000Y-110373000D02*
X156127000Y-110373000D01*
X156127000Y-108250000D01*
X160111928Y-108250000D01*
X160124188Y-108374482D01*
X160160498Y-108494180D01*
X160219463Y-108604494D01*
X160298815Y-108701185D01*
X160395506Y-108780537D01*
X160505820Y-108839502D01*
X160625518Y-108875812D01*
X160750000Y-108888072D01*
X162214250Y-108885000D01*
X162373000Y-108726250D01*
X162373000Y-106602000D01*
X162627000Y-106602000D01*
X162627000Y-108726250D01*
X162785750Y-108885000D01*
X164250000Y-108888072D01*
X164374482Y-108875812D01*
X164494180Y-108839502D01*
X164604494Y-108780537D01*
X164701185Y-108701185D01*
X164780537Y-108604494D01*
X164839502Y-108494180D01*
X164875812Y-108374482D01*
X164888072Y-108250000D01*
X164885000Y-106760750D01*
X164726250Y-106602000D01*
X162627000Y-106602000D01*
X162373000Y-106602000D01*
X160273750Y-106602000D01*
X160115000Y-106760750D01*
X160111928Y-108250000D01*
X156127000Y-108250000D01*
X156127000Y-104700000D01*
X160111928Y-104700000D01*
X160115000Y-106189250D01*
X160273750Y-106348000D01*
X162373000Y-106348000D01*
X162373000Y-104223750D01*
X162627000Y-104223750D01*
X162627000Y-106348000D01*
X164726250Y-106348000D01*
X164885000Y-106189250D01*
X164888072Y-104700000D01*
X164875812Y-104575518D01*
X164839502Y-104455820D01*
X164780537Y-104345506D01*
X164701185Y-104248815D01*
X164604494Y-104169463D01*
X164494180Y-104110498D01*
X164374482Y-104074188D01*
X164250000Y-104061928D01*
X162785750Y-104065000D01*
X162627000Y-104223750D01*
X162373000Y-104223750D01*
X162214250Y-104065000D01*
X160750000Y-104061928D01*
X160625518Y-104074188D01*
X160505820Y-104110498D01*
X160395506Y-104169463D01*
X160298815Y-104248815D01*
X160219463Y-104345506D01*
X160160498Y-104455820D01*
X160124188Y-104575518D01*
X160111928Y-104700000D01*
X156127000Y-104700000D01*
X156127000Y-103627000D01*
X166373000Y-103627000D01*
X166373000Y-110373000D01*
%TO.N,/SW2*%
G36*
X164871183Y-111628817D02*
G01*
X164873000Y-111630308D01*
X164873000Y-120373000D01*
X163525053Y-120373000D01*
X163604494Y-120330537D01*
X163701185Y-120251185D01*
X163780537Y-120154494D01*
X163839502Y-120044180D01*
X163875812Y-119924482D01*
X163888072Y-119800000D01*
X163885000Y-118310750D01*
X163726250Y-118152000D01*
X161627000Y-118152000D01*
X161627000Y-118172000D01*
X161373000Y-118172000D01*
X161373000Y-118152000D01*
X159273750Y-118152000D01*
X159115000Y-118310750D01*
X159111928Y-119800000D01*
X159124188Y-119924482D01*
X159160498Y-120044180D01*
X159219463Y-120154494D01*
X159298815Y-120251185D01*
X159395506Y-120330537D01*
X159474947Y-120373000D01*
X154127000Y-120373000D01*
X154127000Y-116250000D01*
X159111928Y-116250000D01*
X159115000Y-117739250D01*
X159273750Y-117898000D01*
X161373000Y-117898000D01*
X161373000Y-115773750D01*
X161627000Y-115773750D01*
X161627000Y-117898000D01*
X163726250Y-117898000D01*
X163885000Y-117739250D01*
X163888072Y-116250000D01*
X163875812Y-116125518D01*
X163839502Y-116005820D01*
X163780537Y-115895506D01*
X163701185Y-115798815D01*
X163604494Y-115719463D01*
X163494180Y-115660498D01*
X163374482Y-115624188D01*
X163250000Y-115611928D01*
X161785750Y-115615000D01*
X161627000Y-115773750D01*
X161373000Y-115773750D01*
X161214250Y-115615000D01*
X159750000Y-115611928D01*
X159625518Y-115624188D01*
X159505820Y-115660498D01*
X159395506Y-115719463D01*
X159298815Y-115798815D01*
X159219463Y-115895506D01*
X159160498Y-116005820D01*
X159124188Y-116125518D01*
X159111928Y-116250000D01*
X154127000Y-116250000D01*
X154127000Y-111627000D01*
X164869692Y-111627000D01*
X164871183Y-111628817D01*
G37*
X164871183Y-111628817D02*
X164873000Y-111630308D01*
X164873000Y-120373000D01*
X163525053Y-120373000D01*
X163604494Y-120330537D01*
X163701185Y-120251185D01*
X163780537Y-120154494D01*
X163839502Y-120044180D01*
X163875812Y-119924482D01*
X163888072Y-119800000D01*
X163885000Y-118310750D01*
X163726250Y-118152000D01*
X161627000Y-118152000D01*
X161627000Y-118172000D01*
X161373000Y-118172000D01*
X161373000Y-118152000D01*
X159273750Y-118152000D01*
X159115000Y-118310750D01*
X159111928Y-119800000D01*
X159124188Y-119924482D01*
X159160498Y-120044180D01*
X159219463Y-120154494D01*
X159298815Y-120251185D01*
X159395506Y-120330537D01*
X159474947Y-120373000D01*
X154127000Y-120373000D01*
X154127000Y-116250000D01*
X159111928Y-116250000D01*
X159115000Y-117739250D01*
X159273750Y-117898000D01*
X161373000Y-117898000D01*
X161373000Y-115773750D01*
X161627000Y-115773750D01*
X161627000Y-117898000D01*
X163726250Y-117898000D01*
X163885000Y-117739250D01*
X163888072Y-116250000D01*
X163875812Y-116125518D01*
X163839502Y-116005820D01*
X163780537Y-115895506D01*
X163701185Y-115798815D01*
X163604494Y-115719463D01*
X163494180Y-115660498D01*
X163374482Y-115624188D01*
X163250000Y-115611928D01*
X161785750Y-115615000D01*
X161627000Y-115773750D01*
X161373000Y-115773750D01*
X161214250Y-115615000D01*
X159750000Y-115611928D01*
X159625518Y-115624188D01*
X159505820Y-115660498D01*
X159395506Y-115719463D01*
X159298815Y-115798815D01*
X159219463Y-115895506D01*
X159160498Y-116005820D01*
X159124188Y-116125518D01*
X159111928Y-116250000D01*
X154127000Y-116250000D01*
X154127000Y-111627000D01*
X164869692Y-111627000D01*
X164871183Y-111628817D01*
%TO.N,Net-(L1-Pad2)*%
G36*
X172873000Y-100373000D02*
G01*
X159627000Y-100373000D01*
X159627000Y-99300000D01*
X160111928Y-99300000D01*
X160124188Y-99424482D01*
X160160498Y-99544180D01*
X160219463Y-99654494D01*
X160298815Y-99751185D01*
X160395506Y-99830537D01*
X160505820Y-99889502D01*
X160625518Y-99925812D01*
X160750000Y-99938072D01*
X162214250Y-99935000D01*
X162373000Y-99776250D01*
X162373000Y-97652000D01*
X162627000Y-97652000D01*
X162627000Y-99776250D01*
X162785750Y-99935000D01*
X164250000Y-99938072D01*
X164374482Y-99925812D01*
X164494180Y-99889502D01*
X164604494Y-99830537D01*
X164701185Y-99751185D01*
X164763708Y-99675000D01*
X169611928Y-99675000D01*
X169624188Y-99799482D01*
X169660498Y-99919180D01*
X169719463Y-100029494D01*
X169798815Y-100126185D01*
X169895506Y-100205537D01*
X170005820Y-100264502D01*
X170125518Y-100300812D01*
X170250000Y-100313072D01*
X170726750Y-100310000D01*
X170885500Y-100151250D01*
X170885500Y-98127000D01*
X171139500Y-98127000D01*
X171139500Y-100151250D01*
X171298250Y-100310000D01*
X171775000Y-100313072D01*
X171899482Y-100300812D01*
X172019180Y-100264502D01*
X172129494Y-100205537D01*
X172226185Y-100126185D01*
X172305537Y-100029494D01*
X172364502Y-99919180D01*
X172400812Y-99799482D01*
X172413072Y-99675000D01*
X172410000Y-98285750D01*
X172251250Y-98127000D01*
X171139500Y-98127000D01*
X170885500Y-98127000D01*
X169773750Y-98127000D01*
X169615000Y-98285750D01*
X169611928Y-99675000D01*
X164763708Y-99675000D01*
X164780537Y-99654494D01*
X164839502Y-99544180D01*
X164875812Y-99424482D01*
X164888072Y-99300000D01*
X164885000Y-97810750D01*
X164726250Y-97652000D01*
X162627000Y-97652000D01*
X162373000Y-97652000D01*
X160273750Y-97652000D01*
X160115000Y-97810750D01*
X160111928Y-99300000D01*
X159627000Y-99300000D01*
X159627000Y-95750000D01*
X160111928Y-95750000D01*
X160115000Y-97239250D01*
X160273750Y-97398000D01*
X162373000Y-97398000D01*
X162373000Y-95273750D01*
X162627000Y-95273750D01*
X162627000Y-97398000D01*
X164726250Y-97398000D01*
X164885000Y-97239250D01*
X164886885Y-96325000D01*
X169611928Y-96325000D01*
X169615000Y-97714250D01*
X169773750Y-97873000D01*
X170885500Y-97873000D01*
X170885500Y-95848750D01*
X171139500Y-95848750D01*
X171139500Y-97873000D01*
X172251250Y-97873000D01*
X172410000Y-97714250D01*
X172413072Y-96325000D01*
X172400812Y-96200518D01*
X172364502Y-96080820D01*
X172305537Y-95970506D01*
X172226185Y-95873815D01*
X172129494Y-95794463D01*
X172019180Y-95735498D01*
X171899482Y-95699188D01*
X171775000Y-95686928D01*
X171298250Y-95690000D01*
X171139500Y-95848750D01*
X170885500Y-95848750D01*
X170726750Y-95690000D01*
X170250000Y-95686928D01*
X170125518Y-95699188D01*
X170005820Y-95735498D01*
X169895506Y-95794463D01*
X169798815Y-95873815D01*
X169719463Y-95970506D01*
X169660498Y-96080820D01*
X169624188Y-96200518D01*
X169611928Y-96325000D01*
X164886885Y-96325000D01*
X164888072Y-95750000D01*
X164875812Y-95625518D01*
X164839502Y-95505820D01*
X164780537Y-95395506D01*
X164701185Y-95298815D01*
X164604494Y-95219463D01*
X164494180Y-95160498D01*
X164374482Y-95124188D01*
X164250000Y-95111928D01*
X162785750Y-95115000D01*
X162627000Y-95273750D01*
X162373000Y-95273750D01*
X162214250Y-95115000D01*
X160750000Y-95111928D01*
X160625518Y-95124188D01*
X160505820Y-95160498D01*
X160395506Y-95219463D01*
X160298815Y-95298815D01*
X160219463Y-95395506D01*
X160160498Y-95505820D01*
X160124188Y-95625518D01*
X160111928Y-95750000D01*
X159627000Y-95750000D01*
X159627000Y-94627000D01*
X172873000Y-94627000D01*
X172873000Y-100373000D01*
G37*
X172873000Y-100373000D02*
X159627000Y-100373000D01*
X159627000Y-99300000D01*
X160111928Y-99300000D01*
X160124188Y-99424482D01*
X160160498Y-99544180D01*
X160219463Y-99654494D01*
X160298815Y-99751185D01*
X160395506Y-99830537D01*
X160505820Y-99889502D01*
X160625518Y-99925812D01*
X160750000Y-99938072D01*
X162214250Y-99935000D01*
X162373000Y-99776250D01*
X162373000Y-97652000D01*
X162627000Y-97652000D01*
X162627000Y-99776250D01*
X162785750Y-99935000D01*
X164250000Y-99938072D01*
X164374482Y-99925812D01*
X164494180Y-99889502D01*
X164604494Y-99830537D01*
X164701185Y-99751185D01*
X164763708Y-99675000D01*
X169611928Y-99675000D01*
X169624188Y-99799482D01*
X169660498Y-99919180D01*
X169719463Y-100029494D01*
X169798815Y-100126185D01*
X169895506Y-100205537D01*
X170005820Y-100264502D01*
X170125518Y-100300812D01*
X170250000Y-100313072D01*
X170726750Y-100310000D01*
X170885500Y-100151250D01*
X170885500Y-98127000D01*
X171139500Y-98127000D01*
X171139500Y-100151250D01*
X171298250Y-100310000D01*
X171775000Y-100313072D01*
X171899482Y-100300812D01*
X172019180Y-100264502D01*
X172129494Y-100205537D01*
X172226185Y-100126185D01*
X172305537Y-100029494D01*
X172364502Y-99919180D01*
X172400812Y-99799482D01*
X172413072Y-99675000D01*
X172410000Y-98285750D01*
X172251250Y-98127000D01*
X171139500Y-98127000D01*
X170885500Y-98127000D01*
X169773750Y-98127000D01*
X169615000Y-98285750D01*
X169611928Y-99675000D01*
X164763708Y-99675000D01*
X164780537Y-99654494D01*
X164839502Y-99544180D01*
X164875812Y-99424482D01*
X164888072Y-99300000D01*
X164885000Y-97810750D01*
X164726250Y-97652000D01*
X162627000Y-97652000D01*
X162373000Y-97652000D01*
X160273750Y-97652000D01*
X160115000Y-97810750D01*
X160111928Y-99300000D01*
X159627000Y-99300000D01*
X159627000Y-95750000D01*
X160111928Y-95750000D01*
X160115000Y-97239250D01*
X160273750Y-97398000D01*
X162373000Y-97398000D01*
X162373000Y-95273750D01*
X162627000Y-95273750D01*
X162627000Y-97398000D01*
X164726250Y-97398000D01*
X164885000Y-97239250D01*
X164886885Y-96325000D01*
X169611928Y-96325000D01*
X169615000Y-97714250D01*
X169773750Y-97873000D01*
X170885500Y-97873000D01*
X170885500Y-95848750D01*
X171139500Y-95848750D01*
X171139500Y-97873000D01*
X172251250Y-97873000D01*
X172410000Y-97714250D01*
X172413072Y-96325000D01*
X172400812Y-96200518D01*
X172364502Y-96080820D01*
X172305537Y-95970506D01*
X172226185Y-95873815D01*
X172129494Y-95794463D01*
X172019180Y-95735498D01*
X171899482Y-95699188D01*
X171775000Y-95686928D01*
X171298250Y-95690000D01*
X171139500Y-95848750D01*
X170885500Y-95848750D01*
X170726750Y-95690000D01*
X170250000Y-95686928D01*
X170125518Y-95699188D01*
X170005820Y-95735498D01*
X169895506Y-95794463D01*
X169798815Y-95873815D01*
X169719463Y-95970506D01*
X169660498Y-96080820D01*
X169624188Y-96200518D01*
X169611928Y-96325000D01*
X164886885Y-96325000D01*
X164888072Y-95750000D01*
X164875812Y-95625518D01*
X164839502Y-95505820D01*
X164780537Y-95395506D01*
X164701185Y-95298815D01*
X164604494Y-95219463D01*
X164494180Y-95160498D01*
X164374482Y-95124188D01*
X164250000Y-95111928D01*
X162785750Y-95115000D01*
X162627000Y-95273750D01*
X162373000Y-95273750D01*
X162214250Y-95115000D01*
X160750000Y-95111928D01*
X160625518Y-95124188D01*
X160505820Y-95160498D01*
X160395506Y-95219463D01*
X160298815Y-95298815D01*
X160219463Y-95395506D01*
X160160498Y-95505820D01*
X160124188Y-95625518D01*
X160111928Y-95750000D01*
X159627000Y-95750000D01*
X159627000Y-94627000D01*
X172873000Y-94627000D01*
X172873000Y-100373000D01*
%TO.N,Net-(L2-Pad2)*%
G36*
X171873000Y-130373000D02*
G01*
X158627000Y-130373000D01*
X158627000Y-128750000D01*
X159111928Y-128750000D01*
X159124188Y-128874482D01*
X159160498Y-128994180D01*
X159219463Y-129104494D01*
X159298815Y-129201185D01*
X159395506Y-129280537D01*
X159505820Y-129339502D01*
X159625518Y-129375812D01*
X159750000Y-129388072D01*
X161214250Y-129385000D01*
X161373000Y-129226250D01*
X161373000Y-127102000D01*
X161627000Y-127102000D01*
X161627000Y-129226250D01*
X161785750Y-129385000D01*
X163250000Y-129388072D01*
X163374482Y-129375812D01*
X163494180Y-129339502D01*
X163604494Y-129280537D01*
X163701185Y-129201185D01*
X163780537Y-129104494D01*
X163839502Y-128994180D01*
X163875812Y-128874482D01*
X163888072Y-128750000D01*
X163887918Y-128675000D01*
X168611928Y-128675000D01*
X168624188Y-128799482D01*
X168660498Y-128919180D01*
X168719463Y-129029494D01*
X168798815Y-129126185D01*
X168895506Y-129205537D01*
X169005820Y-129264502D01*
X169125518Y-129300812D01*
X169250000Y-129313072D01*
X169726750Y-129310000D01*
X169885500Y-129151250D01*
X169885500Y-127127000D01*
X170139500Y-127127000D01*
X170139500Y-129151250D01*
X170298250Y-129310000D01*
X170775000Y-129313072D01*
X170899482Y-129300812D01*
X171019180Y-129264502D01*
X171129494Y-129205537D01*
X171226185Y-129126185D01*
X171305537Y-129029494D01*
X171364502Y-128919180D01*
X171400812Y-128799482D01*
X171413072Y-128675000D01*
X171410000Y-127285750D01*
X171251250Y-127127000D01*
X170139500Y-127127000D01*
X169885500Y-127127000D01*
X168773750Y-127127000D01*
X168615000Y-127285750D01*
X168611928Y-128675000D01*
X163887918Y-128675000D01*
X163885000Y-127260750D01*
X163726250Y-127102000D01*
X161627000Y-127102000D01*
X161373000Y-127102000D01*
X159273750Y-127102000D01*
X159115000Y-127260750D01*
X159111928Y-128750000D01*
X158627000Y-128750000D01*
X158627000Y-125200000D01*
X159111928Y-125200000D01*
X159115000Y-126689250D01*
X159273750Y-126848000D01*
X161373000Y-126848000D01*
X161373000Y-124723750D01*
X161627000Y-124723750D01*
X161627000Y-126848000D01*
X163726250Y-126848000D01*
X163885000Y-126689250D01*
X163887814Y-125325000D01*
X168611928Y-125325000D01*
X168615000Y-126714250D01*
X168773750Y-126873000D01*
X169885500Y-126873000D01*
X169885500Y-124848750D01*
X170139500Y-124848750D01*
X170139500Y-126873000D01*
X171251250Y-126873000D01*
X171410000Y-126714250D01*
X171413072Y-125325000D01*
X171400812Y-125200518D01*
X171364502Y-125080820D01*
X171305537Y-124970506D01*
X171226185Y-124873815D01*
X171129494Y-124794463D01*
X171019180Y-124735498D01*
X170899482Y-124699188D01*
X170775000Y-124686928D01*
X170298250Y-124690000D01*
X170139500Y-124848750D01*
X169885500Y-124848750D01*
X169726750Y-124690000D01*
X169250000Y-124686928D01*
X169125518Y-124699188D01*
X169005820Y-124735498D01*
X168895506Y-124794463D01*
X168798815Y-124873815D01*
X168719463Y-124970506D01*
X168660498Y-125080820D01*
X168624188Y-125200518D01*
X168611928Y-125325000D01*
X163887814Y-125325000D01*
X163888072Y-125200000D01*
X163875812Y-125075518D01*
X163839502Y-124955820D01*
X163780537Y-124845506D01*
X163701185Y-124748815D01*
X163604494Y-124669463D01*
X163494180Y-124610498D01*
X163374482Y-124574188D01*
X163250000Y-124561928D01*
X161785750Y-124565000D01*
X161627000Y-124723750D01*
X161373000Y-124723750D01*
X161214250Y-124565000D01*
X159750000Y-124561928D01*
X159625518Y-124574188D01*
X159505820Y-124610498D01*
X159395506Y-124669463D01*
X159298815Y-124748815D01*
X159219463Y-124845506D01*
X159160498Y-124955820D01*
X159124188Y-125075518D01*
X159111928Y-125200000D01*
X158627000Y-125200000D01*
X158627000Y-124127000D01*
X171873000Y-124127000D01*
X171873000Y-130373000D01*
G37*
X171873000Y-130373000D02*
X158627000Y-130373000D01*
X158627000Y-128750000D01*
X159111928Y-128750000D01*
X159124188Y-128874482D01*
X159160498Y-128994180D01*
X159219463Y-129104494D01*
X159298815Y-129201185D01*
X159395506Y-129280537D01*
X159505820Y-129339502D01*
X159625518Y-129375812D01*
X159750000Y-129388072D01*
X161214250Y-129385000D01*
X161373000Y-129226250D01*
X161373000Y-127102000D01*
X161627000Y-127102000D01*
X161627000Y-129226250D01*
X161785750Y-129385000D01*
X163250000Y-129388072D01*
X163374482Y-129375812D01*
X163494180Y-129339502D01*
X163604494Y-129280537D01*
X163701185Y-129201185D01*
X163780537Y-129104494D01*
X163839502Y-128994180D01*
X163875812Y-128874482D01*
X163888072Y-128750000D01*
X163887918Y-128675000D01*
X168611928Y-128675000D01*
X168624188Y-128799482D01*
X168660498Y-128919180D01*
X168719463Y-129029494D01*
X168798815Y-129126185D01*
X168895506Y-129205537D01*
X169005820Y-129264502D01*
X169125518Y-129300812D01*
X169250000Y-129313072D01*
X169726750Y-129310000D01*
X169885500Y-129151250D01*
X169885500Y-127127000D01*
X170139500Y-127127000D01*
X170139500Y-129151250D01*
X170298250Y-129310000D01*
X170775000Y-129313072D01*
X170899482Y-129300812D01*
X171019180Y-129264502D01*
X171129494Y-129205537D01*
X171226185Y-129126185D01*
X171305537Y-129029494D01*
X171364502Y-128919180D01*
X171400812Y-128799482D01*
X171413072Y-128675000D01*
X171410000Y-127285750D01*
X171251250Y-127127000D01*
X170139500Y-127127000D01*
X169885500Y-127127000D01*
X168773750Y-127127000D01*
X168615000Y-127285750D01*
X168611928Y-128675000D01*
X163887918Y-128675000D01*
X163885000Y-127260750D01*
X163726250Y-127102000D01*
X161627000Y-127102000D01*
X161373000Y-127102000D01*
X159273750Y-127102000D01*
X159115000Y-127260750D01*
X159111928Y-128750000D01*
X158627000Y-128750000D01*
X158627000Y-125200000D01*
X159111928Y-125200000D01*
X159115000Y-126689250D01*
X159273750Y-126848000D01*
X161373000Y-126848000D01*
X161373000Y-124723750D01*
X161627000Y-124723750D01*
X161627000Y-126848000D01*
X163726250Y-126848000D01*
X163885000Y-126689250D01*
X163887814Y-125325000D01*
X168611928Y-125325000D01*
X168615000Y-126714250D01*
X168773750Y-126873000D01*
X169885500Y-126873000D01*
X169885500Y-124848750D01*
X170139500Y-124848750D01*
X170139500Y-126873000D01*
X171251250Y-126873000D01*
X171410000Y-126714250D01*
X171413072Y-125325000D01*
X171400812Y-125200518D01*
X171364502Y-125080820D01*
X171305537Y-124970506D01*
X171226185Y-124873815D01*
X171129494Y-124794463D01*
X171019180Y-124735498D01*
X170899482Y-124699188D01*
X170775000Y-124686928D01*
X170298250Y-124690000D01*
X170139500Y-124848750D01*
X169885500Y-124848750D01*
X169726750Y-124690000D01*
X169250000Y-124686928D01*
X169125518Y-124699188D01*
X169005820Y-124735498D01*
X168895506Y-124794463D01*
X168798815Y-124873815D01*
X168719463Y-124970506D01*
X168660498Y-125080820D01*
X168624188Y-125200518D01*
X168611928Y-125325000D01*
X163887814Y-125325000D01*
X163888072Y-125200000D01*
X163875812Y-125075518D01*
X163839502Y-124955820D01*
X163780537Y-124845506D01*
X163701185Y-124748815D01*
X163604494Y-124669463D01*
X163494180Y-124610498D01*
X163374482Y-124574188D01*
X163250000Y-124561928D01*
X161785750Y-124565000D01*
X161627000Y-124723750D01*
X161373000Y-124723750D01*
X161214250Y-124565000D01*
X159750000Y-124561928D01*
X159625518Y-124574188D01*
X159505820Y-124610498D01*
X159395506Y-124669463D01*
X159298815Y-124748815D01*
X159219463Y-124845506D01*
X159160498Y-124955820D01*
X159124188Y-125075518D01*
X159111928Y-125200000D01*
X158627000Y-125200000D01*
X158627000Y-124127000D01*
X171873000Y-124127000D01*
X171873000Y-130373000D01*
%TO.N,/VO1*%
G36*
X202155820Y-94650498D02*
G01*
X202045506Y-94709463D01*
X201948815Y-94788815D01*
X201869463Y-94885506D01*
X201810498Y-94995820D01*
X201774188Y-95115518D01*
X201761928Y-95240000D01*
X201765000Y-97704250D01*
X201923750Y-97863000D01*
X203373000Y-97863000D01*
X203373000Y-97843000D01*
X203627000Y-97843000D01*
X203627000Y-97863000D01*
X205076250Y-97863000D01*
X205235000Y-97704250D01*
X205238072Y-95240000D01*
X205225812Y-95115518D01*
X205189502Y-94995820D01*
X205130537Y-94885506D01*
X205051185Y-94788815D01*
X204954494Y-94709463D01*
X204844180Y-94650498D01*
X204766717Y-94627000D01*
X211373000Y-94627000D01*
X211373000Y-105873000D01*
X192096959Y-105873000D01*
X192095000Y-105385750D01*
X191936250Y-105227000D01*
X190537000Y-105227000D01*
X190537000Y-105247000D01*
X190283000Y-105247000D01*
X190283000Y-105227000D01*
X188883750Y-105227000D01*
X188725000Y-105385750D01*
X188723041Y-105873000D01*
X175127000Y-105873000D01*
X175127000Y-105300000D01*
X176656928Y-105300000D01*
X176660000Y-105539250D01*
X176818750Y-105698000D01*
X177643000Y-105698000D01*
X177643000Y-104823750D01*
X177897000Y-104823750D01*
X177897000Y-105698000D01*
X178721250Y-105698000D01*
X178880000Y-105539250D01*
X178883072Y-105300000D01*
X181986928Y-105300000D01*
X181990000Y-105539250D01*
X182148750Y-105698000D01*
X182973000Y-105698000D01*
X182973000Y-104823750D01*
X183227000Y-104823750D01*
X183227000Y-105698000D01*
X184051250Y-105698000D01*
X184210000Y-105539250D01*
X184213072Y-105300000D01*
X184200812Y-105175518D01*
X184164502Y-105055820D01*
X184105537Y-104945506D01*
X184026185Y-104848815D01*
X183929494Y-104769463D01*
X183819180Y-104710498D01*
X183699482Y-104674188D01*
X183575000Y-104661928D01*
X183385750Y-104665000D01*
X183227000Y-104823750D01*
X182973000Y-104823750D01*
X182814250Y-104665000D01*
X182625000Y-104661928D01*
X182500518Y-104674188D01*
X182380820Y-104710498D01*
X182270506Y-104769463D01*
X182173815Y-104848815D01*
X182094463Y-104945506D01*
X182035498Y-105055820D01*
X181999188Y-105175518D01*
X181986928Y-105300000D01*
X178883072Y-105300000D01*
X178870812Y-105175518D01*
X178834502Y-105055820D01*
X178775537Y-104945506D01*
X178696185Y-104848815D01*
X178599494Y-104769463D01*
X178489180Y-104710498D01*
X178369482Y-104674188D01*
X178245000Y-104661928D01*
X178055750Y-104665000D01*
X177897000Y-104823750D01*
X177643000Y-104823750D01*
X177484250Y-104665000D01*
X177295000Y-104661928D01*
X177170518Y-104674188D01*
X177050820Y-104710498D01*
X176940506Y-104769463D01*
X176843815Y-104848815D01*
X176764463Y-104945506D01*
X176705498Y-105055820D01*
X176669188Y-105175518D01*
X176656928Y-105300000D01*
X175127000Y-105300000D01*
X175127000Y-104050000D01*
X188721928Y-104050000D01*
X188725000Y-104814250D01*
X188883750Y-104973000D01*
X190283000Y-104973000D01*
X190283000Y-103573750D01*
X190537000Y-103573750D01*
X190537000Y-104973000D01*
X191936250Y-104973000D01*
X192095000Y-104814250D01*
X192098072Y-104050000D01*
X192085812Y-103925518D01*
X192049502Y-103805820D01*
X191990537Y-103695506D01*
X191911185Y-103598815D01*
X191814494Y-103519463D01*
X191704180Y-103460498D01*
X191584482Y-103424188D01*
X191460000Y-103411928D01*
X190695750Y-103415000D01*
X190537000Y-103573750D01*
X190283000Y-103573750D01*
X190124250Y-103415000D01*
X189360000Y-103411928D01*
X189235518Y-103424188D01*
X189115820Y-103460498D01*
X189005506Y-103519463D01*
X188908815Y-103598815D01*
X188829463Y-103695506D01*
X188770498Y-103805820D01*
X188734188Y-103925518D01*
X188721928Y-104050000D01*
X175127000Y-104050000D01*
X175127000Y-100800000D01*
X185261928Y-100800000D01*
X185274188Y-100924482D01*
X185310498Y-101044180D01*
X185369463Y-101154494D01*
X185448815Y-101251185D01*
X185545506Y-101330537D01*
X185655820Y-101389502D01*
X185775518Y-101425812D01*
X185900000Y-101438072D01*
X186714250Y-101435000D01*
X186873000Y-101276250D01*
X186873000Y-98177000D01*
X187127000Y-98177000D01*
X187127000Y-101276250D01*
X187285750Y-101435000D01*
X188100000Y-101438072D01*
X188224482Y-101425812D01*
X188344180Y-101389502D01*
X188454494Y-101330537D01*
X188551185Y-101251185D01*
X188630537Y-101154494D01*
X188689502Y-101044180D01*
X188725812Y-100924482D01*
X188738072Y-100800000D01*
X188737998Y-100740000D01*
X201761928Y-100740000D01*
X201774188Y-100864482D01*
X201810498Y-100984180D01*
X201869463Y-101094494D01*
X201948815Y-101191185D01*
X202045506Y-101270537D01*
X202155820Y-101329502D01*
X202275518Y-101365812D01*
X202400000Y-101378072D01*
X203214250Y-101375000D01*
X203373000Y-101216250D01*
X203373000Y-98117000D01*
X203627000Y-98117000D01*
X203627000Y-101216250D01*
X203785750Y-101375000D01*
X204600000Y-101378072D01*
X204724482Y-101365812D01*
X204844180Y-101329502D01*
X204954494Y-101270537D01*
X205051185Y-101191185D01*
X205130537Y-101094494D01*
X205189502Y-100984180D01*
X205225812Y-100864482D01*
X205238072Y-100740000D01*
X205235000Y-98275750D01*
X205076250Y-98117000D01*
X203627000Y-98117000D01*
X203373000Y-98117000D01*
X201923750Y-98117000D01*
X201765000Y-98275750D01*
X201761928Y-100740000D01*
X188737998Y-100740000D01*
X188735000Y-98335750D01*
X188576250Y-98177000D01*
X187127000Y-98177000D01*
X186873000Y-98177000D01*
X185423750Y-98177000D01*
X185265000Y-98335750D01*
X185261928Y-100800000D01*
X175127000Y-100800000D01*
X175127000Y-99675000D01*
X175586928Y-99675000D01*
X175599188Y-99799482D01*
X175635498Y-99919180D01*
X175694463Y-100029494D01*
X175773815Y-100126185D01*
X175870506Y-100205537D01*
X175980820Y-100264502D01*
X176100518Y-100300812D01*
X176225000Y-100313072D01*
X176701750Y-100310000D01*
X176860500Y-100151250D01*
X176860500Y-98127000D01*
X177114500Y-98127000D01*
X177114500Y-100151250D01*
X177273250Y-100310000D01*
X177750000Y-100313072D01*
X177874482Y-100300812D01*
X177994180Y-100264502D01*
X178104494Y-100205537D01*
X178201185Y-100126185D01*
X178280537Y-100029494D01*
X178339502Y-99919180D01*
X178375812Y-99799482D01*
X178388072Y-99675000D01*
X178385000Y-98285750D01*
X178226250Y-98127000D01*
X177114500Y-98127000D01*
X176860500Y-98127000D01*
X175748750Y-98127000D01*
X175590000Y-98285750D01*
X175586928Y-99675000D01*
X175127000Y-99675000D01*
X175127000Y-96325000D01*
X175586928Y-96325000D01*
X175590000Y-97714250D01*
X175748750Y-97873000D01*
X176860500Y-97873000D01*
X176860500Y-95848750D01*
X177114500Y-95848750D01*
X177114500Y-97873000D01*
X178226250Y-97873000D01*
X178385000Y-97714250D01*
X178388072Y-96325000D01*
X178375812Y-96200518D01*
X178339502Y-96080820D01*
X178280537Y-95970506D01*
X178201185Y-95873815D01*
X178104494Y-95794463D01*
X177994180Y-95735498D01*
X177874482Y-95699188D01*
X177750000Y-95686928D01*
X177273250Y-95690000D01*
X177114500Y-95848750D01*
X176860500Y-95848750D01*
X176701750Y-95690000D01*
X176225000Y-95686928D01*
X176100518Y-95699188D01*
X175980820Y-95735498D01*
X175870506Y-95794463D01*
X175773815Y-95873815D01*
X175694463Y-95970506D01*
X175635498Y-96080820D01*
X175599188Y-96200518D01*
X175586928Y-96325000D01*
X175127000Y-96325000D01*
X175127000Y-95300000D01*
X185261928Y-95300000D01*
X185265000Y-97764250D01*
X185423750Y-97923000D01*
X186873000Y-97923000D01*
X186873000Y-94823750D01*
X187127000Y-94823750D01*
X187127000Y-97923000D01*
X188576250Y-97923000D01*
X188735000Y-97764250D01*
X188738072Y-95300000D01*
X188725812Y-95175518D01*
X188689502Y-95055820D01*
X188630537Y-94945506D01*
X188551185Y-94848815D01*
X188454494Y-94769463D01*
X188344180Y-94710498D01*
X188224482Y-94674188D01*
X188100000Y-94661928D01*
X187285750Y-94665000D01*
X187127000Y-94823750D01*
X186873000Y-94823750D01*
X186714250Y-94665000D01*
X185900000Y-94661928D01*
X185775518Y-94674188D01*
X185655820Y-94710498D01*
X185545506Y-94769463D01*
X185448815Y-94848815D01*
X185369463Y-94945506D01*
X185310498Y-95055820D01*
X185274188Y-95175518D01*
X185261928Y-95300000D01*
X175127000Y-95300000D01*
X175127000Y-94627000D01*
X202233283Y-94627000D01*
X202155820Y-94650498D01*
G37*
X202155820Y-94650498D02*
X202045506Y-94709463D01*
X201948815Y-94788815D01*
X201869463Y-94885506D01*
X201810498Y-94995820D01*
X201774188Y-95115518D01*
X201761928Y-95240000D01*
X201765000Y-97704250D01*
X201923750Y-97863000D01*
X203373000Y-97863000D01*
X203373000Y-97843000D01*
X203627000Y-97843000D01*
X203627000Y-97863000D01*
X205076250Y-97863000D01*
X205235000Y-97704250D01*
X205238072Y-95240000D01*
X205225812Y-95115518D01*
X205189502Y-94995820D01*
X205130537Y-94885506D01*
X205051185Y-94788815D01*
X204954494Y-94709463D01*
X204844180Y-94650498D01*
X204766717Y-94627000D01*
X211373000Y-94627000D01*
X211373000Y-105873000D01*
X192096959Y-105873000D01*
X192095000Y-105385750D01*
X191936250Y-105227000D01*
X190537000Y-105227000D01*
X190537000Y-105247000D01*
X190283000Y-105247000D01*
X190283000Y-105227000D01*
X188883750Y-105227000D01*
X188725000Y-105385750D01*
X188723041Y-105873000D01*
X175127000Y-105873000D01*
X175127000Y-105300000D01*
X176656928Y-105300000D01*
X176660000Y-105539250D01*
X176818750Y-105698000D01*
X177643000Y-105698000D01*
X177643000Y-104823750D01*
X177897000Y-104823750D01*
X177897000Y-105698000D01*
X178721250Y-105698000D01*
X178880000Y-105539250D01*
X178883072Y-105300000D01*
X181986928Y-105300000D01*
X181990000Y-105539250D01*
X182148750Y-105698000D01*
X182973000Y-105698000D01*
X182973000Y-104823750D01*
X183227000Y-104823750D01*
X183227000Y-105698000D01*
X184051250Y-105698000D01*
X184210000Y-105539250D01*
X184213072Y-105300000D01*
X184200812Y-105175518D01*
X184164502Y-105055820D01*
X184105537Y-104945506D01*
X184026185Y-104848815D01*
X183929494Y-104769463D01*
X183819180Y-104710498D01*
X183699482Y-104674188D01*
X183575000Y-104661928D01*
X183385750Y-104665000D01*
X183227000Y-104823750D01*
X182973000Y-104823750D01*
X182814250Y-104665000D01*
X182625000Y-104661928D01*
X182500518Y-104674188D01*
X182380820Y-104710498D01*
X182270506Y-104769463D01*
X182173815Y-104848815D01*
X182094463Y-104945506D01*
X182035498Y-105055820D01*
X181999188Y-105175518D01*
X181986928Y-105300000D01*
X178883072Y-105300000D01*
X178870812Y-105175518D01*
X178834502Y-105055820D01*
X178775537Y-104945506D01*
X178696185Y-104848815D01*
X178599494Y-104769463D01*
X178489180Y-104710498D01*
X178369482Y-104674188D01*
X178245000Y-104661928D01*
X178055750Y-104665000D01*
X177897000Y-104823750D01*
X177643000Y-104823750D01*
X177484250Y-104665000D01*
X177295000Y-104661928D01*
X177170518Y-104674188D01*
X177050820Y-104710498D01*
X176940506Y-104769463D01*
X176843815Y-104848815D01*
X176764463Y-104945506D01*
X176705498Y-105055820D01*
X176669188Y-105175518D01*
X176656928Y-105300000D01*
X175127000Y-105300000D01*
X175127000Y-104050000D01*
X188721928Y-104050000D01*
X188725000Y-104814250D01*
X188883750Y-104973000D01*
X190283000Y-104973000D01*
X190283000Y-103573750D01*
X190537000Y-103573750D01*
X190537000Y-104973000D01*
X191936250Y-104973000D01*
X192095000Y-104814250D01*
X192098072Y-104050000D01*
X192085812Y-103925518D01*
X192049502Y-103805820D01*
X191990537Y-103695506D01*
X191911185Y-103598815D01*
X191814494Y-103519463D01*
X191704180Y-103460498D01*
X191584482Y-103424188D01*
X191460000Y-103411928D01*
X190695750Y-103415000D01*
X190537000Y-103573750D01*
X190283000Y-103573750D01*
X190124250Y-103415000D01*
X189360000Y-103411928D01*
X189235518Y-103424188D01*
X189115820Y-103460498D01*
X189005506Y-103519463D01*
X188908815Y-103598815D01*
X188829463Y-103695506D01*
X188770498Y-103805820D01*
X188734188Y-103925518D01*
X188721928Y-104050000D01*
X175127000Y-104050000D01*
X175127000Y-100800000D01*
X185261928Y-100800000D01*
X185274188Y-100924482D01*
X185310498Y-101044180D01*
X185369463Y-101154494D01*
X185448815Y-101251185D01*
X185545506Y-101330537D01*
X185655820Y-101389502D01*
X185775518Y-101425812D01*
X185900000Y-101438072D01*
X186714250Y-101435000D01*
X186873000Y-101276250D01*
X186873000Y-98177000D01*
X187127000Y-98177000D01*
X187127000Y-101276250D01*
X187285750Y-101435000D01*
X188100000Y-101438072D01*
X188224482Y-101425812D01*
X188344180Y-101389502D01*
X188454494Y-101330537D01*
X188551185Y-101251185D01*
X188630537Y-101154494D01*
X188689502Y-101044180D01*
X188725812Y-100924482D01*
X188738072Y-100800000D01*
X188737998Y-100740000D01*
X201761928Y-100740000D01*
X201774188Y-100864482D01*
X201810498Y-100984180D01*
X201869463Y-101094494D01*
X201948815Y-101191185D01*
X202045506Y-101270537D01*
X202155820Y-101329502D01*
X202275518Y-101365812D01*
X202400000Y-101378072D01*
X203214250Y-101375000D01*
X203373000Y-101216250D01*
X203373000Y-98117000D01*
X203627000Y-98117000D01*
X203627000Y-101216250D01*
X203785750Y-101375000D01*
X204600000Y-101378072D01*
X204724482Y-101365812D01*
X204844180Y-101329502D01*
X204954494Y-101270537D01*
X205051185Y-101191185D01*
X205130537Y-101094494D01*
X205189502Y-100984180D01*
X205225812Y-100864482D01*
X205238072Y-100740000D01*
X205235000Y-98275750D01*
X205076250Y-98117000D01*
X203627000Y-98117000D01*
X203373000Y-98117000D01*
X201923750Y-98117000D01*
X201765000Y-98275750D01*
X201761928Y-100740000D01*
X188737998Y-100740000D01*
X188735000Y-98335750D01*
X188576250Y-98177000D01*
X187127000Y-98177000D01*
X186873000Y-98177000D01*
X185423750Y-98177000D01*
X185265000Y-98335750D01*
X185261928Y-100800000D01*
X175127000Y-100800000D01*
X175127000Y-99675000D01*
X175586928Y-99675000D01*
X175599188Y-99799482D01*
X175635498Y-99919180D01*
X175694463Y-100029494D01*
X175773815Y-100126185D01*
X175870506Y-100205537D01*
X175980820Y-100264502D01*
X176100518Y-100300812D01*
X176225000Y-100313072D01*
X176701750Y-100310000D01*
X176860500Y-100151250D01*
X176860500Y-98127000D01*
X177114500Y-98127000D01*
X177114500Y-100151250D01*
X177273250Y-100310000D01*
X177750000Y-100313072D01*
X177874482Y-100300812D01*
X177994180Y-100264502D01*
X178104494Y-100205537D01*
X178201185Y-100126185D01*
X178280537Y-100029494D01*
X178339502Y-99919180D01*
X178375812Y-99799482D01*
X178388072Y-99675000D01*
X178385000Y-98285750D01*
X178226250Y-98127000D01*
X177114500Y-98127000D01*
X176860500Y-98127000D01*
X175748750Y-98127000D01*
X175590000Y-98285750D01*
X175586928Y-99675000D01*
X175127000Y-99675000D01*
X175127000Y-96325000D01*
X175586928Y-96325000D01*
X175590000Y-97714250D01*
X175748750Y-97873000D01*
X176860500Y-97873000D01*
X176860500Y-95848750D01*
X177114500Y-95848750D01*
X177114500Y-97873000D01*
X178226250Y-97873000D01*
X178385000Y-97714250D01*
X178388072Y-96325000D01*
X178375812Y-96200518D01*
X178339502Y-96080820D01*
X178280537Y-95970506D01*
X178201185Y-95873815D01*
X178104494Y-95794463D01*
X177994180Y-95735498D01*
X177874482Y-95699188D01*
X177750000Y-95686928D01*
X177273250Y-95690000D01*
X177114500Y-95848750D01*
X176860500Y-95848750D01*
X176701750Y-95690000D01*
X176225000Y-95686928D01*
X176100518Y-95699188D01*
X175980820Y-95735498D01*
X175870506Y-95794463D01*
X175773815Y-95873815D01*
X175694463Y-95970506D01*
X175635498Y-96080820D01*
X175599188Y-96200518D01*
X175586928Y-96325000D01*
X175127000Y-96325000D01*
X175127000Y-95300000D01*
X185261928Y-95300000D01*
X185265000Y-97764250D01*
X185423750Y-97923000D01*
X186873000Y-97923000D01*
X186873000Y-94823750D01*
X187127000Y-94823750D01*
X187127000Y-97923000D01*
X188576250Y-97923000D01*
X188735000Y-97764250D01*
X188738072Y-95300000D01*
X188725812Y-95175518D01*
X188689502Y-95055820D01*
X188630537Y-94945506D01*
X188551185Y-94848815D01*
X188454494Y-94769463D01*
X188344180Y-94710498D01*
X188224482Y-94674188D01*
X188100000Y-94661928D01*
X187285750Y-94665000D01*
X187127000Y-94823750D01*
X186873000Y-94823750D01*
X186714250Y-94665000D01*
X185900000Y-94661928D01*
X185775518Y-94674188D01*
X185655820Y-94710498D01*
X185545506Y-94769463D01*
X185448815Y-94848815D01*
X185369463Y-94945506D01*
X185310498Y-95055820D01*
X185274188Y-95175518D01*
X185261928Y-95300000D01*
X175127000Y-95300000D01*
X175127000Y-94627000D01*
X202233283Y-94627000D01*
X202155820Y-94650498D01*
%TO.N,/VO2*%
G36*
X177100000Y-116299250D02*
G01*
X177258750Y-116458000D01*
X178083000Y-116458000D01*
X178083000Y-116438000D01*
X178337000Y-116438000D01*
X178337000Y-116458000D01*
X179161250Y-116458000D01*
X179320000Y-116299250D01*
X179322212Y-116127000D01*
X182217917Y-116127000D01*
X182220000Y-116289250D01*
X182378750Y-116448000D01*
X183203000Y-116448000D01*
X183203000Y-116428000D01*
X183457000Y-116428000D01*
X183457000Y-116448000D01*
X184281250Y-116448000D01*
X184440000Y-116289250D01*
X184442083Y-116127000D01*
X188928133Y-116127000D01*
X188921928Y-116190000D01*
X188925000Y-116954250D01*
X189083750Y-117113000D01*
X190483000Y-117113000D01*
X190483000Y-117093000D01*
X190737000Y-117093000D01*
X190737000Y-117113000D01*
X192136250Y-117113000D01*
X192295000Y-116954250D01*
X192298072Y-116190000D01*
X192291867Y-116127000D01*
X211373000Y-116127000D01*
X211373000Y-129873000D01*
X205711094Y-129873000D01*
X205725812Y-129824482D01*
X205738072Y-129700000D01*
X205735000Y-127235750D01*
X205576250Y-127077000D01*
X204127000Y-127077000D01*
X204127000Y-127097000D01*
X203873000Y-127097000D01*
X203873000Y-127077000D01*
X202423750Y-127077000D01*
X202265000Y-127235750D01*
X202261928Y-129700000D01*
X202274188Y-129824482D01*
X202288906Y-129873000D01*
X188211094Y-129873000D01*
X188225812Y-129824482D01*
X188238072Y-129700000D01*
X188235000Y-127235750D01*
X188076250Y-127077000D01*
X186627000Y-127077000D01*
X186627000Y-127097000D01*
X186373000Y-127097000D01*
X186373000Y-127077000D01*
X184923750Y-127077000D01*
X184765000Y-127235750D01*
X184761928Y-129700000D01*
X184774188Y-129824482D01*
X184788906Y-129873000D01*
X174127000Y-129873000D01*
X174127000Y-128675000D01*
X174586928Y-128675000D01*
X174599188Y-128799482D01*
X174635498Y-128919180D01*
X174694463Y-129029494D01*
X174773815Y-129126185D01*
X174870506Y-129205537D01*
X174980820Y-129264502D01*
X175100518Y-129300812D01*
X175225000Y-129313072D01*
X175701750Y-129310000D01*
X175860500Y-129151250D01*
X175860500Y-127127000D01*
X176114500Y-127127000D01*
X176114500Y-129151250D01*
X176273250Y-129310000D01*
X176750000Y-129313072D01*
X176874482Y-129300812D01*
X176994180Y-129264502D01*
X177104494Y-129205537D01*
X177201185Y-129126185D01*
X177280537Y-129029494D01*
X177339502Y-128919180D01*
X177375812Y-128799482D01*
X177388072Y-128675000D01*
X177385000Y-127285750D01*
X177226250Y-127127000D01*
X176114500Y-127127000D01*
X175860500Y-127127000D01*
X174748750Y-127127000D01*
X174590000Y-127285750D01*
X174586928Y-128675000D01*
X174127000Y-128675000D01*
X174127000Y-125325000D01*
X174586928Y-125325000D01*
X174590000Y-126714250D01*
X174748750Y-126873000D01*
X175860500Y-126873000D01*
X175860500Y-124848750D01*
X176114500Y-124848750D01*
X176114500Y-126873000D01*
X177226250Y-126873000D01*
X177385000Y-126714250D01*
X177388072Y-125325000D01*
X177375812Y-125200518D01*
X177339502Y-125080820D01*
X177280537Y-124970506D01*
X177201185Y-124873815D01*
X177104494Y-124794463D01*
X176994180Y-124735498D01*
X176874482Y-124699188D01*
X176750000Y-124686928D01*
X176273250Y-124690000D01*
X176114500Y-124848750D01*
X175860500Y-124848750D01*
X175701750Y-124690000D01*
X175225000Y-124686928D01*
X175100518Y-124699188D01*
X174980820Y-124735498D01*
X174870506Y-124794463D01*
X174773815Y-124873815D01*
X174694463Y-124970506D01*
X174635498Y-125080820D01*
X174599188Y-125200518D01*
X174586928Y-125325000D01*
X174127000Y-125325000D01*
X174127000Y-124200000D01*
X184761928Y-124200000D01*
X184765000Y-126664250D01*
X184923750Y-126823000D01*
X186373000Y-126823000D01*
X186373000Y-123723750D01*
X186627000Y-123723750D01*
X186627000Y-126823000D01*
X188076250Y-126823000D01*
X188235000Y-126664250D01*
X188238072Y-124200000D01*
X202261928Y-124200000D01*
X202265000Y-126664250D01*
X202423750Y-126823000D01*
X203873000Y-126823000D01*
X203873000Y-123723750D01*
X204127000Y-123723750D01*
X204127000Y-126823000D01*
X205576250Y-126823000D01*
X205735000Y-126664250D01*
X205738072Y-124200000D01*
X205725812Y-124075518D01*
X205689502Y-123955820D01*
X205630537Y-123845506D01*
X205551185Y-123748815D01*
X205454494Y-123669463D01*
X205344180Y-123610498D01*
X205224482Y-123574188D01*
X205100000Y-123561928D01*
X204285750Y-123565000D01*
X204127000Y-123723750D01*
X203873000Y-123723750D01*
X203714250Y-123565000D01*
X202900000Y-123561928D01*
X202775518Y-123574188D01*
X202655820Y-123610498D01*
X202545506Y-123669463D01*
X202448815Y-123748815D01*
X202369463Y-123845506D01*
X202310498Y-123955820D01*
X202274188Y-124075518D01*
X202261928Y-124200000D01*
X188238072Y-124200000D01*
X188225812Y-124075518D01*
X188189502Y-123955820D01*
X188130537Y-123845506D01*
X188051185Y-123748815D01*
X187954494Y-123669463D01*
X187844180Y-123610498D01*
X187724482Y-123574188D01*
X187600000Y-123561928D01*
X186785750Y-123565000D01*
X186627000Y-123723750D01*
X186373000Y-123723750D01*
X186214250Y-123565000D01*
X185400000Y-123561928D01*
X185275518Y-123574188D01*
X185155820Y-123610498D01*
X185045506Y-123669463D01*
X184948815Y-123748815D01*
X184869463Y-123845506D01*
X184810498Y-123955820D01*
X184774188Y-124075518D01*
X184761928Y-124200000D01*
X174127000Y-124200000D01*
X174127000Y-118290000D01*
X188921928Y-118290000D01*
X188934188Y-118414482D01*
X188970498Y-118534180D01*
X189029463Y-118644494D01*
X189108815Y-118741185D01*
X189205506Y-118820537D01*
X189315820Y-118879502D01*
X189435518Y-118915812D01*
X189560000Y-118928072D01*
X190324250Y-118925000D01*
X190483000Y-118766250D01*
X190483000Y-117367000D01*
X190737000Y-117367000D01*
X190737000Y-118766250D01*
X190895750Y-118925000D01*
X191660000Y-118928072D01*
X191784482Y-118915812D01*
X191904180Y-118879502D01*
X192014494Y-118820537D01*
X192111185Y-118741185D01*
X192190537Y-118644494D01*
X192249502Y-118534180D01*
X192285812Y-118414482D01*
X192298072Y-118290000D01*
X192295000Y-117525750D01*
X192136250Y-117367000D01*
X190737000Y-117367000D01*
X190483000Y-117367000D01*
X189083750Y-117367000D01*
X188925000Y-117525750D01*
X188921928Y-118290000D01*
X174127000Y-118290000D01*
X174127000Y-117110000D01*
X177096928Y-117110000D01*
X177109188Y-117234482D01*
X177145498Y-117354180D01*
X177204463Y-117464494D01*
X177283815Y-117561185D01*
X177380506Y-117640537D01*
X177490820Y-117699502D01*
X177610518Y-117735812D01*
X177735000Y-117748072D01*
X177924250Y-117745000D01*
X178083000Y-117586250D01*
X178083000Y-116712000D01*
X178337000Y-116712000D01*
X178337000Y-117586250D01*
X178495750Y-117745000D01*
X178685000Y-117748072D01*
X178809482Y-117735812D01*
X178929180Y-117699502D01*
X179039494Y-117640537D01*
X179136185Y-117561185D01*
X179215537Y-117464494D01*
X179274502Y-117354180D01*
X179310812Y-117234482D01*
X179323072Y-117110000D01*
X179322944Y-117100000D01*
X182216928Y-117100000D01*
X182229188Y-117224482D01*
X182265498Y-117344180D01*
X182324463Y-117454494D01*
X182403815Y-117551185D01*
X182500506Y-117630537D01*
X182610820Y-117689502D01*
X182730518Y-117725812D01*
X182855000Y-117738072D01*
X183044250Y-117735000D01*
X183203000Y-117576250D01*
X183203000Y-116702000D01*
X183457000Y-116702000D01*
X183457000Y-117576250D01*
X183615750Y-117735000D01*
X183805000Y-117738072D01*
X183929482Y-117725812D01*
X184049180Y-117689502D01*
X184159494Y-117630537D01*
X184256185Y-117551185D01*
X184335537Y-117454494D01*
X184394502Y-117344180D01*
X184430812Y-117224482D01*
X184443072Y-117100000D01*
X184440000Y-116860750D01*
X184281250Y-116702000D01*
X183457000Y-116702000D01*
X183203000Y-116702000D01*
X182378750Y-116702000D01*
X182220000Y-116860750D01*
X182216928Y-117100000D01*
X179322944Y-117100000D01*
X179320000Y-116870750D01*
X179161250Y-116712000D01*
X178337000Y-116712000D01*
X178083000Y-116712000D01*
X177258750Y-116712000D01*
X177100000Y-116870750D01*
X177096928Y-117110000D01*
X174127000Y-117110000D01*
X174127000Y-116127000D01*
X177097788Y-116127000D01*
X177100000Y-116299250D01*
G37*
X177100000Y-116299250D02*
X177258750Y-116458000D01*
X178083000Y-116458000D01*
X178083000Y-116438000D01*
X178337000Y-116438000D01*
X178337000Y-116458000D01*
X179161250Y-116458000D01*
X179320000Y-116299250D01*
X179322212Y-116127000D01*
X182217917Y-116127000D01*
X182220000Y-116289250D01*
X182378750Y-116448000D01*
X183203000Y-116448000D01*
X183203000Y-116428000D01*
X183457000Y-116428000D01*
X183457000Y-116448000D01*
X184281250Y-116448000D01*
X184440000Y-116289250D01*
X184442083Y-116127000D01*
X188928133Y-116127000D01*
X188921928Y-116190000D01*
X188925000Y-116954250D01*
X189083750Y-117113000D01*
X190483000Y-117113000D01*
X190483000Y-117093000D01*
X190737000Y-117093000D01*
X190737000Y-117113000D01*
X192136250Y-117113000D01*
X192295000Y-116954250D01*
X192298072Y-116190000D01*
X192291867Y-116127000D01*
X211373000Y-116127000D01*
X211373000Y-129873000D01*
X205711094Y-129873000D01*
X205725812Y-129824482D01*
X205738072Y-129700000D01*
X205735000Y-127235750D01*
X205576250Y-127077000D01*
X204127000Y-127077000D01*
X204127000Y-127097000D01*
X203873000Y-127097000D01*
X203873000Y-127077000D01*
X202423750Y-127077000D01*
X202265000Y-127235750D01*
X202261928Y-129700000D01*
X202274188Y-129824482D01*
X202288906Y-129873000D01*
X188211094Y-129873000D01*
X188225812Y-129824482D01*
X188238072Y-129700000D01*
X188235000Y-127235750D01*
X188076250Y-127077000D01*
X186627000Y-127077000D01*
X186627000Y-127097000D01*
X186373000Y-127097000D01*
X186373000Y-127077000D01*
X184923750Y-127077000D01*
X184765000Y-127235750D01*
X184761928Y-129700000D01*
X184774188Y-129824482D01*
X184788906Y-129873000D01*
X174127000Y-129873000D01*
X174127000Y-128675000D01*
X174586928Y-128675000D01*
X174599188Y-128799482D01*
X174635498Y-128919180D01*
X174694463Y-129029494D01*
X174773815Y-129126185D01*
X174870506Y-129205537D01*
X174980820Y-129264502D01*
X175100518Y-129300812D01*
X175225000Y-129313072D01*
X175701750Y-129310000D01*
X175860500Y-129151250D01*
X175860500Y-127127000D01*
X176114500Y-127127000D01*
X176114500Y-129151250D01*
X176273250Y-129310000D01*
X176750000Y-129313072D01*
X176874482Y-129300812D01*
X176994180Y-129264502D01*
X177104494Y-129205537D01*
X177201185Y-129126185D01*
X177280537Y-129029494D01*
X177339502Y-128919180D01*
X177375812Y-128799482D01*
X177388072Y-128675000D01*
X177385000Y-127285750D01*
X177226250Y-127127000D01*
X176114500Y-127127000D01*
X175860500Y-127127000D01*
X174748750Y-127127000D01*
X174590000Y-127285750D01*
X174586928Y-128675000D01*
X174127000Y-128675000D01*
X174127000Y-125325000D01*
X174586928Y-125325000D01*
X174590000Y-126714250D01*
X174748750Y-126873000D01*
X175860500Y-126873000D01*
X175860500Y-124848750D01*
X176114500Y-124848750D01*
X176114500Y-126873000D01*
X177226250Y-126873000D01*
X177385000Y-126714250D01*
X177388072Y-125325000D01*
X177375812Y-125200518D01*
X177339502Y-125080820D01*
X177280537Y-124970506D01*
X177201185Y-124873815D01*
X177104494Y-124794463D01*
X176994180Y-124735498D01*
X176874482Y-124699188D01*
X176750000Y-124686928D01*
X176273250Y-124690000D01*
X176114500Y-124848750D01*
X175860500Y-124848750D01*
X175701750Y-124690000D01*
X175225000Y-124686928D01*
X175100518Y-124699188D01*
X174980820Y-124735498D01*
X174870506Y-124794463D01*
X174773815Y-124873815D01*
X174694463Y-124970506D01*
X174635498Y-125080820D01*
X174599188Y-125200518D01*
X174586928Y-125325000D01*
X174127000Y-125325000D01*
X174127000Y-124200000D01*
X184761928Y-124200000D01*
X184765000Y-126664250D01*
X184923750Y-126823000D01*
X186373000Y-126823000D01*
X186373000Y-123723750D01*
X186627000Y-123723750D01*
X186627000Y-126823000D01*
X188076250Y-126823000D01*
X188235000Y-126664250D01*
X188238072Y-124200000D01*
X202261928Y-124200000D01*
X202265000Y-126664250D01*
X202423750Y-126823000D01*
X203873000Y-126823000D01*
X203873000Y-123723750D01*
X204127000Y-123723750D01*
X204127000Y-126823000D01*
X205576250Y-126823000D01*
X205735000Y-126664250D01*
X205738072Y-124200000D01*
X205725812Y-124075518D01*
X205689502Y-123955820D01*
X205630537Y-123845506D01*
X205551185Y-123748815D01*
X205454494Y-123669463D01*
X205344180Y-123610498D01*
X205224482Y-123574188D01*
X205100000Y-123561928D01*
X204285750Y-123565000D01*
X204127000Y-123723750D01*
X203873000Y-123723750D01*
X203714250Y-123565000D01*
X202900000Y-123561928D01*
X202775518Y-123574188D01*
X202655820Y-123610498D01*
X202545506Y-123669463D01*
X202448815Y-123748815D01*
X202369463Y-123845506D01*
X202310498Y-123955820D01*
X202274188Y-124075518D01*
X202261928Y-124200000D01*
X188238072Y-124200000D01*
X188225812Y-124075518D01*
X188189502Y-123955820D01*
X188130537Y-123845506D01*
X188051185Y-123748815D01*
X187954494Y-123669463D01*
X187844180Y-123610498D01*
X187724482Y-123574188D01*
X187600000Y-123561928D01*
X186785750Y-123565000D01*
X186627000Y-123723750D01*
X186373000Y-123723750D01*
X186214250Y-123565000D01*
X185400000Y-123561928D01*
X185275518Y-123574188D01*
X185155820Y-123610498D01*
X185045506Y-123669463D01*
X184948815Y-123748815D01*
X184869463Y-123845506D01*
X184810498Y-123955820D01*
X184774188Y-124075518D01*
X184761928Y-124200000D01*
X174127000Y-124200000D01*
X174127000Y-118290000D01*
X188921928Y-118290000D01*
X188934188Y-118414482D01*
X188970498Y-118534180D01*
X189029463Y-118644494D01*
X189108815Y-118741185D01*
X189205506Y-118820537D01*
X189315820Y-118879502D01*
X189435518Y-118915812D01*
X189560000Y-118928072D01*
X190324250Y-118925000D01*
X190483000Y-118766250D01*
X190483000Y-117367000D01*
X190737000Y-117367000D01*
X190737000Y-118766250D01*
X190895750Y-118925000D01*
X191660000Y-118928072D01*
X191784482Y-118915812D01*
X191904180Y-118879502D01*
X192014494Y-118820537D01*
X192111185Y-118741185D01*
X192190537Y-118644494D01*
X192249502Y-118534180D01*
X192285812Y-118414482D01*
X192298072Y-118290000D01*
X192295000Y-117525750D01*
X192136250Y-117367000D01*
X190737000Y-117367000D01*
X190483000Y-117367000D01*
X189083750Y-117367000D01*
X188925000Y-117525750D01*
X188921928Y-118290000D01*
X174127000Y-118290000D01*
X174127000Y-117110000D01*
X177096928Y-117110000D01*
X177109188Y-117234482D01*
X177145498Y-117354180D01*
X177204463Y-117464494D01*
X177283815Y-117561185D01*
X177380506Y-117640537D01*
X177490820Y-117699502D01*
X177610518Y-117735812D01*
X177735000Y-117748072D01*
X177924250Y-117745000D01*
X178083000Y-117586250D01*
X178083000Y-116712000D01*
X178337000Y-116712000D01*
X178337000Y-117586250D01*
X178495750Y-117745000D01*
X178685000Y-117748072D01*
X178809482Y-117735812D01*
X178929180Y-117699502D01*
X179039494Y-117640537D01*
X179136185Y-117561185D01*
X179215537Y-117464494D01*
X179274502Y-117354180D01*
X179310812Y-117234482D01*
X179323072Y-117110000D01*
X179322944Y-117100000D01*
X182216928Y-117100000D01*
X182229188Y-117224482D01*
X182265498Y-117344180D01*
X182324463Y-117454494D01*
X182403815Y-117551185D01*
X182500506Y-117630537D01*
X182610820Y-117689502D01*
X182730518Y-117725812D01*
X182855000Y-117738072D01*
X183044250Y-117735000D01*
X183203000Y-117576250D01*
X183203000Y-116702000D01*
X183457000Y-116702000D01*
X183457000Y-117576250D01*
X183615750Y-117735000D01*
X183805000Y-117738072D01*
X183929482Y-117725812D01*
X184049180Y-117689502D01*
X184159494Y-117630537D01*
X184256185Y-117551185D01*
X184335537Y-117454494D01*
X184394502Y-117344180D01*
X184430812Y-117224482D01*
X184443072Y-117100000D01*
X184440000Y-116860750D01*
X184281250Y-116702000D01*
X183457000Y-116702000D01*
X183203000Y-116702000D01*
X182378750Y-116702000D01*
X182220000Y-116860750D01*
X182216928Y-117100000D01*
X179322944Y-117100000D01*
X179320000Y-116870750D01*
X179161250Y-116712000D01*
X178337000Y-116712000D01*
X178083000Y-116712000D01*
X177258750Y-116712000D01*
X177100000Y-116870750D01*
X177096928Y-117110000D01*
X174127000Y-117110000D01*
X174127000Y-116127000D01*
X177097788Y-116127000D01*
X177100000Y-116299250D01*
%TO.N,GND*%
G36*
X211373000Y-144373000D02*
G01*
X175127000Y-144373000D01*
X175127000Y-140800000D01*
X184761928Y-140800000D01*
X184774188Y-140924482D01*
X184810498Y-141044180D01*
X184869463Y-141154494D01*
X184948815Y-141251185D01*
X185045506Y-141330537D01*
X185155820Y-141389502D01*
X185275518Y-141425812D01*
X185400000Y-141438072D01*
X186214250Y-141435000D01*
X186373000Y-141276250D01*
X186373000Y-138177000D01*
X186627000Y-138177000D01*
X186627000Y-141276250D01*
X186785750Y-141435000D01*
X187600000Y-141438072D01*
X187724482Y-141425812D01*
X187844180Y-141389502D01*
X187954494Y-141330537D01*
X188051185Y-141251185D01*
X188130537Y-141154494D01*
X188189502Y-141044180D01*
X188225812Y-140924482D01*
X188238072Y-140800000D01*
X202261928Y-140800000D01*
X202274188Y-140924482D01*
X202310498Y-141044180D01*
X202369463Y-141154494D01*
X202448815Y-141251185D01*
X202545506Y-141330537D01*
X202655820Y-141389502D01*
X202775518Y-141425812D01*
X202900000Y-141438072D01*
X203714250Y-141435000D01*
X203873000Y-141276250D01*
X203873000Y-138177000D01*
X204127000Y-138177000D01*
X204127000Y-141276250D01*
X204285750Y-141435000D01*
X205100000Y-141438072D01*
X205224482Y-141425812D01*
X205344180Y-141389502D01*
X205454494Y-141330537D01*
X205551185Y-141251185D01*
X205630537Y-141154494D01*
X205689502Y-141044180D01*
X205725812Y-140924482D01*
X205738072Y-140800000D01*
X205735000Y-138335750D01*
X205576250Y-138177000D01*
X204127000Y-138177000D01*
X203873000Y-138177000D01*
X202423750Y-138177000D01*
X202265000Y-138335750D01*
X202261928Y-140800000D01*
X188238072Y-140800000D01*
X188235000Y-138335750D01*
X188076250Y-138177000D01*
X186627000Y-138177000D01*
X186373000Y-138177000D01*
X184923750Y-138177000D01*
X184765000Y-138335750D01*
X184761928Y-140800000D01*
X175127000Y-140800000D01*
X175127000Y-135300000D01*
X184761928Y-135300000D01*
X184765000Y-137764250D01*
X184923750Y-137923000D01*
X186373000Y-137923000D01*
X186373000Y-134823750D01*
X186627000Y-134823750D01*
X186627000Y-137923000D01*
X188076250Y-137923000D01*
X188235000Y-137764250D01*
X188238072Y-135300000D01*
X202261928Y-135300000D01*
X202265000Y-137764250D01*
X202423750Y-137923000D01*
X203873000Y-137923000D01*
X203873000Y-134823750D01*
X204127000Y-134823750D01*
X204127000Y-137923000D01*
X205576250Y-137923000D01*
X205735000Y-137764250D01*
X205738072Y-135300000D01*
X205725812Y-135175518D01*
X205689502Y-135055820D01*
X205630537Y-134945506D01*
X205551185Y-134848815D01*
X205454494Y-134769463D01*
X205344180Y-134710498D01*
X205224482Y-134674188D01*
X205100000Y-134661928D01*
X204285750Y-134665000D01*
X204127000Y-134823750D01*
X203873000Y-134823750D01*
X203714250Y-134665000D01*
X202900000Y-134661928D01*
X202775518Y-134674188D01*
X202655820Y-134710498D01*
X202545506Y-134769463D01*
X202448815Y-134848815D01*
X202369463Y-134945506D01*
X202310498Y-135055820D01*
X202274188Y-135175518D01*
X202261928Y-135300000D01*
X188238072Y-135300000D01*
X188225812Y-135175518D01*
X188189502Y-135055820D01*
X188130537Y-134945506D01*
X188051185Y-134848815D01*
X187954494Y-134769463D01*
X187844180Y-134710498D01*
X187724482Y-134674188D01*
X187600000Y-134661928D01*
X186785750Y-134665000D01*
X186627000Y-134823750D01*
X186373000Y-134823750D01*
X186214250Y-134665000D01*
X185400000Y-134661928D01*
X185275518Y-134674188D01*
X185155820Y-134710498D01*
X185045506Y-134769463D01*
X184948815Y-134848815D01*
X184869463Y-134945506D01*
X184810498Y-135055820D01*
X184774188Y-135175518D01*
X184761928Y-135300000D01*
X175127000Y-135300000D01*
X175127000Y-132127000D01*
X211373000Y-132127000D01*
X211373000Y-144373000D01*
G37*
X211373000Y-144373000D02*
X175127000Y-144373000D01*
X175127000Y-140800000D01*
X184761928Y-140800000D01*
X184774188Y-140924482D01*
X184810498Y-141044180D01*
X184869463Y-141154494D01*
X184948815Y-141251185D01*
X185045506Y-141330537D01*
X185155820Y-141389502D01*
X185275518Y-141425812D01*
X185400000Y-141438072D01*
X186214250Y-141435000D01*
X186373000Y-141276250D01*
X186373000Y-138177000D01*
X186627000Y-138177000D01*
X186627000Y-141276250D01*
X186785750Y-141435000D01*
X187600000Y-141438072D01*
X187724482Y-141425812D01*
X187844180Y-141389502D01*
X187954494Y-141330537D01*
X188051185Y-141251185D01*
X188130537Y-141154494D01*
X188189502Y-141044180D01*
X188225812Y-140924482D01*
X188238072Y-140800000D01*
X202261928Y-140800000D01*
X202274188Y-140924482D01*
X202310498Y-141044180D01*
X202369463Y-141154494D01*
X202448815Y-141251185D01*
X202545506Y-141330537D01*
X202655820Y-141389502D01*
X202775518Y-141425812D01*
X202900000Y-141438072D01*
X203714250Y-141435000D01*
X203873000Y-141276250D01*
X203873000Y-138177000D01*
X204127000Y-138177000D01*
X204127000Y-141276250D01*
X204285750Y-141435000D01*
X205100000Y-141438072D01*
X205224482Y-141425812D01*
X205344180Y-141389502D01*
X205454494Y-141330537D01*
X205551185Y-141251185D01*
X205630537Y-141154494D01*
X205689502Y-141044180D01*
X205725812Y-140924482D01*
X205738072Y-140800000D01*
X205735000Y-138335750D01*
X205576250Y-138177000D01*
X204127000Y-138177000D01*
X203873000Y-138177000D01*
X202423750Y-138177000D01*
X202265000Y-138335750D01*
X202261928Y-140800000D01*
X188238072Y-140800000D01*
X188235000Y-138335750D01*
X188076250Y-138177000D01*
X186627000Y-138177000D01*
X186373000Y-138177000D01*
X184923750Y-138177000D01*
X184765000Y-138335750D01*
X184761928Y-140800000D01*
X175127000Y-140800000D01*
X175127000Y-135300000D01*
X184761928Y-135300000D01*
X184765000Y-137764250D01*
X184923750Y-137923000D01*
X186373000Y-137923000D01*
X186373000Y-134823750D01*
X186627000Y-134823750D01*
X186627000Y-137923000D01*
X188076250Y-137923000D01*
X188235000Y-137764250D01*
X188238072Y-135300000D01*
X202261928Y-135300000D01*
X202265000Y-137764250D01*
X202423750Y-137923000D01*
X203873000Y-137923000D01*
X203873000Y-134823750D01*
X204127000Y-134823750D01*
X204127000Y-137923000D01*
X205576250Y-137923000D01*
X205735000Y-137764250D01*
X205738072Y-135300000D01*
X205725812Y-135175518D01*
X205689502Y-135055820D01*
X205630537Y-134945506D01*
X205551185Y-134848815D01*
X205454494Y-134769463D01*
X205344180Y-134710498D01*
X205224482Y-134674188D01*
X205100000Y-134661928D01*
X204285750Y-134665000D01*
X204127000Y-134823750D01*
X203873000Y-134823750D01*
X203714250Y-134665000D01*
X202900000Y-134661928D01*
X202775518Y-134674188D01*
X202655820Y-134710498D01*
X202545506Y-134769463D01*
X202448815Y-134848815D01*
X202369463Y-134945506D01*
X202310498Y-135055820D01*
X202274188Y-135175518D01*
X202261928Y-135300000D01*
X188238072Y-135300000D01*
X188225812Y-135175518D01*
X188189502Y-135055820D01*
X188130537Y-134945506D01*
X188051185Y-134848815D01*
X187954494Y-134769463D01*
X187844180Y-134710498D01*
X187724482Y-134674188D01*
X187600000Y-134661928D01*
X186785750Y-134665000D01*
X186627000Y-134823750D01*
X186373000Y-134823750D01*
X186214250Y-134665000D01*
X185400000Y-134661928D01*
X185275518Y-134674188D01*
X185155820Y-134710498D01*
X185045506Y-134769463D01*
X184948815Y-134848815D01*
X184869463Y-134945506D01*
X184810498Y-135055820D01*
X184774188Y-135175518D01*
X184761928Y-135300000D01*
X175127000Y-135300000D01*
X175127000Y-132127000D01*
X211373000Y-132127000D01*
X211373000Y-144373000D01*
%TD*%
M02*
