%TF.GenerationSoftware,KiCad,Pcbnew,(5.1.6)-1*%
%TF.CreationDate,2020-11-07T14:41:46+05:30*%
%TF.ProjectId,LT8652,4c543836-3532-42e6-9b69-6361645f7063,rev?*%
%TF.SameCoordinates,Original*%
%TF.FileFunction,Paste,Top*%
%TF.FilePolarity,Positive*%
%FSLAX46Y46*%
G04 Gerber Fmt 4.6, Leading zero omitted, Abs format (unit mm)*
G04 Created by KiCad (PCBNEW (5.1.6)-1) date 2020-11-07 14:41:46*
%MOMM*%
%LPD*%
G01*
G04 APERTURE LIST*
%ADD10R,0.700000X0.250000*%
%ADD11R,0.250000X0.700000*%
%ADD12R,1.100000X1.670000*%
%ADD13R,0.375000X0.375000*%
%ADD14R,2.200000X5.500000*%
%ADD15R,3.500000X3.550000*%
G04 APERTURE END LIST*
%TO.C,R14*%
G36*
G01*
X175225000Y-128425001D02*
X175225000Y-125574999D01*
G75*
G02*
X175474999Y-125325000I249999J0D01*
G01*
X176500001Y-125325000D01*
G75*
G02*
X176750000Y-125574999I0J-249999D01*
G01*
X176750000Y-128425001D01*
G75*
G02*
X176500001Y-128675000I-249999J0D01*
G01*
X175474999Y-128675000D01*
G75*
G02*
X175225000Y-128425001I0J249999D01*
G01*
G37*
G36*
G01*
X169250000Y-128425001D02*
X169250000Y-125574999D01*
G75*
G02*
X169499999Y-125325000I249999J0D01*
G01*
X170525001Y-125325000D01*
G75*
G02*
X170775000Y-125574999I0J-249999D01*
G01*
X170775000Y-128425001D01*
G75*
G02*
X170525001Y-128675000I-249999J0D01*
G01*
X169499999Y-128675000D01*
G75*
G02*
X169250000Y-128425001I0J249999D01*
G01*
G37*
%TD*%
%TO.C,R13*%
G36*
G01*
X176225000Y-99425001D02*
X176225000Y-96574999D01*
G75*
G02*
X176474999Y-96325000I249999J0D01*
G01*
X177500001Y-96325000D01*
G75*
G02*
X177750000Y-96574999I0J-249999D01*
G01*
X177750000Y-99425001D01*
G75*
G02*
X177500001Y-99675000I-249999J0D01*
G01*
X176474999Y-99675000D01*
G75*
G02*
X176225000Y-99425001I0J249999D01*
G01*
G37*
G36*
G01*
X170250000Y-99425001D02*
X170250000Y-96574999D01*
G75*
G02*
X170499999Y-96325000I249999J0D01*
G01*
X171525001Y-96325000D01*
G75*
G02*
X171775000Y-96574999I0J-249999D01*
G01*
X171775000Y-99425001D01*
G75*
G02*
X171525001Y-99675000I-249999J0D01*
G01*
X170499999Y-99675000D01*
G75*
G02*
X170250000Y-99425001I0J249999D01*
G01*
G37*
%TD*%
D10*
%TO.C,IC1*%
X148100001Y-106855000D03*
X148100001Y-107355000D03*
X148100001Y-107855000D03*
X148100001Y-108355000D03*
X148100001Y-108855000D03*
X148100001Y-109355000D03*
X148100001Y-109855000D03*
X148100001Y-110355000D03*
X148100001Y-110855000D03*
X148100001Y-111355000D03*
X148100001Y-111855000D03*
X148100001Y-112355000D03*
D11*
X148750001Y-113005000D03*
X149250001Y-113005000D03*
X149750001Y-113005000D03*
X150250001Y-113005000D03*
X150750001Y-113005000D03*
X151250001Y-113005000D03*
D10*
X151900001Y-112355000D03*
X151900001Y-111855000D03*
X151900001Y-111355000D03*
X151900001Y-110855000D03*
X151900001Y-110355000D03*
X151900001Y-109855000D03*
X151900001Y-109355000D03*
X151900001Y-108855000D03*
X151900001Y-108355000D03*
X151900001Y-107855000D03*
X151900001Y-107355000D03*
X151900001Y-106855000D03*
D11*
X151250001Y-106205000D03*
X150750001Y-106205000D03*
X150250001Y-106205000D03*
X149750001Y-106205000D03*
X149250001Y-106205000D03*
X148750001Y-106205000D03*
D12*
X149350001Y-107735000D03*
X150650001Y-107735000D03*
X149350001Y-109605000D03*
X150650001Y-109605000D03*
X149350001Y-111475000D03*
X150650001Y-111475000D03*
D13*
X148187001Y-106292000D03*
X148187001Y-112918000D03*
X151813001Y-112918000D03*
X151813001Y-106292000D03*
%TD*%
%TO.C,R8*%
G36*
G01*
X145837500Y-98250000D02*
X145362500Y-98250000D01*
G75*
G02*
X145125000Y-98012500I0J237500D01*
G01*
X145125000Y-97437500D01*
G75*
G02*
X145362500Y-97200000I237500J0D01*
G01*
X145837500Y-97200000D01*
G75*
G02*
X146075000Y-97437500I0J-237500D01*
G01*
X146075000Y-98012500D01*
G75*
G02*
X145837500Y-98250000I-237500J0D01*
G01*
G37*
G36*
G01*
X145837500Y-100000000D02*
X145362500Y-100000000D01*
G75*
G02*
X145125000Y-99762500I0J237500D01*
G01*
X145125000Y-99187500D01*
G75*
G02*
X145362500Y-98950000I237500J0D01*
G01*
X145837500Y-98950000D01*
G75*
G02*
X146075000Y-99187500I0J-237500D01*
G01*
X146075000Y-99762500D01*
G75*
G02*
X145837500Y-100000000I-237500J0D01*
G01*
G37*
%TD*%
%TO.C,C21*%
G36*
G01*
X142762500Y-112850000D02*
X143237500Y-112850000D01*
G75*
G02*
X143475000Y-113087500I0J-237500D01*
G01*
X143475000Y-113662500D01*
G75*
G02*
X143237500Y-113900000I-237500J0D01*
G01*
X142762500Y-113900000D01*
G75*
G02*
X142525000Y-113662500I0J237500D01*
G01*
X142525000Y-113087500D01*
G75*
G02*
X142762500Y-112850000I237500J0D01*
G01*
G37*
G36*
G01*
X142762500Y-111100000D02*
X143237500Y-111100000D01*
G75*
G02*
X143475000Y-111337500I0J-237500D01*
G01*
X143475000Y-111912500D01*
G75*
G02*
X143237500Y-112150000I-237500J0D01*
G01*
X142762500Y-112150000D01*
G75*
G02*
X142525000Y-111912500I0J237500D01*
G01*
X142525000Y-111337500D01*
G75*
G02*
X142762500Y-111100000I237500J0D01*
G01*
G37*
%TD*%
%TO.C,C20*%
G36*
G01*
X137750000Y-135250000D02*
X139750000Y-135250000D01*
G75*
G02*
X140000000Y-135500000I0J-250000D01*
G01*
X140000000Y-139400000D01*
G75*
G02*
X139750000Y-139650000I-250000J0D01*
G01*
X137750000Y-139650000D01*
G75*
G02*
X137500000Y-139400000I0J250000D01*
G01*
X137500000Y-135500000D01*
G75*
G02*
X137750000Y-135250000I250000J0D01*
G01*
G37*
G36*
G01*
X137750000Y-127850000D02*
X139750000Y-127850000D01*
G75*
G02*
X140000000Y-128100000I0J-250000D01*
G01*
X140000000Y-132000000D01*
G75*
G02*
X139750000Y-132250000I-250000J0D01*
G01*
X137750000Y-132250000D01*
G75*
G02*
X137500000Y-132000000I0J250000D01*
G01*
X137500000Y-128100000D01*
G75*
G02*
X137750000Y-127850000I250000J0D01*
G01*
G37*
%TD*%
D14*
%TO.C,C19*%
X204000000Y-138050000D03*
X204000000Y-126950000D03*
%TD*%
%TO.C,C18*%
X203500000Y-86890000D03*
X203500000Y-97990000D03*
%TD*%
%TO.C,C17*%
G36*
G01*
X178447500Y-115360000D02*
X177972500Y-115360000D01*
G75*
G02*
X177735000Y-115122500I0J237500D01*
G01*
X177735000Y-114547500D01*
G75*
G02*
X177972500Y-114310000I237500J0D01*
G01*
X178447500Y-114310000D01*
G75*
G02*
X178685000Y-114547500I0J-237500D01*
G01*
X178685000Y-115122500D01*
G75*
G02*
X178447500Y-115360000I-237500J0D01*
G01*
G37*
G36*
G01*
X178447500Y-117110000D02*
X177972500Y-117110000D01*
G75*
G02*
X177735000Y-116872500I0J237500D01*
G01*
X177735000Y-116297500D01*
G75*
G02*
X177972500Y-116060000I237500J0D01*
G01*
X178447500Y-116060000D01*
G75*
G02*
X178685000Y-116297500I0J-237500D01*
G01*
X178685000Y-116872500D01*
G75*
G02*
X178447500Y-117110000I-237500J0D01*
G01*
G37*
%TD*%
%TO.C,C16*%
G36*
G01*
X182862500Y-107050000D02*
X183337500Y-107050000D01*
G75*
G02*
X183575000Y-107287500I0J-237500D01*
G01*
X183575000Y-107862500D01*
G75*
G02*
X183337500Y-108100000I-237500J0D01*
G01*
X182862500Y-108100000D01*
G75*
G02*
X182625000Y-107862500I0J237500D01*
G01*
X182625000Y-107287500D01*
G75*
G02*
X182862500Y-107050000I237500J0D01*
G01*
G37*
G36*
G01*
X182862500Y-105300000D02*
X183337500Y-105300000D01*
G75*
G02*
X183575000Y-105537500I0J-237500D01*
G01*
X183575000Y-106112500D01*
G75*
G02*
X183337500Y-106350000I-237500J0D01*
G01*
X182862500Y-106350000D01*
G75*
G02*
X182625000Y-106112500I0J237500D01*
G01*
X182625000Y-105537500D01*
G75*
G02*
X182862500Y-105300000I237500J0D01*
G01*
G37*
%TD*%
%TO.C,C14*%
G36*
G01*
X148000000Y-135500000D02*
X150000000Y-135500000D01*
G75*
G02*
X150250000Y-135750000I0J-250000D01*
G01*
X150250000Y-139650000D01*
G75*
G02*
X150000000Y-139900000I-250000J0D01*
G01*
X148000000Y-139900000D01*
G75*
G02*
X147750000Y-139650000I0J250000D01*
G01*
X147750000Y-135750000D01*
G75*
G02*
X148000000Y-135500000I250000J0D01*
G01*
G37*
G36*
G01*
X148000000Y-128100000D02*
X150000000Y-128100000D01*
G75*
G02*
X150250000Y-128350000I0J-250000D01*
G01*
X150250000Y-132250000D01*
G75*
G02*
X150000000Y-132500000I-250000J0D01*
G01*
X148000000Y-132500000D01*
G75*
G02*
X147750000Y-132250000I0J250000D01*
G01*
X147750000Y-128350000D01*
G75*
G02*
X148000000Y-128100000I250000J0D01*
G01*
G37*
%TD*%
%TO.C,C6*%
G36*
G01*
X177532500Y-107050000D02*
X178007500Y-107050000D01*
G75*
G02*
X178245000Y-107287500I0J-237500D01*
G01*
X178245000Y-107862500D01*
G75*
G02*
X178007500Y-108100000I-237500J0D01*
G01*
X177532500Y-108100000D01*
G75*
G02*
X177295000Y-107862500I0J237500D01*
G01*
X177295000Y-107287500D01*
G75*
G02*
X177532500Y-107050000I237500J0D01*
G01*
G37*
G36*
G01*
X177532500Y-105300000D02*
X178007500Y-105300000D01*
G75*
G02*
X178245000Y-105537500I0J-237500D01*
G01*
X178245000Y-106112500D01*
G75*
G02*
X178007500Y-106350000I-237500J0D01*
G01*
X177532500Y-106350000D01*
G75*
G02*
X177295000Y-106112500I0J237500D01*
G01*
X177295000Y-105537500D01*
G75*
G02*
X177532500Y-105300000I237500J0D01*
G01*
G37*
%TD*%
%TO.C,R12*%
G36*
G01*
X153637500Y-89975000D02*
X153162500Y-89975000D01*
G75*
G02*
X152925000Y-89737500I0J237500D01*
G01*
X152925000Y-89162500D01*
G75*
G02*
X153162500Y-88925000I237500J0D01*
G01*
X153637500Y-88925000D01*
G75*
G02*
X153875000Y-89162500I0J-237500D01*
G01*
X153875000Y-89737500D01*
G75*
G02*
X153637500Y-89975000I-237500J0D01*
G01*
G37*
G36*
G01*
X153637500Y-91725000D02*
X153162500Y-91725000D01*
G75*
G02*
X152925000Y-91487500I0J237500D01*
G01*
X152925000Y-90912500D01*
G75*
G02*
X153162500Y-90675000I237500J0D01*
G01*
X153637500Y-90675000D01*
G75*
G02*
X153875000Y-90912500I0J-237500D01*
G01*
X153875000Y-91487500D01*
G75*
G02*
X153637500Y-91725000I-237500J0D01*
G01*
G37*
%TD*%
%TO.C,R11*%
G36*
G01*
X141050000Y-86162500D02*
X141050000Y-86637500D01*
G75*
G02*
X140812500Y-86875000I-237500J0D01*
G01*
X140237500Y-86875000D01*
G75*
G02*
X140000000Y-86637500I0J237500D01*
G01*
X140000000Y-86162500D01*
G75*
G02*
X140237500Y-85925000I237500J0D01*
G01*
X140812500Y-85925000D01*
G75*
G02*
X141050000Y-86162500I0J-237500D01*
G01*
G37*
G36*
G01*
X142800000Y-86162500D02*
X142800000Y-86637500D01*
G75*
G02*
X142562500Y-86875000I-237500J0D01*
G01*
X141987500Y-86875000D01*
G75*
G02*
X141750000Y-86637500I0J237500D01*
G01*
X141750000Y-86162500D01*
G75*
G02*
X141987500Y-85925000I237500J0D01*
G01*
X142562500Y-85925000D01*
G75*
G02*
X142800000Y-86162500I0J-237500D01*
G01*
G37*
%TD*%
%TO.C,C11*%
G36*
G01*
X183567500Y-115350000D02*
X183092500Y-115350000D01*
G75*
G02*
X182855000Y-115112500I0J237500D01*
G01*
X182855000Y-114537500D01*
G75*
G02*
X183092500Y-114300000I237500J0D01*
G01*
X183567500Y-114300000D01*
G75*
G02*
X183805000Y-114537500I0J-237500D01*
G01*
X183805000Y-115112500D01*
G75*
G02*
X183567500Y-115350000I-237500J0D01*
G01*
G37*
G36*
G01*
X183567500Y-117100000D02*
X183092500Y-117100000D01*
G75*
G02*
X182855000Y-116862500I0J237500D01*
G01*
X182855000Y-116287500D01*
G75*
G02*
X183092500Y-116050000I237500J0D01*
G01*
X183567500Y-116050000D01*
G75*
G02*
X183805000Y-116287500I0J-237500D01*
G01*
X183805000Y-116862500D01*
G75*
G02*
X183567500Y-117100000I-237500J0D01*
G01*
G37*
%TD*%
%TO.C,R9*%
G36*
G01*
X130237500Y-103900000D02*
X129762500Y-103900000D01*
G75*
G02*
X129525000Y-103662500I0J237500D01*
G01*
X129525000Y-103087500D01*
G75*
G02*
X129762500Y-102850000I237500J0D01*
G01*
X130237500Y-102850000D01*
G75*
G02*
X130475000Y-103087500I0J-237500D01*
G01*
X130475000Y-103662500D01*
G75*
G02*
X130237500Y-103900000I-237500J0D01*
G01*
G37*
G36*
G01*
X130237500Y-105650000D02*
X129762500Y-105650000D01*
G75*
G02*
X129525000Y-105412500I0J237500D01*
G01*
X129525000Y-104837500D01*
G75*
G02*
X129762500Y-104600000I237500J0D01*
G01*
X130237500Y-104600000D01*
G75*
G02*
X130475000Y-104837500I0J-237500D01*
G01*
X130475000Y-105412500D01*
G75*
G02*
X130237500Y-105650000I-237500J0D01*
G01*
G37*
%TD*%
%TO.C,R3*%
G36*
G01*
X160400000Y-88512500D02*
X160400000Y-88987500D01*
G75*
G02*
X160162500Y-89225000I-237500J0D01*
G01*
X159587500Y-89225000D01*
G75*
G02*
X159350000Y-88987500I0J237500D01*
G01*
X159350000Y-88512500D01*
G75*
G02*
X159587500Y-88275000I237500J0D01*
G01*
X160162500Y-88275000D01*
G75*
G02*
X160400000Y-88512500I0J-237500D01*
G01*
G37*
G36*
G01*
X162150000Y-88512500D02*
X162150000Y-88987500D01*
G75*
G02*
X161912500Y-89225000I-237500J0D01*
G01*
X161337500Y-89225000D01*
G75*
G02*
X161100000Y-88987500I0J237500D01*
G01*
X161100000Y-88512500D01*
G75*
G02*
X161337500Y-88275000I237500J0D01*
G01*
X161912500Y-88275000D01*
G75*
G02*
X162150000Y-88512500I0J-237500D01*
G01*
G37*
%TD*%
%TO.C,C15*%
G36*
G01*
X143327500Y-108525000D02*
X142852500Y-108525000D01*
G75*
G02*
X142615000Y-108287500I0J237500D01*
G01*
X142615000Y-107712500D01*
G75*
G02*
X142852500Y-107475000I237500J0D01*
G01*
X143327500Y-107475000D01*
G75*
G02*
X143565000Y-107712500I0J-237500D01*
G01*
X143565000Y-108287500D01*
G75*
G02*
X143327500Y-108525000I-237500J0D01*
G01*
G37*
G36*
G01*
X143327500Y-110275000D02*
X142852500Y-110275000D01*
G75*
G02*
X142615000Y-110037500I0J237500D01*
G01*
X142615000Y-109462500D01*
G75*
G02*
X142852500Y-109225000I237500J0D01*
G01*
X143327500Y-109225000D01*
G75*
G02*
X143565000Y-109462500I0J-237500D01*
G01*
X143565000Y-110037500D01*
G75*
G02*
X143327500Y-110275000I-237500J0D01*
G01*
G37*
%TD*%
%TO.C,C10*%
G36*
G01*
X153637500Y-96000000D02*
X153162500Y-96000000D01*
G75*
G02*
X152925000Y-95762500I0J237500D01*
G01*
X152925000Y-95187500D01*
G75*
G02*
X153162500Y-94950000I237500J0D01*
G01*
X153637500Y-94950000D01*
G75*
G02*
X153875000Y-95187500I0J-237500D01*
G01*
X153875000Y-95762500D01*
G75*
G02*
X153637500Y-96000000I-237500J0D01*
G01*
G37*
G36*
G01*
X153637500Y-94250000D02*
X153162500Y-94250000D01*
G75*
G02*
X152925000Y-94012500I0J237500D01*
G01*
X152925000Y-93437500D01*
G75*
G02*
X153162500Y-93200000I237500J0D01*
G01*
X153637500Y-93200000D01*
G75*
G02*
X153875000Y-93437500I0J-237500D01*
G01*
X153875000Y-94012500D01*
G75*
G02*
X153637500Y-94250000I-237500J0D01*
G01*
G37*
%TD*%
%TO.C,C1*%
G36*
G01*
X141730000Y-91477500D02*
X141730000Y-91002500D01*
G75*
G02*
X141967500Y-90765000I237500J0D01*
G01*
X142542500Y-90765000D01*
G75*
G02*
X142780000Y-91002500I0J-237500D01*
G01*
X142780000Y-91477500D01*
G75*
G02*
X142542500Y-91715000I-237500J0D01*
G01*
X141967500Y-91715000D01*
G75*
G02*
X141730000Y-91477500I0J237500D01*
G01*
G37*
G36*
G01*
X139980000Y-91477500D02*
X139980000Y-91002500D01*
G75*
G02*
X140217500Y-90765000I237500J0D01*
G01*
X140792500Y-90765000D01*
G75*
G02*
X141030000Y-91002500I0J-237500D01*
G01*
X141030000Y-91477500D01*
G75*
G02*
X140792500Y-91715000I-237500J0D01*
G01*
X140217500Y-91715000D01*
G75*
G02*
X139980000Y-91477500I0J237500D01*
G01*
G37*
%TD*%
%TO.C,C5*%
G36*
G01*
X143037500Y-99800000D02*
X142562500Y-99800000D01*
G75*
G02*
X142325000Y-99562500I0J237500D01*
G01*
X142325000Y-98987500D01*
G75*
G02*
X142562500Y-98750000I237500J0D01*
G01*
X143037500Y-98750000D01*
G75*
G02*
X143275000Y-98987500I0J-237500D01*
G01*
X143275000Y-99562500D01*
G75*
G02*
X143037500Y-99800000I-237500J0D01*
G01*
G37*
G36*
G01*
X143037500Y-98050000D02*
X142562500Y-98050000D01*
G75*
G02*
X142325000Y-97812500I0J237500D01*
G01*
X142325000Y-97237500D01*
G75*
G02*
X142562500Y-97000000I237500J0D01*
G01*
X143037500Y-97000000D01*
G75*
G02*
X143275000Y-97237500I0J-237500D01*
G01*
X143275000Y-97812500D01*
G75*
G02*
X143037500Y-98050000I-237500J0D01*
G01*
G37*
%TD*%
%TO.C,R6*%
G36*
G01*
X153657500Y-100000000D02*
X153182500Y-100000000D01*
G75*
G02*
X152945000Y-99762500I0J237500D01*
G01*
X152945000Y-99187500D01*
G75*
G02*
X153182500Y-98950000I237500J0D01*
G01*
X153657500Y-98950000D01*
G75*
G02*
X153895000Y-99187500I0J-237500D01*
G01*
X153895000Y-99762500D01*
G75*
G02*
X153657500Y-100000000I-237500J0D01*
G01*
G37*
G36*
G01*
X153657500Y-98250000D02*
X153182500Y-98250000D01*
G75*
G02*
X152945000Y-98012500I0J237500D01*
G01*
X152945000Y-97437500D01*
G75*
G02*
X153182500Y-97200000I237500J0D01*
G01*
X153657500Y-97200000D01*
G75*
G02*
X153895000Y-97437500I0J-237500D01*
G01*
X153895000Y-98012500D01*
G75*
G02*
X153657500Y-98250000I-237500J0D01*
G01*
G37*
%TD*%
%TO.C,C2*%
G36*
G01*
X139980000Y-88937500D02*
X139980000Y-88462500D01*
G75*
G02*
X140217500Y-88225000I237500J0D01*
G01*
X140792500Y-88225000D01*
G75*
G02*
X141030000Y-88462500I0J-237500D01*
G01*
X141030000Y-88937500D01*
G75*
G02*
X140792500Y-89175000I-237500J0D01*
G01*
X140217500Y-89175000D01*
G75*
G02*
X139980000Y-88937500I0J237500D01*
G01*
G37*
G36*
G01*
X141730000Y-88937500D02*
X141730000Y-88462500D01*
G75*
G02*
X141967500Y-88225000I237500J0D01*
G01*
X142542500Y-88225000D01*
G75*
G02*
X142780000Y-88462500I0J-237500D01*
G01*
X142780000Y-88937500D01*
G75*
G02*
X142542500Y-89175000I-237500J0D01*
G01*
X141967500Y-89175000D01*
G75*
G02*
X141730000Y-88937500I0J237500D01*
G01*
G37*
%TD*%
%TO.C,C7*%
G36*
G01*
X151237500Y-98250000D02*
X150762500Y-98250000D01*
G75*
G02*
X150525000Y-98012500I0J237500D01*
G01*
X150525000Y-97437500D01*
G75*
G02*
X150762500Y-97200000I237500J0D01*
G01*
X151237500Y-97200000D01*
G75*
G02*
X151475000Y-97437500I0J-237500D01*
G01*
X151475000Y-98012500D01*
G75*
G02*
X151237500Y-98250000I-237500J0D01*
G01*
G37*
G36*
G01*
X151237500Y-100000000D02*
X150762500Y-100000000D01*
G75*
G02*
X150525000Y-99762500I0J237500D01*
G01*
X150525000Y-99187500D01*
G75*
G02*
X150762500Y-98950000I237500J0D01*
G01*
X151237500Y-98950000D01*
G75*
G02*
X151475000Y-99187500I0J-237500D01*
G01*
X151475000Y-99762500D01*
G75*
G02*
X151237500Y-100000000I-237500J0D01*
G01*
G37*
%TD*%
%TO.C,C8*%
G36*
G01*
X140637500Y-95800000D02*
X140162500Y-95800000D01*
G75*
G02*
X139925000Y-95562500I0J237500D01*
G01*
X139925000Y-94987500D01*
G75*
G02*
X140162500Y-94750000I237500J0D01*
G01*
X140637500Y-94750000D01*
G75*
G02*
X140875000Y-94987500I0J-237500D01*
G01*
X140875000Y-95562500D01*
G75*
G02*
X140637500Y-95800000I-237500J0D01*
G01*
G37*
G36*
G01*
X140637500Y-94050000D02*
X140162500Y-94050000D01*
G75*
G02*
X139925000Y-93812500I0J237500D01*
G01*
X139925000Y-93237500D01*
G75*
G02*
X140162500Y-93000000I237500J0D01*
G01*
X140637500Y-93000000D01*
G75*
G02*
X140875000Y-93237500I0J-237500D01*
G01*
X140875000Y-93812500D01*
G75*
G02*
X140637500Y-94050000I-237500J0D01*
G01*
G37*
%TD*%
%TO.C,C9*%
G36*
G01*
X156650000Y-86362500D02*
X156650000Y-86837500D01*
G75*
G02*
X156412500Y-87075000I-237500J0D01*
G01*
X155837500Y-87075000D01*
G75*
G02*
X155600000Y-86837500I0J237500D01*
G01*
X155600000Y-86362500D01*
G75*
G02*
X155837500Y-86125000I237500J0D01*
G01*
X156412500Y-86125000D01*
G75*
G02*
X156650000Y-86362500I0J-237500D01*
G01*
G37*
G36*
G01*
X158400000Y-86362500D02*
X158400000Y-86837500D01*
G75*
G02*
X158162500Y-87075000I-237500J0D01*
G01*
X157587500Y-87075000D01*
G75*
G02*
X157350000Y-86837500I0J237500D01*
G01*
X157350000Y-86362500D01*
G75*
G02*
X157587500Y-86125000I237500J0D01*
G01*
X158162500Y-86125000D01*
G75*
G02*
X158400000Y-86362500I0J-237500D01*
G01*
G37*
%TD*%
%TO.C,C12*%
X186500000Y-126950000D03*
X186500000Y-138050000D03*
%TD*%
%TO.C,C13*%
X187000000Y-86950000D03*
X187000000Y-98050000D03*
%TD*%
%TO.C,R4*%
G36*
G01*
X140637500Y-99800000D02*
X140162500Y-99800000D01*
G75*
G02*
X139925000Y-99562500I0J237500D01*
G01*
X139925000Y-98987500D01*
G75*
G02*
X140162500Y-98750000I237500J0D01*
G01*
X140637500Y-98750000D01*
G75*
G02*
X140875000Y-98987500I0J-237500D01*
G01*
X140875000Y-99562500D01*
G75*
G02*
X140637500Y-99800000I-237500J0D01*
G01*
G37*
G36*
G01*
X140637500Y-98050000D02*
X140162500Y-98050000D01*
G75*
G02*
X139925000Y-97812500I0J237500D01*
G01*
X139925000Y-97237500D01*
G75*
G02*
X140162500Y-97000000I237500J0D01*
G01*
X140637500Y-97000000D01*
G75*
G02*
X140875000Y-97237500I0J-237500D01*
G01*
X140875000Y-97812500D01*
G75*
G02*
X140637500Y-98050000I-237500J0D01*
G01*
G37*
%TD*%
%TO.C,R7*%
G36*
G01*
X158400000Y-83962500D02*
X158400000Y-84437500D01*
G75*
G02*
X158162500Y-84675000I-237500J0D01*
G01*
X157587500Y-84675000D01*
G75*
G02*
X157350000Y-84437500I0J237500D01*
G01*
X157350000Y-83962500D01*
G75*
G02*
X157587500Y-83725000I237500J0D01*
G01*
X158162500Y-83725000D01*
G75*
G02*
X158400000Y-83962500I0J-237500D01*
G01*
G37*
G36*
G01*
X156650000Y-83962500D02*
X156650000Y-84437500D01*
G75*
G02*
X156412500Y-84675000I-237500J0D01*
G01*
X155837500Y-84675000D01*
G75*
G02*
X155600000Y-84437500I0J237500D01*
G01*
X155600000Y-83962500D01*
G75*
G02*
X155837500Y-83725000I237500J0D01*
G01*
X156412500Y-83725000D01*
G75*
G02*
X156650000Y-83962500I0J-237500D01*
G01*
G37*
%TD*%
%TO.C,C3*%
G36*
G01*
X138047500Y-98030000D02*
X137572500Y-98030000D01*
G75*
G02*
X137335000Y-97792500I0J237500D01*
G01*
X137335000Y-97217500D01*
G75*
G02*
X137572500Y-96980000I237500J0D01*
G01*
X138047500Y-96980000D01*
G75*
G02*
X138285000Y-97217500I0J-237500D01*
G01*
X138285000Y-97792500D01*
G75*
G02*
X138047500Y-98030000I-237500J0D01*
G01*
G37*
G36*
G01*
X138047500Y-99780000D02*
X137572500Y-99780000D01*
G75*
G02*
X137335000Y-99542500I0J237500D01*
G01*
X137335000Y-98967500D01*
G75*
G02*
X137572500Y-98730000I237500J0D01*
G01*
X138047500Y-98730000D01*
G75*
G02*
X138285000Y-98967500I0J-237500D01*
G01*
X138285000Y-99542500D01*
G75*
G02*
X138047500Y-99780000I-237500J0D01*
G01*
G37*
%TD*%
%TO.C,C4*%
G36*
G01*
X149110000Y-123117500D02*
X149110000Y-122642500D01*
G75*
G02*
X149347500Y-122405000I237500J0D01*
G01*
X149922500Y-122405000D01*
G75*
G02*
X150160000Y-122642500I0J-237500D01*
G01*
X150160000Y-123117500D01*
G75*
G02*
X149922500Y-123355000I-237500J0D01*
G01*
X149347500Y-123355000D01*
G75*
G02*
X149110000Y-123117500I0J237500D01*
G01*
G37*
G36*
G01*
X150860000Y-123117500D02*
X150860000Y-122642500D01*
G75*
G02*
X151097500Y-122405000I237500J0D01*
G01*
X151672500Y-122405000D01*
G75*
G02*
X151910000Y-122642500I0J-237500D01*
G01*
X151910000Y-123117500D01*
G75*
G02*
X151672500Y-123355000I-237500J0D01*
G01*
X151097500Y-123355000D01*
G75*
G02*
X150860000Y-123117500I0J237500D01*
G01*
G37*
%TD*%
%TO.C,R1*%
G36*
G01*
X142800000Y-105762500D02*
X142800000Y-106237500D01*
G75*
G02*
X142562500Y-106475000I-237500J0D01*
G01*
X141987500Y-106475000D01*
G75*
G02*
X141750000Y-106237500I0J237500D01*
G01*
X141750000Y-105762500D01*
G75*
G02*
X141987500Y-105525000I237500J0D01*
G01*
X142562500Y-105525000D01*
G75*
G02*
X142800000Y-105762500I0J-237500D01*
G01*
G37*
G36*
G01*
X141050000Y-105762500D02*
X141050000Y-106237500D01*
G75*
G02*
X140812500Y-106475000I-237500J0D01*
G01*
X140237500Y-106475000D01*
G75*
G02*
X140000000Y-106237500I0J237500D01*
G01*
X140000000Y-105762500D01*
G75*
G02*
X140237500Y-105525000I237500J0D01*
G01*
X140812500Y-105525000D01*
G75*
G02*
X141050000Y-105762500I0J-237500D01*
G01*
G37*
%TD*%
%TO.C,R2*%
G36*
G01*
X150160000Y-120102500D02*
X150160000Y-120577500D01*
G75*
G02*
X149922500Y-120815000I-237500J0D01*
G01*
X149347500Y-120815000D01*
G75*
G02*
X149110000Y-120577500I0J237500D01*
G01*
X149110000Y-120102500D01*
G75*
G02*
X149347500Y-119865000I237500J0D01*
G01*
X149922500Y-119865000D01*
G75*
G02*
X150160000Y-120102500I0J-237500D01*
G01*
G37*
G36*
G01*
X151910000Y-120102500D02*
X151910000Y-120577500D01*
G75*
G02*
X151672500Y-120815000I-237500J0D01*
G01*
X151097500Y-120815000D01*
G75*
G02*
X150860000Y-120577500I0J237500D01*
G01*
X150860000Y-120102500D01*
G75*
G02*
X151097500Y-119865000I237500J0D01*
G01*
X151672500Y-119865000D01*
G75*
G02*
X151910000Y-120102500I0J-237500D01*
G01*
G37*
%TD*%
%TO.C,R5*%
G36*
G01*
X148637500Y-100000000D02*
X148162500Y-100000000D01*
G75*
G02*
X147925000Y-99762500I0J237500D01*
G01*
X147925000Y-99187500D01*
G75*
G02*
X148162500Y-98950000I237500J0D01*
G01*
X148637500Y-98950000D01*
G75*
G02*
X148875000Y-99187500I0J-237500D01*
G01*
X148875000Y-99762500D01*
G75*
G02*
X148637500Y-100000000I-237500J0D01*
G01*
G37*
G36*
G01*
X148637500Y-98250000D02*
X148162500Y-98250000D01*
G75*
G02*
X147925000Y-98012500I0J237500D01*
G01*
X147925000Y-97437500D01*
G75*
G02*
X148162500Y-97200000I237500J0D01*
G01*
X148637500Y-97200000D01*
G75*
G02*
X148875000Y-97437500I0J-237500D01*
G01*
X148875000Y-98012500D01*
G75*
G02*
X148637500Y-98250000I-237500J0D01*
G01*
G37*
%TD*%
D15*
%TO.C,L1*%
X162500000Y-97525000D03*
X162500000Y-106475000D03*
%TD*%
%TO.C,L2*%
X161500000Y-118025000D03*
X161500000Y-126975000D03*
%TD*%
%TO.C,R10*%
G36*
G01*
X162150000Y-81762500D02*
X162150000Y-82237500D01*
G75*
G02*
X161912500Y-82475000I-237500J0D01*
G01*
X161337500Y-82475000D01*
G75*
G02*
X161100000Y-82237500I0J237500D01*
G01*
X161100000Y-81762500D01*
G75*
G02*
X161337500Y-81525000I237500J0D01*
G01*
X161912500Y-81525000D01*
G75*
G02*
X162150000Y-81762500I0J-237500D01*
G01*
G37*
G36*
G01*
X160400000Y-81762500D02*
X160400000Y-82237500D01*
G75*
G02*
X160162500Y-82475000I-237500J0D01*
G01*
X159587500Y-82475000D01*
G75*
G02*
X159350000Y-82237500I0J237500D01*
G01*
X159350000Y-81762500D01*
G75*
G02*
X159587500Y-81525000I237500J0D01*
G01*
X160162500Y-81525000D01*
G75*
G02*
X160400000Y-81762500I0J-237500D01*
G01*
G37*
%TD*%
M02*
