M48
; DRILL file {KiCad (5.1.6)-1} date 11/07/20 14:41:53
; FORMAT={-:-/ absolute / inch / decimal}
; #@! TF.CreationDate,2020-11-07T14:41:53+05:30
; #@! TF.GenerationSoftware,Kicad,Pcbnew,(5.1.6)-1
; #@! TF.FileFunction,Plated,1,4,PTH
FMAT,2
INCH
T1C0.0157
T2C0.0394
T3C0.0433
T4C0.1260
%
G90
G05
T1
X4.685Y-4.1732
X4.685Y-4.252
X4.685Y-4.3307
X4.685Y-4.4094
X4.685Y-4.4882
X4.685Y-4.5669
X4.685Y-4.6457
X4.685Y-4.7244
X4.685Y-4.8031
X4.8819Y-4.9213
X4.8819Y-5.0
X4.8819Y-5.3937
X4.8819Y-5.4724
X4.9606Y-3.8976
X4.9606Y-4.9213
X4.9606Y-5.0
X4.9606Y-5.3937
X4.9606Y-5.4724
X5.0394Y-5.3937
X5.0394Y-5.4724
X5.0469Y-4.2988
X5.0787Y-4.9213
X5.0787Y-5.0
X5.1181Y-3.9469
X5.1181Y-4.2421
X5.1181Y-5.3937
X5.1181Y-5.4724
X5.1575Y-4.9213
X5.1673Y-3.5827
X5.1969Y-5.0
X5.1969Y-5.3937
X5.1969Y-5.4724
X5.3543Y-4.3307
X5.3543Y-4.4094
X5.3543Y-4.9213
X5.3543Y-5.0
X5.3543Y-5.5512
X5.3543Y-5.6299
X5.3642Y-3.8386
X5.372Y-4.2559
X5.3858Y-3.5984
X5.4331Y-3.9803
X5.4331Y-4.3307
X5.4331Y-4.4094
X5.4331Y-4.4882
X5.4331Y-4.5669
X5.4331Y-5.5512
X5.4331Y-5.6299
X5.4606Y-3.4055
X5.4606Y-4.2559
X5.4724Y-4.9213
X5.494Y-4.1123
X5.5118Y-4.3307
X5.5118Y-4.4094
X5.5118Y-4.4882
X5.5118Y-4.5669
X5.5118Y-5.5512
X5.5118Y-5.6299
X5.5295Y-4.2559
X5.5512Y-4.9213
X5.5906Y-4.5669
X5.5906Y-5.5512
X5.5906Y-5.6299
X5.6299Y-4.9213
X5.6299Y-5.0
X5.6693Y-3.3858
X5.6693Y-3.4646
X5.6693Y-3.5433
X5.6693Y-3.622
X5.6693Y-3.7008
X5.6693Y-3.7795
X5.6693Y-4.5669
X5.7087Y-4.1732
X5.7126Y-4.0669
X5.748Y-3.7795
X5.748Y-5.5906
X5.748Y-5.6693
X5.7874Y-4.9213
X5.7874Y-5.0
X5.8268Y-4.8425
X5.8268Y-5.5906
X5.8268Y-5.6693
X5.8366Y-3.7795
X5.8366Y-4.0256
X5.8661Y-4.9213
X5.8799Y-4.2415
X5.8799Y-4.3201
X5.8799Y-4.3882
X5.9Y-4.1
X5.9055Y-5.5906
X5.9055Y-5.6693
X5.9311Y-4.2415
X5.9311Y-4.3189
X5.9311Y-4.3888
X5.9449Y-3.7795
X5.9449Y-4.9213
X5.9449Y-5.0
X5.9656Y-4.0089
X5.9665Y-3.5217
X5.9754Y-3.69
X5.9843Y-5.5906
X5.9843Y-5.6693
X6.0335Y-3.4449
X6.0583Y-4.8378
X6.063Y-4.0059
X6.063Y-4.1102
X6.063Y-4.189
X6.0728Y-3.3071
X6.1024Y-4.2224
X6.1024Y-4.2717
X6.1969Y-3.5906
X6.2156Y-3.5108
X6.2943Y-3.3711
X6.9291Y-4.3307
X6.9291Y-4.4094
X6.9685Y-4.685
X6.9882Y-4.0748
X7.0079Y-4.3307
X7.0079Y-4.4094
X7.0472Y-3.2283
X7.0669Y-5.6299
X7.0866Y-4.3307
X7.0866Y-4.4094
X7.126Y-3.2283
X7.1654Y-4.3307
X7.1654Y-4.4094
X7.1654Y-5.6299
X7.2047Y-3.2283
X7.2441Y-4.3307
X7.2441Y-4.4094
X7.2638Y-5.6299
X7.2835Y-3.2283
X7.3622Y-3.2283
X7.3622Y-4.3701
X7.3622Y-5.6299
X7.4409Y-3.2283
X7.4409Y-4.3701
X7.4606Y-5.6299
X7.5197Y-3.2283
X7.5197Y-4.3701
X7.5591Y-5.6299
X7.5984Y-3.2283
X7.5984Y-4.3701
X7.6575Y-5.6299
X7.6772Y-3.2283
X7.6772Y-4.3701
X7.7559Y-3.2283
X7.7559Y-4.2913
X7.7559Y-4.3701
X7.7559Y-4.4488
X7.7559Y-5.6299
X7.8346Y-3.2283
X7.8346Y-4.2913
X7.8346Y-4.3701
X7.8346Y-4.4488
X7.8543Y-5.6299
X7.9134Y-3.2283
X7.9528Y-5.6299
X8.0118Y-3.2283
X8.0512Y-5.6299
X8.1102Y-3.2283
X8.1496Y-5.6299
X8.2087Y-3.2283
X8.248Y-5.6299
T2
X4.8386Y-4.1654
X4.8386Y-4.2654
X4.8386Y-4.3654
X4.8386Y-4.4654
X4.8386Y-4.5654
X4.8386Y-4.6654
X4.8386Y-4.7654
X4.9386Y-4.1654
X4.9386Y-4.2654
X4.9386Y-4.3654
X4.9386Y-4.4654
X4.9386Y-4.5654
X4.9386Y-4.6654
X4.9386Y-4.7654
T3
X7.4965Y-4.1378
X7.4965Y-4.2378
X5.0689Y-5.128
X5.0689Y-5.228
X7.5043Y-4.5157
X7.5043Y-4.6157
T4
X4.3307Y-5.5512
X4.3307Y-3.2677
X8.6614Y-5.5512
X8.6614Y-3.2677
T0
M30
