%TF.GenerationSoftware,KiCad,Pcbnew,(5.1.6)-1*%
%TF.CreationDate,2020-11-07T14:41:46+05:30*%
%TF.ProjectId,LT8652,4c543836-3532-42e6-9b69-6361645f7063,rev?*%
%TF.SameCoordinates,Original*%
%TF.FileFunction,Soldermask,Top*%
%TF.FilePolarity,Negative*%
%FSLAX46Y46*%
G04 Gerber Fmt 4.6, Leading zero omitted, Abs format (unit mm)*
G04 Created by KiCad (PCBNEW (5.1.6)-1) date 2020-11-07 14:41:46*
%MOMM*%
%LPD*%
G01*
G04 APERTURE LIST*
%ADD10C,5.800000*%
%ADD11C,2.100000*%
%ADD12R,0.800000X0.350000*%
%ADD13R,0.350000X0.800000*%
%ADD14R,1.200000X1.770000*%
%ADD15R,0.475000X0.475000*%
%ADD16R,2.300000X5.600000*%
%ADD17O,1.800000X1.800000*%
%ADD18R,1.800000X1.800000*%
%ADD19C,2.200000*%
%ADD20R,2.200000X2.200000*%
%ADD21R,3.600000X3.650000*%
G04 APERTURE END LIST*
D10*
%TO.C,REF\u002A\u002A*%
X220000000Y-141000000D03*
%TD*%
%TO.C,REF\u002A\u002A*%
X110000000Y-141000000D03*
%TD*%
%TO.C,REF\u002A\u002A*%
X110000000Y-83000000D03*
%TD*%
%TO.C,REF\u002A\u002A*%
X220000000Y-83000000D03*
%TD*%
D11*
%TO.C,L1S1*%
X162500000Y-92500000D03*
%TD*%
%TO.C,R14*%
G36*
G01*
X175175000Y-128458608D02*
X175175000Y-125541392D01*
G75*
G02*
X175441392Y-125275000I266392J0D01*
G01*
X176533608Y-125275000D01*
G75*
G02*
X176800000Y-125541392I0J-266392D01*
G01*
X176800000Y-128458608D01*
G75*
G02*
X176533608Y-128725000I-266392J0D01*
G01*
X175441392Y-128725000D01*
G75*
G02*
X175175000Y-128458608I0J266392D01*
G01*
G37*
G36*
G01*
X169200000Y-128458608D02*
X169200000Y-125541392D01*
G75*
G02*
X169466392Y-125275000I266392J0D01*
G01*
X170558608Y-125275000D01*
G75*
G02*
X170825000Y-125541392I0J-266392D01*
G01*
X170825000Y-128458608D01*
G75*
G02*
X170558608Y-128725000I-266392J0D01*
G01*
X169466392Y-128725000D01*
G75*
G02*
X169200000Y-128458608I0J266392D01*
G01*
G37*
%TD*%
%TO.C,R13*%
G36*
G01*
X176175000Y-99458608D02*
X176175000Y-96541392D01*
G75*
G02*
X176441392Y-96275000I266392J0D01*
G01*
X177533608Y-96275000D01*
G75*
G02*
X177800000Y-96541392I0J-266392D01*
G01*
X177800000Y-99458608D01*
G75*
G02*
X177533608Y-99725000I-266392J0D01*
G01*
X176441392Y-99725000D01*
G75*
G02*
X176175000Y-99458608I0J266392D01*
G01*
G37*
G36*
G01*
X170200000Y-99458608D02*
X170200000Y-96541392D01*
G75*
G02*
X170466392Y-96275000I266392J0D01*
G01*
X171558608Y-96275000D01*
G75*
G02*
X171825000Y-96541392I0J-266392D01*
G01*
X171825000Y-99458608D01*
G75*
G02*
X171558608Y-99725000I-266392J0D01*
G01*
X170466392Y-99725000D01*
G75*
G02*
X170200000Y-99458608I0J266392D01*
G01*
G37*
%TD*%
%TO.C,L2S1*%
X169500000Y-132500000D03*
%TD*%
D12*
%TO.C,IC1*%
X148100001Y-106855000D03*
X148100001Y-107355000D03*
X148100001Y-107855000D03*
X148100001Y-108355000D03*
X148100001Y-108855000D03*
X148100001Y-109355000D03*
X148100001Y-109855000D03*
X148100001Y-110355000D03*
X148100001Y-110855000D03*
X148100001Y-111355000D03*
X148100001Y-111855000D03*
X148100001Y-112355000D03*
D13*
X148750001Y-113005000D03*
X149250001Y-113005000D03*
X149750001Y-113005000D03*
X150250001Y-113005000D03*
X150750001Y-113005000D03*
X151250001Y-113005000D03*
D12*
X151900001Y-112355000D03*
X151900001Y-111855000D03*
X151900001Y-111355000D03*
X151900001Y-110855000D03*
X151900001Y-110355000D03*
X151900001Y-109855000D03*
X151900001Y-109355000D03*
X151900001Y-108855000D03*
X151900001Y-108355000D03*
X151900001Y-107855000D03*
X151900001Y-107355000D03*
X151900001Y-106855000D03*
D13*
X151250001Y-106205000D03*
X150750001Y-106205000D03*
X150250001Y-106205000D03*
X149750001Y-106205000D03*
X149250001Y-106205000D03*
X148750001Y-106205000D03*
D14*
X149350001Y-107735000D03*
X150650001Y-107735000D03*
X149350001Y-109605000D03*
X150650001Y-109605000D03*
X149350001Y-111475000D03*
X150650001Y-111475000D03*
D15*
X148187001Y-106292000D03*
X148187001Y-112918000D03*
X151813001Y-112918000D03*
X151813001Y-106292000D03*
%TD*%
%TO.C,R8*%
G36*
G01*
X145862500Y-98300000D02*
X145337500Y-98300000D01*
G75*
G02*
X145075000Y-98037500I0J262500D01*
G01*
X145075000Y-97412500D01*
G75*
G02*
X145337500Y-97150000I262500J0D01*
G01*
X145862500Y-97150000D01*
G75*
G02*
X146125000Y-97412500I0J-262500D01*
G01*
X146125000Y-98037500D01*
G75*
G02*
X145862500Y-98300000I-262500J0D01*
G01*
G37*
G36*
G01*
X145862500Y-100050000D02*
X145337500Y-100050000D01*
G75*
G02*
X145075000Y-99787500I0J262500D01*
G01*
X145075000Y-99162500D01*
G75*
G02*
X145337500Y-98900000I262500J0D01*
G01*
X145862500Y-98900000D01*
G75*
G02*
X146125000Y-99162500I0J-262500D01*
G01*
X146125000Y-99787500D01*
G75*
G02*
X145862500Y-100050000I-262500J0D01*
G01*
G37*
%TD*%
%TO.C,C21*%
G36*
G01*
X142737500Y-112800000D02*
X143262500Y-112800000D01*
G75*
G02*
X143525000Y-113062500I0J-262500D01*
G01*
X143525000Y-113687500D01*
G75*
G02*
X143262500Y-113950000I-262500J0D01*
G01*
X142737500Y-113950000D01*
G75*
G02*
X142475000Y-113687500I0J262500D01*
G01*
X142475000Y-113062500D01*
G75*
G02*
X142737500Y-112800000I262500J0D01*
G01*
G37*
G36*
G01*
X142737500Y-111050000D02*
X143262500Y-111050000D01*
G75*
G02*
X143525000Y-111312500I0J-262500D01*
G01*
X143525000Y-111937500D01*
G75*
G02*
X143262500Y-112200000I-262500J0D01*
G01*
X142737500Y-112200000D01*
G75*
G02*
X142475000Y-111937500I0J262500D01*
G01*
X142475000Y-111312500D01*
G75*
G02*
X142737500Y-111050000I262500J0D01*
G01*
G37*
%TD*%
%TO.C,C20*%
G36*
G01*
X137710000Y-135200000D02*
X139790000Y-135200000D01*
G75*
G02*
X140050000Y-135460000I0J-260000D01*
G01*
X140050000Y-139440000D01*
G75*
G02*
X139790000Y-139700000I-260000J0D01*
G01*
X137710000Y-139700000D01*
G75*
G02*
X137450000Y-139440000I0J260000D01*
G01*
X137450000Y-135460000D01*
G75*
G02*
X137710000Y-135200000I260000J0D01*
G01*
G37*
G36*
G01*
X137710000Y-127800000D02*
X139790000Y-127800000D01*
G75*
G02*
X140050000Y-128060000I0J-260000D01*
G01*
X140050000Y-132040000D01*
G75*
G02*
X139790000Y-132300000I-260000J0D01*
G01*
X137710000Y-132300000D01*
G75*
G02*
X137450000Y-132040000I0J260000D01*
G01*
X137450000Y-128060000D01*
G75*
G02*
X137710000Y-127800000I260000J0D01*
G01*
G37*
%TD*%
D16*
%TO.C,C19*%
X204000000Y-138050000D03*
X204000000Y-126950000D03*
%TD*%
%TO.C,C18*%
X203500000Y-86890000D03*
X203500000Y-97990000D03*
%TD*%
%TO.C,C17*%
G36*
G01*
X178472500Y-115410000D02*
X177947500Y-115410000D01*
G75*
G02*
X177685000Y-115147500I0J262500D01*
G01*
X177685000Y-114522500D01*
G75*
G02*
X177947500Y-114260000I262500J0D01*
G01*
X178472500Y-114260000D01*
G75*
G02*
X178735000Y-114522500I0J-262500D01*
G01*
X178735000Y-115147500D01*
G75*
G02*
X178472500Y-115410000I-262500J0D01*
G01*
G37*
G36*
G01*
X178472500Y-117160000D02*
X177947500Y-117160000D01*
G75*
G02*
X177685000Y-116897500I0J262500D01*
G01*
X177685000Y-116272500D01*
G75*
G02*
X177947500Y-116010000I262500J0D01*
G01*
X178472500Y-116010000D01*
G75*
G02*
X178735000Y-116272500I0J-262500D01*
G01*
X178735000Y-116897500D01*
G75*
G02*
X178472500Y-117160000I-262500J0D01*
G01*
G37*
%TD*%
%TO.C,C16*%
G36*
G01*
X182837500Y-107000000D02*
X183362500Y-107000000D01*
G75*
G02*
X183625000Y-107262500I0J-262500D01*
G01*
X183625000Y-107887500D01*
G75*
G02*
X183362500Y-108150000I-262500J0D01*
G01*
X182837500Y-108150000D01*
G75*
G02*
X182575000Y-107887500I0J262500D01*
G01*
X182575000Y-107262500D01*
G75*
G02*
X182837500Y-107000000I262500J0D01*
G01*
G37*
G36*
G01*
X182837500Y-105250000D02*
X183362500Y-105250000D01*
G75*
G02*
X183625000Y-105512500I0J-262500D01*
G01*
X183625000Y-106137500D01*
G75*
G02*
X183362500Y-106400000I-262500J0D01*
G01*
X182837500Y-106400000D01*
G75*
G02*
X182575000Y-106137500I0J262500D01*
G01*
X182575000Y-105512500D01*
G75*
G02*
X182837500Y-105250000I262500J0D01*
G01*
G37*
%TD*%
%TO.C,C14*%
G36*
G01*
X147960000Y-135450000D02*
X150040000Y-135450000D01*
G75*
G02*
X150300000Y-135710000I0J-260000D01*
G01*
X150300000Y-139690000D01*
G75*
G02*
X150040000Y-139950000I-260000J0D01*
G01*
X147960000Y-139950000D01*
G75*
G02*
X147700000Y-139690000I0J260000D01*
G01*
X147700000Y-135710000D01*
G75*
G02*
X147960000Y-135450000I260000J0D01*
G01*
G37*
G36*
G01*
X147960000Y-128050000D02*
X150040000Y-128050000D01*
G75*
G02*
X150300000Y-128310000I0J-260000D01*
G01*
X150300000Y-132290000D01*
G75*
G02*
X150040000Y-132550000I-260000J0D01*
G01*
X147960000Y-132550000D01*
G75*
G02*
X147700000Y-132290000I0J260000D01*
G01*
X147700000Y-128310000D01*
G75*
G02*
X147960000Y-128050000I260000J0D01*
G01*
G37*
%TD*%
%TO.C,C6*%
G36*
G01*
X177507500Y-107000000D02*
X178032500Y-107000000D01*
G75*
G02*
X178295000Y-107262500I0J-262500D01*
G01*
X178295000Y-107887500D01*
G75*
G02*
X178032500Y-108150000I-262500J0D01*
G01*
X177507500Y-108150000D01*
G75*
G02*
X177245000Y-107887500I0J262500D01*
G01*
X177245000Y-107262500D01*
G75*
G02*
X177507500Y-107000000I262500J0D01*
G01*
G37*
G36*
G01*
X177507500Y-105250000D02*
X178032500Y-105250000D01*
G75*
G02*
X178295000Y-105512500I0J-262500D01*
G01*
X178295000Y-106137500D01*
G75*
G02*
X178032500Y-106400000I-262500J0D01*
G01*
X177507500Y-106400000D01*
G75*
G02*
X177245000Y-106137500I0J262500D01*
G01*
X177245000Y-105512500D01*
G75*
G02*
X177507500Y-105250000I262500J0D01*
G01*
G37*
%TD*%
%TO.C,R12*%
G36*
G01*
X153662500Y-90025000D02*
X153137500Y-90025000D01*
G75*
G02*
X152875000Y-89762500I0J262500D01*
G01*
X152875000Y-89137500D01*
G75*
G02*
X153137500Y-88875000I262500J0D01*
G01*
X153662500Y-88875000D01*
G75*
G02*
X153925000Y-89137500I0J-262500D01*
G01*
X153925000Y-89762500D01*
G75*
G02*
X153662500Y-90025000I-262500J0D01*
G01*
G37*
G36*
G01*
X153662500Y-91775000D02*
X153137500Y-91775000D01*
G75*
G02*
X152875000Y-91512500I0J262500D01*
G01*
X152875000Y-90887500D01*
G75*
G02*
X153137500Y-90625000I262500J0D01*
G01*
X153662500Y-90625000D01*
G75*
G02*
X153925000Y-90887500I0J-262500D01*
G01*
X153925000Y-91512500D01*
G75*
G02*
X153662500Y-91775000I-262500J0D01*
G01*
G37*
%TD*%
%TO.C,R11*%
G36*
G01*
X141100000Y-86137500D02*
X141100000Y-86662500D01*
G75*
G02*
X140837500Y-86925000I-262500J0D01*
G01*
X140212500Y-86925000D01*
G75*
G02*
X139950000Y-86662500I0J262500D01*
G01*
X139950000Y-86137500D01*
G75*
G02*
X140212500Y-85875000I262500J0D01*
G01*
X140837500Y-85875000D01*
G75*
G02*
X141100000Y-86137500I0J-262500D01*
G01*
G37*
G36*
G01*
X142850000Y-86137500D02*
X142850000Y-86662500D01*
G75*
G02*
X142587500Y-86925000I-262500J0D01*
G01*
X141962500Y-86925000D01*
G75*
G02*
X141700000Y-86662500I0J262500D01*
G01*
X141700000Y-86137500D01*
G75*
G02*
X141962500Y-85875000I262500J0D01*
G01*
X142587500Y-85875000D01*
G75*
G02*
X142850000Y-86137500I0J-262500D01*
G01*
G37*
%TD*%
%TO.C,C11*%
G36*
G01*
X183592500Y-115400000D02*
X183067500Y-115400000D01*
G75*
G02*
X182805000Y-115137500I0J262500D01*
G01*
X182805000Y-114512500D01*
G75*
G02*
X183067500Y-114250000I262500J0D01*
G01*
X183592500Y-114250000D01*
G75*
G02*
X183855000Y-114512500I0J-262500D01*
G01*
X183855000Y-115137500D01*
G75*
G02*
X183592500Y-115400000I-262500J0D01*
G01*
G37*
G36*
G01*
X183592500Y-117150000D02*
X183067500Y-117150000D01*
G75*
G02*
X182805000Y-116887500I0J262500D01*
G01*
X182805000Y-116262500D01*
G75*
G02*
X183067500Y-116000000I262500J0D01*
G01*
X183592500Y-116000000D01*
G75*
G02*
X183855000Y-116262500I0J-262500D01*
G01*
X183855000Y-116887500D01*
G75*
G02*
X183592500Y-117150000I-262500J0D01*
G01*
G37*
%TD*%
D11*
%TO.C,PG2*%
X129950000Y-118250000D03*
%TD*%
%TO.C,PG1*%
X130500000Y-122300000D03*
%TD*%
%TO.C,VC1*%
X126000000Y-102000000D03*
%TD*%
%TO.C,VC2*%
X129400000Y-113300000D03*
%TD*%
D17*
%TO.C,J4*%
X125440000Y-121040000D03*
X122900000Y-121040000D03*
X125440000Y-118500000D03*
X122900000Y-118500000D03*
X125440000Y-115960000D03*
X122900000Y-115960000D03*
X125440000Y-113420000D03*
X122900000Y-113420000D03*
X125440000Y-110880000D03*
X122900000Y-110880000D03*
X125440000Y-108340000D03*
X122900000Y-108340000D03*
X125440000Y-105800000D03*
D18*
X122900000Y-105800000D03*
%TD*%
D19*
%TO.C,J3*%
X190610000Y-114700000D03*
D20*
X190610000Y-117240000D03*
%TD*%
D19*
%TO.C,J2*%
X190410000Y-107640000D03*
D20*
X190410000Y-105100000D03*
%TD*%
D19*
%TO.C,J1*%
X128750000Y-132790000D03*
D20*
X128750000Y-130250000D03*
%TD*%
%TO.C,R9*%
G36*
G01*
X130262500Y-103950000D02*
X129737500Y-103950000D01*
G75*
G02*
X129475000Y-103687500I0J262500D01*
G01*
X129475000Y-103062500D01*
G75*
G02*
X129737500Y-102800000I262500J0D01*
G01*
X130262500Y-102800000D01*
G75*
G02*
X130525000Y-103062500I0J-262500D01*
G01*
X130525000Y-103687500D01*
G75*
G02*
X130262500Y-103950000I-262500J0D01*
G01*
G37*
G36*
G01*
X130262500Y-105700000D02*
X129737500Y-105700000D01*
G75*
G02*
X129475000Y-105437500I0J262500D01*
G01*
X129475000Y-104812500D01*
G75*
G02*
X129737500Y-104550000I262500J0D01*
G01*
X130262500Y-104550000D01*
G75*
G02*
X130525000Y-104812500I0J-262500D01*
G01*
X130525000Y-105437500D01*
G75*
G02*
X130262500Y-105700000I-262500J0D01*
G01*
G37*
%TD*%
%TO.C,R3*%
G36*
G01*
X160450000Y-88487500D02*
X160450000Y-89012500D01*
G75*
G02*
X160187500Y-89275000I-262500J0D01*
G01*
X159562500Y-89275000D01*
G75*
G02*
X159300000Y-89012500I0J262500D01*
G01*
X159300000Y-88487500D01*
G75*
G02*
X159562500Y-88225000I262500J0D01*
G01*
X160187500Y-88225000D01*
G75*
G02*
X160450000Y-88487500I0J-262500D01*
G01*
G37*
G36*
G01*
X162200000Y-88487500D02*
X162200000Y-89012500D01*
G75*
G02*
X161937500Y-89275000I-262500J0D01*
G01*
X161312500Y-89275000D01*
G75*
G02*
X161050000Y-89012500I0J262500D01*
G01*
X161050000Y-88487500D01*
G75*
G02*
X161312500Y-88225000I262500J0D01*
G01*
X161937500Y-88225000D01*
G75*
G02*
X162200000Y-88487500I0J-262500D01*
G01*
G37*
%TD*%
D11*
%TO.C,SW1*%
X167000000Y-112500000D03*
%TD*%
%TO.C,SW2*%
X152000000Y-117750000D03*
%TD*%
%TO.C,C15*%
G36*
G01*
X143352500Y-108575000D02*
X142827500Y-108575000D01*
G75*
G02*
X142565000Y-108312500I0J262500D01*
G01*
X142565000Y-107687500D01*
G75*
G02*
X142827500Y-107425000I262500J0D01*
G01*
X143352500Y-107425000D01*
G75*
G02*
X143615000Y-107687500I0J-262500D01*
G01*
X143615000Y-108312500D01*
G75*
G02*
X143352500Y-108575000I-262500J0D01*
G01*
G37*
G36*
G01*
X143352500Y-110325000D02*
X142827500Y-110325000D01*
G75*
G02*
X142565000Y-110062500I0J262500D01*
G01*
X142565000Y-109437500D01*
G75*
G02*
X142827500Y-109175000I262500J0D01*
G01*
X143352500Y-109175000D01*
G75*
G02*
X143615000Y-109437500I0J-262500D01*
G01*
X143615000Y-110062500D01*
G75*
G02*
X143352500Y-110325000I-262500J0D01*
G01*
G37*
%TD*%
%TO.C,C10*%
G36*
G01*
X153662500Y-96050000D02*
X153137500Y-96050000D01*
G75*
G02*
X152875000Y-95787500I0J262500D01*
G01*
X152875000Y-95162500D01*
G75*
G02*
X153137500Y-94900000I262500J0D01*
G01*
X153662500Y-94900000D01*
G75*
G02*
X153925000Y-95162500I0J-262500D01*
G01*
X153925000Y-95787500D01*
G75*
G02*
X153662500Y-96050000I-262500J0D01*
G01*
G37*
G36*
G01*
X153662500Y-94300000D02*
X153137500Y-94300000D01*
G75*
G02*
X152875000Y-94037500I0J262500D01*
G01*
X152875000Y-93412500D01*
G75*
G02*
X153137500Y-93150000I262500J0D01*
G01*
X153662500Y-93150000D01*
G75*
G02*
X153925000Y-93412500I0J-262500D01*
G01*
X153925000Y-94037500D01*
G75*
G02*
X153662500Y-94300000I-262500J0D01*
G01*
G37*
%TD*%
%TO.C,C1*%
G36*
G01*
X141680000Y-91502500D02*
X141680000Y-90977500D01*
G75*
G02*
X141942500Y-90715000I262500J0D01*
G01*
X142567500Y-90715000D01*
G75*
G02*
X142830000Y-90977500I0J-262500D01*
G01*
X142830000Y-91502500D01*
G75*
G02*
X142567500Y-91765000I-262500J0D01*
G01*
X141942500Y-91765000D01*
G75*
G02*
X141680000Y-91502500I0J262500D01*
G01*
G37*
G36*
G01*
X139930000Y-91502500D02*
X139930000Y-90977500D01*
G75*
G02*
X140192500Y-90715000I262500J0D01*
G01*
X140817500Y-90715000D01*
G75*
G02*
X141080000Y-90977500I0J-262500D01*
G01*
X141080000Y-91502500D01*
G75*
G02*
X140817500Y-91765000I-262500J0D01*
G01*
X140192500Y-91765000D01*
G75*
G02*
X139930000Y-91502500I0J262500D01*
G01*
G37*
%TD*%
%TO.C,C5*%
G36*
G01*
X143062500Y-99850000D02*
X142537500Y-99850000D01*
G75*
G02*
X142275000Y-99587500I0J262500D01*
G01*
X142275000Y-98962500D01*
G75*
G02*
X142537500Y-98700000I262500J0D01*
G01*
X143062500Y-98700000D01*
G75*
G02*
X143325000Y-98962500I0J-262500D01*
G01*
X143325000Y-99587500D01*
G75*
G02*
X143062500Y-99850000I-262500J0D01*
G01*
G37*
G36*
G01*
X143062500Y-98100000D02*
X142537500Y-98100000D01*
G75*
G02*
X142275000Y-97837500I0J262500D01*
G01*
X142275000Y-97212500D01*
G75*
G02*
X142537500Y-96950000I262500J0D01*
G01*
X143062500Y-96950000D01*
G75*
G02*
X143325000Y-97212500I0J-262500D01*
G01*
X143325000Y-97837500D01*
G75*
G02*
X143062500Y-98100000I-262500J0D01*
G01*
G37*
%TD*%
%TO.C,R6*%
G36*
G01*
X153682500Y-100050000D02*
X153157500Y-100050000D01*
G75*
G02*
X152895000Y-99787500I0J262500D01*
G01*
X152895000Y-99162500D01*
G75*
G02*
X153157500Y-98900000I262500J0D01*
G01*
X153682500Y-98900000D01*
G75*
G02*
X153945000Y-99162500I0J-262500D01*
G01*
X153945000Y-99787500D01*
G75*
G02*
X153682500Y-100050000I-262500J0D01*
G01*
G37*
G36*
G01*
X153682500Y-98300000D02*
X153157500Y-98300000D01*
G75*
G02*
X152895000Y-98037500I0J262500D01*
G01*
X152895000Y-97412500D01*
G75*
G02*
X153157500Y-97150000I262500J0D01*
G01*
X153682500Y-97150000D01*
G75*
G02*
X153945000Y-97412500I0J-262500D01*
G01*
X153945000Y-98037500D01*
G75*
G02*
X153682500Y-98300000I-262500J0D01*
G01*
G37*
%TD*%
%TO.C,C2*%
G36*
G01*
X139930000Y-88962500D02*
X139930000Y-88437500D01*
G75*
G02*
X140192500Y-88175000I262500J0D01*
G01*
X140817500Y-88175000D01*
G75*
G02*
X141080000Y-88437500I0J-262500D01*
G01*
X141080000Y-88962500D01*
G75*
G02*
X140817500Y-89225000I-262500J0D01*
G01*
X140192500Y-89225000D01*
G75*
G02*
X139930000Y-88962500I0J262500D01*
G01*
G37*
G36*
G01*
X141680000Y-88962500D02*
X141680000Y-88437500D01*
G75*
G02*
X141942500Y-88175000I262500J0D01*
G01*
X142567500Y-88175000D01*
G75*
G02*
X142830000Y-88437500I0J-262500D01*
G01*
X142830000Y-88962500D01*
G75*
G02*
X142567500Y-89225000I-262500J0D01*
G01*
X141942500Y-89225000D01*
G75*
G02*
X141680000Y-88962500I0J262500D01*
G01*
G37*
%TD*%
%TO.C,C7*%
G36*
G01*
X151262500Y-98300000D02*
X150737500Y-98300000D01*
G75*
G02*
X150475000Y-98037500I0J262500D01*
G01*
X150475000Y-97412500D01*
G75*
G02*
X150737500Y-97150000I262500J0D01*
G01*
X151262500Y-97150000D01*
G75*
G02*
X151525000Y-97412500I0J-262500D01*
G01*
X151525000Y-98037500D01*
G75*
G02*
X151262500Y-98300000I-262500J0D01*
G01*
G37*
G36*
G01*
X151262500Y-100050000D02*
X150737500Y-100050000D01*
G75*
G02*
X150475000Y-99787500I0J262500D01*
G01*
X150475000Y-99162500D01*
G75*
G02*
X150737500Y-98900000I262500J0D01*
G01*
X151262500Y-98900000D01*
G75*
G02*
X151525000Y-99162500I0J-262500D01*
G01*
X151525000Y-99787500D01*
G75*
G02*
X151262500Y-100050000I-262500J0D01*
G01*
G37*
%TD*%
%TO.C,C8*%
G36*
G01*
X140662500Y-95850000D02*
X140137500Y-95850000D01*
G75*
G02*
X139875000Y-95587500I0J262500D01*
G01*
X139875000Y-94962500D01*
G75*
G02*
X140137500Y-94700000I262500J0D01*
G01*
X140662500Y-94700000D01*
G75*
G02*
X140925000Y-94962500I0J-262500D01*
G01*
X140925000Y-95587500D01*
G75*
G02*
X140662500Y-95850000I-262500J0D01*
G01*
G37*
G36*
G01*
X140662500Y-94100000D02*
X140137500Y-94100000D01*
G75*
G02*
X139875000Y-93837500I0J262500D01*
G01*
X139875000Y-93212500D01*
G75*
G02*
X140137500Y-92950000I262500J0D01*
G01*
X140662500Y-92950000D01*
G75*
G02*
X140925000Y-93212500I0J-262500D01*
G01*
X140925000Y-93837500D01*
G75*
G02*
X140662500Y-94100000I-262500J0D01*
G01*
G37*
%TD*%
%TO.C,C9*%
G36*
G01*
X156700000Y-86337500D02*
X156700000Y-86862500D01*
G75*
G02*
X156437500Y-87125000I-262500J0D01*
G01*
X155812500Y-87125000D01*
G75*
G02*
X155550000Y-86862500I0J262500D01*
G01*
X155550000Y-86337500D01*
G75*
G02*
X155812500Y-86075000I262500J0D01*
G01*
X156437500Y-86075000D01*
G75*
G02*
X156700000Y-86337500I0J-262500D01*
G01*
G37*
G36*
G01*
X158450000Y-86337500D02*
X158450000Y-86862500D01*
G75*
G02*
X158187500Y-87125000I-262500J0D01*
G01*
X157562500Y-87125000D01*
G75*
G02*
X157300000Y-86862500I0J262500D01*
G01*
X157300000Y-86337500D01*
G75*
G02*
X157562500Y-86075000I262500J0D01*
G01*
X158187500Y-86075000D01*
G75*
G02*
X158450000Y-86337500I0J-262500D01*
G01*
G37*
%TD*%
D16*
%TO.C,C12*%
X186500000Y-126950000D03*
X186500000Y-138050000D03*
%TD*%
%TO.C,C13*%
X187000000Y-86950000D03*
X187000000Y-98050000D03*
%TD*%
%TO.C,R4*%
G36*
G01*
X140662500Y-99850000D02*
X140137500Y-99850000D01*
G75*
G02*
X139875000Y-99587500I0J262500D01*
G01*
X139875000Y-98962500D01*
G75*
G02*
X140137500Y-98700000I262500J0D01*
G01*
X140662500Y-98700000D01*
G75*
G02*
X140925000Y-98962500I0J-262500D01*
G01*
X140925000Y-99587500D01*
G75*
G02*
X140662500Y-99850000I-262500J0D01*
G01*
G37*
G36*
G01*
X140662500Y-98100000D02*
X140137500Y-98100000D01*
G75*
G02*
X139875000Y-97837500I0J262500D01*
G01*
X139875000Y-97212500D01*
G75*
G02*
X140137500Y-96950000I262500J0D01*
G01*
X140662500Y-96950000D01*
G75*
G02*
X140925000Y-97212500I0J-262500D01*
G01*
X140925000Y-97837500D01*
G75*
G02*
X140662500Y-98100000I-262500J0D01*
G01*
G37*
%TD*%
%TO.C,R7*%
G36*
G01*
X158450000Y-83937500D02*
X158450000Y-84462500D01*
G75*
G02*
X158187500Y-84725000I-262500J0D01*
G01*
X157562500Y-84725000D01*
G75*
G02*
X157300000Y-84462500I0J262500D01*
G01*
X157300000Y-83937500D01*
G75*
G02*
X157562500Y-83675000I262500J0D01*
G01*
X158187500Y-83675000D01*
G75*
G02*
X158450000Y-83937500I0J-262500D01*
G01*
G37*
G36*
G01*
X156700000Y-83937500D02*
X156700000Y-84462500D01*
G75*
G02*
X156437500Y-84725000I-262500J0D01*
G01*
X155812500Y-84725000D01*
G75*
G02*
X155550000Y-84462500I0J262500D01*
G01*
X155550000Y-83937500D01*
G75*
G02*
X155812500Y-83675000I262500J0D01*
G01*
X156437500Y-83675000D01*
G75*
G02*
X156700000Y-83937500I0J-262500D01*
G01*
G37*
%TD*%
%TO.C,C3*%
G36*
G01*
X138072500Y-98080000D02*
X137547500Y-98080000D01*
G75*
G02*
X137285000Y-97817500I0J262500D01*
G01*
X137285000Y-97192500D01*
G75*
G02*
X137547500Y-96930000I262500J0D01*
G01*
X138072500Y-96930000D01*
G75*
G02*
X138335000Y-97192500I0J-262500D01*
G01*
X138335000Y-97817500D01*
G75*
G02*
X138072500Y-98080000I-262500J0D01*
G01*
G37*
G36*
G01*
X138072500Y-99830000D02*
X137547500Y-99830000D01*
G75*
G02*
X137285000Y-99567500I0J262500D01*
G01*
X137285000Y-98942500D01*
G75*
G02*
X137547500Y-98680000I262500J0D01*
G01*
X138072500Y-98680000D01*
G75*
G02*
X138335000Y-98942500I0J-262500D01*
G01*
X138335000Y-99567500D01*
G75*
G02*
X138072500Y-99830000I-262500J0D01*
G01*
G37*
%TD*%
%TO.C,C4*%
G36*
G01*
X149060000Y-123142500D02*
X149060000Y-122617500D01*
G75*
G02*
X149322500Y-122355000I262500J0D01*
G01*
X149947500Y-122355000D01*
G75*
G02*
X150210000Y-122617500I0J-262500D01*
G01*
X150210000Y-123142500D01*
G75*
G02*
X149947500Y-123405000I-262500J0D01*
G01*
X149322500Y-123405000D01*
G75*
G02*
X149060000Y-123142500I0J262500D01*
G01*
G37*
G36*
G01*
X150810000Y-123142500D02*
X150810000Y-122617500D01*
G75*
G02*
X151072500Y-122355000I262500J0D01*
G01*
X151697500Y-122355000D01*
G75*
G02*
X151960000Y-122617500I0J-262500D01*
G01*
X151960000Y-123142500D01*
G75*
G02*
X151697500Y-123405000I-262500J0D01*
G01*
X151072500Y-123405000D01*
G75*
G02*
X150810000Y-123142500I0J262500D01*
G01*
G37*
%TD*%
%TO.C,R1*%
G36*
G01*
X142850000Y-105737500D02*
X142850000Y-106262500D01*
G75*
G02*
X142587500Y-106525000I-262500J0D01*
G01*
X141962500Y-106525000D01*
G75*
G02*
X141700000Y-106262500I0J262500D01*
G01*
X141700000Y-105737500D01*
G75*
G02*
X141962500Y-105475000I262500J0D01*
G01*
X142587500Y-105475000D01*
G75*
G02*
X142850000Y-105737500I0J-262500D01*
G01*
G37*
G36*
G01*
X141100000Y-105737500D02*
X141100000Y-106262500D01*
G75*
G02*
X140837500Y-106525000I-262500J0D01*
G01*
X140212500Y-106525000D01*
G75*
G02*
X139950000Y-106262500I0J262500D01*
G01*
X139950000Y-105737500D01*
G75*
G02*
X140212500Y-105475000I262500J0D01*
G01*
X140837500Y-105475000D01*
G75*
G02*
X141100000Y-105737500I0J-262500D01*
G01*
G37*
%TD*%
%TO.C,R2*%
G36*
G01*
X150210000Y-120077500D02*
X150210000Y-120602500D01*
G75*
G02*
X149947500Y-120865000I-262500J0D01*
G01*
X149322500Y-120865000D01*
G75*
G02*
X149060000Y-120602500I0J262500D01*
G01*
X149060000Y-120077500D01*
G75*
G02*
X149322500Y-119815000I262500J0D01*
G01*
X149947500Y-119815000D01*
G75*
G02*
X150210000Y-120077500I0J-262500D01*
G01*
G37*
G36*
G01*
X151960000Y-120077500D02*
X151960000Y-120602500D01*
G75*
G02*
X151697500Y-120865000I-262500J0D01*
G01*
X151072500Y-120865000D01*
G75*
G02*
X150810000Y-120602500I0J262500D01*
G01*
X150810000Y-120077500D01*
G75*
G02*
X151072500Y-119815000I262500J0D01*
G01*
X151697500Y-119815000D01*
G75*
G02*
X151960000Y-120077500I0J-262500D01*
G01*
G37*
%TD*%
%TO.C,R5*%
G36*
G01*
X148662500Y-100050000D02*
X148137500Y-100050000D01*
G75*
G02*
X147875000Y-99787500I0J262500D01*
G01*
X147875000Y-99162500D01*
G75*
G02*
X148137500Y-98900000I262500J0D01*
G01*
X148662500Y-98900000D01*
G75*
G02*
X148925000Y-99162500I0J-262500D01*
G01*
X148925000Y-99787500D01*
G75*
G02*
X148662500Y-100050000I-262500J0D01*
G01*
G37*
G36*
G01*
X148662500Y-98300000D02*
X148137500Y-98300000D01*
G75*
G02*
X147875000Y-98037500I0J262500D01*
G01*
X147875000Y-97412500D01*
G75*
G02*
X148137500Y-97150000I262500J0D01*
G01*
X148662500Y-97150000D01*
G75*
G02*
X148925000Y-97412500I0J-262500D01*
G01*
X148925000Y-98037500D01*
G75*
G02*
X148662500Y-98300000I-262500J0D01*
G01*
G37*
%TD*%
D21*
%TO.C,L1*%
X162500000Y-97525000D03*
X162500000Y-106475000D03*
%TD*%
%TO.C,L2*%
X161500000Y-118025000D03*
X161500000Y-126975000D03*
%TD*%
%TO.C,R10*%
G36*
G01*
X162200000Y-81737500D02*
X162200000Y-82262500D01*
G75*
G02*
X161937500Y-82525000I-262500J0D01*
G01*
X161312500Y-82525000D01*
G75*
G02*
X161050000Y-82262500I0J262500D01*
G01*
X161050000Y-81737500D01*
G75*
G02*
X161312500Y-81475000I262500J0D01*
G01*
X161937500Y-81475000D01*
G75*
G02*
X162200000Y-81737500I0J-262500D01*
G01*
G37*
G36*
G01*
X160450000Y-81737500D02*
X160450000Y-82262500D01*
G75*
G02*
X160187500Y-82525000I-262500J0D01*
G01*
X159562500Y-82525000D01*
G75*
G02*
X159300000Y-82262500I0J262500D01*
G01*
X159300000Y-81737500D01*
G75*
G02*
X159562500Y-81475000I262500J0D01*
G01*
X160187500Y-81475000D01*
G75*
G02*
X160450000Y-81737500I0J-262500D01*
G01*
G37*
%TD*%
M02*
