%TF.GenerationSoftware,KiCad,Pcbnew,(5.1.6)-1*%
%TF.CreationDate,2020-11-07T14:41:46+05:30*%
%TF.ProjectId,LT8652,4c543836-3532-42e6-9b69-6361645f7063,rev?*%
%TF.SameCoordinates,Original*%
%TF.FileFunction,Copper,L4,Bot*%
%TF.FilePolarity,Positive*%
%FSLAX46Y46*%
G04 Gerber Fmt 4.6, Leading zero omitted, Abs format (unit mm)*
G04 Created by KiCad (PCBNEW (5.1.6)-1) date 2020-11-07 14:41:46*
%MOMM*%
%LPD*%
G01*
G04 APERTURE LIST*
%TA.AperFunction,ComponentPad*%
%ADD10C,5.700000*%
%TD*%
%TA.AperFunction,ComponentPad*%
%ADD11O,1.700000X1.700000*%
%TD*%
%TA.AperFunction,ComponentPad*%
%ADD12R,1.700000X1.700000*%
%TD*%
%TA.AperFunction,ComponentPad*%
%ADD13C,2.100000*%
%TD*%
%TA.AperFunction,ComponentPad*%
%ADD14R,2.100000X2.100000*%
%TD*%
%TA.AperFunction,ViaPad*%
%ADD15C,0.800000*%
%TD*%
%TA.AperFunction,Conductor*%
%ADD16C,0.500000*%
%TD*%
G04 APERTURE END LIST*
D10*
%TO.P,REF\u002A\u002A,1*%
%TO.N,N/C*%
X220000000Y-141000000D03*
%TD*%
%TO.P,REF\u002A\u002A,1*%
%TO.N,N/C*%
X110000000Y-141000000D03*
%TD*%
%TO.P,REF\u002A\u002A,1*%
%TO.N,N/C*%
X110000000Y-83000000D03*
%TD*%
%TO.P,REF\u002A\u002A,1*%
%TO.N,N/C*%
X220000000Y-83000000D03*
%TD*%
D11*
%TO.P,J4,14*%
%TO.N,Net-(IC1-Pad16)*%
X125440000Y-121040000D03*
%TO.P,J4,13*%
%TO.N,GND2*%
X122900000Y-121040000D03*
%TO.P,J4,12*%
%TO.N,Net-(IC1-Pad15)*%
X125440000Y-118500000D03*
%TO.P,J4,11*%
%TO.N,GND2*%
X122900000Y-118500000D03*
%TO.P,J4,10*%
%TO.N,Net-(IC1-Pad13)*%
X125440000Y-115960000D03*
%TO.P,J4,9*%
%TO.N,GND2*%
X122900000Y-115960000D03*
%TO.P,J4,8*%
%TO.N,/VC2*%
X125440000Y-113420000D03*
%TO.P,J4,7*%
%TO.N,GND2*%
X122900000Y-113420000D03*
%TO.P,J4,6*%
%TO.N,/SS2*%
X125440000Y-110880000D03*
%TO.P,J4,5*%
%TO.N,GND2*%
X122900000Y-110880000D03*
%TO.P,J4,4*%
%TO.N,/SS1*%
X125440000Y-108340000D03*
%TO.P,J4,3*%
%TO.N,GND2*%
X122900000Y-108340000D03*
%TO.P,J4,2*%
%TO.N,/VC1*%
X125440000Y-105800000D03*
D12*
%TO.P,J4,1*%
%TO.N,GND2*%
X122900000Y-105800000D03*
%TD*%
D13*
%TO.P,J3,2*%
%TO.N,GND*%
X190610000Y-114700000D03*
D14*
%TO.P,J3,1*%
%TO.N,/VO2*%
X190610000Y-117240000D03*
%TD*%
D13*
%TO.P,J2,2*%
%TO.N,GND*%
X190410000Y-107640000D03*
D14*
%TO.P,J2,1*%
%TO.N,/VO1*%
X190410000Y-105100000D03*
%TD*%
D13*
%TO.P,J1,2*%
%TO.N,GND*%
X128750000Y-132790000D03*
D14*
%TO.P,J1,1*%
%TO.N,/Vin1*%
X128750000Y-130250000D03*
%TD*%
D15*
%TO.N,GND*%
X136000000Y-141000000D03*
X138000000Y-141000000D03*
X140000000Y-141000000D03*
X142000000Y-141000000D03*
X142000000Y-143000000D03*
X140000000Y-143000000D03*
X138000000Y-143000000D03*
X136000000Y-143000000D03*
X146000000Y-142000000D03*
X148000000Y-142000000D03*
X150000000Y-142000000D03*
X152000000Y-142000000D03*
X146000000Y-144000000D03*
X148000000Y-144000000D03*
X150000000Y-144000000D03*
X152000000Y-144000000D03*
X179500000Y-143000000D03*
X182000000Y-143000000D03*
X184500000Y-143000000D03*
X187000000Y-143000000D03*
X189500000Y-143000000D03*
X192000000Y-143000000D03*
X194500000Y-143000000D03*
X197000000Y-143000000D03*
X199500000Y-143000000D03*
X202000000Y-143000000D03*
X204500000Y-143000000D03*
X207000000Y-143000000D03*
X209500000Y-143000000D03*
X149350001Y-109729999D03*
X150650001Y-109699999D03*
X150650001Y-107735000D03*
X150650001Y-111475000D03*
X149350001Y-107735000D03*
X149350001Y-111459999D03*
X140450000Y-108100000D03*
X138700000Y-108100000D03*
X136450000Y-108100000D03*
X128000000Y-139000000D03*
X130000000Y-139000000D03*
X132000000Y-139000000D03*
X132000000Y-137000000D03*
X130000000Y-137000000D03*
X128000000Y-137000000D03*
X126000000Y-137000000D03*
X126000000Y-139000000D03*
X124000000Y-139000000D03*
X124000000Y-137000000D03*
X199000000Y-82000000D03*
X197000000Y-82000000D03*
X195000000Y-82000000D03*
X193000000Y-82000000D03*
X191000000Y-82000000D03*
X189000000Y-82000000D03*
X187000000Y-82000000D03*
X185000000Y-82000000D03*
X183000000Y-82000000D03*
X181000000Y-82000000D03*
X179000000Y-82000000D03*
X201000000Y-82000000D03*
X176000000Y-110000000D03*
X178000000Y-110000000D03*
X180000000Y-110000000D03*
X182000000Y-110000000D03*
X184000000Y-110000000D03*
X187000000Y-111000000D03*
X189000000Y-111000000D03*
X191000000Y-111000000D03*
X193000000Y-111000000D03*
X195000000Y-111000000D03*
X197000000Y-109000000D03*
X197000000Y-111000000D03*
X199000000Y-111000000D03*
X199000000Y-109000000D03*
X184000000Y-112000000D03*
X182000000Y-112000000D03*
X180000000Y-112000000D03*
X178000000Y-112000000D03*
X176000000Y-112000000D03*
X197000000Y-113000000D03*
X199000000Y-113000000D03*
X140000000Y-114000000D03*
X138000000Y-114000000D03*
X138000000Y-116000000D03*
X140000000Y-116000000D03*
X142000000Y-116000000D03*
X144000000Y-116000000D03*
X130000000Y-107750000D03*
X203500000Y-82000000D03*
X206000000Y-82000000D03*
X208500000Y-82000000D03*
%TO.N,/VCC*%
X155000000Y-107250000D03*
X136800000Y-91400000D03*
%TO.N,/SS1*%
X154000000Y-106400000D03*
X153250000Y-87500000D03*
X131250000Y-91000000D03*
X128189999Y-109189999D03*
%TO.N,/SS2*%
X145000000Y-106000000D03*
X138000000Y-101100000D03*
%TO.N,/FB2*%
X148250000Y-102250000D03*
X148000000Y-123000000D03*
%TO.N,/VO2*%
X153880000Y-122880000D03*
X177000000Y-119000000D03*
%TO.N,/VO1*%
X157875000Y-89175000D03*
X177500000Y-103500000D03*
%TO.N,/VC1*%
X154000000Y-101750000D03*
X126000000Y-99000000D03*
%TO.N,/FB1*%
X154250000Y-84000000D03*
X151525000Y-101825000D03*
%TO.N,/Vin1*%
X143000000Y-127000000D03*
X147000000Y-127000000D03*
X136000000Y-127000000D03*
X132000000Y-127000000D03*
X151000000Y-127000000D03*
X129000000Y-127000000D03*
X126000000Y-127000000D03*
X126000000Y-125000000D03*
X129000000Y-125000000D03*
X131000000Y-125000000D03*
X139000000Y-125000000D03*
X141000000Y-125000000D03*
X143000000Y-125000000D03*
X147000000Y-125000000D03*
X149000000Y-125000000D03*
X151000000Y-125000000D03*
X124000000Y-125000000D03*
X124000000Y-127000000D03*
X136000000Y-110000000D03*
X138000000Y-110000000D03*
X140000000Y-110000000D03*
X140000000Y-112000000D03*
X138000000Y-112000000D03*
X136000000Y-112000000D03*
X136000000Y-125000000D03*
%TO.N,GND2*%
X119000000Y-106000000D03*
X119000000Y-110000000D03*
X119000000Y-112000000D03*
X119000000Y-114000000D03*
X119000000Y-116000000D03*
X119000000Y-118000000D03*
X119000000Y-120000000D03*
X119000000Y-122000000D03*
X155000000Y-108500000D03*
X149860000Y-104140000D03*
X136250000Y-97500000D03*
X130000000Y-100250000D03*
X139547040Y-104452960D03*
X144000000Y-86000000D03*
X144000000Y-88000000D03*
X144000000Y-90000000D03*
X144000000Y-92000000D03*
X144000000Y-94000000D03*
X146000000Y-96000000D03*
X144000000Y-96000000D03*
X159875000Y-85625000D03*
X151550000Y-89450000D03*
X151775000Y-93725000D03*
X148250000Y-96000000D03*
X119000000Y-108000000D03*
X151000000Y-96000000D03*
%TO.N,Net-(IC1-Pad1)*%
X145100000Y-103300000D03*
X138700000Y-86500000D03*
%TO.N,Net-(IC1-Pad30)*%
X154000000Y-104400000D03*
X157400000Y-91200000D03*
%TD*%
D16*
%TO.N,/VCC*%
X143400000Y-98000000D02*
X136800000Y-91400000D01*
X152000000Y-104000000D02*
X146000000Y-98000000D01*
X146000000Y-98000000D02*
X143400000Y-98000000D01*
X152000000Y-105710000D02*
X152000000Y-104000000D01*
X153540000Y-107250000D02*
X152000000Y-105710000D01*
X155000000Y-107250000D02*
X153540000Y-107250000D01*
%TO.N,/SS1*%
X153249999Y-105649999D02*
X154000000Y-106400000D01*
X153249999Y-105649999D02*
X153249999Y-87500001D01*
X153249999Y-87500001D02*
X153250000Y-87500000D01*
X131250000Y-91000000D02*
X128250000Y-94000000D01*
X128250000Y-109129998D02*
X128189999Y-109189999D01*
X128250000Y-94000000D02*
X128250000Y-109129998D01*
%TO.N,/SS2*%
X142900000Y-106000000D02*
X138000000Y-101100000D01*
X145000000Y-106000000D02*
X142900000Y-106000000D01*
%TO.N,/FB2*%
X146750000Y-103750000D02*
X148250000Y-102250000D01*
X146750000Y-121750000D02*
X148000000Y-123000000D01*
X146750000Y-103750000D02*
X146750000Y-121750000D01*
%TO.N,/VO2*%
X173120000Y-122880000D02*
X177000000Y-119000000D01*
X153880000Y-122880000D02*
X173120000Y-122880000D01*
X177000000Y-119000000D02*
X177000000Y-119000000D01*
%TO.N,/VO1*%
X163175000Y-89175000D02*
X177500000Y-103500000D01*
X157875000Y-89175000D02*
X163175000Y-89175000D01*
X177500000Y-103500000D02*
X177500000Y-103500000D01*
%TO.N,/VC1*%
X154000000Y-101750000D02*
X155250000Y-100500000D01*
X153250000Y-80250000D02*
X132500000Y-80250000D01*
X132500000Y-80250000D02*
X126000000Y-86750000D01*
X155250000Y-100500000D02*
X155250000Y-89000000D01*
X155250000Y-89000000D02*
X157250000Y-87000000D01*
X157250000Y-84250000D02*
X153250000Y-80250000D01*
X157250000Y-87000000D02*
X157250000Y-84250000D01*
X126000000Y-86750000D02*
X126000000Y-99000000D01*
%TO.N,/FB1*%
X149400000Y-88850000D02*
X154250000Y-84000000D01*
X151525000Y-101825000D02*
X151525000Y-100100000D01*
X149400000Y-97975000D02*
X149400000Y-88850000D01*
X151525000Y-100100000D02*
X149400000Y-97975000D01*
%TO.N,Net-(IC1-Pad1)*%
X143550000Y-103300000D02*
X145100000Y-103300000D01*
X135000000Y-94750000D02*
X143550000Y-103300000D01*
X138700000Y-86500000D02*
X135000000Y-90200000D01*
X135000000Y-90200000D02*
X135000000Y-94750000D01*
%TO.N,Net-(IC1-Pad30)*%
X154000000Y-104400000D02*
X157600000Y-104400000D01*
X157600000Y-104400000D02*
X160000000Y-102000000D01*
X160000000Y-93800000D02*
X157400000Y-91200000D01*
X160000000Y-102000000D02*
X160000000Y-93800000D01*
%TD*%
M02*
