%TF.GenerationSoftware,KiCad,Pcbnew,(5.1.6)-1*%
%TF.CreationDate,2020-11-07T14:41:45+05:30*%
%TF.ProjectId,LT8652,4c543836-3532-42e6-9b69-6361645f7063,rev?*%
%TF.SameCoordinates,Original*%
%TF.FileFunction,Copper,L2,Inr*%
%TF.FilePolarity,Positive*%
%FSLAX46Y46*%
G04 Gerber Fmt 4.6, Leading zero omitted, Abs format (unit mm)*
G04 Created by KiCad (PCBNEW (5.1.6)-1) date 2020-11-07 14:41:45*
%MOMM*%
%LPD*%
G01*
G04 APERTURE LIST*
%TA.AperFunction,ViaPad*%
%ADD10C,5.700000*%
%TD*%
%TA.AperFunction,ViaPad*%
%ADD11O,1.700000X1.700000*%
%TD*%
%TA.AperFunction,ViaPad*%
%ADD12R,1.700000X1.700000*%
%TD*%
%TA.AperFunction,ViaPad*%
%ADD13C,2.100000*%
%TD*%
%TA.AperFunction,ViaPad*%
%ADD14R,2.100000X2.100000*%
%TD*%
%TA.AperFunction,ViaPad*%
%ADD15C,0.800000*%
%TD*%
%TA.AperFunction,Conductor*%
%ADD16C,0.254000*%
%TD*%
G04 APERTURE END LIST*
D10*
%TO.N,N/C*%
%TO.C,REF\u002A\u002A*%
X220000000Y-141000000D03*
%TD*%
%TO.N,N/C*%
%TO.C,REF\u002A\u002A*%
X110000000Y-141000000D03*
%TD*%
%TO.N,N/C*%
%TO.C,REF\u002A\u002A*%
X110000000Y-83000000D03*
%TD*%
%TO.N,N/C*%
%TO.C,REF\u002A\u002A*%
X220000000Y-83000000D03*
%TD*%
D11*
%TO.N,Net-(IC1-Pad16)*%
%TO.C,J4*%
X125440000Y-121040000D03*
%TO.N,GND2*%
X122900000Y-121040000D03*
%TO.N,Net-(IC1-Pad15)*%
X125440000Y-118500000D03*
%TO.N,GND2*%
X122900000Y-118500000D03*
%TO.N,Net-(IC1-Pad13)*%
X125440000Y-115960000D03*
%TO.N,GND2*%
X122900000Y-115960000D03*
%TO.N,/VC2*%
X125440000Y-113420000D03*
%TO.N,GND2*%
X122900000Y-113420000D03*
%TO.N,/SS2*%
X125440000Y-110880000D03*
%TO.N,GND2*%
X122900000Y-110880000D03*
%TO.N,/SS1*%
X125440000Y-108340000D03*
%TO.N,GND2*%
X122900000Y-108340000D03*
%TO.N,/VC1*%
X125440000Y-105800000D03*
D12*
%TO.N,GND2*%
X122900000Y-105800000D03*
%TD*%
D13*
%TO.N,GND*%
%TO.C,J3*%
X190610000Y-114700000D03*
D14*
%TO.N,/VO2*%
X190610000Y-117240000D03*
%TD*%
D13*
%TO.N,GND*%
%TO.C,J2*%
X190410000Y-107640000D03*
D14*
%TO.N,/VO1*%
X190410000Y-105100000D03*
%TD*%
D13*
%TO.N,GND*%
%TO.C,J1*%
X128750000Y-132790000D03*
D14*
%TO.N,/Vin1*%
X128750000Y-130250000D03*
%TD*%
D15*
%TO.N,GND*%
X136000000Y-141000000D03*
X138000000Y-141000000D03*
X140000000Y-141000000D03*
X142000000Y-141000000D03*
X142000000Y-143000000D03*
X140000000Y-143000000D03*
X138000000Y-143000000D03*
X136000000Y-143000000D03*
X146000000Y-142000000D03*
X148000000Y-142000000D03*
X150000000Y-142000000D03*
X152000000Y-142000000D03*
X146000000Y-144000000D03*
X148000000Y-144000000D03*
X150000000Y-144000000D03*
X152000000Y-144000000D03*
X179500000Y-143000000D03*
X182000000Y-143000000D03*
X184500000Y-143000000D03*
X187000000Y-143000000D03*
X189500000Y-143000000D03*
X192000000Y-143000000D03*
X194500000Y-143000000D03*
X197000000Y-143000000D03*
X199500000Y-143000000D03*
X202000000Y-143000000D03*
X204500000Y-143000000D03*
X207000000Y-143000000D03*
X209500000Y-143000000D03*
X149350001Y-109729999D03*
X150650001Y-109699999D03*
X150650001Y-107735000D03*
X150650001Y-111475000D03*
X149350001Y-107735000D03*
X149350001Y-111459999D03*
X140450000Y-108100000D03*
X138700000Y-108100000D03*
X136450000Y-108100000D03*
X128000000Y-139000000D03*
X130000000Y-139000000D03*
X132000000Y-139000000D03*
X132000000Y-137000000D03*
X130000000Y-137000000D03*
X128000000Y-137000000D03*
X126000000Y-137000000D03*
X126000000Y-139000000D03*
X124000000Y-139000000D03*
X124000000Y-137000000D03*
X199000000Y-82000000D03*
X197000000Y-82000000D03*
X195000000Y-82000000D03*
X193000000Y-82000000D03*
X191000000Y-82000000D03*
X189000000Y-82000000D03*
X187000000Y-82000000D03*
X185000000Y-82000000D03*
X183000000Y-82000000D03*
X181000000Y-82000000D03*
X179000000Y-82000000D03*
X201000000Y-82000000D03*
X176000000Y-110000000D03*
X178000000Y-110000000D03*
X180000000Y-110000000D03*
X182000000Y-110000000D03*
X184000000Y-110000000D03*
X187000000Y-111000000D03*
X189000000Y-111000000D03*
X191000000Y-111000000D03*
X193000000Y-111000000D03*
X195000000Y-111000000D03*
X197000000Y-109000000D03*
X197000000Y-111000000D03*
X199000000Y-111000000D03*
X199000000Y-109000000D03*
X184000000Y-112000000D03*
X182000000Y-112000000D03*
X180000000Y-112000000D03*
X178000000Y-112000000D03*
X176000000Y-112000000D03*
X197000000Y-113000000D03*
X199000000Y-113000000D03*
X140000000Y-114000000D03*
X138000000Y-114000000D03*
X138000000Y-116000000D03*
X140000000Y-116000000D03*
X142000000Y-116000000D03*
X144000000Y-116000000D03*
X130000000Y-107750000D03*
X203500000Y-82000000D03*
X206000000Y-82000000D03*
X208500000Y-82000000D03*
%TO.N,/VCC*%
X155000000Y-107250000D03*
X136800000Y-91400000D03*
%TO.N,/SS1*%
X154000000Y-106400000D03*
X153250000Y-87500000D03*
X131250000Y-91000000D03*
X128189999Y-109189999D03*
%TO.N,/SS2*%
X145000000Y-106000000D03*
X138000000Y-101100000D03*
%TO.N,/FB2*%
X148250000Y-102250000D03*
X148000000Y-123000000D03*
%TO.N,/VO2*%
X153880000Y-122880000D03*
X177000000Y-119000000D03*
%TO.N,/VO1*%
X157875000Y-89175000D03*
X177500000Y-103500000D03*
%TO.N,/VC1*%
X154000000Y-101750000D03*
X126000000Y-99000000D03*
%TO.N,/FB1*%
X154250000Y-84000000D03*
X151525000Y-101825000D03*
%TO.N,/Vin1*%
X143000000Y-127000000D03*
X147000000Y-127000000D03*
X136000000Y-127000000D03*
X132000000Y-127000000D03*
X151000000Y-127000000D03*
X129000000Y-127000000D03*
X126000000Y-127000000D03*
X126000000Y-125000000D03*
X129000000Y-125000000D03*
X131000000Y-125000000D03*
X139000000Y-125000000D03*
X141000000Y-125000000D03*
X143000000Y-125000000D03*
X147000000Y-125000000D03*
X149000000Y-125000000D03*
X151000000Y-125000000D03*
X124000000Y-125000000D03*
X124000000Y-127000000D03*
X136000000Y-110000000D03*
X138000000Y-110000000D03*
X140000000Y-110000000D03*
X140000000Y-112000000D03*
X138000000Y-112000000D03*
X136000000Y-112000000D03*
X136000000Y-125000000D03*
%TO.N,GND2*%
X119000000Y-106000000D03*
X119000000Y-110000000D03*
X119000000Y-112000000D03*
X119000000Y-114000000D03*
X119000000Y-116000000D03*
X119000000Y-118000000D03*
X119000000Y-120000000D03*
X119000000Y-122000000D03*
X155000000Y-108500000D03*
X149860000Y-104140000D03*
X136250000Y-97500000D03*
X130000000Y-100250000D03*
X139547040Y-104452960D03*
X144000000Y-86000000D03*
X144000000Y-88000000D03*
X144000000Y-90000000D03*
X144000000Y-92000000D03*
X144000000Y-94000000D03*
X146000000Y-96000000D03*
X144000000Y-96000000D03*
X159875000Y-85625000D03*
X151550000Y-89450000D03*
X151775000Y-93725000D03*
X148250000Y-96000000D03*
X119000000Y-108000000D03*
X151000000Y-96000000D03*
%TO.N,Net-(IC1-Pad1)*%
X145100000Y-103300000D03*
X138700000Y-86500000D03*
%TO.N,Net-(IC1-Pad30)*%
X154000000Y-104400000D03*
X157400000Y-91200000D03*
%TD*%
D16*
%TO.N,GND2*%
G36*
X159873000Y-109873000D02*
G01*
X152627000Y-109873000D01*
X152627000Y-106000000D01*
X152624560Y-105975224D01*
X152617333Y-105951399D01*
X152605597Y-105929443D01*
X152589803Y-105910197D01*
X152570557Y-105894403D01*
X152548601Y-105882667D01*
X152524776Y-105875440D01*
X152500000Y-105873000D01*
X146030015Y-105873000D01*
X145995226Y-105698102D01*
X145917205Y-105509744D01*
X145803937Y-105340226D01*
X145659774Y-105196063D01*
X145490256Y-105082795D01*
X145301898Y-105004774D01*
X145101939Y-104965000D01*
X144898061Y-104965000D01*
X144698102Y-105004774D01*
X144509744Y-105082795D01*
X144340226Y-105196063D01*
X144196063Y-105340226D01*
X144082795Y-105509744D01*
X144004774Y-105698102D01*
X143969985Y-105873000D01*
X127000000Y-105873000D01*
X126975224Y-105875440D01*
X126951399Y-105882667D01*
X126929443Y-105894403D01*
X126925000Y-105898049D01*
X126925000Y-105653740D01*
X126867932Y-105366842D01*
X126755990Y-105096589D01*
X126593475Y-104853368D01*
X126386632Y-104646525D01*
X126143411Y-104484010D01*
X125873158Y-104372068D01*
X125586260Y-104315000D01*
X125293740Y-104315000D01*
X125006842Y-104372068D01*
X124736589Y-104484010D01*
X124493368Y-104646525D01*
X124361513Y-104778380D01*
X124339502Y-104705820D01*
X124280537Y-104595506D01*
X124201185Y-104498815D01*
X124104494Y-104419463D01*
X123994180Y-104360498D01*
X123874482Y-104324188D01*
X123750000Y-104311928D01*
X123185750Y-104315000D01*
X123027000Y-104473750D01*
X123027000Y-105673000D01*
X123047000Y-105673000D01*
X123047000Y-105927000D01*
X123027000Y-105927000D01*
X123027000Y-108213000D01*
X123047000Y-108213000D01*
X123047000Y-108467000D01*
X123027000Y-108467000D01*
X123027000Y-110753000D01*
X123047000Y-110753000D01*
X123047000Y-111007000D01*
X123027000Y-111007000D01*
X123027000Y-113293000D01*
X123047000Y-113293000D01*
X123047000Y-113547000D01*
X123027000Y-113547000D01*
X123027000Y-115833000D01*
X123047000Y-115833000D01*
X123047000Y-116087000D01*
X123027000Y-116087000D01*
X123027000Y-118373000D01*
X123047000Y-118373000D01*
X123047000Y-118627000D01*
X123027000Y-118627000D01*
X123027000Y-120913000D01*
X123047000Y-120913000D01*
X123047000Y-121167000D01*
X123027000Y-121167000D01*
X123027000Y-122360814D01*
X123256891Y-122481481D01*
X123531252Y-122384157D01*
X123781355Y-122235178D01*
X123997588Y-122040269D01*
X124168900Y-121810594D01*
X124286525Y-121986632D01*
X124493368Y-122193475D01*
X124736589Y-122355990D01*
X125006842Y-122467932D01*
X125293740Y-122525000D01*
X125586260Y-122525000D01*
X125873158Y-122467932D01*
X126143411Y-122355990D01*
X126386632Y-122193475D01*
X126593475Y-121986632D01*
X126755990Y-121743411D01*
X126867932Y-121473158D01*
X126873000Y-121447680D01*
X126873000Y-122873000D01*
X118127000Y-122873000D01*
X118127000Y-121396890D01*
X121458524Y-121396890D01*
X121503175Y-121544099D01*
X121628359Y-121806920D01*
X121802412Y-122040269D01*
X122018645Y-122235178D01*
X122268748Y-122384157D01*
X122543109Y-122481481D01*
X122773000Y-122360814D01*
X122773000Y-121167000D01*
X121579845Y-121167000D01*
X121458524Y-121396890D01*
X118127000Y-121396890D01*
X118127000Y-118856890D01*
X121458524Y-118856890D01*
X121503175Y-119004099D01*
X121628359Y-119266920D01*
X121802412Y-119500269D01*
X122018645Y-119695178D01*
X122144255Y-119770000D01*
X122018645Y-119844822D01*
X121802412Y-120039731D01*
X121628359Y-120273080D01*
X121503175Y-120535901D01*
X121458524Y-120683110D01*
X121579845Y-120913000D01*
X122773000Y-120913000D01*
X122773000Y-118627000D01*
X121579845Y-118627000D01*
X121458524Y-118856890D01*
X118127000Y-118856890D01*
X118127000Y-116316890D01*
X121458524Y-116316890D01*
X121503175Y-116464099D01*
X121628359Y-116726920D01*
X121802412Y-116960269D01*
X122018645Y-117155178D01*
X122144255Y-117230000D01*
X122018645Y-117304822D01*
X121802412Y-117499731D01*
X121628359Y-117733080D01*
X121503175Y-117995901D01*
X121458524Y-118143110D01*
X121579845Y-118373000D01*
X122773000Y-118373000D01*
X122773000Y-116087000D01*
X121579845Y-116087000D01*
X121458524Y-116316890D01*
X118127000Y-116316890D01*
X118127000Y-113776890D01*
X121458524Y-113776890D01*
X121503175Y-113924099D01*
X121628359Y-114186920D01*
X121802412Y-114420269D01*
X122018645Y-114615178D01*
X122144255Y-114690000D01*
X122018645Y-114764822D01*
X121802412Y-114959731D01*
X121628359Y-115193080D01*
X121503175Y-115455901D01*
X121458524Y-115603110D01*
X121579845Y-115833000D01*
X122773000Y-115833000D01*
X122773000Y-113547000D01*
X121579845Y-113547000D01*
X121458524Y-113776890D01*
X118127000Y-113776890D01*
X118127000Y-111236890D01*
X121458524Y-111236890D01*
X121503175Y-111384099D01*
X121628359Y-111646920D01*
X121802412Y-111880269D01*
X122018645Y-112075178D01*
X122144255Y-112150000D01*
X122018645Y-112224822D01*
X121802412Y-112419731D01*
X121628359Y-112653080D01*
X121503175Y-112915901D01*
X121458524Y-113063110D01*
X121579845Y-113293000D01*
X122773000Y-113293000D01*
X122773000Y-111007000D01*
X121579845Y-111007000D01*
X121458524Y-111236890D01*
X118127000Y-111236890D01*
X118127000Y-108696890D01*
X121458524Y-108696890D01*
X121503175Y-108844099D01*
X121628359Y-109106920D01*
X121802412Y-109340269D01*
X122018645Y-109535178D01*
X122144255Y-109610000D01*
X122018645Y-109684822D01*
X121802412Y-109879731D01*
X121628359Y-110113080D01*
X121503175Y-110375901D01*
X121458524Y-110523110D01*
X121579845Y-110753000D01*
X122773000Y-110753000D01*
X122773000Y-108467000D01*
X121579845Y-108467000D01*
X121458524Y-108696890D01*
X118127000Y-108696890D01*
X118127000Y-106650000D01*
X121411928Y-106650000D01*
X121424188Y-106774482D01*
X121460498Y-106894180D01*
X121519463Y-107004494D01*
X121598815Y-107101185D01*
X121695506Y-107180537D01*
X121805820Y-107239502D01*
X121886466Y-107263966D01*
X121802412Y-107339731D01*
X121628359Y-107573080D01*
X121503175Y-107835901D01*
X121458524Y-107983110D01*
X121579845Y-108213000D01*
X122773000Y-108213000D01*
X122773000Y-105927000D01*
X121573750Y-105927000D01*
X121415000Y-106085750D01*
X121411928Y-106650000D01*
X118127000Y-106650000D01*
X118127000Y-104950000D01*
X121411928Y-104950000D01*
X121415000Y-105514250D01*
X121573750Y-105673000D01*
X122773000Y-105673000D01*
X122773000Y-104473750D01*
X122614250Y-104315000D01*
X122050000Y-104311928D01*
X121925518Y-104324188D01*
X121805820Y-104360498D01*
X121695506Y-104419463D01*
X121598815Y-104498815D01*
X121519463Y-104595506D01*
X121460498Y-104705820D01*
X121424188Y-104825518D01*
X121411928Y-104950000D01*
X118127000Y-104950000D01*
X118127000Y-103198061D01*
X144065000Y-103198061D01*
X144065000Y-103401939D01*
X144104774Y-103601898D01*
X144182795Y-103790256D01*
X144296063Y-103959774D01*
X144440226Y-104103937D01*
X144609744Y-104217205D01*
X144798102Y-104295226D01*
X144998061Y-104335000D01*
X145201939Y-104335000D01*
X145387645Y-104298061D01*
X152965000Y-104298061D01*
X152965000Y-104501939D01*
X153004774Y-104701898D01*
X153082795Y-104890256D01*
X153196063Y-105059774D01*
X153340226Y-105203937D01*
X153509744Y-105317205D01*
X153698102Y-105395226D01*
X153722103Y-105400000D01*
X153698102Y-105404774D01*
X153509744Y-105482795D01*
X153340226Y-105596063D01*
X153196063Y-105740226D01*
X153082795Y-105909744D01*
X153004774Y-106098102D01*
X152965000Y-106298061D01*
X152965000Y-106501939D01*
X153004774Y-106701898D01*
X153082795Y-106890256D01*
X153196063Y-107059774D01*
X153340226Y-107203937D01*
X153509744Y-107317205D01*
X153698102Y-107395226D01*
X153898061Y-107435000D01*
X153981522Y-107435000D01*
X154004774Y-107551898D01*
X154082795Y-107740256D01*
X154196063Y-107909774D01*
X154340226Y-108053937D01*
X154509744Y-108167205D01*
X154698102Y-108245226D01*
X154898061Y-108285000D01*
X155101939Y-108285000D01*
X155301898Y-108245226D01*
X155490256Y-108167205D01*
X155659774Y-108053937D01*
X155803937Y-107909774D01*
X155917205Y-107740256D01*
X155995226Y-107551898D01*
X156035000Y-107351939D01*
X156035000Y-107148061D01*
X155995226Y-106948102D01*
X155917205Y-106759744D01*
X155803937Y-106590226D01*
X155659774Y-106446063D01*
X155490256Y-106332795D01*
X155301898Y-106254774D01*
X155101939Y-106215000D01*
X155018478Y-106215000D01*
X154995226Y-106098102D01*
X154917205Y-105909744D01*
X154803937Y-105740226D01*
X154659774Y-105596063D01*
X154490256Y-105482795D01*
X154301898Y-105404774D01*
X154277897Y-105400000D01*
X154301898Y-105395226D01*
X154490256Y-105317205D01*
X154659774Y-105203937D01*
X154803937Y-105059774D01*
X154917205Y-104890256D01*
X154995226Y-104701898D01*
X155035000Y-104501939D01*
X155035000Y-104298061D01*
X154995226Y-104098102D01*
X154917205Y-103909744D01*
X154803937Y-103740226D01*
X154659774Y-103596063D01*
X154490256Y-103482795D01*
X154301898Y-103404774D01*
X154101939Y-103365000D01*
X153898061Y-103365000D01*
X153698102Y-103404774D01*
X153509744Y-103482795D01*
X153340226Y-103596063D01*
X153196063Y-103740226D01*
X153082795Y-103909744D01*
X153004774Y-104098102D01*
X152965000Y-104298061D01*
X145387645Y-104298061D01*
X145401898Y-104295226D01*
X145590256Y-104217205D01*
X145759774Y-104103937D01*
X145903937Y-103959774D01*
X146017205Y-103790256D01*
X146095226Y-103601898D01*
X146135000Y-103401939D01*
X146135000Y-103198061D01*
X146095226Y-102998102D01*
X146017205Y-102809744D01*
X145903937Y-102640226D01*
X145759774Y-102496063D01*
X145590256Y-102382795D01*
X145401898Y-102304774D01*
X145201939Y-102265000D01*
X144998061Y-102265000D01*
X144798102Y-102304774D01*
X144609744Y-102382795D01*
X144440226Y-102496063D01*
X144296063Y-102640226D01*
X144182795Y-102809744D01*
X144104774Y-102998102D01*
X144065000Y-103198061D01*
X118127000Y-103198061D01*
X118127000Y-102148061D01*
X147215000Y-102148061D01*
X147215000Y-102351939D01*
X147254774Y-102551898D01*
X147332795Y-102740256D01*
X147446063Y-102909774D01*
X147590226Y-103053937D01*
X147759744Y-103167205D01*
X147948102Y-103245226D01*
X148148061Y-103285000D01*
X148351939Y-103285000D01*
X148551898Y-103245226D01*
X148740256Y-103167205D01*
X148909774Y-103053937D01*
X149053937Y-102909774D01*
X149167205Y-102740256D01*
X149245226Y-102551898D01*
X149285000Y-102351939D01*
X149285000Y-102148061D01*
X149245226Y-101948102D01*
X149167205Y-101759744D01*
X149142695Y-101723061D01*
X150490000Y-101723061D01*
X150490000Y-101926939D01*
X150529774Y-102126898D01*
X150607795Y-102315256D01*
X150721063Y-102484774D01*
X150865226Y-102628937D01*
X151034744Y-102742205D01*
X151223102Y-102820226D01*
X151423061Y-102860000D01*
X151626939Y-102860000D01*
X151826898Y-102820226D01*
X152015256Y-102742205D01*
X152184774Y-102628937D01*
X152328937Y-102484774D01*
X152442205Y-102315256D01*
X152520226Y-102126898D01*
X152560000Y-101926939D01*
X152560000Y-101723061D01*
X152545082Y-101648061D01*
X152965000Y-101648061D01*
X152965000Y-101851939D01*
X153004774Y-102051898D01*
X153082795Y-102240256D01*
X153196063Y-102409774D01*
X153340226Y-102553937D01*
X153509744Y-102667205D01*
X153698102Y-102745226D01*
X153898061Y-102785000D01*
X154101939Y-102785000D01*
X154301898Y-102745226D01*
X154490256Y-102667205D01*
X154659774Y-102553937D01*
X154803937Y-102409774D01*
X154917205Y-102240256D01*
X154995226Y-102051898D01*
X155035000Y-101851939D01*
X155035000Y-101648061D01*
X154995226Y-101448102D01*
X154917205Y-101259744D01*
X154803937Y-101090226D01*
X154659774Y-100946063D01*
X154490256Y-100832795D01*
X154301898Y-100754774D01*
X154101939Y-100715000D01*
X153898061Y-100715000D01*
X153698102Y-100754774D01*
X153509744Y-100832795D01*
X153340226Y-100946063D01*
X153196063Y-101090226D01*
X153082795Y-101259744D01*
X153004774Y-101448102D01*
X152965000Y-101648061D01*
X152545082Y-101648061D01*
X152520226Y-101523102D01*
X152442205Y-101334744D01*
X152328937Y-101165226D01*
X152184774Y-101021063D01*
X152015256Y-100907795D01*
X151826898Y-100829774D01*
X151626939Y-100790000D01*
X151423061Y-100790000D01*
X151223102Y-100829774D01*
X151034744Y-100907795D01*
X150865226Y-101021063D01*
X150721063Y-101165226D01*
X150607795Y-101334744D01*
X150529774Y-101523102D01*
X150490000Y-101723061D01*
X149142695Y-101723061D01*
X149053937Y-101590226D01*
X148909774Y-101446063D01*
X148740256Y-101332795D01*
X148551898Y-101254774D01*
X148351939Y-101215000D01*
X148148061Y-101215000D01*
X147948102Y-101254774D01*
X147759744Y-101332795D01*
X147590226Y-101446063D01*
X147446063Y-101590226D01*
X147332795Y-101759744D01*
X147254774Y-101948102D01*
X147215000Y-102148061D01*
X118127000Y-102148061D01*
X118127000Y-100998061D01*
X136965000Y-100998061D01*
X136965000Y-101201939D01*
X137004774Y-101401898D01*
X137082795Y-101590256D01*
X137196063Y-101759774D01*
X137340226Y-101903937D01*
X137509744Y-102017205D01*
X137698102Y-102095226D01*
X137898061Y-102135000D01*
X138101939Y-102135000D01*
X138301898Y-102095226D01*
X138490256Y-102017205D01*
X138659774Y-101903937D01*
X138803937Y-101759774D01*
X138917205Y-101590256D01*
X138995226Y-101401898D01*
X139035000Y-101201939D01*
X139035000Y-100998061D01*
X138995226Y-100798102D01*
X138917205Y-100609744D01*
X138803937Y-100440226D01*
X138659774Y-100296063D01*
X138490256Y-100182795D01*
X138301898Y-100104774D01*
X138101939Y-100065000D01*
X137898061Y-100065000D01*
X137698102Y-100104774D01*
X137509744Y-100182795D01*
X137340226Y-100296063D01*
X137196063Y-100440226D01*
X137082795Y-100609744D01*
X137004774Y-100798102D01*
X136965000Y-100998061D01*
X118127000Y-100998061D01*
X118127000Y-98898061D01*
X124965000Y-98898061D01*
X124965000Y-99101939D01*
X125004774Y-99301898D01*
X125082795Y-99490256D01*
X125196063Y-99659774D01*
X125340226Y-99803937D01*
X125509744Y-99917205D01*
X125698102Y-99995226D01*
X125898061Y-100035000D01*
X126101939Y-100035000D01*
X126301898Y-99995226D01*
X126490256Y-99917205D01*
X126659774Y-99803937D01*
X126803937Y-99659774D01*
X126917205Y-99490256D01*
X126995226Y-99301898D01*
X127035000Y-99101939D01*
X127035000Y-98898061D01*
X126995226Y-98698102D01*
X126917205Y-98509744D01*
X126803937Y-98340226D01*
X126659774Y-98196063D01*
X126490256Y-98082795D01*
X126301898Y-98004774D01*
X126101939Y-97965000D01*
X125898061Y-97965000D01*
X125698102Y-98004774D01*
X125509744Y-98082795D01*
X125340226Y-98196063D01*
X125196063Y-98340226D01*
X125082795Y-98509744D01*
X125004774Y-98698102D01*
X124965000Y-98898061D01*
X118127000Y-98898061D01*
X118127000Y-90898061D01*
X130215000Y-90898061D01*
X130215000Y-91101939D01*
X130254774Y-91301898D01*
X130332795Y-91490256D01*
X130446063Y-91659774D01*
X130590226Y-91803937D01*
X130759744Y-91917205D01*
X130948102Y-91995226D01*
X131148061Y-92035000D01*
X131351939Y-92035000D01*
X131551898Y-91995226D01*
X131740256Y-91917205D01*
X131909774Y-91803937D01*
X132053937Y-91659774D01*
X132167205Y-91490256D01*
X132245226Y-91301898D01*
X132245989Y-91298061D01*
X135765000Y-91298061D01*
X135765000Y-91501939D01*
X135804774Y-91701898D01*
X135882795Y-91890256D01*
X135996063Y-92059774D01*
X136140226Y-92203937D01*
X136309744Y-92317205D01*
X136498102Y-92395226D01*
X136698061Y-92435000D01*
X136901939Y-92435000D01*
X137101898Y-92395226D01*
X137290256Y-92317205D01*
X137459774Y-92203937D01*
X137603937Y-92059774D01*
X137717205Y-91890256D01*
X137795226Y-91701898D01*
X137835000Y-91501939D01*
X137835000Y-91298061D01*
X137795226Y-91098102D01*
X137795210Y-91098061D01*
X156365000Y-91098061D01*
X156365000Y-91301939D01*
X156404774Y-91501898D01*
X156482795Y-91690256D01*
X156596063Y-91859774D01*
X156740226Y-92003937D01*
X156909744Y-92117205D01*
X157098102Y-92195226D01*
X157298061Y-92235000D01*
X157501939Y-92235000D01*
X157701898Y-92195226D01*
X157890256Y-92117205D01*
X158059774Y-92003937D01*
X158203937Y-91859774D01*
X158317205Y-91690256D01*
X158395226Y-91501898D01*
X158435000Y-91301939D01*
X158435000Y-91098061D01*
X158395226Y-90898102D01*
X158317205Y-90709744D01*
X158203937Y-90540226D01*
X158059774Y-90396063D01*
X157890256Y-90282795D01*
X157701898Y-90204774D01*
X157501939Y-90165000D01*
X157298061Y-90165000D01*
X157098102Y-90204774D01*
X156909744Y-90282795D01*
X156740226Y-90396063D01*
X156596063Y-90540226D01*
X156482795Y-90709744D01*
X156404774Y-90898102D01*
X156365000Y-91098061D01*
X137795210Y-91098061D01*
X137717205Y-90909744D01*
X137603937Y-90740226D01*
X137459774Y-90596063D01*
X137290256Y-90482795D01*
X137101898Y-90404774D01*
X136901939Y-90365000D01*
X136698061Y-90365000D01*
X136498102Y-90404774D01*
X136309744Y-90482795D01*
X136140226Y-90596063D01*
X135996063Y-90740226D01*
X135882795Y-90909744D01*
X135804774Y-91098102D01*
X135765000Y-91298061D01*
X132245989Y-91298061D01*
X132285000Y-91101939D01*
X132285000Y-90898061D01*
X132245226Y-90698102D01*
X132167205Y-90509744D01*
X132053937Y-90340226D01*
X131909774Y-90196063D01*
X131740256Y-90082795D01*
X131551898Y-90004774D01*
X131351939Y-89965000D01*
X131148061Y-89965000D01*
X130948102Y-90004774D01*
X130759744Y-90082795D01*
X130590226Y-90196063D01*
X130446063Y-90340226D01*
X130332795Y-90509744D01*
X130254774Y-90698102D01*
X130215000Y-90898061D01*
X118127000Y-90898061D01*
X118127000Y-89073061D01*
X156840000Y-89073061D01*
X156840000Y-89276939D01*
X156879774Y-89476898D01*
X156957795Y-89665256D01*
X157071063Y-89834774D01*
X157215226Y-89978937D01*
X157384744Y-90092205D01*
X157573102Y-90170226D01*
X157773061Y-90210000D01*
X157976939Y-90210000D01*
X158176898Y-90170226D01*
X158365256Y-90092205D01*
X158534774Y-89978937D01*
X158678937Y-89834774D01*
X158792205Y-89665256D01*
X158870226Y-89476898D01*
X158910000Y-89276939D01*
X158910000Y-89073061D01*
X158870226Y-88873102D01*
X158792205Y-88684744D01*
X158678937Y-88515226D01*
X158534774Y-88371063D01*
X158365256Y-88257795D01*
X158176898Y-88179774D01*
X157976939Y-88140000D01*
X157773061Y-88140000D01*
X157573102Y-88179774D01*
X157384744Y-88257795D01*
X157215226Y-88371063D01*
X157071063Y-88515226D01*
X156957795Y-88684744D01*
X156879774Y-88873102D01*
X156840000Y-89073061D01*
X118127000Y-89073061D01*
X118127000Y-86398061D01*
X137665000Y-86398061D01*
X137665000Y-86601939D01*
X137704774Y-86801898D01*
X137782795Y-86990256D01*
X137896063Y-87159774D01*
X138040226Y-87303937D01*
X138209744Y-87417205D01*
X138398102Y-87495226D01*
X138598061Y-87535000D01*
X138801939Y-87535000D01*
X139001898Y-87495226D01*
X139190256Y-87417205D01*
X139218907Y-87398061D01*
X152215000Y-87398061D01*
X152215000Y-87601939D01*
X152254774Y-87801898D01*
X152332795Y-87990256D01*
X152446063Y-88159774D01*
X152590226Y-88303937D01*
X152759744Y-88417205D01*
X152948102Y-88495226D01*
X153148061Y-88535000D01*
X153351939Y-88535000D01*
X153551898Y-88495226D01*
X153740256Y-88417205D01*
X153909774Y-88303937D01*
X154053937Y-88159774D01*
X154167205Y-87990256D01*
X154245226Y-87801898D01*
X154285000Y-87601939D01*
X154285000Y-87398061D01*
X154245226Y-87198102D01*
X154167205Y-87009744D01*
X154053937Y-86840226D01*
X153909774Y-86696063D01*
X153740256Y-86582795D01*
X153551898Y-86504774D01*
X153351939Y-86465000D01*
X153148061Y-86465000D01*
X152948102Y-86504774D01*
X152759744Y-86582795D01*
X152590226Y-86696063D01*
X152446063Y-86840226D01*
X152332795Y-87009744D01*
X152254774Y-87198102D01*
X152215000Y-87398061D01*
X139218907Y-87398061D01*
X139359774Y-87303937D01*
X139503937Y-87159774D01*
X139617205Y-86990256D01*
X139695226Y-86801898D01*
X139735000Y-86601939D01*
X139735000Y-86398061D01*
X139695226Y-86198102D01*
X139617205Y-86009744D01*
X139503937Y-85840226D01*
X139359774Y-85696063D01*
X139190256Y-85582795D01*
X139001898Y-85504774D01*
X138801939Y-85465000D01*
X138598061Y-85465000D01*
X138398102Y-85504774D01*
X138209744Y-85582795D01*
X138040226Y-85696063D01*
X137896063Y-85840226D01*
X137782795Y-86009744D01*
X137704774Y-86198102D01*
X137665000Y-86398061D01*
X118127000Y-86398061D01*
X118127000Y-83898061D01*
X153215000Y-83898061D01*
X153215000Y-84101939D01*
X153254774Y-84301898D01*
X153332795Y-84490256D01*
X153446063Y-84659774D01*
X153590226Y-84803937D01*
X153759744Y-84917205D01*
X153948102Y-84995226D01*
X154148061Y-85035000D01*
X154351939Y-85035000D01*
X154551898Y-84995226D01*
X154740256Y-84917205D01*
X154909774Y-84803937D01*
X155053937Y-84659774D01*
X155167205Y-84490256D01*
X155245226Y-84301898D01*
X155285000Y-84101939D01*
X155285000Y-83898061D01*
X155245226Y-83698102D01*
X155167205Y-83509744D01*
X155053937Y-83340226D01*
X154909774Y-83196063D01*
X154740256Y-83082795D01*
X154551898Y-83004774D01*
X154351939Y-82965000D01*
X154148061Y-82965000D01*
X153948102Y-83004774D01*
X153759744Y-83082795D01*
X153590226Y-83196063D01*
X153446063Y-83340226D01*
X153332795Y-83509744D01*
X153254774Y-83698102D01*
X153215000Y-83898061D01*
X118127000Y-83898061D01*
X118127000Y-80127000D01*
X159873000Y-80127000D01*
X159873000Y-109873000D01*
G37*
X159873000Y-109873000D02*
X152627000Y-109873000D01*
X152627000Y-106000000D01*
X152624560Y-105975224D01*
X152617333Y-105951399D01*
X152605597Y-105929443D01*
X152589803Y-105910197D01*
X152570557Y-105894403D01*
X152548601Y-105882667D01*
X152524776Y-105875440D01*
X152500000Y-105873000D01*
X146030015Y-105873000D01*
X145995226Y-105698102D01*
X145917205Y-105509744D01*
X145803937Y-105340226D01*
X145659774Y-105196063D01*
X145490256Y-105082795D01*
X145301898Y-105004774D01*
X145101939Y-104965000D01*
X144898061Y-104965000D01*
X144698102Y-105004774D01*
X144509744Y-105082795D01*
X144340226Y-105196063D01*
X144196063Y-105340226D01*
X144082795Y-105509744D01*
X144004774Y-105698102D01*
X143969985Y-105873000D01*
X127000000Y-105873000D01*
X126975224Y-105875440D01*
X126951399Y-105882667D01*
X126929443Y-105894403D01*
X126925000Y-105898049D01*
X126925000Y-105653740D01*
X126867932Y-105366842D01*
X126755990Y-105096589D01*
X126593475Y-104853368D01*
X126386632Y-104646525D01*
X126143411Y-104484010D01*
X125873158Y-104372068D01*
X125586260Y-104315000D01*
X125293740Y-104315000D01*
X125006842Y-104372068D01*
X124736589Y-104484010D01*
X124493368Y-104646525D01*
X124361513Y-104778380D01*
X124339502Y-104705820D01*
X124280537Y-104595506D01*
X124201185Y-104498815D01*
X124104494Y-104419463D01*
X123994180Y-104360498D01*
X123874482Y-104324188D01*
X123750000Y-104311928D01*
X123185750Y-104315000D01*
X123027000Y-104473750D01*
X123027000Y-105673000D01*
X123047000Y-105673000D01*
X123047000Y-105927000D01*
X123027000Y-105927000D01*
X123027000Y-108213000D01*
X123047000Y-108213000D01*
X123047000Y-108467000D01*
X123027000Y-108467000D01*
X123027000Y-110753000D01*
X123047000Y-110753000D01*
X123047000Y-111007000D01*
X123027000Y-111007000D01*
X123027000Y-113293000D01*
X123047000Y-113293000D01*
X123047000Y-113547000D01*
X123027000Y-113547000D01*
X123027000Y-115833000D01*
X123047000Y-115833000D01*
X123047000Y-116087000D01*
X123027000Y-116087000D01*
X123027000Y-118373000D01*
X123047000Y-118373000D01*
X123047000Y-118627000D01*
X123027000Y-118627000D01*
X123027000Y-120913000D01*
X123047000Y-120913000D01*
X123047000Y-121167000D01*
X123027000Y-121167000D01*
X123027000Y-122360814D01*
X123256891Y-122481481D01*
X123531252Y-122384157D01*
X123781355Y-122235178D01*
X123997588Y-122040269D01*
X124168900Y-121810594D01*
X124286525Y-121986632D01*
X124493368Y-122193475D01*
X124736589Y-122355990D01*
X125006842Y-122467932D01*
X125293740Y-122525000D01*
X125586260Y-122525000D01*
X125873158Y-122467932D01*
X126143411Y-122355990D01*
X126386632Y-122193475D01*
X126593475Y-121986632D01*
X126755990Y-121743411D01*
X126867932Y-121473158D01*
X126873000Y-121447680D01*
X126873000Y-122873000D01*
X118127000Y-122873000D01*
X118127000Y-121396890D01*
X121458524Y-121396890D01*
X121503175Y-121544099D01*
X121628359Y-121806920D01*
X121802412Y-122040269D01*
X122018645Y-122235178D01*
X122268748Y-122384157D01*
X122543109Y-122481481D01*
X122773000Y-122360814D01*
X122773000Y-121167000D01*
X121579845Y-121167000D01*
X121458524Y-121396890D01*
X118127000Y-121396890D01*
X118127000Y-118856890D01*
X121458524Y-118856890D01*
X121503175Y-119004099D01*
X121628359Y-119266920D01*
X121802412Y-119500269D01*
X122018645Y-119695178D01*
X122144255Y-119770000D01*
X122018645Y-119844822D01*
X121802412Y-120039731D01*
X121628359Y-120273080D01*
X121503175Y-120535901D01*
X121458524Y-120683110D01*
X121579845Y-120913000D01*
X122773000Y-120913000D01*
X122773000Y-118627000D01*
X121579845Y-118627000D01*
X121458524Y-118856890D01*
X118127000Y-118856890D01*
X118127000Y-116316890D01*
X121458524Y-116316890D01*
X121503175Y-116464099D01*
X121628359Y-116726920D01*
X121802412Y-116960269D01*
X122018645Y-117155178D01*
X122144255Y-117230000D01*
X122018645Y-117304822D01*
X121802412Y-117499731D01*
X121628359Y-117733080D01*
X121503175Y-117995901D01*
X121458524Y-118143110D01*
X121579845Y-118373000D01*
X122773000Y-118373000D01*
X122773000Y-116087000D01*
X121579845Y-116087000D01*
X121458524Y-116316890D01*
X118127000Y-116316890D01*
X118127000Y-113776890D01*
X121458524Y-113776890D01*
X121503175Y-113924099D01*
X121628359Y-114186920D01*
X121802412Y-114420269D01*
X122018645Y-114615178D01*
X122144255Y-114690000D01*
X122018645Y-114764822D01*
X121802412Y-114959731D01*
X121628359Y-115193080D01*
X121503175Y-115455901D01*
X121458524Y-115603110D01*
X121579845Y-115833000D01*
X122773000Y-115833000D01*
X122773000Y-113547000D01*
X121579845Y-113547000D01*
X121458524Y-113776890D01*
X118127000Y-113776890D01*
X118127000Y-111236890D01*
X121458524Y-111236890D01*
X121503175Y-111384099D01*
X121628359Y-111646920D01*
X121802412Y-111880269D01*
X122018645Y-112075178D01*
X122144255Y-112150000D01*
X122018645Y-112224822D01*
X121802412Y-112419731D01*
X121628359Y-112653080D01*
X121503175Y-112915901D01*
X121458524Y-113063110D01*
X121579845Y-113293000D01*
X122773000Y-113293000D01*
X122773000Y-111007000D01*
X121579845Y-111007000D01*
X121458524Y-111236890D01*
X118127000Y-111236890D01*
X118127000Y-108696890D01*
X121458524Y-108696890D01*
X121503175Y-108844099D01*
X121628359Y-109106920D01*
X121802412Y-109340269D01*
X122018645Y-109535178D01*
X122144255Y-109610000D01*
X122018645Y-109684822D01*
X121802412Y-109879731D01*
X121628359Y-110113080D01*
X121503175Y-110375901D01*
X121458524Y-110523110D01*
X121579845Y-110753000D01*
X122773000Y-110753000D01*
X122773000Y-108467000D01*
X121579845Y-108467000D01*
X121458524Y-108696890D01*
X118127000Y-108696890D01*
X118127000Y-106650000D01*
X121411928Y-106650000D01*
X121424188Y-106774482D01*
X121460498Y-106894180D01*
X121519463Y-107004494D01*
X121598815Y-107101185D01*
X121695506Y-107180537D01*
X121805820Y-107239502D01*
X121886466Y-107263966D01*
X121802412Y-107339731D01*
X121628359Y-107573080D01*
X121503175Y-107835901D01*
X121458524Y-107983110D01*
X121579845Y-108213000D01*
X122773000Y-108213000D01*
X122773000Y-105927000D01*
X121573750Y-105927000D01*
X121415000Y-106085750D01*
X121411928Y-106650000D01*
X118127000Y-106650000D01*
X118127000Y-104950000D01*
X121411928Y-104950000D01*
X121415000Y-105514250D01*
X121573750Y-105673000D01*
X122773000Y-105673000D01*
X122773000Y-104473750D01*
X122614250Y-104315000D01*
X122050000Y-104311928D01*
X121925518Y-104324188D01*
X121805820Y-104360498D01*
X121695506Y-104419463D01*
X121598815Y-104498815D01*
X121519463Y-104595506D01*
X121460498Y-104705820D01*
X121424188Y-104825518D01*
X121411928Y-104950000D01*
X118127000Y-104950000D01*
X118127000Y-103198061D01*
X144065000Y-103198061D01*
X144065000Y-103401939D01*
X144104774Y-103601898D01*
X144182795Y-103790256D01*
X144296063Y-103959774D01*
X144440226Y-104103937D01*
X144609744Y-104217205D01*
X144798102Y-104295226D01*
X144998061Y-104335000D01*
X145201939Y-104335000D01*
X145387645Y-104298061D01*
X152965000Y-104298061D01*
X152965000Y-104501939D01*
X153004774Y-104701898D01*
X153082795Y-104890256D01*
X153196063Y-105059774D01*
X153340226Y-105203937D01*
X153509744Y-105317205D01*
X153698102Y-105395226D01*
X153722103Y-105400000D01*
X153698102Y-105404774D01*
X153509744Y-105482795D01*
X153340226Y-105596063D01*
X153196063Y-105740226D01*
X153082795Y-105909744D01*
X153004774Y-106098102D01*
X152965000Y-106298061D01*
X152965000Y-106501939D01*
X153004774Y-106701898D01*
X153082795Y-106890256D01*
X153196063Y-107059774D01*
X153340226Y-107203937D01*
X153509744Y-107317205D01*
X153698102Y-107395226D01*
X153898061Y-107435000D01*
X153981522Y-107435000D01*
X154004774Y-107551898D01*
X154082795Y-107740256D01*
X154196063Y-107909774D01*
X154340226Y-108053937D01*
X154509744Y-108167205D01*
X154698102Y-108245226D01*
X154898061Y-108285000D01*
X155101939Y-108285000D01*
X155301898Y-108245226D01*
X155490256Y-108167205D01*
X155659774Y-108053937D01*
X155803937Y-107909774D01*
X155917205Y-107740256D01*
X155995226Y-107551898D01*
X156035000Y-107351939D01*
X156035000Y-107148061D01*
X155995226Y-106948102D01*
X155917205Y-106759744D01*
X155803937Y-106590226D01*
X155659774Y-106446063D01*
X155490256Y-106332795D01*
X155301898Y-106254774D01*
X155101939Y-106215000D01*
X155018478Y-106215000D01*
X154995226Y-106098102D01*
X154917205Y-105909744D01*
X154803937Y-105740226D01*
X154659774Y-105596063D01*
X154490256Y-105482795D01*
X154301898Y-105404774D01*
X154277897Y-105400000D01*
X154301898Y-105395226D01*
X154490256Y-105317205D01*
X154659774Y-105203937D01*
X154803937Y-105059774D01*
X154917205Y-104890256D01*
X154995226Y-104701898D01*
X155035000Y-104501939D01*
X155035000Y-104298061D01*
X154995226Y-104098102D01*
X154917205Y-103909744D01*
X154803937Y-103740226D01*
X154659774Y-103596063D01*
X154490256Y-103482795D01*
X154301898Y-103404774D01*
X154101939Y-103365000D01*
X153898061Y-103365000D01*
X153698102Y-103404774D01*
X153509744Y-103482795D01*
X153340226Y-103596063D01*
X153196063Y-103740226D01*
X153082795Y-103909744D01*
X153004774Y-104098102D01*
X152965000Y-104298061D01*
X145387645Y-104298061D01*
X145401898Y-104295226D01*
X145590256Y-104217205D01*
X145759774Y-104103937D01*
X145903937Y-103959774D01*
X146017205Y-103790256D01*
X146095226Y-103601898D01*
X146135000Y-103401939D01*
X146135000Y-103198061D01*
X146095226Y-102998102D01*
X146017205Y-102809744D01*
X145903937Y-102640226D01*
X145759774Y-102496063D01*
X145590256Y-102382795D01*
X145401898Y-102304774D01*
X145201939Y-102265000D01*
X144998061Y-102265000D01*
X144798102Y-102304774D01*
X144609744Y-102382795D01*
X144440226Y-102496063D01*
X144296063Y-102640226D01*
X144182795Y-102809744D01*
X144104774Y-102998102D01*
X144065000Y-103198061D01*
X118127000Y-103198061D01*
X118127000Y-102148061D01*
X147215000Y-102148061D01*
X147215000Y-102351939D01*
X147254774Y-102551898D01*
X147332795Y-102740256D01*
X147446063Y-102909774D01*
X147590226Y-103053937D01*
X147759744Y-103167205D01*
X147948102Y-103245226D01*
X148148061Y-103285000D01*
X148351939Y-103285000D01*
X148551898Y-103245226D01*
X148740256Y-103167205D01*
X148909774Y-103053937D01*
X149053937Y-102909774D01*
X149167205Y-102740256D01*
X149245226Y-102551898D01*
X149285000Y-102351939D01*
X149285000Y-102148061D01*
X149245226Y-101948102D01*
X149167205Y-101759744D01*
X149142695Y-101723061D01*
X150490000Y-101723061D01*
X150490000Y-101926939D01*
X150529774Y-102126898D01*
X150607795Y-102315256D01*
X150721063Y-102484774D01*
X150865226Y-102628937D01*
X151034744Y-102742205D01*
X151223102Y-102820226D01*
X151423061Y-102860000D01*
X151626939Y-102860000D01*
X151826898Y-102820226D01*
X152015256Y-102742205D01*
X152184774Y-102628937D01*
X152328937Y-102484774D01*
X152442205Y-102315256D01*
X152520226Y-102126898D01*
X152560000Y-101926939D01*
X152560000Y-101723061D01*
X152545082Y-101648061D01*
X152965000Y-101648061D01*
X152965000Y-101851939D01*
X153004774Y-102051898D01*
X153082795Y-102240256D01*
X153196063Y-102409774D01*
X153340226Y-102553937D01*
X153509744Y-102667205D01*
X153698102Y-102745226D01*
X153898061Y-102785000D01*
X154101939Y-102785000D01*
X154301898Y-102745226D01*
X154490256Y-102667205D01*
X154659774Y-102553937D01*
X154803937Y-102409774D01*
X154917205Y-102240256D01*
X154995226Y-102051898D01*
X155035000Y-101851939D01*
X155035000Y-101648061D01*
X154995226Y-101448102D01*
X154917205Y-101259744D01*
X154803937Y-101090226D01*
X154659774Y-100946063D01*
X154490256Y-100832795D01*
X154301898Y-100754774D01*
X154101939Y-100715000D01*
X153898061Y-100715000D01*
X153698102Y-100754774D01*
X153509744Y-100832795D01*
X153340226Y-100946063D01*
X153196063Y-101090226D01*
X153082795Y-101259744D01*
X153004774Y-101448102D01*
X152965000Y-101648061D01*
X152545082Y-101648061D01*
X152520226Y-101523102D01*
X152442205Y-101334744D01*
X152328937Y-101165226D01*
X152184774Y-101021063D01*
X152015256Y-100907795D01*
X151826898Y-100829774D01*
X151626939Y-100790000D01*
X151423061Y-100790000D01*
X151223102Y-100829774D01*
X151034744Y-100907795D01*
X150865226Y-101021063D01*
X150721063Y-101165226D01*
X150607795Y-101334744D01*
X150529774Y-101523102D01*
X150490000Y-101723061D01*
X149142695Y-101723061D01*
X149053937Y-101590226D01*
X148909774Y-101446063D01*
X148740256Y-101332795D01*
X148551898Y-101254774D01*
X148351939Y-101215000D01*
X148148061Y-101215000D01*
X147948102Y-101254774D01*
X147759744Y-101332795D01*
X147590226Y-101446063D01*
X147446063Y-101590226D01*
X147332795Y-101759744D01*
X147254774Y-101948102D01*
X147215000Y-102148061D01*
X118127000Y-102148061D01*
X118127000Y-100998061D01*
X136965000Y-100998061D01*
X136965000Y-101201939D01*
X137004774Y-101401898D01*
X137082795Y-101590256D01*
X137196063Y-101759774D01*
X137340226Y-101903937D01*
X137509744Y-102017205D01*
X137698102Y-102095226D01*
X137898061Y-102135000D01*
X138101939Y-102135000D01*
X138301898Y-102095226D01*
X138490256Y-102017205D01*
X138659774Y-101903937D01*
X138803937Y-101759774D01*
X138917205Y-101590256D01*
X138995226Y-101401898D01*
X139035000Y-101201939D01*
X139035000Y-100998061D01*
X138995226Y-100798102D01*
X138917205Y-100609744D01*
X138803937Y-100440226D01*
X138659774Y-100296063D01*
X138490256Y-100182795D01*
X138301898Y-100104774D01*
X138101939Y-100065000D01*
X137898061Y-100065000D01*
X137698102Y-100104774D01*
X137509744Y-100182795D01*
X137340226Y-100296063D01*
X137196063Y-100440226D01*
X137082795Y-100609744D01*
X137004774Y-100798102D01*
X136965000Y-100998061D01*
X118127000Y-100998061D01*
X118127000Y-98898061D01*
X124965000Y-98898061D01*
X124965000Y-99101939D01*
X125004774Y-99301898D01*
X125082795Y-99490256D01*
X125196063Y-99659774D01*
X125340226Y-99803937D01*
X125509744Y-99917205D01*
X125698102Y-99995226D01*
X125898061Y-100035000D01*
X126101939Y-100035000D01*
X126301898Y-99995226D01*
X126490256Y-99917205D01*
X126659774Y-99803937D01*
X126803937Y-99659774D01*
X126917205Y-99490256D01*
X126995226Y-99301898D01*
X127035000Y-99101939D01*
X127035000Y-98898061D01*
X126995226Y-98698102D01*
X126917205Y-98509744D01*
X126803937Y-98340226D01*
X126659774Y-98196063D01*
X126490256Y-98082795D01*
X126301898Y-98004774D01*
X126101939Y-97965000D01*
X125898061Y-97965000D01*
X125698102Y-98004774D01*
X125509744Y-98082795D01*
X125340226Y-98196063D01*
X125196063Y-98340226D01*
X125082795Y-98509744D01*
X125004774Y-98698102D01*
X124965000Y-98898061D01*
X118127000Y-98898061D01*
X118127000Y-90898061D01*
X130215000Y-90898061D01*
X130215000Y-91101939D01*
X130254774Y-91301898D01*
X130332795Y-91490256D01*
X130446063Y-91659774D01*
X130590226Y-91803937D01*
X130759744Y-91917205D01*
X130948102Y-91995226D01*
X131148061Y-92035000D01*
X131351939Y-92035000D01*
X131551898Y-91995226D01*
X131740256Y-91917205D01*
X131909774Y-91803937D01*
X132053937Y-91659774D01*
X132167205Y-91490256D01*
X132245226Y-91301898D01*
X132245989Y-91298061D01*
X135765000Y-91298061D01*
X135765000Y-91501939D01*
X135804774Y-91701898D01*
X135882795Y-91890256D01*
X135996063Y-92059774D01*
X136140226Y-92203937D01*
X136309744Y-92317205D01*
X136498102Y-92395226D01*
X136698061Y-92435000D01*
X136901939Y-92435000D01*
X137101898Y-92395226D01*
X137290256Y-92317205D01*
X137459774Y-92203937D01*
X137603937Y-92059774D01*
X137717205Y-91890256D01*
X137795226Y-91701898D01*
X137835000Y-91501939D01*
X137835000Y-91298061D01*
X137795226Y-91098102D01*
X137795210Y-91098061D01*
X156365000Y-91098061D01*
X156365000Y-91301939D01*
X156404774Y-91501898D01*
X156482795Y-91690256D01*
X156596063Y-91859774D01*
X156740226Y-92003937D01*
X156909744Y-92117205D01*
X157098102Y-92195226D01*
X157298061Y-92235000D01*
X157501939Y-92235000D01*
X157701898Y-92195226D01*
X157890256Y-92117205D01*
X158059774Y-92003937D01*
X158203937Y-91859774D01*
X158317205Y-91690256D01*
X158395226Y-91501898D01*
X158435000Y-91301939D01*
X158435000Y-91098061D01*
X158395226Y-90898102D01*
X158317205Y-90709744D01*
X158203937Y-90540226D01*
X158059774Y-90396063D01*
X157890256Y-90282795D01*
X157701898Y-90204774D01*
X157501939Y-90165000D01*
X157298061Y-90165000D01*
X157098102Y-90204774D01*
X156909744Y-90282795D01*
X156740226Y-90396063D01*
X156596063Y-90540226D01*
X156482795Y-90709744D01*
X156404774Y-90898102D01*
X156365000Y-91098061D01*
X137795210Y-91098061D01*
X137717205Y-90909744D01*
X137603937Y-90740226D01*
X137459774Y-90596063D01*
X137290256Y-90482795D01*
X137101898Y-90404774D01*
X136901939Y-90365000D01*
X136698061Y-90365000D01*
X136498102Y-90404774D01*
X136309744Y-90482795D01*
X136140226Y-90596063D01*
X135996063Y-90740226D01*
X135882795Y-90909744D01*
X135804774Y-91098102D01*
X135765000Y-91298061D01*
X132245989Y-91298061D01*
X132285000Y-91101939D01*
X132285000Y-90898061D01*
X132245226Y-90698102D01*
X132167205Y-90509744D01*
X132053937Y-90340226D01*
X131909774Y-90196063D01*
X131740256Y-90082795D01*
X131551898Y-90004774D01*
X131351939Y-89965000D01*
X131148061Y-89965000D01*
X130948102Y-90004774D01*
X130759744Y-90082795D01*
X130590226Y-90196063D01*
X130446063Y-90340226D01*
X130332795Y-90509744D01*
X130254774Y-90698102D01*
X130215000Y-90898061D01*
X118127000Y-90898061D01*
X118127000Y-89073061D01*
X156840000Y-89073061D01*
X156840000Y-89276939D01*
X156879774Y-89476898D01*
X156957795Y-89665256D01*
X157071063Y-89834774D01*
X157215226Y-89978937D01*
X157384744Y-90092205D01*
X157573102Y-90170226D01*
X157773061Y-90210000D01*
X157976939Y-90210000D01*
X158176898Y-90170226D01*
X158365256Y-90092205D01*
X158534774Y-89978937D01*
X158678937Y-89834774D01*
X158792205Y-89665256D01*
X158870226Y-89476898D01*
X158910000Y-89276939D01*
X158910000Y-89073061D01*
X158870226Y-88873102D01*
X158792205Y-88684744D01*
X158678937Y-88515226D01*
X158534774Y-88371063D01*
X158365256Y-88257795D01*
X158176898Y-88179774D01*
X157976939Y-88140000D01*
X157773061Y-88140000D01*
X157573102Y-88179774D01*
X157384744Y-88257795D01*
X157215226Y-88371063D01*
X157071063Y-88515226D01*
X156957795Y-88684744D01*
X156879774Y-88873102D01*
X156840000Y-89073061D01*
X118127000Y-89073061D01*
X118127000Y-86398061D01*
X137665000Y-86398061D01*
X137665000Y-86601939D01*
X137704774Y-86801898D01*
X137782795Y-86990256D01*
X137896063Y-87159774D01*
X138040226Y-87303937D01*
X138209744Y-87417205D01*
X138398102Y-87495226D01*
X138598061Y-87535000D01*
X138801939Y-87535000D01*
X139001898Y-87495226D01*
X139190256Y-87417205D01*
X139218907Y-87398061D01*
X152215000Y-87398061D01*
X152215000Y-87601939D01*
X152254774Y-87801898D01*
X152332795Y-87990256D01*
X152446063Y-88159774D01*
X152590226Y-88303937D01*
X152759744Y-88417205D01*
X152948102Y-88495226D01*
X153148061Y-88535000D01*
X153351939Y-88535000D01*
X153551898Y-88495226D01*
X153740256Y-88417205D01*
X153909774Y-88303937D01*
X154053937Y-88159774D01*
X154167205Y-87990256D01*
X154245226Y-87801898D01*
X154285000Y-87601939D01*
X154285000Y-87398061D01*
X154245226Y-87198102D01*
X154167205Y-87009744D01*
X154053937Y-86840226D01*
X153909774Y-86696063D01*
X153740256Y-86582795D01*
X153551898Y-86504774D01*
X153351939Y-86465000D01*
X153148061Y-86465000D01*
X152948102Y-86504774D01*
X152759744Y-86582795D01*
X152590226Y-86696063D01*
X152446063Y-86840226D01*
X152332795Y-87009744D01*
X152254774Y-87198102D01*
X152215000Y-87398061D01*
X139218907Y-87398061D01*
X139359774Y-87303937D01*
X139503937Y-87159774D01*
X139617205Y-86990256D01*
X139695226Y-86801898D01*
X139735000Y-86601939D01*
X139735000Y-86398061D01*
X139695226Y-86198102D01*
X139617205Y-86009744D01*
X139503937Y-85840226D01*
X139359774Y-85696063D01*
X139190256Y-85582795D01*
X139001898Y-85504774D01*
X138801939Y-85465000D01*
X138598061Y-85465000D01*
X138398102Y-85504774D01*
X138209744Y-85582795D01*
X138040226Y-85696063D01*
X137896063Y-85840226D01*
X137782795Y-86009744D01*
X137704774Y-86198102D01*
X137665000Y-86398061D01*
X118127000Y-86398061D01*
X118127000Y-83898061D01*
X153215000Y-83898061D01*
X153215000Y-84101939D01*
X153254774Y-84301898D01*
X153332795Y-84490256D01*
X153446063Y-84659774D01*
X153590226Y-84803937D01*
X153759744Y-84917205D01*
X153948102Y-84995226D01*
X154148061Y-85035000D01*
X154351939Y-85035000D01*
X154551898Y-84995226D01*
X154740256Y-84917205D01*
X154909774Y-84803937D01*
X155053937Y-84659774D01*
X155167205Y-84490256D01*
X155245226Y-84301898D01*
X155285000Y-84101939D01*
X155285000Y-83898061D01*
X155245226Y-83698102D01*
X155167205Y-83509744D01*
X155053937Y-83340226D01*
X154909774Y-83196063D01*
X154740256Y-83082795D01*
X154551898Y-83004774D01*
X154351939Y-82965000D01*
X154148061Y-82965000D01*
X153948102Y-83004774D01*
X153759744Y-83082795D01*
X153590226Y-83196063D01*
X153446063Y-83340226D01*
X153332795Y-83509744D01*
X153254774Y-83698102D01*
X153215000Y-83898061D01*
X118127000Y-83898061D01*
X118127000Y-80127000D01*
X159873000Y-80127000D01*
X159873000Y-109873000D01*
%TO.N,GND*%
G36*
X211873000Y-144873000D02*
G01*
X118127000Y-144873000D01*
X118127000Y-133961066D01*
X127758539Y-133961066D01*
X127860339Y-134230579D01*
X128158477Y-134376463D01*
X128479346Y-134461380D01*
X128810617Y-134482066D01*
X129139557Y-134437728D01*
X129453527Y-134330069D01*
X129639661Y-134230579D01*
X129741461Y-133961066D01*
X128750000Y-132969605D01*
X127758539Y-133961066D01*
X118127000Y-133961066D01*
X118127000Y-132850617D01*
X127057934Y-132850617D01*
X127102272Y-133179557D01*
X127209931Y-133493527D01*
X127309421Y-133679661D01*
X127578934Y-133781461D01*
X128570395Y-132790000D01*
X128556253Y-132775858D01*
X128735858Y-132596253D01*
X128750000Y-132610395D01*
X128764143Y-132596253D01*
X128943748Y-132775858D01*
X128929605Y-132790000D01*
X129921066Y-133781461D01*
X130190579Y-133679661D01*
X130336463Y-133381523D01*
X130421380Y-133060654D01*
X130442066Y-132729383D01*
X130397728Y-132400443D01*
X130290069Y-132086473D01*
X130190579Y-131900339D01*
X130092918Y-131863451D01*
X130154494Y-131830537D01*
X130251185Y-131751185D01*
X130330537Y-131654494D01*
X130389502Y-131544180D01*
X130425812Y-131424482D01*
X130438072Y-131300000D01*
X130438072Y-129200000D01*
X130425812Y-129075518D01*
X130389502Y-128955820D01*
X130330537Y-128845506D01*
X130251185Y-128748815D01*
X130154494Y-128669463D01*
X130044180Y-128610498D01*
X129924482Y-128574188D01*
X129800000Y-128561928D01*
X127700000Y-128561928D01*
X127575518Y-128574188D01*
X127455820Y-128610498D01*
X127345506Y-128669463D01*
X127248815Y-128748815D01*
X127169463Y-128845506D01*
X127110498Y-128955820D01*
X127074188Y-129075518D01*
X127061928Y-129200000D01*
X127061928Y-131300000D01*
X127074188Y-131424482D01*
X127110498Y-131544180D01*
X127169463Y-131654494D01*
X127248815Y-131751185D01*
X127345506Y-131830537D01*
X127407082Y-131863451D01*
X127309421Y-131900339D01*
X127163537Y-132198477D01*
X127078620Y-132519346D01*
X127057934Y-132850617D01*
X118127000Y-132850617D01*
X118127000Y-124127000D01*
X123443586Y-124127000D01*
X123340226Y-124196063D01*
X123196063Y-124340226D01*
X123082795Y-124509744D01*
X123004774Y-124698102D01*
X122965000Y-124898061D01*
X122965000Y-125101939D01*
X123004774Y-125301898D01*
X123082795Y-125490256D01*
X123196063Y-125659774D01*
X123340226Y-125803937D01*
X123509744Y-125917205D01*
X123698102Y-125995226D01*
X123722103Y-126000000D01*
X123698102Y-126004774D01*
X123509744Y-126082795D01*
X123340226Y-126196063D01*
X123196063Y-126340226D01*
X123082795Y-126509744D01*
X123004774Y-126698102D01*
X122965000Y-126898061D01*
X122965000Y-127101939D01*
X123004774Y-127301898D01*
X123082795Y-127490256D01*
X123196063Y-127659774D01*
X123340226Y-127803937D01*
X123509744Y-127917205D01*
X123698102Y-127995226D01*
X123898061Y-128035000D01*
X124101939Y-128035000D01*
X124301898Y-127995226D01*
X124490256Y-127917205D01*
X124659774Y-127803937D01*
X124803937Y-127659774D01*
X124917205Y-127490256D01*
X124995226Y-127301898D01*
X125000000Y-127277897D01*
X125004774Y-127301898D01*
X125082795Y-127490256D01*
X125196063Y-127659774D01*
X125340226Y-127803937D01*
X125509744Y-127917205D01*
X125698102Y-127995226D01*
X125898061Y-128035000D01*
X126101939Y-128035000D01*
X126301898Y-127995226D01*
X126490256Y-127917205D01*
X126659774Y-127803937D01*
X126803937Y-127659774D01*
X126917205Y-127490256D01*
X126995226Y-127301898D01*
X127035000Y-127101939D01*
X127035000Y-126898061D01*
X126995226Y-126698102D01*
X126917205Y-126509744D01*
X126803937Y-126340226D01*
X126659774Y-126196063D01*
X126490256Y-126082795D01*
X126301898Y-126004774D01*
X126277897Y-126000000D01*
X126301898Y-125995226D01*
X126490256Y-125917205D01*
X126659774Y-125803937D01*
X126803937Y-125659774D01*
X126917205Y-125490256D01*
X126995226Y-125301898D01*
X127035000Y-125101939D01*
X127035000Y-124898061D01*
X127965000Y-124898061D01*
X127965000Y-125101939D01*
X128004774Y-125301898D01*
X128082795Y-125490256D01*
X128196063Y-125659774D01*
X128340226Y-125803937D01*
X128509744Y-125917205D01*
X128698102Y-125995226D01*
X128722103Y-126000000D01*
X128698102Y-126004774D01*
X128509744Y-126082795D01*
X128340226Y-126196063D01*
X128196063Y-126340226D01*
X128082795Y-126509744D01*
X128004774Y-126698102D01*
X127965000Y-126898061D01*
X127965000Y-127101939D01*
X128004774Y-127301898D01*
X128082795Y-127490256D01*
X128196063Y-127659774D01*
X128340226Y-127803937D01*
X128509744Y-127917205D01*
X128698102Y-127995226D01*
X128898061Y-128035000D01*
X129101939Y-128035000D01*
X129301898Y-127995226D01*
X129490256Y-127917205D01*
X129659774Y-127803937D01*
X129803937Y-127659774D01*
X129917205Y-127490256D01*
X129995226Y-127301898D01*
X130035000Y-127101939D01*
X130035000Y-126898061D01*
X130965000Y-126898061D01*
X130965000Y-127101939D01*
X131004774Y-127301898D01*
X131082795Y-127490256D01*
X131196063Y-127659774D01*
X131340226Y-127803937D01*
X131509744Y-127917205D01*
X131698102Y-127995226D01*
X131898061Y-128035000D01*
X132101939Y-128035000D01*
X132301898Y-127995226D01*
X132490256Y-127917205D01*
X132659774Y-127803937D01*
X132803937Y-127659774D01*
X132917205Y-127490256D01*
X132995226Y-127301898D01*
X133035000Y-127101939D01*
X133035000Y-126898061D01*
X132995226Y-126698102D01*
X132917205Y-126509744D01*
X132803937Y-126340226D01*
X132659774Y-126196063D01*
X132490256Y-126082795D01*
X132301898Y-126004774D01*
X132101939Y-125965000D01*
X131898061Y-125965000D01*
X131698102Y-126004774D01*
X131509744Y-126082795D01*
X131340226Y-126196063D01*
X131196063Y-126340226D01*
X131082795Y-126509744D01*
X131004774Y-126698102D01*
X130965000Y-126898061D01*
X130035000Y-126898061D01*
X129995226Y-126698102D01*
X129917205Y-126509744D01*
X129803937Y-126340226D01*
X129659774Y-126196063D01*
X129490256Y-126082795D01*
X129301898Y-126004774D01*
X129277897Y-126000000D01*
X129301898Y-125995226D01*
X129490256Y-125917205D01*
X129659774Y-125803937D01*
X129803937Y-125659774D01*
X129917205Y-125490256D01*
X129995226Y-125301898D01*
X130000000Y-125277897D01*
X130004774Y-125301898D01*
X130082795Y-125490256D01*
X130196063Y-125659774D01*
X130340226Y-125803937D01*
X130509744Y-125917205D01*
X130698102Y-125995226D01*
X130898061Y-126035000D01*
X131101939Y-126035000D01*
X131301898Y-125995226D01*
X131490256Y-125917205D01*
X131659774Y-125803937D01*
X131803937Y-125659774D01*
X131917205Y-125490256D01*
X131995226Y-125301898D01*
X132035000Y-125101939D01*
X132035000Y-124898061D01*
X134965000Y-124898061D01*
X134965000Y-125101939D01*
X135004774Y-125301898D01*
X135082795Y-125490256D01*
X135196063Y-125659774D01*
X135340226Y-125803937D01*
X135509744Y-125917205D01*
X135698102Y-125995226D01*
X135722103Y-126000000D01*
X135698102Y-126004774D01*
X135509744Y-126082795D01*
X135340226Y-126196063D01*
X135196063Y-126340226D01*
X135082795Y-126509744D01*
X135004774Y-126698102D01*
X134965000Y-126898061D01*
X134965000Y-127101939D01*
X135004774Y-127301898D01*
X135082795Y-127490256D01*
X135196063Y-127659774D01*
X135340226Y-127803937D01*
X135509744Y-127917205D01*
X135698102Y-127995226D01*
X135898061Y-128035000D01*
X136101939Y-128035000D01*
X136301898Y-127995226D01*
X136490256Y-127917205D01*
X136659774Y-127803937D01*
X136803937Y-127659774D01*
X136917205Y-127490256D01*
X136995226Y-127301898D01*
X137035000Y-127101939D01*
X137035000Y-126898061D01*
X136995226Y-126698102D01*
X136917205Y-126509744D01*
X136803937Y-126340226D01*
X136659774Y-126196063D01*
X136490256Y-126082795D01*
X136301898Y-126004774D01*
X136277897Y-126000000D01*
X136301898Y-125995226D01*
X136490256Y-125917205D01*
X136659774Y-125803937D01*
X136803937Y-125659774D01*
X136917205Y-125490256D01*
X136995226Y-125301898D01*
X137035000Y-125101939D01*
X137035000Y-124898061D01*
X137965000Y-124898061D01*
X137965000Y-125101939D01*
X138004774Y-125301898D01*
X138082795Y-125490256D01*
X138196063Y-125659774D01*
X138340226Y-125803937D01*
X138509744Y-125917205D01*
X138698102Y-125995226D01*
X138898061Y-126035000D01*
X139101939Y-126035000D01*
X139301898Y-125995226D01*
X139490256Y-125917205D01*
X139659774Y-125803937D01*
X139803937Y-125659774D01*
X139917205Y-125490256D01*
X139995226Y-125301898D01*
X140000000Y-125277897D01*
X140004774Y-125301898D01*
X140082795Y-125490256D01*
X140196063Y-125659774D01*
X140340226Y-125803937D01*
X140509744Y-125917205D01*
X140698102Y-125995226D01*
X140898061Y-126035000D01*
X141101939Y-126035000D01*
X141301898Y-125995226D01*
X141490256Y-125917205D01*
X141659774Y-125803937D01*
X141803937Y-125659774D01*
X141917205Y-125490256D01*
X141995226Y-125301898D01*
X142000000Y-125277897D01*
X142004774Y-125301898D01*
X142082795Y-125490256D01*
X142196063Y-125659774D01*
X142340226Y-125803937D01*
X142509744Y-125917205D01*
X142698102Y-125995226D01*
X142722103Y-126000000D01*
X142698102Y-126004774D01*
X142509744Y-126082795D01*
X142340226Y-126196063D01*
X142196063Y-126340226D01*
X142082795Y-126509744D01*
X142004774Y-126698102D01*
X141965000Y-126898061D01*
X141965000Y-127101939D01*
X142004774Y-127301898D01*
X142082795Y-127490256D01*
X142196063Y-127659774D01*
X142340226Y-127803937D01*
X142509744Y-127917205D01*
X142698102Y-127995226D01*
X142898061Y-128035000D01*
X143101939Y-128035000D01*
X143301898Y-127995226D01*
X143490256Y-127917205D01*
X143659774Y-127803937D01*
X143803937Y-127659774D01*
X143917205Y-127490256D01*
X143995226Y-127301898D01*
X144035000Y-127101939D01*
X144035000Y-126898061D01*
X143995226Y-126698102D01*
X143917205Y-126509744D01*
X143803937Y-126340226D01*
X143659774Y-126196063D01*
X143490256Y-126082795D01*
X143301898Y-126004774D01*
X143277897Y-126000000D01*
X143301898Y-125995226D01*
X143490256Y-125917205D01*
X143659774Y-125803937D01*
X143803937Y-125659774D01*
X143917205Y-125490256D01*
X143995226Y-125301898D01*
X144035000Y-125101939D01*
X144035000Y-124898061D01*
X145965000Y-124898061D01*
X145965000Y-125101939D01*
X146004774Y-125301898D01*
X146082795Y-125490256D01*
X146196063Y-125659774D01*
X146340226Y-125803937D01*
X146509744Y-125917205D01*
X146698102Y-125995226D01*
X146722103Y-126000000D01*
X146698102Y-126004774D01*
X146509744Y-126082795D01*
X146340226Y-126196063D01*
X146196063Y-126340226D01*
X146082795Y-126509744D01*
X146004774Y-126698102D01*
X145965000Y-126898061D01*
X145965000Y-127101939D01*
X146004774Y-127301898D01*
X146082795Y-127490256D01*
X146196063Y-127659774D01*
X146340226Y-127803937D01*
X146509744Y-127917205D01*
X146698102Y-127995226D01*
X146898061Y-128035000D01*
X147101939Y-128035000D01*
X147301898Y-127995226D01*
X147490256Y-127917205D01*
X147659774Y-127803937D01*
X147803937Y-127659774D01*
X147917205Y-127490256D01*
X147995226Y-127301898D01*
X148035000Y-127101939D01*
X148035000Y-126898061D01*
X147995226Y-126698102D01*
X147917205Y-126509744D01*
X147803937Y-126340226D01*
X147659774Y-126196063D01*
X147490256Y-126082795D01*
X147301898Y-126004774D01*
X147277897Y-126000000D01*
X147301898Y-125995226D01*
X147490256Y-125917205D01*
X147659774Y-125803937D01*
X147803937Y-125659774D01*
X147917205Y-125490256D01*
X147995226Y-125301898D01*
X148000000Y-125277897D01*
X148004774Y-125301898D01*
X148082795Y-125490256D01*
X148196063Y-125659774D01*
X148340226Y-125803937D01*
X148509744Y-125917205D01*
X148698102Y-125995226D01*
X148898061Y-126035000D01*
X149101939Y-126035000D01*
X149301898Y-125995226D01*
X149490256Y-125917205D01*
X149659774Y-125803937D01*
X149803937Y-125659774D01*
X149917205Y-125490256D01*
X149995226Y-125301898D01*
X150000000Y-125277897D01*
X150004774Y-125301898D01*
X150082795Y-125490256D01*
X150196063Y-125659774D01*
X150340226Y-125803937D01*
X150509744Y-125917205D01*
X150698102Y-125995226D01*
X150722103Y-126000000D01*
X150698102Y-126004774D01*
X150509744Y-126082795D01*
X150340226Y-126196063D01*
X150196063Y-126340226D01*
X150082795Y-126509744D01*
X150004774Y-126698102D01*
X149965000Y-126898061D01*
X149965000Y-127101939D01*
X150004774Y-127301898D01*
X150082795Y-127490256D01*
X150196063Y-127659774D01*
X150340226Y-127803937D01*
X150509744Y-127917205D01*
X150698102Y-127995226D01*
X150898061Y-128035000D01*
X151101939Y-128035000D01*
X151301898Y-127995226D01*
X151490256Y-127917205D01*
X151659774Y-127803937D01*
X151803937Y-127659774D01*
X151917205Y-127490256D01*
X151995226Y-127301898D01*
X152035000Y-127101939D01*
X152035000Y-126898061D01*
X151995226Y-126698102D01*
X151917205Y-126509744D01*
X151803937Y-126340226D01*
X151659774Y-126196063D01*
X151490256Y-126082795D01*
X151301898Y-126004774D01*
X151277897Y-126000000D01*
X151301898Y-125995226D01*
X151490256Y-125917205D01*
X151659774Y-125803937D01*
X151803937Y-125659774D01*
X151917205Y-125490256D01*
X151995226Y-125301898D01*
X152035000Y-125101939D01*
X152035000Y-124898061D01*
X151995226Y-124698102D01*
X151917205Y-124509744D01*
X151803937Y-124340226D01*
X151659774Y-124196063D01*
X151490256Y-124082795D01*
X151301898Y-124004774D01*
X151101939Y-123965000D01*
X150898061Y-123965000D01*
X150698102Y-124004774D01*
X150509744Y-124082795D01*
X150340226Y-124196063D01*
X150196063Y-124340226D01*
X150082795Y-124509744D01*
X150004774Y-124698102D01*
X150000000Y-124722103D01*
X149995226Y-124698102D01*
X149917205Y-124509744D01*
X149803937Y-124340226D01*
X149659774Y-124196063D01*
X149490256Y-124082795D01*
X149301898Y-124004774D01*
X149101939Y-123965000D01*
X148898061Y-123965000D01*
X148698102Y-124004774D01*
X148509744Y-124082795D01*
X148340226Y-124196063D01*
X148196063Y-124340226D01*
X148082795Y-124509744D01*
X148004774Y-124698102D01*
X148000000Y-124722103D01*
X147995226Y-124698102D01*
X147917205Y-124509744D01*
X147803937Y-124340226D01*
X147659774Y-124196063D01*
X147490256Y-124082795D01*
X147301898Y-124004774D01*
X147101939Y-123965000D01*
X146898061Y-123965000D01*
X146698102Y-124004774D01*
X146509744Y-124082795D01*
X146340226Y-124196063D01*
X146196063Y-124340226D01*
X146082795Y-124509744D01*
X146004774Y-124698102D01*
X145965000Y-124898061D01*
X144035000Y-124898061D01*
X143995226Y-124698102D01*
X143917205Y-124509744D01*
X143803937Y-124340226D01*
X143659774Y-124196063D01*
X143490256Y-124082795D01*
X143301898Y-124004774D01*
X143101939Y-123965000D01*
X142898061Y-123965000D01*
X142698102Y-124004774D01*
X142509744Y-124082795D01*
X142340226Y-124196063D01*
X142196063Y-124340226D01*
X142082795Y-124509744D01*
X142004774Y-124698102D01*
X142000000Y-124722103D01*
X141995226Y-124698102D01*
X141917205Y-124509744D01*
X141803937Y-124340226D01*
X141659774Y-124196063D01*
X141490256Y-124082795D01*
X141301898Y-124004774D01*
X141101939Y-123965000D01*
X140898061Y-123965000D01*
X140698102Y-124004774D01*
X140509744Y-124082795D01*
X140340226Y-124196063D01*
X140196063Y-124340226D01*
X140082795Y-124509744D01*
X140004774Y-124698102D01*
X140000000Y-124722103D01*
X139995226Y-124698102D01*
X139917205Y-124509744D01*
X139803937Y-124340226D01*
X139659774Y-124196063D01*
X139490256Y-124082795D01*
X139301898Y-124004774D01*
X139101939Y-123965000D01*
X138898061Y-123965000D01*
X138698102Y-124004774D01*
X138509744Y-124082795D01*
X138340226Y-124196063D01*
X138196063Y-124340226D01*
X138082795Y-124509744D01*
X138004774Y-124698102D01*
X137965000Y-124898061D01*
X137035000Y-124898061D01*
X136995226Y-124698102D01*
X136917205Y-124509744D01*
X136803937Y-124340226D01*
X136659774Y-124196063D01*
X136490256Y-124082795D01*
X136301898Y-124004774D01*
X136101939Y-123965000D01*
X135898061Y-123965000D01*
X135698102Y-124004774D01*
X135509744Y-124082795D01*
X135340226Y-124196063D01*
X135196063Y-124340226D01*
X135082795Y-124509744D01*
X135004774Y-124698102D01*
X134965000Y-124898061D01*
X132035000Y-124898061D01*
X131995226Y-124698102D01*
X131917205Y-124509744D01*
X131803937Y-124340226D01*
X131659774Y-124196063D01*
X131490256Y-124082795D01*
X131301898Y-124004774D01*
X131101939Y-123965000D01*
X130898061Y-123965000D01*
X130698102Y-124004774D01*
X130509744Y-124082795D01*
X130340226Y-124196063D01*
X130196063Y-124340226D01*
X130082795Y-124509744D01*
X130004774Y-124698102D01*
X130000000Y-124722103D01*
X129995226Y-124698102D01*
X129917205Y-124509744D01*
X129803937Y-124340226D01*
X129659774Y-124196063D01*
X129490256Y-124082795D01*
X129301898Y-124004774D01*
X129101939Y-123965000D01*
X128898061Y-123965000D01*
X128698102Y-124004774D01*
X128509744Y-124082795D01*
X128340226Y-124196063D01*
X128196063Y-124340226D01*
X128082795Y-124509744D01*
X128004774Y-124698102D01*
X127965000Y-124898061D01*
X127035000Y-124898061D01*
X126995226Y-124698102D01*
X126917205Y-124509744D01*
X126803937Y-124340226D01*
X126659774Y-124196063D01*
X126556414Y-124127000D01*
X128000000Y-124127000D01*
X128024776Y-124124560D01*
X128048601Y-124117333D01*
X128070557Y-124105597D01*
X128089803Y-124089803D01*
X128105597Y-124070557D01*
X128117333Y-124048601D01*
X128124560Y-124024776D01*
X128127000Y-124000000D01*
X128127000Y-122898061D01*
X146965000Y-122898061D01*
X146965000Y-123101939D01*
X147004774Y-123301898D01*
X147082795Y-123490256D01*
X147196063Y-123659774D01*
X147340226Y-123803937D01*
X147509744Y-123917205D01*
X147698102Y-123995226D01*
X147898061Y-124035000D01*
X148101939Y-124035000D01*
X148301898Y-123995226D01*
X148490256Y-123917205D01*
X148659774Y-123803937D01*
X148803937Y-123659774D01*
X148917205Y-123490256D01*
X148995226Y-123301898D01*
X149035000Y-123101939D01*
X149035000Y-122898061D01*
X149011131Y-122778061D01*
X152845000Y-122778061D01*
X152845000Y-122981939D01*
X152884774Y-123181898D01*
X152962795Y-123370256D01*
X153076063Y-123539774D01*
X153220226Y-123683937D01*
X153389744Y-123797205D01*
X153578102Y-123875226D01*
X153778061Y-123915000D01*
X153981939Y-123915000D01*
X154181898Y-123875226D01*
X154370256Y-123797205D01*
X154539774Y-123683937D01*
X154683937Y-123539774D01*
X154797205Y-123370256D01*
X154875226Y-123181898D01*
X154915000Y-122981939D01*
X154915000Y-122778061D01*
X154875226Y-122578102D01*
X154797205Y-122389744D01*
X154683937Y-122220226D01*
X154539774Y-122076063D01*
X154370256Y-121962795D01*
X154181898Y-121884774D01*
X153981939Y-121845000D01*
X153778061Y-121845000D01*
X153578102Y-121884774D01*
X153389744Y-121962795D01*
X153220226Y-122076063D01*
X153076063Y-122220226D01*
X152962795Y-122389744D01*
X152884774Y-122578102D01*
X152845000Y-122778061D01*
X149011131Y-122778061D01*
X148995226Y-122698102D01*
X148917205Y-122509744D01*
X148803937Y-122340226D01*
X148659774Y-122196063D01*
X148490256Y-122082795D01*
X148301898Y-122004774D01*
X148101939Y-121965000D01*
X147898061Y-121965000D01*
X147698102Y-122004774D01*
X147509744Y-122082795D01*
X147340226Y-122196063D01*
X147196063Y-122340226D01*
X147082795Y-122509744D01*
X147004774Y-122698102D01*
X146965000Y-122898061D01*
X128127000Y-122898061D01*
X128127000Y-118898061D01*
X175965000Y-118898061D01*
X175965000Y-119101939D01*
X176004774Y-119301898D01*
X176082795Y-119490256D01*
X176196063Y-119659774D01*
X176340226Y-119803937D01*
X176509744Y-119917205D01*
X176698102Y-119995226D01*
X176898061Y-120035000D01*
X177101939Y-120035000D01*
X177301898Y-119995226D01*
X177490256Y-119917205D01*
X177659774Y-119803937D01*
X177803937Y-119659774D01*
X177917205Y-119490256D01*
X177995226Y-119301898D01*
X178035000Y-119101939D01*
X178035000Y-118898061D01*
X177995226Y-118698102D01*
X177917205Y-118509744D01*
X177803937Y-118340226D01*
X177659774Y-118196063D01*
X177490256Y-118082795D01*
X177301898Y-118004774D01*
X177101939Y-117965000D01*
X176898061Y-117965000D01*
X176698102Y-118004774D01*
X176509744Y-118082795D01*
X176340226Y-118196063D01*
X176196063Y-118340226D01*
X176082795Y-118509744D01*
X176004774Y-118698102D01*
X175965000Y-118898061D01*
X128127000Y-118898061D01*
X128127000Y-114760617D01*
X188917934Y-114760617D01*
X188962272Y-115089557D01*
X189069931Y-115403527D01*
X189169421Y-115589661D01*
X189267082Y-115626549D01*
X189205506Y-115659463D01*
X189108815Y-115738815D01*
X189029463Y-115835506D01*
X188970498Y-115945820D01*
X188934188Y-116065518D01*
X188921928Y-116190000D01*
X188921928Y-118290000D01*
X188934188Y-118414482D01*
X188970498Y-118534180D01*
X189029463Y-118644494D01*
X189108815Y-118741185D01*
X189205506Y-118820537D01*
X189315820Y-118879502D01*
X189435518Y-118915812D01*
X189560000Y-118928072D01*
X191660000Y-118928072D01*
X191784482Y-118915812D01*
X191904180Y-118879502D01*
X192014494Y-118820537D01*
X192111185Y-118741185D01*
X192190537Y-118644494D01*
X192249502Y-118534180D01*
X192285812Y-118414482D01*
X192298072Y-118290000D01*
X192298072Y-116190000D01*
X192285812Y-116065518D01*
X192249502Y-115945820D01*
X192190537Y-115835506D01*
X192111185Y-115738815D01*
X192014494Y-115659463D01*
X191952918Y-115626549D01*
X192050579Y-115589661D01*
X192196463Y-115291523D01*
X192281380Y-114970654D01*
X192302066Y-114639383D01*
X192257728Y-114310443D01*
X192150069Y-113996473D01*
X192050579Y-113810339D01*
X191781066Y-113708539D01*
X190789605Y-114700000D01*
X190803748Y-114714143D01*
X190624143Y-114893748D01*
X190610000Y-114879605D01*
X190595858Y-114893748D01*
X190416253Y-114714143D01*
X190430395Y-114700000D01*
X189438934Y-113708539D01*
X189169421Y-113810339D01*
X189023537Y-114108477D01*
X188938620Y-114429346D01*
X188917934Y-114760617D01*
X128127000Y-114760617D01*
X128127000Y-113528934D01*
X189618539Y-113528934D01*
X190610000Y-114520395D01*
X191601461Y-113528934D01*
X191499661Y-113259421D01*
X191201523Y-113113537D01*
X190880654Y-113028620D01*
X190549383Y-113007934D01*
X190220443Y-113052272D01*
X189906473Y-113159931D01*
X189720339Y-113259421D01*
X189618539Y-113528934D01*
X128127000Y-113528934D01*
X128127000Y-110224999D01*
X128291938Y-110224999D01*
X128491897Y-110185225D01*
X128680255Y-110107204D01*
X128849773Y-109993936D01*
X128945648Y-109898061D01*
X134965000Y-109898061D01*
X134965000Y-110101939D01*
X135004774Y-110301898D01*
X135082795Y-110490256D01*
X135196063Y-110659774D01*
X135340226Y-110803937D01*
X135509744Y-110917205D01*
X135698102Y-110995226D01*
X135722103Y-111000000D01*
X135698102Y-111004774D01*
X135509744Y-111082795D01*
X135340226Y-111196063D01*
X135196063Y-111340226D01*
X135082795Y-111509744D01*
X135004774Y-111698102D01*
X134965000Y-111898061D01*
X134965000Y-112101939D01*
X135004774Y-112301898D01*
X135082795Y-112490256D01*
X135196063Y-112659774D01*
X135340226Y-112803937D01*
X135509744Y-112917205D01*
X135698102Y-112995226D01*
X135898061Y-113035000D01*
X136101939Y-113035000D01*
X136301898Y-112995226D01*
X136490256Y-112917205D01*
X136659774Y-112803937D01*
X136803937Y-112659774D01*
X136917205Y-112490256D01*
X136995226Y-112301898D01*
X137000000Y-112277897D01*
X137004774Y-112301898D01*
X137082795Y-112490256D01*
X137196063Y-112659774D01*
X137340226Y-112803937D01*
X137509744Y-112917205D01*
X137698102Y-112995226D01*
X137898061Y-113035000D01*
X138101939Y-113035000D01*
X138301898Y-112995226D01*
X138490256Y-112917205D01*
X138659774Y-112803937D01*
X138803937Y-112659774D01*
X138917205Y-112490256D01*
X138995226Y-112301898D01*
X139000000Y-112277897D01*
X139004774Y-112301898D01*
X139082795Y-112490256D01*
X139196063Y-112659774D01*
X139340226Y-112803937D01*
X139509744Y-112917205D01*
X139698102Y-112995226D01*
X139898061Y-113035000D01*
X140101939Y-113035000D01*
X140301898Y-112995226D01*
X140490256Y-112917205D01*
X140659774Y-112803937D01*
X140803937Y-112659774D01*
X140917205Y-112490256D01*
X140995226Y-112301898D01*
X141035000Y-112101939D01*
X141035000Y-111898061D01*
X140995226Y-111698102D01*
X140917205Y-111509744D01*
X140803937Y-111340226D01*
X140659774Y-111196063D01*
X140490256Y-111082795D01*
X140301898Y-111004774D01*
X140277897Y-111000000D01*
X140301898Y-110995226D01*
X140490256Y-110917205D01*
X140659774Y-110803937D01*
X140803937Y-110659774D01*
X140917205Y-110490256D01*
X140995226Y-110301898D01*
X141035000Y-110101939D01*
X141035000Y-109898061D01*
X140995226Y-109698102D01*
X140917205Y-109509744D01*
X140803937Y-109340226D01*
X140659774Y-109196063D01*
X140490256Y-109082795D01*
X140301898Y-109004774D01*
X140101939Y-108965000D01*
X139898061Y-108965000D01*
X139698102Y-109004774D01*
X139509744Y-109082795D01*
X139340226Y-109196063D01*
X139196063Y-109340226D01*
X139082795Y-109509744D01*
X139004774Y-109698102D01*
X139000000Y-109722103D01*
X138995226Y-109698102D01*
X138917205Y-109509744D01*
X138803937Y-109340226D01*
X138659774Y-109196063D01*
X138490256Y-109082795D01*
X138301898Y-109004774D01*
X138101939Y-108965000D01*
X137898061Y-108965000D01*
X137698102Y-109004774D01*
X137509744Y-109082795D01*
X137340226Y-109196063D01*
X137196063Y-109340226D01*
X137082795Y-109509744D01*
X137004774Y-109698102D01*
X137000000Y-109722103D01*
X136995226Y-109698102D01*
X136917205Y-109509744D01*
X136803937Y-109340226D01*
X136659774Y-109196063D01*
X136490256Y-109082795D01*
X136301898Y-109004774D01*
X136101939Y-108965000D01*
X135898061Y-108965000D01*
X135698102Y-109004774D01*
X135509744Y-109082795D01*
X135340226Y-109196063D01*
X135196063Y-109340226D01*
X135082795Y-109509744D01*
X135004774Y-109698102D01*
X134965000Y-109898061D01*
X128945648Y-109898061D01*
X128993936Y-109849773D01*
X129107204Y-109680255D01*
X129185225Y-109491897D01*
X129224999Y-109291938D01*
X129224999Y-109088060D01*
X129185225Y-108888101D01*
X129107204Y-108699743D01*
X128993936Y-108530225D01*
X128849773Y-108386062D01*
X128680255Y-108272794D01*
X128491897Y-108194773D01*
X128291938Y-108154999D01*
X128127000Y-108154999D01*
X128127000Y-107127000D01*
X150873000Y-107127000D01*
X150873000Y-111000000D01*
X150875440Y-111024776D01*
X150882667Y-111048601D01*
X150894403Y-111070557D01*
X150910197Y-111089803D01*
X150929443Y-111105597D01*
X150951399Y-111117333D01*
X150975224Y-111124560D01*
X151000000Y-111127000D01*
X161000000Y-111127000D01*
X161024776Y-111124560D01*
X161048601Y-111117333D01*
X161070557Y-111105597D01*
X161089803Y-111089803D01*
X161105597Y-111070557D01*
X161117333Y-111048601D01*
X161124560Y-111024776D01*
X161127000Y-111000000D01*
X161127000Y-108811066D01*
X189418539Y-108811066D01*
X189520339Y-109080579D01*
X189818477Y-109226463D01*
X190139346Y-109311380D01*
X190470617Y-109332066D01*
X190799557Y-109287728D01*
X191113527Y-109180069D01*
X191299661Y-109080579D01*
X191401461Y-108811066D01*
X190410000Y-107819605D01*
X189418539Y-108811066D01*
X161127000Y-108811066D01*
X161127000Y-107700617D01*
X188717934Y-107700617D01*
X188762272Y-108029557D01*
X188869931Y-108343527D01*
X188969421Y-108529661D01*
X189238934Y-108631461D01*
X190230395Y-107640000D01*
X190216253Y-107625858D01*
X190395858Y-107446253D01*
X190410000Y-107460395D01*
X190424143Y-107446253D01*
X190603748Y-107625858D01*
X190589605Y-107640000D01*
X191581066Y-108631461D01*
X191850579Y-108529661D01*
X191996463Y-108231523D01*
X192081380Y-107910654D01*
X192102066Y-107579383D01*
X192057728Y-107250443D01*
X191950069Y-106936473D01*
X191850579Y-106750339D01*
X191752918Y-106713451D01*
X191814494Y-106680537D01*
X191911185Y-106601185D01*
X191990537Y-106504494D01*
X192049502Y-106394180D01*
X192085812Y-106274482D01*
X192098072Y-106150000D01*
X192098072Y-104050000D01*
X192085812Y-103925518D01*
X192049502Y-103805820D01*
X191990537Y-103695506D01*
X191911185Y-103598815D01*
X191814494Y-103519463D01*
X191704180Y-103460498D01*
X191584482Y-103424188D01*
X191460000Y-103411928D01*
X189360000Y-103411928D01*
X189235518Y-103424188D01*
X189115820Y-103460498D01*
X189005506Y-103519463D01*
X188908815Y-103598815D01*
X188829463Y-103695506D01*
X188770498Y-103805820D01*
X188734188Y-103925518D01*
X188721928Y-104050000D01*
X188721928Y-106150000D01*
X188734188Y-106274482D01*
X188770498Y-106394180D01*
X188829463Y-106504494D01*
X188908815Y-106601185D01*
X189005506Y-106680537D01*
X189067082Y-106713451D01*
X188969421Y-106750339D01*
X188823537Y-107048477D01*
X188738620Y-107369346D01*
X188717934Y-107700617D01*
X161127000Y-107700617D01*
X161127000Y-103398061D01*
X176465000Y-103398061D01*
X176465000Y-103601939D01*
X176504774Y-103801898D01*
X176582795Y-103990256D01*
X176696063Y-104159774D01*
X176840226Y-104303937D01*
X177009744Y-104417205D01*
X177198102Y-104495226D01*
X177398061Y-104535000D01*
X177601939Y-104535000D01*
X177801898Y-104495226D01*
X177990256Y-104417205D01*
X178159774Y-104303937D01*
X178303937Y-104159774D01*
X178417205Y-103990256D01*
X178495226Y-103801898D01*
X178535000Y-103601939D01*
X178535000Y-103398061D01*
X178495226Y-103198102D01*
X178417205Y-103009744D01*
X178303937Y-102840226D01*
X178159774Y-102696063D01*
X177990256Y-102582795D01*
X177801898Y-102504774D01*
X177601939Y-102465000D01*
X177398061Y-102465000D01*
X177198102Y-102504774D01*
X177009744Y-102582795D01*
X176840226Y-102696063D01*
X176696063Y-102840226D01*
X176582795Y-103009744D01*
X176504774Y-103198102D01*
X176465000Y-103398061D01*
X161127000Y-103398061D01*
X161127000Y-80127000D01*
X211873000Y-80127000D01*
X211873000Y-144873000D01*
G37*
X211873000Y-144873000D02*
X118127000Y-144873000D01*
X118127000Y-133961066D01*
X127758539Y-133961066D01*
X127860339Y-134230579D01*
X128158477Y-134376463D01*
X128479346Y-134461380D01*
X128810617Y-134482066D01*
X129139557Y-134437728D01*
X129453527Y-134330069D01*
X129639661Y-134230579D01*
X129741461Y-133961066D01*
X128750000Y-132969605D01*
X127758539Y-133961066D01*
X118127000Y-133961066D01*
X118127000Y-132850617D01*
X127057934Y-132850617D01*
X127102272Y-133179557D01*
X127209931Y-133493527D01*
X127309421Y-133679661D01*
X127578934Y-133781461D01*
X128570395Y-132790000D01*
X128556253Y-132775858D01*
X128735858Y-132596253D01*
X128750000Y-132610395D01*
X128764143Y-132596253D01*
X128943748Y-132775858D01*
X128929605Y-132790000D01*
X129921066Y-133781461D01*
X130190579Y-133679661D01*
X130336463Y-133381523D01*
X130421380Y-133060654D01*
X130442066Y-132729383D01*
X130397728Y-132400443D01*
X130290069Y-132086473D01*
X130190579Y-131900339D01*
X130092918Y-131863451D01*
X130154494Y-131830537D01*
X130251185Y-131751185D01*
X130330537Y-131654494D01*
X130389502Y-131544180D01*
X130425812Y-131424482D01*
X130438072Y-131300000D01*
X130438072Y-129200000D01*
X130425812Y-129075518D01*
X130389502Y-128955820D01*
X130330537Y-128845506D01*
X130251185Y-128748815D01*
X130154494Y-128669463D01*
X130044180Y-128610498D01*
X129924482Y-128574188D01*
X129800000Y-128561928D01*
X127700000Y-128561928D01*
X127575518Y-128574188D01*
X127455820Y-128610498D01*
X127345506Y-128669463D01*
X127248815Y-128748815D01*
X127169463Y-128845506D01*
X127110498Y-128955820D01*
X127074188Y-129075518D01*
X127061928Y-129200000D01*
X127061928Y-131300000D01*
X127074188Y-131424482D01*
X127110498Y-131544180D01*
X127169463Y-131654494D01*
X127248815Y-131751185D01*
X127345506Y-131830537D01*
X127407082Y-131863451D01*
X127309421Y-131900339D01*
X127163537Y-132198477D01*
X127078620Y-132519346D01*
X127057934Y-132850617D01*
X118127000Y-132850617D01*
X118127000Y-124127000D01*
X123443586Y-124127000D01*
X123340226Y-124196063D01*
X123196063Y-124340226D01*
X123082795Y-124509744D01*
X123004774Y-124698102D01*
X122965000Y-124898061D01*
X122965000Y-125101939D01*
X123004774Y-125301898D01*
X123082795Y-125490256D01*
X123196063Y-125659774D01*
X123340226Y-125803937D01*
X123509744Y-125917205D01*
X123698102Y-125995226D01*
X123722103Y-126000000D01*
X123698102Y-126004774D01*
X123509744Y-126082795D01*
X123340226Y-126196063D01*
X123196063Y-126340226D01*
X123082795Y-126509744D01*
X123004774Y-126698102D01*
X122965000Y-126898061D01*
X122965000Y-127101939D01*
X123004774Y-127301898D01*
X123082795Y-127490256D01*
X123196063Y-127659774D01*
X123340226Y-127803937D01*
X123509744Y-127917205D01*
X123698102Y-127995226D01*
X123898061Y-128035000D01*
X124101939Y-128035000D01*
X124301898Y-127995226D01*
X124490256Y-127917205D01*
X124659774Y-127803937D01*
X124803937Y-127659774D01*
X124917205Y-127490256D01*
X124995226Y-127301898D01*
X125000000Y-127277897D01*
X125004774Y-127301898D01*
X125082795Y-127490256D01*
X125196063Y-127659774D01*
X125340226Y-127803937D01*
X125509744Y-127917205D01*
X125698102Y-127995226D01*
X125898061Y-128035000D01*
X126101939Y-128035000D01*
X126301898Y-127995226D01*
X126490256Y-127917205D01*
X126659774Y-127803937D01*
X126803937Y-127659774D01*
X126917205Y-127490256D01*
X126995226Y-127301898D01*
X127035000Y-127101939D01*
X127035000Y-126898061D01*
X126995226Y-126698102D01*
X126917205Y-126509744D01*
X126803937Y-126340226D01*
X126659774Y-126196063D01*
X126490256Y-126082795D01*
X126301898Y-126004774D01*
X126277897Y-126000000D01*
X126301898Y-125995226D01*
X126490256Y-125917205D01*
X126659774Y-125803937D01*
X126803937Y-125659774D01*
X126917205Y-125490256D01*
X126995226Y-125301898D01*
X127035000Y-125101939D01*
X127035000Y-124898061D01*
X127965000Y-124898061D01*
X127965000Y-125101939D01*
X128004774Y-125301898D01*
X128082795Y-125490256D01*
X128196063Y-125659774D01*
X128340226Y-125803937D01*
X128509744Y-125917205D01*
X128698102Y-125995226D01*
X128722103Y-126000000D01*
X128698102Y-126004774D01*
X128509744Y-126082795D01*
X128340226Y-126196063D01*
X128196063Y-126340226D01*
X128082795Y-126509744D01*
X128004774Y-126698102D01*
X127965000Y-126898061D01*
X127965000Y-127101939D01*
X128004774Y-127301898D01*
X128082795Y-127490256D01*
X128196063Y-127659774D01*
X128340226Y-127803937D01*
X128509744Y-127917205D01*
X128698102Y-127995226D01*
X128898061Y-128035000D01*
X129101939Y-128035000D01*
X129301898Y-127995226D01*
X129490256Y-127917205D01*
X129659774Y-127803937D01*
X129803937Y-127659774D01*
X129917205Y-127490256D01*
X129995226Y-127301898D01*
X130035000Y-127101939D01*
X130035000Y-126898061D01*
X130965000Y-126898061D01*
X130965000Y-127101939D01*
X131004774Y-127301898D01*
X131082795Y-127490256D01*
X131196063Y-127659774D01*
X131340226Y-127803937D01*
X131509744Y-127917205D01*
X131698102Y-127995226D01*
X131898061Y-128035000D01*
X132101939Y-128035000D01*
X132301898Y-127995226D01*
X132490256Y-127917205D01*
X132659774Y-127803937D01*
X132803937Y-127659774D01*
X132917205Y-127490256D01*
X132995226Y-127301898D01*
X133035000Y-127101939D01*
X133035000Y-126898061D01*
X132995226Y-126698102D01*
X132917205Y-126509744D01*
X132803937Y-126340226D01*
X132659774Y-126196063D01*
X132490256Y-126082795D01*
X132301898Y-126004774D01*
X132101939Y-125965000D01*
X131898061Y-125965000D01*
X131698102Y-126004774D01*
X131509744Y-126082795D01*
X131340226Y-126196063D01*
X131196063Y-126340226D01*
X131082795Y-126509744D01*
X131004774Y-126698102D01*
X130965000Y-126898061D01*
X130035000Y-126898061D01*
X129995226Y-126698102D01*
X129917205Y-126509744D01*
X129803937Y-126340226D01*
X129659774Y-126196063D01*
X129490256Y-126082795D01*
X129301898Y-126004774D01*
X129277897Y-126000000D01*
X129301898Y-125995226D01*
X129490256Y-125917205D01*
X129659774Y-125803937D01*
X129803937Y-125659774D01*
X129917205Y-125490256D01*
X129995226Y-125301898D01*
X130000000Y-125277897D01*
X130004774Y-125301898D01*
X130082795Y-125490256D01*
X130196063Y-125659774D01*
X130340226Y-125803937D01*
X130509744Y-125917205D01*
X130698102Y-125995226D01*
X130898061Y-126035000D01*
X131101939Y-126035000D01*
X131301898Y-125995226D01*
X131490256Y-125917205D01*
X131659774Y-125803937D01*
X131803937Y-125659774D01*
X131917205Y-125490256D01*
X131995226Y-125301898D01*
X132035000Y-125101939D01*
X132035000Y-124898061D01*
X134965000Y-124898061D01*
X134965000Y-125101939D01*
X135004774Y-125301898D01*
X135082795Y-125490256D01*
X135196063Y-125659774D01*
X135340226Y-125803937D01*
X135509744Y-125917205D01*
X135698102Y-125995226D01*
X135722103Y-126000000D01*
X135698102Y-126004774D01*
X135509744Y-126082795D01*
X135340226Y-126196063D01*
X135196063Y-126340226D01*
X135082795Y-126509744D01*
X135004774Y-126698102D01*
X134965000Y-126898061D01*
X134965000Y-127101939D01*
X135004774Y-127301898D01*
X135082795Y-127490256D01*
X135196063Y-127659774D01*
X135340226Y-127803937D01*
X135509744Y-127917205D01*
X135698102Y-127995226D01*
X135898061Y-128035000D01*
X136101939Y-128035000D01*
X136301898Y-127995226D01*
X136490256Y-127917205D01*
X136659774Y-127803937D01*
X136803937Y-127659774D01*
X136917205Y-127490256D01*
X136995226Y-127301898D01*
X137035000Y-127101939D01*
X137035000Y-126898061D01*
X136995226Y-126698102D01*
X136917205Y-126509744D01*
X136803937Y-126340226D01*
X136659774Y-126196063D01*
X136490256Y-126082795D01*
X136301898Y-126004774D01*
X136277897Y-126000000D01*
X136301898Y-125995226D01*
X136490256Y-125917205D01*
X136659774Y-125803937D01*
X136803937Y-125659774D01*
X136917205Y-125490256D01*
X136995226Y-125301898D01*
X137035000Y-125101939D01*
X137035000Y-124898061D01*
X137965000Y-124898061D01*
X137965000Y-125101939D01*
X138004774Y-125301898D01*
X138082795Y-125490256D01*
X138196063Y-125659774D01*
X138340226Y-125803937D01*
X138509744Y-125917205D01*
X138698102Y-125995226D01*
X138898061Y-126035000D01*
X139101939Y-126035000D01*
X139301898Y-125995226D01*
X139490256Y-125917205D01*
X139659774Y-125803937D01*
X139803937Y-125659774D01*
X139917205Y-125490256D01*
X139995226Y-125301898D01*
X140000000Y-125277897D01*
X140004774Y-125301898D01*
X140082795Y-125490256D01*
X140196063Y-125659774D01*
X140340226Y-125803937D01*
X140509744Y-125917205D01*
X140698102Y-125995226D01*
X140898061Y-126035000D01*
X141101939Y-126035000D01*
X141301898Y-125995226D01*
X141490256Y-125917205D01*
X141659774Y-125803937D01*
X141803937Y-125659774D01*
X141917205Y-125490256D01*
X141995226Y-125301898D01*
X142000000Y-125277897D01*
X142004774Y-125301898D01*
X142082795Y-125490256D01*
X142196063Y-125659774D01*
X142340226Y-125803937D01*
X142509744Y-125917205D01*
X142698102Y-125995226D01*
X142722103Y-126000000D01*
X142698102Y-126004774D01*
X142509744Y-126082795D01*
X142340226Y-126196063D01*
X142196063Y-126340226D01*
X142082795Y-126509744D01*
X142004774Y-126698102D01*
X141965000Y-126898061D01*
X141965000Y-127101939D01*
X142004774Y-127301898D01*
X142082795Y-127490256D01*
X142196063Y-127659774D01*
X142340226Y-127803937D01*
X142509744Y-127917205D01*
X142698102Y-127995226D01*
X142898061Y-128035000D01*
X143101939Y-128035000D01*
X143301898Y-127995226D01*
X143490256Y-127917205D01*
X143659774Y-127803937D01*
X143803937Y-127659774D01*
X143917205Y-127490256D01*
X143995226Y-127301898D01*
X144035000Y-127101939D01*
X144035000Y-126898061D01*
X143995226Y-126698102D01*
X143917205Y-126509744D01*
X143803937Y-126340226D01*
X143659774Y-126196063D01*
X143490256Y-126082795D01*
X143301898Y-126004774D01*
X143277897Y-126000000D01*
X143301898Y-125995226D01*
X143490256Y-125917205D01*
X143659774Y-125803937D01*
X143803937Y-125659774D01*
X143917205Y-125490256D01*
X143995226Y-125301898D01*
X144035000Y-125101939D01*
X144035000Y-124898061D01*
X145965000Y-124898061D01*
X145965000Y-125101939D01*
X146004774Y-125301898D01*
X146082795Y-125490256D01*
X146196063Y-125659774D01*
X146340226Y-125803937D01*
X146509744Y-125917205D01*
X146698102Y-125995226D01*
X146722103Y-126000000D01*
X146698102Y-126004774D01*
X146509744Y-126082795D01*
X146340226Y-126196063D01*
X146196063Y-126340226D01*
X146082795Y-126509744D01*
X146004774Y-126698102D01*
X145965000Y-126898061D01*
X145965000Y-127101939D01*
X146004774Y-127301898D01*
X146082795Y-127490256D01*
X146196063Y-127659774D01*
X146340226Y-127803937D01*
X146509744Y-127917205D01*
X146698102Y-127995226D01*
X146898061Y-128035000D01*
X147101939Y-128035000D01*
X147301898Y-127995226D01*
X147490256Y-127917205D01*
X147659774Y-127803937D01*
X147803937Y-127659774D01*
X147917205Y-127490256D01*
X147995226Y-127301898D01*
X148035000Y-127101939D01*
X148035000Y-126898061D01*
X147995226Y-126698102D01*
X147917205Y-126509744D01*
X147803937Y-126340226D01*
X147659774Y-126196063D01*
X147490256Y-126082795D01*
X147301898Y-126004774D01*
X147277897Y-126000000D01*
X147301898Y-125995226D01*
X147490256Y-125917205D01*
X147659774Y-125803937D01*
X147803937Y-125659774D01*
X147917205Y-125490256D01*
X147995226Y-125301898D01*
X148000000Y-125277897D01*
X148004774Y-125301898D01*
X148082795Y-125490256D01*
X148196063Y-125659774D01*
X148340226Y-125803937D01*
X148509744Y-125917205D01*
X148698102Y-125995226D01*
X148898061Y-126035000D01*
X149101939Y-126035000D01*
X149301898Y-125995226D01*
X149490256Y-125917205D01*
X149659774Y-125803937D01*
X149803937Y-125659774D01*
X149917205Y-125490256D01*
X149995226Y-125301898D01*
X150000000Y-125277897D01*
X150004774Y-125301898D01*
X150082795Y-125490256D01*
X150196063Y-125659774D01*
X150340226Y-125803937D01*
X150509744Y-125917205D01*
X150698102Y-125995226D01*
X150722103Y-126000000D01*
X150698102Y-126004774D01*
X150509744Y-126082795D01*
X150340226Y-126196063D01*
X150196063Y-126340226D01*
X150082795Y-126509744D01*
X150004774Y-126698102D01*
X149965000Y-126898061D01*
X149965000Y-127101939D01*
X150004774Y-127301898D01*
X150082795Y-127490256D01*
X150196063Y-127659774D01*
X150340226Y-127803937D01*
X150509744Y-127917205D01*
X150698102Y-127995226D01*
X150898061Y-128035000D01*
X151101939Y-128035000D01*
X151301898Y-127995226D01*
X151490256Y-127917205D01*
X151659774Y-127803937D01*
X151803937Y-127659774D01*
X151917205Y-127490256D01*
X151995226Y-127301898D01*
X152035000Y-127101939D01*
X152035000Y-126898061D01*
X151995226Y-126698102D01*
X151917205Y-126509744D01*
X151803937Y-126340226D01*
X151659774Y-126196063D01*
X151490256Y-126082795D01*
X151301898Y-126004774D01*
X151277897Y-126000000D01*
X151301898Y-125995226D01*
X151490256Y-125917205D01*
X151659774Y-125803937D01*
X151803937Y-125659774D01*
X151917205Y-125490256D01*
X151995226Y-125301898D01*
X152035000Y-125101939D01*
X152035000Y-124898061D01*
X151995226Y-124698102D01*
X151917205Y-124509744D01*
X151803937Y-124340226D01*
X151659774Y-124196063D01*
X151490256Y-124082795D01*
X151301898Y-124004774D01*
X151101939Y-123965000D01*
X150898061Y-123965000D01*
X150698102Y-124004774D01*
X150509744Y-124082795D01*
X150340226Y-124196063D01*
X150196063Y-124340226D01*
X150082795Y-124509744D01*
X150004774Y-124698102D01*
X150000000Y-124722103D01*
X149995226Y-124698102D01*
X149917205Y-124509744D01*
X149803937Y-124340226D01*
X149659774Y-124196063D01*
X149490256Y-124082795D01*
X149301898Y-124004774D01*
X149101939Y-123965000D01*
X148898061Y-123965000D01*
X148698102Y-124004774D01*
X148509744Y-124082795D01*
X148340226Y-124196063D01*
X148196063Y-124340226D01*
X148082795Y-124509744D01*
X148004774Y-124698102D01*
X148000000Y-124722103D01*
X147995226Y-124698102D01*
X147917205Y-124509744D01*
X147803937Y-124340226D01*
X147659774Y-124196063D01*
X147490256Y-124082795D01*
X147301898Y-124004774D01*
X147101939Y-123965000D01*
X146898061Y-123965000D01*
X146698102Y-124004774D01*
X146509744Y-124082795D01*
X146340226Y-124196063D01*
X146196063Y-124340226D01*
X146082795Y-124509744D01*
X146004774Y-124698102D01*
X145965000Y-124898061D01*
X144035000Y-124898061D01*
X143995226Y-124698102D01*
X143917205Y-124509744D01*
X143803937Y-124340226D01*
X143659774Y-124196063D01*
X143490256Y-124082795D01*
X143301898Y-124004774D01*
X143101939Y-123965000D01*
X142898061Y-123965000D01*
X142698102Y-124004774D01*
X142509744Y-124082795D01*
X142340226Y-124196063D01*
X142196063Y-124340226D01*
X142082795Y-124509744D01*
X142004774Y-124698102D01*
X142000000Y-124722103D01*
X141995226Y-124698102D01*
X141917205Y-124509744D01*
X141803937Y-124340226D01*
X141659774Y-124196063D01*
X141490256Y-124082795D01*
X141301898Y-124004774D01*
X141101939Y-123965000D01*
X140898061Y-123965000D01*
X140698102Y-124004774D01*
X140509744Y-124082795D01*
X140340226Y-124196063D01*
X140196063Y-124340226D01*
X140082795Y-124509744D01*
X140004774Y-124698102D01*
X140000000Y-124722103D01*
X139995226Y-124698102D01*
X139917205Y-124509744D01*
X139803937Y-124340226D01*
X139659774Y-124196063D01*
X139490256Y-124082795D01*
X139301898Y-124004774D01*
X139101939Y-123965000D01*
X138898061Y-123965000D01*
X138698102Y-124004774D01*
X138509744Y-124082795D01*
X138340226Y-124196063D01*
X138196063Y-124340226D01*
X138082795Y-124509744D01*
X138004774Y-124698102D01*
X137965000Y-124898061D01*
X137035000Y-124898061D01*
X136995226Y-124698102D01*
X136917205Y-124509744D01*
X136803937Y-124340226D01*
X136659774Y-124196063D01*
X136490256Y-124082795D01*
X136301898Y-124004774D01*
X136101939Y-123965000D01*
X135898061Y-123965000D01*
X135698102Y-124004774D01*
X135509744Y-124082795D01*
X135340226Y-124196063D01*
X135196063Y-124340226D01*
X135082795Y-124509744D01*
X135004774Y-124698102D01*
X134965000Y-124898061D01*
X132035000Y-124898061D01*
X131995226Y-124698102D01*
X131917205Y-124509744D01*
X131803937Y-124340226D01*
X131659774Y-124196063D01*
X131490256Y-124082795D01*
X131301898Y-124004774D01*
X131101939Y-123965000D01*
X130898061Y-123965000D01*
X130698102Y-124004774D01*
X130509744Y-124082795D01*
X130340226Y-124196063D01*
X130196063Y-124340226D01*
X130082795Y-124509744D01*
X130004774Y-124698102D01*
X130000000Y-124722103D01*
X129995226Y-124698102D01*
X129917205Y-124509744D01*
X129803937Y-124340226D01*
X129659774Y-124196063D01*
X129490256Y-124082795D01*
X129301898Y-124004774D01*
X129101939Y-123965000D01*
X128898061Y-123965000D01*
X128698102Y-124004774D01*
X128509744Y-124082795D01*
X128340226Y-124196063D01*
X128196063Y-124340226D01*
X128082795Y-124509744D01*
X128004774Y-124698102D01*
X127965000Y-124898061D01*
X127035000Y-124898061D01*
X126995226Y-124698102D01*
X126917205Y-124509744D01*
X126803937Y-124340226D01*
X126659774Y-124196063D01*
X126556414Y-124127000D01*
X128000000Y-124127000D01*
X128024776Y-124124560D01*
X128048601Y-124117333D01*
X128070557Y-124105597D01*
X128089803Y-124089803D01*
X128105597Y-124070557D01*
X128117333Y-124048601D01*
X128124560Y-124024776D01*
X128127000Y-124000000D01*
X128127000Y-122898061D01*
X146965000Y-122898061D01*
X146965000Y-123101939D01*
X147004774Y-123301898D01*
X147082795Y-123490256D01*
X147196063Y-123659774D01*
X147340226Y-123803937D01*
X147509744Y-123917205D01*
X147698102Y-123995226D01*
X147898061Y-124035000D01*
X148101939Y-124035000D01*
X148301898Y-123995226D01*
X148490256Y-123917205D01*
X148659774Y-123803937D01*
X148803937Y-123659774D01*
X148917205Y-123490256D01*
X148995226Y-123301898D01*
X149035000Y-123101939D01*
X149035000Y-122898061D01*
X149011131Y-122778061D01*
X152845000Y-122778061D01*
X152845000Y-122981939D01*
X152884774Y-123181898D01*
X152962795Y-123370256D01*
X153076063Y-123539774D01*
X153220226Y-123683937D01*
X153389744Y-123797205D01*
X153578102Y-123875226D01*
X153778061Y-123915000D01*
X153981939Y-123915000D01*
X154181898Y-123875226D01*
X154370256Y-123797205D01*
X154539774Y-123683937D01*
X154683937Y-123539774D01*
X154797205Y-123370256D01*
X154875226Y-123181898D01*
X154915000Y-122981939D01*
X154915000Y-122778061D01*
X154875226Y-122578102D01*
X154797205Y-122389744D01*
X154683937Y-122220226D01*
X154539774Y-122076063D01*
X154370256Y-121962795D01*
X154181898Y-121884774D01*
X153981939Y-121845000D01*
X153778061Y-121845000D01*
X153578102Y-121884774D01*
X153389744Y-121962795D01*
X153220226Y-122076063D01*
X153076063Y-122220226D01*
X152962795Y-122389744D01*
X152884774Y-122578102D01*
X152845000Y-122778061D01*
X149011131Y-122778061D01*
X148995226Y-122698102D01*
X148917205Y-122509744D01*
X148803937Y-122340226D01*
X148659774Y-122196063D01*
X148490256Y-122082795D01*
X148301898Y-122004774D01*
X148101939Y-121965000D01*
X147898061Y-121965000D01*
X147698102Y-122004774D01*
X147509744Y-122082795D01*
X147340226Y-122196063D01*
X147196063Y-122340226D01*
X147082795Y-122509744D01*
X147004774Y-122698102D01*
X146965000Y-122898061D01*
X128127000Y-122898061D01*
X128127000Y-118898061D01*
X175965000Y-118898061D01*
X175965000Y-119101939D01*
X176004774Y-119301898D01*
X176082795Y-119490256D01*
X176196063Y-119659774D01*
X176340226Y-119803937D01*
X176509744Y-119917205D01*
X176698102Y-119995226D01*
X176898061Y-120035000D01*
X177101939Y-120035000D01*
X177301898Y-119995226D01*
X177490256Y-119917205D01*
X177659774Y-119803937D01*
X177803937Y-119659774D01*
X177917205Y-119490256D01*
X177995226Y-119301898D01*
X178035000Y-119101939D01*
X178035000Y-118898061D01*
X177995226Y-118698102D01*
X177917205Y-118509744D01*
X177803937Y-118340226D01*
X177659774Y-118196063D01*
X177490256Y-118082795D01*
X177301898Y-118004774D01*
X177101939Y-117965000D01*
X176898061Y-117965000D01*
X176698102Y-118004774D01*
X176509744Y-118082795D01*
X176340226Y-118196063D01*
X176196063Y-118340226D01*
X176082795Y-118509744D01*
X176004774Y-118698102D01*
X175965000Y-118898061D01*
X128127000Y-118898061D01*
X128127000Y-114760617D01*
X188917934Y-114760617D01*
X188962272Y-115089557D01*
X189069931Y-115403527D01*
X189169421Y-115589661D01*
X189267082Y-115626549D01*
X189205506Y-115659463D01*
X189108815Y-115738815D01*
X189029463Y-115835506D01*
X188970498Y-115945820D01*
X188934188Y-116065518D01*
X188921928Y-116190000D01*
X188921928Y-118290000D01*
X188934188Y-118414482D01*
X188970498Y-118534180D01*
X189029463Y-118644494D01*
X189108815Y-118741185D01*
X189205506Y-118820537D01*
X189315820Y-118879502D01*
X189435518Y-118915812D01*
X189560000Y-118928072D01*
X191660000Y-118928072D01*
X191784482Y-118915812D01*
X191904180Y-118879502D01*
X192014494Y-118820537D01*
X192111185Y-118741185D01*
X192190537Y-118644494D01*
X192249502Y-118534180D01*
X192285812Y-118414482D01*
X192298072Y-118290000D01*
X192298072Y-116190000D01*
X192285812Y-116065518D01*
X192249502Y-115945820D01*
X192190537Y-115835506D01*
X192111185Y-115738815D01*
X192014494Y-115659463D01*
X191952918Y-115626549D01*
X192050579Y-115589661D01*
X192196463Y-115291523D01*
X192281380Y-114970654D01*
X192302066Y-114639383D01*
X192257728Y-114310443D01*
X192150069Y-113996473D01*
X192050579Y-113810339D01*
X191781066Y-113708539D01*
X190789605Y-114700000D01*
X190803748Y-114714143D01*
X190624143Y-114893748D01*
X190610000Y-114879605D01*
X190595858Y-114893748D01*
X190416253Y-114714143D01*
X190430395Y-114700000D01*
X189438934Y-113708539D01*
X189169421Y-113810339D01*
X189023537Y-114108477D01*
X188938620Y-114429346D01*
X188917934Y-114760617D01*
X128127000Y-114760617D01*
X128127000Y-113528934D01*
X189618539Y-113528934D01*
X190610000Y-114520395D01*
X191601461Y-113528934D01*
X191499661Y-113259421D01*
X191201523Y-113113537D01*
X190880654Y-113028620D01*
X190549383Y-113007934D01*
X190220443Y-113052272D01*
X189906473Y-113159931D01*
X189720339Y-113259421D01*
X189618539Y-113528934D01*
X128127000Y-113528934D01*
X128127000Y-110224999D01*
X128291938Y-110224999D01*
X128491897Y-110185225D01*
X128680255Y-110107204D01*
X128849773Y-109993936D01*
X128945648Y-109898061D01*
X134965000Y-109898061D01*
X134965000Y-110101939D01*
X135004774Y-110301898D01*
X135082795Y-110490256D01*
X135196063Y-110659774D01*
X135340226Y-110803937D01*
X135509744Y-110917205D01*
X135698102Y-110995226D01*
X135722103Y-111000000D01*
X135698102Y-111004774D01*
X135509744Y-111082795D01*
X135340226Y-111196063D01*
X135196063Y-111340226D01*
X135082795Y-111509744D01*
X135004774Y-111698102D01*
X134965000Y-111898061D01*
X134965000Y-112101939D01*
X135004774Y-112301898D01*
X135082795Y-112490256D01*
X135196063Y-112659774D01*
X135340226Y-112803937D01*
X135509744Y-112917205D01*
X135698102Y-112995226D01*
X135898061Y-113035000D01*
X136101939Y-113035000D01*
X136301898Y-112995226D01*
X136490256Y-112917205D01*
X136659774Y-112803937D01*
X136803937Y-112659774D01*
X136917205Y-112490256D01*
X136995226Y-112301898D01*
X137000000Y-112277897D01*
X137004774Y-112301898D01*
X137082795Y-112490256D01*
X137196063Y-112659774D01*
X137340226Y-112803937D01*
X137509744Y-112917205D01*
X137698102Y-112995226D01*
X137898061Y-113035000D01*
X138101939Y-113035000D01*
X138301898Y-112995226D01*
X138490256Y-112917205D01*
X138659774Y-112803937D01*
X138803937Y-112659774D01*
X138917205Y-112490256D01*
X138995226Y-112301898D01*
X139000000Y-112277897D01*
X139004774Y-112301898D01*
X139082795Y-112490256D01*
X139196063Y-112659774D01*
X139340226Y-112803937D01*
X139509744Y-112917205D01*
X139698102Y-112995226D01*
X139898061Y-113035000D01*
X140101939Y-113035000D01*
X140301898Y-112995226D01*
X140490256Y-112917205D01*
X140659774Y-112803937D01*
X140803937Y-112659774D01*
X140917205Y-112490256D01*
X140995226Y-112301898D01*
X141035000Y-112101939D01*
X141035000Y-111898061D01*
X140995226Y-111698102D01*
X140917205Y-111509744D01*
X140803937Y-111340226D01*
X140659774Y-111196063D01*
X140490256Y-111082795D01*
X140301898Y-111004774D01*
X140277897Y-111000000D01*
X140301898Y-110995226D01*
X140490256Y-110917205D01*
X140659774Y-110803937D01*
X140803937Y-110659774D01*
X140917205Y-110490256D01*
X140995226Y-110301898D01*
X141035000Y-110101939D01*
X141035000Y-109898061D01*
X140995226Y-109698102D01*
X140917205Y-109509744D01*
X140803937Y-109340226D01*
X140659774Y-109196063D01*
X140490256Y-109082795D01*
X140301898Y-109004774D01*
X140101939Y-108965000D01*
X139898061Y-108965000D01*
X139698102Y-109004774D01*
X139509744Y-109082795D01*
X139340226Y-109196063D01*
X139196063Y-109340226D01*
X139082795Y-109509744D01*
X139004774Y-109698102D01*
X139000000Y-109722103D01*
X138995226Y-109698102D01*
X138917205Y-109509744D01*
X138803937Y-109340226D01*
X138659774Y-109196063D01*
X138490256Y-109082795D01*
X138301898Y-109004774D01*
X138101939Y-108965000D01*
X137898061Y-108965000D01*
X137698102Y-109004774D01*
X137509744Y-109082795D01*
X137340226Y-109196063D01*
X137196063Y-109340226D01*
X137082795Y-109509744D01*
X137004774Y-109698102D01*
X137000000Y-109722103D01*
X136995226Y-109698102D01*
X136917205Y-109509744D01*
X136803937Y-109340226D01*
X136659774Y-109196063D01*
X136490256Y-109082795D01*
X136301898Y-109004774D01*
X136101939Y-108965000D01*
X135898061Y-108965000D01*
X135698102Y-109004774D01*
X135509744Y-109082795D01*
X135340226Y-109196063D01*
X135196063Y-109340226D01*
X135082795Y-109509744D01*
X135004774Y-109698102D01*
X134965000Y-109898061D01*
X128945648Y-109898061D01*
X128993936Y-109849773D01*
X129107204Y-109680255D01*
X129185225Y-109491897D01*
X129224999Y-109291938D01*
X129224999Y-109088060D01*
X129185225Y-108888101D01*
X129107204Y-108699743D01*
X128993936Y-108530225D01*
X128849773Y-108386062D01*
X128680255Y-108272794D01*
X128491897Y-108194773D01*
X128291938Y-108154999D01*
X128127000Y-108154999D01*
X128127000Y-107127000D01*
X150873000Y-107127000D01*
X150873000Y-111000000D01*
X150875440Y-111024776D01*
X150882667Y-111048601D01*
X150894403Y-111070557D01*
X150910197Y-111089803D01*
X150929443Y-111105597D01*
X150951399Y-111117333D01*
X150975224Y-111124560D01*
X151000000Y-111127000D01*
X161000000Y-111127000D01*
X161024776Y-111124560D01*
X161048601Y-111117333D01*
X161070557Y-111105597D01*
X161089803Y-111089803D01*
X161105597Y-111070557D01*
X161117333Y-111048601D01*
X161124560Y-111024776D01*
X161127000Y-111000000D01*
X161127000Y-108811066D01*
X189418539Y-108811066D01*
X189520339Y-109080579D01*
X189818477Y-109226463D01*
X190139346Y-109311380D01*
X190470617Y-109332066D01*
X190799557Y-109287728D01*
X191113527Y-109180069D01*
X191299661Y-109080579D01*
X191401461Y-108811066D01*
X190410000Y-107819605D01*
X189418539Y-108811066D01*
X161127000Y-108811066D01*
X161127000Y-107700617D01*
X188717934Y-107700617D01*
X188762272Y-108029557D01*
X188869931Y-108343527D01*
X188969421Y-108529661D01*
X189238934Y-108631461D01*
X190230395Y-107640000D01*
X190216253Y-107625858D01*
X190395858Y-107446253D01*
X190410000Y-107460395D01*
X190424143Y-107446253D01*
X190603748Y-107625858D01*
X190589605Y-107640000D01*
X191581066Y-108631461D01*
X191850579Y-108529661D01*
X191996463Y-108231523D01*
X192081380Y-107910654D01*
X192102066Y-107579383D01*
X192057728Y-107250443D01*
X191950069Y-106936473D01*
X191850579Y-106750339D01*
X191752918Y-106713451D01*
X191814494Y-106680537D01*
X191911185Y-106601185D01*
X191990537Y-106504494D01*
X192049502Y-106394180D01*
X192085812Y-106274482D01*
X192098072Y-106150000D01*
X192098072Y-104050000D01*
X192085812Y-103925518D01*
X192049502Y-103805820D01*
X191990537Y-103695506D01*
X191911185Y-103598815D01*
X191814494Y-103519463D01*
X191704180Y-103460498D01*
X191584482Y-103424188D01*
X191460000Y-103411928D01*
X189360000Y-103411928D01*
X189235518Y-103424188D01*
X189115820Y-103460498D01*
X189005506Y-103519463D01*
X188908815Y-103598815D01*
X188829463Y-103695506D01*
X188770498Y-103805820D01*
X188734188Y-103925518D01*
X188721928Y-104050000D01*
X188721928Y-106150000D01*
X188734188Y-106274482D01*
X188770498Y-106394180D01*
X188829463Y-106504494D01*
X188908815Y-106601185D01*
X189005506Y-106680537D01*
X189067082Y-106713451D01*
X188969421Y-106750339D01*
X188823537Y-107048477D01*
X188738620Y-107369346D01*
X188717934Y-107700617D01*
X161127000Y-107700617D01*
X161127000Y-103398061D01*
X176465000Y-103398061D01*
X176465000Y-103601939D01*
X176504774Y-103801898D01*
X176582795Y-103990256D01*
X176696063Y-104159774D01*
X176840226Y-104303937D01*
X177009744Y-104417205D01*
X177198102Y-104495226D01*
X177398061Y-104535000D01*
X177601939Y-104535000D01*
X177801898Y-104495226D01*
X177990256Y-104417205D01*
X178159774Y-104303937D01*
X178303937Y-104159774D01*
X178417205Y-103990256D01*
X178495226Y-103801898D01*
X178535000Y-103601939D01*
X178535000Y-103398061D01*
X178495226Y-103198102D01*
X178417205Y-103009744D01*
X178303937Y-102840226D01*
X178159774Y-102696063D01*
X177990256Y-102582795D01*
X177801898Y-102504774D01*
X177601939Y-102465000D01*
X177398061Y-102465000D01*
X177198102Y-102504774D01*
X177009744Y-102582795D01*
X176840226Y-102696063D01*
X176696063Y-102840226D01*
X176582795Y-103009744D01*
X176504774Y-103198102D01*
X176465000Y-103398061D01*
X161127000Y-103398061D01*
X161127000Y-80127000D01*
X211873000Y-80127000D01*
X211873000Y-144873000D01*
%TD*%
M02*
