%TF.GenerationSoftware,KiCad,Pcbnew,(5.1.6)-1*%
%TF.CreationDate,2020-11-07T14:41:46+05:30*%
%TF.ProjectId,LT8652,4c543836-3532-42e6-9b69-6361645f7063,rev?*%
%TF.SameCoordinates,Original*%
%TF.FileFunction,Copper,L3,Inr*%
%TF.FilePolarity,Positive*%
%FSLAX46Y46*%
G04 Gerber Fmt 4.6, Leading zero omitted, Abs format (unit mm)*
G04 Created by KiCad (PCBNEW (5.1.6)-1) date 2020-11-07 14:41:46*
%MOMM*%
%LPD*%
G01*
G04 APERTURE LIST*
%TA.AperFunction,ViaPad*%
%ADD10C,5.700000*%
%TD*%
%TA.AperFunction,ViaPad*%
%ADD11O,1.700000X1.700000*%
%TD*%
%TA.AperFunction,ViaPad*%
%ADD12R,1.700000X1.700000*%
%TD*%
%TA.AperFunction,ViaPad*%
%ADD13C,2.100000*%
%TD*%
%TA.AperFunction,ViaPad*%
%ADD14R,2.100000X2.100000*%
%TD*%
%TA.AperFunction,ViaPad*%
%ADD15C,0.800000*%
%TD*%
%TA.AperFunction,Conductor*%
%ADD16C,0.254000*%
%TD*%
G04 APERTURE END LIST*
D10*
%TO.N,N/C*%
%TO.C,REF\u002A\u002A*%
X220000000Y-141000000D03*
%TD*%
%TO.N,N/C*%
%TO.C,REF\u002A\u002A*%
X110000000Y-141000000D03*
%TD*%
%TO.N,N/C*%
%TO.C,REF\u002A\u002A*%
X110000000Y-83000000D03*
%TD*%
%TO.N,N/C*%
%TO.C,REF\u002A\u002A*%
X220000000Y-83000000D03*
%TD*%
D11*
%TO.N,Net-(IC1-Pad16)*%
%TO.C,J4*%
X125440000Y-121040000D03*
%TO.N,GND2*%
X122900000Y-121040000D03*
%TO.N,Net-(IC1-Pad15)*%
X125440000Y-118500000D03*
%TO.N,GND2*%
X122900000Y-118500000D03*
%TO.N,Net-(IC1-Pad13)*%
X125440000Y-115960000D03*
%TO.N,GND2*%
X122900000Y-115960000D03*
%TO.N,/VC2*%
X125440000Y-113420000D03*
%TO.N,GND2*%
X122900000Y-113420000D03*
%TO.N,/SS2*%
X125440000Y-110880000D03*
%TO.N,GND2*%
X122900000Y-110880000D03*
%TO.N,/SS1*%
X125440000Y-108340000D03*
%TO.N,GND2*%
X122900000Y-108340000D03*
%TO.N,/VC1*%
X125440000Y-105800000D03*
D12*
%TO.N,GND2*%
X122900000Y-105800000D03*
%TD*%
D13*
%TO.N,GND*%
%TO.C,J3*%
X190610000Y-114700000D03*
D14*
%TO.N,/VO2*%
X190610000Y-117240000D03*
%TD*%
D13*
%TO.N,GND*%
%TO.C,J2*%
X190410000Y-107640000D03*
D14*
%TO.N,/VO1*%
X190410000Y-105100000D03*
%TD*%
D13*
%TO.N,GND*%
%TO.C,J1*%
X128750000Y-132790000D03*
D14*
%TO.N,/Vin1*%
X128750000Y-130250000D03*
%TD*%
D15*
%TO.N,GND*%
X136000000Y-141000000D03*
X138000000Y-141000000D03*
X140000000Y-141000000D03*
X142000000Y-141000000D03*
X142000000Y-143000000D03*
X140000000Y-143000000D03*
X138000000Y-143000000D03*
X136000000Y-143000000D03*
X146000000Y-142000000D03*
X148000000Y-142000000D03*
X150000000Y-142000000D03*
X152000000Y-142000000D03*
X146000000Y-144000000D03*
X148000000Y-144000000D03*
X150000000Y-144000000D03*
X152000000Y-144000000D03*
X179500000Y-143000000D03*
X182000000Y-143000000D03*
X184500000Y-143000000D03*
X187000000Y-143000000D03*
X189500000Y-143000000D03*
X192000000Y-143000000D03*
X194500000Y-143000000D03*
X197000000Y-143000000D03*
X199500000Y-143000000D03*
X202000000Y-143000000D03*
X204500000Y-143000000D03*
X207000000Y-143000000D03*
X209500000Y-143000000D03*
X149350001Y-109729999D03*
X150650001Y-109699999D03*
X150650001Y-107735000D03*
X150650001Y-111475000D03*
X149350001Y-107735000D03*
X149350001Y-111459999D03*
X140450000Y-108100000D03*
X138700000Y-108100000D03*
X136450000Y-108100000D03*
X128000000Y-139000000D03*
X130000000Y-139000000D03*
X132000000Y-139000000D03*
X132000000Y-137000000D03*
X130000000Y-137000000D03*
X128000000Y-137000000D03*
X126000000Y-137000000D03*
X126000000Y-139000000D03*
X124000000Y-139000000D03*
X124000000Y-137000000D03*
X199000000Y-82000000D03*
X197000000Y-82000000D03*
X195000000Y-82000000D03*
X193000000Y-82000000D03*
X191000000Y-82000000D03*
X189000000Y-82000000D03*
X187000000Y-82000000D03*
X185000000Y-82000000D03*
X183000000Y-82000000D03*
X181000000Y-82000000D03*
X179000000Y-82000000D03*
X201000000Y-82000000D03*
X176000000Y-110000000D03*
X178000000Y-110000000D03*
X180000000Y-110000000D03*
X182000000Y-110000000D03*
X184000000Y-110000000D03*
X187000000Y-111000000D03*
X189000000Y-111000000D03*
X191000000Y-111000000D03*
X193000000Y-111000000D03*
X195000000Y-111000000D03*
X197000000Y-109000000D03*
X197000000Y-111000000D03*
X199000000Y-111000000D03*
X199000000Y-109000000D03*
X184000000Y-112000000D03*
X182000000Y-112000000D03*
X180000000Y-112000000D03*
X178000000Y-112000000D03*
X176000000Y-112000000D03*
X197000000Y-113000000D03*
X199000000Y-113000000D03*
X140000000Y-114000000D03*
X138000000Y-114000000D03*
X138000000Y-116000000D03*
X140000000Y-116000000D03*
X142000000Y-116000000D03*
X144000000Y-116000000D03*
X130000000Y-107750000D03*
X203500000Y-82000000D03*
X206000000Y-82000000D03*
X208500000Y-82000000D03*
%TO.N,/VCC*%
X155000000Y-107250000D03*
X136800000Y-91400000D03*
%TO.N,/SS1*%
X154000000Y-106400000D03*
X153250000Y-87500000D03*
X131250000Y-91000000D03*
X128189999Y-109189999D03*
%TO.N,/SS2*%
X145000000Y-106000000D03*
X138000000Y-101100000D03*
%TO.N,/FB2*%
X148250000Y-102250000D03*
X148000000Y-123000000D03*
%TO.N,/VO2*%
X153880000Y-122880000D03*
X177000000Y-119000000D03*
%TO.N,/VO1*%
X157875000Y-89175000D03*
X177500000Y-103500000D03*
%TO.N,/VC1*%
X154000000Y-101750000D03*
X126000000Y-99000000D03*
%TO.N,/FB1*%
X154250000Y-84000000D03*
X151525000Y-101825000D03*
%TO.N,/Vin1*%
X143000000Y-127000000D03*
X147000000Y-127000000D03*
X136000000Y-127000000D03*
X132000000Y-127000000D03*
X151000000Y-127000000D03*
X129000000Y-127000000D03*
X126000000Y-127000000D03*
X126000000Y-125000000D03*
X129000000Y-125000000D03*
X131000000Y-125000000D03*
X139000000Y-125000000D03*
X141000000Y-125000000D03*
X143000000Y-125000000D03*
X147000000Y-125000000D03*
X149000000Y-125000000D03*
X151000000Y-125000000D03*
X124000000Y-125000000D03*
X124000000Y-127000000D03*
X136000000Y-110000000D03*
X138000000Y-110000000D03*
X140000000Y-110000000D03*
X140000000Y-112000000D03*
X138000000Y-112000000D03*
X136000000Y-112000000D03*
X136000000Y-125000000D03*
%TO.N,GND2*%
X119000000Y-106000000D03*
X119000000Y-110000000D03*
X119000000Y-112000000D03*
X119000000Y-114000000D03*
X119000000Y-116000000D03*
X119000000Y-118000000D03*
X119000000Y-120000000D03*
X119000000Y-122000000D03*
X155000000Y-108500000D03*
X149860000Y-104140000D03*
X136250000Y-97500000D03*
X130000000Y-100250000D03*
X139547040Y-104452960D03*
X144000000Y-86000000D03*
X144000000Y-88000000D03*
X144000000Y-90000000D03*
X144000000Y-92000000D03*
X144000000Y-94000000D03*
X146000000Y-96000000D03*
X144000000Y-96000000D03*
X159875000Y-85625000D03*
X151550000Y-89450000D03*
X151775000Y-93725000D03*
X148250000Y-96000000D03*
X119000000Y-108000000D03*
X151000000Y-96000000D03*
%TO.N,Net-(IC1-Pad1)*%
X145100000Y-103300000D03*
X138700000Y-86500000D03*
%TO.N,Net-(IC1-Pad30)*%
X154000000Y-104400000D03*
X157400000Y-91200000D03*
%TD*%
D16*
%TO.N,/Vin1*%
G36*
X154873000Y-83171491D02*
G01*
X154740256Y-83082795D01*
X154551898Y-83004774D01*
X154351939Y-82965000D01*
X154148061Y-82965000D01*
X153948102Y-83004774D01*
X153759744Y-83082795D01*
X153590226Y-83196063D01*
X153446063Y-83340226D01*
X153332795Y-83509744D01*
X153254774Y-83698102D01*
X153215000Y-83898061D01*
X153215000Y-84101939D01*
X153254774Y-84301898D01*
X153332795Y-84490256D01*
X153446063Y-84659774D01*
X153590226Y-84803937D01*
X153759744Y-84917205D01*
X153948102Y-84995226D01*
X154148061Y-85035000D01*
X154351939Y-85035000D01*
X154551898Y-84995226D01*
X154740256Y-84917205D01*
X154873000Y-84828509D01*
X154873000Y-101193586D01*
X154803937Y-101090226D01*
X154659774Y-100946063D01*
X154490256Y-100832795D01*
X154301898Y-100754774D01*
X154101939Y-100715000D01*
X153898061Y-100715000D01*
X153698102Y-100754774D01*
X153509744Y-100832795D01*
X153340226Y-100946063D01*
X153196063Y-101090226D01*
X153082795Y-101259744D01*
X153004774Y-101448102D01*
X152965000Y-101648061D01*
X152965000Y-101851939D01*
X153004774Y-102051898D01*
X153082795Y-102240256D01*
X153196063Y-102409774D01*
X153340226Y-102553937D01*
X153509744Y-102667205D01*
X153698102Y-102745226D01*
X153898061Y-102785000D01*
X154101939Y-102785000D01*
X154301898Y-102745226D01*
X154490256Y-102667205D01*
X154659774Y-102553937D01*
X154803937Y-102409774D01*
X154873000Y-102306414D01*
X154873000Y-103843586D01*
X154803937Y-103740226D01*
X154659774Y-103596063D01*
X154490256Y-103482795D01*
X154301898Y-103404774D01*
X154101939Y-103365000D01*
X153898061Y-103365000D01*
X153698102Y-103404774D01*
X153509744Y-103482795D01*
X153340226Y-103596063D01*
X153196063Y-103740226D01*
X153082795Y-103909744D01*
X153004774Y-104098102D01*
X152965000Y-104298061D01*
X152965000Y-104501939D01*
X153004774Y-104701898D01*
X153082795Y-104890256D01*
X153196063Y-105059774D01*
X153340226Y-105203937D01*
X153509744Y-105317205D01*
X153698102Y-105395226D01*
X153722103Y-105400000D01*
X153698102Y-105404774D01*
X153509744Y-105482795D01*
X153340226Y-105596063D01*
X153196063Y-105740226D01*
X153082795Y-105909744D01*
X153004774Y-106098102D01*
X152965000Y-106298061D01*
X152965000Y-106501939D01*
X153004774Y-106701898D01*
X153082795Y-106890256D01*
X153196063Y-107059774D01*
X153340226Y-107203937D01*
X153509744Y-107317205D01*
X153698102Y-107395226D01*
X153898061Y-107435000D01*
X153981522Y-107435000D01*
X154004774Y-107551898D01*
X154082795Y-107740256D01*
X154172828Y-107875000D01*
X154082795Y-108009744D01*
X154004774Y-108198102D01*
X153965000Y-108398061D01*
X153965000Y-108601939D01*
X154004774Y-108801898D01*
X154082795Y-108990256D01*
X154196063Y-109159774D01*
X154340226Y-109303937D01*
X154509744Y-109417205D01*
X154698102Y-109495226D01*
X154873000Y-109530015D01*
X154873000Y-122572728D01*
X154797205Y-122389744D01*
X154683937Y-122220226D01*
X154539774Y-122076063D01*
X154370256Y-121962795D01*
X154181898Y-121884774D01*
X153981939Y-121845000D01*
X153778061Y-121845000D01*
X153578102Y-121884774D01*
X153389744Y-121962795D01*
X153220226Y-122076063D01*
X153076063Y-122220226D01*
X152962795Y-122389744D01*
X152884774Y-122578102D01*
X152845000Y-122778061D01*
X152845000Y-122981939D01*
X152884774Y-123181898D01*
X152962795Y-123370256D01*
X153076063Y-123539774D01*
X153220226Y-123683937D01*
X153389744Y-123797205D01*
X153578102Y-123875226D01*
X153778061Y-123915000D01*
X153981939Y-123915000D01*
X154181898Y-123875226D01*
X154370256Y-123797205D01*
X154539774Y-123683937D01*
X154683937Y-123539774D01*
X154797205Y-123370256D01*
X154873000Y-123187272D01*
X154873000Y-144873000D01*
X152556414Y-144873000D01*
X152659774Y-144803937D01*
X152803937Y-144659774D01*
X152917205Y-144490256D01*
X152995226Y-144301898D01*
X153035000Y-144101939D01*
X153035000Y-143898061D01*
X152995226Y-143698102D01*
X152917205Y-143509744D01*
X152803937Y-143340226D01*
X152659774Y-143196063D01*
X152490256Y-143082795D01*
X152301898Y-143004774D01*
X152277897Y-143000000D01*
X152301898Y-142995226D01*
X152490256Y-142917205D01*
X152659774Y-142803937D01*
X152803937Y-142659774D01*
X152917205Y-142490256D01*
X152995226Y-142301898D01*
X153035000Y-142101939D01*
X153035000Y-141898061D01*
X152995226Y-141698102D01*
X152917205Y-141509744D01*
X152803937Y-141340226D01*
X152659774Y-141196063D01*
X152490256Y-141082795D01*
X152301898Y-141004774D01*
X152101939Y-140965000D01*
X151898061Y-140965000D01*
X151698102Y-141004774D01*
X151509744Y-141082795D01*
X151340226Y-141196063D01*
X151196063Y-141340226D01*
X151082795Y-141509744D01*
X151004774Y-141698102D01*
X151000000Y-141722103D01*
X150995226Y-141698102D01*
X150917205Y-141509744D01*
X150803937Y-141340226D01*
X150659774Y-141196063D01*
X150490256Y-141082795D01*
X150301898Y-141004774D01*
X150101939Y-140965000D01*
X149898061Y-140965000D01*
X149698102Y-141004774D01*
X149509744Y-141082795D01*
X149340226Y-141196063D01*
X149196063Y-141340226D01*
X149082795Y-141509744D01*
X149004774Y-141698102D01*
X149000000Y-141722103D01*
X148995226Y-141698102D01*
X148917205Y-141509744D01*
X148803937Y-141340226D01*
X148659774Y-141196063D01*
X148490256Y-141082795D01*
X148301898Y-141004774D01*
X148101939Y-140965000D01*
X147898061Y-140965000D01*
X147698102Y-141004774D01*
X147509744Y-141082795D01*
X147340226Y-141196063D01*
X147196063Y-141340226D01*
X147082795Y-141509744D01*
X147004774Y-141698102D01*
X147000000Y-141722103D01*
X146995226Y-141698102D01*
X146917205Y-141509744D01*
X146803937Y-141340226D01*
X146659774Y-141196063D01*
X146490256Y-141082795D01*
X146301898Y-141004774D01*
X146101939Y-140965000D01*
X145898061Y-140965000D01*
X145698102Y-141004774D01*
X145509744Y-141082795D01*
X145340226Y-141196063D01*
X145196063Y-141340226D01*
X145082795Y-141509744D01*
X145004774Y-141698102D01*
X144965000Y-141898061D01*
X144965000Y-142101939D01*
X145004774Y-142301898D01*
X145082795Y-142490256D01*
X145196063Y-142659774D01*
X145340226Y-142803937D01*
X145509744Y-142917205D01*
X145698102Y-142995226D01*
X145722103Y-143000000D01*
X145698102Y-143004774D01*
X145509744Y-143082795D01*
X145340226Y-143196063D01*
X145196063Y-143340226D01*
X145082795Y-143509744D01*
X145004774Y-143698102D01*
X144965000Y-143898061D01*
X144965000Y-144101939D01*
X145004774Y-144301898D01*
X145082795Y-144490256D01*
X145196063Y-144659774D01*
X145340226Y-144803937D01*
X145443586Y-144873000D01*
X118127000Y-144873000D01*
X118127000Y-140898061D01*
X134965000Y-140898061D01*
X134965000Y-141101939D01*
X135004774Y-141301898D01*
X135082795Y-141490256D01*
X135196063Y-141659774D01*
X135340226Y-141803937D01*
X135509744Y-141917205D01*
X135698102Y-141995226D01*
X135722103Y-142000000D01*
X135698102Y-142004774D01*
X135509744Y-142082795D01*
X135340226Y-142196063D01*
X135196063Y-142340226D01*
X135082795Y-142509744D01*
X135004774Y-142698102D01*
X134965000Y-142898061D01*
X134965000Y-143101939D01*
X135004774Y-143301898D01*
X135082795Y-143490256D01*
X135196063Y-143659774D01*
X135340226Y-143803937D01*
X135509744Y-143917205D01*
X135698102Y-143995226D01*
X135898061Y-144035000D01*
X136101939Y-144035000D01*
X136301898Y-143995226D01*
X136490256Y-143917205D01*
X136659774Y-143803937D01*
X136803937Y-143659774D01*
X136917205Y-143490256D01*
X136995226Y-143301898D01*
X137000000Y-143277897D01*
X137004774Y-143301898D01*
X137082795Y-143490256D01*
X137196063Y-143659774D01*
X137340226Y-143803937D01*
X137509744Y-143917205D01*
X137698102Y-143995226D01*
X137898061Y-144035000D01*
X138101939Y-144035000D01*
X138301898Y-143995226D01*
X138490256Y-143917205D01*
X138659774Y-143803937D01*
X138803937Y-143659774D01*
X138917205Y-143490256D01*
X138995226Y-143301898D01*
X139000000Y-143277897D01*
X139004774Y-143301898D01*
X139082795Y-143490256D01*
X139196063Y-143659774D01*
X139340226Y-143803937D01*
X139509744Y-143917205D01*
X139698102Y-143995226D01*
X139898061Y-144035000D01*
X140101939Y-144035000D01*
X140301898Y-143995226D01*
X140490256Y-143917205D01*
X140659774Y-143803937D01*
X140803937Y-143659774D01*
X140917205Y-143490256D01*
X140995226Y-143301898D01*
X141000000Y-143277897D01*
X141004774Y-143301898D01*
X141082795Y-143490256D01*
X141196063Y-143659774D01*
X141340226Y-143803937D01*
X141509744Y-143917205D01*
X141698102Y-143995226D01*
X141898061Y-144035000D01*
X142101939Y-144035000D01*
X142301898Y-143995226D01*
X142490256Y-143917205D01*
X142659774Y-143803937D01*
X142803937Y-143659774D01*
X142917205Y-143490256D01*
X142995226Y-143301898D01*
X143035000Y-143101939D01*
X143035000Y-142898061D01*
X142995226Y-142698102D01*
X142917205Y-142509744D01*
X142803937Y-142340226D01*
X142659774Y-142196063D01*
X142490256Y-142082795D01*
X142301898Y-142004774D01*
X142277897Y-142000000D01*
X142301898Y-141995226D01*
X142490256Y-141917205D01*
X142659774Y-141803937D01*
X142803937Y-141659774D01*
X142917205Y-141490256D01*
X142995226Y-141301898D01*
X143035000Y-141101939D01*
X143035000Y-140898061D01*
X142995226Y-140698102D01*
X142917205Y-140509744D01*
X142803937Y-140340226D01*
X142659774Y-140196063D01*
X142490256Y-140082795D01*
X142301898Y-140004774D01*
X142101939Y-139965000D01*
X141898061Y-139965000D01*
X141698102Y-140004774D01*
X141509744Y-140082795D01*
X141340226Y-140196063D01*
X141196063Y-140340226D01*
X141082795Y-140509744D01*
X141004774Y-140698102D01*
X141000000Y-140722103D01*
X140995226Y-140698102D01*
X140917205Y-140509744D01*
X140803937Y-140340226D01*
X140659774Y-140196063D01*
X140490256Y-140082795D01*
X140301898Y-140004774D01*
X140101939Y-139965000D01*
X139898061Y-139965000D01*
X139698102Y-140004774D01*
X139509744Y-140082795D01*
X139340226Y-140196063D01*
X139196063Y-140340226D01*
X139082795Y-140509744D01*
X139004774Y-140698102D01*
X139000000Y-140722103D01*
X138995226Y-140698102D01*
X138917205Y-140509744D01*
X138803937Y-140340226D01*
X138659774Y-140196063D01*
X138490256Y-140082795D01*
X138301898Y-140004774D01*
X138101939Y-139965000D01*
X137898061Y-139965000D01*
X137698102Y-140004774D01*
X137509744Y-140082795D01*
X137340226Y-140196063D01*
X137196063Y-140340226D01*
X137082795Y-140509744D01*
X137004774Y-140698102D01*
X137000000Y-140722103D01*
X136995226Y-140698102D01*
X136917205Y-140509744D01*
X136803937Y-140340226D01*
X136659774Y-140196063D01*
X136490256Y-140082795D01*
X136301898Y-140004774D01*
X136101939Y-139965000D01*
X135898061Y-139965000D01*
X135698102Y-140004774D01*
X135509744Y-140082795D01*
X135340226Y-140196063D01*
X135196063Y-140340226D01*
X135082795Y-140509744D01*
X135004774Y-140698102D01*
X134965000Y-140898061D01*
X118127000Y-140898061D01*
X118127000Y-136898061D01*
X122965000Y-136898061D01*
X122965000Y-137101939D01*
X123004774Y-137301898D01*
X123082795Y-137490256D01*
X123196063Y-137659774D01*
X123340226Y-137803937D01*
X123509744Y-137917205D01*
X123698102Y-137995226D01*
X123722103Y-138000000D01*
X123698102Y-138004774D01*
X123509744Y-138082795D01*
X123340226Y-138196063D01*
X123196063Y-138340226D01*
X123082795Y-138509744D01*
X123004774Y-138698102D01*
X122965000Y-138898061D01*
X122965000Y-139101939D01*
X123004774Y-139301898D01*
X123082795Y-139490256D01*
X123196063Y-139659774D01*
X123340226Y-139803937D01*
X123509744Y-139917205D01*
X123698102Y-139995226D01*
X123898061Y-140035000D01*
X124101939Y-140035000D01*
X124301898Y-139995226D01*
X124490256Y-139917205D01*
X124659774Y-139803937D01*
X124803937Y-139659774D01*
X124917205Y-139490256D01*
X124995226Y-139301898D01*
X125000000Y-139277897D01*
X125004774Y-139301898D01*
X125082795Y-139490256D01*
X125196063Y-139659774D01*
X125340226Y-139803937D01*
X125509744Y-139917205D01*
X125698102Y-139995226D01*
X125898061Y-140035000D01*
X126101939Y-140035000D01*
X126301898Y-139995226D01*
X126490256Y-139917205D01*
X126659774Y-139803937D01*
X126803937Y-139659774D01*
X126917205Y-139490256D01*
X126995226Y-139301898D01*
X127000000Y-139277897D01*
X127004774Y-139301898D01*
X127082795Y-139490256D01*
X127196063Y-139659774D01*
X127340226Y-139803937D01*
X127509744Y-139917205D01*
X127698102Y-139995226D01*
X127898061Y-140035000D01*
X128101939Y-140035000D01*
X128301898Y-139995226D01*
X128490256Y-139917205D01*
X128659774Y-139803937D01*
X128803937Y-139659774D01*
X128917205Y-139490256D01*
X128995226Y-139301898D01*
X129000000Y-139277897D01*
X129004774Y-139301898D01*
X129082795Y-139490256D01*
X129196063Y-139659774D01*
X129340226Y-139803937D01*
X129509744Y-139917205D01*
X129698102Y-139995226D01*
X129898061Y-140035000D01*
X130101939Y-140035000D01*
X130301898Y-139995226D01*
X130490256Y-139917205D01*
X130659774Y-139803937D01*
X130803937Y-139659774D01*
X130917205Y-139490256D01*
X130995226Y-139301898D01*
X131000000Y-139277897D01*
X131004774Y-139301898D01*
X131082795Y-139490256D01*
X131196063Y-139659774D01*
X131340226Y-139803937D01*
X131509744Y-139917205D01*
X131698102Y-139995226D01*
X131898061Y-140035000D01*
X132101939Y-140035000D01*
X132301898Y-139995226D01*
X132490256Y-139917205D01*
X132659774Y-139803937D01*
X132803937Y-139659774D01*
X132917205Y-139490256D01*
X132995226Y-139301898D01*
X133035000Y-139101939D01*
X133035000Y-138898061D01*
X132995226Y-138698102D01*
X132917205Y-138509744D01*
X132803937Y-138340226D01*
X132659774Y-138196063D01*
X132490256Y-138082795D01*
X132301898Y-138004774D01*
X132277897Y-138000000D01*
X132301898Y-137995226D01*
X132490256Y-137917205D01*
X132659774Y-137803937D01*
X132803937Y-137659774D01*
X132917205Y-137490256D01*
X132995226Y-137301898D01*
X133035000Y-137101939D01*
X133035000Y-136898061D01*
X132995226Y-136698102D01*
X132917205Y-136509744D01*
X132803937Y-136340226D01*
X132659774Y-136196063D01*
X132490256Y-136082795D01*
X132301898Y-136004774D01*
X132101939Y-135965000D01*
X131898061Y-135965000D01*
X131698102Y-136004774D01*
X131509744Y-136082795D01*
X131340226Y-136196063D01*
X131196063Y-136340226D01*
X131082795Y-136509744D01*
X131004774Y-136698102D01*
X131000000Y-136722103D01*
X130995226Y-136698102D01*
X130917205Y-136509744D01*
X130803937Y-136340226D01*
X130659774Y-136196063D01*
X130490256Y-136082795D01*
X130301898Y-136004774D01*
X130101939Y-135965000D01*
X129898061Y-135965000D01*
X129698102Y-136004774D01*
X129509744Y-136082795D01*
X129340226Y-136196063D01*
X129196063Y-136340226D01*
X129082795Y-136509744D01*
X129004774Y-136698102D01*
X129000000Y-136722103D01*
X128995226Y-136698102D01*
X128917205Y-136509744D01*
X128803937Y-136340226D01*
X128659774Y-136196063D01*
X128490256Y-136082795D01*
X128301898Y-136004774D01*
X128101939Y-135965000D01*
X127898061Y-135965000D01*
X127698102Y-136004774D01*
X127509744Y-136082795D01*
X127340226Y-136196063D01*
X127196063Y-136340226D01*
X127082795Y-136509744D01*
X127004774Y-136698102D01*
X127000000Y-136722103D01*
X126995226Y-136698102D01*
X126917205Y-136509744D01*
X126803937Y-136340226D01*
X126659774Y-136196063D01*
X126490256Y-136082795D01*
X126301898Y-136004774D01*
X126101939Y-135965000D01*
X125898061Y-135965000D01*
X125698102Y-136004774D01*
X125509744Y-136082795D01*
X125340226Y-136196063D01*
X125196063Y-136340226D01*
X125082795Y-136509744D01*
X125004774Y-136698102D01*
X125000000Y-136722103D01*
X124995226Y-136698102D01*
X124917205Y-136509744D01*
X124803937Y-136340226D01*
X124659774Y-136196063D01*
X124490256Y-136082795D01*
X124301898Y-136004774D01*
X124101939Y-135965000D01*
X123898061Y-135965000D01*
X123698102Y-136004774D01*
X123509744Y-136082795D01*
X123340226Y-136196063D01*
X123196063Y-136340226D01*
X123082795Y-136509744D01*
X123004774Y-136698102D01*
X122965000Y-136898061D01*
X118127000Y-136898061D01*
X118127000Y-131300000D01*
X127061928Y-131300000D01*
X127074188Y-131424482D01*
X127110498Y-131544180D01*
X127169463Y-131654494D01*
X127248815Y-131751185D01*
X127345506Y-131830537D01*
X127359546Y-131838042D01*
X127256772Y-131991853D01*
X127129754Y-132298504D01*
X127065000Y-132624042D01*
X127065000Y-132955958D01*
X127129754Y-133281496D01*
X127256772Y-133588147D01*
X127441175Y-133864125D01*
X127675875Y-134098825D01*
X127951853Y-134283228D01*
X128258504Y-134410246D01*
X128584042Y-134475000D01*
X128915958Y-134475000D01*
X129241496Y-134410246D01*
X129548147Y-134283228D01*
X129824125Y-134098825D01*
X130058825Y-133864125D01*
X130243228Y-133588147D01*
X130370246Y-133281496D01*
X130435000Y-132955958D01*
X130435000Y-132624042D01*
X130370246Y-132298504D01*
X130243228Y-131991853D01*
X130140454Y-131838042D01*
X130154494Y-131830537D01*
X130251185Y-131751185D01*
X130330537Y-131654494D01*
X130389502Y-131544180D01*
X130425812Y-131424482D01*
X130438072Y-131300000D01*
X130435000Y-130535750D01*
X130276250Y-130377000D01*
X128877000Y-130377000D01*
X128877000Y-130397000D01*
X128623000Y-130397000D01*
X128623000Y-130377000D01*
X127223750Y-130377000D01*
X127065000Y-130535750D01*
X127061928Y-131300000D01*
X118127000Y-131300000D01*
X118127000Y-129200000D01*
X127061928Y-129200000D01*
X127065000Y-129964250D01*
X127223750Y-130123000D01*
X128623000Y-130123000D01*
X128623000Y-128723750D01*
X128877000Y-128723750D01*
X128877000Y-130123000D01*
X130276250Y-130123000D01*
X130435000Y-129964250D01*
X130438072Y-129200000D01*
X130425812Y-129075518D01*
X130389502Y-128955820D01*
X130330537Y-128845506D01*
X130251185Y-128748815D01*
X130154494Y-128669463D01*
X130044180Y-128610498D01*
X129924482Y-128574188D01*
X129800000Y-128561928D01*
X129035750Y-128565000D01*
X128877000Y-128723750D01*
X128623000Y-128723750D01*
X128464250Y-128565000D01*
X127700000Y-128561928D01*
X127575518Y-128574188D01*
X127455820Y-128610498D01*
X127345506Y-128669463D01*
X127248815Y-128748815D01*
X127169463Y-128845506D01*
X127110498Y-128955820D01*
X127074188Y-129075518D01*
X127061928Y-129200000D01*
X118127000Y-129200000D01*
X118127000Y-122556414D01*
X118196063Y-122659774D01*
X118340226Y-122803937D01*
X118509744Y-122917205D01*
X118698102Y-122995226D01*
X118898061Y-123035000D01*
X119101939Y-123035000D01*
X119301898Y-122995226D01*
X119490256Y-122917205D01*
X119518907Y-122898061D01*
X146965000Y-122898061D01*
X146965000Y-123101939D01*
X147004774Y-123301898D01*
X147082795Y-123490256D01*
X147196063Y-123659774D01*
X147340226Y-123803937D01*
X147509744Y-123917205D01*
X147698102Y-123995226D01*
X147898061Y-124035000D01*
X148101939Y-124035000D01*
X148301898Y-123995226D01*
X148490256Y-123917205D01*
X148659774Y-123803937D01*
X148803937Y-123659774D01*
X148917205Y-123490256D01*
X148995226Y-123301898D01*
X149035000Y-123101939D01*
X149035000Y-122898061D01*
X148995226Y-122698102D01*
X148917205Y-122509744D01*
X148803937Y-122340226D01*
X148659774Y-122196063D01*
X148490256Y-122082795D01*
X148301898Y-122004774D01*
X148101939Y-121965000D01*
X147898061Y-121965000D01*
X147698102Y-122004774D01*
X147509744Y-122082795D01*
X147340226Y-122196063D01*
X147196063Y-122340226D01*
X147082795Y-122509744D01*
X147004774Y-122698102D01*
X146965000Y-122898061D01*
X119518907Y-122898061D01*
X119659774Y-122803937D01*
X119803937Y-122659774D01*
X119917205Y-122490256D01*
X119995226Y-122301898D01*
X120035000Y-122101939D01*
X120035000Y-121898061D01*
X119995226Y-121698102D01*
X119917205Y-121509744D01*
X119803937Y-121340226D01*
X119659774Y-121196063D01*
X119490256Y-121082795D01*
X119301898Y-121004774D01*
X119277897Y-121000000D01*
X119301898Y-120995226D01*
X119490256Y-120917205D01*
X119659774Y-120803937D01*
X119803937Y-120659774D01*
X119917205Y-120490256D01*
X119995226Y-120301898D01*
X120035000Y-120101939D01*
X120035000Y-119898061D01*
X119995226Y-119698102D01*
X119917205Y-119509744D01*
X119803937Y-119340226D01*
X119659774Y-119196063D01*
X119490256Y-119082795D01*
X119301898Y-119004774D01*
X119277897Y-119000000D01*
X119301898Y-118995226D01*
X119490256Y-118917205D01*
X119659774Y-118803937D01*
X119803937Y-118659774D01*
X119917205Y-118490256D01*
X119995226Y-118301898D01*
X120035000Y-118101939D01*
X120035000Y-117898061D01*
X119995226Y-117698102D01*
X119917205Y-117509744D01*
X119803937Y-117340226D01*
X119659774Y-117196063D01*
X119490256Y-117082795D01*
X119301898Y-117004774D01*
X119277897Y-117000000D01*
X119301898Y-116995226D01*
X119490256Y-116917205D01*
X119659774Y-116803937D01*
X119803937Y-116659774D01*
X119917205Y-116490256D01*
X119995226Y-116301898D01*
X120035000Y-116101939D01*
X120035000Y-115898061D01*
X119995226Y-115698102D01*
X119917205Y-115509744D01*
X119803937Y-115340226D01*
X119659774Y-115196063D01*
X119490256Y-115082795D01*
X119301898Y-115004774D01*
X119277897Y-115000000D01*
X119301898Y-114995226D01*
X119490256Y-114917205D01*
X119659774Y-114803937D01*
X119803937Y-114659774D01*
X119917205Y-114490256D01*
X119995226Y-114301898D01*
X120035000Y-114101939D01*
X120035000Y-113898061D01*
X119995226Y-113698102D01*
X119917205Y-113509744D01*
X119803937Y-113340226D01*
X119659774Y-113196063D01*
X119490256Y-113082795D01*
X119301898Y-113004774D01*
X119277897Y-113000000D01*
X119301898Y-112995226D01*
X119490256Y-112917205D01*
X119659774Y-112803937D01*
X119803937Y-112659774D01*
X119917205Y-112490256D01*
X119995226Y-112301898D01*
X120035000Y-112101939D01*
X120035000Y-111898061D01*
X119995226Y-111698102D01*
X119917205Y-111509744D01*
X119803937Y-111340226D01*
X119659774Y-111196063D01*
X119490256Y-111082795D01*
X119301898Y-111004774D01*
X119277897Y-111000000D01*
X119301898Y-110995226D01*
X119490256Y-110917205D01*
X119659774Y-110803937D01*
X119803937Y-110659774D01*
X119917205Y-110490256D01*
X119995226Y-110301898D01*
X120035000Y-110101939D01*
X120035000Y-109898061D01*
X119995226Y-109698102D01*
X119917205Y-109509744D01*
X119803937Y-109340226D01*
X119659774Y-109196063D01*
X119490256Y-109082795D01*
X119301898Y-109004774D01*
X119277897Y-109000000D01*
X119301898Y-108995226D01*
X119490256Y-108917205D01*
X119659774Y-108803937D01*
X119803937Y-108659774D01*
X119917205Y-108490256D01*
X119995226Y-108301898D01*
X120035000Y-108101939D01*
X120035000Y-107898061D01*
X119995226Y-107698102D01*
X119917205Y-107509744D01*
X119803937Y-107340226D01*
X119659774Y-107196063D01*
X119490256Y-107082795D01*
X119301898Y-107004774D01*
X119277897Y-107000000D01*
X119301898Y-106995226D01*
X119490256Y-106917205D01*
X119659774Y-106803937D01*
X119803937Y-106659774D01*
X119917205Y-106490256D01*
X119995226Y-106301898D01*
X120035000Y-106101939D01*
X120035000Y-105898061D01*
X119995226Y-105698102D01*
X119917205Y-105509744D01*
X119803937Y-105340226D01*
X119659774Y-105196063D01*
X119490256Y-105082795D01*
X119301898Y-105004774D01*
X119101939Y-104965000D01*
X118898061Y-104965000D01*
X118698102Y-105004774D01*
X118509744Y-105082795D01*
X118340226Y-105196063D01*
X118196063Y-105340226D01*
X118127000Y-105443586D01*
X118127000Y-104950000D01*
X121411928Y-104950000D01*
X121411928Y-106650000D01*
X121424188Y-106774482D01*
X121460498Y-106894180D01*
X121519463Y-107004494D01*
X121598815Y-107101185D01*
X121695506Y-107180537D01*
X121805820Y-107239502D01*
X121878380Y-107261513D01*
X121746525Y-107393368D01*
X121584010Y-107636589D01*
X121472068Y-107906842D01*
X121415000Y-108193740D01*
X121415000Y-108486260D01*
X121472068Y-108773158D01*
X121584010Y-109043411D01*
X121746525Y-109286632D01*
X121953368Y-109493475D01*
X122127760Y-109610000D01*
X121953368Y-109726525D01*
X121746525Y-109933368D01*
X121584010Y-110176589D01*
X121472068Y-110446842D01*
X121415000Y-110733740D01*
X121415000Y-111026260D01*
X121472068Y-111313158D01*
X121584010Y-111583411D01*
X121746525Y-111826632D01*
X121953368Y-112033475D01*
X122127760Y-112150000D01*
X121953368Y-112266525D01*
X121746525Y-112473368D01*
X121584010Y-112716589D01*
X121472068Y-112986842D01*
X121415000Y-113273740D01*
X121415000Y-113566260D01*
X121472068Y-113853158D01*
X121584010Y-114123411D01*
X121746525Y-114366632D01*
X121953368Y-114573475D01*
X122127760Y-114690000D01*
X121953368Y-114806525D01*
X121746525Y-115013368D01*
X121584010Y-115256589D01*
X121472068Y-115526842D01*
X121415000Y-115813740D01*
X121415000Y-116106260D01*
X121472068Y-116393158D01*
X121584010Y-116663411D01*
X121746525Y-116906632D01*
X121953368Y-117113475D01*
X122127760Y-117230000D01*
X121953368Y-117346525D01*
X121746525Y-117553368D01*
X121584010Y-117796589D01*
X121472068Y-118066842D01*
X121415000Y-118353740D01*
X121415000Y-118646260D01*
X121472068Y-118933158D01*
X121584010Y-119203411D01*
X121746525Y-119446632D01*
X121953368Y-119653475D01*
X122127760Y-119770000D01*
X121953368Y-119886525D01*
X121746525Y-120093368D01*
X121584010Y-120336589D01*
X121472068Y-120606842D01*
X121415000Y-120893740D01*
X121415000Y-121186260D01*
X121472068Y-121473158D01*
X121584010Y-121743411D01*
X121746525Y-121986632D01*
X121953368Y-122193475D01*
X122196589Y-122355990D01*
X122466842Y-122467932D01*
X122753740Y-122525000D01*
X123046260Y-122525000D01*
X123333158Y-122467932D01*
X123603411Y-122355990D01*
X123846632Y-122193475D01*
X124053475Y-121986632D01*
X124170000Y-121812240D01*
X124286525Y-121986632D01*
X124493368Y-122193475D01*
X124736589Y-122355990D01*
X125006842Y-122467932D01*
X125293740Y-122525000D01*
X125586260Y-122525000D01*
X125873158Y-122467932D01*
X126143411Y-122355990D01*
X126386632Y-122193475D01*
X126593475Y-121986632D01*
X126755990Y-121743411D01*
X126867932Y-121473158D01*
X126925000Y-121186260D01*
X126925000Y-120893740D01*
X126867932Y-120606842D01*
X126755990Y-120336589D01*
X126593475Y-120093368D01*
X126386632Y-119886525D01*
X126212240Y-119770000D01*
X126386632Y-119653475D01*
X126593475Y-119446632D01*
X126755990Y-119203411D01*
X126867932Y-118933158D01*
X126925000Y-118646260D01*
X126925000Y-118353740D01*
X126867932Y-118066842D01*
X126755990Y-117796589D01*
X126593475Y-117553368D01*
X126386632Y-117346525D01*
X126212240Y-117230000D01*
X126386632Y-117113475D01*
X126593475Y-116906632D01*
X126755990Y-116663411D01*
X126867932Y-116393158D01*
X126925000Y-116106260D01*
X126925000Y-115813740D01*
X126867932Y-115526842D01*
X126755990Y-115256589D01*
X126593475Y-115013368D01*
X126386632Y-114806525D01*
X126212240Y-114690000D01*
X126386632Y-114573475D01*
X126593475Y-114366632D01*
X126755990Y-114123411D01*
X126849332Y-113898061D01*
X136965000Y-113898061D01*
X136965000Y-114101939D01*
X137004774Y-114301898D01*
X137082795Y-114490256D01*
X137196063Y-114659774D01*
X137340226Y-114803937D01*
X137509744Y-114917205D01*
X137698102Y-114995226D01*
X137722103Y-115000000D01*
X137698102Y-115004774D01*
X137509744Y-115082795D01*
X137340226Y-115196063D01*
X137196063Y-115340226D01*
X137082795Y-115509744D01*
X137004774Y-115698102D01*
X136965000Y-115898061D01*
X136965000Y-116101939D01*
X137004774Y-116301898D01*
X137082795Y-116490256D01*
X137196063Y-116659774D01*
X137340226Y-116803937D01*
X137509744Y-116917205D01*
X137698102Y-116995226D01*
X137898061Y-117035000D01*
X138101939Y-117035000D01*
X138301898Y-116995226D01*
X138490256Y-116917205D01*
X138659774Y-116803937D01*
X138803937Y-116659774D01*
X138917205Y-116490256D01*
X138995226Y-116301898D01*
X139000000Y-116277897D01*
X139004774Y-116301898D01*
X139082795Y-116490256D01*
X139196063Y-116659774D01*
X139340226Y-116803937D01*
X139509744Y-116917205D01*
X139698102Y-116995226D01*
X139898061Y-117035000D01*
X140101939Y-117035000D01*
X140301898Y-116995226D01*
X140490256Y-116917205D01*
X140659774Y-116803937D01*
X140803937Y-116659774D01*
X140917205Y-116490256D01*
X140995226Y-116301898D01*
X141000000Y-116277897D01*
X141004774Y-116301898D01*
X141082795Y-116490256D01*
X141196063Y-116659774D01*
X141340226Y-116803937D01*
X141509744Y-116917205D01*
X141698102Y-116995226D01*
X141898061Y-117035000D01*
X142101939Y-117035000D01*
X142301898Y-116995226D01*
X142490256Y-116917205D01*
X142659774Y-116803937D01*
X142803937Y-116659774D01*
X142917205Y-116490256D01*
X142995226Y-116301898D01*
X143000000Y-116277897D01*
X143004774Y-116301898D01*
X143082795Y-116490256D01*
X143196063Y-116659774D01*
X143340226Y-116803937D01*
X143509744Y-116917205D01*
X143698102Y-116995226D01*
X143898061Y-117035000D01*
X144101939Y-117035000D01*
X144301898Y-116995226D01*
X144490256Y-116917205D01*
X144659774Y-116803937D01*
X144803937Y-116659774D01*
X144917205Y-116490256D01*
X144995226Y-116301898D01*
X145035000Y-116101939D01*
X145035000Y-115898061D01*
X144995226Y-115698102D01*
X144917205Y-115509744D01*
X144803937Y-115340226D01*
X144659774Y-115196063D01*
X144490256Y-115082795D01*
X144301898Y-115004774D01*
X144101939Y-114965000D01*
X143898061Y-114965000D01*
X143698102Y-115004774D01*
X143509744Y-115082795D01*
X143340226Y-115196063D01*
X143196063Y-115340226D01*
X143082795Y-115509744D01*
X143004774Y-115698102D01*
X143000000Y-115722103D01*
X142995226Y-115698102D01*
X142917205Y-115509744D01*
X142803937Y-115340226D01*
X142659774Y-115196063D01*
X142490256Y-115082795D01*
X142301898Y-115004774D01*
X142101939Y-114965000D01*
X141898061Y-114965000D01*
X141698102Y-115004774D01*
X141509744Y-115082795D01*
X141340226Y-115196063D01*
X141196063Y-115340226D01*
X141082795Y-115509744D01*
X141004774Y-115698102D01*
X141000000Y-115722103D01*
X140995226Y-115698102D01*
X140917205Y-115509744D01*
X140803937Y-115340226D01*
X140659774Y-115196063D01*
X140490256Y-115082795D01*
X140301898Y-115004774D01*
X140277897Y-115000000D01*
X140301898Y-114995226D01*
X140490256Y-114917205D01*
X140659774Y-114803937D01*
X140803937Y-114659774D01*
X140917205Y-114490256D01*
X140995226Y-114301898D01*
X141035000Y-114101939D01*
X141035000Y-113898061D01*
X140995226Y-113698102D01*
X140917205Y-113509744D01*
X140803937Y-113340226D01*
X140659774Y-113196063D01*
X140490256Y-113082795D01*
X140301898Y-113004774D01*
X140101939Y-112965000D01*
X139898061Y-112965000D01*
X139698102Y-113004774D01*
X139509744Y-113082795D01*
X139340226Y-113196063D01*
X139196063Y-113340226D01*
X139082795Y-113509744D01*
X139004774Y-113698102D01*
X139000000Y-113722103D01*
X138995226Y-113698102D01*
X138917205Y-113509744D01*
X138803937Y-113340226D01*
X138659774Y-113196063D01*
X138490256Y-113082795D01*
X138301898Y-113004774D01*
X138101939Y-112965000D01*
X137898061Y-112965000D01*
X137698102Y-113004774D01*
X137509744Y-113082795D01*
X137340226Y-113196063D01*
X137196063Y-113340226D01*
X137082795Y-113509744D01*
X137004774Y-113698102D01*
X136965000Y-113898061D01*
X126849332Y-113898061D01*
X126867932Y-113853158D01*
X126925000Y-113566260D01*
X126925000Y-113273740D01*
X126867932Y-112986842D01*
X126755990Y-112716589D01*
X126593475Y-112473368D01*
X126386632Y-112266525D01*
X126212240Y-112150000D01*
X126386632Y-112033475D01*
X126593475Y-111826632D01*
X126755990Y-111583411D01*
X126867932Y-111313158D01*
X126925000Y-111026260D01*
X126925000Y-110733740D01*
X126867932Y-110446842D01*
X126755990Y-110176589D01*
X126593475Y-109933368D01*
X126386632Y-109726525D01*
X126212240Y-109610000D01*
X126386632Y-109493475D01*
X126593475Y-109286632D01*
X126726156Y-109088060D01*
X127154999Y-109088060D01*
X127154999Y-109291938D01*
X127194773Y-109491897D01*
X127272794Y-109680255D01*
X127386062Y-109849773D01*
X127530225Y-109993936D01*
X127699743Y-110107204D01*
X127888101Y-110185225D01*
X128088060Y-110224999D01*
X128291938Y-110224999D01*
X128491897Y-110185225D01*
X128680255Y-110107204D01*
X128849773Y-109993936D01*
X128993936Y-109849773D01*
X129107204Y-109680255D01*
X129185225Y-109491897D01*
X129224999Y-109291938D01*
X129224999Y-109088060D01*
X129185225Y-108888101D01*
X129107204Y-108699743D01*
X128993936Y-108530225D01*
X128849773Y-108386062D01*
X128680255Y-108272794D01*
X128491897Y-108194773D01*
X128291938Y-108154999D01*
X128088060Y-108154999D01*
X127888101Y-108194773D01*
X127699743Y-108272794D01*
X127530225Y-108386062D01*
X127386062Y-108530225D01*
X127272794Y-108699743D01*
X127194773Y-108888101D01*
X127154999Y-109088060D01*
X126726156Y-109088060D01*
X126755990Y-109043411D01*
X126867932Y-108773158D01*
X126925000Y-108486260D01*
X126925000Y-108193740D01*
X126867932Y-107906842D01*
X126760742Y-107648061D01*
X128965000Y-107648061D01*
X128965000Y-107851939D01*
X129004774Y-108051898D01*
X129082795Y-108240256D01*
X129196063Y-108409774D01*
X129340226Y-108553937D01*
X129509744Y-108667205D01*
X129698102Y-108745226D01*
X129898061Y-108785000D01*
X130101939Y-108785000D01*
X130301898Y-108745226D01*
X130490256Y-108667205D01*
X130659774Y-108553937D01*
X130803937Y-108409774D01*
X130917205Y-108240256D01*
X130995226Y-108051898D01*
X131005934Y-107998061D01*
X135415000Y-107998061D01*
X135415000Y-108201939D01*
X135454774Y-108401898D01*
X135532795Y-108590256D01*
X135646063Y-108759774D01*
X135790226Y-108903937D01*
X135959744Y-109017205D01*
X136148102Y-109095226D01*
X136348061Y-109135000D01*
X136551939Y-109135000D01*
X136751898Y-109095226D01*
X136940256Y-109017205D01*
X137109774Y-108903937D01*
X137253937Y-108759774D01*
X137367205Y-108590256D01*
X137445226Y-108401898D01*
X137485000Y-108201939D01*
X137485000Y-107998061D01*
X137665000Y-107998061D01*
X137665000Y-108201939D01*
X137704774Y-108401898D01*
X137782795Y-108590256D01*
X137896063Y-108759774D01*
X138040226Y-108903937D01*
X138209744Y-109017205D01*
X138398102Y-109095226D01*
X138598061Y-109135000D01*
X138801939Y-109135000D01*
X139001898Y-109095226D01*
X139190256Y-109017205D01*
X139359774Y-108903937D01*
X139503937Y-108759774D01*
X139575000Y-108653420D01*
X139646063Y-108759774D01*
X139790226Y-108903937D01*
X139959744Y-109017205D01*
X140148102Y-109095226D01*
X140348061Y-109135000D01*
X140551939Y-109135000D01*
X140751898Y-109095226D01*
X140940256Y-109017205D01*
X141109774Y-108903937D01*
X141253937Y-108759774D01*
X141367205Y-108590256D01*
X141445226Y-108401898D01*
X141485000Y-108201939D01*
X141485000Y-107998061D01*
X141445226Y-107798102D01*
X141376864Y-107633061D01*
X148315001Y-107633061D01*
X148315001Y-107836939D01*
X148354775Y-108036898D01*
X148432796Y-108225256D01*
X148546064Y-108394774D01*
X148690227Y-108538937D01*
X148859745Y-108652205D01*
X149048103Y-108730226D01*
X149059533Y-108732499D01*
X149048103Y-108734773D01*
X148859745Y-108812794D01*
X148690227Y-108926062D01*
X148546064Y-109070225D01*
X148432796Y-109239743D01*
X148354775Y-109428101D01*
X148315001Y-109628060D01*
X148315001Y-109831938D01*
X148354775Y-110031897D01*
X148432796Y-110220255D01*
X148546064Y-110389773D01*
X148690227Y-110533936D01*
X148781614Y-110594999D01*
X148690227Y-110656062D01*
X148546064Y-110800225D01*
X148432796Y-110969743D01*
X148354775Y-111158101D01*
X148315001Y-111358060D01*
X148315001Y-111561938D01*
X148354775Y-111761897D01*
X148432796Y-111950255D01*
X148546064Y-112119773D01*
X148690227Y-112263936D01*
X148859745Y-112377204D01*
X149048103Y-112455225D01*
X149248062Y-112494999D01*
X149451940Y-112494999D01*
X149651899Y-112455225D01*
X149840257Y-112377204D01*
X149989064Y-112277774D01*
X149990227Y-112278937D01*
X150159745Y-112392205D01*
X150348103Y-112470226D01*
X150548062Y-112510000D01*
X150751940Y-112510000D01*
X150951899Y-112470226D01*
X151140257Y-112392205D01*
X151309775Y-112278937D01*
X151453938Y-112134774D01*
X151567206Y-111965256D01*
X151645227Y-111776898D01*
X151685001Y-111576939D01*
X151685001Y-111373061D01*
X151645227Y-111173102D01*
X151567206Y-110984744D01*
X151453938Y-110815226D01*
X151309775Y-110671063D01*
X151184713Y-110587500D01*
X151309775Y-110503936D01*
X151453938Y-110359773D01*
X151567206Y-110190255D01*
X151645227Y-110001897D01*
X151685001Y-109801938D01*
X151685001Y-109598060D01*
X151645227Y-109398101D01*
X151567206Y-109209743D01*
X151453938Y-109040225D01*
X151309775Y-108896062D01*
X151140257Y-108782794D01*
X150982623Y-108717499D01*
X151140257Y-108652205D01*
X151309775Y-108538937D01*
X151453938Y-108394774D01*
X151567206Y-108225256D01*
X151645227Y-108036898D01*
X151685001Y-107836939D01*
X151685001Y-107633061D01*
X151645227Y-107433102D01*
X151567206Y-107244744D01*
X151453938Y-107075226D01*
X151309775Y-106931063D01*
X151140257Y-106817795D01*
X150951899Y-106739774D01*
X150751940Y-106700000D01*
X150548062Y-106700000D01*
X150348103Y-106739774D01*
X150159745Y-106817795D01*
X150000001Y-106924532D01*
X149840257Y-106817795D01*
X149651899Y-106739774D01*
X149451940Y-106700000D01*
X149248062Y-106700000D01*
X149048103Y-106739774D01*
X148859745Y-106817795D01*
X148690227Y-106931063D01*
X148546064Y-107075226D01*
X148432796Y-107244744D01*
X148354775Y-107433102D01*
X148315001Y-107633061D01*
X141376864Y-107633061D01*
X141367205Y-107609744D01*
X141253937Y-107440226D01*
X141109774Y-107296063D01*
X140940256Y-107182795D01*
X140751898Y-107104774D01*
X140551939Y-107065000D01*
X140348061Y-107065000D01*
X140148102Y-107104774D01*
X139959744Y-107182795D01*
X139790226Y-107296063D01*
X139646063Y-107440226D01*
X139575000Y-107546580D01*
X139503937Y-107440226D01*
X139359774Y-107296063D01*
X139190256Y-107182795D01*
X139001898Y-107104774D01*
X138801939Y-107065000D01*
X138598061Y-107065000D01*
X138398102Y-107104774D01*
X138209744Y-107182795D01*
X138040226Y-107296063D01*
X137896063Y-107440226D01*
X137782795Y-107609744D01*
X137704774Y-107798102D01*
X137665000Y-107998061D01*
X137485000Y-107998061D01*
X137445226Y-107798102D01*
X137367205Y-107609744D01*
X137253937Y-107440226D01*
X137109774Y-107296063D01*
X136940256Y-107182795D01*
X136751898Y-107104774D01*
X136551939Y-107065000D01*
X136348061Y-107065000D01*
X136148102Y-107104774D01*
X135959744Y-107182795D01*
X135790226Y-107296063D01*
X135646063Y-107440226D01*
X135532795Y-107609744D01*
X135454774Y-107798102D01*
X135415000Y-107998061D01*
X131005934Y-107998061D01*
X131035000Y-107851939D01*
X131035000Y-107648061D01*
X130995226Y-107448102D01*
X130917205Y-107259744D01*
X130803937Y-107090226D01*
X130659774Y-106946063D01*
X130490256Y-106832795D01*
X130301898Y-106754774D01*
X130101939Y-106715000D01*
X129898061Y-106715000D01*
X129698102Y-106754774D01*
X129509744Y-106832795D01*
X129340226Y-106946063D01*
X129196063Y-107090226D01*
X129082795Y-107259744D01*
X129004774Y-107448102D01*
X128965000Y-107648061D01*
X126760742Y-107648061D01*
X126755990Y-107636589D01*
X126593475Y-107393368D01*
X126386632Y-107186525D01*
X126212240Y-107070000D01*
X126386632Y-106953475D01*
X126593475Y-106746632D01*
X126755990Y-106503411D01*
X126867932Y-106233158D01*
X126925000Y-105946260D01*
X126925000Y-105898061D01*
X143965000Y-105898061D01*
X143965000Y-106101939D01*
X144004774Y-106301898D01*
X144082795Y-106490256D01*
X144196063Y-106659774D01*
X144340226Y-106803937D01*
X144509744Y-106917205D01*
X144698102Y-106995226D01*
X144898061Y-107035000D01*
X145101939Y-107035000D01*
X145301898Y-106995226D01*
X145490256Y-106917205D01*
X145659774Y-106803937D01*
X145803937Y-106659774D01*
X145917205Y-106490256D01*
X145995226Y-106301898D01*
X146035000Y-106101939D01*
X146035000Y-105898061D01*
X145995226Y-105698102D01*
X145917205Y-105509744D01*
X145803937Y-105340226D01*
X145659774Y-105196063D01*
X145490256Y-105082795D01*
X145301898Y-105004774D01*
X145101939Y-104965000D01*
X144898061Y-104965000D01*
X144698102Y-105004774D01*
X144509744Y-105082795D01*
X144340226Y-105196063D01*
X144196063Y-105340226D01*
X144082795Y-105509744D01*
X144004774Y-105698102D01*
X143965000Y-105898061D01*
X126925000Y-105898061D01*
X126925000Y-105653740D01*
X126867932Y-105366842D01*
X126755990Y-105096589D01*
X126593475Y-104853368D01*
X126386632Y-104646525D01*
X126143411Y-104484010D01*
X125873158Y-104372068D01*
X125767349Y-104351021D01*
X138512040Y-104351021D01*
X138512040Y-104554899D01*
X138551814Y-104754858D01*
X138629835Y-104943216D01*
X138743103Y-105112734D01*
X138887266Y-105256897D01*
X139056784Y-105370165D01*
X139245142Y-105448186D01*
X139445101Y-105487960D01*
X139648979Y-105487960D01*
X139848938Y-105448186D01*
X140037296Y-105370165D01*
X140206814Y-105256897D01*
X140350977Y-105112734D01*
X140464245Y-104943216D01*
X140542266Y-104754858D01*
X140582040Y-104554899D01*
X140582040Y-104351021D01*
X140542266Y-104151062D01*
X140464245Y-103962704D01*
X140350977Y-103793186D01*
X140206814Y-103649023D01*
X140037296Y-103535755D01*
X139848938Y-103457734D01*
X139648979Y-103417960D01*
X139445101Y-103417960D01*
X139245142Y-103457734D01*
X139056784Y-103535755D01*
X138887266Y-103649023D01*
X138743103Y-103793186D01*
X138629835Y-103962704D01*
X138551814Y-104151062D01*
X138512040Y-104351021D01*
X125767349Y-104351021D01*
X125586260Y-104315000D01*
X125293740Y-104315000D01*
X125006842Y-104372068D01*
X124736589Y-104484010D01*
X124493368Y-104646525D01*
X124361513Y-104778380D01*
X124339502Y-104705820D01*
X124280537Y-104595506D01*
X124201185Y-104498815D01*
X124104494Y-104419463D01*
X123994180Y-104360498D01*
X123874482Y-104324188D01*
X123750000Y-104311928D01*
X122050000Y-104311928D01*
X121925518Y-104324188D01*
X121805820Y-104360498D01*
X121695506Y-104419463D01*
X121598815Y-104498815D01*
X121519463Y-104595506D01*
X121460498Y-104705820D01*
X121424188Y-104825518D01*
X121411928Y-104950000D01*
X118127000Y-104950000D01*
X118127000Y-103198061D01*
X144065000Y-103198061D01*
X144065000Y-103401939D01*
X144104774Y-103601898D01*
X144182795Y-103790256D01*
X144296063Y-103959774D01*
X144440226Y-104103937D01*
X144609744Y-104217205D01*
X144798102Y-104295226D01*
X144998061Y-104335000D01*
X145201939Y-104335000D01*
X145401898Y-104295226D01*
X145590256Y-104217205D01*
X145759774Y-104103937D01*
X145825650Y-104038061D01*
X148825000Y-104038061D01*
X148825000Y-104241939D01*
X148864774Y-104441898D01*
X148942795Y-104630256D01*
X149056063Y-104799774D01*
X149200226Y-104943937D01*
X149369744Y-105057205D01*
X149558102Y-105135226D01*
X149758061Y-105175000D01*
X149961939Y-105175000D01*
X150161898Y-105135226D01*
X150350256Y-105057205D01*
X150519774Y-104943937D01*
X150663937Y-104799774D01*
X150777205Y-104630256D01*
X150855226Y-104441898D01*
X150895000Y-104241939D01*
X150895000Y-104038061D01*
X150855226Y-103838102D01*
X150777205Y-103649744D01*
X150663937Y-103480226D01*
X150519774Y-103336063D01*
X150350256Y-103222795D01*
X150161898Y-103144774D01*
X149961939Y-103105000D01*
X149758061Y-103105000D01*
X149558102Y-103144774D01*
X149369744Y-103222795D01*
X149200226Y-103336063D01*
X149056063Y-103480226D01*
X148942795Y-103649744D01*
X148864774Y-103838102D01*
X148825000Y-104038061D01*
X145825650Y-104038061D01*
X145903937Y-103959774D01*
X146017205Y-103790256D01*
X146095226Y-103601898D01*
X146135000Y-103401939D01*
X146135000Y-103198061D01*
X146095226Y-102998102D01*
X146017205Y-102809744D01*
X145903937Y-102640226D01*
X145759774Y-102496063D01*
X145590256Y-102382795D01*
X145401898Y-102304774D01*
X145201939Y-102265000D01*
X144998061Y-102265000D01*
X144798102Y-102304774D01*
X144609744Y-102382795D01*
X144440226Y-102496063D01*
X144296063Y-102640226D01*
X144182795Y-102809744D01*
X144104774Y-102998102D01*
X144065000Y-103198061D01*
X118127000Y-103198061D01*
X118127000Y-102148061D01*
X147215000Y-102148061D01*
X147215000Y-102351939D01*
X147254774Y-102551898D01*
X147332795Y-102740256D01*
X147446063Y-102909774D01*
X147590226Y-103053937D01*
X147759744Y-103167205D01*
X147948102Y-103245226D01*
X148148061Y-103285000D01*
X148351939Y-103285000D01*
X148551898Y-103245226D01*
X148740256Y-103167205D01*
X148909774Y-103053937D01*
X149053937Y-102909774D01*
X149167205Y-102740256D01*
X149245226Y-102551898D01*
X149285000Y-102351939D01*
X149285000Y-102148061D01*
X149245226Y-101948102D01*
X149167205Y-101759744D01*
X149142695Y-101723061D01*
X150490000Y-101723061D01*
X150490000Y-101926939D01*
X150529774Y-102126898D01*
X150607795Y-102315256D01*
X150721063Y-102484774D01*
X150865226Y-102628937D01*
X151034744Y-102742205D01*
X151223102Y-102820226D01*
X151423061Y-102860000D01*
X151626939Y-102860000D01*
X151826898Y-102820226D01*
X152015256Y-102742205D01*
X152184774Y-102628937D01*
X152328937Y-102484774D01*
X152442205Y-102315256D01*
X152520226Y-102126898D01*
X152560000Y-101926939D01*
X152560000Y-101723061D01*
X152520226Y-101523102D01*
X152442205Y-101334744D01*
X152328937Y-101165226D01*
X152184774Y-101021063D01*
X152015256Y-100907795D01*
X151826898Y-100829774D01*
X151626939Y-100790000D01*
X151423061Y-100790000D01*
X151223102Y-100829774D01*
X151034744Y-100907795D01*
X150865226Y-101021063D01*
X150721063Y-101165226D01*
X150607795Y-101334744D01*
X150529774Y-101523102D01*
X150490000Y-101723061D01*
X149142695Y-101723061D01*
X149053937Y-101590226D01*
X148909774Y-101446063D01*
X148740256Y-101332795D01*
X148551898Y-101254774D01*
X148351939Y-101215000D01*
X148148061Y-101215000D01*
X147948102Y-101254774D01*
X147759744Y-101332795D01*
X147590226Y-101446063D01*
X147446063Y-101590226D01*
X147332795Y-101759744D01*
X147254774Y-101948102D01*
X147215000Y-102148061D01*
X118127000Y-102148061D01*
X118127000Y-100148061D01*
X128965000Y-100148061D01*
X128965000Y-100351939D01*
X129004774Y-100551898D01*
X129082795Y-100740256D01*
X129196063Y-100909774D01*
X129340226Y-101053937D01*
X129509744Y-101167205D01*
X129698102Y-101245226D01*
X129898061Y-101285000D01*
X130101939Y-101285000D01*
X130301898Y-101245226D01*
X130490256Y-101167205D01*
X130659774Y-101053937D01*
X130715650Y-100998061D01*
X136965000Y-100998061D01*
X136965000Y-101201939D01*
X137004774Y-101401898D01*
X137082795Y-101590256D01*
X137196063Y-101759774D01*
X137340226Y-101903937D01*
X137509744Y-102017205D01*
X137698102Y-102095226D01*
X137898061Y-102135000D01*
X138101939Y-102135000D01*
X138301898Y-102095226D01*
X138490256Y-102017205D01*
X138659774Y-101903937D01*
X138803937Y-101759774D01*
X138917205Y-101590256D01*
X138995226Y-101401898D01*
X139035000Y-101201939D01*
X139035000Y-100998061D01*
X138995226Y-100798102D01*
X138917205Y-100609744D01*
X138803937Y-100440226D01*
X138659774Y-100296063D01*
X138490256Y-100182795D01*
X138301898Y-100104774D01*
X138101939Y-100065000D01*
X137898061Y-100065000D01*
X137698102Y-100104774D01*
X137509744Y-100182795D01*
X137340226Y-100296063D01*
X137196063Y-100440226D01*
X137082795Y-100609744D01*
X137004774Y-100798102D01*
X136965000Y-100998061D01*
X130715650Y-100998061D01*
X130803937Y-100909774D01*
X130917205Y-100740256D01*
X130995226Y-100551898D01*
X131035000Y-100351939D01*
X131035000Y-100148061D01*
X130995226Y-99948102D01*
X130917205Y-99759744D01*
X130803937Y-99590226D01*
X130659774Y-99446063D01*
X130490256Y-99332795D01*
X130301898Y-99254774D01*
X130101939Y-99215000D01*
X129898061Y-99215000D01*
X129698102Y-99254774D01*
X129509744Y-99332795D01*
X129340226Y-99446063D01*
X129196063Y-99590226D01*
X129082795Y-99759744D01*
X129004774Y-99948102D01*
X128965000Y-100148061D01*
X118127000Y-100148061D01*
X118127000Y-98898061D01*
X124965000Y-98898061D01*
X124965000Y-99101939D01*
X125004774Y-99301898D01*
X125082795Y-99490256D01*
X125196063Y-99659774D01*
X125340226Y-99803937D01*
X125509744Y-99917205D01*
X125698102Y-99995226D01*
X125898061Y-100035000D01*
X126101939Y-100035000D01*
X126301898Y-99995226D01*
X126490256Y-99917205D01*
X126659774Y-99803937D01*
X126803937Y-99659774D01*
X126917205Y-99490256D01*
X126995226Y-99301898D01*
X127035000Y-99101939D01*
X127035000Y-98898061D01*
X126995226Y-98698102D01*
X126917205Y-98509744D01*
X126803937Y-98340226D01*
X126659774Y-98196063D01*
X126490256Y-98082795D01*
X126301898Y-98004774D01*
X126101939Y-97965000D01*
X125898061Y-97965000D01*
X125698102Y-98004774D01*
X125509744Y-98082795D01*
X125340226Y-98196063D01*
X125196063Y-98340226D01*
X125082795Y-98509744D01*
X125004774Y-98698102D01*
X124965000Y-98898061D01*
X118127000Y-98898061D01*
X118127000Y-97398061D01*
X135215000Y-97398061D01*
X135215000Y-97601939D01*
X135254774Y-97801898D01*
X135332795Y-97990256D01*
X135446063Y-98159774D01*
X135590226Y-98303937D01*
X135759744Y-98417205D01*
X135948102Y-98495226D01*
X136148061Y-98535000D01*
X136351939Y-98535000D01*
X136551898Y-98495226D01*
X136740256Y-98417205D01*
X136909774Y-98303937D01*
X137053937Y-98159774D01*
X137167205Y-97990256D01*
X137245226Y-97801898D01*
X137285000Y-97601939D01*
X137285000Y-97398061D01*
X137245226Y-97198102D01*
X137167205Y-97009744D01*
X137053937Y-96840226D01*
X136909774Y-96696063D01*
X136740256Y-96582795D01*
X136551898Y-96504774D01*
X136351939Y-96465000D01*
X136148061Y-96465000D01*
X135948102Y-96504774D01*
X135759744Y-96582795D01*
X135590226Y-96696063D01*
X135446063Y-96840226D01*
X135332795Y-97009744D01*
X135254774Y-97198102D01*
X135215000Y-97398061D01*
X118127000Y-97398061D01*
X118127000Y-90898061D01*
X130215000Y-90898061D01*
X130215000Y-91101939D01*
X130254774Y-91301898D01*
X130332795Y-91490256D01*
X130446063Y-91659774D01*
X130590226Y-91803937D01*
X130759744Y-91917205D01*
X130948102Y-91995226D01*
X131148061Y-92035000D01*
X131351939Y-92035000D01*
X131551898Y-91995226D01*
X131740256Y-91917205D01*
X131909774Y-91803937D01*
X132053937Y-91659774D01*
X132167205Y-91490256D01*
X132245226Y-91301898D01*
X132245989Y-91298061D01*
X135765000Y-91298061D01*
X135765000Y-91501939D01*
X135804774Y-91701898D01*
X135882795Y-91890256D01*
X135996063Y-92059774D01*
X136140226Y-92203937D01*
X136309744Y-92317205D01*
X136498102Y-92395226D01*
X136698061Y-92435000D01*
X136901939Y-92435000D01*
X137101898Y-92395226D01*
X137290256Y-92317205D01*
X137459774Y-92203937D01*
X137603937Y-92059774D01*
X137717205Y-91890256D01*
X137795226Y-91701898D01*
X137835000Y-91501939D01*
X137835000Y-91298061D01*
X137795226Y-91098102D01*
X137717205Y-90909744D01*
X137603937Y-90740226D01*
X137459774Y-90596063D01*
X137290256Y-90482795D01*
X137101898Y-90404774D01*
X136901939Y-90365000D01*
X136698061Y-90365000D01*
X136498102Y-90404774D01*
X136309744Y-90482795D01*
X136140226Y-90596063D01*
X135996063Y-90740226D01*
X135882795Y-90909744D01*
X135804774Y-91098102D01*
X135765000Y-91298061D01*
X132245989Y-91298061D01*
X132285000Y-91101939D01*
X132285000Y-90898061D01*
X132245226Y-90698102D01*
X132167205Y-90509744D01*
X132053937Y-90340226D01*
X131909774Y-90196063D01*
X131740256Y-90082795D01*
X131551898Y-90004774D01*
X131351939Y-89965000D01*
X131148061Y-89965000D01*
X130948102Y-90004774D01*
X130759744Y-90082795D01*
X130590226Y-90196063D01*
X130446063Y-90340226D01*
X130332795Y-90509744D01*
X130254774Y-90698102D01*
X130215000Y-90898061D01*
X118127000Y-90898061D01*
X118127000Y-86398061D01*
X137665000Y-86398061D01*
X137665000Y-86601939D01*
X137704774Y-86801898D01*
X137782795Y-86990256D01*
X137896063Y-87159774D01*
X138040226Y-87303937D01*
X138209744Y-87417205D01*
X138398102Y-87495226D01*
X138598061Y-87535000D01*
X138801939Y-87535000D01*
X139001898Y-87495226D01*
X139190256Y-87417205D01*
X139359774Y-87303937D01*
X139503937Y-87159774D01*
X139617205Y-86990256D01*
X139695226Y-86801898D01*
X139735000Y-86601939D01*
X139735000Y-86398061D01*
X139695226Y-86198102D01*
X139617205Y-86009744D01*
X139542582Y-85898061D01*
X142965000Y-85898061D01*
X142965000Y-86101939D01*
X143004774Y-86301898D01*
X143082795Y-86490256D01*
X143196063Y-86659774D01*
X143340226Y-86803937D01*
X143509744Y-86917205D01*
X143698102Y-86995226D01*
X143722103Y-87000000D01*
X143698102Y-87004774D01*
X143509744Y-87082795D01*
X143340226Y-87196063D01*
X143196063Y-87340226D01*
X143082795Y-87509744D01*
X143004774Y-87698102D01*
X142965000Y-87898061D01*
X142965000Y-88101939D01*
X143004774Y-88301898D01*
X143082795Y-88490256D01*
X143196063Y-88659774D01*
X143340226Y-88803937D01*
X143509744Y-88917205D01*
X143698102Y-88995226D01*
X143722103Y-89000000D01*
X143698102Y-89004774D01*
X143509744Y-89082795D01*
X143340226Y-89196063D01*
X143196063Y-89340226D01*
X143082795Y-89509744D01*
X143004774Y-89698102D01*
X142965000Y-89898061D01*
X142965000Y-90101939D01*
X143004774Y-90301898D01*
X143082795Y-90490256D01*
X143196063Y-90659774D01*
X143340226Y-90803937D01*
X143509744Y-90917205D01*
X143698102Y-90995226D01*
X143722103Y-91000000D01*
X143698102Y-91004774D01*
X143509744Y-91082795D01*
X143340226Y-91196063D01*
X143196063Y-91340226D01*
X143082795Y-91509744D01*
X143004774Y-91698102D01*
X142965000Y-91898061D01*
X142965000Y-92101939D01*
X143004774Y-92301898D01*
X143082795Y-92490256D01*
X143196063Y-92659774D01*
X143340226Y-92803937D01*
X143509744Y-92917205D01*
X143698102Y-92995226D01*
X143722103Y-93000000D01*
X143698102Y-93004774D01*
X143509744Y-93082795D01*
X143340226Y-93196063D01*
X143196063Y-93340226D01*
X143082795Y-93509744D01*
X143004774Y-93698102D01*
X142965000Y-93898061D01*
X142965000Y-94101939D01*
X143004774Y-94301898D01*
X143082795Y-94490256D01*
X143196063Y-94659774D01*
X143340226Y-94803937D01*
X143509744Y-94917205D01*
X143698102Y-94995226D01*
X143722103Y-95000000D01*
X143698102Y-95004774D01*
X143509744Y-95082795D01*
X143340226Y-95196063D01*
X143196063Y-95340226D01*
X143082795Y-95509744D01*
X143004774Y-95698102D01*
X142965000Y-95898061D01*
X142965000Y-96101939D01*
X143004774Y-96301898D01*
X143082795Y-96490256D01*
X143196063Y-96659774D01*
X143340226Y-96803937D01*
X143509744Y-96917205D01*
X143698102Y-96995226D01*
X143898061Y-97035000D01*
X144101939Y-97035000D01*
X144301898Y-96995226D01*
X144490256Y-96917205D01*
X144659774Y-96803937D01*
X144803937Y-96659774D01*
X144917205Y-96490256D01*
X144995226Y-96301898D01*
X145000000Y-96277897D01*
X145004774Y-96301898D01*
X145082795Y-96490256D01*
X145196063Y-96659774D01*
X145340226Y-96803937D01*
X145509744Y-96917205D01*
X145698102Y-96995226D01*
X145898061Y-97035000D01*
X146101939Y-97035000D01*
X146301898Y-96995226D01*
X146490256Y-96917205D01*
X146659774Y-96803937D01*
X146803937Y-96659774D01*
X146917205Y-96490256D01*
X146995226Y-96301898D01*
X147035000Y-96101939D01*
X147035000Y-95898061D01*
X147215000Y-95898061D01*
X147215000Y-96101939D01*
X147254774Y-96301898D01*
X147332795Y-96490256D01*
X147446063Y-96659774D01*
X147590226Y-96803937D01*
X147759744Y-96917205D01*
X147948102Y-96995226D01*
X148148061Y-97035000D01*
X148351939Y-97035000D01*
X148551898Y-96995226D01*
X148740256Y-96917205D01*
X148909774Y-96803937D01*
X149053937Y-96659774D01*
X149167205Y-96490256D01*
X149245226Y-96301898D01*
X149285000Y-96101939D01*
X149285000Y-95898061D01*
X149965000Y-95898061D01*
X149965000Y-96101939D01*
X150004774Y-96301898D01*
X150082795Y-96490256D01*
X150196063Y-96659774D01*
X150340226Y-96803937D01*
X150509744Y-96917205D01*
X150698102Y-96995226D01*
X150898061Y-97035000D01*
X151101939Y-97035000D01*
X151301898Y-96995226D01*
X151490256Y-96917205D01*
X151659774Y-96803937D01*
X151803937Y-96659774D01*
X151917205Y-96490256D01*
X151995226Y-96301898D01*
X152035000Y-96101939D01*
X152035000Y-95898061D01*
X151995226Y-95698102D01*
X151917205Y-95509744D01*
X151803937Y-95340226D01*
X151659774Y-95196063D01*
X151490256Y-95082795D01*
X151301898Y-95004774D01*
X151101939Y-94965000D01*
X150898061Y-94965000D01*
X150698102Y-95004774D01*
X150509744Y-95082795D01*
X150340226Y-95196063D01*
X150196063Y-95340226D01*
X150082795Y-95509744D01*
X150004774Y-95698102D01*
X149965000Y-95898061D01*
X149285000Y-95898061D01*
X149245226Y-95698102D01*
X149167205Y-95509744D01*
X149053937Y-95340226D01*
X148909774Y-95196063D01*
X148740256Y-95082795D01*
X148551898Y-95004774D01*
X148351939Y-94965000D01*
X148148061Y-94965000D01*
X147948102Y-95004774D01*
X147759744Y-95082795D01*
X147590226Y-95196063D01*
X147446063Y-95340226D01*
X147332795Y-95509744D01*
X147254774Y-95698102D01*
X147215000Y-95898061D01*
X147035000Y-95898061D01*
X146995226Y-95698102D01*
X146917205Y-95509744D01*
X146803937Y-95340226D01*
X146659774Y-95196063D01*
X146490256Y-95082795D01*
X146301898Y-95004774D01*
X146101939Y-94965000D01*
X145898061Y-94965000D01*
X145698102Y-95004774D01*
X145509744Y-95082795D01*
X145340226Y-95196063D01*
X145196063Y-95340226D01*
X145082795Y-95509744D01*
X145004774Y-95698102D01*
X145000000Y-95722103D01*
X144995226Y-95698102D01*
X144917205Y-95509744D01*
X144803937Y-95340226D01*
X144659774Y-95196063D01*
X144490256Y-95082795D01*
X144301898Y-95004774D01*
X144277897Y-95000000D01*
X144301898Y-94995226D01*
X144490256Y-94917205D01*
X144659774Y-94803937D01*
X144803937Y-94659774D01*
X144917205Y-94490256D01*
X144995226Y-94301898D01*
X145035000Y-94101939D01*
X145035000Y-93898061D01*
X144995226Y-93698102D01*
X144964143Y-93623061D01*
X150740000Y-93623061D01*
X150740000Y-93826939D01*
X150779774Y-94026898D01*
X150857795Y-94215256D01*
X150971063Y-94384774D01*
X151115226Y-94528937D01*
X151284744Y-94642205D01*
X151473102Y-94720226D01*
X151673061Y-94760000D01*
X151876939Y-94760000D01*
X152076898Y-94720226D01*
X152265256Y-94642205D01*
X152434774Y-94528937D01*
X152578937Y-94384774D01*
X152692205Y-94215256D01*
X152770226Y-94026898D01*
X152810000Y-93826939D01*
X152810000Y-93623061D01*
X152770226Y-93423102D01*
X152692205Y-93234744D01*
X152578937Y-93065226D01*
X152434774Y-92921063D01*
X152265256Y-92807795D01*
X152076898Y-92729774D01*
X151876939Y-92690000D01*
X151673061Y-92690000D01*
X151473102Y-92729774D01*
X151284744Y-92807795D01*
X151115226Y-92921063D01*
X150971063Y-93065226D01*
X150857795Y-93234744D01*
X150779774Y-93423102D01*
X150740000Y-93623061D01*
X144964143Y-93623061D01*
X144917205Y-93509744D01*
X144803937Y-93340226D01*
X144659774Y-93196063D01*
X144490256Y-93082795D01*
X144301898Y-93004774D01*
X144277897Y-93000000D01*
X144301898Y-92995226D01*
X144490256Y-92917205D01*
X144659774Y-92803937D01*
X144803937Y-92659774D01*
X144917205Y-92490256D01*
X144995226Y-92301898D01*
X145035000Y-92101939D01*
X145035000Y-91898061D01*
X144995226Y-91698102D01*
X144917205Y-91509744D01*
X144803937Y-91340226D01*
X144659774Y-91196063D01*
X144490256Y-91082795D01*
X144301898Y-91004774D01*
X144277897Y-91000000D01*
X144301898Y-90995226D01*
X144490256Y-90917205D01*
X144659774Y-90803937D01*
X144803937Y-90659774D01*
X144917205Y-90490256D01*
X144995226Y-90301898D01*
X145035000Y-90101939D01*
X145035000Y-89898061D01*
X144995226Y-89698102D01*
X144917205Y-89509744D01*
X144809173Y-89348061D01*
X150515000Y-89348061D01*
X150515000Y-89551939D01*
X150554774Y-89751898D01*
X150632795Y-89940256D01*
X150746063Y-90109774D01*
X150890226Y-90253937D01*
X151059744Y-90367205D01*
X151248102Y-90445226D01*
X151448061Y-90485000D01*
X151651939Y-90485000D01*
X151851898Y-90445226D01*
X152040256Y-90367205D01*
X152209774Y-90253937D01*
X152353937Y-90109774D01*
X152467205Y-89940256D01*
X152545226Y-89751898D01*
X152585000Y-89551939D01*
X152585000Y-89348061D01*
X152545226Y-89148102D01*
X152467205Y-88959744D01*
X152353937Y-88790226D01*
X152209774Y-88646063D01*
X152040256Y-88532795D01*
X151851898Y-88454774D01*
X151651939Y-88415000D01*
X151448061Y-88415000D01*
X151248102Y-88454774D01*
X151059744Y-88532795D01*
X150890226Y-88646063D01*
X150746063Y-88790226D01*
X150632795Y-88959744D01*
X150554774Y-89148102D01*
X150515000Y-89348061D01*
X144809173Y-89348061D01*
X144803937Y-89340226D01*
X144659774Y-89196063D01*
X144490256Y-89082795D01*
X144301898Y-89004774D01*
X144277897Y-89000000D01*
X144301898Y-88995226D01*
X144490256Y-88917205D01*
X144659774Y-88803937D01*
X144803937Y-88659774D01*
X144917205Y-88490256D01*
X144995226Y-88301898D01*
X145035000Y-88101939D01*
X145035000Y-87898061D01*
X144995226Y-87698102D01*
X144917205Y-87509744D01*
X144842582Y-87398061D01*
X152215000Y-87398061D01*
X152215000Y-87601939D01*
X152254774Y-87801898D01*
X152332795Y-87990256D01*
X152446063Y-88159774D01*
X152590226Y-88303937D01*
X152759744Y-88417205D01*
X152948102Y-88495226D01*
X153148061Y-88535000D01*
X153351939Y-88535000D01*
X153551898Y-88495226D01*
X153740256Y-88417205D01*
X153909774Y-88303937D01*
X154053937Y-88159774D01*
X154167205Y-87990256D01*
X154245226Y-87801898D01*
X154285000Y-87601939D01*
X154285000Y-87398061D01*
X154245226Y-87198102D01*
X154167205Y-87009744D01*
X154053937Y-86840226D01*
X153909774Y-86696063D01*
X153740256Y-86582795D01*
X153551898Y-86504774D01*
X153351939Y-86465000D01*
X153148061Y-86465000D01*
X152948102Y-86504774D01*
X152759744Y-86582795D01*
X152590226Y-86696063D01*
X152446063Y-86840226D01*
X152332795Y-87009744D01*
X152254774Y-87198102D01*
X152215000Y-87398061D01*
X144842582Y-87398061D01*
X144803937Y-87340226D01*
X144659774Y-87196063D01*
X144490256Y-87082795D01*
X144301898Y-87004774D01*
X144277897Y-87000000D01*
X144301898Y-86995226D01*
X144490256Y-86917205D01*
X144659774Y-86803937D01*
X144803937Y-86659774D01*
X144917205Y-86490256D01*
X144995226Y-86301898D01*
X145035000Y-86101939D01*
X145035000Y-85898061D01*
X144995226Y-85698102D01*
X144917205Y-85509744D01*
X144803937Y-85340226D01*
X144659774Y-85196063D01*
X144490256Y-85082795D01*
X144301898Y-85004774D01*
X144101939Y-84965000D01*
X143898061Y-84965000D01*
X143698102Y-85004774D01*
X143509744Y-85082795D01*
X143340226Y-85196063D01*
X143196063Y-85340226D01*
X143082795Y-85509744D01*
X143004774Y-85698102D01*
X142965000Y-85898061D01*
X139542582Y-85898061D01*
X139503937Y-85840226D01*
X139359774Y-85696063D01*
X139190256Y-85582795D01*
X139001898Y-85504774D01*
X138801939Y-85465000D01*
X138598061Y-85465000D01*
X138398102Y-85504774D01*
X138209744Y-85582795D01*
X138040226Y-85696063D01*
X137896063Y-85840226D01*
X137782795Y-86009744D01*
X137704774Y-86198102D01*
X137665000Y-86398061D01*
X118127000Y-86398061D01*
X118127000Y-80127000D01*
X154873000Y-80127000D01*
X154873000Y-83171491D01*
G37*
X154873000Y-83171491D02*
X154740256Y-83082795D01*
X154551898Y-83004774D01*
X154351939Y-82965000D01*
X154148061Y-82965000D01*
X153948102Y-83004774D01*
X153759744Y-83082795D01*
X153590226Y-83196063D01*
X153446063Y-83340226D01*
X153332795Y-83509744D01*
X153254774Y-83698102D01*
X153215000Y-83898061D01*
X153215000Y-84101939D01*
X153254774Y-84301898D01*
X153332795Y-84490256D01*
X153446063Y-84659774D01*
X153590226Y-84803937D01*
X153759744Y-84917205D01*
X153948102Y-84995226D01*
X154148061Y-85035000D01*
X154351939Y-85035000D01*
X154551898Y-84995226D01*
X154740256Y-84917205D01*
X154873000Y-84828509D01*
X154873000Y-101193586D01*
X154803937Y-101090226D01*
X154659774Y-100946063D01*
X154490256Y-100832795D01*
X154301898Y-100754774D01*
X154101939Y-100715000D01*
X153898061Y-100715000D01*
X153698102Y-100754774D01*
X153509744Y-100832795D01*
X153340226Y-100946063D01*
X153196063Y-101090226D01*
X153082795Y-101259744D01*
X153004774Y-101448102D01*
X152965000Y-101648061D01*
X152965000Y-101851939D01*
X153004774Y-102051898D01*
X153082795Y-102240256D01*
X153196063Y-102409774D01*
X153340226Y-102553937D01*
X153509744Y-102667205D01*
X153698102Y-102745226D01*
X153898061Y-102785000D01*
X154101939Y-102785000D01*
X154301898Y-102745226D01*
X154490256Y-102667205D01*
X154659774Y-102553937D01*
X154803937Y-102409774D01*
X154873000Y-102306414D01*
X154873000Y-103843586D01*
X154803937Y-103740226D01*
X154659774Y-103596063D01*
X154490256Y-103482795D01*
X154301898Y-103404774D01*
X154101939Y-103365000D01*
X153898061Y-103365000D01*
X153698102Y-103404774D01*
X153509744Y-103482795D01*
X153340226Y-103596063D01*
X153196063Y-103740226D01*
X153082795Y-103909744D01*
X153004774Y-104098102D01*
X152965000Y-104298061D01*
X152965000Y-104501939D01*
X153004774Y-104701898D01*
X153082795Y-104890256D01*
X153196063Y-105059774D01*
X153340226Y-105203937D01*
X153509744Y-105317205D01*
X153698102Y-105395226D01*
X153722103Y-105400000D01*
X153698102Y-105404774D01*
X153509744Y-105482795D01*
X153340226Y-105596063D01*
X153196063Y-105740226D01*
X153082795Y-105909744D01*
X153004774Y-106098102D01*
X152965000Y-106298061D01*
X152965000Y-106501939D01*
X153004774Y-106701898D01*
X153082795Y-106890256D01*
X153196063Y-107059774D01*
X153340226Y-107203937D01*
X153509744Y-107317205D01*
X153698102Y-107395226D01*
X153898061Y-107435000D01*
X153981522Y-107435000D01*
X154004774Y-107551898D01*
X154082795Y-107740256D01*
X154172828Y-107875000D01*
X154082795Y-108009744D01*
X154004774Y-108198102D01*
X153965000Y-108398061D01*
X153965000Y-108601939D01*
X154004774Y-108801898D01*
X154082795Y-108990256D01*
X154196063Y-109159774D01*
X154340226Y-109303937D01*
X154509744Y-109417205D01*
X154698102Y-109495226D01*
X154873000Y-109530015D01*
X154873000Y-122572728D01*
X154797205Y-122389744D01*
X154683937Y-122220226D01*
X154539774Y-122076063D01*
X154370256Y-121962795D01*
X154181898Y-121884774D01*
X153981939Y-121845000D01*
X153778061Y-121845000D01*
X153578102Y-121884774D01*
X153389744Y-121962795D01*
X153220226Y-122076063D01*
X153076063Y-122220226D01*
X152962795Y-122389744D01*
X152884774Y-122578102D01*
X152845000Y-122778061D01*
X152845000Y-122981939D01*
X152884774Y-123181898D01*
X152962795Y-123370256D01*
X153076063Y-123539774D01*
X153220226Y-123683937D01*
X153389744Y-123797205D01*
X153578102Y-123875226D01*
X153778061Y-123915000D01*
X153981939Y-123915000D01*
X154181898Y-123875226D01*
X154370256Y-123797205D01*
X154539774Y-123683937D01*
X154683937Y-123539774D01*
X154797205Y-123370256D01*
X154873000Y-123187272D01*
X154873000Y-144873000D01*
X152556414Y-144873000D01*
X152659774Y-144803937D01*
X152803937Y-144659774D01*
X152917205Y-144490256D01*
X152995226Y-144301898D01*
X153035000Y-144101939D01*
X153035000Y-143898061D01*
X152995226Y-143698102D01*
X152917205Y-143509744D01*
X152803937Y-143340226D01*
X152659774Y-143196063D01*
X152490256Y-143082795D01*
X152301898Y-143004774D01*
X152277897Y-143000000D01*
X152301898Y-142995226D01*
X152490256Y-142917205D01*
X152659774Y-142803937D01*
X152803937Y-142659774D01*
X152917205Y-142490256D01*
X152995226Y-142301898D01*
X153035000Y-142101939D01*
X153035000Y-141898061D01*
X152995226Y-141698102D01*
X152917205Y-141509744D01*
X152803937Y-141340226D01*
X152659774Y-141196063D01*
X152490256Y-141082795D01*
X152301898Y-141004774D01*
X152101939Y-140965000D01*
X151898061Y-140965000D01*
X151698102Y-141004774D01*
X151509744Y-141082795D01*
X151340226Y-141196063D01*
X151196063Y-141340226D01*
X151082795Y-141509744D01*
X151004774Y-141698102D01*
X151000000Y-141722103D01*
X150995226Y-141698102D01*
X150917205Y-141509744D01*
X150803937Y-141340226D01*
X150659774Y-141196063D01*
X150490256Y-141082795D01*
X150301898Y-141004774D01*
X150101939Y-140965000D01*
X149898061Y-140965000D01*
X149698102Y-141004774D01*
X149509744Y-141082795D01*
X149340226Y-141196063D01*
X149196063Y-141340226D01*
X149082795Y-141509744D01*
X149004774Y-141698102D01*
X149000000Y-141722103D01*
X148995226Y-141698102D01*
X148917205Y-141509744D01*
X148803937Y-141340226D01*
X148659774Y-141196063D01*
X148490256Y-141082795D01*
X148301898Y-141004774D01*
X148101939Y-140965000D01*
X147898061Y-140965000D01*
X147698102Y-141004774D01*
X147509744Y-141082795D01*
X147340226Y-141196063D01*
X147196063Y-141340226D01*
X147082795Y-141509744D01*
X147004774Y-141698102D01*
X147000000Y-141722103D01*
X146995226Y-141698102D01*
X146917205Y-141509744D01*
X146803937Y-141340226D01*
X146659774Y-141196063D01*
X146490256Y-141082795D01*
X146301898Y-141004774D01*
X146101939Y-140965000D01*
X145898061Y-140965000D01*
X145698102Y-141004774D01*
X145509744Y-141082795D01*
X145340226Y-141196063D01*
X145196063Y-141340226D01*
X145082795Y-141509744D01*
X145004774Y-141698102D01*
X144965000Y-141898061D01*
X144965000Y-142101939D01*
X145004774Y-142301898D01*
X145082795Y-142490256D01*
X145196063Y-142659774D01*
X145340226Y-142803937D01*
X145509744Y-142917205D01*
X145698102Y-142995226D01*
X145722103Y-143000000D01*
X145698102Y-143004774D01*
X145509744Y-143082795D01*
X145340226Y-143196063D01*
X145196063Y-143340226D01*
X145082795Y-143509744D01*
X145004774Y-143698102D01*
X144965000Y-143898061D01*
X144965000Y-144101939D01*
X145004774Y-144301898D01*
X145082795Y-144490256D01*
X145196063Y-144659774D01*
X145340226Y-144803937D01*
X145443586Y-144873000D01*
X118127000Y-144873000D01*
X118127000Y-140898061D01*
X134965000Y-140898061D01*
X134965000Y-141101939D01*
X135004774Y-141301898D01*
X135082795Y-141490256D01*
X135196063Y-141659774D01*
X135340226Y-141803937D01*
X135509744Y-141917205D01*
X135698102Y-141995226D01*
X135722103Y-142000000D01*
X135698102Y-142004774D01*
X135509744Y-142082795D01*
X135340226Y-142196063D01*
X135196063Y-142340226D01*
X135082795Y-142509744D01*
X135004774Y-142698102D01*
X134965000Y-142898061D01*
X134965000Y-143101939D01*
X135004774Y-143301898D01*
X135082795Y-143490256D01*
X135196063Y-143659774D01*
X135340226Y-143803937D01*
X135509744Y-143917205D01*
X135698102Y-143995226D01*
X135898061Y-144035000D01*
X136101939Y-144035000D01*
X136301898Y-143995226D01*
X136490256Y-143917205D01*
X136659774Y-143803937D01*
X136803937Y-143659774D01*
X136917205Y-143490256D01*
X136995226Y-143301898D01*
X137000000Y-143277897D01*
X137004774Y-143301898D01*
X137082795Y-143490256D01*
X137196063Y-143659774D01*
X137340226Y-143803937D01*
X137509744Y-143917205D01*
X137698102Y-143995226D01*
X137898061Y-144035000D01*
X138101939Y-144035000D01*
X138301898Y-143995226D01*
X138490256Y-143917205D01*
X138659774Y-143803937D01*
X138803937Y-143659774D01*
X138917205Y-143490256D01*
X138995226Y-143301898D01*
X139000000Y-143277897D01*
X139004774Y-143301898D01*
X139082795Y-143490256D01*
X139196063Y-143659774D01*
X139340226Y-143803937D01*
X139509744Y-143917205D01*
X139698102Y-143995226D01*
X139898061Y-144035000D01*
X140101939Y-144035000D01*
X140301898Y-143995226D01*
X140490256Y-143917205D01*
X140659774Y-143803937D01*
X140803937Y-143659774D01*
X140917205Y-143490256D01*
X140995226Y-143301898D01*
X141000000Y-143277897D01*
X141004774Y-143301898D01*
X141082795Y-143490256D01*
X141196063Y-143659774D01*
X141340226Y-143803937D01*
X141509744Y-143917205D01*
X141698102Y-143995226D01*
X141898061Y-144035000D01*
X142101939Y-144035000D01*
X142301898Y-143995226D01*
X142490256Y-143917205D01*
X142659774Y-143803937D01*
X142803937Y-143659774D01*
X142917205Y-143490256D01*
X142995226Y-143301898D01*
X143035000Y-143101939D01*
X143035000Y-142898061D01*
X142995226Y-142698102D01*
X142917205Y-142509744D01*
X142803937Y-142340226D01*
X142659774Y-142196063D01*
X142490256Y-142082795D01*
X142301898Y-142004774D01*
X142277897Y-142000000D01*
X142301898Y-141995226D01*
X142490256Y-141917205D01*
X142659774Y-141803937D01*
X142803937Y-141659774D01*
X142917205Y-141490256D01*
X142995226Y-141301898D01*
X143035000Y-141101939D01*
X143035000Y-140898061D01*
X142995226Y-140698102D01*
X142917205Y-140509744D01*
X142803937Y-140340226D01*
X142659774Y-140196063D01*
X142490256Y-140082795D01*
X142301898Y-140004774D01*
X142101939Y-139965000D01*
X141898061Y-139965000D01*
X141698102Y-140004774D01*
X141509744Y-140082795D01*
X141340226Y-140196063D01*
X141196063Y-140340226D01*
X141082795Y-140509744D01*
X141004774Y-140698102D01*
X141000000Y-140722103D01*
X140995226Y-140698102D01*
X140917205Y-140509744D01*
X140803937Y-140340226D01*
X140659774Y-140196063D01*
X140490256Y-140082795D01*
X140301898Y-140004774D01*
X140101939Y-139965000D01*
X139898061Y-139965000D01*
X139698102Y-140004774D01*
X139509744Y-140082795D01*
X139340226Y-140196063D01*
X139196063Y-140340226D01*
X139082795Y-140509744D01*
X139004774Y-140698102D01*
X139000000Y-140722103D01*
X138995226Y-140698102D01*
X138917205Y-140509744D01*
X138803937Y-140340226D01*
X138659774Y-140196063D01*
X138490256Y-140082795D01*
X138301898Y-140004774D01*
X138101939Y-139965000D01*
X137898061Y-139965000D01*
X137698102Y-140004774D01*
X137509744Y-140082795D01*
X137340226Y-140196063D01*
X137196063Y-140340226D01*
X137082795Y-140509744D01*
X137004774Y-140698102D01*
X137000000Y-140722103D01*
X136995226Y-140698102D01*
X136917205Y-140509744D01*
X136803937Y-140340226D01*
X136659774Y-140196063D01*
X136490256Y-140082795D01*
X136301898Y-140004774D01*
X136101939Y-139965000D01*
X135898061Y-139965000D01*
X135698102Y-140004774D01*
X135509744Y-140082795D01*
X135340226Y-140196063D01*
X135196063Y-140340226D01*
X135082795Y-140509744D01*
X135004774Y-140698102D01*
X134965000Y-140898061D01*
X118127000Y-140898061D01*
X118127000Y-136898061D01*
X122965000Y-136898061D01*
X122965000Y-137101939D01*
X123004774Y-137301898D01*
X123082795Y-137490256D01*
X123196063Y-137659774D01*
X123340226Y-137803937D01*
X123509744Y-137917205D01*
X123698102Y-137995226D01*
X123722103Y-138000000D01*
X123698102Y-138004774D01*
X123509744Y-138082795D01*
X123340226Y-138196063D01*
X123196063Y-138340226D01*
X123082795Y-138509744D01*
X123004774Y-138698102D01*
X122965000Y-138898061D01*
X122965000Y-139101939D01*
X123004774Y-139301898D01*
X123082795Y-139490256D01*
X123196063Y-139659774D01*
X123340226Y-139803937D01*
X123509744Y-139917205D01*
X123698102Y-139995226D01*
X123898061Y-140035000D01*
X124101939Y-140035000D01*
X124301898Y-139995226D01*
X124490256Y-139917205D01*
X124659774Y-139803937D01*
X124803937Y-139659774D01*
X124917205Y-139490256D01*
X124995226Y-139301898D01*
X125000000Y-139277897D01*
X125004774Y-139301898D01*
X125082795Y-139490256D01*
X125196063Y-139659774D01*
X125340226Y-139803937D01*
X125509744Y-139917205D01*
X125698102Y-139995226D01*
X125898061Y-140035000D01*
X126101939Y-140035000D01*
X126301898Y-139995226D01*
X126490256Y-139917205D01*
X126659774Y-139803937D01*
X126803937Y-139659774D01*
X126917205Y-139490256D01*
X126995226Y-139301898D01*
X127000000Y-139277897D01*
X127004774Y-139301898D01*
X127082795Y-139490256D01*
X127196063Y-139659774D01*
X127340226Y-139803937D01*
X127509744Y-139917205D01*
X127698102Y-139995226D01*
X127898061Y-140035000D01*
X128101939Y-140035000D01*
X128301898Y-139995226D01*
X128490256Y-139917205D01*
X128659774Y-139803937D01*
X128803937Y-139659774D01*
X128917205Y-139490256D01*
X128995226Y-139301898D01*
X129000000Y-139277897D01*
X129004774Y-139301898D01*
X129082795Y-139490256D01*
X129196063Y-139659774D01*
X129340226Y-139803937D01*
X129509744Y-139917205D01*
X129698102Y-139995226D01*
X129898061Y-140035000D01*
X130101939Y-140035000D01*
X130301898Y-139995226D01*
X130490256Y-139917205D01*
X130659774Y-139803937D01*
X130803937Y-139659774D01*
X130917205Y-139490256D01*
X130995226Y-139301898D01*
X131000000Y-139277897D01*
X131004774Y-139301898D01*
X131082795Y-139490256D01*
X131196063Y-139659774D01*
X131340226Y-139803937D01*
X131509744Y-139917205D01*
X131698102Y-139995226D01*
X131898061Y-140035000D01*
X132101939Y-140035000D01*
X132301898Y-139995226D01*
X132490256Y-139917205D01*
X132659774Y-139803937D01*
X132803937Y-139659774D01*
X132917205Y-139490256D01*
X132995226Y-139301898D01*
X133035000Y-139101939D01*
X133035000Y-138898061D01*
X132995226Y-138698102D01*
X132917205Y-138509744D01*
X132803937Y-138340226D01*
X132659774Y-138196063D01*
X132490256Y-138082795D01*
X132301898Y-138004774D01*
X132277897Y-138000000D01*
X132301898Y-137995226D01*
X132490256Y-137917205D01*
X132659774Y-137803937D01*
X132803937Y-137659774D01*
X132917205Y-137490256D01*
X132995226Y-137301898D01*
X133035000Y-137101939D01*
X133035000Y-136898061D01*
X132995226Y-136698102D01*
X132917205Y-136509744D01*
X132803937Y-136340226D01*
X132659774Y-136196063D01*
X132490256Y-136082795D01*
X132301898Y-136004774D01*
X132101939Y-135965000D01*
X131898061Y-135965000D01*
X131698102Y-136004774D01*
X131509744Y-136082795D01*
X131340226Y-136196063D01*
X131196063Y-136340226D01*
X131082795Y-136509744D01*
X131004774Y-136698102D01*
X131000000Y-136722103D01*
X130995226Y-136698102D01*
X130917205Y-136509744D01*
X130803937Y-136340226D01*
X130659774Y-136196063D01*
X130490256Y-136082795D01*
X130301898Y-136004774D01*
X130101939Y-135965000D01*
X129898061Y-135965000D01*
X129698102Y-136004774D01*
X129509744Y-136082795D01*
X129340226Y-136196063D01*
X129196063Y-136340226D01*
X129082795Y-136509744D01*
X129004774Y-136698102D01*
X129000000Y-136722103D01*
X128995226Y-136698102D01*
X128917205Y-136509744D01*
X128803937Y-136340226D01*
X128659774Y-136196063D01*
X128490256Y-136082795D01*
X128301898Y-136004774D01*
X128101939Y-135965000D01*
X127898061Y-135965000D01*
X127698102Y-136004774D01*
X127509744Y-136082795D01*
X127340226Y-136196063D01*
X127196063Y-136340226D01*
X127082795Y-136509744D01*
X127004774Y-136698102D01*
X127000000Y-136722103D01*
X126995226Y-136698102D01*
X126917205Y-136509744D01*
X126803937Y-136340226D01*
X126659774Y-136196063D01*
X126490256Y-136082795D01*
X126301898Y-136004774D01*
X126101939Y-135965000D01*
X125898061Y-135965000D01*
X125698102Y-136004774D01*
X125509744Y-136082795D01*
X125340226Y-136196063D01*
X125196063Y-136340226D01*
X125082795Y-136509744D01*
X125004774Y-136698102D01*
X125000000Y-136722103D01*
X124995226Y-136698102D01*
X124917205Y-136509744D01*
X124803937Y-136340226D01*
X124659774Y-136196063D01*
X124490256Y-136082795D01*
X124301898Y-136004774D01*
X124101939Y-135965000D01*
X123898061Y-135965000D01*
X123698102Y-136004774D01*
X123509744Y-136082795D01*
X123340226Y-136196063D01*
X123196063Y-136340226D01*
X123082795Y-136509744D01*
X123004774Y-136698102D01*
X122965000Y-136898061D01*
X118127000Y-136898061D01*
X118127000Y-131300000D01*
X127061928Y-131300000D01*
X127074188Y-131424482D01*
X127110498Y-131544180D01*
X127169463Y-131654494D01*
X127248815Y-131751185D01*
X127345506Y-131830537D01*
X127359546Y-131838042D01*
X127256772Y-131991853D01*
X127129754Y-132298504D01*
X127065000Y-132624042D01*
X127065000Y-132955958D01*
X127129754Y-133281496D01*
X127256772Y-133588147D01*
X127441175Y-133864125D01*
X127675875Y-134098825D01*
X127951853Y-134283228D01*
X128258504Y-134410246D01*
X128584042Y-134475000D01*
X128915958Y-134475000D01*
X129241496Y-134410246D01*
X129548147Y-134283228D01*
X129824125Y-134098825D01*
X130058825Y-133864125D01*
X130243228Y-133588147D01*
X130370246Y-133281496D01*
X130435000Y-132955958D01*
X130435000Y-132624042D01*
X130370246Y-132298504D01*
X130243228Y-131991853D01*
X130140454Y-131838042D01*
X130154494Y-131830537D01*
X130251185Y-131751185D01*
X130330537Y-131654494D01*
X130389502Y-131544180D01*
X130425812Y-131424482D01*
X130438072Y-131300000D01*
X130435000Y-130535750D01*
X130276250Y-130377000D01*
X128877000Y-130377000D01*
X128877000Y-130397000D01*
X128623000Y-130397000D01*
X128623000Y-130377000D01*
X127223750Y-130377000D01*
X127065000Y-130535750D01*
X127061928Y-131300000D01*
X118127000Y-131300000D01*
X118127000Y-129200000D01*
X127061928Y-129200000D01*
X127065000Y-129964250D01*
X127223750Y-130123000D01*
X128623000Y-130123000D01*
X128623000Y-128723750D01*
X128877000Y-128723750D01*
X128877000Y-130123000D01*
X130276250Y-130123000D01*
X130435000Y-129964250D01*
X130438072Y-129200000D01*
X130425812Y-129075518D01*
X130389502Y-128955820D01*
X130330537Y-128845506D01*
X130251185Y-128748815D01*
X130154494Y-128669463D01*
X130044180Y-128610498D01*
X129924482Y-128574188D01*
X129800000Y-128561928D01*
X129035750Y-128565000D01*
X128877000Y-128723750D01*
X128623000Y-128723750D01*
X128464250Y-128565000D01*
X127700000Y-128561928D01*
X127575518Y-128574188D01*
X127455820Y-128610498D01*
X127345506Y-128669463D01*
X127248815Y-128748815D01*
X127169463Y-128845506D01*
X127110498Y-128955820D01*
X127074188Y-129075518D01*
X127061928Y-129200000D01*
X118127000Y-129200000D01*
X118127000Y-122556414D01*
X118196063Y-122659774D01*
X118340226Y-122803937D01*
X118509744Y-122917205D01*
X118698102Y-122995226D01*
X118898061Y-123035000D01*
X119101939Y-123035000D01*
X119301898Y-122995226D01*
X119490256Y-122917205D01*
X119518907Y-122898061D01*
X146965000Y-122898061D01*
X146965000Y-123101939D01*
X147004774Y-123301898D01*
X147082795Y-123490256D01*
X147196063Y-123659774D01*
X147340226Y-123803937D01*
X147509744Y-123917205D01*
X147698102Y-123995226D01*
X147898061Y-124035000D01*
X148101939Y-124035000D01*
X148301898Y-123995226D01*
X148490256Y-123917205D01*
X148659774Y-123803937D01*
X148803937Y-123659774D01*
X148917205Y-123490256D01*
X148995226Y-123301898D01*
X149035000Y-123101939D01*
X149035000Y-122898061D01*
X148995226Y-122698102D01*
X148917205Y-122509744D01*
X148803937Y-122340226D01*
X148659774Y-122196063D01*
X148490256Y-122082795D01*
X148301898Y-122004774D01*
X148101939Y-121965000D01*
X147898061Y-121965000D01*
X147698102Y-122004774D01*
X147509744Y-122082795D01*
X147340226Y-122196063D01*
X147196063Y-122340226D01*
X147082795Y-122509744D01*
X147004774Y-122698102D01*
X146965000Y-122898061D01*
X119518907Y-122898061D01*
X119659774Y-122803937D01*
X119803937Y-122659774D01*
X119917205Y-122490256D01*
X119995226Y-122301898D01*
X120035000Y-122101939D01*
X120035000Y-121898061D01*
X119995226Y-121698102D01*
X119917205Y-121509744D01*
X119803937Y-121340226D01*
X119659774Y-121196063D01*
X119490256Y-121082795D01*
X119301898Y-121004774D01*
X119277897Y-121000000D01*
X119301898Y-120995226D01*
X119490256Y-120917205D01*
X119659774Y-120803937D01*
X119803937Y-120659774D01*
X119917205Y-120490256D01*
X119995226Y-120301898D01*
X120035000Y-120101939D01*
X120035000Y-119898061D01*
X119995226Y-119698102D01*
X119917205Y-119509744D01*
X119803937Y-119340226D01*
X119659774Y-119196063D01*
X119490256Y-119082795D01*
X119301898Y-119004774D01*
X119277897Y-119000000D01*
X119301898Y-118995226D01*
X119490256Y-118917205D01*
X119659774Y-118803937D01*
X119803937Y-118659774D01*
X119917205Y-118490256D01*
X119995226Y-118301898D01*
X120035000Y-118101939D01*
X120035000Y-117898061D01*
X119995226Y-117698102D01*
X119917205Y-117509744D01*
X119803937Y-117340226D01*
X119659774Y-117196063D01*
X119490256Y-117082795D01*
X119301898Y-117004774D01*
X119277897Y-117000000D01*
X119301898Y-116995226D01*
X119490256Y-116917205D01*
X119659774Y-116803937D01*
X119803937Y-116659774D01*
X119917205Y-116490256D01*
X119995226Y-116301898D01*
X120035000Y-116101939D01*
X120035000Y-115898061D01*
X119995226Y-115698102D01*
X119917205Y-115509744D01*
X119803937Y-115340226D01*
X119659774Y-115196063D01*
X119490256Y-115082795D01*
X119301898Y-115004774D01*
X119277897Y-115000000D01*
X119301898Y-114995226D01*
X119490256Y-114917205D01*
X119659774Y-114803937D01*
X119803937Y-114659774D01*
X119917205Y-114490256D01*
X119995226Y-114301898D01*
X120035000Y-114101939D01*
X120035000Y-113898061D01*
X119995226Y-113698102D01*
X119917205Y-113509744D01*
X119803937Y-113340226D01*
X119659774Y-113196063D01*
X119490256Y-113082795D01*
X119301898Y-113004774D01*
X119277897Y-113000000D01*
X119301898Y-112995226D01*
X119490256Y-112917205D01*
X119659774Y-112803937D01*
X119803937Y-112659774D01*
X119917205Y-112490256D01*
X119995226Y-112301898D01*
X120035000Y-112101939D01*
X120035000Y-111898061D01*
X119995226Y-111698102D01*
X119917205Y-111509744D01*
X119803937Y-111340226D01*
X119659774Y-111196063D01*
X119490256Y-111082795D01*
X119301898Y-111004774D01*
X119277897Y-111000000D01*
X119301898Y-110995226D01*
X119490256Y-110917205D01*
X119659774Y-110803937D01*
X119803937Y-110659774D01*
X119917205Y-110490256D01*
X119995226Y-110301898D01*
X120035000Y-110101939D01*
X120035000Y-109898061D01*
X119995226Y-109698102D01*
X119917205Y-109509744D01*
X119803937Y-109340226D01*
X119659774Y-109196063D01*
X119490256Y-109082795D01*
X119301898Y-109004774D01*
X119277897Y-109000000D01*
X119301898Y-108995226D01*
X119490256Y-108917205D01*
X119659774Y-108803937D01*
X119803937Y-108659774D01*
X119917205Y-108490256D01*
X119995226Y-108301898D01*
X120035000Y-108101939D01*
X120035000Y-107898061D01*
X119995226Y-107698102D01*
X119917205Y-107509744D01*
X119803937Y-107340226D01*
X119659774Y-107196063D01*
X119490256Y-107082795D01*
X119301898Y-107004774D01*
X119277897Y-107000000D01*
X119301898Y-106995226D01*
X119490256Y-106917205D01*
X119659774Y-106803937D01*
X119803937Y-106659774D01*
X119917205Y-106490256D01*
X119995226Y-106301898D01*
X120035000Y-106101939D01*
X120035000Y-105898061D01*
X119995226Y-105698102D01*
X119917205Y-105509744D01*
X119803937Y-105340226D01*
X119659774Y-105196063D01*
X119490256Y-105082795D01*
X119301898Y-105004774D01*
X119101939Y-104965000D01*
X118898061Y-104965000D01*
X118698102Y-105004774D01*
X118509744Y-105082795D01*
X118340226Y-105196063D01*
X118196063Y-105340226D01*
X118127000Y-105443586D01*
X118127000Y-104950000D01*
X121411928Y-104950000D01*
X121411928Y-106650000D01*
X121424188Y-106774482D01*
X121460498Y-106894180D01*
X121519463Y-107004494D01*
X121598815Y-107101185D01*
X121695506Y-107180537D01*
X121805820Y-107239502D01*
X121878380Y-107261513D01*
X121746525Y-107393368D01*
X121584010Y-107636589D01*
X121472068Y-107906842D01*
X121415000Y-108193740D01*
X121415000Y-108486260D01*
X121472068Y-108773158D01*
X121584010Y-109043411D01*
X121746525Y-109286632D01*
X121953368Y-109493475D01*
X122127760Y-109610000D01*
X121953368Y-109726525D01*
X121746525Y-109933368D01*
X121584010Y-110176589D01*
X121472068Y-110446842D01*
X121415000Y-110733740D01*
X121415000Y-111026260D01*
X121472068Y-111313158D01*
X121584010Y-111583411D01*
X121746525Y-111826632D01*
X121953368Y-112033475D01*
X122127760Y-112150000D01*
X121953368Y-112266525D01*
X121746525Y-112473368D01*
X121584010Y-112716589D01*
X121472068Y-112986842D01*
X121415000Y-113273740D01*
X121415000Y-113566260D01*
X121472068Y-113853158D01*
X121584010Y-114123411D01*
X121746525Y-114366632D01*
X121953368Y-114573475D01*
X122127760Y-114690000D01*
X121953368Y-114806525D01*
X121746525Y-115013368D01*
X121584010Y-115256589D01*
X121472068Y-115526842D01*
X121415000Y-115813740D01*
X121415000Y-116106260D01*
X121472068Y-116393158D01*
X121584010Y-116663411D01*
X121746525Y-116906632D01*
X121953368Y-117113475D01*
X122127760Y-117230000D01*
X121953368Y-117346525D01*
X121746525Y-117553368D01*
X121584010Y-117796589D01*
X121472068Y-118066842D01*
X121415000Y-118353740D01*
X121415000Y-118646260D01*
X121472068Y-118933158D01*
X121584010Y-119203411D01*
X121746525Y-119446632D01*
X121953368Y-119653475D01*
X122127760Y-119770000D01*
X121953368Y-119886525D01*
X121746525Y-120093368D01*
X121584010Y-120336589D01*
X121472068Y-120606842D01*
X121415000Y-120893740D01*
X121415000Y-121186260D01*
X121472068Y-121473158D01*
X121584010Y-121743411D01*
X121746525Y-121986632D01*
X121953368Y-122193475D01*
X122196589Y-122355990D01*
X122466842Y-122467932D01*
X122753740Y-122525000D01*
X123046260Y-122525000D01*
X123333158Y-122467932D01*
X123603411Y-122355990D01*
X123846632Y-122193475D01*
X124053475Y-121986632D01*
X124170000Y-121812240D01*
X124286525Y-121986632D01*
X124493368Y-122193475D01*
X124736589Y-122355990D01*
X125006842Y-122467932D01*
X125293740Y-122525000D01*
X125586260Y-122525000D01*
X125873158Y-122467932D01*
X126143411Y-122355990D01*
X126386632Y-122193475D01*
X126593475Y-121986632D01*
X126755990Y-121743411D01*
X126867932Y-121473158D01*
X126925000Y-121186260D01*
X126925000Y-120893740D01*
X126867932Y-120606842D01*
X126755990Y-120336589D01*
X126593475Y-120093368D01*
X126386632Y-119886525D01*
X126212240Y-119770000D01*
X126386632Y-119653475D01*
X126593475Y-119446632D01*
X126755990Y-119203411D01*
X126867932Y-118933158D01*
X126925000Y-118646260D01*
X126925000Y-118353740D01*
X126867932Y-118066842D01*
X126755990Y-117796589D01*
X126593475Y-117553368D01*
X126386632Y-117346525D01*
X126212240Y-117230000D01*
X126386632Y-117113475D01*
X126593475Y-116906632D01*
X126755990Y-116663411D01*
X126867932Y-116393158D01*
X126925000Y-116106260D01*
X126925000Y-115813740D01*
X126867932Y-115526842D01*
X126755990Y-115256589D01*
X126593475Y-115013368D01*
X126386632Y-114806525D01*
X126212240Y-114690000D01*
X126386632Y-114573475D01*
X126593475Y-114366632D01*
X126755990Y-114123411D01*
X126849332Y-113898061D01*
X136965000Y-113898061D01*
X136965000Y-114101939D01*
X137004774Y-114301898D01*
X137082795Y-114490256D01*
X137196063Y-114659774D01*
X137340226Y-114803937D01*
X137509744Y-114917205D01*
X137698102Y-114995226D01*
X137722103Y-115000000D01*
X137698102Y-115004774D01*
X137509744Y-115082795D01*
X137340226Y-115196063D01*
X137196063Y-115340226D01*
X137082795Y-115509744D01*
X137004774Y-115698102D01*
X136965000Y-115898061D01*
X136965000Y-116101939D01*
X137004774Y-116301898D01*
X137082795Y-116490256D01*
X137196063Y-116659774D01*
X137340226Y-116803937D01*
X137509744Y-116917205D01*
X137698102Y-116995226D01*
X137898061Y-117035000D01*
X138101939Y-117035000D01*
X138301898Y-116995226D01*
X138490256Y-116917205D01*
X138659774Y-116803937D01*
X138803937Y-116659774D01*
X138917205Y-116490256D01*
X138995226Y-116301898D01*
X139000000Y-116277897D01*
X139004774Y-116301898D01*
X139082795Y-116490256D01*
X139196063Y-116659774D01*
X139340226Y-116803937D01*
X139509744Y-116917205D01*
X139698102Y-116995226D01*
X139898061Y-117035000D01*
X140101939Y-117035000D01*
X140301898Y-116995226D01*
X140490256Y-116917205D01*
X140659774Y-116803937D01*
X140803937Y-116659774D01*
X140917205Y-116490256D01*
X140995226Y-116301898D01*
X141000000Y-116277897D01*
X141004774Y-116301898D01*
X141082795Y-116490256D01*
X141196063Y-116659774D01*
X141340226Y-116803937D01*
X141509744Y-116917205D01*
X141698102Y-116995226D01*
X141898061Y-117035000D01*
X142101939Y-117035000D01*
X142301898Y-116995226D01*
X142490256Y-116917205D01*
X142659774Y-116803937D01*
X142803937Y-116659774D01*
X142917205Y-116490256D01*
X142995226Y-116301898D01*
X143000000Y-116277897D01*
X143004774Y-116301898D01*
X143082795Y-116490256D01*
X143196063Y-116659774D01*
X143340226Y-116803937D01*
X143509744Y-116917205D01*
X143698102Y-116995226D01*
X143898061Y-117035000D01*
X144101939Y-117035000D01*
X144301898Y-116995226D01*
X144490256Y-116917205D01*
X144659774Y-116803937D01*
X144803937Y-116659774D01*
X144917205Y-116490256D01*
X144995226Y-116301898D01*
X145035000Y-116101939D01*
X145035000Y-115898061D01*
X144995226Y-115698102D01*
X144917205Y-115509744D01*
X144803937Y-115340226D01*
X144659774Y-115196063D01*
X144490256Y-115082795D01*
X144301898Y-115004774D01*
X144101939Y-114965000D01*
X143898061Y-114965000D01*
X143698102Y-115004774D01*
X143509744Y-115082795D01*
X143340226Y-115196063D01*
X143196063Y-115340226D01*
X143082795Y-115509744D01*
X143004774Y-115698102D01*
X143000000Y-115722103D01*
X142995226Y-115698102D01*
X142917205Y-115509744D01*
X142803937Y-115340226D01*
X142659774Y-115196063D01*
X142490256Y-115082795D01*
X142301898Y-115004774D01*
X142101939Y-114965000D01*
X141898061Y-114965000D01*
X141698102Y-115004774D01*
X141509744Y-115082795D01*
X141340226Y-115196063D01*
X141196063Y-115340226D01*
X141082795Y-115509744D01*
X141004774Y-115698102D01*
X141000000Y-115722103D01*
X140995226Y-115698102D01*
X140917205Y-115509744D01*
X140803937Y-115340226D01*
X140659774Y-115196063D01*
X140490256Y-115082795D01*
X140301898Y-115004774D01*
X140277897Y-115000000D01*
X140301898Y-114995226D01*
X140490256Y-114917205D01*
X140659774Y-114803937D01*
X140803937Y-114659774D01*
X140917205Y-114490256D01*
X140995226Y-114301898D01*
X141035000Y-114101939D01*
X141035000Y-113898061D01*
X140995226Y-113698102D01*
X140917205Y-113509744D01*
X140803937Y-113340226D01*
X140659774Y-113196063D01*
X140490256Y-113082795D01*
X140301898Y-113004774D01*
X140101939Y-112965000D01*
X139898061Y-112965000D01*
X139698102Y-113004774D01*
X139509744Y-113082795D01*
X139340226Y-113196063D01*
X139196063Y-113340226D01*
X139082795Y-113509744D01*
X139004774Y-113698102D01*
X139000000Y-113722103D01*
X138995226Y-113698102D01*
X138917205Y-113509744D01*
X138803937Y-113340226D01*
X138659774Y-113196063D01*
X138490256Y-113082795D01*
X138301898Y-113004774D01*
X138101939Y-112965000D01*
X137898061Y-112965000D01*
X137698102Y-113004774D01*
X137509744Y-113082795D01*
X137340226Y-113196063D01*
X137196063Y-113340226D01*
X137082795Y-113509744D01*
X137004774Y-113698102D01*
X136965000Y-113898061D01*
X126849332Y-113898061D01*
X126867932Y-113853158D01*
X126925000Y-113566260D01*
X126925000Y-113273740D01*
X126867932Y-112986842D01*
X126755990Y-112716589D01*
X126593475Y-112473368D01*
X126386632Y-112266525D01*
X126212240Y-112150000D01*
X126386632Y-112033475D01*
X126593475Y-111826632D01*
X126755990Y-111583411D01*
X126867932Y-111313158D01*
X126925000Y-111026260D01*
X126925000Y-110733740D01*
X126867932Y-110446842D01*
X126755990Y-110176589D01*
X126593475Y-109933368D01*
X126386632Y-109726525D01*
X126212240Y-109610000D01*
X126386632Y-109493475D01*
X126593475Y-109286632D01*
X126726156Y-109088060D01*
X127154999Y-109088060D01*
X127154999Y-109291938D01*
X127194773Y-109491897D01*
X127272794Y-109680255D01*
X127386062Y-109849773D01*
X127530225Y-109993936D01*
X127699743Y-110107204D01*
X127888101Y-110185225D01*
X128088060Y-110224999D01*
X128291938Y-110224999D01*
X128491897Y-110185225D01*
X128680255Y-110107204D01*
X128849773Y-109993936D01*
X128993936Y-109849773D01*
X129107204Y-109680255D01*
X129185225Y-109491897D01*
X129224999Y-109291938D01*
X129224999Y-109088060D01*
X129185225Y-108888101D01*
X129107204Y-108699743D01*
X128993936Y-108530225D01*
X128849773Y-108386062D01*
X128680255Y-108272794D01*
X128491897Y-108194773D01*
X128291938Y-108154999D01*
X128088060Y-108154999D01*
X127888101Y-108194773D01*
X127699743Y-108272794D01*
X127530225Y-108386062D01*
X127386062Y-108530225D01*
X127272794Y-108699743D01*
X127194773Y-108888101D01*
X127154999Y-109088060D01*
X126726156Y-109088060D01*
X126755990Y-109043411D01*
X126867932Y-108773158D01*
X126925000Y-108486260D01*
X126925000Y-108193740D01*
X126867932Y-107906842D01*
X126760742Y-107648061D01*
X128965000Y-107648061D01*
X128965000Y-107851939D01*
X129004774Y-108051898D01*
X129082795Y-108240256D01*
X129196063Y-108409774D01*
X129340226Y-108553937D01*
X129509744Y-108667205D01*
X129698102Y-108745226D01*
X129898061Y-108785000D01*
X130101939Y-108785000D01*
X130301898Y-108745226D01*
X130490256Y-108667205D01*
X130659774Y-108553937D01*
X130803937Y-108409774D01*
X130917205Y-108240256D01*
X130995226Y-108051898D01*
X131005934Y-107998061D01*
X135415000Y-107998061D01*
X135415000Y-108201939D01*
X135454774Y-108401898D01*
X135532795Y-108590256D01*
X135646063Y-108759774D01*
X135790226Y-108903937D01*
X135959744Y-109017205D01*
X136148102Y-109095226D01*
X136348061Y-109135000D01*
X136551939Y-109135000D01*
X136751898Y-109095226D01*
X136940256Y-109017205D01*
X137109774Y-108903937D01*
X137253937Y-108759774D01*
X137367205Y-108590256D01*
X137445226Y-108401898D01*
X137485000Y-108201939D01*
X137485000Y-107998061D01*
X137665000Y-107998061D01*
X137665000Y-108201939D01*
X137704774Y-108401898D01*
X137782795Y-108590256D01*
X137896063Y-108759774D01*
X138040226Y-108903937D01*
X138209744Y-109017205D01*
X138398102Y-109095226D01*
X138598061Y-109135000D01*
X138801939Y-109135000D01*
X139001898Y-109095226D01*
X139190256Y-109017205D01*
X139359774Y-108903937D01*
X139503937Y-108759774D01*
X139575000Y-108653420D01*
X139646063Y-108759774D01*
X139790226Y-108903937D01*
X139959744Y-109017205D01*
X140148102Y-109095226D01*
X140348061Y-109135000D01*
X140551939Y-109135000D01*
X140751898Y-109095226D01*
X140940256Y-109017205D01*
X141109774Y-108903937D01*
X141253937Y-108759774D01*
X141367205Y-108590256D01*
X141445226Y-108401898D01*
X141485000Y-108201939D01*
X141485000Y-107998061D01*
X141445226Y-107798102D01*
X141376864Y-107633061D01*
X148315001Y-107633061D01*
X148315001Y-107836939D01*
X148354775Y-108036898D01*
X148432796Y-108225256D01*
X148546064Y-108394774D01*
X148690227Y-108538937D01*
X148859745Y-108652205D01*
X149048103Y-108730226D01*
X149059533Y-108732499D01*
X149048103Y-108734773D01*
X148859745Y-108812794D01*
X148690227Y-108926062D01*
X148546064Y-109070225D01*
X148432796Y-109239743D01*
X148354775Y-109428101D01*
X148315001Y-109628060D01*
X148315001Y-109831938D01*
X148354775Y-110031897D01*
X148432796Y-110220255D01*
X148546064Y-110389773D01*
X148690227Y-110533936D01*
X148781614Y-110594999D01*
X148690227Y-110656062D01*
X148546064Y-110800225D01*
X148432796Y-110969743D01*
X148354775Y-111158101D01*
X148315001Y-111358060D01*
X148315001Y-111561938D01*
X148354775Y-111761897D01*
X148432796Y-111950255D01*
X148546064Y-112119773D01*
X148690227Y-112263936D01*
X148859745Y-112377204D01*
X149048103Y-112455225D01*
X149248062Y-112494999D01*
X149451940Y-112494999D01*
X149651899Y-112455225D01*
X149840257Y-112377204D01*
X149989064Y-112277774D01*
X149990227Y-112278937D01*
X150159745Y-112392205D01*
X150348103Y-112470226D01*
X150548062Y-112510000D01*
X150751940Y-112510000D01*
X150951899Y-112470226D01*
X151140257Y-112392205D01*
X151309775Y-112278937D01*
X151453938Y-112134774D01*
X151567206Y-111965256D01*
X151645227Y-111776898D01*
X151685001Y-111576939D01*
X151685001Y-111373061D01*
X151645227Y-111173102D01*
X151567206Y-110984744D01*
X151453938Y-110815226D01*
X151309775Y-110671063D01*
X151184713Y-110587500D01*
X151309775Y-110503936D01*
X151453938Y-110359773D01*
X151567206Y-110190255D01*
X151645227Y-110001897D01*
X151685001Y-109801938D01*
X151685001Y-109598060D01*
X151645227Y-109398101D01*
X151567206Y-109209743D01*
X151453938Y-109040225D01*
X151309775Y-108896062D01*
X151140257Y-108782794D01*
X150982623Y-108717499D01*
X151140257Y-108652205D01*
X151309775Y-108538937D01*
X151453938Y-108394774D01*
X151567206Y-108225256D01*
X151645227Y-108036898D01*
X151685001Y-107836939D01*
X151685001Y-107633061D01*
X151645227Y-107433102D01*
X151567206Y-107244744D01*
X151453938Y-107075226D01*
X151309775Y-106931063D01*
X151140257Y-106817795D01*
X150951899Y-106739774D01*
X150751940Y-106700000D01*
X150548062Y-106700000D01*
X150348103Y-106739774D01*
X150159745Y-106817795D01*
X150000001Y-106924532D01*
X149840257Y-106817795D01*
X149651899Y-106739774D01*
X149451940Y-106700000D01*
X149248062Y-106700000D01*
X149048103Y-106739774D01*
X148859745Y-106817795D01*
X148690227Y-106931063D01*
X148546064Y-107075226D01*
X148432796Y-107244744D01*
X148354775Y-107433102D01*
X148315001Y-107633061D01*
X141376864Y-107633061D01*
X141367205Y-107609744D01*
X141253937Y-107440226D01*
X141109774Y-107296063D01*
X140940256Y-107182795D01*
X140751898Y-107104774D01*
X140551939Y-107065000D01*
X140348061Y-107065000D01*
X140148102Y-107104774D01*
X139959744Y-107182795D01*
X139790226Y-107296063D01*
X139646063Y-107440226D01*
X139575000Y-107546580D01*
X139503937Y-107440226D01*
X139359774Y-107296063D01*
X139190256Y-107182795D01*
X139001898Y-107104774D01*
X138801939Y-107065000D01*
X138598061Y-107065000D01*
X138398102Y-107104774D01*
X138209744Y-107182795D01*
X138040226Y-107296063D01*
X137896063Y-107440226D01*
X137782795Y-107609744D01*
X137704774Y-107798102D01*
X137665000Y-107998061D01*
X137485000Y-107998061D01*
X137445226Y-107798102D01*
X137367205Y-107609744D01*
X137253937Y-107440226D01*
X137109774Y-107296063D01*
X136940256Y-107182795D01*
X136751898Y-107104774D01*
X136551939Y-107065000D01*
X136348061Y-107065000D01*
X136148102Y-107104774D01*
X135959744Y-107182795D01*
X135790226Y-107296063D01*
X135646063Y-107440226D01*
X135532795Y-107609744D01*
X135454774Y-107798102D01*
X135415000Y-107998061D01*
X131005934Y-107998061D01*
X131035000Y-107851939D01*
X131035000Y-107648061D01*
X130995226Y-107448102D01*
X130917205Y-107259744D01*
X130803937Y-107090226D01*
X130659774Y-106946063D01*
X130490256Y-106832795D01*
X130301898Y-106754774D01*
X130101939Y-106715000D01*
X129898061Y-106715000D01*
X129698102Y-106754774D01*
X129509744Y-106832795D01*
X129340226Y-106946063D01*
X129196063Y-107090226D01*
X129082795Y-107259744D01*
X129004774Y-107448102D01*
X128965000Y-107648061D01*
X126760742Y-107648061D01*
X126755990Y-107636589D01*
X126593475Y-107393368D01*
X126386632Y-107186525D01*
X126212240Y-107070000D01*
X126386632Y-106953475D01*
X126593475Y-106746632D01*
X126755990Y-106503411D01*
X126867932Y-106233158D01*
X126925000Y-105946260D01*
X126925000Y-105898061D01*
X143965000Y-105898061D01*
X143965000Y-106101939D01*
X144004774Y-106301898D01*
X144082795Y-106490256D01*
X144196063Y-106659774D01*
X144340226Y-106803937D01*
X144509744Y-106917205D01*
X144698102Y-106995226D01*
X144898061Y-107035000D01*
X145101939Y-107035000D01*
X145301898Y-106995226D01*
X145490256Y-106917205D01*
X145659774Y-106803937D01*
X145803937Y-106659774D01*
X145917205Y-106490256D01*
X145995226Y-106301898D01*
X146035000Y-106101939D01*
X146035000Y-105898061D01*
X145995226Y-105698102D01*
X145917205Y-105509744D01*
X145803937Y-105340226D01*
X145659774Y-105196063D01*
X145490256Y-105082795D01*
X145301898Y-105004774D01*
X145101939Y-104965000D01*
X144898061Y-104965000D01*
X144698102Y-105004774D01*
X144509744Y-105082795D01*
X144340226Y-105196063D01*
X144196063Y-105340226D01*
X144082795Y-105509744D01*
X144004774Y-105698102D01*
X143965000Y-105898061D01*
X126925000Y-105898061D01*
X126925000Y-105653740D01*
X126867932Y-105366842D01*
X126755990Y-105096589D01*
X126593475Y-104853368D01*
X126386632Y-104646525D01*
X126143411Y-104484010D01*
X125873158Y-104372068D01*
X125767349Y-104351021D01*
X138512040Y-104351021D01*
X138512040Y-104554899D01*
X138551814Y-104754858D01*
X138629835Y-104943216D01*
X138743103Y-105112734D01*
X138887266Y-105256897D01*
X139056784Y-105370165D01*
X139245142Y-105448186D01*
X139445101Y-105487960D01*
X139648979Y-105487960D01*
X139848938Y-105448186D01*
X140037296Y-105370165D01*
X140206814Y-105256897D01*
X140350977Y-105112734D01*
X140464245Y-104943216D01*
X140542266Y-104754858D01*
X140582040Y-104554899D01*
X140582040Y-104351021D01*
X140542266Y-104151062D01*
X140464245Y-103962704D01*
X140350977Y-103793186D01*
X140206814Y-103649023D01*
X140037296Y-103535755D01*
X139848938Y-103457734D01*
X139648979Y-103417960D01*
X139445101Y-103417960D01*
X139245142Y-103457734D01*
X139056784Y-103535755D01*
X138887266Y-103649023D01*
X138743103Y-103793186D01*
X138629835Y-103962704D01*
X138551814Y-104151062D01*
X138512040Y-104351021D01*
X125767349Y-104351021D01*
X125586260Y-104315000D01*
X125293740Y-104315000D01*
X125006842Y-104372068D01*
X124736589Y-104484010D01*
X124493368Y-104646525D01*
X124361513Y-104778380D01*
X124339502Y-104705820D01*
X124280537Y-104595506D01*
X124201185Y-104498815D01*
X124104494Y-104419463D01*
X123994180Y-104360498D01*
X123874482Y-104324188D01*
X123750000Y-104311928D01*
X122050000Y-104311928D01*
X121925518Y-104324188D01*
X121805820Y-104360498D01*
X121695506Y-104419463D01*
X121598815Y-104498815D01*
X121519463Y-104595506D01*
X121460498Y-104705820D01*
X121424188Y-104825518D01*
X121411928Y-104950000D01*
X118127000Y-104950000D01*
X118127000Y-103198061D01*
X144065000Y-103198061D01*
X144065000Y-103401939D01*
X144104774Y-103601898D01*
X144182795Y-103790256D01*
X144296063Y-103959774D01*
X144440226Y-104103937D01*
X144609744Y-104217205D01*
X144798102Y-104295226D01*
X144998061Y-104335000D01*
X145201939Y-104335000D01*
X145401898Y-104295226D01*
X145590256Y-104217205D01*
X145759774Y-104103937D01*
X145825650Y-104038061D01*
X148825000Y-104038061D01*
X148825000Y-104241939D01*
X148864774Y-104441898D01*
X148942795Y-104630256D01*
X149056063Y-104799774D01*
X149200226Y-104943937D01*
X149369744Y-105057205D01*
X149558102Y-105135226D01*
X149758061Y-105175000D01*
X149961939Y-105175000D01*
X150161898Y-105135226D01*
X150350256Y-105057205D01*
X150519774Y-104943937D01*
X150663937Y-104799774D01*
X150777205Y-104630256D01*
X150855226Y-104441898D01*
X150895000Y-104241939D01*
X150895000Y-104038061D01*
X150855226Y-103838102D01*
X150777205Y-103649744D01*
X150663937Y-103480226D01*
X150519774Y-103336063D01*
X150350256Y-103222795D01*
X150161898Y-103144774D01*
X149961939Y-103105000D01*
X149758061Y-103105000D01*
X149558102Y-103144774D01*
X149369744Y-103222795D01*
X149200226Y-103336063D01*
X149056063Y-103480226D01*
X148942795Y-103649744D01*
X148864774Y-103838102D01*
X148825000Y-104038061D01*
X145825650Y-104038061D01*
X145903937Y-103959774D01*
X146017205Y-103790256D01*
X146095226Y-103601898D01*
X146135000Y-103401939D01*
X146135000Y-103198061D01*
X146095226Y-102998102D01*
X146017205Y-102809744D01*
X145903937Y-102640226D01*
X145759774Y-102496063D01*
X145590256Y-102382795D01*
X145401898Y-102304774D01*
X145201939Y-102265000D01*
X144998061Y-102265000D01*
X144798102Y-102304774D01*
X144609744Y-102382795D01*
X144440226Y-102496063D01*
X144296063Y-102640226D01*
X144182795Y-102809744D01*
X144104774Y-102998102D01*
X144065000Y-103198061D01*
X118127000Y-103198061D01*
X118127000Y-102148061D01*
X147215000Y-102148061D01*
X147215000Y-102351939D01*
X147254774Y-102551898D01*
X147332795Y-102740256D01*
X147446063Y-102909774D01*
X147590226Y-103053937D01*
X147759744Y-103167205D01*
X147948102Y-103245226D01*
X148148061Y-103285000D01*
X148351939Y-103285000D01*
X148551898Y-103245226D01*
X148740256Y-103167205D01*
X148909774Y-103053937D01*
X149053937Y-102909774D01*
X149167205Y-102740256D01*
X149245226Y-102551898D01*
X149285000Y-102351939D01*
X149285000Y-102148061D01*
X149245226Y-101948102D01*
X149167205Y-101759744D01*
X149142695Y-101723061D01*
X150490000Y-101723061D01*
X150490000Y-101926939D01*
X150529774Y-102126898D01*
X150607795Y-102315256D01*
X150721063Y-102484774D01*
X150865226Y-102628937D01*
X151034744Y-102742205D01*
X151223102Y-102820226D01*
X151423061Y-102860000D01*
X151626939Y-102860000D01*
X151826898Y-102820226D01*
X152015256Y-102742205D01*
X152184774Y-102628937D01*
X152328937Y-102484774D01*
X152442205Y-102315256D01*
X152520226Y-102126898D01*
X152560000Y-101926939D01*
X152560000Y-101723061D01*
X152520226Y-101523102D01*
X152442205Y-101334744D01*
X152328937Y-101165226D01*
X152184774Y-101021063D01*
X152015256Y-100907795D01*
X151826898Y-100829774D01*
X151626939Y-100790000D01*
X151423061Y-100790000D01*
X151223102Y-100829774D01*
X151034744Y-100907795D01*
X150865226Y-101021063D01*
X150721063Y-101165226D01*
X150607795Y-101334744D01*
X150529774Y-101523102D01*
X150490000Y-101723061D01*
X149142695Y-101723061D01*
X149053937Y-101590226D01*
X148909774Y-101446063D01*
X148740256Y-101332795D01*
X148551898Y-101254774D01*
X148351939Y-101215000D01*
X148148061Y-101215000D01*
X147948102Y-101254774D01*
X147759744Y-101332795D01*
X147590226Y-101446063D01*
X147446063Y-101590226D01*
X147332795Y-101759744D01*
X147254774Y-101948102D01*
X147215000Y-102148061D01*
X118127000Y-102148061D01*
X118127000Y-100148061D01*
X128965000Y-100148061D01*
X128965000Y-100351939D01*
X129004774Y-100551898D01*
X129082795Y-100740256D01*
X129196063Y-100909774D01*
X129340226Y-101053937D01*
X129509744Y-101167205D01*
X129698102Y-101245226D01*
X129898061Y-101285000D01*
X130101939Y-101285000D01*
X130301898Y-101245226D01*
X130490256Y-101167205D01*
X130659774Y-101053937D01*
X130715650Y-100998061D01*
X136965000Y-100998061D01*
X136965000Y-101201939D01*
X137004774Y-101401898D01*
X137082795Y-101590256D01*
X137196063Y-101759774D01*
X137340226Y-101903937D01*
X137509744Y-102017205D01*
X137698102Y-102095226D01*
X137898061Y-102135000D01*
X138101939Y-102135000D01*
X138301898Y-102095226D01*
X138490256Y-102017205D01*
X138659774Y-101903937D01*
X138803937Y-101759774D01*
X138917205Y-101590256D01*
X138995226Y-101401898D01*
X139035000Y-101201939D01*
X139035000Y-100998061D01*
X138995226Y-100798102D01*
X138917205Y-100609744D01*
X138803937Y-100440226D01*
X138659774Y-100296063D01*
X138490256Y-100182795D01*
X138301898Y-100104774D01*
X138101939Y-100065000D01*
X137898061Y-100065000D01*
X137698102Y-100104774D01*
X137509744Y-100182795D01*
X137340226Y-100296063D01*
X137196063Y-100440226D01*
X137082795Y-100609744D01*
X137004774Y-100798102D01*
X136965000Y-100998061D01*
X130715650Y-100998061D01*
X130803937Y-100909774D01*
X130917205Y-100740256D01*
X130995226Y-100551898D01*
X131035000Y-100351939D01*
X131035000Y-100148061D01*
X130995226Y-99948102D01*
X130917205Y-99759744D01*
X130803937Y-99590226D01*
X130659774Y-99446063D01*
X130490256Y-99332795D01*
X130301898Y-99254774D01*
X130101939Y-99215000D01*
X129898061Y-99215000D01*
X129698102Y-99254774D01*
X129509744Y-99332795D01*
X129340226Y-99446063D01*
X129196063Y-99590226D01*
X129082795Y-99759744D01*
X129004774Y-99948102D01*
X128965000Y-100148061D01*
X118127000Y-100148061D01*
X118127000Y-98898061D01*
X124965000Y-98898061D01*
X124965000Y-99101939D01*
X125004774Y-99301898D01*
X125082795Y-99490256D01*
X125196063Y-99659774D01*
X125340226Y-99803937D01*
X125509744Y-99917205D01*
X125698102Y-99995226D01*
X125898061Y-100035000D01*
X126101939Y-100035000D01*
X126301898Y-99995226D01*
X126490256Y-99917205D01*
X126659774Y-99803937D01*
X126803937Y-99659774D01*
X126917205Y-99490256D01*
X126995226Y-99301898D01*
X127035000Y-99101939D01*
X127035000Y-98898061D01*
X126995226Y-98698102D01*
X126917205Y-98509744D01*
X126803937Y-98340226D01*
X126659774Y-98196063D01*
X126490256Y-98082795D01*
X126301898Y-98004774D01*
X126101939Y-97965000D01*
X125898061Y-97965000D01*
X125698102Y-98004774D01*
X125509744Y-98082795D01*
X125340226Y-98196063D01*
X125196063Y-98340226D01*
X125082795Y-98509744D01*
X125004774Y-98698102D01*
X124965000Y-98898061D01*
X118127000Y-98898061D01*
X118127000Y-97398061D01*
X135215000Y-97398061D01*
X135215000Y-97601939D01*
X135254774Y-97801898D01*
X135332795Y-97990256D01*
X135446063Y-98159774D01*
X135590226Y-98303937D01*
X135759744Y-98417205D01*
X135948102Y-98495226D01*
X136148061Y-98535000D01*
X136351939Y-98535000D01*
X136551898Y-98495226D01*
X136740256Y-98417205D01*
X136909774Y-98303937D01*
X137053937Y-98159774D01*
X137167205Y-97990256D01*
X137245226Y-97801898D01*
X137285000Y-97601939D01*
X137285000Y-97398061D01*
X137245226Y-97198102D01*
X137167205Y-97009744D01*
X137053937Y-96840226D01*
X136909774Y-96696063D01*
X136740256Y-96582795D01*
X136551898Y-96504774D01*
X136351939Y-96465000D01*
X136148061Y-96465000D01*
X135948102Y-96504774D01*
X135759744Y-96582795D01*
X135590226Y-96696063D01*
X135446063Y-96840226D01*
X135332795Y-97009744D01*
X135254774Y-97198102D01*
X135215000Y-97398061D01*
X118127000Y-97398061D01*
X118127000Y-90898061D01*
X130215000Y-90898061D01*
X130215000Y-91101939D01*
X130254774Y-91301898D01*
X130332795Y-91490256D01*
X130446063Y-91659774D01*
X130590226Y-91803937D01*
X130759744Y-91917205D01*
X130948102Y-91995226D01*
X131148061Y-92035000D01*
X131351939Y-92035000D01*
X131551898Y-91995226D01*
X131740256Y-91917205D01*
X131909774Y-91803937D01*
X132053937Y-91659774D01*
X132167205Y-91490256D01*
X132245226Y-91301898D01*
X132245989Y-91298061D01*
X135765000Y-91298061D01*
X135765000Y-91501939D01*
X135804774Y-91701898D01*
X135882795Y-91890256D01*
X135996063Y-92059774D01*
X136140226Y-92203937D01*
X136309744Y-92317205D01*
X136498102Y-92395226D01*
X136698061Y-92435000D01*
X136901939Y-92435000D01*
X137101898Y-92395226D01*
X137290256Y-92317205D01*
X137459774Y-92203937D01*
X137603937Y-92059774D01*
X137717205Y-91890256D01*
X137795226Y-91701898D01*
X137835000Y-91501939D01*
X137835000Y-91298061D01*
X137795226Y-91098102D01*
X137717205Y-90909744D01*
X137603937Y-90740226D01*
X137459774Y-90596063D01*
X137290256Y-90482795D01*
X137101898Y-90404774D01*
X136901939Y-90365000D01*
X136698061Y-90365000D01*
X136498102Y-90404774D01*
X136309744Y-90482795D01*
X136140226Y-90596063D01*
X135996063Y-90740226D01*
X135882795Y-90909744D01*
X135804774Y-91098102D01*
X135765000Y-91298061D01*
X132245989Y-91298061D01*
X132285000Y-91101939D01*
X132285000Y-90898061D01*
X132245226Y-90698102D01*
X132167205Y-90509744D01*
X132053937Y-90340226D01*
X131909774Y-90196063D01*
X131740256Y-90082795D01*
X131551898Y-90004774D01*
X131351939Y-89965000D01*
X131148061Y-89965000D01*
X130948102Y-90004774D01*
X130759744Y-90082795D01*
X130590226Y-90196063D01*
X130446063Y-90340226D01*
X130332795Y-90509744D01*
X130254774Y-90698102D01*
X130215000Y-90898061D01*
X118127000Y-90898061D01*
X118127000Y-86398061D01*
X137665000Y-86398061D01*
X137665000Y-86601939D01*
X137704774Y-86801898D01*
X137782795Y-86990256D01*
X137896063Y-87159774D01*
X138040226Y-87303937D01*
X138209744Y-87417205D01*
X138398102Y-87495226D01*
X138598061Y-87535000D01*
X138801939Y-87535000D01*
X139001898Y-87495226D01*
X139190256Y-87417205D01*
X139359774Y-87303937D01*
X139503937Y-87159774D01*
X139617205Y-86990256D01*
X139695226Y-86801898D01*
X139735000Y-86601939D01*
X139735000Y-86398061D01*
X139695226Y-86198102D01*
X139617205Y-86009744D01*
X139542582Y-85898061D01*
X142965000Y-85898061D01*
X142965000Y-86101939D01*
X143004774Y-86301898D01*
X143082795Y-86490256D01*
X143196063Y-86659774D01*
X143340226Y-86803937D01*
X143509744Y-86917205D01*
X143698102Y-86995226D01*
X143722103Y-87000000D01*
X143698102Y-87004774D01*
X143509744Y-87082795D01*
X143340226Y-87196063D01*
X143196063Y-87340226D01*
X143082795Y-87509744D01*
X143004774Y-87698102D01*
X142965000Y-87898061D01*
X142965000Y-88101939D01*
X143004774Y-88301898D01*
X143082795Y-88490256D01*
X143196063Y-88659774D01*
X143340226Y-88803937D01*
X143509744Y-88917205D01*
X143698102Y-88995226D01*
X143722103Y-89000000D01*
X143698102Y-89004774D01*
X143509744Y-89082795D01*
X143340226Y-89196063D01*
X143196063Y-89340226D01*
X143082795Y-89509744D01*
X143004774Y-89698102D01*
X142965000Y-89898061D01*
X142965000Y-90101939D01*
X143004774Y-90301898D01*
X143082795Y-90490256D01*
X143196063Y-90659774D01*
X143340226Y-90803937D01*
X143509744Y-90917205D01*
X143698102Y-90995226D01*
X143722103Y-91000000D01*
X143698102Y-91004774D01*
X143509744Y-91082795D01*
X143340226Y-91196063D01*
X143196063Y-91340226D01*
X143082795Y-91509744D01*
X143004774Y-91698102D01*
X142965000Y-91898061D01*
X142965000Y-92101939D01*
X143004774Y-92301898D01*
X143082795Y-92490256D01*
X143196063Y-92659774D01*
X143340226Y-92803937D01*
X143509744Y-92917205D01*
X143698102Y-92995226D01*
X143722103Y-93000000D01*
X143698102Y-93004774D01*
X143509744Y-93082795D01*
X143340226Y-93196063D01*
X143196063Y-93340226D01*
X143082795Y-93509744D01*
X143004774Y-93698102D01*
X142965000Y-93898061D01*
X142965000Y-94101939D01*
X143004774Y-94301898D01*
X143082795Y-94490256D01*
X143196063Y-94659774D01*
X143340226Y-94803937D01*
X143509744Y-94917205D01*
X143698102Y-94995226D01*
X143722103Y-95000000D01*
X143698102Y-95004774D01*
X143509744Y-95082795D01*
X143340226Y-95196063D01*
X143196063Y-95340226D01*
X143082795Y-95509744D01*
X143004774Y-95698102D01*
X142965000Y-95898061D01*
X142965000Y-96101939D01*
X143004774Y-96301898D01*
X143082795Y-96490256D01*
X143196063Y-96659774D01*
X143340226Y-96803937D01*
X143509744Y-96917205D01*
X143698102Y-96995226D01*
X143898061Y-97035000D01*
X144101939Y-97035000D01*
X144301898Y-96995226D01*
X144490256Y-96917205D01*
X144659774Y-96803937D01*
X144803937Y-96659774D01*
X144917205Y-96490256D01*
X144995226Y-96301898D01*
X145000000Y-96277897D01*
X145004774Y-96301898D01*
X145082795Y-96490256D01*
X145196063Y-96659774D01*
X145340226Y-96803937D01*
X145509744Y-96917205D01*
X145698102Y-96995226D01*
X145898061Y-97035000D01*
X146101939Y-97035000D01*
X146301898Y-96995226D01*
X146490256Y-96917205D01*
X146659774Y-96803937D01*
X146803937Y-96659774D01*
X146917205Y-96490256D01*
X146995226Y-96301898D01*
X147035000Y-96101939D01*
X147035000Y-95898061D01*
X147215000Y-95898061D01*
X147215000Y-96101939D01*
X147254774Y-96301898D01*
X147332795Y-96490256D01*
X147446063Y-96659774D01*
X147590226Y-96803937D01*
X147759744Y-96917205D01*
X147948102Y-96995226D01*
X148148061Y-97035000D01*
X148351939Y-97035000D01*
X148551898Y-96995226D01*
X148740256Y-96917205D01*
X148909774Y-96803937D01*
X149053937Y-96659774D01*
X149167205Y-96490256D01*
X149245226Y-96301898D01*
X149285000Y-96101939D01*
X149285000Y-95898061D01*
X149965000Y-95898061D01*
X149965000Y-96101939D01*
X150004774Y-96301898D01*
X150082795Y-96490256D01*
X150196063Y-96659774D01*
X150340226Y-96803937D01*
X150509744Y-96917205D01*
X150698102Y-96995226D01*
X150898061Y-97035000D01*
X151101939Y-97035000D01*
X151301898Y-96995226D01*
X151490256Y-96917205D01*
X151659774Y-96803937D01*
X151803937Y-96659774D01*
X151917205Y-96490256D01*
X151995226Y-96301898D01*
X152035000Y-96101939D01*
X152035000Y-95898061D01*
X151995226Y-95698102D01*
X151917205Y-95509744D01*
X151803937Y-95340226D01*
X151659774Y-95196063D01*
X151490256Y-95082795D01*
X151301898Y-95004774D01*
X151101939Y-94965000D01*
X150898061Y-94965000D01*
X150698102Y-95004774D01*
X150509744Y-95082795D01*
X150340226Y-95196063D01*
X150196063Y-95340226D01*
X150082795Y-95509744D01*
X150004774Y-95698102D01*
X149965000Y-95898061D01*
X149285000Y-95898061D01*
X149245226Y-95698102D01*
X149167205Y-95509744D01*
X149053937Y-95340226D01*
X148909774Y-95196063D01*
X148740256Y-95082795D01*
X148551898Y-95004774D01*
X148351939Y-94965000D01*
X148148061Y-94965000D01*
X147948102Y-95004774D01*
X147759744Y-95082795D01*
X147590226Y-95196063D01*
X147446063Y-95340226D01*
X147332795Y-95509744D01*
X147254774Y-95698102D01*
X147215000Y-95898061D01*
X147035000Y-95898061D01*
X146995226Y-95698102D01*
X146917205Y-95509744D01*
X146803937Y-95340226D01*
X146659774Y-95196063D01*
X146490256Y-95082795D01*
X146301898Y-95004774D01*
X146101939Y-94965000D01*
X145898061Y-94965000D01*
X145698102Y-95004774D01*
X145509744Y-95082795D01*
X145340226Y-95196063D01*
X145196063Y-95340226D01*
X145082795Y-95509744D01*
X145004774Y-95698102D01*
X145000000Y-95722103D01*
X144995226Y-95698102D01*
X144917205Y-95509744D01*
X144803937Y-95340226D01*
X144659774Y-95196063D01*
X144490256Y-95082795D01*
X144301898Y-95004774D01*
X144277897Y-95000000D01*
X144301898Y-94995226D01*
X144490256Y-94917205D01*
X144659774Y-94803937D01*
X144803937Y-94659774D01*
X144917205Y-94490256D01*
X144995226Y-94301898D01*
X145035000Y-94101939D01*
X145035000Y-93898061D01*
X144995226Y-93698102D01*
X144964143Y-93623061D01*
X150740000Y-93623061D01*
X150740000Y-93826939D01*
X150779774Y-94026898D01*
X150857795Y-94215256D01*
X150971063Y-94384774D01*
X151115226Y-94528937D01*
X151284744Y-94642205D01*
X151473102Y-94720226D01*
X151673061Y-94760000D01*
X151876939Y-94760000D01*
X152076898Y-94720226D01*
X152265256Y-94642205D01*
X152434774Y-94528937D01*
X152578937Y-94384774D01*
X152692205Y-94215256D01*
X152770226Y-94026898D01*
X152810000Y-93826939D01*
X152810000Y-93623061D01*
X152770226Y-93423102D01*
X152692205Y-93234744D01*
X152578937Y-93065226D01*
X152434774Y-92921063D01*
X152265256Y-92807795D01*
X152076898Y-92729774D01*
X151876939Y-92690000D01*
X151673061Y-92690000D01*
X151473102Y-92729774D01*
X151284744Y-92807795D01*
X151115226Y-92921063D01*
X150971063Y-93065226D01*
X150857795Y-93234744D01*
X150779774Y-93423102D01*
X150740000Y-93623061D01*
X144964143Y-93623061D01*
X144917205Y-93509744D01*
X144803937Y-93340226D01*
X144659774Y-93196063D01*
X144490256Y-93082795D01*
X144301898Y-93004774D01*
X144277897Y-93000000D01*
X144301898Y-92995226D01*
X144490256Y-92917205D01*
X144659774Y-92803937D01*
X144803937Y-92659774D01*
X144917205Y-92490256D01*
X144995226Y-92301898D01*
X145035000Y-92101939D01*
X145035000Y-91898061D01*
X144995226Y-91698102D01*
X144917205Y-91509744D01*
X144803937Y-91340226D01*
X144659774Y-91196063D01*
X144490256Y-91082795D01*
X144301898Y-91004774D01*
X144277897Y-91000000D01*
X144301898Y-90995226D01*
X144490256Y-90917205D01*
X144659774Y-90803937D01*
X144803937Y-90659774D01*
X144917205Y-90490256D01*
X144995226Y-90301898D01*
X145035000Y-90101939D01*
X145035000Y-89898061D01*
X144995226Y-89698102D01*
X144917205Y-89509744D01*
X144809173Y-89348061D01*
X150515000Y-89348061D01*
X150515000Y-89551939D01*
X150554774Y-89751898D01*
X150632795Y-89940256D01*
X150746063Y-90109774D01*
X150890226Y-90253937D01*
X151059744Y-90367205D01*
X151248102Y-90445226D01*
X151448061Y-90485000D01*
X151651939Y-90485000D01*
X151851898Y-90445226D01*
X152040256Y-90367205D01*
X152209774Y-90253937D01*
X152353937Y-90109774D01*
X152467205Y-89940256D01*
X152545226Y-89751898D01*
X152585000Y-89551939D01*
X152585000Y-89348061D01*
X152545226Y-89148102D01*
X152467205Y-88959744D01*
X152353937Y-88790226D01*
X152209774Y-88646063D01*
X152040256Y-88532795D01*
X151851898Y-88454774D01*
X151651939Y-88415000D01*
X151448061Y-88415000D01*
X151248102Y-88454774D01*
X151059744Y-88532795D01*
X150890226Y-88646063D01*
X150746063Y-88790226D01*
X150632795Y-88959744D01*
X150554774Y-89148102D01*
X150515000Y-89348061D01*
X144809173Y-89348061D01*
X144803937Y-89340226D01*
X144659774Y-89196063D01*
X144490256Y-89082795D01*
X144301898Y-89004774D01*
X144277897Y-89000000D01*
X144301898Y-88995226D01*
X144490256Y-88917205D01*
X144659774Y-88803937D01*
X144803937Y-88659774D01*
X144917205Y-88490256D01*
X144995226Y-88301898D01*
X145035000Y-88101939D01*
X145035000Y-87898061D01*
X144995226Y-87698102D01*
X144917205Y-87509744D01*
X144842582Y-87398061D01*
X152215000Y-87398061D01*
X152215000Y-87601939D01*
X152254774Y-87801898D01*
X152332795Y-87990256D01*
X152446063Y-88159774D01*
X152590226Y-88303937D01*
X152759744Y-88417205D01*
X152948102Y-88495226D01*
X153148061Y-88535000D01*
X153351939Y-88535000D01*
X153551898Y-88495226D01*
X153740256Y-88417205D01*
X153909774Y-88303937D01*
X154053937Y-88159774D01*
X154167205Y-87990256D01*
X154245226Y-87801898D01*
X154285000Y-87601939D01*
X154285000Y-87398061D01*
X154245226Y-87198102D01*
X154167205Y-87009744D01*
X154053937Y-86840226D01*
X153909774Y-86696063D01*
X153740256Y-86582795D01*
X153551898Y-86504774D01*
X153351939Y-86465000D01*
X153148061Y-86465000D01*
X152948102Y-86504774D01*
X152759744Y-86582795D01*
X152590226Y-86696063D01*
X152446063Y-86840226D01*
X152332795Y-87009744D01*
X152254774Y-87198102D01*
X152215000Y-87398061D01*
X144842582Y-87398061D01*
X144803937Y-87340226D01*
X144659774Y-87196063D01*
X144490256Y-87082795D01*
X144301898Y-87004774D01*
X144277897Y-87000000D01*
X144301898Y-86995226D01*
X144490256Y-86917205D01*
X144659774Y-86803937D01*
X144803937Y-86659774D01*
X144917205Y-86490256D01*
X144995226Y-86301898D01*
X145035000Y-86101939D01*
X145035000Y-85898061D01*
X144995226Y-85698102D01*
X144917205Y-85509744D01*
X144803937Y-85340226D01*
X144659774Y-85196063D01*
X144490256Y-85082795D01*
X144301898Y-85004774D01*
X144101939Y-84965000D01*
X143898061Y-84965000D01*
X143698102Y-85004774D01*
X143509744Y-85082795D01*
X143340226Y-85196063D01*
X143196063Y-85340226D01*
X143082795Y-85509744D01*
X143004774Y-85698102D01*
X142965000Y-85898061D01*
X139542582Y-85898061D01*
X139503937Y-85840226D01*
X139359774Y-85696063D01*
X139190256Y-85582795D01*
X139001898Y-85504774D01*
X138801939Y-85465000D01*
X138598061Y-85465000D01*
X138398102Y-85504774D01*
X138209744Y-85582795D01*
X138040226Y-85696063D01*
X137896063Y-85840226D01*
X137782795Y-86009744D01*
X137704774Y-86198102D01*
X137665000Y-86398061D01*
X118127000Y-86398061D01*
X118127000Y-80127000D01*
X154873000Y-80127000D01*
X154873000Y-83171491D01*
%TO.N,GND*%
G36*
X212873000Y-144873000D02*
G01*
X172127000Y-144873000D01*
X172127000Y-118898061D01*
X175965000Y-118898061D01*
X175965000Y-119101939D01*
X176004774Y-119301898D01*
X176082795Y-119490256D01*
X176196063Y-119659774D01*
X176340226Y-119803937D01*
X176509744Y-119917205D01*
X176698102Y-119995226D01*
X176898061Y-120035000D01*
X177101939Y-120035000D01*
X177301898Y-119995226D01*
X177490256Y-119917205D01*
X177659774Y-119803937D01*
X177803937Y-119659774D01*
X177917205Y-119490256D01*
X177995226Y-119301898D01*
X178035000Y-119101939D01*
X178035000Y-118898061D01*
X177995226Y-118698102D01*
X177917205Y-118509744D01*
X177803937Y-118340226D01*
X177659774Y-118196063D01*
X177490256Y-118082795D01*
X177301898Y-118004774D01*
X177101939Y-117965000D01*
X176898061Y-117965000D01*
X176698102Y-118004774D01*
X176509744Y-118082795D01*
X176340226Y-118196063D01*
X176196063Y-118340226D01*
X176082795Y-118509744D01*
X176004774Y-118698102D01*
X175965000Y-118898061D01*
X172127000Y-118898061D01*
X172127000Y-114760617D01*
X188917934Y-114760617D01*
X188962272Y-115089557D01*
X189069931Y-115403527D01*
X189169421Y-115589661D01*
X189267082Y-115626549D01*
X189205506Y-115659463D01*
X189108815Y-115738815D01*
X189029463Y-115835506D01*
X188970498Y-115945820D01*
X188934188Y-116065518D01*
X188921928Y-116190000D01*
X188921928Y-118290000D01*
X188934188Y-118414482D01*
X188970498Y-118534180D01*
X189029463Y-118644494D01*
X189108815Y-118741185D01*
X189205506Y-118820537D01*
X189315820Y-118879502D01*
X189435518Y-118915812D01*
X189560000Y-118928072D01*
X191660000Y-118928072D01*
X191784482Y-118915812D01*
X191904180Y-118879502D01*
X192014494Y-118820537D01*
X192111185Y-118741185D01*
X192190537Y-118644494D01*
X192249502Y-118534180D01*
X192285812Y-118414482D01*
X192298072Y-118290000D01*
X192298072Y-116190000D01*
X192285812Y-116065518D01*
X192249502Y-115945820D01*
X192190537Y-115835506D01*
X192111185Y-115738815D01*
X192014494Y-115659463D01*
X191952918Y-115626549D01*
X192050579Y-115589661D01*
X192196463Y-115291523D01*
X192281380Y-114970654D01*
X192302066Y-114639383D01*
X192257728Y-114310443D01*
X192150069Y-113996473D01*
X192050579Y-113810339D01*
X191781066Y-113708539D01*
X190789605Y-114700000D01*
X190803748Y-114714143D01*
X190624143Y-114893748D01*
X190610000Y-114879605D01*
X190595858Y-114893748D01*
X190416253Y-114714143D01*
X190430395Y-114700000D01*
X189438934Y-113708539D01*
X189169421Y-113810339D01*
X189023537Y-114108477D01*
X188938620Y-114429346D01*
X188917934Y-114760617D01*
X172127000Y-114760617D01*
X172127000Y-113528934D01*
X189618539Y-113528934D01*
X190610000Y-114520395D01*
X191601461Y-113528934D01*
X191499661Y-113259421D01*
X191201523Y-113113537D01*
X190880654Y-113028620D01*
X190549383Y-113007934D01*
X190220443Y-113052272D01*
X189906473Y-113159931D01*
X189720339Y-113259421D01*
X189618539Y-113528934D01*
X172127000Y-113528934D01*
X172127000Y-108811066D01*
X189418539Y-108811066D01*
X189520339Y-109080579D01*
X189818477Y-109226463D01*
X190139346Y-109311380D01*
X190470617Y-109332066D01*
X190799557Y-109287728D01*
X191113527Y-109180069D01*
X191299661Y-109080579D01*
X191401461Y-108811066D01*
X190410000Y-107819605D01*
X189418539Y-108811066D01*
X172127000Y-108811066D01*
X172127000Y-107700617D01*
X188717934Y-107700617D01*
X188762272Y-108029557D01*
X188869931Y-108343527D01*
X188969421Y-108529661D01*
X189238934Y-108631461D01*
X190230395Y-107640000D01*
X190216253Y-107625858D01*
X190395858Y-107446253D01*
X190410000Y-107460395D01*
X190424143Y-107446253D01*
X190603748Y-107625858D01*
X190589605Y-107640000D01*
X191581066Y-108631461D01*
X191850579Y-108529661D01*
X191996463Y-108231523D01*
X192081380Y-107910654D01*
X192102066Y-107579383D01*
X192057728Y-107250443D01*
X191950069Y-106936473D01*
X191850579Y-106750339D01*
X191752918Y-106713451D01*
X191814494Y-106680537D01*
X191911185Y-106601185D01*
X191990537Y-106504494D01*
X192049502Y-106394180D01*
X192085812Y-106274482D01*
X192098072Y-106150000D01*
X192098072Y-104050000D01*
X192085812Y-103925518D01*
X192049502Y-103805820D01*
X191990537Y-103695506D01*
X191911185Y-103598815D01*
X191814494Y-103519463D01*
X191704180Y-103460498D01*
X191584482Y-103424188D01*
X191460000Y-103411928D01*
X189360000Y-103411928D01*
X189235518Y-103424188D01*
X189115820Y-103460498D01*
X189005506Y-103519463D01*
X188908815Y-103598815D01*
X188829463Y-103695506D01*
X188770498Y-103805820D01*
X188734188Y-103925518D01*
X188721928Y-104050000D01*
X188721928Y-106150000D01*
X188734188Y-106274482D01*
X188770498Y-106394180D01*
X188829463Y-106504494D01*
X188908815Y-106601185D01*
X189005506Y-106680537D01*
X189067082Y-106713451D01*
X188969421Y-106750339D01*
X188823537Y-107048477D01*
X188738620Y-107369346D01*
X188717934Y-107700617D01*
X172127000Y-107700617D01*
X172127000Y-103398061D01*
X176465000Y-103398061D01*
X176465000Y-103601939D01*
X176504774Y-103801898D01*
X176582795Y-103990256D01*
X176696063Y-104159774D01*
X176840226Y-104303937D01*
X177009744Y-104417205D01*
X177198102Y-104495226D01*
X177398061Y-104535000D01*
X177601939Y-104535000D01*
X177801898Y-104495226D01*
X177990256Y-104417205D01*
X178159774Y-104303937D01*
X178303937Y-104159774D01*
X178417205Y-103990256D01*
X178495226Y-103801898D01*
X178535000Y-103601939D01*
X178535000Y-103398061D01*
X178495226Y-103198102D01*
X178417205Y-103009744D01*
X178303937Y-102840226D01*
X178159774Y-102696063D01*
X177990256Y-102582795D01*
X177801898Y-102504774D01*
X177601939Y-102465000D01*
X177398061Y-102465000D01*
X177198102Y-102504774D01*
X177009744Y-102582795D01*
X176840226Y-102696063D01*
X176696063Y-102840226D01*
X176582795Y-103009744D01*
X176504774Y-103198102D01*
X176465000Y-103398061D01*
X172127000Y-103398061D01*
X172127000Y-80127000D01*
X212873000Y-80127000D01*
X212873000Y-144873000D01*
G37*
X212873000Y-144873000D02*
X172127000Y-144873000D01*
X172127000Y-118898061D01*
X175965000Y-118898061D01*
X175965000Y-119101939D01*
X176004774Y-119301898D01*
X176082795Y-119490256D01*
X176196063Y-119659774D01*
X176340226Y-119803937D01*
X176509744Y-119917205D01*
X176698102Y-119995226D01*
X176898061Y-120035000D01*
X177101939Y-120035000D01*
X177301898Y-119995226D01*
X177490256Y-119917205D01*
X177659774Y-119803937D01*
X177803937Y-119659774D01*
X177917205Y-119490256D01*
X177995226Y-119301898D01*
X178035000Y-119101939D01*
X178035000Y-118898061D01*
X177995226Y-118698102D01*
X177917205Y-118509744D01*
X177803937Y-118340226D01*
X177659774Y-118196063D01*
X177490256Y-118082795D01*
X177301898Y-118004774D01*
X177101939Y-117965000D01*
X176898061Y-117965000D01*
X176698102Y-118004774D01*
X176509744Y-118082795D01*
X176340226Y-118196063D01*
X176196063Y-118340226D01*
X176082795Y-118509744D01*
X176004774Y-118698102D01*
X175965000Y-118898061D01*
X172127000Y-118898061D01*
X172127000Y-114760617D01*
X188917934Y-114760617D01*
X188962272Y-115089557D01*
X189069931Y-115403527D01*
X189169421Y-115589661D01*
X189267082Y-115626549D01*
X189205506Y-115659463D01*
X189108815Y-115738815D01*
X189029463Y-115835506D01*
X188970498Y-115945820D01*
X188934188Y-116065518D01*
X188921928Y-116190000D01*
X188921928Y-118290000D01*
X188934188Y-118414482D01*
X188970498Y-118534180D01*
X189029463Y-118644494D01*
X189108815Y-118741185D01*
X189205506Y-118820537D01*
X189315820Y-118879502D01*
X189435518Y-118915812D01*
X189560000Y-118928072D01*
X191660000Y-118928072D01*
X191784482Y-118915812D01*
X191904180Y-118879502D01*
X192014494Y-118820537D01*
X192111185Y-118741185D01*
X192190537Y-118644494D01*
X192249502Y-118534180D01*
X192285812Y-118414482D01*
X192298072Y-118290000D01*
X192298072Y-116190000D01*
X192285812Y-116065518D01*
X192249502Y-115945820D01*
X192190537Y-115835506D01*
X192111185Y-115738815D01*
X192014494Y-115659463D01*
X191952918Y-115626549D01*
X192050579Y-115589661D01*
X192196463Y-115291523D01*
X192281380Y-114970654D01*
X192302066Y-114639383D01*
X192257728Y-114310443D01*
X192150069Y-113996473D01*
X192050579Y-113810339D01*
X191781066Y-113708539D01*
X190789605Y-114700000D01*
X190803748Y-114714143D01*
X190624143Y-114893748D01*
X190610000Y-114879605D01*
X190595858Y-114893748D01*
X190416253Y-114714143D01*
X190430395Y-114700000D01*
X189438934Y-113708539D01*
X189169421Y-113810339D01*
X189023537Y-114108477D01*
X188938620Y-114429346D01*
X188917934Y-114760617D01*
X172127000Y-114760617D01*
X172127000Y-113528934D01*
X189618539Y-113528934D01*
X190610000Y-114520395D01*
X191601461Y-113528934D01*
X191499661Y-113259421D01*
X191201523Y-113113537D01*
X190880654Y-113028620D01*
X190549383Y-113007934D01*
X190220443Y-113052272D01*
X189906473Y-113159931D01*
X189720339Y-113259421D01*
X189618539Y-113528934D01*
X172127000Y-113528934D01*
X172127000Y-108811066D01*
X189418539Y-108811066D01*
X189520339Y-109080579D01*
X189818477Y-109226463D01*
X190139346Y-109311380D01*
X190470617Y-109332066D01*
X190799557Y-109287728D01*
X191113527Y-109180069D01*
X191299661Y-109080579D01*
X191401461Y-108811066D01*
X190410000Y-107819605D01*
X189418539Y-108811066D01*
X172127000Y-108811066D01*
X172127000Y-107700617D01*
X188717934Y-107700617D01*
X188762272Y-108029557D01*
X188869931Y-108343527D01*
X188969421Y-108529661D01*
X189238934Y-108631461D01*
X190230395Y-107640000D01*
X190216253Y-107625858D01*
X190395858Y-107446253D01*
X190410000Y-107460395D01*
X190424143Y-107446253D01*
X190603748Y-107625858D01*
X190589605Y-107640000D01*
X191581066Y-108631461D01*
X191850579Y-108529661D01*
X191996463Y-108231523D01*
X192081380Y-107910654D01*
X192102066Y-107579383D01*
X192057728Y-107250443D01*
X191950069Y-106936473D01*
X191850579Y-106750339D01*
X191752918Y-106713451D01*
X191814494Y-106680537D01*
X191911185Y-106601185D01*
X191990537Y-106504494D01*
X192049502Y-106394180D01*
X192085812Y-106274482D01*
X192098072Y-106150000D01*
X192098072Y-104050000D01*
X192085812Y-103925518D01*
X192049502Y-103805820D01*
X191990537Y-103695506D01*
X191911185Y-103598815D01*
X191814494Y-103519463D01*
X191704180Y-103460498D01*
X191584482Y-103424188D01*
X191460000Y-103411928D01*
X189360000Y-103411928D01*
X189235518Y-103424188D01*
X189115820Y-103460498D01*
X189005506Y-103519463D01*
X188908815Y-103598815D01*
X188829463Y-103695506D01*
X188770498Y-103805820D01*
X188734188Y-103925518D01*
X188721928Y-104050000D01*
X188721928Y-106150000D01*
X188734188Y-106274482D01*
X188770498Y-106394180D01*
X188829463Y-106504494D01*
X188908815Y-106601185D01*
X189005506Y-106680537D01*
X189067082Y-106713451D01*
X188969421Y-106750339D01*
X188823537Y-107048477D01*
X188738620Y-107369346D01*
X188717934Y-107700617D01*
X172127000Y-107700617D01*
X172127000Y-103398061D01*
X176465000Y-103398061D01*
X176465000Y-103601939D01*
X176504774Y-103801898D01*
X176582795Y-103990256D01*
X176696063Y-104159774D01*
X176840226Y-104303937D01*
X177009744Y-104417205D01*
X177198102Y-104495226D01*
X177398061Y-104535000D01*
X177601939Y-104535000D01*
X177801898Y-104495226D01*
X177990256Y-104417205D01*
X178159774Y-104303937D01*
X178303937Y-104159774D01*
X178417205Y-103990256D01*
X178495226Y-103801898D01*
X178535000Y-103601939D01*
X178535000Y-103398061D01*
X178495226Y-103198102D01*
X178417205Y-103009744D01*
X178303937Y-102840226D01*
X178159774Y-102696063D01*
X177990256Y-102582795D01*
X177801898Y-102504774D01*
X177601939Y-102465000D01*
X177398061Y-102465000D01*
X177198102Y-102504774D01*
X177009744Y-102582795D01*
X176840226Y-102696063D01*
X176696063Y-102840226D01*
X176582795Y-103009744D01*
X176504774Y-103198102D01*
X176465000Y-103398061D01*
X172127000Y-103398061D01*
X172127000Y-80127000D01*
X212873000Y-80127000D01*
X212873000Y-144873000D01*
%TD*%
M02*
