M48
; DRILL file {KiCad (5.1.6)-1} date 10/29/20 17:58:32
; FORMAT={-:-/ absolute / inch / decimal}
; #@! TF.CreationDate,2020-10-29T17:58:32+05:30
; #@! TF.GenerationSoftware,Kicad,Pcbnew,(5.1.6)-1
; #@! TF.FileFunction,Plated,1,4,PTH
FMAT,2
INCH
T1C0.0157
T2C0.0394
T3C0.0433
T4C0.1260
%
G90
G05
T1
X5.2Y-3.2
X5.2Y-3.3
X5.2Y-3.4
X5.2Y-4.8
X5.2Y-4.9
X5.2Y-5.0
X5.2Y-5.1
X5.2Y-5.24
X5.2Y-5.3
X5.2Y-5.4
X5.2Y-5.5
X5.2Y-5.6
X5.2Y-5.7
X5.27Y-3.53
X5.27Y-3.63
X5.27Y-3.73
X5.27Y-3.83
X5.27Y-3.93
X5.27Y-4.03
X5.27Y-4.13
X5.27Y-4.23
X5.27Y-4.33
X5.27Y-4.43
X5.27Y-4.53
X5.27Y-4.63
X5.3Y-3.2
X5.3Y-5.2
X5.35Y-3.63
X5.35Y-3.73
X5.35Y-3.83
X5.35Y-3.94
X5.35Y-4.03
X5.35Y-4.13
X5.35Y-4.23
X5.35Y-4.33
X5.35Y-4.43
X5.35Y-4.53
X5.35Y-4.65
X5.35Y-4.75
X5.4Y-3.2
X5.4Y-5.2
X5.4Y-5.3
X5.4Y-5.95
X5.45Y-4.65
X5.45Y-4.85
X5.5Y-3.0
X5.5Y-3.2
X5.5Y-5.3
X5.5Y-5.95
X5.6Y-3.0
X5.6Y-3.2
X5.6Y-5.2
X5.6Y-5.3
X5.6Y-5.95
X5.68Y-4.53
X5.7Y-3.0
X5.7Y-3.2
X5.7Y-5.3
X5.7Y-5.4
X5.7Y-5.5
X5.7Y-5.95
X5.8Y-3.0
X5.8Y-3.2
X5.8Y-5.22
X5.8Y-5.5
X5.8Y-5.7
X5.8Y-5.95
X5.825Y-4.875
X5.9Y-3.0
X5.9Y-3.2
X5.9Y-5.22
X5.9Y-5.5
X5.9Y-5.7
X5.9Y-5.95
X5.98Y-5.22
X6.0Y-3.0
X6.0Y-3.2
X6.0Y-5.5
X6.0Y-5.7
X6.0Y-5.95
X6.03Y-3.92
X6.03Y-4.02
X6.03Y-4.12
X6.03Y-4.22
X6.03Y-4.32
X6.03Y-4.42
X6.03Y-4.69
X6.05Y-5.22
X6.1Y-3.0
X6.1Y-3.2
X6.1Y-5.5
X6.1Y-5.7
X6.1Y-5.95
X6.1479Y-3.8579
X6.18Y-4.68
X6.2Y-3.0
X6.2Y-3.2
X6.2Y-5.1
X6.2Y-5.2
X6.2Y-5.5
X6.2Y-5.7
X6.2Y-5.95
X6.27Y-4.56
X6.3Y-3.0
X6.3Y-3.2
X6.3Y-3.4
X6.3Y-5.21
X6.3Y-5.5
X6.3Y-5.7
X6.3Y-5.95
X6.33Y-3.63
X6.391Y-4.8565
X6.4Y-3.0
X6.4Y-3.2
X6.4Y-4.205
X6.4Y-5.1
X6.4Y-5.15
X6.4Y-5.5
X6.4Y-5.7
X6.4Y-5.95
X6.4013Y-4.2913
X6.42Y-4.14
X6.4204Y-4.3996
X6.4225Y-3.9075
X6.43Y-4.48
X6.44Y-4.99
X6.47Y-3.57
X6.47Y-4.04
X6.4921Y-3.8579
X6.5Y-3.0
X6.5Y-3.2
X6.5Y-4.53
X6.5Y-5.1
X6.5Y-5.15
X6.5Y-5.5
X6.5Y-5.7
X6.5Y-5.95
X6.51Y-4.74
X6.5157Y-3.7293
X6.55Y-3.55
X6.56Y-4.7125
X6.5617Y-4.3734
X6.5794Y-4.2793
X6.5795Y-3.8405
X6.6Y-3.0
X6.6Y-3.2
X6.6Y-5.7
X6.6Y-5.95
X6.6043Y-3.8878
X6.63Y-4.22
X6.6339Y-5.25
X6.6437Y-3.4449
X6.6437Y-3.7008
X6.65Y-3.3
X6.658Y-4.329
X6.69Y-5.06
X6.6937Y-4.7387
X6.7Y-3.0
X6.7Y-3.4
X6.7Y-4.495
X6.7Y-4.595
X6.7Y-5.4
X6.7Y-5.5
X6.7Y-5.7
X6.7Y-5.95
X6.74Y-5.09
X6.745Y-4.55
X6.75Y-3.35
X6.7764Y-4.8622
X6.78Y-4.0325
X6.79Y-4.495
X6.795Y-4.595
X6.8Y-3.0
X6.8Y-5.3
X6.8Y-5.5
X6.8Y-5.7
X6.8Y-5.95
X6.835Y-5.82
X6.84Y-3.14
X6.851Y-4.346
X6.8898Y-5.2067
X6.9Y-3.0
X6.9Y-3.25
X6.9Y-5.4
X6.9Y-5.5
X6.9Y-5.88
X6.9Y-5.95
X6.9291Y-4.3996
X6.9315Y-4.4583
X6.9334Y-4.7047
X6.934Y-5.089
X6.945Y-4.5599
X6.95Y-5.15
X6.96Y-4.62
X6.9807Y-4.9339
X6.9882Y-3.2776
X6.99Y-3.105
X7.0Y-3.0
X7.0Y-3.2
X7.0Y-4.15
X7.0Y-5.5
X7.0Y-5.95
X7.0065Y-4.506
X7.0079Y-3.5925
X7.025Y-4.575
X7.03Y-4.27
X7.0768Y-5.5906
X7.096Y-4.488
X7.1Y-4.9
X7.11Y-3.945
X7.11Y-5.4
X7.1165Y-4.1165
X7.126Y-3.435
X7.13Y-5.62
X7.14Y-3.7992
X7.15Y-4.32
X7.1555Y-4.9606
X7.1555Y-5.561
X7.1801Y-4.7
X7.19Y-5.436
X7.19Y-5.49
X7.19Y-5.72
X7.19Y-5.8
X7.19Y-5.9
X7.19Y-5.97
X7.2Y-2.94
X7.2Y-3.0
X7.2Y-3.2
X7.2Y-3.5
X7.2Y-3.63
X7.2Y-3.7
X7.2Y-3.83
X7.2Y-4.0
X7.2Y-4.26
X7.21Y-3.06
X7.23Y-3.105
X7.25Y-3.36
X7.25Y-3.5
X7.295Y-3.105
X7.3Y-2.94
X7.3Y-3.4
X7.3Y-3.5
X7.3Y-5.7
X7.3Y-5.8
X7.3Y-5.97
X7.3215Y-4.4979
X7.395Y-3.105
X7.398Y-5.55
X7.4Y-2.94
X7.4Y-3.35
X7.4Y-3.5
X7.4Y-5.7
X7.4Y-5.8
X7.4Y-5.97
X7.46Y-5.15
X7.495Y-3.105
X7.498Y-3.956
X7.5Y-2.94
X7.5Y-3.35
X7.5Y-3.5
X7.5Y-3.6
X7.5Y-5.5
X7.5Y-5.55
X7.5Y-5.7
X7.5Y-5.8
X7.5Y-5.97
X7.52Y-4.02
X7.52Y-4.1
X7.55Y-4.95
X7.55Y-5.05
X7.55Y-5.5
X7.55Y-5.55
X7.595Y-3.105
X7.6Y-2.94
X7.6Y-4.0
X7.6Y-4.1
X7.6Y-5.8
X7.6Y-5.97
X7.68Y-5.06
X7.695Y-3.105
X7.7Y-2.94
X7.7Y-3.435
X7.7Y-5.8
X7.71Y-5.97
X7.72Y-4.0
X7.74Y-5.622
X7.795Y-3.105
X7.8Y-2.94
X7.8Y-3.24
X7.8Y-5.06
X7.8Y-5.84
X7.81Y-5.97
X7.82Y-4.0
X7.84Y-5.76
X7.895Y-3.105
X7.9Y-2.94
X7.9Y-4.0
X7.9Y-5.8
X7.9Y-5.97
X7.95Y-5.05
X7.995Y-3.105
X8.0Y-2.94
X8.0Y-3.3
X8.0Y-4.0
X8.0Y-5.7
X8.0Y-5.8
X8.0Y-5.97
X8.05Y-5.05
X8.08Y-3.6
X8.1Y-2.94
X8.1Y-3.3
X8.1Y-4.0
X8.1Y-5.8
X8.1Y-5.97
X8.12Y-5.48
X8.15Y-3.1
X8.15Y-5.05
X8.2Y-2.94
X8.2Y-3.3
X8.2Y-3.45
X8.2Y-5.6
X8.2Y-5.7
X8.2Y-5.8
X8.2Y-5.97
X8.3Y-2.94
X8.3Y-3.1
X8.3Y-3.3
X8.3Y-3.45
X8.3Y-5.44
X8.3Y-5.6
X8.3Y-5.7
X8.3Y-5.8
X8.3Y-5.97
X8.36Y-3.64
X8.4Y-2.94
X8.4Y-3.25
X8.4Y-3.35
X8.4Y-3.45
X8.4Y-5.6
X8.4Y-5.7
X8.4Y-5.8
X8.4Y-5.97
X8.45Y-3.1
X8.5Y-2.94
X8.5Y-3.25
X8.5Y-5.8
X8.5Y-5.97
X8.6Y-2.94
X8.6Y-3.1
X8.6Y-3.25
X8.6Y-5.8
X8.6Y-5.97
X8.65Y-5.6
X8.65Y-5.7
X8.7Y-2.94
X8.7Y-3.1
X8.7Y-3.25
X8.7Y-3.35
X8.7Y-3.45
X8.7Y-5.8
X8.7Y-5.97
X8.75Y-5.6
X8.75Y-5.7
X8.8Y-2.94
X8.8Y-3.1
X8.8Y-3.25
X8.8Y-3.35
X8.8Y-3.45
X8.8Y-5.8
X8.8Y-5.97
X8.9Y-2.94
X8.9Y-3.1
X8.9Y-3.25
X8.9Y-5.8
X8.9Y-5.97
X9.0Y-2.94
X9.0Y-3.1
X9.0Y-3.25
X9.0Y-5.6
X9.0Y-5.7
X9.0Y-5.8
X9.0Y-5.96
X9.1Y-3.25
X9.1Y-3.35
X9.1Y-5.6
X9.1Y-5.7
X9.1Y-5.8
X9.1Y-5.96
X9.2Y-3.25
X9.2Y-3.35
X9.36Y-3.22
X9.36Y-3.32
X9.36Y-3.42
X9.36Y-3.52
X9.36Y-3.62
X9.36Y-3.73
X9.36Y-3.82
X9.36Y-3.92
X9.36Y-4.02
X9.36Y-4.12
X9.36Y-4.22
X9.36Y-4.32
X9.36Y-4.42
X9.36Y-4.52
X9.36Y-4.62
X9.36Y-4.72
X9.36Y-4.82
X9.36Y-4.92
X9.36Y-5.02
X9.36Y-5.12
X9.36Y-5.22
X9.36Y-5.32
X9.36Y-5.42
X9.36Y-5.52
X9.36Y-5.62
T2
X5.45Y-3.63
X5.45Y-3.73
X5.45Y-3.83
X5.45Y-3.93
X5.45Y-4.03
X5.45Y-4.13
X5.45Y-4.23
X5.45Y-4.33
X5.45Y-4.43
X5.45Y-4.53
X5.55Y-3.63
X5.55Y-3.73
X5.55Y-3.83
X5.55Y-3.93
X5.55Y-4.03
X5.55Y-4.13
X5.55Y-4.23
X5.55Y-4.33
X5.55Y-4.43
X5.55Y-4.53
T3
X8.66Y-5.04
X8.66Y-5.14
X8.74Y-3.9
X8.74Y-4.0
X8.57Y-4.45
X8.57Y-4.55
T4
X9.35Y-2.65
X5.15Y-2.65
X9.35Y-6.25
X5.15Y-6.25
T0
M30
