%TF.GenerationSoftware,KiCad,Pcbnew,(5.1.6)-1*%
%TF.CreationDate,2020-10-29T17:58:23+05:30*%
%TF.ProjectId,LTC3884,4c544333-3838-4342-9e6b-696361645f70,rev?*%
%TF.SameCoordinates,Original*%
%TF.FileFunction,Legend,Top*%
%TF.FilePolarity,Positive*%
%FSLAX46Y46*%
G04 Gerber Fmt 4.6, Leading zero omitted, Abs format (unit mm)*
G04 Created by KiCad (PCBNEW (5.1.6)-1) date 2020-10-29 17:58:23*
%MOMM*%
%LPD*%
G01*
G04 APERTURE LIST*
%ADD10C,0.300000*%
%ADD11C,0.125000*%
%ADD12C,0.120000*%
%ADD13C,0.100000*%
%ADD14C,0.200000*%
%ADD15C,0.150000*%
%ADD16C,0.254000*%
G04 APERTURE END LIST*
D10*
X166691500Y-79418571D02*
X165977214Y-79418571D01*
X165977214Y-77918571D01*
X167977214Y-79418571D02*
X167120071Y-79418571D01*
X167548642Y-79418571D02*
X167548642Y-77918571D01*
X167405785Y-78132857D01*
X167262928Y-78275714D01*
X167120071Y-78347142D01*
X165485000Y-148062071D02*
X164770714Y-148062071D01*
X164770714Y-146562071D01*
X165913571Y-146704928D02*
X165985000Y-146633500D01*
X166127857Y-146562071D01*
X166485000Y-146562071D01*
X166627857Y-146633500D01*
X166699285Y-146704928D01*
X166770714Y-146847785D01*
X166770714Y-146990642D01*
X166699285Y-147204928D01*
X165842142Y-148062071D01*
X166770714Y-148062071D01*
X216852571Y-119487142D02*
X217995428Y-119487142D01*
X216852571Y-109327142D02*
X217995428Y-109327142D01*
X217424000Y-109898571D02*
X217424000Y-108755714D01*
X209792285Y-113478571D02*
X210292285Y-114978571D01*
X210792285Y-113478571D01*
X211292285Y-114978571D02*
X211292285Y-113978571D01*
X211292285Y-113478571D02*
X211220857Y-113550000D01*
X211292285Y-113621428D01*
X211363714Y-113550000D01*
X211292285Y-113478571D01*
X211292285Y-113621428D01*
X212006571Y-113978571D02*
X212006571Y-114978571D01*
X212006571Y-114121428D02*
X212078000Y-114050000D01*
X212220857Y-113978571D01*
X212435142Y-113978571D01*
X212578000Y-114050000D01*
X212649428Y-114192857D01*
X212649428Y-114978571D01*
X215193714Y-99508571D02*
X215693714Y-101008571D01*
X216193714Y-99508571D01*
X216979428Y-99508571D02*
X217122285Y-99508571D01*
X217265142Y-99580000D01*
X217336571Y-99651428D01*
X217408000Y-99794285D01*
X217479428Y-100080000D01*
X217479428Y-100437142D01*
X217408000Y-100722857D01*
X217336571Y-100865714D01*
X217265142Y-100937142D01*
X217122285Y-101008571D01*
X216979428Y-101008571D01*
X216836571Y-100937142D01*
X216765142Y-100865714D01*
X216693714Y-100722857D01*
X216622285Y-100437142D01*
X216622285Y-100080000D01*
X216693714Y-99794285D01*
X216765142Y-99651428D01*
X216836571Y-99580000D01*
X216979428Y-99508571D01*
X216979428Y-102762857D02*
X215836571Y-102762857D01*
X216979428Y-97428857D02*
X215836571Y-97428857D01*
X216408000Y-96857428D02*
X216408000Y-98000285D01*
X224845714Y-129226571D02*
X225345714Y-130726571D01*
X225845714Y-129226571D01*
X227131428Y-130726571D02*
X226274285Y-130726571D01*
X226702857Y-130726571D02*
X226702857Y-129226571D01*
X226560000Y-129440857D01*
X226417142Y-129583714D01*
X226274285Y-129655142D01*
X225488571Y-132695142D02*
X226631428Y-132695142D01*
X226060000Y-133266571D02*
X226060000Y-132123714D01*
X225488571Y-127107142D02*
X226631428Y-127107142D01*
X161937142Y-138624571D02*
X162794285Y-138624571D01*
X162365714Y-140124571D02*
X162365714Y-138624571D01*
X164080000Y-138696000D02*
X163937142Y-138624571D01*
X163722857Y-138624571D01*
X163508571Y-138696000D01*
X163365714Y-138838857D01*
X163294285Y-138981714D01*
X163222857Y-139267428D01*
X163222857Y-139481714D01*
X163294285Y-139767428D01*
X163365714Y-139910285D01*
X163508571Y-140053142D01*
X163722857Y-140124571D01*
X163865714Y-140124571D01*
X164080000Y-140053142D01*
X164151428Y-139981714D01*
X164151428Y-139481714D01*
X163865714Y-139481714D01*
X165580000Y-140124571D02*
X164722857Y-140124571D01*
X165151428Y-140124571D02*
X165151428Y-138624571D01*
X165008571Y-138838857D01*
X164865714Y-138981714D01*
X164722857Y-139053142D01*
X168822857Y-144926857D02*
X169037142Y-144998285D01*
X169108571Y-145069714D01*
X169180000Y-145212571D01*
X169180000Y-145426857D01*
X169108571Y-145569714D01*
X169037142Y-145641142D01*
X168894285Y-145712571D01*
X168322857Y-145712571D01*
X168322857Y-144212571D01*
X168822857Y-144212571D01*
X168965714Y-144284000D01*
X169037142Y-144355428D01*
X169108571Y-144498285D01*
X169108571Y-144641142D01*
X169037142Y-144784000D01*
X168965714Y-144855428D01*
X168822857Y-144926857D01*
X168322857Y-144926857D01*
X170608571Y-144284000D02*
X170465714Y-144212571D01*
X170251428Y-144212571D01*
X170037142Y-144284000D01*
X169894285Y-144426857D01*
X169822857Y-144569714D01*
X169751428Y-144855428D01*
X169751428Y-145069714D01*
X169822857Y-145355428D01*
X169894285Y-145498285D01*
X170037142Y-145641142D01*
X170251428Y-145712571D01*
X170394285Y-145712571D01*
X170608571Y-145641142D01*
X170680000Y-145569714D01*
X170680000Y-145069714D01*
X170394285Y-145069714D01*
X172108571Y-145712571D02*
X171251428Y-145712571D01*
X171680000Y-145712571D02*
X171680000Y-144212571D01*
X171537142Y-144426857D01*
X171394285Y-144569714D01*
X171251428Y-144641142D01*
X176054000Y-146149142D02*
X176268285Y-146220571D01*
X176625428Y-146220571D01*
X176768285Y-146149142D01*
X176839714Y-146077714D01*
X176911142Y-145934857D01*
X176911142Y-145792000D01*
X176839714Y-145649142D01*
X176768285Y-145577714D01*
X176625428Y-145506285D01*
X176339714Y-145434857D01*
X176196857Y-145363428D01*
X176125428Y-145292000D01*
X176054000Y-145149142D01*
X176054000Y-145006285D01*
X176125428Y-144863428D01*
X176196857Y-144792000D01*
X176339714Y-144720571D01*
X176696857Y-144720571D01*
X176911142Y-144792000D01*
X177411142Y-144720571D02*
X177768285Y-146220571D01*
X178054000Y-145149142D01*
X178339714Y-146220571D01*
X178696857Y-144720571D01*
X180054000Y-146220571D02*
X179196857Y-146220571D01*
X179625428Y-146220571D02*
X179625428Y-144720571D01*
X179482571Y-144934857D01*
X179339714Y-145077714D01*
X179196857Y-145149142D01*
X163250857Y-88562571D02*
X163250857Y-87062571D01*
X163893714Y-88491142D02*
X164108000Y-88562571D01*
X164465142Y-88562571D01*
X164608000Y-88491142D01*
X164679428Y-88419714D01*
X164750857Y-88276857D01*
X164750857Y-88134000D01*
X164679428Y-87991142D01*
X164608000Y-87919714D01*
X164465142Y-87848285D01*
X164179428Y-87776857D01*
X164036571Y-87705428D01*
X163965142Y-87634000D01*
X163893714Y-87491142D01*
X163893714Y-87348285D01*
X163965142Y-87205428D01*
X164036571Y-87134000D01*
X164179428Y-87062571D01*
X164536571Y-87062571D01*
X164750857Y-87134000D01*
X165679428Y-87062571D02*
X165822285Y-87062571D01*
X165965142Y-87134000D01*
X166036571Y-87205428D01*
X166108000Y-87348285D01*
X166179428Y-87634000D01*
X166179428Y-87991142D01*
X166108000Y-88276857D01*
X166036571Y-88419714D01*
X165965142Y-88491142D01*
X165822285Y-88562571D01*
X165679428Y-88562571D01*
X165536571Y-88491142D01*
X165465142Y-88419714D01*
X165393714Y-88276857D01*
X165322285Y-87991142D01*
X165322285Y-87634000D01*
X165393714Y-87348285D01*
X165465142Y-87205428D01*
X165536571Y-87134000D01*
X165679428Y-87062571D01*
X166822285Y-87991142D02*
X167965142Y-87991142D01*
X167393714Y-88562571D02*
X167393714Y-87419714D01*
X166838571Y-136568571D02*
X166838571Y-135068571D01*
X167338571Y-135068571D02*
X168195714Y-135068571D01*
X167767142Y-136568571D02*
X167767142Y-135068571D01*
X168695714Y-136568571D02*
X168695714Y-135068571D01*
X168695714Y-135782857D02*
X169552857Y-135782857D01*
X169552857Y-136568571D02*
X169552857Y-135068571D01*
X171052857Y-136568571D02*
X170195714Y-136568571D01*
X170624285Y-136568571D02*
X170624285Y-135068571D01*
X170481428Y-135282857D01*
X170338571Y-135425714D01*
X170195714Y-135497142D01*
X169196000Y-91031142D02*
X169410285Y-91102571D01*
X169767428Y-91102571D01*
X169910285Y-91031142D01*
X169981714Y-90959714D01*
X170053142Y-90816857D01*
X170053142Y-90674000D01*
X169981714Y-90531142D01*
X169910285Y-90459714D01*
X169767428Y-90388285D01*
X169481714Y-90316857D01*
X169338857Y-90245428D01*
X169267428Y-90174000D01*
X169196000Y-90031142D01*
X169196000Y-89888285D01*
X169267428Y-89745428D01*
X169338857Y-89674000D01*
X169481714Y-89602571D01*
X169838857Y-89602571D01*
X170053142Y-89674000D01*
X170553142Y-89602571D02*
X170910285Y-91102571D01*
X171196000Y-90031142D01*
X171481714Y-91102571D01*
X171838857Y-89602571D01*
X172696000Y-89602571D02*
X172838857Y-89602571D01*
X172981714Y-89674000D01*
X173053142Y-89745428D01*
X173124571Y-89888285D01*
X173196000Y-90174000D01*
X173196000Y-90531142D01*
X173124571Y-90816857D01*
X173053142Y-90959714D01*
X172981714Y-91031142D01*
X172838857Y-91102571D01*
X172696000Y-91102571D01*
X172553142Y-91031142D01*
X172481714Y-90959714D01*
X172410285Y-90816857D01*
X172338857Y-90531142D01*
X172338857Y-90174000D01*
X172410285Y-89888285D01*
X172481714Y-89745428D01*
X172553142Y-89674000D01*
X172696000Y-89602571D01*
X170394571Y-95420571D02*
X170394571Y-93920571D01*
X170894571Y-93920571D02*
X171751714Y-93920571D01*
X171323142Y-95420571D02*
X171323142Y-93920571D01*
X172251714Y-95420571D02*
X172251714Y-93920571D01*
X172251714Y-94634857D02*
X173108857Y-94634857D01*
X173108857Y-95420571D02*
X173108857Y-93920571D01*
X174108857Y-93920571D02*
X174251714Y-93920571D01*
X174394571Y-93992000D01*
X174466000Y-94063428D01*
X174537428Y-94206285D01*
X174608857Y-94492000D01*
X174608857Y-94849142D01*
X174537428Y-95134857D01*
X174466000Y-95277714D01*
X174394571Y-95349142D01*
X174251714Y-95420571D01*
X174108857Y-95420571D01*
X173966000Y-95349142D01*
X173894571Y-95277714D01*
X173823142Y-95134857D01*
X173751714Y-94849142D01*
X173751714Y-94492000D01*
X173823142Y-94206285D01*
X173894571Y-94063428D01*
X173966000Y-93992000D01*
X174108857Y-93920571D01*
X178236857Y-98976571D02*
X178236857Y-97476571D01*
X178879714Y-98905142D02*
X179094000Y-98976571D01*
X179451142Y-98976571D01*
X179594000Y-98905142D01*
X179665428Y-98833714D01*
X179736857Y-98690857D01*
X179736857Y-98548000D01*
X179665428Y-98405142D01*
X179594000Y-98333714D01*
X179451142Y-98262285D01*
X179165428Y-98190857D01*
X179022571Y-98119428D01*
X178951142Y-98048000D01*
X178879714Y-97905142D01*
X178879714Y-97762285D01*
X178951142Y-97619428D01*
X179022571Y-97548000D01*
X179165428Y-97476571D01*
X179522571Y-97476571D01*
X179736857Y-97548000D01*
X181165428Y-98976571D02*
X180308285Y-98976571D01*
X180736857Y-98976571D02*
X180736857Y-97476571D01*
X180594000Y-97690857D01*
X180451142Y-97833714D01*
X180308285Y-97905142D01*
X181808285Y-98405142D02*
X182951142Y-98405142D01*
X182379714Y-98976571D02*
X182379714Y-97833714D01*
X168795142Y-84268571D02*
X169652285Y-84268571D01*
X169223714Y-85768571D02*
X169223714Y-84268571D01*
X170938000Y-84340000D02*
X170795142Y-84268571D01*
X170580857Y-84268571D01*
X170366571Y-84340000D01*
X170223714Y-84482857D01*
X170152285Y-84625714D01*
X170080857Y-84911428D01*
X170080857Y-85125714D01*
X170152285Y-85411428D01*
X170223714Y-85554285D01*
X170366571Y-85697142D01*
X170580857Y-85768571D01*
X170723714Y-85768571D01*
X170938000Y-85697142D01*
X171009428Y-85625714D01*
X171009428Y-85125714D01*
X170723714Y-85125714D01*
X171938000Y-84268571D02*
X172080857Y-84268571D01*
X172223714Y-84340000D01*
X172295142Y-84411428D01*
X172366571Y-84554285D01*
X172438000Y-84840000D01*
X172438000Y-85197142D01*
X172366571Y-85482857D01*
X172295142Y-85625714D01*
X172223714Y-85697142D01*
X172080857Y-85768571D01*
X171938000Y-85768571D01*
X171795142Y-85697142D01*
X171723714Y-85625714D01*
X171652285Y-85482857D01*
X171580857Y-85197142D01*
X171580857Y-84840000D01*
X171652285Y-84554285D01*
X171723714Y-84411428D01*
X171795142Y-84340000D01*
X171938000Y-84268571D01*
X176442857Y-85490857D02*
X176657142Y-85562285D01*
X176728571Y-85633714D01*
X176800000Y-85776571D01*
X176800000Y-85990857D01*
X176728571Y-86133714D01*
X176657142Y-86205142D01*
X176514285Y-86276571D01*
X175942857Y-86276571D01*
X175942857Y-84776571D01*
X176442857Y-84776571D01*
X176585714Y-84848000D01*
X176657142Y-84919428D01*
X176728571Y-85062285D01*
X176728571Y-85205142D01*
X176657142Y-85348000D01*
X176585714Y-85419428D01*
X176442857Y-85490857D01*
X175942857Y-85490857D01*
X178228571Y-84848000D02*
X178085714Y-84776571D01*
X177871428Y-84776571D01*
X177657142Y-84848000D01*
X177514285Y-84990857D01*
X177442857Y-85133714D01*
X177371428Y-85419428D01*
X177371428Y-85633714D01*
X177442857Y-85919428D01*
X177514285Y-86062285D01*
X177657142Y-86205142D01*
X177871428Y-86276571D01*
X178014285Y-86276571D01*
X178228571Y-86205142D01*
X178300000Y-86133714D01*
X178300000Y-85633714D01*
X178014285Y-85633714D01*
X179228571Y-84776571D02*
X179371428Y-84776571D01*
X179514285Y-84848000D01*
X179585714Y-84919428D01*
X179657142Y-85062285D01*
X179728571Y-85348000D01*
X179728571Y-85705142D01*
X179657142Y-85990857D01*
X179585714Y-86133714D01*
X179514285Y-86205142D01*
X179371428Y-86276571D01*
X179228571Y-86276571D01*
X179085714Y-86205142D01*
X179014285Y-86133714D01*
X178942857Y-85990857D01*
X178871428Y-85705142D01*
X178871428Y-85348000D01*
X178942857Y-85062285D01*
X179014285Y-84919428D01*
X179085714Y-84848000D01*
X179228571Y-84776571D01*
X136942142Y-147182857D02*
X137156428Y-147254285D01*
X137227857Y-147325714D01*
X137299285Y-147468571D01*
X137299285Y-147682857D01*
X137227857Y-147825714D01*
X137156428Y-147897142D01*
X137013571Y-147968571D01*
X136442142Y-147968571D01*
X136442142Y-146468571D01*
X136942142Y-146468571D01*
X137085000Y-146540000D01*
X137156428Y-146611428D01*
X137227857Y-146754285D01*
X137227857Y-146897142D01*
X137156428Y-147040000D01*
X137085000Y-147111428D01*
X136942142Y-147182857D01*
X136442142Y-147182857D01*
X137942142Y-147968571D02*
X137942142Y-146468571D01*
X137942142Y-147182857D02*
X138799285Y-147182857D01*
X138799285Y-147968571D02*
X138799285Y-146468571D01*
X139442142Y-147540000D02*
X140156428Y-147540000D01*
X139299285Y-147968571D02*
X139799285Y-146468571D01*
X140299285Y-147968571D01*
X140585000Y-146468571D02*
X141085000Y-147968571D01*
X141585000Y-146468571D01*
X142085000Y-147182857D02*
X142585000Y-147182857D01*
X142799285Y-147968571D02*
X142085000Y-147968571D01*
X142085000Y-146468571D01*
X142799285Y-146468571D01*
X143370714Y-147897142D02*
X143585000Y-147968571D01*
X143942142Y-147968571D01*
X144085000Y-147897142D01*
X144156428Y-147825714D01*
X144227857Y-147682857D01*
X144227857Y-147540000D01*
X144156428Y-147397142D01*
X144085000Y-147325714D01*
X143942142Y-147254285D01*
X143656428Y-147182857D01*
X143513571Y-147111428D01*
X143442142Y-147040000D01*
X143370714Y-146897142D01*
X143370714Y-146754285D01*
X143442142Y-146611428D01*
X143513571Y-146540000D01*
X143656428Y-146468571D01*
X144013571Y-146468571D01*
X144227857Y-146540000D01*
X144870714Y-147968571D02*
X144870714Y-146468571D01*
X144870714Y-147182857D02*
X145727857Y-147182857D01*
X145727857Y-147968571D02*
X145727857Y-146468571D01*
X147513571Y-147897142D02*
X147727857Y-147968571D01*
X148085000Y-147968571D01*
X148227857Y-147897142D01*
X148299285Y-147825714D01*
X148370714Y-147682857D01*
X148370714Y-147540000D01*
X148299285Y-147397142D01*
X148227857Y-147325714D01*
X148085000Y-147254285D01*
X147799285Y-147182857D01*
X147656428Y-147111428D01*
X147585000Y-147040000D01*
X147513571Y-146897142D01*
X147513571Y-146754285D01*
X147585000Y-146611428D01*
X147656428Y-146540000D01*
X147799285Y-146468571D01*
X148156428Y-146468571D01*
X148370714Y-146540000D01*
X149013571Y-147968571D02*
X149013571Y-146468571D01*
X149013571Y-147182857D02*
X149870714Y-147182857D01*
X149870714Y-147968571D02*
X149870714Y-146468571D01*
X150513571Y-147540000D02*
X151227857Y-147540000D01*
X150370714Y-147968571D02*
X150870714Y-146468571D01*
X151370714Y-147968571D01*
X152727857Y-147968571D02*
X152227857Y-147254285D01*
X151870714Y-147968571D02*
X151870714Y-146468571D01*
X152442142Y-146468571D01*
X152585000Y-146540000D01*
X152656428Y-146611428D01*
X152727857Y-146754285D01*
X152727857Y-146968571D01*
X152656428Y-147111428D01*
X152585000Y-147182857D01*
X152442142Y-147254285D01*
X151870714Y-147254285D01*
X153370714Y-147968571D02*
X153370714Y-146468571D01*
X153870714Y-147540000D01*
X154370714Y-146468571D01*
X154370714Y-147968571D01*
X155013571Y-147540000D02*
X155727857Y-147540000D01*
X154870714Y-147968571D02*
X155370714Y-146468571D01*
X155870714Y-147968571D01*
X137299285Y-150375714D02*
X137227857Y-150447142D01*
X137013571Y-150518571D01*
X136870714Y-150518571D01*
X136656428Y-150447142D01*
X136513571Y-150304285D01*
X136442142Y-150161428D01*
X136370714Y-149875714D01*
X136370714Y-149661428D01*
X136442142Y-149375714D01*
X136513571Y-149232857D01*
X136656428Y-149090000D01*
X136870714Y-149018571D01*
X137013571Y-149018571D01*
X137227857Y-149090000D01*
X137299285Y-149161428D01*
X137942142Y-150518571D02*
X137942142Y-149018571D01*
X137942142Y-149732857D02*
X138799285Y-149732857D01*
X138799285Y-150518571D02*
X138799285Y-149018571D01*
X139442142Y-150090000D02*
X140156428Y-150090000D01*
X139299285Y-150518571D02*
X139799285Y-149018571D01*
X140299285Y-150518571D01*
X140799285Y-150518571D02*
X140799285Y-149018571D01*
X141299285Y-149018571D02*
X142156428Y-149018571D01*
X141727857Y-150518571D02*
X141727857Y-149018571D01*
X142585000Y-150090000D02*
X143299285Y-150090000D01*
X142442142Y-150518571D02*
X142942142Y-149018571D01*
X143442142Y-150518571D01*
X143942142Y-150518571D02*
X143942142Y-149018571D01*
X144799285Y-150518571D01*
X144799285Y-149018571D01*
X145799285Y-149804285D02*
X145799285Y-150518571D01*
X145299285Y-149018571D02*
X145799285Y-149804285D01*
X146299285Y-149018571D01*
X146727857Y-150090000D02*
X147442142Y-150090000D01*
X146585000Y-150518571D02*
X147085000Y-149018571D01*
X147585000Y-150518571D01*
X149013571Y-149018571D02*
X149870714Y-149018571D01*
X149442142Y-150518571D02*
X149442142Y-149018571D01*
X150370714Y-150518571D02*
X150370714Y-149018571D01*
X150370714Y-149732857D02*
X151227857Y-149732857D01*
X151227857Y-150518571D02*
X151227857Y-149018571D01*
X151870714Y-150090000D02*
X152585000Y-150090000D01*
X151727857Y-150518571D02*
X152227857Y-149018571D01*
X152727857Y-150518571D01*
X153227857Y-150518571D02*
X153227857Y-149018571D01*
X154085000Y-150518571D02*
X153442142Y-149661428D01*
X154085000Y-149018571D02*
X153227857Y-149875714D01*
X154656428Y-150090000D02*
X155370714Y-150090000D01*
X154513571Y-150518571D02*
X155013571Y-149018571D01*
X155513571Y-150518571D01*
X156870714Y-150518571D02*
X156370714Y-149804285D01*
X156013571Y-150518571D02*
X156013571Y-149018571D01*
X156585000Y-149018571D01*
X156727857Y-149090000D01*
X156799285Y-149161428D01*
X156870714Y-149304285D01*
X156870714Y-149518571D01*
X156799285Y-149661428D01*
X156727857Y-149732857D01*
X156585000Y-149804285D01*
X156013571Y-149804285D01*
X157513571Y-149732857D02*
X158013571Y-149732857D01*
X158227857Y-150518571D02*
X157513571Y-150518571D01*
X157513571Y-149018571D01*
X158227857Y-149018571D01*
X137227857Y-151640000D02*
X137085000Y-151568571D01*
X136870714Y-151568571D01*
X136656428Y-151640000D01*
X136513571Y-151782857D01*
X136442142Y-151925714D01*
X136370714Y-152211428D01*
X136370714Y-152425714D01*
X136442142Y-152711428D01*
X136513571Y-152854285D01*
X136656428Y-152997142D01*
X136870714Y-153068571D01*
X137013571Y-153068571D01*
X137227857Y-152997142D01*
X137299285Y-152925714D01*
X137299285Y-152425714D01*
X137013571Y-152425714D01*
X138227857Y-151568571D02*
X138513571Y-151568571D01*
X138656428Y-151640000D01*
X138799285Y-151782857D01*
X138870714Y-152068571D01*
X138870714Y-152568571D01*
X138799285Y-152854285D01*
X138656428Y-152997142D01*
X138513571Y-153068571D01*
X138227857Y-153068571D01*
X138085000Y-152997142D01*
X137942142Y-152854285D01*
X137870714Y-152568571D01*
X137870714Y-152068571D01*
X137942142Y-151782857D01*
X138085000Y-151640000D01*
X138227857Y-151568571D01*
X139299285Y-151568571D02*
X139799285Y-153068571D01*
X140299285Y-151568571D01*
X140799285Y-153068571D02*
X140799285Y-151568571D01*
X141513571Y-153068571D02*
X141513571Y-151568571D01*
X142370714Y-153068571D01*
X142370714Y-151568571D01*
X143085000Y-153068571D02*
X143085000Y-151568571D01*
X143442142Y-151568571D01*
X143656428Y-151640000D01*
X143799285Y-151782857D01*
X143870714Y-151925714D01*
X143942142Y-152211428D01*
X143942142Y-152425714D01*
X143870714Y-152711428D01*
X143799285Y-152854285D01*
X143656428Y-152997142D01*
X143442142Y-153068571D01*
X143085000Y-153068571D01*
X146585000Y-152925714D02*
X146513571Y-152997142D01*
X146299285Y-153068571D01*
X146156428Y-153068571D01*
X145942142Y-152997142D01*
X145799285Y-152854285D01*
X145727857Y-152711428D01*
X145656428Y-152425714D01*
X145656428Y-152211428D01*
X145727857Y-151925714D01*
X145799285Y-151782857D01*
X145942142Y-151640000D01*
X146156428Y-151568571D01*
X146299285Y-151568571D01*
X146513571Y-151640000D01*
X146585000Y-151711428D01*
X147227857Y-153068571D02*
X147227857Y-151568571D01*
X147227857Y-152282857D02*
X148085000Y-152282857D01*
X148085000Y-153068571D02*
X148085000Y-151568571D01*
X148727857Y-152640000D02*
X149442142Y-152640000D01*
X148585000Y-153068571D02*
X149085000Y-151568571D01*
X149585000Y-153068571D01*
X150085000Y-153068571D02*
X150085000Y-151568571D01*
X150942142Y-153068571D01*
X150942142Y-151568571D01*
X151656428Y-153068571D02*
X151656428Y-151568571D01*
X152013571Y-151568571D01*
X152227857Y-151640000D01*
X152370714Y-151782857D01*
X152442142Y-151925714D01*
X152513571Y-152211428D01*
X152513571Y-152425714D01*
X152442142Y-152711428D01*
X152370714Y-152854285D01*
X152227857Y-152997142D01*
X152013571Y-153068571D01*
X151656428Y-153068571D01*
X154013571Y-153068571D02*
X153513571Y-152354285D01*
X153156428Y-153068571D02*
X153156428Y-151568571D01*
X153727857Y-151568571D01*
X153870714Y-151640000D01*
X153942142Y-151711428D01*
X154013571Y-151854285D01*
X154013571Y-152068571D01*
X153942142Y-152211428D01*
X153870714Y-152282857D01*
X153727857Y-152354285D01*
X153156428Y-152354285D01*
X154585000Y-152640000D02*
X155299285Y-152640000D01*
X154442142Y-153068571D02*
X154942142Y-151568571D01*
X155442142Y-153068571D01*
X156442142Y-152282857D02*
X156656428Y-152354285D01*
X156727857Y-152425714D01*
X156799285Y-152568571D01*
X156799285Y-152782857D01*
X156727857Y-152925714D01*
X156656428Y-152997142D01*
X156513571Y-153068571D01*
X155942142Y-153068571D01*
X155942142Y-151568571D01*
X156442142Y-151568571D01*
X156585000Y-151640000D01*
X156656428Y-151711428D01*
X156727857Y-151854285D01*
X156727857Y-151997142D01*
X156656428Y-152140000D01*
X156585000Y-152211428D01*
X156442142Y-152282857D01*
X155942142Y-152282857D01*
X157370714Y-152640000D02*
X158085000Y-152640000D01*
X157227857Y-153068571D02*
X157727857Y-151568571D01*
X158227857Y-153068571D01*
X159227857Y-152282857D02*
X159442142Y-152354285D01*
X159513571Y-152425714D01*
X159585000Y-152568571D01*
X159585000Y-152782857D01*
X159513571Y-152925714D01*
X159442142Y-152997142D01*
X159299285Y-153068571D01*
X158727857Y-153068571D01*
X158727857Y-151568571D01*
X159227857Y-151568571D01*
X159370714Y-151640000D01*
X159442142Y-151711428D01*
X159513571Y-151854285D01*
X159513571Y-151997142D01*
X159442142Y-152140000D01*
X159370714Y-152211428D01*
X159227857Y-152282857D01*
X158727857Y-152282857D01*
X160227857Y-151568571D02*
X160227857Y-152782857D01*
X160299285Y-152925714D01*
X160370714Y-152997142D01*
X160513571Y-153068571D01*
X160799285Y-153068571D01*
X160942142Y-152997142D01*
X161013571Y-152925714D01*
X161085000Y-152782857D01*
X161085000Y-151568571D01*
X137299285Y-155618571D02*
X136799285Y-154904285D01*
X136442142Y-155618571D02*
X136442142Y-154118571D01*
X137013571Y-154118571D01*
X137156428Y-154190000D01*
X137227857Y-154261428D01*
X137299285Y-154404285D01*
X137299285Y-154618571D01*
X137227857Y-154761428D01*
X137156428Y-154832857D01*
X137013571Y-154904285D01*
X136442142Y-154904285D01*
X137870714Y-155190000D02*
X138585000Y-155190000D01*
X137727857Y-155618571D02*
X138227857Y-154118571D01*
X138727857Y-155618571D01*
X139227857Y-155618571D02*
X139227857Y-154118571D01*
X139227857Y-154832857D02*
X140085000Y-154832857D01*
X140085000Y-155618571D02*
X140085000Y-154118571D01*
X140799285Y-154118571D02*
X140799285Y-155332857D01*
X140870714Y-155475714D01*
X140942142Y-155547142D01*
X141085000Y-155618571D01*
X141370714Y-155618571D01*
X141513571Y-155547142D01*
X141585000Y-155475714D01*
X141656428Y-155332857D01*
X141656428Y-154118571D01*
X143085000Y-155618571D02*
X142370714Y-155618571D01*
X142370714Y-154118571D01*
X144727857Y-155618571D02*
X144727857Y-154118571D01*
X145585000Y-155618571D02*
X144942142Y-154761428D01*
X145585000Y-154118571D02*
X144727857Y-154975714D01*
X146156428Y-155190000D02*
X146870714Y-155190000D01*
X146013571Y-155618571D02*
X146513571Y-154118571D01*
X147013571Y-155618571D01*
X148227857Y-155618571D02*
X147513571Y-155618571D01*
X147513571Y-154118571D01*
X148513571Y-154118571D02*
X149013571Y-155618571D01*
X149513571Y-154118571D01*
X149942142Y-155190000D02*
X150656428Y-155190000D01*
X149799285Y-155618571D02*
X150299285Y-154118571D01*
X150799285Y-155618571D01*
X136227857Y-156668571D02*
X137085000Y-156668571D01*
X136656428Y-158168571D02*
X136656428Y-156668571D01*
X137585000Y-157382857D02*
X138085000Y-157382857D01*
X138299285Y-158168571D02*
X137585000Y-158168571D01*
X137585000Y-156668571D01*
X138299285Y-156668571D01*
X139370714Y-156668571D02*
X139370714Y-157740000D01*
X139299285Y-157954285D01*
X139156428Y-158097142D01*
X138942142Y-158168571D01*
X138799285Y-158168571D01*
X140013571Y-157740000D02*
X140727857Y-157740000D01*
X139870714Y-158168571D02*
X140370714Y-156668571D01*
X140870714Y-158168571D01*
X141299285Y-158097142D02*
X141513571Y-158168571D01*
X141870714Y-158168571D01*
X142013571Y-158097142D01*
X142085000Y-158025714D01*
X142156428Y-157882857D01*
X142156428Y-157740000D01*
X142085000Y-157597142D01*
X142013571Y-157525714D01*
X141870714Y-157454285D01*
X141585000Y-157382857D01*
X141442142Y-157311428D01*
X141370714Y-157240000D01*
X141299285Y-157097142D01*
X141299285Y-156954285D01*
X141370714Y-156811428D01*
X141442142Y-156740000D01*
X141585000Y-156668571D01*
X141942142Y-156668571D01*
X142156428Y-156740000D01*
X144370714Y-156668571D02*
X144370714Y-157740000D01*
X144299285Y-157954285D01*
X144156428Y-158097142D01*
X143942142Y-158168571D01*
X143799285Y-158168571D01*
X145370714Y-156668571D02*
X145656428Y-156668571D01*
X145799285Y-156740000D01*
X145942142Y-156882857D01*
X146013571Y-157168571D01*
X146013571Y-157668571D01*
X145942142Y-157954285D01*
X145799285Y-158097142D01*
X145656428Y-158168571D01*
X145370714Y-158168571D01*
X145227857Y-158097142D01*
X145085000Y-157954285D01*
X145013571Y-157668571D01*
X145013571Y-157168571D01*
X145085000Y-156882857D01*
X145227857Y-156740000D01*
X145370714Y-156668571D01*
X146585000Y-158097142D02*
X146799285Y-158168571D01*
X147156428Y-158168571D01*
X147299285Y-158097142D01*
X147370714Y-158025714D01*
X147442142Y-157882857D01*
X147442142Y-157740000D01*
X147370714Y-157597142D01*
X147299285Y-157525714D01*
X147156428Y-157454285D01*
X146870714Y-157382857D01*
X146727857Y-157311428D01*
X146656428Y-157240000D01*
X146585000Y-157097142D01*
X146585000Y-156954285D01*
X146656428Y-156811428D01*
X146727857Y-156740000D01*
X146870714Y-156668571D01*
X147227857Y-156668571D01*
X147442142Y-156740000D01*
X148085000Y-158168571D02*
X148085000Y-156668571D01*
X148085000Y-157382857D02*
X148942142Y-157382857D01*
X148942142Y-158168571D02*
X148942142Y-156668571D01*
X149656428Y-158168571D02*
X149656428Y-156668571D01*
X136442142Y-160718571D02*
X136442142Y-159218571D01*
X136799285Y-159218571D01*
X137013571Y-159290000D01*
X137156428Y-159432857D01*
X137227857Y-159575714D01*
X137299285Y-159861428D01*
X137299285Y-160075714D01*
X137227857Y-160361428D01*
X137156428Y-160504285D01*
X137013571Y-160647142D01*
X136799285Y-160718571D01*
X136442142Y-160718571D01*
X138799285Y-160718571D02*
X138299285Y-160004285D01*
X137942142Y-160718571D02*
X137942142Y-159218571D01*
X138513571Y-159218571D01*
X138656428Y-159290000D01*
X138727857Y-159361428D01*
X138799285Y-159504285D01*
X138799285Y-159718571D01*
X138727857Y-159861428D01*
X138656428Y-159932857D01*
X138513571Y-160004285D01*
X137942142Y-160004285D01*
X139442142Y-160575714D02*
X139513571Y-160647142D01*
X139442142Y-160718571D01*
X139370714Y-160647142D01*
X139442142Y-160575714D01*
X139442142Y-160718571D01*
X142156428Y-160718571D02*
X141656428Y-160004285D01*
X141299285Y-160718571D02*
X141299285Y-159218571D01*
X141870714Y-159218571D01*
X142013571Y-159290000D01*
X142085000Y-159361428D01*
X142156428Y-159504285D01*
X142156428Y-159718571D01*
X142085000Y-159861428D01*
X142013571Y-159932857D01*
X141870714Y-160004285D01*
X141299285Y-160004285D01*
X142727857Y-160290000D02*
X143442142Y-160290000D01*
X142585000Y-160718571D02*
X143085000Y-159218571D01*
X143585000Y-160718571D01*
X144870714Y-159290000D02*
X144727857Y-159218571D01*
X144513571Y-159218571D01*
X144299285Y-159290000D01*
X144156428Y-159432857D01*
X144085000Y-159575714D01*
X144013571Y-159861428D01*
X144013571Y-160075714D01*
X144085000Y-160361428D01*
X144156428Y-160504285D01*
X144299285Y-160647142D01*
X144513571Y-160718571D01*
X144656428Y-160718571D01*
X144870714Y-160647142D01*
X144942142Y-160575714D01*
X144942142Y-160075714D01*
X144656428Y-160075714D01*
X145585000Y-160718571D02*
X145585000Y-159218571D01*
X145585000Y-159932857D02*
X146442142Y-159932857D01*
X146442142Y-160718571D02*
X146442142Y-159218571D01*
X147156428Y-159218571D02*
X147156428Y-160432857D01*
X147227857Y-160575714D01*
X147299285Y-160647142D01*
X147442142Y-160718571D01*
X147727857Y-160718571D01*
X147870714Y-160647142D01*
X147942142Y-160575714D01*
X148013571Y-160432857D01*
X148013571Y-159218571D01*
X148727857Y-160718571D02*
X148727857Y-159218571D01*
X149585000Y-160718571D01*
X149585000Y-159218571D01*
X150227857Y-160290000D02*
X150942142Y-160290000D01*
X150085000Y-160718571D02*
X150585000Y-159218571D01*
X151085000Y-160718571D01*
X151585000Y-160718571D02*
X151585000Y-159218571D01*
X152442142Y-160718571D01*
X152442142Y-159218571D01*
X153156428Y-160718571D02*
X153156428Y-159218571D01*
X153513571Y-159218571D01*
X153727857Y-159290000D01*
X153870714Y-159432857D01*
X153942142Y-159575714D01*
X154013571Y-159861428D01*
X154013571Y-160075714D01*
X153942142Y-160361428D01*
X153870714Y-160504285D01*
X153727857Y-160647142D01*
X153513571Y-160718571D01*
X153156428Y-160718571D01*
X154585000Y-160290000D02*
X155299285Y-160290000D01*
X154442142Y-160718571D02*
X154942142Y-159218571D01*
X155442142Y-160718571D01*
X155942142Y-160718571D02*
X155942142Y-159218571D01*
X156799285Y-160718571D01*
X156799285Y-159218571D01*
X158585000Y-160647142D02*
X158799285Y-160718571D01*
X159156428Y-160718571D01*
X159299285Y-160647142D01*
X159370714Y-160575714D01*
X159442142Y-160432857D01*
X159442142Y-160290000D01*
X159370714Y-160147142D01*
X159299285Y-160075714D01*
X159156428Y-160004285D01*
X158870714Y-159932857D01*
X158727857Y-159861428D01*
X158656428Y-159790000D01*
X158585000Y-159647142D01*
X158585000Y-159504285D01*
X158656428Y-159361428D01*
X158727857Y-159290000D01*
X158870714Y-159218571D01*
X159227857Y-159218571D01*
X159442142Y-159290000D01*
X160085000Y-160718571D02*
X160085000Y-159218571D01*
X160085000Y-159932857D02*
X160942142Y-159932857D01*
X160942142Y-160718571D02*
X160942142Y-159218571D01*
X161656428Y-159218571D02*
X161656428Y-160432857D01*
X161727857Y-160575714D01*
X161799285Y-160647142D01*
X161942142Y-160718571D01*
X162227857Y-160718571D01*
X162370714Y-160647142D01*
X162442142Y-160575714D01*
X162513571Y-160432857D01*
X162513571Y-159218571D01*
X163227857Y-160718571D02*
X163227857Y-159218571D01*
X164085000Y-160718571D02*
X163442142Y-159861428D01*
X164085000Y-159218571D02*
X163227857Y-160075714D01*
X165442142Y-160718571D02*
X164727857Y-160718571D01*
X164727857Y-159218571D01*
X165870714Y-160290000D02*
X166585000Y-160290000D01*
X165727857Y-160718571D02*
X166227857Y-159218571D01*
X166727857Y-160718571D01*
X136442142Y-163268571D02*
X136442142Y-161768571D01*
X136799285Y-161768571D01*
X137013571Y-161840000D01*
X137156428Y-161982857D01*
X137227857Y-162125714D01*
X137299285Y-162411428D01*
X137299285Y-162625714D01*
X137227857Y-162911428D01*
X137156428Y-163054285D01*
X137013571Y-163197142D01*
X136799285Y-163268571D01*
X136442142Y-163268571D01*
X138799285Y-163268571D02*
X138299285Y-162554285D01*
X137942142Y-163268571D02*
X137942142Y-161768571D01*
X138513571Y-161768571D01*
X138656428Y-161840000D01*
X138727857Y-161911428D01*
X138799285Y-162054285D01*
X138799285Y-162268571D01*
X138727857Y-162411428D01*
X138656428Y-162482857D01*
X138513571Y-162554285D01*
X137942142Y-162554285D01*
X139442142Y-163125714D02*
X139513571Y-163197142D01*
X139442142Y-163268571D01*
X139370714Y-163197142D01*
X139442142Y-163125714D01*
X139442142Y-163268571D01*
X141299285Y-163268571D02*
X141299285Y-161768571D01*
X141799285Y-162840000D01*
X142299285Y-161768571D01*
X142299285Y-163268571D01*
X143013571Y-163268571D02*
X143013571Y-161768571D01*
X143727857Y-163268571D02*
X143727857Y-161768571D01*
X144585000Y-163268571D01*
X144585000Y-161768571D01*
X145299285Y-163268571D02*
X145299285Y-161768571D01*
X148013571Y-163268571D02*
X147513571Y-162554285D01*
X147156428Y-163268571D02*
X147156428Y-161768571D01*
X147727857Y-161768571D01*
X147870714Y-161840000D01*
X147942142Y-161911428D01*
X148013571Y-162054285D01*
X148013571Y-162268571D01*
X147942142Y-162411428D01*
X147870714Y-162482857D01*
X147727857Y-162554285D01*
X147156428Y-162554285D01*
X148585000Y-162840000D02*
X149299285Y-162840000D01*
X148442142Y-163268571D02*
X148942142Y-161768571D01*
X149442142Y-163268571D01*
X150370714Y-161768571D02*
X150370714Y-162840000D01*
X150299285Y-163054285D01*
X150156428Y-163197142D01*
X149942142Y-163268571D01*
X149799285Y-163268571D01*
X151085000Y-162482857D02*
X151585000Y-162482857D01*
X151799285Y-163268571D02*
X151085000Y-163268571D01*
X151085000Y-161768571D01*
X151799285Y-161768571D01*
X152442142Y-162482857D02*
X152942142Y-162482857D01*
X153156428Y-163268571D02*
X152442142Y-163268571D01*
X152442142Y-161768571D01*
X153156428Y-161768571D01*
X153585000Y-161768571D02*
X154085000Y-163268571D01*
X154585000Y-161768571D01*
X136942142Y-63377857D02*
X136442142Y-63377857D01*
X136442142Y-64163571D02*
X136442142Y-62663571D01*
X137156428Y-62663571D01*
X138585000Y-64020714D02*
X138513571Y-64092142D01*
X138299285Y-64163571D01*
X138156428Y-64163571D01*
X137942142Y-64092142D01*
X137799285Y-63949285D01*
X137727857Y-63806428D01*
X137656428Y-63520714D01*
X137656428Y-63306428D01*
X137727857Y-63020714D01*
X137799285Y-62877857D01*
X137942142Y-62735000D01*
X138156428Y-62663571D01*
X138299285Y-62663571D01*
X138513571Y-62735000D01*
X138585000Y-62806428D01*
X140085000Y-64163571D02*
X139585000Y-63449285D01*
X139227857Y-64163571D02*
X139227857Y-62663571D01*
X139799285Y-62663571D01*
X139942142Y-62735000D01*
X140013571Y-62806428D01*
X140085000Y-62949285D01*
X140085000Y-63163571D01*
X140013571Y-63306428D01*
X139942142Y-63377857D01*
X139799285Y-63449285D01*
X139227857Y-63449285D01*
X140727857Y-64163571D02*
X140727857Y-62663571D01*
X141227857Y-62663571D02*
X142085000Y-62663571D01*
X141656428Y-64163571D02*
X141656428Y-62663571D01*
X142585000Y-63592142D02*
X143727857Y-63592142D01*
X144227857Y-62663571D02*
X145085000Y-62663571D01*
X144656428Y-64163571D02*
X144656428Y-62663571D01*
X145585000Y-64163571D02*
X145585000Y-62663571D01*
X146799285Y-63377857D02*
X146299285Y-63377857D01*
X146299285Y-64163571D02*
X146299285Y-62663571D01*
X147013571Y-62663571D01*
X148442142Y-64163571D02*
X147942142Y-63449285D01*
X147585000Y-64163571D02*
X147585000Y-62663571D01*
X148156428Y-62663571D01*
X148299285Y-62735000D01*
X148370714Y-62806428D01*
X148442142Y-62949285D01*
X148442142Y-63163571D01*
X148370714Y-63306428D01*
X148299285Y-63377857D01*
X148156428Y-63449285D01*
X147585000Y-63449285D01*
X150227857Y-64163571D02*
X150227857Y-62663571D01*
X150799285Y-62663571D01*
X150942142Y-62735000D01*
X151013571Y-62806428D01*
X151085000Y-62949285D01*
X151085000Y-63163571D01*
X151013571Y-63306428D01*
X150942142Y-63377857D01*
X150799285Y-63449285D01*
X150227857Y-63449285D01*
X152585000Y-64163571D02*
X152085000Y-63449285D01*
X151727857Y-64163571D02*
X151727857Y-62663571D01*
X152299285Y-62663571D01*
X152442142Y-62735000D01*
X152513571Y-62806428D01*
X152585000Y-62949285D01*
X152585000Y-63163571D01*
X152513571Y-63306428D01*
X152442142Y-63377857D01*
X152299285Y-63449285D01*
X151727857Y-63449285D01*
X153513571Y-62663571D02*
X153799285Y-62663571D01*
X153942142Y-62735000D01*
X154085000Y-62877857D01*
X154156428Y-63163571D01*
X154156428Y-63663571D01*
X154085000Y-63949285D01*
X153942142Y-64092142D01*
X153799285Y-64163571D01*
X153513571Y-64163571D01*
X153370714Y-64092142D01*
X153227857Y-63949285D01*
X153156428Y-63663571D01*
X153156428Y-63163571D01*
X153227857Y-62877857D01*
X153370714Y-62735000D01*
X153513571Y-62663571D01*
X155227857Y-62663571D02*
X155227857Y-63735000D01*
X155156428Y-63949285D01*
X155013571Y-64092142D01*
X154799285Y-64163571D01*
X154656428Y-64163571D01*
X155942142Y-63377857D02*
X156442142Y-63377857D01*
X156656428Y-64163571D02*
X155942142Y-64163571D01*
X155942142Y-62663571D01*
X156656428Y-62663571D01*
X158156428Y-64020714D02*
X158085000Y-64092142D01*
X157870714Y-64163571D01*
X157727857Y-64163571D01*
X157513571Y-64092142D01*
X157370714Y-63949285D01*
X157299285Y-63806428D01*
X157227857Y-63520714D01*
X157227857Y-63306428D01*
X157299285Y-63020714D01*
X157370714Y-62877857D01*
X157513571Y-62735000D01*
X157727857Y-62663571D01*
X157870714Y-62663571D01*
X158085000Y-62735000D01*
X158156428Y-62806428D01*
X158585000Y-62663571D02*
X159442142Y-62663571D01*
X159013571Y-64163571D02*
X159013571Y-62663571D01*
X137299285Y-66570714D02*
X137227857Y-66642142D01*
X137013571Y-66713571D01*
X136870714Y-66713571D01*
X136656428Y-66642142D01*
X136513571Y-66499285D01*
X136442142Y-66356428D01*
X136370714Y-66070714D01*
X136370714Y-65856428D01*
X136442142Y-65570714D01*
X136513571Y-65427857D01*
X136656428Y-65285000D01*
X136870714Y-65213571D01*
X137013571Y-65213571D01*
X137227857Y-65285000D01*
X137299285Y-65356428D01*
X138227857Y-65213571D02*
X138513571Y-65213571D01*
X138656428Y-65285000D01*
X138799285Y-65427857D01*
X138870714Y-65713571D01*
X138870714Y-66213571D01*
X138799285Y-66499285D01*
X138656428Y-66642142D01*
X138513571Y-66713571D01*
X138227857Y-66713571D01*
X138085000Y-66642142D01*
X137942142Y-66499285D01*
X137870714Y-66213571D01*
X137870714Y-65713571D01*
X137942142Y-65427857D01*
X138085000Y-65285000D01*
X138227857Y-65213571D01*
X139513571Y-66713571D02*
X139513571Y-65213571D01*
X140013571Y-66285000D01*
X140513571Y-65213571D01*
X140513571Y-66713571D01*
X141227857Y-66713571D02*
X141227857Y-65213571D01*
X141799285Y-65213571D01*
X141942142Y-65285000D01*
X142013571Y-65356428D01*
X142085000Y-65499285D01*
X142085000Y-65713571D01*
X142013571Y-65856428D01*
X141942142Y-65927857D01*
X141799285Y-65999285D01*
X141227857Y-65999285D01*
X142656428Y-66285000D02*
X143370714Y-66285000D01*
X142513571Y-66713571D02*
X143013571Y-65213571D01*
X143513571Y-66713571D01*
X144870714Y-66570714D02*
X144799285Y-66642142D01*
X144585000Y-66713571D01*
X144442142Y-66713571D01*
X144227857Y-66642142D01*
X144085000Y-66499285D01*
X144013571Y-66356428D01*
X143942142Y-66070714D01*
X143942142Y-65856428D01*
X144013571Y-65570714D01*
X144085000Y-65427857D01*
X144227857Y-65285000D01*
X144442142Y-65213571D01*
X144585000Y-65213571D01*
X144799285Y-65285000D01*
X144870714Y-65356428D01*
X145299285Y-65213571D02*
X146156428Y-65213571D01*
X145727857Y-66713571D02*
X145727857Y-65213571D01*
X147799285Y-66713571D02*
X147799285Y-65213571D01*
X148156428Y-65213571D01*
X148370714Y-65285000D01*
X148513571Y-65427857D01*
X148585000Y-65570714D01*
X148656428Y-65856428D01*
X148656428Y-66070714D01*
X148585000Y-66356428D01*
X148513571Y-66499285D01*
X148370714Y-66642142D01*
X148156428Y-66713571D01*
X147799285Y-66713571D01*
X150156428Y-66570714D02*
X150085000Y-66642142D01*
X149870714Y-66713571D01*
X149727857Y-66713571D01*
X149513571Y-66642142D01*
X149370714Y-66499285D01*
X149299285Y-66356428D01*
X149227857Y-66070714D01*
X149227857Y-65856428D01*
X149299285Y-65570714D01*
X149370714Y-65427857D01*
X149513571Y-65285000D01*
X149727857Y-65213571D01*
X149870714Y-65213571D01*
X150085000Y-65285000D01*
X150156428Y-65356428D01*
X150799285Y-66142142D02*
X151942142Y-66142142D01*
X152656428Y-66713571D02*
X152656428Y-65213571D01*
X153013571Y-65213571D01*
X153227857Y-65285000D01*
X153370714Y-65427857D01*
X153442142Y-65570714D01*
X153513571Y-65856428D01*
X153513571Y-66070714D01*
X153442142Y-66356428D01*
X153370714Y-66499285D01*
X153227857Y-66642142D01*
X153013571Y-66713571D01*
X152656428Y-66713571D01*
X155013571Y-66570714D02*
X154942142Y-66642142D01*
X154727857Y-66713571D01*
X154585000Y-66713571D01*
X154370714Y-66642142D01*
X154227857Y-66499285D01*
X154156428Y-66356428D01*
X154085000Y-66070714D01*
X154085000Y-65856428D01*
X154156428Y-65570714D01*
X154227857Y-65427857D01*
X154370714Y-65285000D01*
X154585000Y-65213571D01*
X154727857Y-65213571D01*
X154942142Y-65285000D01*
X155013571Y-65356428D01*
X157656428Y-66570714D02*
X157585000Y-66642142D01*
X157370714Y-66713571D01*
X157227857Y-66713571D01*
X157013571Y-66642142D01*
X156870714Y-66499285D01*
X156799285Y-66356428D01*
X156727857Y-66070714D01*
X156727857Y-65856428D01*
X156799285Y-65570714D01*
X156870714Y-65427857D01*
X157013571Y-65285000D01*
X157227857Y-65213571D01*
X157370714Y-65213571D01*
X157585000Y-65285000D01*
X157656428Y-65356428D01*
X158585000Y-65213571D02*
X158870714Y-65213571D01*
X159013571Y-65285000D01*
X159156428Y-65427857D01*
X159227857Y-65713571D01*
X159227857Y-66213571D01*
X159156428Y-66499285D01*
X159013571Y-66642142D01*
X158870714Y-66713571D01*
X158585000Y-66713571D01*
X158442142Y-66642142D01*
X158299285Y-66499285D01*
X158227857Y-66213571D01*
X158227857Y-65713571D01*
X158299285Y-65427857D01*
X158442142Y-65285000D01*
X158585000Y-65213571D01*
X159870714Y-66713571D02*
X159870714Y-65213571D01*
X160727857Y-66713571D01*
X160727857Y-65213571D01*
X161227857Y-65213571D02*
X161727857Y-66713571D01*
X162227857Y-65213571D01*
X162727857Y-65927857D02*
X163227857Y-65927857D01*
X163442142Y-66713571D02*
X162727857Y-66713571D01*
X162727857Y-65213571D01*
X163442142Y-65213571D01*
X164942142Y-66713571D02*
X164442142Y-65999285D01*
X164085000Y-66713571D02*
X164085000Y-65213571D01*
X164656428Y-65213571D01*
X164799285Y-65285000D01*
X164870714Y-65356428D01*
X164942142Y-65499285D01*
X164942142Y-65713571D01*
X164870714Y-65856428D01*
X164799285Y-65927857D01*
X164656428Y-65999285D01*
X164085000Y-65999285D01*
X165370714Y-65213571D02*
X166227857Y-65213571D01*
X165799285Y-66713571D02*
X165799285Y-65213571D01*
X166727857Y-65927857D02*
X167227857Y-65927857D01*
X167442142Y-66713571D02*
X166727857Y-66713571D01*
X166727857Y-65213571D01*
X167442142Y-65213571D01*
X168942142Y-66713571D02*
X168442142Y-65999285D01*
X168085000Y-66713571D02*
X168085000Y-65213571D01*
X168656428Y-65213571D01*
X168799285Y-65285000D01*
X168870714Y-65356428D01*
X168942142Y-65499285D01*
X168942142Y-65713571D01*
X168870714Y-65856428D01*
X168799285Y-65927857D01*
X168656428Y-65999285D01*
X168085000Y-65999285D01*
X169513571Y-66642142D02*
X169727857Y-66713571D01*
X170085000Y-66713571D01*
X170227857Y-66642142D01*
X170299285Y-66570714D01*
X170370714Y-66427857D01*
X170370714Y-66285000D01*
X170299285Y-66142142D01*
X170227857Y-66070714D01*
X170085000Y-65999285D01*
X169799285Y-65927857D01*
X169656428Y-65856428D01*
X169585000Y-65785000D01*
X169513571Y-65642142D01*
X169513571Y-65499285D01*
X169585000Y-65356428D01*
X169656428Y-65285000D01*
X169799285Y-65213571D01*
X170156428Y-65213571D01*
X170370714Y-65285000D01*
X136942142Y-68477857D02*
X136442142Y-68477857D01*
X136442142Y-69263571D02*
X136442142Y-67763571D01*
X137156428Y-67763571D01*
X138013571Y-67763571D02*
X138299285Y-67763571D01*
X138442142Y-67835000D01*
X138585000Y-67977857D01*
X138656428Y-68263571D01*
X138656428Y-68763571D01*
X138585000Y-69049285D01*
X138442142Y-69192142D01*
X138299285Y-69263571D01*
X138013571Y-69263571D01*
X137870714Y-69192142D01*
X137727857Y-69049285D01*
X137656428Y-68763571D01*
X137656428Y-68263571D01*
X137727857Y-67977857D01*
X137870714Y-67835000D01*
X138013571Y-67763571D01*
X140156428Y-69263571D02*
X139656428Y-68549285D01*
X139299285Y-69263571D02*
X139299285Y-67763571D01*
X139870714Y-67763571D01*
X140013571Y-67835000D01*
X140085000Y-67906428D01*
X140156428Y-68049285D01*
X140156428Y-68263571D01*
X140085000Y-68406428D01*
X140013571Y-68477857D01*
X139870714Y-68549285D01*
X139299285Y-68549285D01*
X141942142Y-69263571D02*
X141942142Y-67763571D01*
X142513571Y-67763571D01*
X142656428Y-67835000D01*
X142727857Y-67906428D01*
X142799285Y-68049285D01*
X142799285Y-68263571D01*
X142727857Y-68406428D01*
X142656428Y-68477857D01*
X142513571Y-68549285D01*
X141942142Y-68549285D01*
X143727857Y-67763571D02*
X144013571Y-67763571D01*
X144156428Y-67835000D01*
X144299285Y-67977857D01*
X144370714Y-68263571D01*
X144370714Y-68763571D01*
X144299285Y-69049285D01*
X144156428Y-69192142D01*
X144013571Y-69263571D01*
X143727857Y-69263571D01*
X143585000Y-69192142D01*
X143442142Y-69049285D01*
X143370714Y-68763571D01*
X143370714Y-68263571D01*
X143442142Y-67977857D01*
X143585000Y-67835000D01*
X143727857Y-67763571D01*
X144870714Y-67763571D02*
X145227857Y-69263571D01*
X145513571Y-68192142D01*
X145799285Y-69263571D01*
X146156428Y-67763571D01*
X146727857Y-68477857D02*
X147227857Y-68477857D01*
X147442142Y-69263571D02*
X146727857Y-69263571D01*
X146727857Y-67763571D01*
X147442142Y-67763571D01*
X148942142Y-69263571D02*
X148442142Y-68549285D01*
X148085000Y-69263571D02*
X148085000Y-67763571D01*
X148656428Y-67763571D01*
X148799285Y-67835000D01*
X148870714Y-67906428D01*
X148942142Y-68049285D01*
X148942142Y-68263571D01*
X148870714Y-68406428D01*
X148799285Y-68477857D01*
X148656428Y-68549285D01*
X148085000Y-68549285D01*
X149585000Y-69263571D02*
X149585000Y-67763571D01*
X150299285Y-69263571D02*
X150299285Y-67763571D01*
X151156428Y-69263571D01*
X151156428Y-67763571D01*
X152656428Y-67835000D02*
X152513571Y-67763571D01*
X152299285Y-67763571D01*
X152085000Y-67835000D01*
X151942142Y-67977857D01*
X151870714Y-68120714D01*
X151799285Y-68406428D01*
X151799285Y-68620714D01*
X151870714Y-68906428D01*
X151942142Y-69049285D01*
X152085000Y-69192142D01*
X152299285Y-69263571D01*
X152442142Y-69263571D01*
X152656428Y-69192142D01*
X152727857Y-69120714D01*
X152727857Y-68620714D01*
X152442142Y-68620714D01*
X155013571Y-68477857D02*
X154513571Y-68477857D01*
X154513571Y-69263571D02*
X154513571Y-67763571D01*
X155227857Y-67763571D01*
X155799285Y-69263571D02*
X155799285Y-67763571D01*
X156370714Y-67763571D01*
X156513571Y-67835000D01*
X156585000Y-67906428D01*
X156656428Y-68049285D01*
X156656428Y-68263571D01*
X156585000Y-68406428D01*
X156513571Y-68477857D01*
X156370714Y-68549285D01*
X155799285Y-68549285D01*
X158085000Y-67835000D02*
X157942142Y-67763571D01*
X157727857Y-67763571D01*
X157513571Y-67835000D01*
X157370714Y-67977857D01*
X157299285Y-68120714D01*
X157227857Y-68406428D01*
X157227857Y-68620714D01*
X157299285Y-68906428D01*
X157370714Y-69049285D01*
X157513571Y-69192142D01*
X157727857Y-69263571D01*
X157870714Y-69263571D01*
X158085000Y-69192142D01*
X158156428Y-69120714D01*
X158156428Y-68620714D01*
X157870714Y-68620714D01*
X158727857Y-68835000D02*
X159442142Y-68835000D01*
X158585000Y-69263571D02*
X159085000Y-67763571D01*
X159585000Y-69263571D01*
X161156428Y-69192142D02*
X161370714Y-69263571D01*
X161727857Y-69263571D01*
X161870714Y-69192142D01*
X161942142Y-69120714D01*
X162013571Y-68977857D01*
X162013571Y-68835000D01*
X161942142Y-68692142D01*
X161870714Y-68620714D01*
X161727857Y-68549285D01*
X161442142Y-68477857D01*
X161299285Y-68406428D01*
X161227857Y-68335000D01*
X161156428Y-68192142D01*
X161156428Y-68049285D01*
X161227857Y-67906428D01*
X161299285Y-67835000D01*
X161442142Y-67763571D01*
X161799285Y-67763571D01*
X162013571Y-67835000D01*
X162942142Y-68549285D02*
X162942142Y-69263571D01*
X162442142Y-67763571D02*
X162942142Y-68549285D01*
X163442142Y-67763571D01*
X163870714Y-69192142D02*
X164085000Y-69263571D01*
X164442142Y-69263571D01*
X164585000Y-69192142D01*
X164656428Y-69120714D01*
X164727857Y-68977857D01*
X164727857Y-68835000D01*
X164656428Y-68692142D01*
X164585000Y-68620714D01*
X164442142Y-68549285D01*
X164156428Y-68477857D01*
X164013571Y-68406428D01*
X163942142Y-68335000D01*
X163870714Y-68192142D01*
X163870714Y-68049285D01*
X163942142Y-67906428D01*
X164013571Y-67835000D01*
X164156428Y-67763571D01*
X164513571Y-67763571D01*
X164727857Y-67835000D01*
X165156428Y-67763571D02*
X166013571Y-67763571D01*
X165585000Y-69263571D02*
X165585000Y-67763571D01*
X166513571Y-68477857D02*
X167013571Y-68477857D01*
X167227857Y-69263571D02*
X166513571Y-69263571D01*
X166513571Y-67763571D01*
X167227857Y-67763571D01*
X167870714Y-69263571D02*
X167870714Y-67763571D01*
X168370714Y-68835000D01*
X168870714Y-67763571D01*
X168870714Y-69263571D01*
X169513571Y-69192142D02*
X169727857Y-69263571D01*
X170085000Y-69263571D01*
X170227857Y-69192142D01*
X170299285Y-69120714D01*
X170370714Y-68977857D01*
X170370714Y-68835000D01*
X170299285Y-68692142D01*
X170227857Y-68620714D01*
X170085000Y-68549285D01*
X169799285Y-68477857D01*
X169656428Y-68406428D01*
X169585000Y-68335000D01*
X169513571Y-68192142D01*
X169513571Y-68049285D01*
X169585000Y-67906428D01*
X169656428Y-67835000D01*
X169799285Y-67763571D01*
X170156428Y-67763571D01*
X170370714Y-67835000D01*
X137156428Y-71813571D02*
X136442142Y-71813571D01*
X136442142Y-70313571D01*
X137442142Y-70313571D02*
X138299285Y-70313571D01*
X137870714Y-71813571D02*
X137870714Y-70313571D01*
X139656428Y-71670714D02*
X139585000Y-71742142D01*
X139370714Y-71813571D01*
X139227857Y-71813571D01*
X139013571Y-71742142D01*
X138870714Y-71599285D01*
X138799285Y-71456428D01*
X138727857Y-71170714D01*
X138727857Y-70956428D01*
X138799285Y-70670714D01*
X138870714Y-70527857D01*
X139013571Y-70385000D01*
X139227857Y-70313571D01*
X139370714Y-70313571D01*
X139585000Y-70385000D01*
X139656428Y-70456428D01*
X141299285Y-70313571D02*
X142227857Y-70313571D01*
X141727857Y-70885000D01*
X141942142Y-70885000D01*
X142085000Y-70956428D01*
X142156428Y-71027857D01*
X142227857Y-71170714D01*
X142227857Y-71527857D01*
X142156428Y-71670714D01*
X142085000Y-71742142D01*
X141942142Y-71813571D01*
X141513571Y-71813571D01*
X141370714Y-71742142D01*
X141299285Y-71670714D01*
X143085000Y-70956428D02*
X142942142Y-70885000D01*
X142870714Y-70813571D01*
X142799285Y-70670714D01*
X142799285Y-70599285D01*
X142870714Y-70456428D01*
X142942142Y-70385000D01*
X143085000Y-70313571D01*
X143370714Y-70313571D01*
X143513571Y-70385000D01*
X143585000Y-70456428D01*
X143656428Y-70599285D01*
X143656428Y-70670714D01*
X143585000Y-70813571D01*
X143513571Y-70885000D01*
X143370714Y-70956428D01*
X143085000Y-70956428D01*
X142942142Y-71027857D01*
X142870714Y-71099285D01*
X142799285Y-71242142D01*
X142799285Y-71527857D01*
X142870714Y-71670714D01*
X142942142Y-71742142D01*
X143085000Y-71813571D01*
X143370714Y-71813571D01*
X143513571Y-71742142D01*
X143585000Y-71670714D01*
X143656428Y-71527857D01*
X143656428Y-71242142D01*
X143585000Y-71099285D01*
X143513571Y-71027857D01*
X143370714Y-70956428D01*
X144513571Y-70956428D02*
X144370714Y-70885000D01*
X144299285Y-70813571D01*
X144227857Y-70670714D01*
X144227857Y-70599285D01*
X144299285Y-70456428D01*
X144370714Y-70385000D01*
X144513571Y-70313571D01*
X144799285Y-70313571D01*
X144942142Y-70385000D01*
X145013571Y-70456428D01*
X145085000Y-70599285D01*
X145085000Y-70670714D01*
X145013571Y-70813571D01*
X144942142Y-70885000D01*
X144799285Y-70956428D01*
X144513571Y-70956428D01*
X144370714Y-71027857D01*
X144299285Y-71099285D01*
X144227857Y-71242142D01*
X144227857Y-71527857D01*
X144299285Y-71670714D01*
X144370714Y-71742142D01*
X144513571Y-71813571D01*
X144799285Y-71813571D01*
X144942142Y-71742142D01*
X145013571Y-71670714D01*
X145085000Y-71527857D01*
X145085000Y-71242142D01*
X145013571Y-71099285D01*
X144942142Y-71027857D01*
X144799285Y-70956428D01*
X146370714Y-70813571D02*
X146370714Y-71813571D01*
X146013571Y-70242142D02*
X145656428Y-71313571D01*
X146585000Y-71313571D01*
X133477142Y-103390000D02*
X133334285Y-103318571D01*
X133120000Y-103318571D01*
X132905714Y-103390000D01*
X132762857Y-103532857D01*
X132691428Y-103675714D01*
X132620000Y-103961428D01*
X132620000Y-104175714D01*
X132691428Y-104461428D01*
X132762857Y-104604285D01*
X132905714Y-104747142D01*
X133120000Y-104818571D01*
X133262857Y-104818571D01*
X133477142Y-104747142D01*
X133548571Y-104675714D01*
X133548571Y-104175714D01*
X133262857Y-104175714D01*
X134191428Y-104818571D02*
X134191428Y-103318571D01*
X135048571Y-104818571D01*
X135048571Y-103318571D01*
X135762857Y-104818571D02*
X135762857Y-103318571D01*
X136120000Y-103318571D01*
X136334285Y-103390000D01*
X136477142Y-103532857D01*
X136548571Y-103675714D01*
X136620000Y-103961428D01*
X136620000Y-104175714D01*
X136548571Y-104461428D01*
X136477142Y-104604285D01*
X136334285Y-104747142D01*
X136120000Y-104818571D01*
X135762857Y-104818571D01*
D11*
X143878857Y-92993309D02*
X143878857Y-91393309D01*
X144488380Y-91393309D01*
X144640761Y-91469500D01*
X144716952Y-91545690D01*
X144793142Y-91698071D01*
X144793142Y-91926642D01*
X144716952Y-92079023D01*
X144640761Y-92155214D01*
X144488380Y-92231404D01*
X143878857Y-92231404D01*
X146316952Y-91469500D02*
X146164571Y-91393309D01*
X145936000Y-91393309D01*
X145707428Y-91469500D01*
X145555047Y-91621880D01*
X145478857Y-91774261D01*
X145402666Y-92079023D01*
X145402666Y-92307595D01*
X145478857Y-92612357D01*
X145555047Y-92764738D01*
X145707428Y-92917119D01*
X145936000Y-92993309D01*
X146088380Y-92993309D01*
X146316952Y-92917119D01*
X146393142Y-92840928D01*
X146393142Y-92307595D01*
X146088380Y-92307595D01*
X147383619Y-91393309D02*
X147688380Y-91393309D01*
X147840761Y-91469500D01*
X147993142Y-91621880D01*
X148069333Y-91926642D01*
X148069333Y-92459976D01*
X147993142Y-92764738D01*
X147840761Y-92917119D01*
X147688380Y-92993309D01*
X147383619Y-92993309D01*
X147231238Y-92917119D01*
X147078857Y-92764738D01*
X147002666Y-92459976D01*
X147002666Y-91926642D01*
X147078857Y-91621880D01*
X147231238Y-91469500D01*
X147383619Y-91393309D01*
X149059809Y-91393309D02*
X149364571Y-91393309D01*
X149516952Y-91469500D01*
X149669333Y-91621880D01*
X149745523Y-91926642D01*
X149745523Y-92459976D01*
X149669333Y-92764738D01*
X149516952Y-92917119D01*
X149364571Y-92993309D01*
X149059809Y-92993309D01*
X148907428Y-92917119D01*
X148755047Y-92764738D01*
X148678857Y-92459976D01*
X148678857Y-91926642D01*
X148755047Y-91621880D01*
X148907428Y-91469500D01*
X149059809Y-91393309D01*
X150431238Y-92993309D02*
X150431238Y-91393309D01*
X150812190Y-91393309D01*
X151040761Y-91469500D01*
X151193142Y-91621880D01*
X151269333Y-91774261D01*
X151345523Y-92079023D01*
X151345523Y-92307595D01*
X151269333Y-92612357D01*
X151193142Y-92764738D01*
X151040761Y-92917119D01*
X150812190Y-92993309D01*
X150431238Y-92993309D01*
X152869333Y-92993309D02*
X151955047Y-92993309D01*
X152412190Y-92993309D02*
X152412190Y-91393309D01*
X152259809Y-91621880D01*
X152107428Y-91774261D01*
X151955047Y-91850452D01*
X143878857Y-95518309D02*
X143878857Y-93918309D01*
X144488380Y-93918309D01*
X144640761Y-93994500D01*
X144716952Y-94070690D01*
X144793142Y-94223071D01*
X144793142Y-94451642D01*
X144716952Y-94604023D01*
X144640761Y-94680214D01*
X144488380Y-94756404D01*
X143878857Y-94756404D01*
X146316952Y-93994500D02*
X146164571Y-93918309D01*
X145936000Y-93918309D01*
X145707428Y-93994500D01*
X145555047Y-94146880D01*
X145478857Y-94299261D01*
X145402666Y-94604023D01*
X145402666Y-94832595D01*
X145478857Y-95137357D01*
X145555047Y-95289738D01*
X145707428Y-95442119D01*
X145936000Y-95518309D01*
X146088380Y-95518309D01*
X146316952Y-95442119D01*
X146393142Y-95365928D01*
X146393142Y-94832595D01*
X146088380Y-94832595D01*
X147383619Y-93918309D02*
X147688380Y-93918309D01*
X147840761Y-93994500D01*
X147993142Y-94146880D01*
X148069333Y-94451642D01*
X148069333Y-94984976D01*
X147993142Y-95289738D01*
X147840761Y-95442119D01*
X147688380Y-95518309D01*
X147383619Y-95518309D01*
X147231238Y-95442119D01*
X147078857Y-95289738D01*
X147002666Y-94984976D01*
X147002666Y-94451642D01*
X147078857Y-94146880D01*
X147231238Y-93994500D01*
X147383619Y-93918309D01*
X149059809Y-93918309D02*
X149364571Y-93918309D01*
X149516952Y-93994500D01*
X149669333Y-94146880D01*
X149745523Y-94451642D01*
X149745523Y-94984976D01*
X149669333Y-95289738D01*
X149516952Y-95442119D01*
X149364571Y-95518309D01*
X149059809Y-95518309D01*
X148907428Y-95442119D01*
X148755047Y-95289738D01*
X148678857Y-94984976D01*
X148678857Y-94451642D01*
X148755047Y-94146880D01*
X148907428Y-93994500D01*
X149059809Y-93918309D01*
X150431238Y-95518309D02*
X150431238Y-93918309D01*
X150812190Y-93918309D01*
X151040761Y-93994500D01*
X151193142Y-94146880D01*
X151269333Y-94299261D01*
X151345523Y-94604023D01*
X151345523Y-94832595D01*
X151269333Y-95137357D01*
X151193142Y-95289738D01*
X151040761Y-95442119D01*
X150812190Y-95518309D01*
X150431238Y-95518309D01*
X152336000Y-93918309D02*
X152488380Y-93918309D01*
X152640761Y-93994500D01*
X152716952Y-94070690D01*
X152793142Y-94223071D01*
X152869333Y-94527833D01*
X152869333Y-94908785D01*
X152793142Y-95213547D01*
X152716952Y-95365928D01*
X152640761Y-95442119D01*
X152488380Y-95518309D01*
X152336000Y-95518309D01*
X152183619Y-95442119D01*
X152107428Y-95365928D01*
X152031238Y-95213547D01*
X151955047Y-94908785D01*
X151955047Y-94527833D01*
X152031238Y-94223071D01*
X152107428Y-94070690D01*
X152183619Y-93994500D01*
X152336000Y-93918309D01*
X145555047Y-97967119D02*
X145783619Y-98043309D01*
X146164571Y-98043309D01*
X146316952Y-97967119D01*
X146393142Y-97890928D01*
X146469333Y-97738547D01*
X146469333Y-97586166D01*
X146393142Y-97433785D01*
X146316952Y-97357595D01*
X146164571Y-97281404D01*
X145859809Y-97205214D01*
X145707428Y-97129023D01*
X145631238Y-97052833D01*
X145555047Y-96900452D01*
X145555047Y-96748071D01*
X145631238Y-96595690D01*
X145707428Y-96519500D01*
X145859809Y-96443309D01*
X146240761Y-96443309D01*
X146469333Y-96519500D01*
X147459809Y-97281404D02*
X147459809Y-98043309D01*
X146926476Y-96443309D02*
X147459809Y-97281404D01*
X147993142Y-96443309D01*
X148526476Y-98043309D02*
X148526476Y-96443309D01*
X149440761Y-98043309D01*
X149440761Y-96443309D01*
X151116952Y-97890928D02*
X151040761Y-97967119D01*
X150812190Y-98043309D01*
X150659809Y-98043309D01*
X150431238Y-97967119D01*
X150278857Y-97814738D01*
X150202666Y-97662357D01*
X150126476Y-97357595D01*
X150126476Y-97129023D01*
X150202666Y-96824261D01*
X150278857Y-96671880D01*
X150431238Y-96519500D01*
X150659809Y-96443309D01*
X150812190Y-96443309D01*
X151040761Y-96519500D01*
X151116952Y-96595690D01*
X146431238Y-100492119D02*
X146659809Y-100568309D01*
X147040761Y-100568309D01*
X147193142Y-100492119D01*
X147269333Y-100415928D01*
X147345523Y-100263547D01*
X147345523Y-100111166D01*
X147269333Y-99958785D01*
X147193142Y-99882595D01*
X147040761Y-99806404D01*
X146736000Y-99730214D01*
X146583619Y-99654023D01*
X146507428Y-99577833D01*
X146431238Y-99425452D01*
X146431238Y-99273071D01*
X146507428Y-99120690D01*
X146583619Y-99044500D01*
X146736000Y-98968309D01*
X147116952Y-98968309D01*
X147345523Y-99044500D01*
X148945523Y-100415928D02*
X148869333Y-100492119D01*
X148640761Y-100568309D01*
X148488380Y-100568309D01*
X148259809Y-100492119D01*
X148107428Y-100339738D01*
X148031238Y-100187357D01*
X147955047Y-99882595D01*
X147955047Y-99654023D01*
X148031238Y-99349261D01*
X148107428Y-99196880D01*
X148259809Y-99044500D01*
X148488380Y-98968309D01*
X148640761Y-98968309D01*
X148869333Y-99044500D01*
X148945523Y-99120690D01*
X150393142Y-100568309D02*
X149631238Y-100568309D01*
X149631238Y-98968309D01*
X146393142Y-103017119D02*
X146621714Y-103093309D01*
X147002666Y-103093309D01*
X147155047Y-103017119D01*
X147231238Y-102940928D01*
X147307428Y-102788547D01*
X147307428Y-102636166D01*
X147231238Y-102483785D01*
X147155047Y-102407595D01*
X147002666Y-102331404D01*
X146697904Y-102255214D01*
X146545523Y-102179023D01*
X146469333Y-102102833D01*
X146393142Y-101950452D01*
X146393142Y-101798071D01*
X146469333Y-101645690D01*
X146545523Y-101569500D01*
X146697904Y-101493309D01*
X147078857Y-101493309D01*
X147307428Y-101569500D01*
X147993142Y-103093309D02*
X147993142Y-101493309D01*
X148374095Y-101493309D01*
X148602666Y-101569500D01*
X148755047Y-101721880D01*
X148831238Y-101874261D01*
X148907428Y-102179023D01*
X148907428Y-102407595D01*
X148831238Y-102712357D01*
X148755047Y-102864738D01*
X148602666Y-103017119D01*
X148374095Y-103093309D01*
X147993142Y-103093309D01*
X149516952Y-102636166D02*
X150278857Y-102636166D01*
X149364571Y-103093309D02*
X149897904Y-101493309D01*
X150431238Y-103093309D01*
X145174095Y-105161166D02*
X145936000Y-105161166D01*
X145021714Y-105618309D02*
X145555047Y-104018309D01*
X146088380Y-105618309D01*
X147383619Y-105618309D02*
X146621714Y-105618309D01*
X146621714Y-104018309D01*
X147916952Y-104780214D02*
X148450285Y-104780214D01*
X148678857Y-105618309D02*
X147916952Y-105618309D01*
X147916952Y-104018309D01*
X148678857Y-104018309D01*
X150278857Y-105618309D02*
X149745523Y-104856404D01*
X149364571Y-105618309D02*
X149364571Y-104018309D01*
X149974095Y-104018309D01*
X150126476Y-104094500D01*
X150202666Y-104170690D01*
X150278857Y-104323071D01*
X150278857Y-104551642D01*
X150202666Y-104704023D01*
X150126476Y-104780214D01*
X149974095Y-104856404D01*
X149364571Y-104856404D01*
X150736000Y-104018309D02*
X151650285Y-104018309D01*
X151193142Y-105618309D02*
X151193142Y-104018309D01*
X145021714Y-107305214D02*
X144488380Y-107305214D01*
X144488380Y-108143309D02*
X144488380Y-106543309D01*
X145250285Y-106543309D01*
X145783619Y-107686166D02*
X146545523Y-107686166D01*
X145631238Y-108143309D02*
X146164571Y-106543309D01*
X146697904Y-108143309D01*
X147231238Y-106543309D02*
X147231238Y-107838547D01*
X147307428Y-107990928D01*
X147383619Y-108067119D01*
X147536000Y-108143309D01*
X147840761Y-108143309D01*
X147993142Y-108067119D01*
X148069333Y-107990928D01*
X148145523Y-107838547D01*
X148145523Y-106543309D01*
X149669333Y-108143309D02*
X148907428Y-108143309D01*
X148907428Y-106543309D01*
X149974095Y-106543309D02*
X150888380Y-106543309D01*
X150431238Y-108143309D02*
X150431238Y-106543309D01*
X151726476Y-106543309D02*
X151878857Y-106543309D01*
X152031238Y-106619500D01*
X152107428Y-106695690D01*
X152183619Y-106848071D01*
X152259809Y-107152833D01*
X152259809Y-107533785D01*
X152183619Y-107838547D01*
X152107428Y-107990928D01*
X152031238Y-108067119D01*
X151878857Y-108143309D01*
X151726476Y-108143309D01*
X151574095Y-108067119D01*
X151497904Y-107990928D01*
X151421714Y-107838547D01*
X151345523Y-107533785D01*
X151345523Y-107152833D01*
X151421714Y-106848071D01*
X151497904Y-106695690D01*
X151574095Y-106619500D01*
X151726476Y-106543309D01*
X145021714Y-109830214D02*
X144488380Y-109830214D01*
X144488380Y-110668309D02*
X144488380Y-109068309D01*
X145250285Y-109068309D01*
X145783619Y-110211166D02*
X146545523Y-110211166D01*
X145631238Y-110668309D02*
X146164571Y-109068309D01*
X146697904Y-110668309D01*
X147231238Y-109068309D02*
X147231238Y-110363547D01*
X147307428Y-110515928D01*
X147383619Y-110592119D01*
X147536000Y-110668309D01*
X147840761Y-110668309D01*
X147993142Y-110592119D01*
X148069333Y-110515928D01*
X148145523Y-110363547D01*
X148145523Y-109068309D01*
X149669333Y-110668309D02*
X148907428Y-110668309D01*
X148907428Y-109068309D01*
X149974095Y-109068309D02*
X150888380Y-109068309D01*
X150431238Y-110668309D02*
X150431238Y-109068309D01*
X152259809Y-110668309D02*
X151345523Y-110668309D01*
X151802666Y-110668309D02*
X151802666Y-109068309D01*
X151650285Y-109296880D01*
X151497904Y-109449261D01*
X151345523Y-109525452D01*
X146393142Y-113193309D02*
X145859809Y-112431404D01*
X145478857Y-113193309D02*
X145478857Y-111593309D01*
X146088380Y-111593309D01*
X146240761Y-111669500D01*
X146316952Y-111745690D01*
X146393142Y-111898071D01*
X146393142Y-112126642D01*
X146316952Y-112279023D01*
X146240761Y-112355214D01*
X146088380Y-112431404D01*
X145478857Y-112431404D01*
X147078857Y-111593309D02*
X147078857Y-112888547D01*
X147155047Y-113040928D01*
X147231238Y-113117119D01*
X147383619Y-113193309D01*
X147688380Y-113193309D01*
X147840761Y-113117119D01*
X147916952Y-113040928D01*
X147993142Y-112888547D01*
X147993142Y-111593309D01*
X148755047Y-113193309D02*
X148755047Y-111593309D01*
X149669333Y-113193309D01*
X149669333Y-111593309D01*
X150736000Y-111593309D02*
X150888380Y-111593309D01*
X151040761Y-111669500D01*
X151116952Y-111745690D01*
X151193142Y-111898071D01*
X151269333Y-112202833D01*
X151269333Y-112583785D01*
X151193142Y-112888547D01*
X151116952Y-113040928D01*
X151040761Y-113117119D01*
X150888380Y-113193309D01*
X150736000Y-113193309D01*
X150583619Y-113117119D01*
X150507428Y-113040928D01*
X150431238Y-112888547D01*
X150355047Y-112583785D01*
X150355047Y-112202833D01*
X150431238Y-111898071D01*
X150507428Y-111745690D01*
X150583619Y-111669500D01*
X150736000Y-111593309D01*
X146393142Y-115718309D02*
X145859809Y-114956404D01*
X145478857Y-115718309D02*
X145478857Y-114118309D01*
X146088380Y-114118309D01*
X146240761Y-114194500D01*
X146316952Y-114270690D01*
X146393142Y-114423071D01*
X146393142Y-114651642D01*
X146316952Y-114804023D01*
X146240761Y-114880214D01*
X146088380Y-114956404D01*
X145478857Y-114956404D01*
X147078857Y-114118309D02*
X147078857Y-115413547D01*
X147155047Y-115565928D01*
X147231238Y-115642119D01*
X147383619Y-115718309D01*
X147688380Y-115718309D01*
X147840761Y-115642119D01*
X147916952Y-115565928D01*
X147993142Y-115413547D01*
X147993142Y-114118309D01*
X148755047Y-115718309D02*
X148755047Y-114118309D01*
X149669333Y-115718309D01*
X149669333Y-114118309D01*
X151269333Y-115718309D02*
X150355047Y-115718309D01*
X150812190Y-115718309D02*
X150812190Y-114118309D01*
X150659809Y-114346880D01*
X150507428Y-114499261D01*
X150355047Y-114575452D01*
D12*
%TO.C,C25*%
X181866000Y-121748733D02*
X181866000Y-122091267D01*
X180846000Y-121748733D02*
X180846000Y-122091267D01*
%TO.C,R27*%
X211602064Y-135314000D02*
X207497936Y-135314000D01*
X211602064Y-131894000D02*
X207497936Y-131894000D01*
%TO.C,R26*%
X212811564Y-97722000D02*
X208707436Y-97722000D01*
X212811564Y-94302000D02*
X208707436Y-94302000D01*
D13*
%TO.C,L2*%
X193120000Y-136144000D02*
X193120000Y-138604000D01*
X193120000Y-138604000D02*
X203120000Y-138604000D01*
X203120000Y-131064000D02*
X203120000Y-128604000D01*
X203120000Y-128604000D02*
X193120000Y-128604000D01*
%TO.C,L1*%
X193531000Y-98552000D02*
X193531000Y-101012000D01*
X193531000Y-101012000D02*
X203531000Y-101012000D01*
X203531000Y-93472000D02*
X203531000Y-91012000D01*
X203531000Y-91012000D02*
X193531000Y-91012000D01*
D12*
%TO.C,C22*%
X194354750Y-112247750D02*
X195142250Y-112247750D01*
X194748500Y-112641500D02*
X194748500Y-111854000D01*
X198941563Y-111614000D02*
X200006000Y-110549563D01*
X194250437Y-111614000D02*
X193186000Y-110549563D01*
X194250437Y-111614000D02*
X195536000Y-111614000D01*
X198941563Y-111614000D02*
X197656000Y-111614000D01*
X200006000Y-110549563D02*
X200006000Y-104794000D01*
X193186000Y-110549563D02*
X193186000Y-104794000D01*
X193186000Y-104794000D02*
X195536000Y-104794000D01*
X200006000Y-104794000D02*
X197656000Y-104794000D01*
%TO.C,C21*%
X198837250Y-117368250D02*
X198049750Y-117368250D01*
X198443500Y-116974500D02*
X198443500Y-117762000D01*
X194250437Y-118002000D02*
X193186000Y-119066437D01*
X198941563Y-118002000D02*
X200006000Y-119066437D01*
X198941563Y-118002000D02*
X197656000Y-118002000D01*
X194250437Y-118002000D02*
X195536000Y-118002000D01*
X193186000Y-119066437D02*
X193186000Y-124822000D01*
X200006000Y-119066437D02*
X200006000Y-124822000D01*
X200006000Y-124822000D02*
X197656000Y-124822000D01*
X193186000Y-124822000D02*
X195536000Y-124822000D01*
%TO.C,C17*%
X219157250Y-135816250D02*
X218369750Y-135816250D01*
X218763500Y-135422500D02*
X218763500Y-136210000D01*
X214570437Y-136450000D02*
X213506000Y-137514437D01*
X219261563Y-136450000D02*
X220326000Y-137514437D01*
X219261563Y-136450000D02*
X217976000Y-136450000D01*
X214570437Y-136450000D02*
X215856000Y-136450000D01*
X213506000Y-137514437D02*
X213506000Y-143270000D01*
X220326000Y-137514437D02*
X220326000Y-143270000D01*
X220326000Y-143270000D02*
X217976000Y-143270000D01*
X213506000Y-143270000D02*
X215856000Y-143270000D01*
%TO.C,C15*%
X228047250Y-135656250D02*
X227259750Y-135656250D01*
X227653500Y-135262500D02*
X227653500Y-136050000D01*
X223460437Y-136290000D02*
X222396000Y-137354437D01*
X228151563Y-136290000D02*
X229216000Y-137354437D01*
X228151563Y-136290000D02*
X226866000Y-136290000D01*
X223460437Y-136290000D02*
X224746000Y-136290000D01*
X222396000Y-137354437D02*
X222396000Y-143110000D01*
X229216000Y-137354437D02*
X229216000Y-143110000D01*
X229216000Y-143110000D02*
X226866000Y-143110000D01*
X222396000Y-143110000D02*
X224746000Y-143110000D01*
%TO.C,C14*%
X224834750Y-93611750D02*
X225622250Y-93611750D01*
X225228500Y-94005500D02*
X225228500Y-93218000D01*
X229421563Y-92978000D02*
X230486000Y-91913563D01*
X224730437Y-92978000D02*
X223666000Y-91913563D01*
X224730437Y-92978000D02*
X226016000Y-92978000D01*
X229421563Y-92978000D02*
X228136000Y-92978000D01*
X230486000Y-91913563D02*
X230486000Y-86158000D01*
X223666000Y-91913563D02*
X223666000Y-86158000D01*
X223666000Y-86158000D02*
X226016000Y-86158000D01*
X230486000Y-86158000D02*
X228136000Y-86158000D01*
%TO.C,C13*%
X215182750Y-93291750D02*
X215970250Y-93291750D01*
X215576500Y-93685500D02*
X215576500Y-92898000D01*
X219769563Y-92658000D02*
X220834000Y-91593563D01*
X215078437Y-92658000D02*
X214014000Y-91593563D01*
X215078437Y-92658000D02*
X216364000Y-92658000D01*
X219769563Y-92658000D02*
X218484000Y-92658000D01*
X220834000Y-91593563D02*
X220834000Y-85838000D01*
X214014000Y-91593563D02*
X214014000Y-85838000D01*
X214014000Y-85838000D02*
X216364000Y-85838000D01*
X220834000Y-85838000D02*
X218484000Y-85838000D01*
%TO.C,TP12*%
X170364000Y-148463000D02*
G75*
G03*
X170364000Y-148463000I-1200000J0D01*
G01*
%TO.C,TP11*%
X171126000Y-78867000D02*
G75*
G03*
X171126000Y-78867000I-1200000J0D01*
G01*
%TO.C,Q4*%
X183955840Y-96390000D02*
X183955840Y-90270000D01*
X189325840Y-96390000D02*
X189325840Y-90270000D01*
X184305840Y-90270000D02*
X183955840Y-90270000D01*
X184255840Y-96390000D02*
X183955840Y-96390000D01*
X189025840Y-96390000D02*
X189325840Y-96390000D01*
%TO.C,U1*%
X174869500Y-118476400D02*
X174869500Y-118951400D01*
X174869500Y-118951400D02*
X174394500Y-118951400D01*
X167649500Y-112206400D02*
X167649500Y-111731400D01*
X167649500Y-111731400D02*
X168124500Y-111731400D01*
X167649500Y-118476400D02*
X167649500Y-118951400D01*
X167649500Y-118951400D02*
X168124500Y-118951400D01*
X174869500Y-112206400D02*
X174869500Y-111731400D01*
%TO.C,Q6*%
X183725880Y-133276800D02*
X183425880Y-133276800D01*
X188495880Y-133276800D02*
X188795880Y-133276800D01*
X188445880Y-139396800D02*
X188795880Y-139396800D01*
X183425880Y-133276800D02*
X183425880Y-139396800D01*
X188795880Y-133276800D02*
X188795880Y-139396800D01*
%TO.C,Q5*%
X188856840Y-124615640D02*
X188856840Y-130735640D01*
X183486840Y-124615640D02*
X183486840Y-130735640D01*
X188506840Y-130735640D02*
X188856840Y-130735640D01*
X188556840Y-124615640D02*
X188856840Y-124615640D01*
X183786840Y-124615640D02*
X183486840Y-124615640D01*
%TO.C,C2*%
X171760000Y-104453733D02*
X171760000Y-104796267D01*
X170740000Y-104453733D02*
X170740000Y-104796267D01*
%TO.C,C3*%
X198456733Y-84838000D02*
X198799267Y-84838000D01*
X198456733Y-83818000D02*
X198799267Y-83818000D01*
%TO.C,C4*%
X173289500Y-103129233D02*
X173289500Y-103471767D01*
X174309500Y-103129233D02*
X174309500Y-103471767D01*
%TO.C,C5*%
X169716267Y-107922600D02*
X169373733Y-107922600D01*
X169716267Y-108942600D02*
X169373733Y-108942600D01*
%TO.C,C6*%
X173240000Y-108296267D02*
X173240000Y-107953733D01*
X174260000Y-108296267D02*
X174260000Y-107953733D01*
%TO.C,C7*%
X178663387Y-113260000D02*
X178320853Y-113260000D01*
X178663387Y-112240000D02*
X178320853Y-112240000D01*
%TO.C,C8*%
X162477267Y-122684000D02*
X162134733Y-122684000D01*
X162477267Y-121664000D02*
X162134733Y-121664000D01*
%TO.C,C9*%
X166880000Y-122994267D02*
X166880000Y-122651733D01*
X165860000Y-122994267D02*
X165860000Y-122651733D01*
%TO.C,C10*%
X169674000Y-122905733D02*
X169674000Y-123248267D01*
X168654000Y-122905733D02*
X168654000Y-123248267D01*
%TO.C,C11*%
X177762440Y-127919693D02*
X177762440Y-128262227D01*
X178782440Y-127919693D02*
X178782440Y-128262227D01*
%TO.C,C12*%
X169843267Y-125982000D02*
X169500733Y-125982000D01*
X169843267Y-127002000D02*
X169500733Y-127002000D01*
%TO.C,C16*%
X229491000Y-99791733D02*
X229491000Y-100134267D01*
X228471000Y-99791733D02*
X228471000Y-100134267D01*
%TO.C,C18*%
X212850000Y-100271733D02*
X212850000Y-100614267D01*
X213870000Y-100271733D02*
X213870000Y-100614267D01*
%TO.C,C19*%
X229110000Y-129711267D02*
X229110000Y-129368733D01*
X228090000Y-129711267D02*
X228090000Y-129368733D01*
%TO.C,C20*%
X210818000Y-129203267D02*
X210818000Y-128860733D01*
X211838000Y-129203267D02*
X211838000Y-128860733D01*
D14*
%TO.C,D1*%
X180777120Y-118208480D02*
X180777120Y-115658480D01*
X182077120Y-117358480D02*
X182077120Y-115658480D01*
%TO.C,D2*%
X177912000Y-120308000D02*
X177912000Y-122008000D01*
X179212000Y-119458000D02*
X179212000Y-122008000D01*
%TO.C,Q1*%
X201718000Y-143323000D02*
X200618000Y-143323000D01*
X200268000Y-140338000D02*
X200268000Y-143238000D01*
X199968000Y-140338000D02*
X200268000Y-140338000D01*
X199968000Y-143238000D02*
X199968000Y-140338000D01*
X200268000Y-143238000D02*
X199968000Y-143238000D01*
%TO.C,Q2*%
X198778000Y-88826000D02*
X198478000Y-88826000D01*
X198478000Y-88826000D02*
X198478000Y-85926000D01*
X198478000Y-85926000D02*
X198778000Y-85926000D01*
X198778000Y-85926000D02*
X198778000Y-88826000D01*
X200228000Y-88911000D02*
X199128000Y-88911000D01*
D12*
%TO.C,Q3*%
X188948000Y-104649840D02*
X189248000Y-104649840D01*
X184178000Y-104649840D02*
X183878000Y-104649840D01*
X184228000Y-98529840D02*
X183878000Y-98529840D01*
X189248000Y-104649840D02*
X189248000Y-98529840D01*
X183878000Y-104649840D02*
X183878000Y-98529840D01*
%TO.C,R1*%
X167130000Y-104724413D02*
X167130000Y-105066947D01*
X168150000Y-104724413D02*
X168150000Y-105066947D01*
%TO.C,R2*%
X177093667Y-110202440D02*
X176751133Y-110202440D01*
X177093667Y-109182440D02*
X176751133Y-109182440D01*
%TO.C,R3*%
X159953733Y-97260000D02*
X160296267Y-97260000D01*
X159953733Y-96240000D02*
X160296267Y-96240000D01*
%TO.C,R4*%
X153164000Y-121094713D02*
X153164000Y-121437247D01*
X152144000Y-121094713D02*
X152144000Y-121437247D01*
%TO.C,R5*%
X160296267Y-98740000D02*
X159953733Y-98740000D01*
X160296267Y-99760000D02*
X159953733Y-99760000D01*
%TO.C,R6*%
X149604000Y-121130213D02*
X149604000Y-121472747D01*
X150624000Y-121130213D02*
X150624000Y-121472747D01*
%TO.C,R7*%
X158128733Y-93510000D02*
X158471267Y-93510000D01*
X158128733Y-94530000D02*
X158471267Y-94530000D01*
%TO.C,R8*%
X159953733Y-101240000D02*
X160296267Y-101240000D01*
X159953733Y-102260000D02*
X160296267Y-102260000D01*
%TO.C,R9*%
X159953733Y-104510000D02*
X160296267Y-104510000D01*
X159953733Y-103490000D02*
X160296267Y-103490000D01*
%TO.C,R10*%
X158244000Y-121094713D02*
X158244000Y-121437247D01*
X157224000Y-121094713D02*
X157224000Y-121437247D01*
%TO.C,R11*%
X159953733Y-106240000D02*
X160296267Y-106240000D01*
X159953733Y-107260000D02*
X160296267Y-107260000D01*
%TO.C,R12*%
X159953733Y-109510000D02*
X160296267Y-109510000D01*
X159953733Y-108490000D02*
X160296267Y-108490000D01*
%TO.C,R13*%
X154684000Y-119664267D02*
X154684000Y-119321733D01*
X155704000Y-119664267D02*
X155704000Y-119321733D01*
%TO.C,R14*%
X159953733Y-111240000D02*
X160296267Y-111240000D01*
X159953733Y-112260000D02*
X160296267Y-112260000D01*
%TO.C,R15*%
X159953733Y-115010000D02*
X160296267Y-115010000D01*
X159953733Y-113990000D02*
X160296267Y-113990000D01*
%TO.C,R16*%
X152144000Y-126489247D02*
X152144000Y-126146713D01*
X153164000Y-126489247D02*
X153164000Y-126146713D01*
%TO.C,R17*%
X157224000Y-126489247D02*
X157224000Y-126146713D01*
X158244000Y-126489247D02*
X158244000Y-126146713D01*
%TO.C,R18*%
X161005733Y-127764000D02*
X161348267Y-127764000D01*
X161005733Y-126744000D02*
X161348267Y-126744000D01*
%TO.C,R19*%
X149350000Y-126207733D02*
X149350000Y-126550267D01*
X150370000Y-126207733D02*
X150370000Y-126550267D01*
%TO.C,R20*%
X154684000Y-126489247D02*
X154684000Y-126146713D01*
X155704000Y-126489247D02*
X155704000Y-126146713D01*
%TO.C,R21*%
X154684000Y-129763733D02*
X154684000Y-130106267D01*
X155704000Y-129763733D02*
X155704000Y-130106267D01*
%TO.C,R22*%
X171678387Y-130076480D02*
X171335853Y-130076480D01*
X171678387Y-131096480D02*
X171335853Y-131096480D01*
%TO.C,C23*%
X190498000Y-107867267D02*
X190498000Y-107524733D01*
X191518000Y-107867267D02*
X191518000Y-107524733D01*
%TO.C,C24*%
X190498000Y-121607733D02*
X190498000Y-121950267D01*
X191518000Y-121607733D02*
X191518000Y-121950267D01*
%TO.C,TP1*%
X167450000Y-84000000D02*
G75*
G03*
X167450000Y-84000000I-1200000J0D01*
G01*
%TO.C,TP2*%
X177476000Y-98044000D02*
G75*
G03*
X177476000Y-98044000I-1200000J0D01*
G01*
%TO.C,TP3*%
X173666000Y-98552000D02*
G75*
G03*
X173666000Y-98552000I-1200000J0D01*
G01*
%TO.C,TP4*%
X165950000Y-135000000D02*
G75*
G03*
X165950000Y-135000000I-1200000J0D01*
G01*
%TO.C,TP5*%
X176460000Y-91440000D02*
G75*
G03*
X176460000Y-91440000I-1200000J0D01*
G01*
%TO.C,TP6*%
X176460000Y-143002000D02*
G75*
G03*
X176460000Y-143002000I-1200000J0D01*
G01*
%TO.C,C1*%
X200121733Y-145290000D02*
X200464267Y-145290000D01*
X200121733Y-144270000D02*
X200464267Y-144270000D01*
%TO.C,R23*%
X180652267Y-78357000D02*
X180309733Y-78357000D01*
X180652267Y-79377000D02*
X180309733Y-79377000D01*
%TO.C,R24*%
X183446267Y-114048000D02*
X183103733Y-114048000D01*
X183446267Y-113028000D02*
X183103733Y-113028000D01*
%TO.C,R25*%
X179622267Y-148073001D02*
X179279733Y-148073001D01*
X179622267Y-149093001D02*
X179279733Y-149093001D01*
%TO.C,TP7*%
X173158000Y-82550000D02*
G75*
G03*
X173158000Y-82550000I-1200000J0D01*
G01*
%TO.C,TP8*%
X182556000Y-84582000D02*
G75*
G03*
X182556000Y-84582000I-1200000J0D01*
G01*
%TO.C,TP9*%
X168586000Y-139446000D02*
G75*
G03*
X168586000Y-139446000I-1200000J0D01*
G01*
%TO.C,TP10*%
X172650000Y-141986000D02*
G75*
G03*
X172650000Y-141986000I-1200000J0D01*
G01*
%TO.C,J1*%
X214828000Y-111410000D02*
X214828000Y-117190000D01*
X219928000Y-111410000D02*
X219928000Y-117190000D01*
X221048000Y-111410000D02*
X221048000Y-117190000D01*
X214308000Y-111410000D02*
X214308000Y-117190000D01*
X221048000Y-111410000D02*
X214308000Y-111410000D01*
X221048000Y-117190000D02*
X214308000Y-117190000D01*
X214708000Y-111170000D02*
X214068000Y-111170000D01*
X214068000Y-111170000D02*
X214068000Y-111570000D01*
%TO.C,J2*%
X219146000Y-97440000D02*
X219146000Y-103220000D01*
X224246000Y-97440000D02*
X224246000Y-103220000D01*
X225366000Y-97440000D02*
X225366000Y-103220000D01*
X218626000Y-97440000D02*
X218626000Y-103220000D01*
X225366000Y-97440000D02*
X218626000Y-97440000D01*
X225366000Y-103220000D02*
X218626000Y-103220000D01*
X219026000Y-97200000D02*
X218386000Y-97200000D01*
X218386000Y-97200000D02*
X218386000Y-97600000D01*
%TO.C,J3*%
X142300000Y-90872000D02*
X137100000Y-90872000D01*
X142300000Y-113792000D02*
X142300000Y-90872000D01*
X137100000Y-116392000D02*
X137100000Y-90872000D01*
X142300000Y-113792000D02*
X139700000Y-113792000D01*
X139700000Y-113792000D02*
X139700000Y-116392000D01*
X139700000Y-116392000D02*
X137100000Y-116392000D01*
X142300000Y-115062000D02*
X142300000Y-116392000D01*
X142300000Y-116392000D02*
X140970000Y-116392000D01*
%TO.C,J4*%
X223574000Y-132416000D02*
X223574000Y-132016000D01*
X222934000Y-132416000D02*
X223574000Y-132416000D01*
X216594000Y-126396000D02*
X223334000Y-126396000D01*
X216594000Y-132176000D02*
X223334000Y-132176000D01*
X223334000Y-132176000D02*
X223334000Y-126396000D01*
X216594000Y-132176000D02*
X216594000Y-126396000D01*
X217714000Y-132176000D02*
X217714000Y-126396000D01*
X222814000Y-132176000D02*
X222814000Y-126396000D01*
%TO.C,C25*%
D15*
X183143142Y-122562857D02*
X183190761Y-122610476D01*
X183238380Y-122753333D01*
X183238380Y-122848571D01*
X183190761Y-122991428D01*
X183095523Y-123086666D01*
X183000285Y-123134285D01*
X182809809Y-123181904D01*
X182666952Y-123181904D01*
X182476476Y-123134285D01*
X182381238Y-123086666D01*
X182286000Y-122991428D01*
X182238380Y-122848571D01*
X182238380Y-122753333D01*
X182286000Y-122610476D01*
X182333619Y-122562857D01*
X182333619Y-122181904D02*
X182286000Y-122134285D01*
X182238380Y-122039047D01*
X182238380Y-121800952D01*
X182286000Y-121705714D01*
X182333619Y-121658095D01*
X182428857Y-121610476D01*
X182524095Y-121610476D01*
X182666952Y-121658095D01*
X183238380Y-122229523D01*
X183238380Y-121610476D01*
X182238380Y-120705714D02*
X182238380Y-121181904D01*
X182714571Y-121229523D01*
X182666952Y-121181904D01*
X182619333Y-121086666D01*
X182619333Y-120848571D01*
X182666952Y-120753333D01*
X182714571Y-120705714D01*
X182809809Y-120658095D01*
X183047904Y-120658095D01*
X183143142Y-120705714D01*
X183190761Y-120753333D01*
X183238380Y-120848571D01*
X183238380Y-121086666D01*
X183190761Y-121181904D01*
X183143142Y-121229523D01*
%TO.C,R27*%
X208907142Y-136676380D02*
X208573809Y-136200190D01*
X208335714Y-136676380D02*
X208335714Y-135676380D01*
X208716666Y-135676380D01*
X208811904Y-135724000D01*
X208859523Y-135771619D01*
X208907142Y-135866857D01*
X208907142Y-136009714D01*
X208859523Y-136104952D01*
X208811904Y-136152571D01*
X208716666Y-136200190D01*
X208335714Y-136200190D01*
X209288095Y-135771619D02*
X209335714Y-135724000D01*
X209430952Y-135676380D01*
X209669047Y-135676380D01*
X209764285Y-135724000D01*
X209811904Y-135771619D01*
X209859523Y-135866857D01*
X209859523Y-135962095D01*
X209811904Y-136104952D01*
X209240476Y-136676380D01*
X209859523Y-136676380D01*
X210192857Y-135676380D02*
X210859523Y-135676380D01*
X210430952Y-136676380D01*
%TO.C,R26*%
X210116642Y-99084380D02*
X209783309Y-98608190D01*
X209545214Y-99084380D02*
X209545214Y-98084380D01*
X209926166Y-98084380D01*
X210021404Y-98132000D01*
X210069023Y-98179619D01*
X210116642Y-98274857D01*
X210116642Y-98417714D01*
X210069023Y-98512952D01*
X210021404Y-98560571D01*
X209926166Y-98608190D01*
X209545214Y-98608190D01*
X210497595Y-98179619D02*
X210545214Y-98132000D01*
X210640452Y-98084380D01*
X210878547Y-98084380D01*
X210973785Y-98132000D01*
X211021404Y-98179619D01*
X211069023Y-98274857D01*
X211069023Y-98370095D01*
X211021404Y-98512952D01*
X210449976Y-99084380D01*
X211069023Y-99084380D01*
X211926166Y-98084380D02*
X211735690Y-98084380D01*
X211640452Y-98132000D01*
X211592833Y-98179619D01*
X211497595Y-98322476D01*
X211449976Y-98512952D01*
X211449976Y-98893904D01*
X211497595Y-98989142D01*
X211545214Y-99036761D01*
X211640452Y-99084380D01*
X211830928Y-99084380D01*
X211926166Y-99036761D01*
X211973785Y-98989142D01*
X212021404Y-98893904D01*
X212021404Y-98655809D01*
X211973785Y-98560571D01*
X211926166Y-98512952D01*
X211830928Y-98465333D01*
X211640452Y-98465333D01*
X211545214Y-98512952D01*
X211497595Y-98560571D01*
X211449976Y-98655809D01*
%TO.C,L2*%
D16*
X197908333Y-134178523D02*
X197303571Y-134178523D01*
X197303571Y-132908523D01*
X198271190Y-133029476D02*
X198331666Y-132969000D01*
X198452619Y-132908523D01*
X198755000Y-132908523D01*
X198875952Y-132969000D01*
X198936428Y-133029476D01*
X198996904Y-133150428D01*
X198996904Y-133271380D01*
X198936428Y-133452809D01*
X198210714Y-134178523D01*
X198996904Y-134178523D01*
%TO.C,L1*%
X198319333Y-96586523D02*
X197714571Y-96586523D01*
X197714571Y-95316523D01*
X199407904Y-96586523D02*
X198682190Y-96586523D01*
X199045047Y-96586523D02*
X199045047Y-95316523D01*
X198924095Y-95497952D01*
X198803142Y-95618904D01*
X198682190Y-95679380D01*
%TO.C,C22*%
D15*
X201525142Y-109354857D02*
X201572761Y-109402476D01*
X201620380Y-109545333D01*
X201620380Y-109640571D01*
X201572761Y-109783428D01*
X201477523Y-109878666D01*
X201382285Y-109926285D01*
X201191809Y-109973904D01*
X201048952Y-109973904D01*
X200858476Y-109926285D01*
X200763238Y-109878666D01*
X200668000Y-109783428D01*
X200620380Y-109640571D01*
X200620380Y-109545333D01*
X200668000Y-109402476D01*
X200715619Y-109354857D01*
X200715619Y-108973904D02*
X200668000Y-108926285D01*
X200620380Y-108831047D01*
X200620380Y-108592952D01*
X200668000Y-108497714D01*
X200715619Y-108450095D01*
X200810857Y-108402476D01*
X200906095Y-108402476D01*
X201048952Y-108450095D01*
X201620380Y-109021523D01*
X201620380Y-108402476D01*
X200715619Y-108021523D02*
X200668000Y-107973904D01*
X200620380Y-107878666D01*
X200620380Y-107640571D01*
X200668000Y-107545333D01*
X200715619Y-107497714D01*
X200810857Y-107450095D01*
X200906095Y-107450095D01*
X201048952Y-107497714D01*
X201620380Y-108069142D01*
X201620380Y-107450095D01*
%TO.C,C21*%
X201303142Y-122054857D02*
X201350761Y-122102476D01*
X201398380Y-122245333D01*
X201398380Y-122340571D01*
X201350761Y-122483428D01*
X201255523Y-122578666D01*
X201160285Y-122626285D01*
X200969809Y-122673904D01*
X200826952Y-122673904D01*
X200636476Y-122626285D01*
X200541238Y-122578666D01*
X200446000Y-122483428D01*
X200398380Y-122340571D01*
X200398380Y-122245333D01*
X200446000Y-122102476D01*
X200493619Y-122054857D01*
X200493619Y-121673904D02*
X200446000Y-121626285D01*
X200398380Y-121531047D01*
X200398380Y-121292952D01*
X200446000Y-121197714D01*
X200493619Y-121150095D01*
X200588857Y-121102476D01*
X200684095Y-121102476D01*
X200826952Y-121150095D01*
X201398380Y-121721523D01*
X201398380Y-121102476D01*
X201398380Y-120150095D02*
X201398380Y-120721523D01*
X201398380Y-120435809D02*
X200398380Y-120435809D01*
X200541238Y-120531047D01*
X200636476Y-120626285D01*
X200684095Y-120721523D01*
%TO.C,C17*%
X221623142Y-140502857D02*
X221670761Y-140550476D01*
X221718380Y-140693333D01*
X221718380Y-140788571D01*
X221670761Y-140931428D01*
X221575523Y-141026666D01*
X221480285Y-141074285D01*
X221289809Y-141121904D01*
X221146952Y-141121904D01*
X220956476Y-141074285D01*
X220861238Y-141026666D01*
X220766000Y-140931428D01*
X220718380Y-140788571D01*
X220718380Y-140693333D01*
X220766000Y-140550476D01*
X220813619Y-140502857D01*
X221718380Y-139550476D02*
X221718380Y-140121904D01*
X221718380Y-139836190D02*
X220718380Y-139836190D01*
X220861238Y-139931428D01*
X220956476Y-140026666D01*
X221004095Y-140121904D01*
X220718380Y-139217142D02*
X220718380Y-138550476D01*
X221718380Y-138979047D01*
%TO.C,C15*%
X230513142Y-140342857D02*
X230560761Y-140390476D01*
X230608380Y-140533333D01*
X230608380Y-140628571D01*
X230560761Y-140771428D01*
X230465523Y-140866666D01*
X230370285Y-140914285D01*
X230179809Y-140961904D01*
X230036952Y-140961904D01*
X229846476Y-140914285D01*
X229751238Y-140866666D01*
X229656000Y-140771428D01*
X229608380Y-140628571D01*
X229608380Y-140533333D01*
X229656000Y-140390476D01*
X229703619Y-140342857D01*
X230608380Y-139390476D02*
X230608380Y-139961904D01*
X230608380Y-139676190D02*
X229608380Y-139676190D01*
X229751238Y-139771428D01*
X229846476Y-139866666D01*
X229894095Y-139961904D01*
X229608380Y-138485714D02*
X229608380Y-138961904D01*
X230084571Y-139009523D01*
X230036952Y-138961904D01*
X229989333Y-138866666D01*
X229989333Y-138628571D01*
X230036952Y-138533333D01*
X230084571Y-138485714D01*
X230179809Y-138438095D01*
X230417904Y-138438095D01*
X230513142Y-138485714D01*
X230560761Y-138533333D01*
X230608380Y-138628571D01*
X230608380Y-138866666D01*
X230560761Y-138961904D01*
X230513142Y-139009523D01*
%TO.C,C14*%
X223083142Y-90210857D02*
X223130761Y-90258476D01*
X223178380Y-90401333D01*
X223178380Y-90496571D01*
X223130761Y-90639428D01*
X223035523Y-90734666D01*
X222940285Y-90782285D01*
X222749809Y-90829904D01*
X222606952Y-90829904D01*
X222416476Y-90782285D01*
X222321238Y-90734666D01*
X222226000Y-90639428D01*
X222178380Y-90496571D01*
X222178380Y-90401333D01*
X222226000Y-90258476D01*
X222273619Y-90210857D01*
X223178380Y-89258476D02*
X223178380Y-89829904D01*
X223178380Y-89544190D02*
X222178380Y-89544190D01*
X222321238Y-89639428D01*
X222416476Y-89734666D01*
X222464095Y-89829904D01*
X222511714Y-88401333D02*
X223178380Y-88401333D01*
X222130761Y-88639428D02*
X222845047Y-88877523D01*
X222845047Y-88258476D01*
%TO.C,C13*%
X213431142Y-89890857D02*
X213478761Y-89938476D01*
X213526380Y-90081333D01*
X213526380Y-90176571D01*
X213478761Y-90319428D01*
X213383523Y-90414666D01*
X213288285Y-90462285D01*
X213097809Y-90509904D01*
X212954952Y-90509904D01*
X212764476Y-90462285D01*
X212669238Y-90414666D01*
X212574000Y-90319428D01*
X212526380Y-90176571D01*
X212526380Y-90081333D01*
X212574000Y-89938476D01*
X212621619Y-89890857D01*
X213526380Y-88938476D02*
X213526380Y-89509904D01*
X213526380Y-89224190D02*
X212526380Y-89224190D01*
X212669238Y-89319428D01*
X212764476Y-89414666D01*
X212812095Y-89509904D01*
X212526380Y-88605142D02*
X212526380Y-87986095D01*
X212907333Y-88319428D01*
X212907333Y-88176571D01*
X212954952Y-88081333D01*
X213002571Y-88033714D01*
X213097809Y-87986095D01*
X213335904Y-87986095D01*
X213431142Y-88033714D01*
X213478761Y-88081333D01*
X213526380Y-88176571D01*
X213526380Y-88462285D01*
X213478761Y-88557523D01*
X213431142Y-88605142D01*
%TO.C,TP12*%
X163741904Y-148932380D02*
X164313333Y-148932380D01*
X164027619Y-149932380D02*
X164027619Y-148932380D01*
X164646666Y-149932380D02*
X164646666Y-148932380D01*
X165027619Y-148932380D01*
X165122857Y-148980000D01*
X165170476Y-149027619D01*
X165218095Y-149122857D01*
X165218095Y-149265714D01*
X165170476Y-149360952D01*
X165122857Y-149408571D01*
X165027619Y-149456190D01*
X164646666Y-149456190D01*
X166170476Y-149932380D02*
X165599047Y-149932380D01*
X165884761Y-149932380D02*
X165884761Y-148932380D01*
X165789523Y-149075238D01*
X165694285Y-149170476D01*
X165599047Y-149218095D01*
X166551428Y-149027619D02*
X166599047Y-148980000D01*
X166694285Y-148932380D01*
X166932380Y-148932380D01*
X167027619Y-148980000D01*
X167075238Y-149027619D01*
X167122857Y-149122857D01*
X167122857Y-149218095D01*
X167075238Y-149360952D01*
X166503809Y-149932380D01*
X167122857Y-149932380D01*
%TO.C,TP11*%
X171861904Y-77592380D02*
X172433333Y-77592380D01*
X172147619Y-78592380D02*
X172147619Y-77592380D01*
X172766666Y-78592380D02*
X172766666Y-77592380D01*
X173147619Y-77592380D01*
X173242857Y-77640000D01*
X173290476Y-77687619D01*
X173338095Y-77782857D01*
X173338095Y-77925714D01*
X173290476Y-78020952D01*
X173242857Y-78068571D01*
X173147619Y-78116190D01*
X172766666Y-78116190D01*
X174290476Y-78592380D02*
X173719047Y-78592380D01*
X174004761Y-78592380D02*
X174004761Y-77592380D01*
X173909523Y-77735238D01*
X173814285Y-77830476D01*
X173719047Y-77878095D01*
X175242857Y-78592380D02*
X174671428Y-78592380D01*
X174957142Y-78592380D02*
X174957142Y-77592380D01*
X174861904Y-77735238D01*
X174766666Y-77830476D01*
X174671428Y-77878095D01*
%TO.C,Q4*%
X183681619Y-92811958D02*
X183634000Y-92907196D01*
X183538761Y-93002434D01*
X183395904Y-93145291D01*
X183348285Y-93240529D01*
X183348285Y-93335767D01*
X183586380Y-93288148D02*
X183538761Y-93383386D01*
X183443523Y-93478624D01*
X183253047Y-93526243D01*
X182919714Y-93526243D01*
X182729238Y-93478624D01*
X182634000Y-93383386D01*
X182586380Y-93288148D01*
X182586380Y-93097672D01*
X182634000Y-93002434D01*
X182729238Y-92907196D01*
X182919714Y-92859577D01*
X183253047Y-92859577D01*
X183443523Y-92907196D01*
X183538761Y-93002434D01*
X183586380Y-93097672D01*
X183586380Y-93288148D01*
X182919714Y-92002434D02*
X183586380Y-92002434D01*
X182538761Y-92240529D02*
X183253047Y-92478624D01*
X183253047Y-91859577D01*
%TO.C,U1*%
X173434760Y-122168824D02*
X174244284Y-122168824D01*
X174339522Y-122121205D01*
X174387141Y-122073586D01*
X174434760Y-121978348D01*
X174434760Y-121787872D01*
X174387141Y-121692634D01*
X174339522Y-121645015D01*
X174244284Y-121597396D01*
X173434760Y-121597396D01*
X174434760Y-120597396D02*
X174434760Y-121168824D01*
X174434760Y-120883110D02*
X173434760Y-120883110D01*
X173577618Y-120978348D01*
X173672856Y-121073586D01*
X173720475Y-121168824D01*
%TO.C,Q6*%
X181141619Y-135248638D02*
X181094000Y-135343876D01*
X180998761Y-135439114D01*
X180855904Y-135581971D01*
X180808285Y-135677209D01*
X180808285Y-135772447D01*
X181046380Y-135724828D02*
X180998761Y-135820066D01*
X180903523Y-135915304D01*
X180713047Y-135962923D01*
X180379714Y-135962923D01*
X180189238Y-135915304D01*
X180094000Y-135820066D01*
X180046380Y-135724828D01*
X180046380Y-135534352D01*
X180094000Y-135439114D01*
X180189238Y-135343876D01*
X180379714Y-135296257D01*
X180713047Y-135296257D01*
X180903523Y-135343876D01*
X180998761Y-135439114D01*
X181046380Y-135534352D01*
X181046380Y-135724828D01*
X180046380Y-134439114D02*
X180046380Y-134629590D01*
X180094000Y-134724828D01*
X180141619Y-134772447D01*
X180284476Y-134867685D01*
X180474952Y-134915304D01*
X180855904Y-134915304D01*
X180951142Y-134867685D01*
X180998761Y-134820066D01*
X181046380Y-134724828D01*
X181046380Y-134534352D01*
X180998761Y-134439114D01*
X180951142Y-134391495D01*
X180855904Y-134343876D01*
X180617809Y-134343876D01*
X180522571Y-134391495D01*
X180474952Y-134439114D01*
X180427333Y-134534352D01*
X180427333Y-134724828D01*
X180474952Y-134820066D01*
X180522571Y-134867685D01*
X180617809Y-134915304D01*
%TO.C,Q5*%
X182157619Y-128873238D02*
X182110000Y-128968476D01*
X182014761Y-129063714D01*
X181871904Y-129206571D01*
X181824285Y-129301809D01*
X181824285Y-129397047D01*
X182062380Y-129349428D02*
X182014761Y-129444666D01*
X181919523Y-129539904D01*
X181729047Y-129587523D01*
X181395714Y-129587523D01*
X181205238Y-129539904D01*
X181110000Y-129444666D01*
X181062380Y-129349428D01*
X181062380Y-129158952D01*
X181110000Y-129063714D01*
X181205238Y-128968476D01*
X181395714Y-128920857D01*
X181729047Y-128920857D01*
X181919523Y-128968476D01*
X182014761Y-129063714D01*
X182062380Y-129158952D01*
X182062380Y-129349428D01*
X181062380Y-128016095D02*
X181062380Y-128492285D01*
X181538571Y-128539904D01*
X181490952Y-128492285D01*
X181443333Y-128397047D01*
X181443333Y-128158952D01*
X181490952Y-128063714D01*
X181538571Y-128016095D01*
X181633809Y-127968476D01*
X181871904Y-127968476D01*
X181967142Y-128016095D01*
X182014761Y-128063714D01*
X182062380Y-128158952D01*
X182062380Y-128397047D01*
X182014761Y-128492285D01*
X181967142Y-128539904D01*
%TO.C,C2*%
X172823142Y-102147666D02*
X172870761Y-102195285D01*
X172918380Y-102338142D01*
X172918380Y-102433380D01*
X172870761Y-102576238D01*
X172775523Y-102671476D01*
X172680285Y-102719095D01*
X172489809Y-102766714D01*
X172346952Y-102766714D01*
X172156476Y-102719095D01*
X172061238Y-102671476D01*
X171966000Y-102576238D01*
X171918380Y-102433380D01*
X171918380Y-102338142D01*
X171966000Y-102195285D01*
X172013619Y-102147666D01*
X172013619Y-101766714D02*
X171966000Y-101719095D01*
X171918380Y-101623857D01*
X171918380Y-101385761D01*
X171966000Y-101290523D01*
X172013619Y-101242904D01*
X172108857Y-101195285D01*
X172204095Y-101195285D01*
X172346952Y-101242904D01*
X172918380Y-101814333D01*
X172918380Y-101195285D01*
%TO.C,C3*%
X201650333Y-84939142D02*
X201602714Y-84986761D01*
X201459857Y-85034380D01*
X201364619Y-85034380D01*
X201221761Y-84986761D01*
X201126523Y-84891523D01*
X201078904Y-84796285D01*
X201031285Y-84605809D01*
X201031285Y-84462952D01*
X201078904Y-84272476D01*
X201126523Y-84177238D01*
X201221761Y-84082000D01*
X201364619Y-84034380D01*
X201459857Y-84034380D01*
X201602714Y-84082000D01*
X201650333Y-84129619D01*
X201983666Y-84034380D02*
X202602714Y-84034380D01*
X202269380Y-84415333D01*
X202412238Y-84415333D01*
X202507476Y-84462952D01*
X202555095Y-84510571D01*
X202602714Y-84605809D01*
X202602714Y-84843904D01*
X202555095Y-84939142D01*
X202507476Y-84986761D01*
X202412238Y-85034380D01*
X202126523Y-85034380D01*
X202031285Y-84986761D01*
X201983666Y-84939142D01*
%TO.C,C4*%
X174396642Y-100950166D02*
X174444261Y-100997785D01*
X174491880Y-101140642D01*
X174491880Y-101235880D01*
X174444261Y-101378738D01*
X174349023Y-101473976D01*
X174253785Y-101521595D01*
X174063309Y-101569214D01*
X173920452Y-101569214D01*
X173729976Y-101521595D01*
X173634738Y-101473976D01*
X173539500Y-101378738D01*
X173491880Y-101235880D01*
X173491880Y-101140642D01*
X173539500Y-100997785D01*
X173587119Y-100950166D01*
X173825214Y-100093023D02*
X174491880Y-100093023D01*
X173444261Y-100331119D02*
X174158547Y-100569214D01*
X174158547Y-99950166D01*
%TO.C,C5*%
X169166213Y-106600262D02*
X169118594Y-106647881D01*
X168975737Y-106695500D01*
X168880499Y-106695500D01*
X168737641Y-106647881D01*
X168642403Y-106552643D01*
X168594784Y-106457405D01*
X168547165Y-106266929D01*
X168547165Y-106124072D01*
X168594784Y-105933596D01*
X168642403Y-105838358D01*
X168737641Y-105743120D01*
X168880499Y-105695500D01*
X168975737Y-105695500D01*
X169118594Y-105743120D01*
X169166213Y-105790739D01*
X170070975Y-105695500D02*
X169594784Y-105695500D01*
X169547165Y-106171691D01*
X169594784Y-106124072D01*
X169690022Y-106076453D01*
X169928118Y-106076453D01*
X170023356Y-106124072D01*
X170070975Y-106171691D01*
X170118594Y-106266929D01*
X170118594Y-106505024D01*
X170070975Y-106600262D01*
X170023356Y-106647881D01*
X169928118Y-106695500D01*
X169690022Y-106695500D01*
X169594784Y-106647881D01*
X169547165Y-106600262D01*
%TO.C,C6*%
X174601142Y-110656666D02*
X174648761Y-110704285D01*
X174696380Y-110847142D01*
X174696380Y-110942380D01*
X174648761Y-111085238D01*
X174553523Y-111180476D01*
X174458285Y-111228095D01*
X174267809Y-111275714D01*
X174124952Y-111275714D01*
X173934476Y-111228095D01*
X173839238Y-111180476D01*
X173744000Y-111085238D01*
X173696380Y-110942380D01*
X173696380Y-110847142D01*
X173744000Y-110704285D01*
X173791619Y-110656666D01*
X173696380Y-109799523D02*
X173696380Y-109990000D01*
X173744000Y-110085238D01*
X173791619Y-110132857D01*
X173934476Y-110228095D01*
X174124952Y-110275714D01*
X174505904Y-110275714D01*
X174601142Y-110228095D01*
X174648761Y-110180476D01*
X174696380Y-110085238D01*
X174696380Y-109894761D01*
X174648761Y-109799523D01*
X174601142Y-109751904D01*
X174505904Y-109704285D01*
X174267809Y-109704285D01*
X174172571Y-109751904D01*
X174124952Y-109799523D01*
X174077333Y-109894761D01*
X174077333Y-110085238D01*
X174124952Y-110180476D01*
X174172571Y-110228095D01*
X174267809Y-110275714D01*
%TO.C,C7*%
X180935333Y-113133142D02*
X180887714Y-113180761D01*
X180744857Y-113228380D01*
X180649619Y-113228380D01*
X180506761Y-113180761D01*
X180411523Y-113085523D01*
X180363904Y-112990285D01*
X180316285Y-112799809D01*
X180316285Y-112656952D01*
X180363904Y-112466476D01*
X180411523Y-112371238D01*
X180506761Y-112276000D01*
X180649619Y-112228380D01*
X180744857Y-112228380D01*
X180887714Y-112276000D01*
X180935333Y-112323619D01*
X181268666Y-112228380D02*
X181935333Y-112228380D01*
X181506761Y-113228380D01*
%TO.C,C8*%
X161885333Y-121007142D02*
X161837714Y-121054761D01*
X161694857Y-121102380D01*
X161599619Y-121102380D01*
X161456761Y-121054761D01*
X161361523Y-120959523D01*
X161313904Y-120864285D01*
X161266285Y-120673809D01*
X161266285Y-120530952D01*
X161313904Y-120340476D01*
X161361523Y-120245238D01*
X161456761Y-120150000D01*
X161599619Y-120102380D01*
X161694857Y-120102380D01*
X161837714Y-120150000D01*
X161885333Y-120197619D01*
X162456761Y-120530952D02*
X162361523Y-120483333D01*
X162313904Y-120435714D01*
X162266285Y-120340476D01*
X162266285Y-120292857D01*
X162313904Y-120197619D01*
X162361523Y-120150000D01*
X162456761Y-120102380D01*
X162647238Y-120102380D01*
X162742476Y-120150000D01*
X162790095Y-120197619D01*
X162837714Y-120292857D01*
X162837714Y-120340476D01*
X162790095Y-120435714D01*
X162742476Y-120483333D01*
X162647238Y-120530952D01*
X162456761Y-120530952D01*
X162361523Y-120578571D01*
X162313904Y-120626190D01*
X162266285Y-120721428D01*
X162266285Y-120911904D01*
X162313904Y-121007142D01*
X162361523Y-121054761D01*
X162456761Y-121102380D01*
X162647238Y-121102380D01*
X162742476Y-121054761D01*
X162790095Y-121007142D01*
X162837714Y-120911904D01*
X162837714Y-120721428D01*
X162790095Y-120626190D01*
X162742476Y-120578571D01*
X162647238Y-120530952D01*
%TO.C,C9*%
X166473142Y-126084686D02*
X166520761Y-126132305D01*
X166568380Y-126275162D01*
X166568380Y-126370400D01*
X166520761Y-126513258D01*
X166425523Y-126608496D01*
X166330285Y-126656115D01*
X166139809Y-126703734D01*
X165996952Y-126703734D01*
X165806476Y-126656115D01*
X165711238Y-126608496D01*
X165616000Y-126513258D01*
X165568380Y-126370400D01*
X165568380Y-126275162D01*
X165616000Y-126132305D01*
X165663619Y-126084686D01*
X166568380Y-125608496D02*
X166568380Y-125418020D01*
X166520761Y-125322781D01*
X166473142Y-125275162D01*
X166330285Y-125179924D01*
X166139809Y-125132305D01*
X165758857Y-125132305D01*
X165663619Y-125179924D01*
X165616000Y-125227543D01*
X165568380Y-125322781D01*
X165568380Y-125513258D01*
X165616000Y-125608496D01*
X165663619Y-125656115D01*
X165758857Y-125703734D01*
X165996952Y-125703734D01*
X166092190Y-125656115D01*
X166139809Y-125608496D01*
X166187428Y-125513258D01*
X166187428Y-125322781D01*
X166139809Y-125227543D01*
X166092190Y-125179924D01*
X165996952Y-125132305D01*
%TO.C,C10*%
X171134042Y-123769357D02*
X171181661Y-123816976D01*
X171229280Y-123959833D01*
X171229280Y-124055071D01*
X171181661Y-124197928D01*
X171086423Y-124293166D01*
X170991185Y-124340785D01*
X170800709Y-124388404D01*
X170657852Y-124388404D01*
X170467376Y-124340785D01*
X170372138Y-124293166D01*
X170276900Y-124197928D01*
X170229280Y-124055071D01*
X170229280Y-123959833D01*
X170276900Y-123816976D01*
X170324519Y-123769357D01*
X171229280Y-122816976D02*
X171229280Y-123388404D01*
X171229280Y-123102690D02*
X170229280Y-123102690D01*
X170372138Y-123197928D01*
X170467376Y-123293166D01*
X170514995Y-123388404D01*
X170229280Y-122197928D02*
X170229280Y-122102690D01*
X170276900Y-122007452D01*
X170324519Y-121959833D01*
X170419757Y-121912214D01*
X170610233Y-121864595D01*
X170848328Y-121864595D01*
X171038804Y-121912214D01*
X171134042Y-121959833D01*
X171181661Y-122007452D01*
X171229280Y-122102690D01*
X171229280Y-122197928D01*
X171181661Y-122293166D01*
X171134042Y-122340785D01*
X171038804Y-122388404D01*
X170848328Y-122436023D01*
X170610233Y-122436023D01*
X170419757Y-122388404D01*
X170324519Y-122340785D01*
X170276900Y-122293166D01*
X170229280Y-122197928D01*
%TO.C,C11*%
X178411142Y-132214857D02*
X178458761Y-132262476D01*
X178506380Y-132405333D01*
X178506380Y-132500571D01*
X178458761Y-132643428D01*
X178363523Y-132738666D01*
X178268285Y-132786285D01*
X178077809Y-132833904D01*
X177934952Y-132833904D01*
X177744476Y-132786285D01*
X177649238Y-132738666D01*
X177554000Y-132643428D01*
X177506380Y-132500571D01*
X177506380Y-132405333D01*
X177554000Y-132262476D01*
X177601619Y-132214857D01*
X178506380Y-131262476D02*
X178506380Y-131833904D01*
X178506380Y-131548190D02*
X177506380Y-131548190D01*
X177649238Y-131643428D01*
X177744476Y-131738666D01*
X177792095Y-131833904D01*
X178506380Y-130310095D02*
X178506380Y-130881523D01*
X178506380Y-130595809D02*
X177506380Y-130595809D01*
X177649238Y-130691047D01*
X177744476Y-130786285D01*
X177792095Y-130881523D01*
%TO.C,C12*%
X173243542Y-127952737D02*
X173291161Y-128000356D01*
X173338780Y-128143213D01*
X173338780Y-128238451D01*
X173291161Y-128381308D01*
X173195923Y-128476546D01*
X173100685Y-128524165D01*
X172910209Y-128571784D01*
X172767352Y-128571784D01*
X172576876Y-128524165D01*
X172481638Y-128476546D01*
X172386400Y-128381308D01*
X172338780Y-128238451D01*
X172338780Y-128143213D01*
X172386400Y-128000356D01*
X172434019Y-127952737D01*
X173338780Y-127000356D02*
X173338780Y-127571784D01*
X173338780Y-127286070D02*
X172338780Y-127286070D01*
X172481638Y-127381308D01*
X172576876Y-127476546D01*
X172624495Y-127571784D01*
X172434019Y-126619403D02*
X172386400Y-126571784D01*
X172338780Y-126476546D01*
X172338780Y-126238451D01*
X172386400Y-126143213D01*
X172434019Y-126095594D01*
X172529257Y-126047975D01*
X172624495Y-126047975D01*
X172767352Y-126095594D01*
X173338780Y-126667022D01*
X173338780Y-126047975D01*
%TO.C,C16*%
X230989142Y-100605857D02*
X231036761Y-100653476D01*
X231084380Y-100796333D01*
X231084380Y-100891571D01*
X231036761Y-101034428D01*
X230941523Y-101129666D01*
X230846285Y-101177285D01*
X230655809Y-101224904D01*
X230512952Y-101224904D01*
X230322476Y-101177285D01*
X230227238Y-101129666D01*
X230132000Y-101034428D01*
X230084380Y-100891571D01*
X230084380Y-100796333D01*
X230132000Y-100653476D01*
X230179619Y-100605857D01*
X231084380Y-99653476D02*
X231084380Y-100224904D01*
X231084380Y-99939190D02*
X230084380Y-99939190D01*
X230227238Y-100034428D01*
X230322476Y-100129666D01*
X230370095Y-100224904D01*
X230084380Y-98796333D02*
X230084380Y-98986809D01*
X230132000Y-99082047D01*
X230179619Y-99129666D01*
X230322476Y-99224904D01*
X230512952Y-99272523D01*
X230893904Y-99272523D01*
X230989142Y-99224904D01*
X231036761Y-99177285D01*
X231084380Y-99082047D01*
X231084380Y-98891571D01*
X231036761Y-98796333D01*
X230989142Y-98748714D01*
X230893904Y-98701095D01*
X230655809Y-98701095D01*
X230560571Y-98748714D01*
X230512952Y-98796333D01*
X230465333Y-98891571D01*
X230465333Y-99082047D01*
X230512952Y-99177285D01*
X230560571Y-99224904D01*
X230655809Y-99272523D01*
%TO.C,C18*%
X211939142Y-101085857D02*
X211986761Y-101133476D01*
X212034380Y-101276333D01*
X212034380Y-101371571D01*
X211986761Y-101514428D01*
X211891523Y-101609666D01*
X211796285Y-101657285D01*
X211605809Y-101704904D01*
X211462952Y-101704904D01*
X211272476Y-101657285D01*
X211177238Y-101609666D01*
X211082000Y-101514428D01*
X211034380Y-101371571D01*
X211034380Y-101276333D01*
X211082000Y-101133476D01*
X211129619Y-101085857D01*
X212034380Y-100133476D02*
X212034380Y-100704904D01*
X212034380Y-100419190D02*
X211034380Y-100419190D01*
X211177238Y-100514428D01*
X211272476Y-100609666D01*
X211320095Y-100704904D01*
X211462952Y-99562047D02*
X211415333Y-99657285D01*
X211367714Y-99704904D01*
X211272476Y-99752523D01*
X211224857Y-99752523D01*
X211129619Y-99704904D01*
X211082000Y-99657285D01*
X211034380Y-99562047D01*
X211034380Y-99371571D01*
X211082000Y-99276333D01*
X211129619Y-99228714D01*
X211224857Y-99181095D01*
X211272476Y-99181095D01*
X211367714Y-99228714D01*
X211415333Y-99276333D01*
X211462952Y-99371571D01*
X211462952Y-99562047D01*
X211510571Y-99657285D01*
X211558190Y-99704904D01*
X211653428Y-99752523D01*
X211843904Y-99752523D01*
X211939142Y-99704904D01*
X211986761Y-99657285D01*
X212034380Y-99562047D01*
X212034380Y-99371571D01*
X211986761Y-99276333D01*
X211939142Y-99228714D01*
X211843904Y-99181095D01*
X211653428Y-99181095D01*
X211558190Y-99228714D01*
X211510571Y-99276333D01*
X211462952Y-99371571D01*
%TO.C,C19*%
X228957142Y-133498857D02*
X229004761Y-133546476D01*
X229052380Y-133689333D01*
X229052380Y-133784571D01*
X229004761Y-133927428D01*
X228909523Y-134022666D01*
X228814285Y-134070285D01*
X228623809Y-134117904D01*
X228480952Y-134117904D01*
X228290476Y-134070285D01*
X228195238Y-134022666D01*
X228100000Y-133927428D01*
X228052380Y-133784571D01*
X228052380Y-133689333D01*
X228100000Y-133546476D01*
X228147619Y-133498857D01*
X229052380Y-132546476D02*
X229052380Y-133117904D01*
X229052380Y-132832190D02*
X228052380Y-132832190D01*
X228195238Y-132927428D01*
X228290476Y-133022666D01*
X228338095Y-133117904D01*
X229052380Y-132070285D02*
X229052380Y-131879809D01*
X229004761Y-131784571D01*
X228957142Y-131736952D01*
X228814285Y-131641714D01*
X228623809Y-131594095D01*
X228242857Y-131594095D01*
X228147619Y-131641714D01*
X228100000Y-131689333D01*
X228052380Y-131784571D01*
X228052380Y-131975047D01*
X228100000Y-132070285D01*
X228147619Y-132117904D01*
X228242857Y-132165523D01*
X228480952Y-132165523D01*
X228576190Y-132117904D01*
X228623809Y-132070285D01*
X228671428Y-131975047D01*
X228671428Y-131784571D01*
X228623809Y-131689333D01*
X228576190Y-131641714D01*
X228480952Y-131594095D01*
%TO.C,C20*%
X213717142Y-130831857D02*
X213764761Y-130879476D01*
X213812380Y-131022333D01*
X213812380Y-131117571D01*
X213764761Y-131260428D01*
X213669523Y-131355666D01*
X213574285Y-131403285D01*
X213383809Y-131450904D01*
X213240952Y-131450904D01*
X213050476Y-131403285D01*
X212955238Y-131355666D01*
X212860000Y-131260428D01*
X212812380Y-131117571D01*
X212812380Y-131022333D01*
X212860000Y-130879476D01*
X212907619Y-130831857D01*
X212907619Y-130450904D02*
X212860000Y-130403285D01*
X212812380Y-130308047D01*
X212812380Y-130069952D01*
X212860000Y-129974714D01*
X212907619Y-129927095D01*
X213002857Y-129879476D01*
X213098095Y-129879476D01*
X213240952Y-129927095D01*
X213812380Y-130498523D01*
X213812380Y-129879476D01*
X212812380Y-129260428D02*
X212812380Y-129165190D01*
X212860000Y-129069952D01*
X212907619Y-129022333D01*
X213002857Y-128974714D01*
X213193333Y-128927095D01*
X213431428Y-128927095D01*
X213621904Y-128974714D01*
X213717142Y-129022333D01*
X213764761Y-129069952D01*
X213812380Y-129165190D01*
X213812380Y-129260428D01*
X213764761Y-129355666D01*
X213717142Y-129403285D01*
X213621904Y-129450904D01*
X213431428Y-129498523D01*
X213193333Y-129498523D01*
X213002857Y-129450904D01*
X212907619Y-129403285D01*
X212860000Y-129355666D01*
X212812380Y-129260428D01*
%TO.C,D1*%
D16*
X183962523Y-117523380D02*
X182692523Y-117523380D01*
X182692523Y-117221000D01*
X182753000Y-117039571D01*
X182873952Y-116918619D01*
X182994904Y-116858142D01*
X183236809Y-116797666D01*
X183418238Y-116797666D01*
X183660142Y-116858142D01*
X183781095Y-116918619D01*
X183902047Y-117039571D01*
X183962523Y-117221000D01*
X183962523Y-117523380D01*
X183962523Y-115588142D02*
X183962523Y-116313857D01*
X183962523Y-115951000D02*
X182692523Y-115951000D01*
X182873952Y-116071952D01*
X182994904Y-116192904D01*
X183055380Y-116313857D01*
%TO.C,D2*%
X176850523Y-124381380D02*
X175580523Y-124381380D01*
X175580523Y-124079000D01*
X175641000Y-123897571D01*
X175761952Y-123776619D01*
X175882904Y-123716142D01*
X176124809Y-123655666D01*
X176306238Y-123655666D01*
X176548142Y-123716142D01*
X176669095Y-123776619D01*
X176790047Y-123897571D01*
X176850523Y-124079000D01*
X176850523Y-124381380D01*
X175701476Y-123171857D02*
X175641000Y-123111380D01*
X175580523Y-122990428D01*
X175580523Y-122688047D01*
X175641000Y-122567095D01*
X175701476Y-122506619D01*
X175822428Y-122446142D01*
X175943380Y-122446142D01*
X176124809Y-122506619D01*
X176850523Y-123232333D01*
X176850523Y-122446142D01*
%TO.C,Q1*%
X196896687Y-143331956D02*
X196775735Y-143271480D01*
X196654782Y-143150527D01*
X196473354Y-142969099D01*
X196352401Y-142908622D01*
X196231449Y-142908622D01*
X196291925Y-143211003D02*
X196170973Y-143150527D01*
X196050020Y-143029575D01*
X195989544Y-142787670D01*
X195989544Y-142364337D01*
X196050020Y-142122432D01*
X196170973Y-142001480D01*
X196291925Y-141941003D01*
X196533830Y-141941003D01*
X196654782Y-142001480D01*
X196775735Y-142122432D01*
X196836211Y-142364337D01*
X196836211Y-142787670D01*
X196775735Y-143029575D01*
X196654782Y-143150527D01*
X196533830Y-143211003D01*
X196291925Y-143211003D01*
X198045735Y-143211003D02*
X197320020Y-143211003D01*
X197682878Y-143211003D02*
X197682878Y-141941003D01*
X197561925Y-142122432D01*
X197440973Y-142243384D01*
X197320020Y-142303860D01*
%TO.C,Q2*%
X202138888Y-89472637D02*
X202017936Y-89412161D01*
X201896983Y-89291208D01*
X201715555Y-89109780D01*
X201594602Y-89049303D01*
X201473650Y-89049303D01*
X201534126Y-89351684D02*
X201413174Y-89291208D01*
X201292221Y-89170256D01*
X201231745Y-88928351D01*
X201231745Y-88505018D01*
X201292221Y-88263113D01*
X201413174Y-88142161D01*
X201534126Y-88081684D01*
X201776031Y-88081684D01*
X201896983Y-88142161D01*
X202017936Y-88263113D01*
X202078412Y-88505018D01*
X202078412Y-88928351D01*
X202017936Y-89170256D01*
X201896983Y-89291208D01*
X201776031Y-89351684D01*
X201534126Y-89351684D01*
X202562221Y-88202637D02*
X202622698Y-88142161D01*
X202743650Y-88081684D01*
X203046031Y-88081684D01*
X203166983Y-88142161D01*
X203227460Y-88202637D01*
X203287936Y-88323589D01*
X203287936Y-88444541D01*
X203227460Y-88625970D01*
X202501745Y-89351684D01*
X203287936Y-89351684D01*
%TO.C,Q3*%
D15*
X182919619Y-102965238D02*
X182872000Y-103060476D01*
X182776761Y-103155714D01*
X182633904Y-103298571D01*
X182586285Y-103393809D01*
X182586285Y-103489047D01*
X182824380Y-103441428D02*
X182776761Y-103536666D01*
X182681523Y-103631904D01*
X182491047Y-103679523D01*
X182157714Y-103679523D01*
X181967238Y-103631904D01*
X181872000Y-103536666D01*
X181824380Y-103441428D01*
X181824380Y-103250952D01*
X181872000Y-103155714D01*
X181967238Y-103060476D01*
X182157714Y-103012857D01*
X182491047Y-103012857D01*
X182681523Y-103060476D01*
X182776761Y-103155714D01*
X182824380Y-103250952D01*
X182824380Y-103441428D01*
X181824380Y-102679523D02*
X181824380Y-102060476D01*
X182205333Y-102393809D01*
X182205333Y-102250952D01*
X182252952Y-102155714D01*
X182300571Y-102108095D01*
X182395809Y-102060476D01*
X182633904Y-102060476D01*
X182729142Y-102108095D01*
X182776761Y-102155714D01*
X182824380Y-102250952D01*
X182824380Y-102536666D01*
X182776761Y-102631904D01*
X182729142Y-102679523D01*
%TO.C,R1*%
X169362380Y-105062346D02*
X168886190Y-105395680D01*
X169362380Y-105633775D02*
X168362380Y-105633775D01*
X168362380Y-105252822D01*
X168410000Y-105157584D01*
X168457619Y-105109965D01*
X168552857Y-105062346D01*
X168695714Y-105062346D01*
X168790952Y-105109965D01*
X168838571Y-105157584D01*
X168886190Y-105252822D01*
X168886190Y-105633775D01*
X169362380Y-104109965D02*
X169362380Y-104681394D01*
X169362380Y-104395680D02*
X168362380Y-104395680D01*
X168505238Y-104490918D01*
X168600476Y-104586156D01*
X168648095Y-104681394D01*
%TO.C,R2*%
X177236380Y-108116666D02*
X176760190Y-108450000D01*
X177236380Y-108688095D02*
X176236380Y-108688095D01*
X176236380Y-108307142D01*
X176284000Y-108211904D01*
X176331619Y-108164285D01*
X176426857Y-108116666D01*
X176569714Y-108116666D01*
X176664952Y-108164285D01*
X176712571Y-108211904D01*
X176760190Y-108307142D01*
X176760190Y-108688095D01*
X176331619Y-107735714D02*
X176284000Y-107688095D01*
X176236380Y-107592857D01*
X176236380Y-107354761D01*
X176284000Y-107259523D01*
X176331619Y-107211904D01*
X176426857Y-107164285D01*
X176522095Y-107164285D01*
X176664952Y-107211904D01*
X177236380Y-107783333D01*
X177236380Y-107164285D01*
%TO.C,R3*%
X157313333Y-97226380D02*
X156980000Y-96750190D01*
X156741904Y-97226380D02*
X156741904Y-96226380D01*
X157122857Y-96226380D01*
X157218095Y-96274000D01*
X157265714Y-96321619D01*
X157313333Y-96416857D01*
X157313333Y-96559714D01*
X157265714Y-96654952D01*
X157218095Y-96702571D01*
X157122857Y-96750190D01*
X156741904Y-96750190D01*
X157646666Y-96226380D02*
X158265714Y-96226380D01*
X157932380Y-96607333D01*
X158075238Y-96607333D01*
X158170476Y-96654952D01*
X158218095Y-96702571D01*
X158265714Y-96797809D01*
X158265714Y-97035904D01*
X158218095Y-97131142D01*
X158170476Y-97178761D01*
X158075238Y-97226380D01*
X157789523Y-97226380D01*
X157694285Y-97178761D01*
X157646666Y-97131142D01*
%TO.C,R4*%
X152090380Y-118784666D02*
X151614190Y-119118000D01*
X152090380Y-119356095D02*
X151090380Y-119356095D01*
X151090380Y-118975142D01*
X151138000Y-118879904D01*
X151185619Y-118832285D01*
X151280857Y-118784666D01*
X151423714Y-118784666D01*
X151518952Y-118832285D01*
X151566571Y-118879904D01*
X151614190Y-118975142D01*
X151614190Y-119356095D01*
X151423714Y-117927523D02*
X152090380Y-117927523D01*
X151042761Y-118165619D02*
X151757047Y-118403714D01*
X151757047Y-117784666D01*
%TO.C,R5*%
X157313333Y-99766380D02*
X156980000Y-99290190D01*
X156741904Y-99766380D02*
X156741904Y-98766380D01*
X157122857Y-98766380D01*
X157218095Y-98814000D01*
X157265714Y-98861619D01*
X157313333Y-98956857D01*
X157313333Y-99099714D01*
X157265714Y-99194952D01*
X157218095Y-99242571D01*
X157122857Y-99290190D01*
X156741904Y-99290190D01*
X158218095Y-98766380D02*
X157741904Y-98766380D01*
X157694285Y-99242571D01*
X157741904Y-99194952D01*
X157837142Y-99147333D01*
X158075238Y-99147333D01*
X158170476Y-99194952D01*
X158218095Y-99242571D01*
X158265714Y-99337809D01*
X158265714Y-99575904D01*
X158218095Y-99671142D01*
X158170476Y-99718761D01*
X158075238Y-99766380D01*
X157837142Y-99766380D01*
X157741904Y-99718761D01*
X157694285Y-99671142D01*
%TO.C,R6*%
X148788380Y-121324666D02*
X148312190Y-121658000D01*
X148788380Y-121896095D02*
X147788380Y-121896095D01*
X147788380Y-121515142D01*
X147836000Y-121419904D01*
X147883619Y-121372285D01*
X147978857Y-121324666D01*
X148121714Y-121324666D01*
X148216952Y-121372285D01*
X148264571Y-121419904D01*
X148312190Y-121515142D01*
X148312190Y-121896095D01*
X147788380Y-120467523D02*
X147788380Y-120658000D01*
X147836000Y-120753238D01*
X147883619Y-120800857D01*
X148026476Y-120896095D01*
X148216952Y-120943714D01*
X148597904Y-120943714D01*
X148693142Y-120896095D01*
X148740761Y-120848476D01*
X148788380Y-120753238D01*
X148788380Y-120562761D01*
X148740761Y-120467523D01*
X148693142Y-120419904D01*
X148597904Y-120372285D01*
X148359809Y-120372285D01*
X148264571Y-120419904D01*
X148216952Y-120467523D01*
X148169333Y-120562761D01*
X148169333Y-120753238D01*
X148216952Y-120848476D01*
X148264571Y-120896095D01*
X148359809Y-120943714D01*
%TO.C,R7*%
X160778333Y-94492380D02*
X160445000Y-94016190D01*
X160206904Y-94492380D02*
X160206904Y-93492380D01*
X160587857Y-93492380D01*
X160683095Y-93540000D01*
X160730714Y-93587619D01*
X160778333Y-93682857D01*
X160778333Y-93825714D01*
X160730714Y-93920952D01*
X160683095Y-93968571D01*
X160587857Y-94016190D01*
X160206904Y-94016190D01*
X161111666Y-93492380D02*
X161778333Y-93492380D01*
X161349761Y-94492380D01*
%TO.C,R8*%
X157059333Y-102052380D02*
X156726000Y-101576190D01*
X156487904Y-102052380D02*
X156487904Y-101052380D01*
X156868857Y-101052380D01*
X156964095Y-101100000D01*
X157011714Y-101147619D01*
X157059333Y-101242857D01*
X157059333Y-101385714D01*
X157011714Y-101480952D01*
X156964095Y-101528571D01*
X156868857Y-101576190D01*
X156487904Y-101576190D01*
X157630761Y-101480952D02*
X157535523Y-101433333D01*
X157487904Y-101385714D01*
X157440285Y-101290476D01*
X157440285Y-101242857D01*
X157487904Y-101147619D01*
X157535523Y-101100000D01*
X157630761Y-101052380D01*
X157821238Y-101052380D01*
X157916476Y-101100000D01*
X157964095Y-101147619D01*
X158011714Y-101242857D01*
X158011714Y-101290476D01*
X157964095Y-101385714D01*
X157916476Y-101433333D01*
X157821238Y-101480952D01*
X157630761Y-101480952D01*
X157535523Y-101528571D01*
X157487904Y-101576190D01*
X157440285Y-101671428D01*
X157440285Y-101861904D01*
X157487904Y-101957142D01*
X157535523Y-102004761D01*
X157630761Y-102052380D01*
X157821238Y-102052380D01*
X157916476Y-102004761D01*
X157964095Y-101957142D01*
X158011714Y-101861904D01*
X158011714Y-101671428D01*
X157964095Y-101576190D01*
X157916476Y-101528571D01*
X157821238Y-101480952D01*
%TO.C,R9*%
X157059333Y-104592380D02*
X156726000Y-104116190D01*
X156487904Y-104592380D02*
X156487904Y-103592380D01*
X156868857Y-103592380D01*
X156964095Y-103640000D01*
X157011714Y-103687619D01*
X157059333Y-103782857D01*
X157059333Y-103925714D01*
X157011714Y-104020952D01*
X156964095Y-104068571D01*
X156868857Y-104116190D01*
X156487904Y-104116190D01*
X157535523Y-104592380D02*
X157726000Y-104592380D01*
X157821238Y-104544761D01*
X157868857Y-104497142D01*
X157964095Y-104354285D01*
X158011714Y-104163809D01*
X158011714Y-103782857D01*
X157964095Y-103687619D01*
X157916476Y-103640000D01*
X157821238Y-103592380D01*
X157630761Y-103592380D01*
X157535523Y-103640000D01*
X157487904Y-103687619D01*
X157440285Y-103782857D01*
X157440285Y-104020952D01*
X157487904Y-104116190D01*
X157535523Y-104163809D01*
X157630761Y-104211428D01*
X157821238Y-104211428D01*
X157916476Y-104163809D01*
X157964095Y-104116190D01*
X158011714Y-104020952D01*
%TO.C,R10*%
X159616380Y-122435857D02*
X159140190Y-122769190D01*
X159616380Y-123007285D02*
X158616380Y-123007285D01*
X158616380Y-122626333D01*
X158664000Y-122531095D01*
X158711619Y-122483476D01*
X158806857Y-122435857D01*
X158949714Y-122435857D01*
X159044952Y-122483476D01*
X159092571Y-122531095D01*
X159140190Y-122626333D01*
X159140190Y-123007285D01*
X159616380Y-121483476D02*
X159616380Y-122054904D01*
X159616380Y-121769190D02*
X158616380Y-121769190D01*
X158759238Y-121864428D01*
X158854476Y-121959666D01*
X158902095Y-122054904D01*
X158616380Y-120864428D02*
X158616380Y-120769190D01*
X158664000Y-120673952D01*
X158711619Y-120626333D01*
X158806857Y-120578714D01*
X158997333Y-120531095D01*
X159235428Y-120531095D01*
X159425904Y-120578714D01*
X159521142Y-120626333D01*
X159568761Y-120673952D01*
X159616380Y-120769190D01*
X159616380Y-120864428D01*
X159568761Y-120959666D01*
X159521142Y-121007285D01*
X159425904Y-121054904D01*
X159235428Y-121102523D01*
X158997333Y-121102523D01*
X158806857Y-121054904D01*
X158711619Y-121007285D01*
X158664000Y-120959666D01*
X158616380Y-120864428D01*
%TO.C,R11*%
X156329142Y-107132380D02*
X155995809Y-106656190D01*
X155757714Y-107132380D02*
X155757714Y-106132380D01*
X156138666Y-106132380D01*
X156233904Y-106180000D01*
X156281523Y-106227619D01*
X156329142Y-106322857D01*
X156329142Y-106465714D01*
X156281523Y-106560952D01*
X156233904Y-106608571D01*
X156138666Y-106656190D01*
X155757714Y-106656190D01*
X157281523Y-107132380D02*
X156710095Y-107132380D01*
X156995809Y-107132380D02*
X156995809Y-106132380D01*
X156900571Y-106275238D01*
X156805333Y-106370476D01*
X156710095Y-106418095D01*
X158233904Y-107132380D02*
X157662476Y-107132380D01*
X157948190Y-107132380D02*
X157948190Y-106132380D01*
X157852952Y-106275238D01*
X157757714Y-106370476D01*
X157662476Y-106418095D01*
%TO.C,R12*%
X156075142Y-109672380D02*
X155741809Y-109196190D01*
X155503714Y-109672380D02*
X155503714Y-108672380D01*
X155884666Y-108672380D01*
X155979904Y-108720000D01*
X156027523Y-108767619D01*
X156075142Y-108862857D01*
X156075142Y-109005714D01*
X156027523Y-109100952D01*
X155979904Y-109148571D01*
X155884666Y-109196190D01*
X155503714Y-109196190D01*
X157027523Y-109672380D02*
X156456095Y-109672380D01*
X156741809Y-109672380D02*
X156741809Y-108672380D01*
X156646571Y-108815238D01*
X156551333Y-108910476D01*
X156456095Y-108958095D01*
X157408476Y-108767619D02*
X157456095Y-108720000D01*
X157551333Y-108672380D01*
X157789428Y-108672380D01*
X157884666Y-108720000D01*
X157932285Y-108767619D01*
X157979904Y-108862857D01*
X157979904Y-108958095D01*
X157932285Y-109100952D01*
X157360857Y-109672380D01*
X157979904Y-109672380D01*
%TO.C,R13*%
X155392380Y-116974857D02*
X154916190Y-117308190D01*
X155392380Y-117546285D02*
X154392380Y-117546285D01*
X154392380Y-117165333D01*
X154440000Y-117070095D01*
X154487619Y-117022476D01*
X154582857Y-116974857D01*
X154725714Y-116974857D01*
X154820952Y-117022476D01*
X154868571Y-117070095D01*
X154916190Y-117165333D01*
X154916190Y-117546285D01*
X155392380Y-116022476D02*
X155392380Y-116593904D01*
X155392380Y-116308190D02*
X154392380Y-116308190D01*
X154535238Y-116403428D01*
X154630476Y-116498666D01*
X154678095Y-116593904D01*
X154392380Y-115689142D02*
X154392380Y-115070095D01*
X154773333Y-115403428D01*
X154773333Y-115260571D01*
X154820952Y-115165333D01*
X154868571Y-115117714D01*
X154963809Y-115070095D01*
X155201904Y-115070095D01*
X155297142Y-115117714D01*
X155344761Y-115165333D01*
X155392380Y-115260571D01*
X155392380Y-115546285D01*
X155344761Y-115641523D01*
X155297142Y-115689142D01*
%TO.C,R14*%
X156075142Y-112212380D02*
X155741809Y-111736190D01*
X155503714Y-112212380D02*
X155503714Y-111212380D01*
X155884666Y-111212380D01*
X155979904Y-111260000D01*
X156027523Y-111307619D01*
X156075142Y-111402857D01*
X156075142Y-111545714D01*
X156027523Y-111640952D01*
X155979904Y-111688571D01*
X155884666Y-111736190D01*
X155503714Y-111736190D01*
X157027523Y-112212380D02*
X156456095Y-112212380D01*
X156741809Y-112212380D02*
X156741809Y-111212380D01*
X156646571Y-111355238D01*
X156551333Y-111450476D01*
X156456095Y-111498095D01*
X157884666Y-111545714D02*
X157884666Y-112212380D01*
X157646571Y-111164761D02*
X157408476Y-111879047D01*
X158027523Y-111879047D01*
%TO.C,R15*%
X156075142Y-115006380D02*
X155741809Y-114530190D01*
X155503714Y-115006380D02*
X155503714Y-114006380D01*
X155884666Y-114006380D01*
X155979904Y-114054000D01*
X156027523Y-114101619D01*
X156075142Y-114196857D01*
X156075142Y-114339714D01*
X156027523Y-114434952D01*
X155979904Y-114482571D01*
X155884666Y-114530190D01*
X155503714Y-114530190D01*
X157027523Y-115006380D02*
X156456095Y-115006380D01*
X156741809Y-115006380D02*
X156741809Y-114006380D01*
X156646571Y-114149238D01*
X156551333Y-114244476D01*
X156456095Y-114292095D01*
X157932285Y-114006380D02*
X157456095Y-114006380D01*
X157408476Y-114482571D01*
X157456095Y-114434952D01*
X157551333Y-114387333D01*
X157789428Y-114387333D01*
X157884666Y-114434952D01*
X157932285Y-114482571D01*
X157979904Y-114577809D01*
X157979904Y-114815904D01*
X157932285Y-114911142D01*
X157884666Y-114958761D01*
X157789428Y-115006380D01*
X157551333Y-115006380D01*
X157456095Y-114958761D01*
X157408476Y-114911142D01*
%TO.C,R16*%
X153106380Y-130436857D02*
X152630190Y-130770190D01*
X153106380Y-131008285D02*
X152106380Y-131008285D01*
X152106380Y-130627333D01*
X152154000Y-130532095D01*
X152201619Y-130484476D01*
X152296857Y-130436857D01*
X152439714Y-130436857D01*
X152534952Y-130484476D01*
X152582571Y-130532095D01*
X152630190Y-130627333D01*
X152630190Y-131008285D01*
X153106380Y-129484476D02*
X153106380Y-130055904D01*
X153106380Y-129770190D02*
X152106380Y-129770190D01*
X152249238Y-129865428D01*
X152344476Y-129960666D01*
X152392095Y-130055904D01*
X152106380Y-128627333D02*
X152106380Y-128817809D01*
X152154000Y-128913047D01*
X152201619Y-128960666D01*
X152344476Y-129055904D01*
X152534952Y-129103523D01*
X152915904Y-129103523D01*
X153011142Y-129055904D01*
X153058761Y-129008285D01*
X153106380Y-128913047D01*
X153106380Y-128722571D01*
X153058761Y-128627333D01*
X153011142Y-128579714D01*
X152915904Y-128532095D01*
X152677809Y-128532095D01*
X152582571Y-128579714D01*
X152534952Y-128627333D01*
X152487333Y-128722571D01*
X152487333Y-128913047D01*
X152534952Y-129008285D01*
X152582571Y-129055904D01*
X152677809Y-129103523D01*
%TO.C,R17*%
X158186380Y-130182857D02*
X157710190Y-130516190D01*
X158186380Y-130754285D02*
X157186380Y-130754285D01*
X157186380Y-130373333D01*
X157234000Y-130278095D01*
X157281619Y-130230476D01*
X157376857Y-130182857D01*
X157519714Y-130182857D01*
X157614952Y-130230476D01*
X157662571Y-130278095D01*
X157710190Y-130373333D01*
X157710190Y-130754285D01*
X158186380Y-129230476D02*
X158186380Y-129801904D01*
X158186380Y-129516190D02*
X157186380Y-129516190D01*
X157329238Y-129611428D01*
X157424476Y-129706666D01*
X157472095Y-129801904D01*
X157186380Y-128897142D02*
X157186380Y-128230476D01*
X158186380Y-128659047D01*
%TO.C,R18*%
X160647142Y-129484380D02*
X160313809Y-129008190D01*
X160075714Y-129484380D02*
X160075714Y-128484380D01*
X160456666Y-128484380D01*
X160551904Y-128532000D01*
X160599523Y-128579619D01*
X160647142Y-128674857D01*
X160647142Y-128817714D01*
X160599523Y-128912952D01*
X160551904Y-128960571D01*
X160456666Y-129008190D01*
X160075714Y-129008190D01*
X161599523Y-129484380D02*
X161028095Y-129484380D01*
X161313809Y-129484380D02*
X161313809Y-128484380D01*
X161218571Y-128627238D01*
X161123333Y-128722476D01*
X161028095Y-128770095D01*
X162170952Y-128912952D02*
X162075714Y-128865333D01*
X162028095Y-128817714D01*
X161980476Y-128722476D01*
X161980476Y-128674857D01*
X162028095Y-128579619D01*
X162075714Y-128532000D01*
X162170952Y-128484380D01*
X162361428Y-128484380D01*
X162456666Y-128532000D01*
X162504285Y-128579619D01*
X162551904Y-128674857D01*
X162551904Y-128722476D01*
X162504285Y-128817714D01*
X162456666Y-128865333D01*
X162361428Y-128912952D01*
X162170952Y-128912952D01*
X162075714Y-128960571D01*
X162028095Y-129008190D01*
X161980476Y-129103428D01*
X161980476Y-129293904D01*
X162028095Y-129389142D01*
X162075714Y-129436761D01*
X162170952Y-129484380D01*
X162361428Y-129484380D01*
X162456666Y-129436761D01*
X162504285Y-129389142D01*
X162551904Y-129293904D01*
X162551904Y-129103428D01*
X162504285Y-129008190D01*
X162456666Y-128960571D01*
X162361428Y-128912952D01*
%TO.C,R19*%
X148788380Y-126118857D02*
X148312190Y-126452190D01*
X148788380Y-126690285D02*
X147788380Y-126690285D01*
X147788380Y-126309333D01*
X147836000Y-126214095D01*
X147883619Y-126166476D01*
X147978857Y-126118857D01*
X148121714Y-126118857D01*
X148216952Y-126166476D01*
X148264571Y-126214095D01*
X148312190Y-126309333D01*
X148312190Y-126690285D01*
X148788380Y-125166476D02*
X148788380Y-125737904D01*
X148788380Y-125452190D02*
X147788380Y-125452190D01*
X147931238Y-125547428D01*
X148026476Y-125642666D01*
X148074095Y-125737904D01*
X148788380Y-124690285D02*
X148788380Y-124499809D01*
X148740761Y-124404571D01*
X148693142Y-124356952D01*
X148550285Y-124261714D01*
X148359809Y-124214095D01*
X147978857Y-124214095D01*
X147883619Y-124261714D01*
X147836000Y-124309333D01*
X147788380Y-124404571D01*
X147788380Y-124595047D01*
X147836000Y-124690285D01*
X147883619Y-124737904D01*
X147978857Y-124785523D01*
X148216952Y-124785523D01*
X148312190Y-124737904D01*
X148359809Y-124690285D01*
X148407428Y-124595047D01*
X148407428Y-124404571D01*
X148359809Y-124309333D01*
X148312190Y-124261714D01*
X148216952Y-124214095D01*
%TO.C,R20*%
X155646380Y-123578857D02*
X155170190Y-123912190D01*
X155646380Y-124150285D02*
X154646380Y-124150285D01*
X154646380Y-123769333D01*
X154694000Y-123674095D01*
X154741619Y-123626476D01*
X154836857Y-123578857D01*
X154979714Y-123578857D01*
X155074952Y-123626476D01*
X155122571Y-123674095D01*
X155170190Y-123769333D01*
X155170190Y-124150285D01*
X154741619Y-123197904D02*
X154694000Y-123150285D01*
X154646380Y-123055047D01*
X154646380Y-122816952D01*
X154694000Y-122721714D01*
X154741619Y-122674095D01*
X154836857Y-122626476D01*
X154932095Y-122626476D01*
X155074952Y-122674095D01*
X155646380Y-123245523D01*
X155646380Y-122626476D01*
X154646380Y-122007428D02*
X154646380Y-121912190D01*
X154694000Y-121816952D01*
X154741619Y-121769333D01*
X154836857Y-121721714D01*
X155027333Y-121674095D01*
X155265428Y-121674095D01*
X155455904Y-121721714D01*
X155551142Y-121769333D01*
X155598761Y-121816952D01*
X155646380Y-121912190D01*
X155646380Y-122007428D01*
X155598761Y-122102666D01*
X155551142Y-122150285D01*
X155455904Y-122197904D01*
X155265428Y-122245523D01*
X155027333Y-122245523D01*
X154836857Y-122197904D01*
X154741619Y-122150285D01*
X154694000Y-122102666D01*
X154646380Y-122007428D01*
%TO.C,R21*%
X155646380Y-133738857D02*
X155170190Y-134072190D01*
X155646380Y-134310285D02*
X154646380Y-134310285D01*
X154646380Y-133929333D01*
X154694000Y-133834095D01*
X154741619Y-133786476D01*
X154836857Y-133738857D01*
X154979714Y-133738857D01*
X155074952Y-133786476D01*
X155122571Y-133834095D01*
X155170190Y-133929333D01*
X155170190Y-134310285D01*
X154741619Y-133357904D02*
X154694000Y-133310285D01*
X154646380Y-133215047D01*
X154646380Y-132976952D01*
X154694000Y-132881714D01*
X154741619Y-132834095D01*
X154836857Y-132786476D01*
X154932095Y-132786476D01*
X155074952Y-132834095D01*
X155646380Y-133405523D01*
X155646380Y-132786476D01*
X155646380Y-131834095D02*
X155646380Y-132405523D01*
X155646380Y-132119809D02*
X154646380Y-132119809D01*
X154789238Y-132215047D01*
X154884476Y-132310285D01*
X154932095Y-132405523D01*
%TO.C,R22*%
X167505142Y-131008380D02*
X167171809Y-130532190D01*
X166933714Y-131008380D02*
X166933714Y-130008380D01*
X167314666Y-130008380D01*
X167409904Y-130056000D01*
X167457523Y-130103619D01*
X167505142Y-130198857D01*
X167505142Y-130341714D01*
X167457523Y-130436952D01*
X167409904Y-130484571D01*
X167314666Y-130532190D01*
X166933714Y-130532190D01*
X167886095Y-130103619D02*
X167933714Y-130056000D01*
X168028952Y-130008380D01*
X168267047Y-130008380D01*
X168362285Y-130056000D01*
X168409904Y-130103619D01*
X168457523Y-130198857D01*
X168457523Y-130294095D01*
X168409904Y-130436952D01*
X167838476Y-131008380D01*
X168457523Y-131008380D01*
X168838476Y-130103619D02*
X168886095Y-130056000D01*
X168981333Y-130008380D01*
X169219428Y-130008380D01*
X169314666Y-130056000D01*
X169362285Y-130103619D01*
X169409904Y-130198857D01*
X169409904Y-130294095D01*
X169362285Y-130436952D01*
X168790857Y-131008380D01*
X169409904Y-131008380D01*
%TO.C,C23*%
X191873142Y-111894857D02*
X191920761Y-111942476D01*
X191968380Y-112085333D01*
X191968380Y-112180571D01*
X191920761Y-112323428D01*
X191825523Y-112418666D01*
X191730285Y-112466285D01*
X191539809Y-112513904D01*
X191396952Y-112513904D01*
X191206476Y-112466285D01*
X191111238Y-112418666D01*
X191016000Y-112323428D01*
X190968380Y-112180571D01*
X190968380Y-112085333D01*
X191016000Y-111942476D01*
X191063619Y-111894857D01*
X191063619Y-111513904D02*
X191016000Y-111466285D01*
X190968380Y-111371047D01*
X190968380Y-111132952D01*
X191016000Y-111037714D01*
X191063619Y-110990095D01*
X191158857Y-110942476D01*
X191254095Y-110942476D01*
X191396952Y-110990095D01*
X191968380Y-111561523D01*
X191968380Y-110942476D01*
X190968380Y-110609142D02*
X190968380Y-109990095D01*
X191349333Y-110323428D01*
X191349333Y-110180571D01*
X191396952Y-110085333D01*
X191444571Y-110037714D01*
X191539809Y-109990095D01*
X191777904Y-109990095D01*
X191873142Y-110037714D01*
X191920761Y-110085333D01*
X191968380Y-110180571D01*
X191968380Y-110466285D01*
X191920761Y-110561523D01*
X191873142Y-110609142D01*
%TO.C,C24*%
X192795142Y-122421857D02*
X192842761Y-122469476D01*
X192890380Y-122612333D01*
X192890380Y-122707571D01*
X192842761Y-122850428D01*
X192747523Y-122945666D01*
X192652285Y-122993285D01*
X192461809Y-123040904D01*
X192318952Y-123040904D01*
X192128476Y-122993285D01*
X192033238Y-122945666D01*
X191938000Y-122850428D01*
X191890380Y-122707571D01*
X191890380Y-122612333D01*
X191938000Y-122469476D01*
X191985619Y-122421857D01*
X191985619Y-122040904D02*
X191938000Y-121993285D01*
X191890380Y-121898047D01*
X191890380Y-121659952D01*
X191938000Y-121564714D01*
X191985619Y-121517095D01*
X192080857Y-121469476D01*
X192176095Y-121469476D01*
X192318952Y-121517095D01*
X192890380Y-122088523D01*
X192890380Y-121469476D01*
X192223714Y-120612333D02*
X192890380Y-120612333D01*
X191842761Y-120850428D02*
X192557047Y-121088523D01*
X192557047Y-120469476D01*
%TO.C,TP1*%
X164854095Y-81240380D02*
X165425523Y-81240380D01*
X165139809Y-82240380D02*
X165139809Y-81240380D01*
X165758857Y-82240380D02*
X165758857Y-81240380D01*
X166139809Y-81240380D01*
X166235047Y-81288000D01*
X166282666Y-81335619D01*
X166330285Y-81430857D01*
X166330285Y-81573714D01*
X166282666Y-81668952D01*
X166235047Y-81716571D01*
X166139809Y-81764190D01*
X165758857Y-81764190D01*
X167282666Y-82240380D02*
X166711238Y-82240380D01*
X166996952Y-82240380D02*
X166996952Y-81240380D01*
X166901714Y-81383238D01*
X166806476Y-81478476D01*
X166711238Y-81526095D01*
%TO.C,TP2*%
X175014095Y-95498380D02*
X175585523Y-95498380D01*
X175299809Y-96498380D02*
X175299809Y-95498380D01*
X175918857Y-96498380D02*
X175918857Y-95498380D01*
X176299809Y-95498380D01*
X176395047Y-95546000D01*
X176442666Y-95593619D01*
X176490285Y-95688857D01*
X176490285Y-95831714D01*
X176442666Y-95926952D01*
X176395047Y-95974571D01*
X176299809Y-96022190D01*
X175918857Y-96022190D01*
X176871238Y-95593619D02*
X176918857Y-95546000D01*
X177014095Y-95498380D01*
X177252190Y-95498380D01*
X177347428Y-95546000D01*
X177395047Y-95593619D01*
X177442666Y-95688857D01*
X177442666Y-95784095D01*
X177395047Y-95926952D01*
X176823619Y-96498380D01*
X177442666Y-96498380D01*
%TO.C,TP3*%
X171204095Y-96006380D02*
X171775523Y-96006380D01*
X171489809Y-97006380D02*
X171489809Y-96006380D01*
X172108857Y-97006380D02*
X172108857Y-96006380D01*
X172489809Y-96006380D01*
X172585047Y-96054000D01*
X172632666Y-96101619D01*
X172680285Y-96196857D01*
X172680285Y-96339714D01*
X172632666Y-96434952D01*
X172585047Y-96482571D01*
X172489809Y-96530190D01*
X172108857Y-96530190D01*
X173013619Y-96006380D02*
X173632666Y-96006380D01*
X173299333Y-96387333D01*
X173442190Y-96387333D01*
X173537428Y-96434952D01*
X173585047Y-96482571D01*
X173632666Y-96577809D01*
X173632666Y-96815904D01*
X173585047Y-96911142D01*
X173537428Y-96958761D01*
X173442190Y-97006380D01*
X173156476Y-97006380D01*
X173061238Y-96958761D01*
X173013619Y-96911142D01*
%TO.C,TP4*%
X163488095Y-132454380D02*
X164059523Y-132454380D01*
X163773809Y-133454380D02*
X163773809Y-132454380D01*
X164392857Y-133454380D02*
X164392857Y-132454380D01*
X164773809Y-132454380D01*
X164869047Y-132502000D01*
X164916666Y-132549619D01*
X164964285Y-132644857D01*
X164964285Y-132787714D01*
X164916666Y-132882952D01*
X164869047Y-132930571D01*
X164773809Y-132978190D01*
X164392857Y-132978190D01*
X165821428Y-132787714D02*
X165821428Y-133454380D01*
X165583333Y-132406761D02*
X165345238Y-133121047D01*
X165964285Y-133121047D01*
%TO.C,TP5*%
X173998095Y-88894380D02*
X174569523Y-88894380D01*
X174283809Y-89894380D02*
X174283809Y-88894380D01*
X174902857Y-89894380D02*
X174902857Y-88894380D01*
X175283809Y-88894380D01*
X175379047Y-88942000D01*
X175426666Y-88989619D01*
X175474285Y-89084857D01*
X175474285Y-89227714D01*
X175426666Y-89322952D01*
X175379047Y-89370571D01*
X175283809Y-89418190D01*
X174902857Y-89418190D01*
X176379047Y-88894380D02*
X175902857Y-88894380D01*
X175855238Y-89370571D01*
X175902857Y-89322952D01*
X175998095Y-89275333D01*
X176236190Y-89275333D01*
X176331428Y-89322952D01*
X176379047Y-89370571D01*
X176426666Y-89465809D01*
X176426666Y-89703904D01*
X176379047Y-89799142D01*
X176331428Y-89846761D01*
X176236190Y-89894380D01*
X175998095Y-89894380D01*
X175902857Y-89846761D01*
X175855238Y-89799142D01*
%TO.C,TP6*%
X173998095Y-140456380D02*
X174569523Y-140456380D01*
X174283809Y-141456380D02*
X174283809Y-140456380D01*
X174902857Y-141456380D02*
X174902857Y-140456380D01*
X175283809Y-140456380D01*
X175379047Y-140504000D01*
X175426666Y-140551619D01*
X175474285Y-140646857D01*
X175474285Y-140789714D01*
X175426666Y-140884952D01*
X175379047Y-140932571D01*
X175283809Y-140980190D01*
X174902857Y-140980190D01*
X176331428Y-140456380D02*
X176140952Y-140456380D01*
X176045714Y-140504000D01*
X175998095Y-140551619D01*
X175902857Y-140694476D01*
X175855238Y-140884952D01*
X175855238Y-141265904D01*
X175902857Y-141361142D01*
X175950476Y-141408761D01*
X176045714Y-141456380D01*
X176236190Y-141456380D01*
X176331428Y-141408761D01*
X176379047Y-141361142D01*
X176426666Y-141265904D01*
X176426666Y-141027809D01*
X176379047Y-140932571D01*
X176331428Y-140884952D01*
X176236190Y-140837333D01*
X176045714Y-140837333D01*
X175950476Y-140884952D01*
X175902857Y-140932571D01*
X175855238Y-141027809D01*
%TO.C,C1*%
X203254373Y-145264142D02*
X203206754Y-145311761D01*
X203063897Y-145359380D01*
X202968659Y-145359380D01*
X202825801Y-145311761D01*
X202730563Y-145216523D01*
X202682944Y-145121285D01*
X202635325Y-144930809D01*
X202635325Y-144787952D01*
X202682944Y-144597476D01*
X202730563Y-144502238D01*
X202825801Y-144407000D01*
X202968659Y-144359380D01*
X203063897Y-144359380D01*
X203206754Y-144407000D01*
X203254373Y-144454619D01*
X204206754Y-145359380D02*
X203635325Y-145359380D01*
X203921040Y-145359380D02*
X203921040Y-144359380D01*
X203825801Y-144502238D01*
X203730563Y-144597476D01*
X203635325Y-144645095D01*
%TO.C,R23*%
X179838142Y-80749380D02*
X179504809Y-80273190D01*
X179266714Y-80749380D02*
X179266714Y-79749380D01*
X179647666Y-79749380D01*
X179742904Y-79797000D01*
X179790523Y-79844619D01*
X179838142Y-79939857D01*
X179838142Y-80082714D01*
X179790523Y-80177952D01*
X179742904Y-80225571D01*
X179647666Y-80273190D01*
X179266714Y-80273190D01*
X180219095Y-79844619D02*
X180266714Y-79797000D01*
X180361952Y-79749380D01*
X180600047Y-79749380D01*
X180695285Y-79797000D01*
X180742904Y-79844619D01*
X180790523Y-79939857D01*
X180790523Y-80035095D01*
X180742904Y-80177952D01*
X180171476Y-80749380D01*
X180790523Y-80749380D01*
X181123857Y-79749380D02*
X181742904Y-79749380D01*
X181409571Y-80130333D01*
X181552428Y-80130333D01*
X181647666Y-80177952D01*
X181695285Y-80225571D01*
X181742904Y-80320809D01*
X181742904Y-80558904D01*
X181695285Y-80654142D01*
X181647666Y-80701761D01*
X181552428Y-80749380D01*
X181266714Y-80749380D01*
X181171476Y-80701761D01*
X181123857Y-80654142D01*
%TO.C,R24*%
X182632142Y-115420380D02*
X182298809Y-114944190D01*
X182060714Y-115420380D02*
X182060714Y-114420380D01*
X182441666Y-114420380D01*
X182536904Y-114468000D01*
X182584523Y-114515619D01*
X182632142Y-114610857D01*
X182632142Y-114753714D01*
X182584523Y-114848952D01*
X182536904Y-114896571D01*
X182441666Y-114944190D01*
X182060714Y-114944190D01*
X183013095Y-114515619D02*
X183060714Y-114468000D01*
X183155952Y-114420380D01*
X183394047Y-114420380D01*
X183489285Y-114468000D01*
X183536904Y-114515619D01*
X183584523Y-114610857D01*
X183584523Y-114706095D01*
X183536904Y-114848952D01*
X182965476Y-115420380D01*
X183584523Y-115420380D01*
X184441666Y-114753714D02*
X184441666Y-115420380D01*
X184203571Y-114372761D02*
X183965476Y-115087047D01*
X184584523Y-115087047D01*
%TO.C,R25*%
X178808142Y-150465381D02*
X178474809Y-149989191D01*
X178236714Y-150465381D02*
X178236714Y-149465381D01*
X178617666Y-149465381D01*
X178712904Y-149513001D01*
X178760523Y-149560620D01*
X178808142Y-149655858D01*
X178808142Y-149798715D01*
X178760523Y-149893953D01*
X178712904Y-149941572D01*
X178617666Y-149989191D01*
X178236714Y-149989191D01*
X179189095Y-149560620D02*
X179236714Y-149513001D01*
X179331952Y-149465381D01*
X179570047Y-149465381D01*
X179665285Y-149513001D01*
X179712904Y-149560620D01*
X179760523Y-149655858D01*
X179760523Y-149751096D01*
X179712904Y-149893953D01*
X179141476Y-150465381D01*
X179760523Y-150465381D01*
X180665285Y-149465381D02*
X180189095Y-149465381D01*
X180141476Y-149941572D01*
X180189095Y-149893953D01*
X180284333Y-149846334D01*
X180522428Y-149846334D01*
X180617666Y-149893953D01*
X180665285Y-149941572D01*
X180712904Y-150036810D01*
X180712904Y-150274905D01*
X180665285Y-150370143D01*
X180617666Y-150417762D01*
X180522428Y-150465381D01*
X180284333Y-150465381D01*
X180189095Y-150417762D01*
X180141476Y-150370143D01*
%TO.C,TP7*%
X170696095Y-80004380D02*
X171267523Y-80004380D01*
X170981809Y-81004380D02*
X170981809Y-80004380D01*
X171600857Y-81004380D02*
X171600857Y-80004380D01*
X171981809Y-80004380D01*
X172077047Y-80052000D01*
X172124666Y-80099619D01*
X172172285Y-80194857D01*
X172172285Y-80337714D01*
X172124666Y-80432952D01*
X172077047Y-80480571D01*
X171981809Y-80528190D01*
X171600857Y-80528190D01*
X172505619Y-80004380D02*
X173172285Y-80004380D01*
X172743714Y-81004380D01*
%TO.C,TP8*%
X180094095Y-82036380D02*
X180665523Y-82036380D01*
X180379809Y-83036380D02*
X180379809Y-82036380D01*
X180998857Y-83036380D02*
X180998857Y-82036380D01*
X181379809Y-82036380D01*
X181475047Y-82084000D01*
X181522666Y-82131619D01*
X181570285Y-82226857D01*
X181570285Y-82369714D01*
X181522666Y-82464952D01*
X181475047Y-82512571D01*
X181379809Y-82560190D01*
X180998857Y-82560190D01*
X182141714Y-82464952D02*
X182046476Y-82417333D01*
X181998857Y-82369714D01*
X181951238Y-82274476D01*
X181951238Y-82226857D01*
X181998857Y-82131619D01*
X182046476Y-82084000D01*
X182141714Y-82036380D01*
X182332190Y-82036380D01*
X182427428Y-82084000D01*
X182475047Y-82131619D01*
X182522666Y-82226857D01*
X182522666Y-82274476D01*
X182475047Y-82369714D01*
X182427428Y-82417333D01*
X182332190Y-82464952D01*
X182141714Y-82464952D01*
X182046476Y-82512571D01*
X181998857Y-82560190D01*
X181951238Y-82655428D01*
X181951238Y-82845904D01*
X181998857Y-82941142D01*
X182046476Y-82988761D01*
X182141714Y-83036380D01*
X182332190Y-83036380D01*
X182427428Y-82988761D01*
X182475047Y-82941142D01*
X182522666Y-82845904D01*
X182522666Y-82655428D01*
X182475047Y-82560190D01*
X182427428Y-82512571D01*
X182332190Y-82464952D01*
%TO.C,TP9*%
X164346095Y-140930380D02*
X164917523Y-140930380D01*
X164631809Y-141930380D02*
X164631809Y-140930380D01*
X165250857Y-141930380D02*
X165250857Y-140930380D01*
X165631809Y-140930380D01*
X165727047Y-140978000D01*
X165774666Y-141025619D01*
X165822285Y-141120857D01*
X165822285Y-141263714D01*
X165774666Y-141358952D01*
X165727047Y-141406571D01*
X165631809Y-141454190D01*
X165250857Y-141454190D01*
X166298476Y-141930380D02*
X166488952Y-141930380D01*
X166584190Y-141882761D01*
X166631809Y-141835142D01*
X166727047Y-141692285D01*
X166774666Y-141501809D01*
X166774666Y-141120857D01*
X166727047Y-141025619D01*
X166679428Y-140978000D01*
X166584190Y-140930380D01*
X166393714Y-140930380D01*
X166298476Y-140978000D01*
X166250857Y-141025619D01*
X166203238Y-141120857D01*
X166203238Y-141358952D01*
X166250857Y-141454190D01*
X166298476Y-141501809D01*
X166393714Y-141549428D01*
X166584190Y-141549428D01*
X166679428Y-141501809D01*
X166727047Y-141454190D01*
X166774666Y-141358952D01*
%TO.C,TP10*%
X166155904Y-142708380D02*
X166727333Y-142708380D01*
X166441619Y-143708380D02*
X166441619Y-142708380D01*
X167060666Y-143708380D02*
X167060666Y-142708380D01*
X167441619Y-142708380D01*
X167536857Y-142756000D01*
X167584476Y-142803619D01*
X167632095Y-142898857D01*
X167632095Y-143041714D01*
X167584476Y-143136952D01*
X167536857Y-143184571D01*
X167441619Y-143232190D01*
X167060666Y-143232190D01*
X168584476Y-143708380D02*
X168013047Y-143708380D01*
X168298761Y-143708380D02*
X168298761Y-142708380D01*
X168203523Y-142851238D01*
X168108285Y-142946476D01*
X168013047Y-142994095D01*
X169203523Y-142708380D02*
X169298761Y-142708380D01*
X169394000Y-142756000D01*
X169441619Y-142803619D01*
X169489238Y-142898857D01*
X169536857Y-143089333D01*
X169536857Y-143327428D01*
X169489238Y-143517904D01*
X169441619Y-143613142D01*
X169394000Y-143660761D01*
X169298761Y-143708380D01*
X169203523Y-143708380D01*
X169108285Y-143660761D01*
X169060666Y-143613142D01*
X169013047Y-143517904D01*
X168965428Y-143327428D01*
X168965428Y-143089333D01*
X169013047Y-142898857D01*
X169060666Y-142803619D01*
X169108285Y-142756000D01*
X169203523Y-142708380D01*
%TO.C,J1*%
X221500380Y-114633333D02*
X222214666Y-114633333D01*
X222357523Y-114680952D01*
X222452761Y-114776190D01*
X222500380Y-114919047D01*
X222500380Y-115014285D01*
X222500380Y-113633333D02*
X222500380Y-114204761D01*
X222500380Y-113919047D02*
X221500380Y-113919047D01*
X221643238Y-114014285D01*
X221738476Y-114109523D01*
X221786095Y-114204761D01*
%TO.C,J2*%
X221129266Y-95007180D02*
X221129266Y-95721466D01*
X221081647Y-95864323D01*
X220986409Y-95959561D01*
X220843552Y-96007180D01*
X220748314Y-96007180D01*
X221557838Y-95102419D02*
X221605457Y-95054800D01*
X221700695Y-95007180D01*
X221938790Y-95007180D01*
X222034028Y-95054800D01*
X222081647Y-95102419D01*
X222129266Y-95197657D01*
X222129266Y-95292895D01*
X222081647Y-95435752D01*
X221510219Y-96007180D01*
X222129266Y-96007180D01*
%TO.C,J3*%
X139366666Y-116844380D02*
X139366666Y-117558666D01*
X139319047Y-117701523D01*
X139223809Y-117796761D01*
X139080952Y-117844380D01*
X138985714Y-117844380D01*
X139747619Y-116844380D02*
X140366666Y-116844380D01*
X140033333Y-117225333D01*
X140176190Y-117225333D01*
X140271428Y-117272952D01*
X140319047Y-117320571D01*
X140366666Y-117415809D01*
X140366666Y-117653904D01*
X140319047Y-117749142D01*
X140271428Y-117796761D01*
X140176190Y-117844380D01*
X139890476Y-117844380D01*
X139795238Y-117796761D01*
X139747619Y-117749142D01*
%TO.C,J4*%
X219122666Y-124674380D02*
X219122666Y-125388666D01*
X219075047Y-125531523D01*
X218979809Y-125626761D01*
X218836952Y-125674380D01*
X218741714Y-125674380D01*
X220027428Y-125007714D02*
X220027428Y-125674380D01*
X219789333Y-124626761D02*
X219551238Y-125341047D01*
X220170285Y-125341047D01*
%TD*%
M02*
