%TF.GenerationSoftware,KiCad,Pcbnew,(5.1.6)-1*%
%TF.CreationDate,2020-10-29T17:58:23+05:30*%
%TF.ProjectId,LTC3884,4c544333-3838-4342-9e6b-696361645f70,rev?*%
%TF.SameCoordinates,Original*%
%TF.FileFunction,Copper,L4,Bot*%
%TF.FilePolarity,Positive*%
%FSLAX46Y46*%
G04 Gerber Fmt 4.6, Leading zero omitted, Abs format (unit mm)*
G04 Created by KiCad (PCBNEW (5.1.6)-1) date 2020-10-29 17:58:23*
%MOMM*%
%LPD*%
G01*
G04 APERTURE LIST*
%TA.AperFunction,ComponentPad*%
%ADD10C,5.700000*%
%TD*%
%TA.AperFunction,ComponentPad*%
%ADD11R,2.100000X2.100000*%
%TD*%
%TA.AperFunction,ComponentPad*%
%ADD12C,2.100000*%
%TD*%
%TA.AperFunction,ComponentPad*%
%ADD13R,1.700000X1.700000*%
%TD*%
%TA.AperFunction,ComponentPad*%
%ADD14O,1.700000X1.700000*%
%TD*%
%TA.AperFunction,ViaPad*%
%ADD15C,0.800000*%
%TD*%
%TA.AperFunction,Conductor*%
%ADD16C,0.500000*%
%TD*%
%TA.AperFunction,Conductor*%
%ADD17C,0.200000*%
%TD*%
%TA.AperFunction,Conductor*%
%ADD18C,0.250000*%
%TD*%
%TA.AperFunction,Conductor*%
%ADD19C,0.300000*%
%TD*%
G04 APERTURE END LIST*
D10*
%TO.P,REF\u002A\u002A,1*%
%TO.N,N/C*%
X130810000Y-158750000D03*
%TD*%
%TO.P,REF\u002A\u002A,1*%
%TO.N,N/C*%
X237490000Y-158750000D03*
%TD*%
%TO.P,REF\u002A\u002A,1*%
%TO.N,N/C*%
X130810000Y-67310000D03*
%TD*%
%TO.P,REF\u002A\u002A,1*%
%TO.N,N/C*%
X237490000Y-67310000D03*
%TD*%
D11*
%TO.P,J1,1*%
%TO.N,/VIN*%
X217678000Y-113030000D03*
D12*
%TO.P,J1,2*%
%TO.N,/PGND*%
X217678000Y-115570000D03*
%TD*%
D11*
%TO.P,J2,1*%
%TO.N,/V0*%
X221996000Y-99060000D03*
D12*
%TO.P,J2,2*%
%TO.N,/PGND*%
X221996000Y-101600000D03*
%TD*%
D13*
%TO.P,J3,1*%
%TO.N,/RUN1*%
X140970000Y-115062000D03*
D14*
%TO.P,J3,2*%
%TO.N,GND*%
X138430000Y-115062000D03*
%TO.P,J3,3*%
%TO.N,/RUN0*%
X140970000Y-112522000D03*
%TO.P,J3,4*%
%TO.N,GND*%
X138430000Y-112522000D03*
%TO.P,J3,5*%
%TO.N,/FAULT1*%
X140970000Y-109982000D03*
%TO.P,J3,6*%
%TO.N,GND*%
X138430000Y-109982000D03*
%TO.P,J3,7*%
%TO.N,/FAULT0*%
X140970000Y-107442000D03*
%TO.P,J3,8*%
%TO.N,GND*%
X138430000Y-107442000D03*
%TO.P,J3,9*%
%TO.N,/ALERT*%
X140970000Y-104902000D03*
%TO.P,J3,10*%
%TO.N,GND*%
X138430000Y-104902000D03*
%TO.P,J3,11*%
%TO.N,/SDA*%
X140970000Y-102362000D03*
%TO.P,J3,12*%
%TO.N,GND*%
X138430000Y-102362000D03*
%TO.P,J3,13*%
%TO.N,/SCL*%
X140970000Y-99822000D03*
%TO.P,J3,14*%
%TO.N,GND*%
X138430000Y-99822000D03*
%TO.P,J3,15*%
%TO.N,/SYNC*%
X140970000Y-97282000D03*
%TO.P,J3,16*%
%TO.N,GND*%
X138430000Y-97282000D03*
%TO.P,J3,17*%
%TO.N,/PGOOD0*%
X140970000Y-94742000D03*
%TO.P,J3,18*%
%TO.N,GND*%
X138430000Y-94742000D03*
%TO.P,J3,19*%
%TO.N,/PGOOD1*%
X140970000Y-92202000D03*
%TO.P,J3,20*%
%TO.N,GND*%
X138430000Y-92202000D03*
%TD*%
D12*
%TO.P,J4,2*%
%TO.N,/PGND*%
X219964000Y-128016000D03*
D11*
%TO.P,J4,1*%
%TO.N,/V1*%
X219964000Y-130556000D03*
%TD*%
D15*
%TO.N,GND*%
X170180000Y-114173000D03*
X172466000Y-114173000D03*
X172593000Y-116713000D03*
X170180000Y-116713000D03*
X171323000Y-115570000D03*
X169926000Y-128524000D03*
X177546000Y-78867000D03*
X180238400Y-113995200D03*
X135890000Y-92202000D03*
X135890000Y-94742000D03*
X135890000Y-97282000D03*
X135890000Y-100076000D03*
X135890000Y-102362000D03*
X135890000Y-104902000D03*
X135890000Y-107442000D03*
X135890000Y-109982000D03*
X135890000Y-112522000D03*
X135890000Y-115062000D03*
X153670000Y-132588000D03*
X177800000Y-76200000D03*
X175260000Y-76200000D03*
X172720000Y-76200000D03*
X170180000Y-76200000D03*
X167640000Y-76200000D03*
X165100000Y-76200000D03*
X162560000Y-76200000D03*
X160020000Y-76200000D03*
X157480000Y-76200000D03*
X154940000Y-76200000D03*
X152400000Y-76200000D03*
X149860000Y-76200000D03*
X147320000Y-76200000D03*
X142240000Y-76200000D03*
X144780000Y-76200000D03*
X139700000Y-76200000D03*
X132080000Y-81280000D03*
X133858000Y-89662000D03*
X132080000Y-86360000D03*
X133858000Y-92202000D03*
X133858000Y-94742000D03*
X133858000Y-97282000D03*
X133858000Y-99822000D03*
X133858000Y-102362000D03*
X133858000Y-104902000D03*
X133858000Y-107442000D03*
X133858000Y-109982000D03*
X133858000Y-112522000D03*
X133858000Y-115062000D03*
X133858000Y-117602000D03*
X132080000Y-121920000D03*
X132080000Y-124460000D03*
X132080000Y-127000000D03*
X132080000Y-129540000D03*
X132080000Y-133096000D03*
X132080000Y-134620000D03*
X132080000Y-137160000D03*
X132080000Y-139700000D03*
X132080000Y-142240000D03*
X132080000Y-144780000D03*
X137160000Y-151130000D03*
X139700000Y-151130000D03*
X142240000Y-151130000D03*
X144780000Y-151130000D03*
X147320000Y-151130000D03*
X149860000Y-151130000D03*
X152400000Y-151130000D03*
X154940000Y-151130000D03*
X157480000Y-151130000D03*
X160020000Y-151130000D03*
X162560000Y-151130000D03*
X165100000Y-151130000D03*
X167640000Y-151130000D03*
X170180000Y-151130000D03*
X172720000Y-151130000D03*
X175260000Y-151130000D03*
X177800000Y-151130000D03*
X147955000Y-123825000D03*
X163576000Y-126746000D03*
X135890000Y-118110000D03*
X135890000Y-120650000D03*
X138430000Y-123190000D03*
X138430000Y-118110000D03*
X137160000Y-132080000D03*
X134620000Y-132080000D03*
X137160000Y-134620000D03*
X139700000Y-134620000D03*
X142240000Y-132080000D03*
X142240000Y-134620000D03*
X144780000Y-139700000D03*
X144780000Y-137160000D03*
X144780000Y-134620000D03*
X147320000Y-139700000D03*
X147320000Y-144780000D03*
X149860000Y-144780000D03*
X152400000Y-144780000D03*
X154940000Y-144780000D03*
X157480000Y-144780000D03*
X160020000Y-144780000D03*
X162560000Y-144780000D03*
X165100000Y-144780000D03*
X167640000Y-144780000D03*
X170180000Y-144780000D03*
X172720000Y-144780000D03*
X175260000Y-139700000D03*
X175260000Y-137160000D03*
X177800000Y-139700000D03*
X172720000Y-139700000D03*
X172720000Y-134620000D03*
X170180000Y-137160000D03*
X170180000Y-139700000D03*
X165100000Y-139700000D03*
X162560000Y-139700000D03*
X160020000Y-139700000D03*
X149860000Y-139700000D03*
X152400000Y-139700000D03*
X154940000Y-139700000D03*
X157480000Y-139700000D03*
X175260000Y-149352000D03*
X134620000Y-81280000D03*
X137160000Y-81280000D03*
X142240000Y-81280000D03*
X139700000Y-81280000D03*
X144780000Y-81280000D03*
X147320000Y-81280000D03*
X149860000Y-81280000D03*
X152400000Y-81280000D03*
X154940000Y-81280000D03*
X157480000Y-81280000D03*
X162560000Y-81280000D03*
X160020000Y-81280000D03*
X165100000Y-81280000D03*
X167640000Y-81280000D03*
X170180000Y-86360000D03*
X160020000Y-86360000D03*
X164338000Y-90678000D03*
X177800000Y-81280000D03*
X168910000Y-83820000D03*
X171450000Y-85090000D03*
X166370000Y-90170000D03*
X162560000Y-129540000D03*
X165100000Y-130810000D03*
X165100000Y-129540000D03*
X162560000Y-130810000D03*
X157480000Y-132080000D03*
X157480000Y-129540000D03*
X151892000Y-132588000D03*
X149860000Y-132588000D03*
X147320000Y-132588000D03*
X172212000Y-102425500D03*
X132080000Y-83820000D03*
X199136000Y-146304000D03*
X198120000Y-82296000D03*
X180340000Y-124460000D03*
%TO.N,Net-(C3-Pad1)*%
X181000000Y-87250000D03*
X167120458Y-97547542D03*
X167116418Y-108695428D03*
X195580000Y-87249000D03*
%TO.N,/V0*%
X177500000Y-83250000D03*
X181356000Y-96500000D03*
X212344000Y-92456000D03*
%TO.N,Net-(C5-Pad1)*%
X168750000Y-87500000D03*
X168750000Y-94000000D03*
X167750000Y-98750000D03*
X168402000Y-107188000D03*
%TO.N,/V1*%
X172121600Y-123500000D03*
X177800000Y-105410000D03*
X210820000Y-138176000D03*
%TO.N,/SW0*%
X190449200Y-100482400D03*
X180760000Y-104560000D03*
%TO.N,/VD25*%
X166624000Y-119697500D03*
X162331000Y-123356000D03*
%TO.N,/VD33*%
X165354000Y-120396000D03*
X159258000Y-115824000D03*
%TO.N,Net-(C10-Pad1)*%
X168500000Y-133350000D03*
X170019820Y-120362820D03*
%TO.N,/SW1*%
X181750000Y-126000000D03*
X179750000Y-142000000D03*
X180594000Y-137160000D03*
X178562000Y-108458000D03*
%TO.N,/VIN*%
X176060000Y-113240000D03*
X176784000Y-117348000D03*
X182375001Y-119380000D03*
%TO.N,/TG1*%
X189484000Y-130810000D03*
X176530000Y-130810000D03*
X177310000Y-125320000D03*
%TO.N,/BG1*%
X176108140Y-119500000D03*
X175000000Y-132250000D03*
X187909200Y-140970000D03*
X181750000Y-141250000D03*
X176123600Y-129260600D03*
%TO.N,/Vout1*%
X156972000Y-118872000D03*
X153162000Y-119126000D03*
%TO.N,/ASEL0*%
X165100000Y-115062000D03*
X160020000Y-132334000D03*
%TO.N,/PGOOD0*%
X176000000Y-111750000D03*
X160782000Y-92202000D03*
%TO.N,/SYNC*%
X164899310Y-97990690D03*
X156156690Y-97990690D03*
%TO.N,/SCL*%
X163132000Y-99250000D03*
X153162000Y-99568000D03*
%TO.N,/SDA*%
X166666417Y-111083583D03*
X164338000Y-102616000D03*
X153162000Y-102108000D03*
%TO.N,/ALERT*%
X163068000Y-105156000D03*
X153162000Y-104648000D03*
%TO.N,/FAULT0*%
X162560000Y-106807000D03*
X153162000Y-107188000D03*
%TO.N,/FAULT1*%
X162594000Y-109000000D03*
X153162000Y-109728000D03*
%TO.N,/RUN0*%
X163078000Y-111750000D03*
X153162000Y-112268000D03*
%TO.N,/RUN1*%
X163322000Y-113792000D03*
X144272000Y-115062000D03*
%TO.N,/PGND*%
X174015400Y-110388400D03*
X182880000Y-108204000D03*
X178435000Y-116205000D03*
X171196000Y-129286000D03*
X183642000Y-78867000D03*
X193040000Y-147320000D03*
X195580000Y-147320000D03*
X198120000Y-148336000D03*
X200660000Y-147320000D03*
X190500000Y-147320000D03*
X187960000Y-147320000D03*
X185420000Y-147320000D03*
X185420000Y-144780000D03*
X187960000Y-144780000D03*
X190500000Y-144780000D03*
X203073000Y-78867000D03*
X187833000Y-78867000D03*
X190373000Y-78867000D03*
X192913000Y-78867000D03*
X195453000Y-78867000D03*
X197993000Y-78867000D03*
X200533000Y-78867000D03*
X191008000Y-104140000D03*
X220980000Y-147320000D03*
X218440000Y-147320000D03*
X223520000Y-78740000D03*
X220980000Y-78740000D03*
X218440000Y-78740000D03*
X207010000Y-78740000D03*
X210820000Y-78740000D03*
X214630000Y-78740000D03*
X190500000Y-85090000D03*
X187960000Y-85090000D03*
X187960000Y-88900000D03*
X190500000Y-88900000D03*
X190500000Y-91440000D03*
X191770000Y-125730000D03*
X191770000Y-128270000D03*
X198120000Y-128524000D03*
X195072000Y-128524000D03*
X201930000Y-128270000D03*
X207010000Y-128270000D03*
X204470000Y-128270000D03*
X198628000Y-101600000D03*
X205740000Y-101600000D03*
X203200000Y-101600000D03*
X200660000Y-101600000D03*
X196088000Y-101600000D03*
X193040000Y-101600000D03*
X191008000Y-102108000D03*
X193040000Y-104140000D03*
X203200000Y-147320000D03*
X185420000Y-88900000D03*
X185420000Y-86360000D03*
X185293000Y-78867000D03*
X182880000Y-76200000D03*
X182880000Y-81280000D03*
X182880000Y-88900000D03*
X182880000Y-93980000D03*
X182880000Y-74676000D03*
X185420000Y-74676000D03*
X187960000Y-74676000D03*
X190500000Y-74676000D03*
X195580000Y-74676000D03*
X193040000Y-74676000D03*
X198120000Y-74676000D03*
X200660000Y-74676000D03*
X203200000Y-74676000D03*
X205740000Y-74676000D03*
X208280000Y-74676000D03*
X210820000Y-74676000D03*
X213360000Y-74676000D03*
X215900000Y-74676000D03*
X218440000Y-74676000D03*
X220980000Y-74676000D03*
X223520000Y-74676000D03*
X226060000Y-74676000D03*
X237744000Y-81788000D03*
X237744000Y-84328000D03*
X237744000Y-86868000D03*
X237744000Y-89408000D03*
X237744000Y-91948000D03*
X237744000Y-94742000D03*
X237744000Y-97028000D03*
X237744000Y-99568000D03*
X237744000Y-102108000D03*
X237744000Y-104648000D03*
X237744000Y-107188000D03*
X237744000Y-109728000D03*
X237744000Y-112268000D03*
X237744000Y-114808000D03*
X237744000Y-117348000D03*
X237744000Y-119888000D03*
X237744000Y-122428000D03*
X237744000Y-124968000D03*
X237744000Y-127508000D03*
X237744000Y-130048000D03*
X237744000Y-132588000D03*
X237744000Y-135128000D03*
X237744000Y-137668000D03*
X237744000Y-140208000D03*
X237744000Y-142748000D03*
X226060000Y-151638000D03*
X223520000Y-151638000D03*
X220980000Y-151638000D03*
X218440000Y-151638000D03*
X215900000Y-151638000D03*
X213360000Y-151638000D03*
X210820000Y-151638000D03*
X208280000Y-151638000D03*
X205740000Y-151638000D03*
X203200000Y-151638000D03*
X200660000Y-151638000D03*
X198374000Y-151638000D03*
X195834000Y-151638000D03*
X193040000Y-151638000D03*
X190500000Y-151638000D03*
X187960000Y-151638000D03*
X185420000Y-151638000D03*
X182626000Y-151638000D03*
X182626000Y-149860000D03*
X182626000Y-147320000D03*
X182626000Y-145288000D03*
X182626000Y-139446000D03*
X182626000Y-138074400D03*
X183134000Y-77724000D03*
X184150000Y-85344000D03*
X184150000Y-88900000D03*
X182880000Y-92202000D03*
X182880000Y-97282000D03*
X182880000Y-101600000D03*
X203200000Y-83820000D03*
X205740000Y-83820000D03*
X205740000Y-147320000D03*
X208280000Y-147320000D03*
X210820000Y-147320000D03*
X213360000Y-147320000D03*
X215900000Y-147320000D03*
X208280000Y-144780000D03*
X203200000Y-144780000D03*
X208280000Y-83820000D03*
X210820000Y-83820000D03*
X191770000Y-139700000D03*
X190500000Y-139700000D03*
X190500000Y-140970000D03*
X191770000Y-140970000D03*
X226060000Y-78740000D03*
X228600000Y-74676000D03*
X228600000Y-78740000D03*
X223520000Y-147320000D03*
X226060000Y-147320000D03*
X228600000Y-147320000D03*
X231140000Y-147320000D03*
X228600000Y-151384000D03*
X231140000Y-151384000D03*
X185966817Y-114246779D03*
X210820000Y-87630000D03*
X208280000Y-87630000D03*
X213360000Y-87630000D03*
X213360000Y-85090000D03*
X213360000Y-82550000D03*
X215900000Y-82550000D03*
X218440000Y-82550000D03*
X220980000Y-82550000D03*
X220980000Y-85090000D03*
X220980000Y-87630000D03*
X223520000Y-87630000D03*
X223520000Y-85090000D03*
X223520000Y-82550000D03*
X226060000Y-82550000D03*
X228600000Y-82550000D03*
X231140000Y-82550000D03*
X233680000Y-82550000D03*
X233680000Y-85090000D03*
X231140000Y-85090000D03*
X213360000Y-144780000D03*
X213360000Y-142240000D03*
X210820000Y-142240000D03*
X208280000Y-142240000D03*
X210820000Y-144780000D03*
X219710000Y-144780000D03*
X219710000Y-142240000D03*
X222250000Y-142240000D03*
X222250000Y-144780000D03*
X228600000Y-144780000D03*
X228600000Y-142240000D03*
X231140000Y-142240000D03*
X231140000Y-144780000D03*
%TO.N,Net-(C1-Pad1)*%
X165500000Y-94725000D03*
X169113200Y-109956600D03*
X181102000Y-142748000D03*
X196596000Y-142798800D03*
%TO.N,/TG0*%
X177965100Y-114452400D03*
X181610000Y-109728000D03*
X175260000Y-82550000D03*
X180594000Y-100203000D03*
%TO.N,/BG0*%
X178000000Y-91250000D03*
X176403000Y-115821480D03*
%TO.N,Net-(L1-Pad2)*%
X173736000Y-79756000D03*
X205232000Y-91440000D03*
%TO.N,Net-(L2-Pad2)*%
X173609000Y-147828000D03*
X206248000Y-139192000D03*
%TD*%
D16*
%TO.N,GND*%
X198120000Y-82296000D02*
X179832000Y-82296000D01*
X178816000Y-81280000D02*
X177800000Y-81280000D01*
X179832000Y-82296000D02*
X178816000Y-81280000D01*
X175260000Y-149352000D02*
X178308000Y-146304000D01*
X178308000Y-146304000D02*
X178816000Y-146304000D01*
X199136000Y-146304000D02*
X178816000Y-146304000D01*
X178816000Y-146304000D02*
X178562000Y-146304000D01*
%TO.N,Net-(C3-Pad1)*%
X167116418Y-108695428D02*
X166624000Y-108203010D01*
X166624000Y-98044000D02*
X167120458Y-97547542D01*
X166624000Y-108203010D02*
X166624000Y-98044000D01*
X181000000Y-87250000D02*
X189610000Y-87250000D01*
X189611000Y-87249000D02*
X189610000Y-87250000D01*
X193040000Y-87249000D02*
X189611000Y-87249000D01*
X193040000Y-87249000D02*
X195580000Y-87249000D01*
%TO.N,/V0*%
X181356000Y-96500000D02*
X182860000Y-94996000D01*
X182860000Y-94996000D02*
X183122002Y-94996000D01*
X183122002Y-94996000D02*
X204724000Y-94996000D01*
X192839002Y-83250000D02*
X201879003Y-92290001D01*
X201879003Y-92290001D02*
X207429999Y-92290001D01*
X177500000Y-83250000D02*
X192839002Y-83250000D01*
X204724000Y-94996000D02*
X207518000Y-92202000D01*
X207518000Y-92202000D02*
X212090000Y-92202000D01*
X212090000Y-92202000D02*
X212344000Y-92456000D01*
%TO.N,Net-(C5-Pad1)*%
X168750000Y-87500000D02*
X168750000Y-94000000D01*
X167750000Y-106282000D02*
X167750000Y-106618749D01*
X167750000Y-106790000D02*
X167750000Y-105266000D01*
X167750000Y-98750000D02*
X167750000Y-105266000D01*
X167750000Y-105266000D02*
X167750000Y-106282000D01*
X168148000Y-107188000D02*
X167750000Y-106790000D01*
X168402000Y-107188000D02*
X168148000Y-107188000D01*
%TO.N,/V1*%
X200250000Y-123463001D02*
X200250000Y-123463001D01*
X200250000Y-123463001D02*
X199937499Y-123150501D01*
X175410999Y-135024999D02*
X172121600Y-131735600D01*
X172121600Y-131735600D02*
X172121600Y-130138400D01*
X172121600Y-123500000D02*
X172121600Y-130138400D01*
X172121600Y-130138400D02*
X172121600Y-130444602D01*
X182196998Y-105410000D02*
X183554499Y-106767501D01*
X177800000Y-105410000D02*
X182196998Y-105410000D01*
X199937499Y-123150501D02*
X183554499Y-106767501D01*
X183554499Y-106767501D02*
X183173499Y-106386501D01*
X195426199Y-135024999D02*
X175410999Y-135024999D01*
X198577200Y-138176000D02*
X195426199Y-135024999D01*
X199937499Y-123150501D02*
X200250000Y-123463002D01*
X200250000Y-136242000D02*
X202184000Y-138176000D01*
X200250000Y-123463002D02*
X200250000Y-136242000D01*
X207772000Y-138176000D02*
X202184000Y-138176000D01*
X202184000Y-138176000D02*
X198577200Y-138176000D01*
X207772000Y-138176000D02*
X210820000Y-138176000D01*
%TO.N,/SW0*%
X180760000Y-104560000D02*
X181129200Y-104190800D01*
X186740800Y-104190800D02*
X190449200Y-100482400D01*
X181129200Y-104190800D02*
X186740800Y-104190800D01*
%TO.N,/VD25*%
X166624000Y-119697500D02*
X166204001Y-120117499D01*
X163652002Y-123356000D02*
X162331000Y-123356000D01*
X166204001Y-120804001D02*
X163652002Y-123356000D01*
X166204001Y-120117499D02*
X166204001Y-120804001D01*
%TO.N,/VD33*%
X165354000Y-120396000D02*
X163830000Y-120396000D01*
X159258000Y-115824000D02*
X159258000Y-118021100D01*
X161632900Y-120396000D02*
X163830000Y-120396000D01*
X159258000Y-118021100D02*
X161632900Y-120396000D01*
%TO.N,Net-(C10-Pad1)*%
X170180000Y-120523000D02*
X170019820Y-120362820D01*
X168500000Y-133350000D02*
X168500000Y-122203000D01*
X168500000Y-122203000D02*
X170180000Y-120523000D01*
%TO.N,/SW1*%
X180750000Y-141000000D02*
X179750000Y-142000000D01*
X183225001Y-124524999D02*
X181750000Y-126000000D01*
X183225001Y-109901999D02*
X183225001Y-124524999D01*
X180750000Y-141000000D02*
X180750000Y-137316000D01*
X180750000Y-137316000D02*
X180594000Y-137160000D01*
X178562000Y-108458000D02*
X181781002Y-108458000D01*
X181781002Y-108458000D02*
X182965501Y-109642499D01*
X182711501Y-109388499D02*
X182965501Y-109642499D01*
X182965501Y-109642499D02*
X183225001Y-109901999D01*
D17*
%TO.N,/VIN*%
X176060000Y-113240000D02*
X175660001Y-113639999D01*
D18*
X176784000Y-117348000D02*
X175660001Y-116224001D01*
D17*
X175660001Y-113639999D02*
X175660001Y-115931999D01*
D18*
X175660001Y-116224001D02*
X175660001Y-115931999D01*
D17*
X175660001Y-115931999D02*
X175660001Y-116114483D01*
D16*
X178816000Y-119380000D02*
X182375001Y-119380000D01*
X176784000Y-117348000D02*
X178816000Y-119380000D01*
%TO.N,/TG1*%
X178840001Y-126850001D02*
X189440001Y-126850001D01*
X177310000Y-125320000D02*
X178840001Y-126850001D01*
X189440001Y-126850001D02*
X190160000Y-127570000D01*
X190160000Y-127570000D02*
X190160000Y-130640000D01*
X189990000Y-130810000D02*
X189484000Y-130810000D01*
X190160000Y-130640000D02*
X189990000Y-130810000D01*
X177310000Y-130030000D02*
X176530000Y-130810000D01*
X177310000Y-125320000D02*
X177310000Y-130030000D01*
%TO.N,/BG1*%
X176110000Y-128750000D02*
X176110000Y-129610000D01*
X175000000Y-130720000D02*
X175000000Y-132250000D01*
X176110000Y-129610000D02*
X175000000Y-130720000D01*
X176108140Y-125260138D02*
X176108140Y-123498140D01*
X176110000Y-128750000D02*
X176110000Y-125261998D01*
X176108140Y-124068858D02*
X176108140Y-123498140D01*
X176110000Y-125261998D02*
X176108140Y-125260138D01*
X176108140Y-123498140D02*
X176108140Y-119500000D01*
X187629200Y-141250000D02*
X187909200Y-140970000D01*
X181750000Y-141250000D02*
X187629200Y-141250000D01*
%TO.N,/Vout1*%
X156972000Y-118872000D02*
X153416000Y-118872000D01*
X153416000Y-118872000D02*
X153162000Y-119126000D01*
%TO.N,/ASEL0*%
X160020000Y-133350000D02*
X160020000Y-132334000D01*
X158750000Y-134620000D02*
X160020000Y-133350000D01*
X142748000Y-118364000D02*
X142748000Y-130810000D01*
X145249990Y-115862010D02*
X142748000Y-118364000D01*
X146558000Y-134620000D02*
X158750000Y-134620000D01*
X142748000Y-130810000D02*
X146558000Y-134620000D01*
X152985374Y-115862010D02*
X145249990Y-115862010D01*
X159902002Y-115062000D02*
X159648002Y-114808000D01*
X159648002Y-114808000D02*
X154039384Y-114808000D01*
X165100000Y-115062000D02*
X159902002Y-115062000D01*
X154039384Y-114808000D02*
X152985374Y-115862010D01*
D18*
%TO.N,/PGOOD0*%
X176000000Y-111750000D02*
X176000000Y-112000000D01*
D17*
X176000000Y-104151998D02*
X176010002Y-104151998D01*
D16*
X176000000Y-111750000D02*
X176000000Y-105178000D01*
X176000000Y-103102000D02*
X176000000Y-105178000D01*
X176000000Y-105178000D02*
X176000000Y-104151998D01*
X165100000Y-92202000D02*
X176000000Y-103102000D01*
X160782000Y-92202000D02*
X165100000Y-92202000D01*
%TO.N,/SYNC*%
X164899310Y-97990690D02*
X156156690Y-97990690D01*
D18*
X156156690Y-97990690D02*
X156009310Y-97990690D01*
D16*
%TO.N,/SCL*%
X162814000Y-99568000D02*
X163132000Y-99250000D01*
X153162000Y-99568000D02*
X162814000Y-99568000D01*
D18*
%TO.N,/SDA*%
X164536000Y-102536000D02*
X164418000Y-102536000D01*
X164418000Y-102536000D02*
X164338000Y-102616000D01*
D16*
X163830000Y-102108000D02*
X164338000Y-102616000D01*
X153162000Y-102108000D02*
X163830000Y-102108000D01*
X164338000Y-108755166D02*
X164338000Y-102616000D01*
X166666417Y-111083583D02*
X164338000Y-108755166D01*
%TO.N,/ALERT*%
X162560000Y-104648000D02*
X162052000Y-104648000D01*
X163068000Y-105156000D02*
X162560000Y-104648000D01*
X153162000Y-104648000D02*
X162052000Y-104648000D01*
%TO.N,/FAULT0*%
X153162000Y-107188000D02*
X154559000Y-107188000D01*
X154940000Y-106807000D02*
X162560000Y-106807000D01*
X154559000Y-107188000D02*
X154940000Y-106807000D01*
%TO.N,/FAULT1*%
X161866000Y-109728000D02*
X161544000Y-109728000D01*
X162594000Y-109000000D02*
X161866000Y-109728000D01*
X153162000Y-109728000D02*
X161544000Y-109728000D01*
%TO.N,/RUN0*%
X162560000Y-112268000D02*
X162052000Y-112268000D01*
X163078000Y-111750000D02*
X162560000Y-112268000D01*
X153162000Y-112268000D02*
X162052000Y-112268000D01*
%TO.N,/RUN1*%
X152654000Y-115062000D02*
X153924000Y-113792000D01*
X144272000Y-115062000D02*
X152654000Y-115062000D01*
X153924000Y-113792000D02*
X163322000Y-113792000D01*
%TO.N,/PGND*%
X171196000Y-131799963D02*
X175706036Y-136309999D01*
X181521999Y-136309999D02*
X182626000Y-137414000D01*
X175706036Y-136309999D02*
X181521999Y-136309999D01*
X171196000Y-129286000D02*
X171196000Y-131799963D01*
X182626000Y-138074400D02*
X182626000Y-137414000D01*
D17*
%TO.N,Net-(C1-Pad1)*%
X165725000Y-94725000D02*
X165500000Y-94725000D01*
D16*
X168737499Y-97962501D02*
X169044251Y-98269253D01*
X169252001Y-98477003D02*
X168559699Y-97784701D01*
X169150000Y-110110000D02*
X169252001Y-110007999D01*
X165500000Y-94725000D02*
X168559699Y-97784701D01*
X168559699Y-97784701D02*
X168737499Y-97962501D01*
X169252001Y-109817799D02*
X169252001Y-98477003D01*
X169113200Y-109956600D02*
X169252001Y-109817799D01*
X192532000Y-142748000D02*
X192582800Y-142798800D01*
X181102000Y-142748000D02*
X192532000Y-142748000D01*
X196545200Y-142748000D02*
X196596000Y-142798800D01*
X192532000Y-142748000D02*
X196545200Y-142748000D01*
%TO.N,/TG0*%
X175260000Y-82804000D02*
X175260000Y-82550000D01*
X178899999Y-86443999D02*
X175260000Y-82804000D01*
X178899999Y-97365999D02*
X178899999Y-86443999D01*
X177965100Y-114452400D02*
X181533800Y-110883700D01*
X181533800Y-109804200D02*
X181610000Y-109728000D01*
X181533800Y-110883700D02*
X181533800Y-109804200D01*
X178899999Y-97365999D02*
X178899999Y-98508999D01*
X178899999Y-98508999D02*
X180594000Y-100203000D01*
D19*
%TO.N,/BG0*%
X176403000Y-115821480D02*
X176403000Y-115824000D01*
D16*
X178000000Y-91250000D02*
X177043000Y-92207000D01*
X177043000Y-92207000D02*
X176774999Y-92475001D01*
X176774998Y-92475002D02*
X177043000Y-92207000D01*
X176774998Y-108956998D02*
X176774998Y-92475002D01*
X176403000Y-115821480D02*
X176403000Y-115951000D01*
X176403000Y-115821480D02*
X177115099Y-115109381D01*
X177115099Y-109297099D02*
X176774998Y-108956998D01*
X177115099Y-115109381D02*
X177115099Y-109297099D01*
%TO.N,Net-(L1-Pad2)*%
X173774999Y-79717001D02*
X173736000Y-79756000D01*
X202399001Y-84300999D02*
X197815003Y-79717001D01*
X197815003Y-79717001D02*
X173774999Y-79717001D01*
X202399001Y-84300999D02*
X205232000Y-87133998D01*
X205232000Y-87133998D02*
X205232000Y-91440000D01*
%TO.N,Net-(L2-Pad2)*%
X206248000Y-141224000D02*
X206248000Y-139192000D01*
X203823199Y-143648801D02*
X206248000Y-141224000D01*
X173609000Y-147828000D02*
X177788199Y-143648801D01*
X177788199Y-143648801D02*
X203823199Y-143648801D01*
%TD*%
M02*
