%TF.GenerationSoftware,KiCad,Pcbnew,(5.1.6)-1*%
%TF.CreationDate,2020-10-29T17:58:23+05:30*%
%TF.ProjectId,LTC3884,4c544333-3838-4342-9e6b-696361645f70,rev?*%
%TF.SameCoordinates,Original*%
%TF.FileFunction,Copper,L3,Inr*%
%TF.FilePolarity,Positive*%
%FSLAX46Y46*%
G04 Gerber Fmt 4.6, Leading zero omitted, Abs format (unit mm)*
G04 Created by KiCad (PCBNEW (5.1.6)-1) date 2020-10-29 17:58:23*
%MOMM*%
%LPD*%
G01*
G04 APERTURE LIST*
%TA.AperFunction,ViaPad*%
%ADD10C,5.700000*%
%TD*%
%TA.AperFunction,ViaPad*%
%ADD11R,2.100000X2.100000*%
%TD*%
%TA.AperFunction,ViaPad*%
%ADD12C,2.100000*%
%TD*%
%TA.AperFunction,ViaPad*%
%ADD13R,1.700000X1.700000*%
%TD*%
%TA.AperFunction,ViaPad*%
%ADD14O,1.700000X1.700000*%
%TD*%
%TA.AperFunction,ViaPad*%
%ADD15C,0.800000*%
%TD*%
%TA.AperFunction,Conductor*%
%ADD16C,0.500000*%
%TD*%
%TA.AperFunction,Conductor*%
%ADD17C,0.254000*%
%TD*%
G04 APERTURE END LIST*
D10*
%TO.N,N/C*%
%TO.C,REF\u002A\u002A*%
X130810000Y-158750000D03*
%TD*%
%TO.N,N/C*%
%TO.C,REF\u002A\u002A*%
X237490000Y-158750000D03*
%TD*%
%TO.N,N/C*%
%TO.C,REF\u002A\u002A*%
X130810000Y-67310000D03*
%TD*%
%TO.N,N/C*%
%TO.C,REF\u002A\u002A*%
X237490000Y-67310000D03*
%TD*%
D11*
%TO.N,/VIN*%
%TO.C,J1*%
X217678000Y-113030000D03*
D12*
%TO.N,/PGND*%
X217678000Y-115570000D03*
%TD*%
D11*
%TO.N,/V0*%
%TO.C,J2*%
X221996000Y-99060000D03*
D12*
%TO.N,/PGND*%
X221996000Y-101600000D03*
%TD*%
D13*
%TO.N,/RUN1*%
%TO.C,J3*%
X140970000Y-115062000D03*
D14*
%TO.N,GND*%
X138430000Y-115062000D03*
%TO.N,/RUN0*%
X140970000Y-112522000D03*
%TO.N,GND*%
X138430000Y-112522000D03*
%TO.N,/FAULT1*%
X140970000Y-109982000D03*
%TO.N,GND*%
X138430000Y-109982000D03*
%TO.N,/FAULT0*%
X140970000Y-107442000D03*
%TO.N,GND*%
X138430000Y-107442000D03*
%TO.N,/ALERT*%
X140970000Y-104902000D03*
%TO.N,GND*%
X138430000Y-104902000D03*
%TO.N,/SDA*%
X140970000Y-102362000D03*
%TO.N,GND*%
X138430000Y-102362000D03*
%TO.N,/SCL*%
X140970000Y-99822000D03*
%TO.N,GND*%
X138430000Y-99822000D03*
%TO.N,/SYNC*%
X140970000Y-97282000D03*
%TO.N,GND*%
X138430000Y-97282000D03*
%TO.N,/PGOOD0*%
X140970000Y-94742000D03*
%TO.N,GND*%
X138430000Y-94742000D03*
%TO.N,/PGOOD1*%
X140970000Y-92202000D03*
%TO.N,GND*%
X138430000Y-92202000D03*
%TD*%
D12*
%TO.N,/PGND*%
%TO.C,J4*%
X219964000Y-128016000D03*
D11*
%TO.N,/V1*%
X219964000Y-130556000D03*
%TD*%
D15*
%TO.N,GND*%
X170180000Y-114173000D03*
X172466000Y-114173000D03*
X172593000Y-116713000D03*
X170180000Y-116713000D03*
X171323000Y-115570000D03*
X169926000Y-128524000D03*
X177546000Y-78867000D03*
X180238400Y-113995200D03*
X135890000Y-92202000D03*
X135890000Y-94742000D03*
X135890000Y-97282000D03*
X135890000Y-100076000D03*
X135890000Y-102362000D03*
X135890000Y-104902000D03*
X135890000Y-107442000D03*
X135890000Y-109982000D03*
X135890000Y-112522000D03*
X135890000Y-115062000D03*
X153670000Y-132588000D03*
X177800000Y-76200000D03*
X175260000Y-76200000D03*
X172720000Y-76200000D03*
X170180000Y-76200000D03*
X167640000Y-76200000D03*
X165100000Y-76200000D03*
X162560000Y-76200000D03*
X160020000Y-76200000D03*
X157480000Y-76200000D03*
X154940000Y-76200000D03*
X152400000Y-76200000D03*
X149860000Y-76200000D03*
X147320000Y-76200000D03*
X142240000Y-76200000D03*
X144780000Y-76200000D03*
X139700000Y-76200000D03*
X132080000Y-81280000D03*
X133858000Y-89662000D03*
X132080000Y-86360000D03*
X133858000Y-92202000D03*
X133858000Y-94742000D03*
X133858000Y-97282000D03*
X133858000Y-99822000D03*
X133858000Y-102362000D03*
X133858000Y-104902000D03*
X133858000Y-107442000D03*
X133858000Y-109982000D03*
X133858000Y-112522000D03*
X133858000Y-115062000D03*
X133858000Y-117602000D03*
X132080000Y-121920000D03*
X132080000Y-124460000D03*
X132080000Y-127000000D03*
X132080000Y-129540000D03*
X132080000Y-133096000D03*
X132080000Y-134620000D03*
X132080000Y-137160000D03*
X132080000Y-139700000D03*
X132080000Y-142240000D03*
X132080000Y-144780000D03*
X137160000Y-151130000D03*
X139700000Y-151130000D03*
X142240000Y-151130000D03*
X144780000Y-151130000D03*
X147320000Y-151130000D03*
X149860000Y-151130000D03*
X152400000Y-151130000D03*
X154940000Y-151130000D03*
X157480000Y-151130000D03*
X160020000Y-151130000D03*
X162560000Y-151130000D03*
X165100000Y-151130000D03*
X167640000Y-151130000D03*
X170180000Y-151130000D03*
X172720000Y-151130000D03*
X175260000Y-151130000D03*
X177800000Y-151130000D03*
X147955000Y-123825000D03*
X163576000Y-126746000D03*
X135890000Y-118110000D03*
X135890000Y-120650000D03*
X138430000Y-123190000D03*
X138430000Y-118110000D03*
X137160000Y-132080000D03*
X134620000Y-132080000D03*
X137160000Y-134620000D03*
X139700000Y-134620000D03*
X142240000Y-132080000D03*
X142240000Y-134620000D03*
X144780000Y-139700000D03*
X144780000Y-137160000D03*
X144780000Y-134620000D03*
X147320000Y-139700000D03*
X147320000Y-144780000D03*
X149860000Y-144780000D03*
X152400000Y-144780000D03*
X154940000Y-144780000D03*
X157480000Y-144780000D03*
X160020000Y-144780000D03*
X162560000Y-144780000D03*
X165100000Y-144780000D03*
X167640000Y-144780000D03*
X170180000Y-144780000D03*
X172720000Y-144780000D03*
X175260000Y-139700000D03*
X175260000Y-137160000D03*
X177800000Y-139700000D03*
X172720000Y-139700000D03*
X172720000Y-134620000D03*
X170180000Y-137160000D03*
X170180000Y-139700000D03*
X165100000Y-139700000D03*
X162560000Y-139700000D03*
X160020000Y-139700000D03*
X149860000Y-139700000D03*
X152400000Y-139700000D03*
X154940000Y-139700000D03*
X157480000Y-139700000D03*
X175260000Y-149352000D03*
X134620000Y-81280000D03*
X137160000Y-81280000D03*
X142240000Y-81280000D03*
X139700000Y-81280000D03*
X144780000Y-81280000D03*
X147320000Y-81280000D03*
X149860000Y-81280000D03*
X152400000Y-81280000D03*
X154940000Y-81280000D03*
X157480000Y-81280000D03*
X162560000Y-81280000D03*
X160020000Y-81280000D03*
X165100000Y-81280000D03*
X167640000Y-81280000D03*
X170180000Y-86360000D03*
X160020000Y-86360000D03*
X164338000Y-90678000D03*
X177800000Y-81280000D03*
X168910000Y-83820000D03*
X171450000Y-85090000D03*
X166370000Y-90170000D03*
X162560000Y-129540000D03*
X165100000Y-130810000D03*
X165100000Y-129540000D03*
X162560000Y-130810000D03*
X157480000Y-132080000D03*
X157480000Y-129540000D03*
X151892000Y-132588000D03*
X149860000Y-132588000D03*
X147320000Y-132588000D03*
X172212000Y-102425500D03*
X132080000Y-83820000D03*
X199136000Y-146304000D03*
X198120000Y-82296000D03*
X180340000Y-124460000D03*
%TO.N,Net-(C3-Pad1)*%
X181000000Y-87250000D03*
X167120458Y-97547542D03*
X167116418Y-108695428D03*
X195580000Y-87249000D03*
%TO.N,/V0*%
X177500000Y-83250000D03*
X181356000Y-96500000D03*
X212344000Y-92456000D03*
%TO.N,Net-(C5-Pad1)*%
X168750000Y-87500000D03*
X168750000Y-94000000D03*
X167750000Y-98750000D03*
X168402000Y-107188000D03*
%TO.N,/V1*%
X172121600Y-123500000D03*
X177800000Y-105410000D03*
X210820000Y-138176000D03*
%TO.N,/SW0*%
X190449200Y-100482400D03*
X180760000Y-104560000D03*
%TO.N,/VD25*%
X166624000Y-119697500D03*
X162331000Y-123356000D03*
%TO.N,/VD33*%
X165354000Y-120396000D03*
X159258000Y-115824000D03*
%TO.N,Net-(C10-Pad1)*%
X168500000Y-133350000D03*
X170019820Y-120362820D03*
%TO.N,/SW1*%
X181750000Y-126000000D03*
X179750000Y-142000000D03*
X180594000Y-137160000D03*
X178562000Y-108458000D03*
%TO.N,/VIN*%
X176060000Y-113240000D03*
X176784000Y-117348000D03*
X182375001Y-119380000D03*
%TO.N,/TG1*%
X189484000Y-130810000D03*
X176530000Y-130810000D03*
X177310000Y-125320000D03*
%TO.N,/BG1*%
X176108140Y-119500000D03*
X175000000Y-132250000D03*
X187909200Y-140970000D03*
X181750000Y-141250000D03*
X176123600Y-129260600D03*
%TO.N,/Vout1*%
X156972000Y-118872000D03*
X153162000Y-119126000D03*
%TO.N,/ASEL0*%
X165100000Y-115062000D03*
X160020000Y-132334000D03*
%TO.N,/PGOOD0*%
X176000000Y-111750000D03*
X160782000Y-92202000D03*
%TO.N,/SYNC*%
X164899310Y-97990690D03*
X156156690Y-97990690D03*
%TO.N,/SCL*%
X163132000Y-99250000D03*
X153162000Y-99568000D03*
%TO.N,/SDA*%
X166666417Y-111083583D03*
X164338000Y-102616000D03*
X153162000Y-102108000D03*
%TO.N,/ALERT*%
X163068000Y-105156000D03*
X153162000Y-104648000D03*
%TO.N,/FAULT0*%
X162560000Y-106807000D03*
X153162000Y-107188000D03*
%TO.N,/FAULT1*%
X162594000Y-109000000D03*
X153162000Y-109728000D03*
%TO.N,/RUN0*%
X163078000Y-111750000D03*
X153162000Y-112268000D03*
%TO.N,/RUN1*%
X163322000Y-113792000D03*
X144272000Y-115062000D03*
%TO.N,/PGND*%
X174015400Y-110388400D03*
X182880000Y-108204000D03*
X178435000Y-116205000D03*
X171196000Y-129286000D03*
X183642000Y-78867000D03*
X193040000Y-147320000D03*
X195580000Y-147320000D03*
X198120000Y-148336000D03*
X200660000Y-147320000D03*
X190500000Y-147320000D03*
X187960000Y-147320000D03*
X185420000Y-147320000D03*
X185420000Y-144780000D03*
X187960000Y-144780000D03*
X190500000Y-144780000D03*
X203073000Y-78867000D03*
X187833000Y-78867000D03*
X190373000Y-78867000D03*
X192913000Y-78867000D03*
X195453000Y-78867000D03*
X197993000Y-78867000D03*
X200533000Y-78867000D03*
X191008000Y-104140000D03*
X220980000Y-147320000D03*
X218440000Y-147320000D03*
X223520000Y-78740000D03*
X220980000Y-78740000D03*
X218440000Y-78740000D03*
X207010000Y-78740000D03*
X210820000Y-78740000D03*
X214630000Y-78740000D03*
X190500000Y-85090000D03*
X187960000Y-85090000D03*
X187960000Y-88900000D03*
X190500000Y-88900000D03*
X190500000Y-91440000D03*
X191770000Y-125730000D03*
X191770000Y-128270000D03*
X198120000Y-128524000D03*
X195072000Y-128524000D03*
X201930000Y-128270000D03*
X207010000Y-128270000D03*
X204470000Y-128270000D03*
X198628000Y-101600000D03*
X205740000Y-101600000D03*
X203200000Y-101600000D03*
X200660000Y-101600000D03*
X196088000Y-101600000D03*
X193040000Y-101600000D03*
X191008000Y-102108000D03*
X193040000Y-104140000D03*
X203200000Y-147320000D03*
X185420000Y-88900000D03*
X185420000Y-86360000D03*
X185293000Y-78867000D03*
X182880000Y-76200000D03*
X182880000Y-81280000D03*
X182880000Y-88900000D03*
X182880000Y-93980000D03*
X182880000Y-74676000D03*
X185420000Y-74676000D03*
X187960000Y-74676000D03*
X190500000Y-74676000D03*
X195580000Y-74676000D03*
X193040000Y-74676000D03*
X198120000Y-74676000D03*
X200660000Y-74676000D03*
X203200000Y-74676000D03*
X205740000Y-74676000D03*
X208280000Y-74676000D03*
X210820000Y-74676000D03*
X213360000Y-74676000D03*
X215900000Y-74676000D03*
X218440000Y-74676000D03*
X220980000Y-74676000D03*
X223520000Y-74676000D03*
X226060000Y-74676000D03*
X237744000Y-81788000D03*
X237744000Y-84328000D03*
X237744000Y-86868000D03*
X237744000Y-89408000D03*
X237744000Y-91948000D03*
X237744000Y-94742000D03*
X237744000Y-97028000D03*
X237744000Y-99568000D03*
X237744000Y-102108000D03*
X237744000Y-104648000D03*
X237744000Y-107188000D03*
X237744000Y-109728000D03*
X237744000Y-112268000D03*
X237744000Y-114808000D03*
X237744000Y-117348000D03*
X237744000Y-119888000D03*
X237744000Y-122428000D03*
X237744000Y-124968000D03*
X237744000Y-127508000D03*
X237744000Y-130048000D03*
X237744000Y-132588000D03*
X237744000Y-135128000D03*
X237744000Y-137668000D03*
X237744000Y-140208000D03*
X237744000Y-142748000D03*
X226060000Y-151638000D03*
X223520000Y-151638000D03*
X220980000Y-151638000D03*
X218440000Y-151638000D03*
X215900000Y-151638000D03*
X213360000Y-151638000D03*
X210820000Y-151638000D03*
X208280000Y-151638000D03*
X205740000Y-151638000D03*
X203200000Y-151638000D03*
X200660000Y-151638000D03*
X198374000Y-151638000D03*
X195834000Y-151638000D03*
X193040000Y-151638000D03*
X190500000Y-151638000D03*
X187960000Y-151638000D03*
X185420000Y-151638000D03*
X182626000Y-151638000D03*
X182626000Y-149860000D03*
X182626000Y-147320000D03*
X182626000Y-145288000D03*
X182626000Y-139446000D03*
X182626000Y-138074400D03*
X183134000Y-77724000D03*
X184150000Y-85344000D03*
X184150000Y-88900000D03*
X182880000Y-92202000D03*
X182880000Y-97282000D03*
X182880000Y-101600000D03*
X203200000Y-83820000D03*
X205740000Y-83820000D03*
X205740000Y-147320000D03*
X208280000Y-147320000D03*
X210820000Y-147320000D03*
X213360000Y-147320000D03*
X215900000Y-147320000D03*
X208280000Y-144780000D03*
X203200000Y-144780000D03*
X208280000Y-83820000D03*
X210820000Y-83820000D03*
X191770000Y-139700000D03*
X190500000Y-139700000D03*
X190500000Y-140970000D03*
X191770000Y-140970000D03*
X226060000Y-78740000D03*
X228600000Y-74676000D03*
X228600000Y-78740000D03*
X223520000Y-147320000D03*
X226060000Y-147320000D03*
X228600000Y-147320000D03*
X231140000Y-147320000D03*
X228600000Y-151384000D03*
X231140000Y-151384000D03*
X185966817Y-114246779D03*
X210820000Y-87630000D03*
X208280000Y-87630000D03*
X213360000Y-87630000D03*
X213360000Y-85090000D03*
X213360000Y-82550000D03*
X215900000Y-82550000D03*
X218440000Y-82550000D03*
X220980000Y-82550000D03*
X220980000Y-85090000D03*
X220980000Y-87630000D03*
X223520000Y-87630000D03*
X223520000Y-85090000D03*
X223520000Y-82550000D03*
X226060000Y-82550000D03*
X228600000Y-82550000D03*
X231140000Y-82550000D03*
X233680000Y-82550000D03*
X233680000Y-85090000D03*
X231140000Y-85090000D03*
X213360000Y-144780000D03*
X213360000Y-142240000D03*
X210820000Y-142240000D03*
X208280000Y-142240000D03*
X210820000Y-144780000D03*
X219710000Y-144780000D03*
X219710000Y-142240000D03*
X222250000Y-142240000D03*
X222250000Y-144780000D03*
X228600000Y-144780000D03*
X228600000Y-142240000D03*
X231140000Y-142240000D03*
X231140000Y-144780000D03*
%TO.N,Net-(C1-Pad1)*%
X165500000Y-94725000D03*
X169113200Y-109956600D03*
X181102000Y-142748000D03*
X196596000Y-142798800D03*
%TO.N,/TG0*%
X177965100Y-114452400D03*
X181610000Y-109728000D03*
X175260000Y-82550000D03*
X180594000Y-100203000D03*
%TO.N,/BG0*%
X178000000Y-91250000D03*
X176403000Y-115821480D03*
%TO.N,Net-(L1-Pad2)*%
X173736000Y-79756000D03*
X205232000Y-91440000D03*
%TO.N,Net-(L2-Pad2)*%
X173609000Y-147828000D03*
X206248000Y-139192000D03*
%TD*%
D16*
%TO.N,GND*%
X156210000Y-124206000D02*
X156083000Y-124079000D01*
%TD*%
D17*
%TO.N,/PGND*%
G36*
X239141000Y-152273000D02*
G01*
X181991000Y-152273000D01*
X181991000Y-146202061D01*
X198101000Y-146202061D01*
X198101000Y-146405939D01*
X198140774Y-146605898D01*
X198218795Y-146794256D01*
X198332063Y-146963774D01*
X198476226Y-147107937D01*
X198645744Y-147221205D01*
X198834102Y-147299226D01*
X199034061Y-147339000D01*
X199237939Y-147339000D01*
X199437898Y-147299226D01*
X199626256Y-147221205D01*
X199795774Y-147107937D01*
X199939937Y-146963774D01*
X200053205Y-146794256D01*
X200131226Y-146605898D01*
X200171000Y-146405939D01*
X200171000Y-146202061D01*
X200131226Y-146002102D01*
X200053205Y-145813744D01*
X199939937Y-145644226D01*
X199795774Y-145500063D01*
X199626256Y-145386795D01*
X199437898Y-145308774D01*
X199237939Y-145269000D01*
X199034061Y-145269000D01*
X198834102Y-145308774D01*
X198645744Y-145386795D01*
X198476226Y-145500063D01*
X198332063Y-145644226D01*
X198218795Y-145813744D01*
X198140774Y-146002102D01*
X198101000Y-146202061D01*
X181991000Y-146202061D01*
X181991000Y-143280468D01*
X182019205Y-143238256D01*
X182097226Y-143049898D01*
X182137000Y-142849939D01*
X182137000Y-142696861D01*
X195561000Y-142696861D01*
X195561000Y-142900739D01*
X195600774Y-143100698D01*
X195678795Y-143289056D01*
X195792063Y-143458574D01*
X195936226Y-143602737D01*
X196105744Y-143716005D01*
X196294102Y-143794026D01*
X196494061Y-143833800D01*
X196697939Y-143833800D01*
X196897898Y-143794026D01*
X197086256Y-143716005D01*
X197255774Y-143602737D01*
X197399937Y-143458574D01*
X197513205Y-143289056D01*
X197591226Y-143100698D01*
X197631000Y-142900739D01*
X197631000Y-142696861D01*
X197591226Y-142496902D01*
X197513205Y-142308544D01*
X197399937Y-142139026D01*
X197255774Y-141994863D01*
X197086256Y-141881595D01*
X196897898Y-141803574D01*
X196697939Y-141763800D01*
X196494061Y-141763800D01*
X196294102Y-141803574D01*
X196105744Y-141881595D01*
X195936226Y-141994863D01*
X195792063Y-142139026D01*
X195678795Y-142308544D01*
X195600774Y-142496902D01*
X195561000Y-142696861D01*
X182137000Y-142696861D01*
X182137000Y-142646061D01*
X182097226Y-142446102D01*
X182019205Y-142257744D01*
X182015657Y-142252435D01*
X182051898Y-142245226D01*
X182240256Y-142167205D01*
X182409774Y-142053937D01*
X182553937Y-141909774D01*
X182667205Y-141740256D01*
X182745226Y-141551898D01*
X182785000Y-141351939D01*
X182785000Y-141148061D01*
X182745226Y-140948102D01*
X182712072Y-140868061D01*
X186874200Y-140868061D01*
X186874200Y-141071939D01*
X186913974Y-141271898D01*
X186991995Y-141460256D01*
X187105263Y-141629774D01*
X187249426Y-141773937D01*
X187418944Y-141887205D01*
X187607302Y-141965226D01*
X187807261Y-142005000D01*
X188011139Y-142005000D01*
X188211098Y-141965226D01*
X188399456Y-141887205D01*
X188568974Y-141773937D01*
X188713137Y-141629774D01*
X188826405Y-141460256D01*
X188904426Y-141271898D01*
X188944200Y-141071939D01*
X188944200Y-140868061D01*
X188904426Y-140668102D01*
X188826405Y-140479744D01*
X188713137Y-140310226D01*
X188568974Y-140166063D01*
X188399456Y-140052795D01*
X188211098Y-139974774D01*
X188011139Y-139935000D01*
X187807261Y-139935000D01*
X187607302Y-139974774D01*
X187418944Y-140052795D01*
X187249426Y-140166063D01*
X187105263Y-140310226D01*
X186991995Y-140479744D01*
X186913974Y-140668102D01*
X186874200Y-140868061D01*
X182712072Y-140868061D01*
X182667205Y-140759744D01*
X182553937Y-140590226D01*
X182409774Y-140446063D01*
X182240256Y-140332795D01*
X182051898Y-140254774D01*
X181991000Y-140242661D01*
X181991000Y-139090061D01*
X205213000Y-139090061D01*
X205213000Y-139293939D01*
X205252774Y-139493898D01*
X205330795Y-139682256D01*
X205444063Y-139851774D01*
X205588226Y-139995937D01*
X205757744Y-140109205D01*
X205946102Y-140187226D01*
X206146061Y-140227000D01*
X206349939Y-140227000D01*
X206549898Y-140187226D01*
X206738256Y-140109205D01*
X206907774Y-139995937D01*
X207051937Y-139851774D01*
X207165205Y-139682256D01*
X207243226Y-139493898D01*
X207283000Y-139293939D01*
X207283000Y-139090061D01*
X207243226Y-138890102D01*
X207165205Y-138701744D01*
X207051937Y-138532226D01*
X206907774Y-138388063D01*
X206738256Y-138274795D01*
X206549898Y-138196774D01*
X206349939Y-138157000D01*
X206146061Y-138157000D01*
X205946102Y-138196774D01*
X205757744Y-138274795D01*
X205588226Y-138388063D01*
X205444063Y-138532226D01*
X205330795Y-138701744D01*
X205252774Y-138890102D01*
X205213000Y-139090061D01*
X181991000Y-139090061D01*
X181991000Y-138074061D01*
X209785000Y-138074061D01*
X209785000Y-138277939D01*
X209824774Y-138477898D01*
X209902795Y-138666256D01*
X210016063Y-138835774D01*
X210160226Y-138979937D01*
X210329744Y-139093205D01*
X210518102Y-139171226D01*
X210718061Y-139211000D01*
X210921939Y-139211000D01*
X211121898Y-139171226D01*
X211310256Y-139093205D01*
X211479774Y-138979937D01*
X211623937Y-138835774D01*
X211737205Y-138666256D01*
X211815226Y-138477898D01*
X211855000Y-138277939D01*
X211855000Y-138074061D01*
X211815226Y-137874102D01*
X211737205Y-137685744D01*
X211623937Y-137516226D01*
X211479774Y-137372063D01*
X211310256Y-137258795D01*
X211121898Y-137180774D01*
X210921939Y-137141000D01*
X210718061Y-137141000D01*
X210518102Y-137180774D01*
X210329744Y-137258795D01*
X210160226Y-137372063D01*
X210016063Y-137516226D01*
X209902795Y-137685744D01*
X209824774Y-137874102D01*
X209785000Y-138074061D01*
X181991000Y-138074061D01*
X181991000Y-130708061D01*
X188449000Y-130708061D01*
X188449000Y-130911939D01*
X188488774Y-131111898D01*
X188566795Y-131300256D01*
X188680063Y-131469774D01*
X188824226Y-131613937D01*
X188993744Y-131727205D01*
X189182102Y-131805226D01*
X189382061Y-131845000D01*
X189585939Y-131845000D01*
X189785898Y-131805226D01*
X189974256Y-131727205D01*
X190143774Y-131613937D01*
X190287937Y-131469774D01*
X190401205Y-131300256D01*
X190479226Y-131111898D01*
X190519000Y-130911939D01*
X190519000Y-130708061D01*
X190479226Y-130508102D01*
X190401205Y-130319744D01*
X190287937Y-130150226D01*
X190143774Y-130006063D01*
X189974256Y-129892795D01*
X189785898Y-129814774D01*
X189585939Y-129775000D01*
X189382061Y-129775000D01*
X189182102Y-129814774D01*
X188993744Y-129892795D01*
X188824226Y-130006063D01*
X188680063Y-130150226D01*
X188566795Y-130319744D01*
X188488774Y-130508102D01*
X188449000Y-130708061D01*
X181991000Y-130708061D01*
X181991000Y-128076617D01*
X218271934Y-128076617D01*
X218316272Y-128405557D01*
X218423931Y-128719527D01*
X218523421Y-128905661D01*
X218621082Y-128942549D01*
X218559506Y-128975463D01*
X218462815Y-129054815D01*
X218383463Y-129151506D01*
X218324498Y-129261820D01*
X218288188Y-129381518D01*
X218275928Y-129506000D01*
X218275928Y-131606000D01*
X218288188Y-131730482D01*
X218324498Y-131850180D01*
X218383463Y-131960494D01*
X218462815Y-132057185D01*
X218559506Y-132136537D01*
X218669820Y-132195502D01*
X218789518Y-132231812D01*
X218914000Y-132244072D01*
X221014000Y-132244072D01*
X221138482Y-132231812D01*
X221258180Y-132195502D01*
X221368494Y-132136537D01*
X221465185Y-132057185D01*
X221544537Y-131960494D01*
X221603502Y-131850180D01*
X221639812Y-131730482D01*
X221652072Y-131606000D01*
X221652072Y-129506000D01*
X221639812Y-129381518D01*
X221603502Y-129261820D01*
X221544537Y-129151506D01*
X221465185Y-129054815D01*
X221368494Y-128975463D01*
X221306918Y-128942549D01*
X221404579Y-128905661D01*
X221550463Y-128607523D01*
X221635380Y-128286654D01*
X221656066Y-127955383D01*
X221611728Y-127626443D01*
X221504069Y-127312473D01*
X221404579Y-127126339D01*
X221135066Y-127024539D01*
X220143605Y-128016000D01*
X220157748Y-128030143D01*
X219978143Y-128209748D01*
X219964000Y-128195605D01*
X219949858Y-128209748D01*
X219770253Y-128030143D01*
X219784395Y-128016000D01*
X218792934Y-127024539D01*
X218523421Y-127126339D01*
X218377537Y-127424477D01*
X218292620Y-127745346D01*
X218271934Y-128076617D01*
X181991000Y-128076617D01*
X181991000Y-127007339D01*
X182051898Y-126995226D01*
X182240256Y-126917205D01*
X182348417Y-126844934D01*
X218972539Y-126844934D01*
X219964000Y-127836395D01*
X220955461Y-126844934D01*
X220853661Y-126575421D01*
X220555523Y-126429537D01*
X220234654Y-126344620D01*
X219903383Y-126323934D01*
X219574443Y-126368272D01*
X219260473Y-126475931D01*
X219074339Y-126575421D01*
X218972539Y-126844934D01*
X182348417Y-126844934D01*
X182409774Y-126803937D01*
X182553937Y-126659774D01*
X182667205Y-126490256D01*
X182745226Y-126301898D01*
X182785000Y-126101939D01*
X182785000Y-125898061D01*
X182745226Y-125698102D01*
X182667205Y-125509744D01*
X182553937Y-125340226D01*
X182409774Y-125196063D01*
X182240256Y-125082795D01*
X182051898Y-125004774D01*
X181991000Y-124992661D01*
X181991000Y-120341218D01*
X182073103Y-120375226D01*
X182273062Y-120415000D01*
X182476940Y-120415000D01*
X182676899Y-120375226D01*
X182865257Y-120297205D01*
X183034775Y-120183937D01*
X183178938Y-120039774D01*
X183292206Y-119870256D01*
X183370227Y-119681898D01*
X183410001Y-119481939D01*
X183410001Y-119278061D01*
X183370227Y-119078102D01*
X183292206Y-118889744D01*
X183178938Y-118720226D01*
X183034775Y-118576063D01*
X182865257Y-118462795D01*
X182676899Y-118384774D01*
X182476940Y-118345000D01*
X182273062Y-118345000D01*
X182073103Y-118384774D01*
X181991000Y-118418782D01*
X181991000Y-116741066D01*
X216686539Y-116741066D01*
X216788339Y-117010579D01*
X217086477Y-117156463D01*
X217407346Y-117241380D01*
X217738617Y-117262066D01*
X218067557Y-117217728D01*
X218381527Y-117110069D01*
X218567661Y-117010579D01*
X218669461Y-116741066D01*
X217678000Y-115749605D01*
X216686539Y-116741066D01*
X181991000Y-116741066D01*
X181991000Y-115630617D01*
X215985934Y-115630617D01*
X216030272Y-115959557D01*
X216137931Y-116273527D01*
X216237421Y-116459661D01*
X216506934Y-116561461D01*
X217498395Y-115570000D01*
X217484253Y-115555858D01*
X217663858Y-115376253D01*
X217678000Y-115390395D01*
X217692143Y-115376253D01*
X217871748Y-115555858D01*
X217857605Y-115570000D01*
X218849066Y-116561461D01*
X219118579Y-116459661D01*
X219264463Y-116161523D01*
X219349380Y-115840654D01*
X219370066Y-115509383D01*
X219325728Y-115180443D01*
X219218069Y-114866473D01*
X219118579Y-114680339D01*
X219020918Y-114643451D01*
X219082494Y-114610537D01*
X219179185Y-114531185D01*
X219258537Y-114434494D01*
X219317502Y-114324180D01*
X219353812Y-114204482D01*
X219366072Y-114080000D01*
X219366072Y-111980000D01*
X219353812Y-111855518D01*
X219317502Y-111735820D01*
X219258537Y-111625506D01*
X219179185Y-111528815D01*
X219082494Y-111449463D01*
X218972180Y-111390498D01*
X218852482Y-111354188D01*
X218728000Y-111341928D01*
X216628000Y-111341928D01*
X216503518Y-111354188D01*
X216383820Y-111390498D01*
X216273506Y-111449463D01*
X216176815Y-111528815D01*
X216097463Y-111625506D01*
X216038498Y-111735820D01*
X216002188Y-111855518D01*
X215989928Y-111980000D01*
X215989928Y-114080000D01*
X216002188Y-114204482D01*
X216038498Y-114324180D01*
X216097463Y-114434494D01*
X216176815Y-114531185D01*
X216273506Y-114610537D01*
X216335082Y-114643451D01*
X216237421Y-114680339D01*
X216091537Y-114978477D01*
X216006620Y-115299346D01*
X215985934Y-115630617D01*
X181991000Y-115630617D01*
X181991000Y-110690461D01*
X182100256Y-110645205D01*
X182269774Y-110531937D01*
X182413937Y-110387774D01*
X182527205Y-110218256D01*
X182605226Y-110029898D01*
X182645000Y-109829939D01*
X182645000Y-109626061D01*
X182605226Y-109426102D01*
X182527205Y-109237744D01*
X182413937Y-109068226D01*
X182269774Y-108924063D01*
X182100256Y-108810795D01*
X181991000Y-108765539D01*
X181991000Y-102771066D01*
X221004539Y-102771066D01*
X221106339Y-103040579D01*
X221404477Y-103186463D01*
X221725346Y-103271380D01*
X222056617Y-103292066D01*
X222385557Y-103247728D01*
X222699527Y-103140069D01*
X222885661Y-103040579D01*
X222987461Y-102771066D01*
X221996000Y-101779605D01*
X221004539Y-102771066D01*
X181991000Y-102771066D01*
X181991000Y-101660617D01*
X220303934Y-101660617D01*
X220348272Y-101989557D01*
X220455931Y-102303527D01*
X220555421Y-102489661D01*
X220824934Y-102591461D01*
X221816395Y-101600000D01*
X221802253Y-101585858D01*
X221981858Y-101406253D01*
X221996000Y-101420395D01*
X222010143Y-101406253D01*
X222189748Y-101585858D01*
X222175605Y-101600000D01*
X223167066Y-102591461D01*
X223436579Y-102489661D01*
X223582463Y-102191523D01*
X223667380Y-101870654D01*
X223688066Y-101539383D01*
X223643728Y-101210443D01*
X223536069Y-100896473D01*
X223436579Y-100710339D01*
X223338918Y-100673451D01*
X223400494Y-100640537D01*
X223497185Y-100561185D01*
X223576537Y-100464494D01*
X223635502Y-100354180D01*
X223671812Y-100234482D01*
X223684072Y-100110000D01*
X223684072Y-98010000D01*
X223671812Y-97885518D01*
X223635502Y-97765820D01*
X223576537Y-97655506D01*
X223497185Y-97558815D01*
X223400494Y-97479463D01*
X223290180Y-97420498D01*
X223170482Y-97384188D01*
X223046000Y-97371928D01*
X220946000Y-97371928D01*
X220821518Y-97384188D01*
X220701820Y-97420498D01*
X220591506Y-97479463D01*
X220494815Y-97558815D01*
X220415463Y-97655506D01*
X220356498Y-97765820D01*
X220320188Y-97885518D01*
X220307928Y-98010000D01*
X220307928Y-100110000D01*
X220320188Y-100234482D01*
X220356498Y-100354180D01*
X220415463Y-100464494D01*
X220494815Y-100561185D01*
X220591506Y-100640537D01*
X220653082Y-100673451D01*
X220555421Y-100710339D01*
X220409537Y-101008477D01*
X220324620Y-101329346D01*
X220303934Y-101660617D01*
X181991000Y-101660617D01*
X181991000Y-100380461D01*
X189414200Y-100380461D01*
X189414200Y-100584339D01*
X189453974Y-100784298D01*
X189531995Y-100972656D01*
X189645263Y-101142174D01*
X189789426Y-101286337D01*
X189958944Y-101399605D01*
X190147302Y-101477626D01*
X190347261Y-101517400D01*
X190551139Y-101517400D01*
X190751098Y-101477626D01*
X190939456Y-101399605D01*
X191108974Y-101286337D01*
X191253137Y-101142174D01*
X191366405Y-100972656D01*
X191444426Y-100784298D01*
X191484200Y-100584339D01*
X191484200Y-100380461D01*
X191444426Y-100180502D01*
X191366405Y-99992144D01*
X191253137Y-99822626D01*
X191108974Y-99678463D01*
X190939456Y-99565195D01*
X190751098Y-99487174D01*
X190551139Y-99447400D01*
X190347261Y-99447400D01*
X190147302Y-99487174D01*
X189958944Y-99565195D01*
X189789426Y-99678463D01*
X189645263Y-99822626D01*
X189531995Y-99992144D01*
X189453974Y-100180502D01*
X189414200Y-100380461D01*
X181991000Y-100380461D01*
X181991000Y-97320490D01*
X182015774Y-97303937D01*
X182159937Y-97159774D01*
X182273205Y-96990256D01*
X182351226Y-96801898D01*
X182391000Y-96601939D01*
X182391000Y-96398061D01*
X182351226Y-96198102D01*
X182273205Y-96009744D01*
X182159937Y-95840226D01*
X182015774Y-95696063D01*
X181991000Y-95679510D01*
X181991000Y-91338061D01*
X204197000Y-91338061D01*
X204197000Y-91541939D01*
X204236774Y-91741898D01*
X204314795Y-91930256D01*
X204428063Y-92099774D01*
X204572226Y-92243937D01*
X204741744Y-92357205D01*
X204930102Y-92435226D01*
X205130061Y-92475000D01*
X205333939Y-92475000D01*
X205533898Y-92435226D01*
X205722256Y-92357205D01*
X205726961Y-92354061D01*
X211309000Y-92354061D01*
X211309000Y-92557939D01*
X211348774Y-92757898D01*
X211426795Y-92946256D01*
X211540063Y-93115774D01*
X211684226Y-93259937D01*
X211853744Y-93373205D01*
X212042102Y-93451226D01*
X212242061Y-93491000D01*
X212445939Y-93491000D01*
X212645898Y-93451226D01*
X212834256Y-93373205D01*
X213003774Y-93259937D01*
X213147937Y-93115774D01*
X213261205Y-92946256D01*
X213339226Y-92757898D01*
X213379000Y-92557939D01*
X213379000Y-92354061D01*
X213339226Y-92154102D01*
X213261205Y-91965744D01*
X213147937Y-91796226D01*
X213003774Y-91652063D01*
X212834256Y-91538795D01*
X212645898Y-91460774D01*
X212445939Y-91421000D01*
X212242061Y-91421000D01*
X212042102Y-91460774D01*
X211853744Y-91538795D01*
X211684226Y-91652063D01*
X211540063Y-91796226D01*
X211426795Y-91965744D01*
X211348774Y-92154102D01*
X211309000Y-92354061D01*
X205726961Y-92354061D01*
X205891774Y-92243937D01*
X206035937Y-92099774D01*
X206149205Y-91930256D01*
X206227226Y-91741898D01*
X206267000Y-91541939D01*
X206267000Y-91338061D01*
X206227226Y-91138102D01*
X206149205Y-90949744D01*
X206035937Y-90780226D01*
X205891774Y-90636063D01*
X205722256Y-90522795D01*
X205533898Y-90444774D01*
X205333939Y-90405000D01*
X205130061Y-90405000D01*
X204930102Y-90444774D01*
X204741744Y-90522795D01*
X204572226Y-90636063D01*
X204428063Y-90780226D01*
X204314795Y-90949744D01*
X204236774Y-91138102D01*
X204197000Y-91338061D01*
X181991000Y-91338061D01*
X181991000Y-87562100D01*
X181995226Y-87551898D01*
X182035000Y-87351939D01*
X182035000Y-87148061D01*
X182034802Y-87147061D01*
X194545000Y-87147061D01*
X194545000Y-87350939D01*
X194584774Y-87550898D01*
X194662795Y-87739256D01*
X194776063Y-87908774D01*
X194920226Y-88052937D01*
X195089744Y-88166205D01*
X195278102Y-88244226D01*
X195478061Y-88284000D01*
X195681939Y-88284000D01*
X195881898Y-88244226D01*
X196070256Y-88166205D01*
X196239774Y-88052937D01*
X196383937Y-87908774D01*
X196497205Y-87739256D01*
X196575226Y-87550898D01*
X196615000Y-87350939D01*
X196615000Y-87147061D01*
X196575226Y-86947102D01*
X196497205Y-86758744D01*
X196383937Y-86589226D01*
X196239774Y-86445063D01*
X196070256Y-86331795D01*
X195881898Y-86253774D01*
X195681939Y-86214000D01*
X195478061Y-86214000D01*
X195278102Y-86253774D01*
X195089744Y-86331795D01*
X194920226Y-86445063D01*
X194776063Y-86589226D01*
X194662795Y-86758744D01*
X194584774Y-86947102D01*
X194545000Y-87147061D01*
X182034802Y-87147061D01*
X181995226Y-86948102D01*
X181991000Y-86937900D01*
X181991000Y-82194061D01*
X197085000Y-82194061D01*
X197085000Y-82397939D01*
X197124774Y-82597898D01*
X197202795Y-82786256D01*
X197316063Y-82955774D01*
X197460226Y-83099937D01*
X197629744Y-83213205D01*
X197818102Y-83291226D01*
X198018061Y-83331000D01*
X198221939Y-83331000D01*
X198421898Y-83291226D01*
X198610256Y-83213205D01*
X198779774Y-83099937D01*
X198923937Y-82955774D01*
X199037205Y-82786256D01*
X199115226Y-82597898D01*
X199155000Y-82397939D01*
X199155000Y-82194061D01*
X199115226Y-81994102D01*
X199037205Y-81805744D01*
X198923937Y-81636226D01*
X198779774Y-81492063D01*
X198610256Y-81378795D01*
X198421898Y-81300774D01*
X198221939Y-81261000D01*
X198018061Y-81261000D01*
X197818102Y-81300774D01*
X197629744Y-81378795D01*
X197460226Y-81492063D01*
X197316063Y-81636226D01*
X197202795Y-81805744D01*
X197124774Y-81994102D01*
X197085000Y-82194061D01*
X181991000Y-82194061D01*
X181991000Y-73787000D01*
X239141000Y-73787000D01*
X239141000Y-152273000D01*
G37*
X239141000Y-152273000D02*
X181991000Y-152273000D01*
X181991000Y-146202061D01*
X198101000Y-146202061D01*
X198101000Y-146405939D01*
X198140774Y-146605898D01*
X198218795Y-146794256D01*
X198332063Y-146963774D01*
X198476226Y-147107937D01*
X198645744Y-147221205D01*
X198834102Y-147299226D01*
X199034061Y-147339000D01*
X199237939Y-147339000D01*
X199437898Y-147299226D01*
X199626256Y-147221205D01*
X199795774Y-147107937D01*
X199939937Y-146963774D01*
X200053205Y-146794256D01*
X200131226Y-146605898D01*
X200171000Y-146405939D01*
X200171000Y-146202061D01*
X200131226Y-146002102D01*
X200053205Y-145813744D01*
X199939937Y-145644226D01*
X199795774Y-145500063D01*
X199626256Y-145386795D01*
X199437898Y-145308774D01*
X199237939Y-145269000D01*
X199034061Y-145269000D01*
X198834102Y-145308774D01*
X198645744Y-145386795D01*
X198476226Y-145500063D01*
X198332063Y-145644226D01*
X198218795Y-145813744D01*
X198140774Y-146002102D01*
X198101000Y-146202061D01*
X181991000Y-146202061D01*
X181991000Y-143280468D01*
X182019205Y-143238256D01*
X182097226Y-143049898D01*
X182137000Y-142849939D01*
X182137000Y-142696861D01*
X195561000Y-142696861D01*
X195561000Y-142900739D01*
X195600774Y-143100698D01*
X195678795Y-143289056D01*
X195792063Y-143458574D01*
X195936226Y-143602737D01*
X196105744Y-143716005D01*
X196294102Y-143794026D01*
X196494061Y-143833800D01*
X196697939Y-143833800D01*
X196897898Y-143794026D01*
X197086256Y-143716005D01*
X197255774Y-143602737D01*
X197399937Y-143458574D01*
X197513205Y-143289056D01*
X197591226Y-143100698D01*
X197631000Y-142900739D01*
X197631000Y-142696861D01*
X197591226Y-142496902D01*
X197513205Y-142308544D01*
X197399937Y-142139026D01*
X197255774Y-141994863D01*
X197086256Y-141881595D01*
X196897898Y-141803574D01*
X196697939Y-141763800D01*
X196494061Y-141763800D01*
X196294102Y-141803574D01*
X196105744Y-141881595D01*
X195936226Y-141994863D01*
X195792063Y-142139026D01*
X195678795Y-142308544D01*
X195600774Y-142496902D01*
X195561000Y-142696861D01*
X182137000Y-142696861D01*
X182137000Y-142646061D01*
X182097226Y-142446102D01*
X182019205Y-142257744D01*
X182015657Y-142252435D01*
X182051898Y-142245226D01*
X182240256Y-142167205D01*
X182409774Y-142053937D01*
X182553937Y-141909774D01*
X182667205Y-141740256D01*
X182745226Y-141551898D01*
X182785000Y-141351939D01*
X182785000Y-141148061D01*
X182745226Y-140948102D01*
X182712072Y-140868061D01*
X186874200Y-140868061D01*
X186874200Y-141071939D01*
X186913974Y-141271898D01*
X186991995Y-141460256D01*
X187105263Y-141629774D01*
X187249426Y-141773937D01*
X187418944Y-141887205D01*
X187607302Y-141965226D01*
X187807261Y-142005000D01*
X188011139Y-142005000D01*
X188211098Y-141965226D01*
X188399456Y-141887205D01*
X188568974Y-141773937D01*
X188713137Y-141629774D01*
X188826405Y-141460256D01*
X188904426Y-141271898D01*
X188944200Y-141071939D01*
X188944200Y-140868061D01*
X188904426Y-140668102D01*
X188826405Y-140479744D01*
X188713137Y-140310226D01*
X188568974Y-140166063D01*
X188399456Y-140052795D01*
X188211098Y-139974774D01*
X188011139Y-139935000D01*
X187807261Y-139935000D01*
X187607302Y-139974774D01*
X187418944Y-140052795D01*
X187249426Y-140166063D01*
X187105263Y-140310226D01*
X186991995Y-140479744D01*
X186913974Y-140668102D01*
X186874200Y-140868061D01*
X182712072Y-140868061D01*
X182667205Y-140759744D01*
X182553937Y-140590226D01*
X182409774Y-140446063D01*
X182240256Y-140332795D01*
X182051898Y-140254774D01*
X181991000Y-140242661D01*
X181991000Y-139090061D01*
X205213000Y-139090061D01*
X205213000Y-139293939D01*
X205252774Y-139493898D01*
X205330795Y-139682256D01*
X205444063Y-139851774D01*
X205588226Y-139995937D01*
X205757744Y-140109205D01*
X205946102Y-140187226D01*
X206146061Y-140227000D01*
X206349939Y-140227000D01*
X206549898Y-140187226D01*
X206738256Y-140109205D01*
X206907774Y-139995937D01*
X207051937Y-139851774D01*
X207165205Y-139682256D01*
X207243226Y-139493898D01*
X207283000Y-139293939D01*
X207283000Y-139090061D01*
X207243226Y-138890102D01*
X207165205Y-138701744D01*
X207051937Y-138532226D01*
X206907774Y-138388063D01*
X206738256Y-138274795D01*
X206549898Y-138196774D01*
X206349939Y-138157000D01*
X206146061Y-138157000D01*
X205946102Y-138196774D01*
X205757744Y-138274795D01*
X205588226Y-138388063D01*
X205444063Y-138532226D01*
X205330795Y-138701744D01*
X205252774Y-138890102D01*
X205213000Y-139090061D01*
X181991000Y-139090061D01*
X181991000Y-138074061D01*
X209785000Y-138074061D01*
X209785000Y-138277939D01*
X209824774Y-138477898D01*
X209902795Y-138666256D01*
X210016063Y-138835774D01*
X210160226Y-138979937D01*
X210329744Y-139093205D01*
X210518102Y-139171226D01*
X210718061Y-139211000D01*
X210921939Y-139211000D01*
X211121898Y-139171226D01*
X211310256Y-139093205D01*
X211479774Y-138979937D01*
X211623937Y-138835774D01*
X211737205Y-138666256D01*
X211815226Y-138477898D01*
X211855000Y-138277939D01*
X211855000Y-138074061D01*
X211815226Y-137874102D01*
X211737205Y-137685744D01*
X211623937Y-137516226D01*
X211479774Y-137372063D01*
X211310256Y-137258795D01*
X211121898Y-137180774D01*
X210921939Y-137141000D01*
X210718061Y-137141000D01*
X210518102Y-137180774D01*
X210329744Y-137258795D01*
X210160226Y-137372063D01*
X210016063Y-137516226D01*
X209902795Y-137685744D01*
X209824774Y-137874102D01*
X209785000Y-138074061D01*
X181991000Y-138074061D01*
X181991000Y-130708061D01*
X188449000Y-130708061D01*
X188449000Y-130911939D01*
X188488774Y-131111898D01*
X188566795Y-131300256D01*
X188680063Y-131469774D01*
X188824226Y-131613937D01*
X188993744Y-131727205D01*
X189182102Y-131805226D01*
X189382061Y-131845000D01*
X189585939Y-131845000D01*
X189785898Y-131805226D01*
X189974256Y-131727205D01*
X190143774Y-131613937D01*
X190287937Y-131469774D01*
X190401205Y-131300256D01*
X190479226Y-131111898D01*
X190519000Y-130911939D01*
X190519000Y-130708061D01*
X190479226Y-130508102D01*
X190401205Y-130319744D01*
X190287937Y-130150226D01*
X190143774Y-130006063D01*
X189974256Y-129892795D01*
X189785898Y-129814774D01*
X189585939Y-129775000D01*
X189382061Y-129775000D01*
X189182102Y-129814774D01*
X188993744Y-129892795D01*
X188824226Y-130006063D01*
X188680063Y-130150226D01*
X188566795Y-130319744D01*
X188488774Y-130508102D01*
X188449000Y-130708061D01*
X181991000Y-130708061D01*
X181991000Y-128076617D01*
X218271934Y-128076617D01*
X218316272Y-128405557D01*
X218423931Y-128719527D01*
X218523421Y-128905661D01*
X218621082Y-128942549D01*
X218559506Y-128975463D01*
X218462815Y-129054815D01*
X218383463Y-129151506D01*
X218324498Y-129261820D01*
X218288188Y-129381518D01*
X218275928Y-129506000D01*
X218275928Y-131606000D01*
X218288188Y-131730482D01*
X218324498Y-131850180D01*
X218383463Y-131960494D01*
X218462815Y-132057185D01*
X218559506Y-132136537D01*
X218669820Y-132195502D01*
X218789518Y-132231812D01*
X218914000Y-132244072D01*
X221014000Y-132244072D01*
X221138482Y-132231812D01*
X221258180Y-132195502D01*
X221368494Y-132136537D01*
X221465185Y-132057185D01*
X221544537Y-131960494D01*
X221603502Y-131850180D01*
X221639812Y-131730482D01*
X221652072Y-131606000D01*
X221652072Y-129506000D01*
X221639812Y-129381518D01*
X221603502Y-129261820D01*
X221544537Y-129151506D01*
X221465185Y-129054815D01*
X221368494Y-128975463D01*
X221306918Y-128942549D01*
X221404579Y-128905661D01*
X221550463Y-128607523D01*
X221635380Y-128286654D01*
X221656066Y-127955383D01*
X221611728Y-127626443D01*
X221504069Y-127312473D01*
X221404579Y-127126339D01*
X221135066Y-127024539D01*
X220143605Y-128016000D01*
X220157748Y-128030143D01*
X219978143Y-128209748D01*
X219964000Y-128195605D01*
X219949858Y-128209748D01*
X219770253Y-128030143D01*
X219784395Y-128016000D01*
X218792934Y-127024539D01*
X218523421Y-127126339D01*
X218377537Y-127424477D01*
X218292620Y-127745346D01*
X218271934Y-128076617D01*
X181991000Y-128076617D01*
X181991000Y-127007339D01*
X182051898Y-126995226D01*
X182240256Y-126917205D01*
X182348417Y-126844934D01*
X218972539Y-126844934D01*
X219964000Y-127836395D01*
X220955461Y-126844934D01*
X220853661Y-126575421D01*
X220555523Y-126429537D01*
X220234654Y-126344620D01*
X219903383Y-126323934D01*
X219574443Y-126368272D01*
X219260473Y-126475931D01*
X219074339Y-126575421D01*
X218972539Y-126844934D01*
X182348417Y-126844934D01*
X182409774Y-126803937D01*
X182553937Y-126659774D01*
X182667205Y-126490256D01*
X182745226Y-126301898D01*
X182785000Y-126101939D01*
X182785000Y-125898061D01*
X182745226Y-125698102D01*
X182667205Y-125509744D01*
X182553937Y-125340226D01*
X182409774Y-125196063D01*
X182240256Y-125082795D01*
X182051898Y-125004774D01*
X181991000Y-124992661D01*
X181991000Y-120341218D01*
X182073103Y-120375226D01*
X182273062Y-120415000D01*
X182476940Y-120415000D01*
X182676899Y-120375226D01*
X182865257Y-120297205D01*
X183034775Y-120183937D01*
X183178938Y-120039774D01*
X183292206Y-119870256D01*
X183370227Y-119681898D01*
X183410001Y-119481939D01*
X183410001Y-119278061D01*
X183370227Y-119078102D01*
X183292206Y-118889744D01*
X183178938Y-118720226D01*
X183034775Y-118576063D01*
X182865257Y-118462795D01*
X182676899Y-118384774D01*
X182476940Y-118345000D01*
X182273062Y-118345000D01*
X182073103Y-118384774D01*
X181991000Y-118418782D01*
X181991000Y-116741066D01*
X216686539Y-116741066D01*
X216788339Y-117010579D01*
X217086477Y-117156463D01*
X217407346Y-117241380D01*
X217738617Y-117262066D01*
X218067557Y-117217728D01*
X218381527Y-117110069D01*
X218567661Y-117010579D01*
X218669461Y-116741066D01*
X217678000Y-115749605D01*
X216686539Y-116741066D01*
X181991000Y-116741066D01*
X181991000Y-115630617D01*
X215985934Y-115630617D01*
X216030272Y-115959557D01*
X216137931Y-116273527D01*
X216237421Y-116459661D01*
X216506934Y-116561461D01*
X217498395Y-115570000D01*
X217484253Y-115555858D01*
X217663858Y-115376253D01*
X217678000Y-115390395D01*
X217692143Y-115376253D01*
X217871748Y-115555858D01*
X217857605Y-115570000D01*
X218849066Y-116561461D01*
X219118579Y-116459661D01*
X219264463Y-116161523D01*
X219349380Y-115840654D01*
X219370066Y-115509383D01*
X219325728Y-115180443D01*
X219218069Y-114866473D01*
X219118579Y-114680339D01*
X219020918Y-114643451D01*
X219082494Y-114610537D01*
X219179185Y-114531185D01*
X219258537Y-114434494D01*
X219317502Y-114324180D01*
X219353812Y-114204482D01*
X219366072Y-114080000D01*
X219366072Y-111980000D01*
X219353812Y-111855518D01*
X219317502Y-111735820D01*
X219258537Y-111625506D01*
X219179185Y-111528815D01*
X219082494Y-111449463D01*
X218972180Y-111390498D01*
X218852482Y-111354188D01*
X218728000Y-111341928D01*
X216628000Y-111341928D01*
X216503518Y-111354188D01*
X216383820Y-111390498D01*
X216273506Y-111449463D01*
X216176815Y-111528815D01*
X216097463Y-111625506D01*
X216038498Y-111735820D01*
X216002188Y-111855518D01*
X215989928Y-111980000D01*
X215989928Y-114080000D01*
X216002188Y-114204482D01*
X216038498Y-114324180D01*
X216097463Y-114434494D01*
X216176815Y-114531185D01*
X216273506Y-114610537D01*
X216335082Y-114643451D01*
X216237421Y-114680339D01*
X216091537Y-114978477D01*
X216006620Y-115299346D01*
X215985934Y-115630617D01*
X181991000Y-115630617D01*
X181991000Y-110690461D01*
X182100256Y-110645205D01*
X182269774Y-110531937D01*
X182413937Y-110387774D01*
X182527205Y-110218256D01*
X182605226Y-110029898D01*
X182645000Y-109829939D01*
X182645000Y-109626061D01*
X182605226Y-109426102D01*
X182527205Y-109237744D01*
X182413937Y-109068226D01*
X182269774Y-108924063D01*
X182100256Y-108810795D01*
X181991000Y-108765539D01*
X181991000Y-102771066D01*
X221004539Y-102771066D01*
X221106339Y-103040579D01*
X221404477Y-103186463D01*
X221725346Y-103271380D01*
X222056617Y-103292066D01*
X222385557Y-103247728D01*
X222699527Y-103140069D01*
X222885661Y-103040579D01*
X222987461Y-102771066D01*
X221996000Y-101779605D01*
X221004539Y-102771066D01*
X181991000Y-102771066D01*
X181991000Y-101660617D01*
X220303934Y-101660617D01*
X220348272Y-101989557D01*
X220455931Y-102303527D01*
X220555421Y-102489661D01*
X220824934Y-102591461D01*
X221816395Y-101600000D01*
X221802253Y-101585858D01*
X221981858Y-101406253D01*
X221996000Y-101420395D01*
X222010143Y-101406253D01*
X222189748Y-101585858D01*
X222175605Y-101600000D01*
X223167066Y-102591461D01*
X223436579Y-102489661D01*
X223582463Y-102191523D01*
X223667380Y-101870654D01*
X223688066Y-101539383D01*
X223643728Y-101210443D01*
X223536069Y-100896473D01*
X223436579Y-100710339D01*
X223338918Y-100673451D01*
X223400494Y-100640537D01*
X223497185Y-100561185D01*
X223576537Y-100464494D01*
X223635502Y-100354180D01*
X223671812Y-100234482D01*
X223684072Y-100110000D01*
X223684072Y-98010000D01*
X223671812Y-97885518D01*
X223635502Y-97765820D01*
X223576537Y-97655506D01*
X223497185Y-97558815D01*
X223400494Y-97479463D01*
X223290180Y-97420498D01*
X223170482Y-97384188D01*
X223046000Y-97371928D01*
X220946000Y-97371928D01*
X220821518Y-97384188D01*
X220701820Y-97420498D01*
X220591506Y-97479463D01*
X220494815Y-97558815D01*
X220415463Y-97655506D01*
X220356498Y-97765820D01*
X220320188Y-97885518D01*
X220307928Y-98010000D01*
X220307928Y-100110000D01*
X220320188Y-100234482D01*
X220356498Y-100354180D01*
X220415463Y-100464494D01*
X220494815Y-100561185D01*
X220591506Y-100640537D01*
X220653082Y-100673451D01*
X220555421Y-100710339D01*
X220409537Y-101008477D01*
X220324620Y-101329346D01*
X220303934Y-101660617D01*
X181991000Y-101660617D01*
X181991000Y-100380461D01*
X189414200Y-100380461D01*
X189414200Y-100584339D01*
X189453974Y-100784298D01*
X189531995Y-100972656D01*
X189645263Y-101142174D01*
X189789426Y-101286337D01*
X189958944Y-101399605D01*
X190147302Y-101477626D01*
X190347261Y-101517400D01*
X190551139Y-101517400D01*
X190751098Y-101477626D01*
X190939456Y-101399605D01*
X191108974Y-101286337D01*
X191253137Y-101142174D01*
X191366405Y-100972656D01*
X191444426Y-100784298D01*
X191484200Y-100584339D01*
X191484200Y-100380461D01*
X191444426Y-100180502D01*
X191366405Y-99992144D01*
X191253137Y-99822626D01*
X191108974Y-99678463D01*
X190939456Y-99565195D01*
X190751098Y-99487174D01*
X190551139Y-99447400D01*
X190347261Y-99447400D01*
X190147302Y-99487174D01*
X189958944Y-99565195D01*
X189789426Y-99678463D01*
X189645263Y-99822626D01*
X189531995Y-99992144D01*
X189453974Y-100180502D01*
X189414200Y-100380461D01*
X181991000Y-100380461D01*
X181991000Y-97320490D01*
X182015774Y-97303937D01*
X182159937Y-97159774D01*
X182273205Y-96990256D01*
X182351226Y-96801898D01*
X182391000Y-96601939D01*
X182391000Y-96398061D01*
X182351226Y-96198102D01*
X182273205Y-96009744D01*
X182159937Y-95840226D01*
X182015774Y-95696063D01*
X181991000Y-95679510D01*
X181991000Y-91338061D01*
X204197000Y-91338061D01*
X204197000Y-91541939D01*
X204236774Y-91741898D01*
X204314795Y-91930256D01*
X204428063Y-92099774D01*
X204572226Y-92243937D01*
X204741744Y-92357205D01*
X204930102Y-92435226D01*
X205130061Y-92475000D01*
X205333939Y-92475000D01*
X205533898Y-92435226D01*
X205722256Y-92357205D01*
X205726961Y-92354061D01*
X211309000Y-92354061D01*
X211309000Y-92557939D01*
X211348774Y-92757898D01*
X211426795Y-92946256D01*
X211540063Y-93115774D01*
X211684226Y-93259937D01*
X211853744Y-93373205D01*
X212042102Y-93451226D01*
X212242061Y-93491000D01*
X212445939Y-93491000D01*
X212645898Y-93451226D01*
X212834256Y-93373205D01*
X213003774Y-93259937D01*
X213147937Y-93115774D01*
X213261205Y-92946256D01*
X213339226Y-92757898D01*
X213379000Y-92557939D01*
X213379000Y-92354061D01*
X213339226Y-92154102D01*
X213261205Y-91965744D01*
X213147937Y-91796226D01*
X213003774Y-91652063D01*
X212834256Y-91538795D01*
X212645898Y-91460774D01*
X212445939Y-91421000D01*
X212242061Y-91421000D01*
X212042102Y-91460774D01*
X211853744Y-91538795D01*
X211684226Y-91652063D01*
X211540063Y-91796226D01*
X211426795Y-91965744D01*
X211348774Y-92154102D01*
X211309000Y-92354061D01*
X205726961Y-92354061D01*
X205891774Y-92243937D01*
X206035937Y-92099774D01*
X206149205Y-91930256D01*
X206227226Y-91741898D01*
X206267000Y-91541939D01*
X206267000Y-91338061D01*
X206227226Y-91138102D01*
X206149205Y-90949744D01*
X206035937Y-90780226D01*
X205891774Y-90636063D01*
X205722256Y-90522795D01*
X205533898Y-90444774D01*
X205333939Y-90405000D01*
X205130061Y-90405000D01*
X204930102Y-90444774D01*
X204741744Y-90522795D01*
X204572226Y-90636063D01*
X204428063Y-90780226D01*
X204314795Y-90949744D01*
X204236774Y-91138102D01*
X204197000Y-91338061D01*
X181991000Y-91338061D01*
X181991000Y-87562100D01*
X181995226Y-87551898D01*
X182035000Y-87351939D01*
X182035000Y-87148061D01*
X182034802Y-87147061D01*
X194545000Y-87147061D01*
X194545000Y-87350939D01*
X194584774Y-87550898D01*
X194662795Y-87739256D01*
X194776063Y-87908774D01*
X194920226Y-88052937D01*
X195089744Y-88166205D01*
X195278102Y-88244226D01*
X195478061Y-88284000D01*
X195681939Y-88284000D01*
X195881898Y-88244226D01*
X196070256Y-88166205D01*
X196239774Y-88052937D01*
X196383937Y-87908774D01*
X196497205Y-87739256D01*
X196575226Y-87550898D01*
X196615000Y-87350939D01*
X196615000Y-87147061D01*
X196575226Y-86947102D01*
X196497205Y-86758744D01*
X196383937Y-86589226D01*
X196239774Y-86445063D01*
X196070256Y-86331795D01*
X195881898Y-86253774D01*
X195681939Y-86214000D01*
X195478061Y-86214000D01*
X195278102Y-86253774D01*
X195089744Y-86331795D01*
X194920226Y-86445063D01*
X194776063Y-86589226D01*
X194662795Y-86758744D01*
X194584774Y-86947102D01*
X194545000Y-87147061D01*
X182034802Y-87147061D01*
X181995226Y-86948102D01*
X181991000Y-86937900D01*
X181991000Y-82194061D01*
X197085000Y-82194061D01*
X197085000Y-82397939D01*
X197124774Y-82597898D01*
X197202795Y-82786256D01*
X197316063Y-82955774D01*
X197460226Y-83099937D01*
X197629744Y-83213205D01*
X197818102Y-83291226D01*
X198018061Y-83331000D01*
X198221939Y-83331000D01*
X198421898Y-83291226D01*
X198610256Y-83213205D01*
X198779774Y-83099937D01*
X198923937Y-82955774D01*
X199037205Y-82786256D01*
X199115226Y-82597898D01*
X199155000Y-82397939D01*
X199155000Y-82194061D01*
X199115226Y-81994102D01*
X199037205Y-81805744D01*
X198923937Y-81636226D01*
X198779774Y-81492063D01*
X198610256Y-81378795D01*
X198421898Y-81300774D01*
X198221939Y-81261000D01*
X198018061Y-81261000D01*
X197818102Y-81300774D01*
X197629744Y-81378795D01*
X197460226Y-81492063D01*
X197316063Y-81636226D01*
X197202795Y-81805744D01*
X197124774Y-81994102D01*
X197085000Y-82194061D01*
X181991000Y-82194061D01*
X181991000Y-73787000D01*
X239141000Y-73787000D01*
X239141000Y-152273000D01*
%TO.N,GND*%
G36*
X180213000Y-86573289D02*
G01*
X180196063Y-86590226D01*
X180082795Y-86759744D01*
X180004774Y-86948102D01*
X179965000Y-87148061D01*
X179965000Y-87351939D01*
X180004774Y-87551898D01*
X180082795Y-87740256D01*
X180196063Y-87909774D01*
X180213000Y-87926711D01*
X180213000Y-99240539D01*
X180103744Y-99285795D01*
X179934226Y-99399063D01*
X179790063Y-99543226D01*
X179676795Y-99712744D01*
X179598774Y-99901102D01*
X179559000Y-100101061D01*
X179559000Y-100304939D01*
X179598774Y-100504898D01*
X179676795Y-100693256D01*
X179790063Y-100862774D01*
X179934226Y-101006937D01*
X180103744Y-101120205D01*
X180213000Y-101165461D01*
X180213000Y-103680710D01*
X180100226Y-103756063D01*
X179956063Y-103900226D01*
X179842795Y-104069744D01*
X179764774Y-104258102D01*
X179725000Y-104458061D01*
X179725000Y-104661939D01*
X179764774Y-104861898D01*
X179842795Y-105050256D01*
X179956063Y-105219774D01*
X180100226Y-105363937D01*
X180213000Y-105439290D01*
X180213000Y-136197539D01*
X180103744Y-136242795D01*
X179934226Y-136356063D01*
X179790063Y-136500226D01*
X179676795Y-136669744D01*
X179598774Y-136858102D01*
X179559000Y-137058061D01*
X179559000Y-137261939D01*
X179598774Y-137461898D01*
X179676795Y-137650256D01*
X179790063Y-137819774D01*
X179934226Y-137963937D01*
X180103744Y-138077205D01*
X180213000Y-138122461D01*
X180213000Y-141071505D01*
X180051898Y-141004774D01*
X179851939Y-140965000D01*
X179648061Y-140965000D01*
X179448102Y-141004774D01*
X179259744Y-141082795D01*
X179090226Y-141196063D01*
X178946063Y-141340226D01*
X178832795Y-141509744D01*
X178754774Y-141698102D01*
X178715000Y-141898061D01*
X178715000Y-142101939D01*
X178754774Y-142301898D01*
X178832795Y-142490256D01*
X178946063Y-142659774D01*
X179090226Y-142803937D01*
X179259744Y-142917205D01*
X179448102Y-142995226D01*
X179648061Y-143035000D01*
X179851939Y-143035000D01*
X180051898Y-142995226D01*
X180092550Y-142978387D01*
X180106774Y-143049898D01*
X180184795Y-143238256D01*
X180213000Y-143280468D01*
X180213000Y-152273000D01*
X128206295Y-152273000D01*
X128198962Y-147726061D01*
X172574000Y-147726061D01*
X172574000Y-147929939D01*
X172613774Y-148129898D01*
X172691795Y-148318256D01*
X172805063Y-148487774D01*
X172949226Y-148631937D01*
X173118744Y-148745205D01*
X173307102Y-148823226D01*
X173507061Y-148863000D01*
X173710939Y-148863000D01*
X173910898Y-148823226D01*
X174099256Y-148745205D01*
X174268774Y-148631937D01*
X174412937Y-148487774D01*
X174526205Y-148318256D01*
X174604226Y-148129898D01*
X174644000Y-147929939D01*
X174644000Y-147726061D01*
X174604226Y-147526102D01*
X174526205Y-147337744D01*
X174412937Y-147168226D01*
X174268774Y-147024063D01*
X174099256Y-146910795D01*
X173910898Y-146832774D01*
X173710939Y-146793000D01*
X173507061Y-146793000D01*
X173307102Y-146832774D01*
X173118744Y-146910795D01*
X172949226Y-147024063D01*
X172805063Y-147168226D01*
X172691795Y-147337744D01*
X172613774Y-147526102D01*
X172574000Y-147726061D01*
X128198962Y-147726061D01*
X128173972Y-132232061D01*
X158985000Y-132232061D01*
X158985000Y-132435939D01*
X159024774Y-132635898D01*
X159102795Y-132824256D01*
X159216063Y-132993774D01*
X159360226Y-133137937D01*
X159529744Y-133251205D01*
X159718102Y-133329226D01*
X159918061Y-133369000D01*
X160121939Y-133369000D01*
X160321898Y-133329226D01*
X160510256Y-133251205D01*
X160514961Y-133248061D01*
X167465000Y-133248061D01*
X167465000Y-133451939D01*
X167504774Y-133651898D01*
X167582795Y-133840256D01*
X167696063Y-134009774D01*
X167840226Y-134153937D01*
X168009744Y-134267205D01*
X168198102Y-134345226D01*
X168398061Y-134385000D01*
X168601939Y-134385000D01*
X168801898Y-134345226D01*
X168990256Y-134267205D01*
X169159774Y-134153937D01*
X169303937Y-134009774D01*
X169417205Y-133840256D01*
X169495226Y-133651898D01*
X169535000Y-133451939D01*
X169535000Y-133248061D01*
X169495226Y-133048102D01*
X169417205Y-132859744D01*
X169303937Y-132690226D01*
X169159774Y-132546063D01*
X168990256Y-132432795D01*
X168801898Y-132354774D01*
X168601939Y-132315000D01*
X168398061Y-132315000D01*
X168198102Y-132354774D01*
X168009744Y-132432795D01*
X167840226Y-132546063D01*
X167696063Y-132690226D01*
X167582795Y-132859744D01*
X167504774Y-133048102D01*
X167465000Y-133248061D01*
X160514961Y-133248061D01*
X160679774Y-133137937D01*
X160823937Y-132993774D01*
X160937205Y-132824256D01*
X161015226Y-132635898D01*
X161055000Y-132435939D01*
X161055000Y-132232061D01*
X161038292Y-132148061D01*
X173965000Y-132148061D01*
X173965000Y-132351939D01*
X174004774Y-132551898D01*
X174082795Y-132740256D01*
X174196063Y-132909774D01*
X174340226Y-133053937D01*
X174509744Y-133167205D01*
X174698102Y-133245226D01*
X174898061Y-133285000D01*
X175101939Y-133285000D01*
X175301898Y-133245226D01*
X175490256Y-133167205D01*
X175659774Y-133053937D01*
X175803937Y-132909774D01*
X175917205Y-132740256D01*
X175995226Y-132551898D01*
X176035000Y-132351939D01*
X176035000Y-132148061D01*
X175995226Y-131948102D01*
X175917205Y-131759744D01*
X175803937Y-131590226D01*
X175659774Y-131446063D01*
X175490256Y-131332795D01*
X175301898Y-131254774D01*
X175101939Y-131215000D01*
X174898061Y-131215000D01*
X174698102Y-131254774D01*
X174509744Y-131332795D01*
X174340226Y-131446063D01*
X174196063Y-131590226D01*
X174082795Y-131759744D01*
X174004774Y-131948102D01*
X173965000Y-132148061D01*
X161038292Y-132148061D01*
X161015226Y-132032102D01*
X160937205Y-131843744D01*
X160823937Y-131674226D01*
X160679774Y-131530063D01*
X160510256Y-131416795D01*
X160321898Y-131338774D01*
X160121939Y-131299000D01*
X159918061Y-131299000D01*
X159718102Y-131338774D01*
X159529744Y-131416795D01*
X159360226Y-131530063D01*
X159216063Y-131674226D01*
X159102795Y-131843744D01*
X159024774Y-132032102D01*
X158985000Y-132232061D01*
X128173972Y-132232061D01*
X128169057Y-129184061D01*
X170161000Y-129184061D01*
X170161000Y-129387939D01*
X170200774Y-129587898D01*
X170278795Y-129776256D01*
X170392063Y-129945774D01*
X170536226Y-130089937D01*
X170705744Y-130203205D01*
X170894102Y-130281226D01*
X171094061Y-130321000D01*
X171297939Y-130321000D01*
X171497898Y-130281226D01*
X171686256Y-130203205D01*
X171855774Y-130089937D01*
X171999937Y-129945774D01*
X172113205Y-129776256D01*
X172191226Y-129587898D01*
X172231000Y-129387939D01*
X172231000Y-129184061D01*
X172225948Y-129158661D01*
X175088600Y-129158661D01*
X175088600Y-129362539D01*
X175128374Y-129562498D01*
X175206395Y-129750856D01*
X175319663Y-129920374D01*
X175463826Y-130064537D01*
X175633344Y-130177805D01*
X175691531Y-130201907D01*
X175612795Y-130319744D01*
X175534774Y-130508102D01*
X175495000Y-130708061D01*
X175495000Y-130911939D01*
X175534774Y-131111898D01*
X175612795Y-131300256D01*
X175726063Y-131469774D01*
X175870226Y-131613937D01*
X176039744Y-131727205D01*
X176228102Y-131805226D01*
X176428061Y-131845000D01*
X176631939Y-131845000D01*
X176831898Y-131805226D01*
X177020256Y-131727205D01*
X177189774Y-131613937D01*
X177333937Y-131469774D01*
X177447205Y-131300256D01*
X177525226Y-131111898D01*
X177565000Y-130911939D01*
X177565000Y-130708061D01*
X177525226Y-130508102D01*
X177447205Y-130319744D01*
X177333937Y-130150226D01*
X177189774Y-130006063D01*
X177020256Y-129892795D01*
X176962069Y-129868693D01*
X177040805Y-129750856D01*
X177118826Y-129562498D01*
X177158600Y-129362539D01*
X177158600Y-129158661D01*
X177118826Y-128958702D01*
X177040805Y-128770344D01*
X176927537Y-128600826D01*
X176783374Y-128456663D01*
X176613856Y-128343395D01*
X176425498Y-128265374D01*
X176225539Y-128225600D01*
X176021661Y-128225600D01*
X175821702Y-128265374D01*
X175633344Y-128343395D01*
X175463826Y-128456663D01*
X175319663Y-128600826D01*
X175206395Y-128770344D01*
X175128374Y-128958702D01*
X175088600Y-129158661D01*
X172225948Y-129158661D01*
X172191226Y-128984102D01*
X172113205Y-128795744D01*
X171999937Y-128626226D01*
X171855774Y-128482063D01*
X171686256Y-128368795D01*
X171497898Y-128290774D01*
X171297939Y-128251000D01*
X171094061Y-128251000D01*
X170894102Y-128290774D01*
X170705744Y-128368795D01*
X170536226Y-128482063D01*
X170392063Y-128626226D01*
X170278795Y-128795744D01*
X170200774Y-128984102D01*
X170161000Y-129184061D01*
X128169057Y-129184061D01*
X128162660Y-125218061D01*
X176275000Y-125218061D01*
X176275000Y-125421939D01*
X176314774Y-125621898D01*
X176392795Y-125810256D01*
X176506063Y-125979774D01*
X176650226Y-126123937D01*
X176819744Y-126237205D01*
X177008102Y-126315226D01*
X177208061Y-126355000D01*
X177411939Y-126355000D01*
X177611898Y-126315226D01*
X177800256Y-126237205D01*
X177969774Y-126123937D01*
X178113937Y-125979774D01*
X178227205Y-125810256D01*
X178305226Y-125621898D01*
X178345000Y-125421939D01*
X178345000Y-125218061D01*
X178305226Y-125018102D01*
X178227205Y-124829744D01*
X178113937Y-124660226D01*
X177969774Y-124516063D01*
X177800256Y-124402795D01*
X177611898Y-124324774D01*
X177411939Y-124285000D01*
X177208061Y-124285000D01*
X177008102Y-124324774D01*
X176819744Y-124402795D01*
X176650226Y-124516063D01*
X176506063Y-124660226D01*
X176392795Y-124829744D01*
X176314774Y-125018102D01*
X176275000Y-125218061D01*
X128162660Y-125218061D01*
X128159492Y-123254061D01*
X161296000Y-123254061D01*
X161296000Y-123457939D01*
X161335774Y-123657898D01*
X161413795Y-123846256D01*
X161527063Y-124015774D01*
X161671226Y-124159937D01*
X161840744Y-124273205D01*
X162029102Y-124351226D01*
X162229061Y-124391000D01*
X162432939Y-124391000D01*
X162632898Y-124351226D01*
X162821256Y-124273205D01*
X162990774Y-124159937D01*
X163134937Y-124015774D01*
X163248205Y-123846256D01*
X163326226Y-123657898D01*
X163366000Y-123457939D01*
X163366000Y-123398061D01*
X171086600Y-123398061D01*
X171086600Y-123601939D01*
X171126374Y-123801898D01*
X171204395Y-123990256D01*
X171317663Y-124159774D01*
X171461826Y-124303937D01*
X171631344Y-124417205D01*
X171819702Y-124495226D01*
X172019661Y-124535000D01*
X172223539Y-124535000D01*
X172423498Y-124495226D01*
X172611856Y-124417205D01*
X172781374Y-124303937D01*
X172925537Y-124159774D01*
X173038805Y-123990256D01*
X173116826Y-123801898D01*
X173156600Y-123601939D01*
X173156600Y-123398061D01*
X173116826Y-123198102D01*
X173038805Y-123009744D01*
X172925537Y-122840226D01*
X172781374Y-122696063D01*
X172611856Y-122582795D01*
X172423498Y-122504774D01*
X172223539Y-122465000D01*
X172019661Y-122465000D01*
X171819702Y-122504774D01*
X171631344Y-122582795D01*
X171461826Y-122696063D01*
X171317663Y-122840226D01*
X171204395Y-123009744D01*
X171126374Y-123198102D01*
X171086600Y-123398061D01*
X163366000Y-123398061D01*
X163366000Y-123254061D01*
X163326226Y-123054102D01*
X163248205Y-122865744D01*
X163134937Y-122696226D01*
X162990774Y-122552063D01*
X162821256Y-122438795D01*
X162632898Y-122360774D01*
X162432939Y-122321000D01*
X162229061Y-122321000D01*
X162029102Y-122360774D01*
X161840744Y-122438795D01*
X161671226Y-122552063D01*
X161527063Y-122696226D01*
X161413795Y-122865744D01*
X161335774Y-123054102D01*
X161296000Y-123254061D01*
X128159492Y-123254061D01*
X128154718Y-120294061D01*
X164319000Y-120294061D01*
X164319000Y-120497939D01*
X164358774Y-120697898D01*
X164436795Y-120886256D01*
X164550063Y-121055774D01*
X164694226Y-121199937D01*
X164863744Y-121313205D01*
X165052102Y-121391226D01*
X165252061Y-121431000D01*
X165455939Y-121431000D01*
X165655898Y-121391226D01*
X165844256Y-121313205D01*
X166013774Y-121199937D01*
X166157937Y-121055774D01*
X166271205Y-120886256D01*
X166349141Y-120698104D01*
X166522061Y-120732500D01*
X166725939Y-120732500D01*
X166925898Y-120692726D01*
X167114256Y-120614705D01*
X167283774Y-120501437D01*
X167427937Y-120357274D01*
X167492344Y-120260881D01*
X168984820Y-120260881D01*
X168984820Y-120464759D01*
X169024594Y-120664718D01*
X169102615Y-120853076D01*
X169215883Y-121022594D01*
X169360046Y-121166757D01*
X169529564Y-121280025D01*
X169717922Y-121358046D01*
X169917881Y-121397820D01*
X170121759Y-121397820D01*
X170321718Y-121358046D01*
X170510076Y-121280025D01*
X170679594Y-121166757D01*
X170823757Y-121022594D01*
X170937025Y-120853076D01*
X171015046Y-120664718D01*
X171054820Y-120464759D01*
X171054820Y-120260881D01*
X171015046Y-120060922D01*
X170937025Y-119872564D01*
X170823757Y-119703046D01*
X170679594Y-119558883D01*
X170510076Y-119445615D01*
X170395272Y-119398061D01*
X175073140Y-119398061D01*
X175073140Y-119601939D01*
X175112914Y-119801898D01*
X175190935Y-119990256D01*
X175304203Y-120159774D01*
X175448366Y-120303937D01*
X175617884Y-120417205D01*
X175806242Y-120495226D01*
X176006201Y-120535000D01*
X176210079Y-120535000D01*
X176410038Y-120495226D01*
X176598396Y-120417205D01*
X176767914Y-120303937D01*
X176912077Y-120159774D01*
X177025345Y-119990256D01*
X177103366Y-119801898D01*
X177143140Y-119601939D01*
X177143140Y-119398061D01*
X177103366Y-119198102D01*
X177025345Y-119009744D01*
X176912077Y-118840226D01*
X176767914Y-118696063D01*
X176598396Y-118582795D01*
X176410038Y-118504774D01*
X176210079Y-118465000D01*
X176006201Y-118465000D01*
X175806242Y-118504774D01*
X175617884Y-118582795D01*
X175448366Y-118696063D01*
X175304203Y-118840226D01*
X175190935Y-119009744D01*
X175112914Y-119198102D01*
X175073140Y-119398061D01*
X170395272Y-119398061D01*
X170321718Y-119367594D01*
X170121759Y-119327820D01*
X169917881Y-119327820D01*
X169717922Y-119367594D01*
X169529564Y-119445615D01*
X169360046Y-119558883D01*
X169215883Y-119703046D01*
X169102615Y-119872564D01*
X169024594Y-120060922D01*
X168984820Y-120260881D01*
X167492344Y-120260881D01*
X167541205Y-120187756D01*
X167619226Y-119999398D01*
X167659000Y-119799439D01*
X167659000Y-119595561D01*
X167619226Y-119395602D01*
X167541205Y-119207244D01*
X167427937Y-119037726D01*
X167283774Y-118893563D01*
X167114256Y-118780295D01*
X166925898Y-118702274D01*
X166725939Y-118662500D01*
X166522061Y-118662500D01*
X166322102Y-118702274D01*
X166133744Y-118780295D01*
X165964226Y-118893563D01*
X165820063Y-119037726D01*
X165706795Y-119207244D01*
X165628859Y-119395396D01*
X165455939Y-119361000D01*
X165252061Y-119361000D01*
X165052102Y-119400774D01*
X164863744Y-119478795D01*
X164694226Y-119592063D01*
X164550063Y-119736226D01*
X164436795Y-119905744D01*
X164358774Y-120094102D01*
X164319000Y-120294061D01*
X128154718Y-120294061D01*
X128152669Y-119024061D01*
X152127000Y-119024061D01*
X152127000Y-119227939D01*
X152166774Y-119427898D01*
X152244795Y-119616256D01*
X152358063Y-119785774D01*
X152502226Y-119929937D01*
X152671744Y-120043205D01*
X152860102Y-120121226D01*
X153060061Y-120161000D01*
X153263939Y-120161000D01*
X153463898Y-120121226D01*
X153652256Y-120043205D01*
X153821774Y-119929937D01*
X153965937Y-119785774D01*
X154079205Y-119616256D01*
X154157226Y-119427898D01*
X154197000Y-119227939D01*
X154197000Y-119024061D01*
X154157226Y-118824102D01*
X154134842Y-118770061D01*
X155937000Y-118770061D01*
X155937000Y-118973939D01*
X155976774Y-119173898D01*
X156054795Y-119362256D01*
X156168063Y-119531774D01*
X156312226Y-119675937D01*
X156481744Y-119789205D01*
X156670102Y-119867226D01*
X156870061Y-119907000D01*
X157073939Y-119907000D01*
X157273898Y-119867226D01*
X157462256Y-119789205D01*
X157631774Y-119675937D01*
X157775937Y-119531774D01*
X157889205Y-119362256D01*
X157967226Y-119173898D01*
X158007000Y-118973939D01*
X158007000Y-118770061D01*
X157967226Y-118570102D01*
X157889205Y-118381744D01*
X157775937Y-118212226D01*
X157631774Y-118068063D01*
X157462256Y-117954795D01*
X157273898Y-117876774D01*
X157073939Y-117837000D01*
X156870061Y-117837000D01*
X156670102Y-117876774D01*
X156481744Y-117954795D01*
X156312226Y-118068063D01*
X156168063Y-118212226D01*
X156054795Y-118381744D01*
X155976774Y-118570102D01*
X155937000Y-118770061D01*
X154134842Y-118770061D01*
X154079205Y-118635744D01*
X153965937Y-118466226D01*
X153821774Y-118322063D01*
X153652256Y-118208795D01*
X153463898Y-118130774D01*
X153263939Y-118091000D01*
X153060061Y-118091000D01*
X152860102Y-118130774D01*
X152671744Y-118208795D01*
X152502226Y-118322063D01*
X152358063Y-118466226D01*
X152244795Y-118635744D01*
X152166774Y-118824102D01*
X152127000Y-119024061D01*
X128152669Y-119024061D01*
X128146854Y-115418890D01*
X136988524Y-115418890D01*
X137033175Y-115566099D01*
X137158359Y-115828920D01*
X137332412Y-116062269D01*
X137548645Y-116257178D01*
X137798748Y-116406157D01*
X138073109Y-116503481D01*
X138303000Y-116382814D01*
X138303000Y-115189000D01*
X137109845Y-115189000D01*
X136988524Y-115418890D01*
X128146854Y-115418890D01*
X128142758Y-112878890D01*
X136988524Y-112878890D01*
X137033175Y-113026099D01*
X137158359Y-113288920D01*
X137332412Y-113522269D01*
X137548645Y-113717178D01*
X137674255Y-113792000D01*
X137548645Y-113866822D01*
X137332412Y-114061731D01*
X137158359Y-114295080D01*
X137033175Y-114557901D01*
X136988524Y-114705110D01*
X137109845Y-114935000D01*
X138303000Y-114935000D01*
X138303000Y-112649000D01*
X137109845Y-112649000D01*
X136988524Y-112878890D01*
X128142758Y-112878890D01*
X128138662Y-110338890D01*
X136988524Y-110338890D01*
X137033175Y-110486099D01*
X137158359Y-110748920D01*
X137332412Y-110982269D01*
X137548645Y-111177178D01*
X137674255Y-111252000D01*
X137548645Y-111326822D01*
X137332412Y-111521731D01*
X137158359Y-111755080D01*
X137033175Y-112017901D01*
X136988524Y-112165110D01*
X137109845Y-112395000D01*
X138303000Y-112395000D01*
X138303000Y-110109000D01*
X137109845Y-110109000D01*
X136988524Y-110338890D01*
X128138662Y-110338890D01*
X128134566Y-107798890D01*
X136988524Y-107798890D01*
X137033175Y-107946099D01*
X137158359Y-108208920D01*
X137332412Y-108442269D01*
X137548645Y-108637178D01*
X137674255Y-108712000D01*
X137548645Y-108786822D01*
X137332412Y-108981731D01*
X137158359Y-109215080D01*
X137033175Y-109477901D01*
X136988524Y-109625110D01*
X137109845Y-109855000D01*
X138303000Y-109855000D01*
X138303000Y-107569000D01*
X137109845Y-107569000D01*
X136988524Y-107798890D01*
X128134566Y-107798890D01*
X128130469Y-105258890D01*
X136988524Y-105258890D01*
X137033175Y-105406099D01*
X137158359Y-105668920D01*
X137332412Y-105902269D01*
X137548645Y-106097178D01*
X137674255Y-106172000D01*
X137548645Y-106246822D01*
X137332412Y-106441731D01*
X137158359Y-106675080D01*
X137033175Y-106937901D01*
X136988524Y-107085110D01*
X137109845Y-107315000D01*
X138303000Y-107315000D01*
X138303000Y-105029000D01*
X137109845Y-105029000D01*
X136988524Y-105258890D01*
X128130469Y-105258890D01*
X128126372Y-102718890D01*
X136988524Y-102718890D01*
X137033175Y-102866099D01*
X137158359Y-103128920D01*
X137332412Y-103362269D01*
X137548645Y-103557178D01*
X137674255Y-103632000D01*
X137548645Y-103706822D01*
X137332412Y-103901731D01*
X137158359Y-104135080D01*
X137033175Y-104397901D01*
X136988524Y-104545110D01*
X137109845Y-104775000D01*
X138303000Y-104775000D01*
X138303000Y-102489000D01*
X137109845Y-102489000D01*
X136988524Y-102718890D01*
X128126372Y-102718890D01*
X128122275Y-100178890D01*
X136988524Y-100178890D01*
X137033175Y-100326099D01*
X137158359Y-100588920D01*
X137332412Y-100822269D01*
X137548645Y-101017178D01*
X137674255Y-101092000D01*
X137548645Y-101166822D01*
X137332412Y-101361731D01*
X137158359Y-101595080D01*
X137033175Y-101857901D01*
X136988524Y-102005110D01*
X137109845Y-102235000D01*
X138303000Y-102235000D01*
X138303000Y-99949000D01*
X137109845Y-99949000D01*
X136988524Y-100178890D01*
X128122275Y-100178890D01*
X128118178Y-97638890D01*
X136988524Y-97638890D01*
X137033175Y-97786099D01*
X137158359Y-98048920D01*
X137332412Y-98282269D01*
X137548645Y-98477178D01*
X137674255Y-98552000D01*
X137548645Y-98626822D01*
X137332412Y-98821731D01*
X137158359Y-99055080D01*
X137033175Y-99317901D01*
X136988524Y-99465110D01*
X137109845Y-99695000D01*
X138303000Y-99695000D01*
X138303000Y-97409000D01*
X137109845Y-97409000D01*
X136988524Y-97638890D01*
X128118178Y-97638890D01*
X128114081Y-95098890D01*
X136988524Y-95098890D01*
X137033175Y-95246099D01*
X137158359Y-95508920D01*
X137332412Y-95742269D01*
X137548645Y-95937178D01*
X137674255Y-96012000D01*
X137548645Y-96086822D01*
X137332412Y-96281731D01*
X137158359Y-96515080D01*
X137033175Y-96777901D01*
X136988524Y-96925110D01*
X137109845Y-97155000D01*
X138303000Y-97155000D01*
X138303000Y-94869000D01*
X137109845Y-94869000D01*
X136988524Y-95098890D01*
X128114081Y-95098890D01*
X128109984Y-92558890D01*
X136988524Y-92558890D01*
X137033175Y-92706099D01*
X137158359Y-92968920D01*
X137332412Y-93202269D01*
X137548645Y-93397178D01*
X137674255Y-93472000D01*
X137548645Y-93546822D01*
X137332412Y-93741731D01*
X137158359Y-93975080D01*
X137033175Y-94237901D01*
X136988524Y-94385110D01*
X137109845Y-94615000D01*
X138303000Y-94615000D01*
X138303000Y-92329000D01*
X137109845Y-92329000D01*
X136988524Y-92558890D01*
X128109984Y-92558890D01*
X128108833Y-91845110D01*
X136988524Y-91845110D01*
X137109845Y-92075000D01*
X138303000Y-92075000D01*
X138303000Y-90881186D01*
X138557000Y-90881186D01*
X138557000Y-92075000D01*
X138577000Y-92075000D01*
X138577000Y-92329000D01*
X138557000Y-92329000D01*
X138557000Y-94615000D01*
X138577000Y-94615000D01*
X138577000Y-94869000D01*
X138557000Y-94869000D01*
X138557000Y-97155000D01*
X138577000Y-97155000D01*
X138577000Y-97409000D01*
X138557000Y-97409000D01*
X138557000Y-99695000D01*
X138577000Y-99695000D01*
X138577000Y-99949000D01*
X138557000Y-99949000D01*
X138557000Y-102235000D01*
X138577000Y-102235000D01*
X138577000Y-102489000D01*
X138557000Y-102489000D01*
X138557000Y-104775000D01*
X138577000Y-104775000D01*
X138577000Y-105029000D01*
X138557000Y-105029000D01*
X138557000Y-107315000D01*
X138577000Y-107315000D01*
X138577000Y-107569000D01*
X138557000Y-107569000D01*
X138557000Y-109855000D01*
X138577000Y-109855000D01*
X138577000Y-110109000D01*
X138557000Y-110109000D01*
X138557000Y-112395000D01*
X138577000Y-112395000D01*
X138577000Y-112649000D01*
X138557000Y-112649000D01*
X138557000Y-114935000D01*
X138577000Y-114935000D01*
X138577000Y-115189000D01*
X138557000Y-115189000D01*
X138557000Y-116382814D01*
X138786891Y-116503481D01*
X139061252Y-116406157D01*
X139311355Y-116257178D01*
X139507502Y-116080374D01*
X139530498Y-116156180D01*
X139589463Y-116266494D01*
X139668815Y-116363185D01*
X139765506Y-116442537D01*
X139875820Y-116501502D01*
X139995518Y-116537812D01*
X140120000Y-116550072D01*
X141820000Y-116550072D01*
X141944482Y-116537812D01*
X142064180Y-116501502D01*
X142174494Y-116442537D01*
X142271185Y-116363185D01*
X142350537Y-116266494D01*
X142409502Y-116156180D01*
X142445812Y-116036482D01*
X142458072Y-115912000D01*
X142458072Y-114960061D01*
X143237000Y-114960061D01*
X143237000Y-115163939D01*
X143276774Y-115363898D01*
X143354795Y-115552256D01*
X143468063Y-115721774D01*
X143612226Y-115865937D01*
X143781744Y-115979205D01*
X143970102Y-116057226D01*
X144170061Y-116097000D01*
X144373939Y-116097000D01*
X144573898Y-116057226D01*
X144762256Y-115979205D01*
X144931774Y-115865937D01*
X145075650Y-115722061D01*
X158223000Y-115722061D01*
X158223000Y-115925939D01*
X158262774Y-116125898D01*
X158340795Y-116314256D01*
X158454063Y-116483774D01*
X158598226Y-116627937D01*
X158767744Y-116741205D01*
X158956102Y-116819226D01*
X159156061Y-116859000D01*
X159359939Y-116859000D01*
X159559898Y-116819226D01*
X159748256Y-116741205D01*
X159917774Y-116627937D01*
X160061937Y-116483774D01*
X160175205Y-116314256D01*
X160253226Y-116125898D01*
X160293000Y-115925939D01*
X160293000Y-115722061D01*
X160253226Y-115522102D01*
X160175205Y-115333744D01*
X160061937Y-115164226D01*
X159917774Y-115020063D01*
X159827975Y-114960061D01*
X164065000Y-114960061D01*
X164065000Y-115163939D01*
X164104774Y-115363898D01*
X164182795Y-115552256D01*
X164296063Y-115721774D01*
X164440226Y-115865937D01*
X164609744Y-115979205D01*
X164798102Y-116057226D01*
X164998061Y-116097000D01*
X165201939Y-116097000D01*
X165401898Y-116057226D01*
X165590256Y-115979205D01*
X165759774Y-115865937D01*
X165903937Y-115721774D01*
X165905429Y-115719541D01*
X175368000Y-115719541D01*
X175368000Y-115923419D01*
X175407774Y-116123378D01*
X175485795Y-116311736D01*
X175599063Y-116481254D01*
X175743226Y-116625417D01*
X175912744Y-116738685D01*
X175939063Y-116749587D01*
X175866795Y-116857744D01*
X175788774Y-117046102D01*
X175749000Y-117246061D01*
X175749000Y-117449939D01*
X175788774Y-117649898D01*
X175866795Y-117838256D01*
X175980063Y-118007774D01*
X176124226Y-118151937D01*
X176293744Y-118265205D01*
X176482102Y-118343226D01*
X176682061Y-118383000D01*
X176885939Y-118383000D01*
X177085898Y-118343226D01*
X177274256Y-118265205D01*
X177443774Y-118151937D01*
X177587937Y-118007774D01*
X177701205Y-117838256D01*
X177779226Y-117649898D01*
X177819000Y-117449939D01*
X177819000Y-117246061D01*
X177779226Y-117046102D01*
X177755775Y-116989486D01*
X177775226Y-117008937D01*
X177944744Y-117122205D01*
X178133102Y-117200226D01*
X178333061Y-117240000D01*
X178536939Y-117240000D01*
X178736898Y-117200226D01*
X178925256Y-117122205D01*
X179094774Y-117008937D01*
X179238937Y-116864774D01*
X179352205Y-116695256D01*
X179430226Y-116506898D01*
X179470000Y-116306939D01*
X179470000Y-116103061D01*
X179430226Y-115903102D01*
X179352205Y-115714744D01*
X179238937Y-115545226D01*
X179094774Y-115401063D01*
X178925256Y-115287795D01*
X178736898Y-115209774D01*
X178682298Y-115198913D01*
X178769037Y-115112174D01*
X178882305Y-114942656D01*
X178960326Y-114754298D01*
X179000100Y-114554339D01*
X179000100Y-114350461D01*
X178960326Y-114150502D01*
X178882305Y-113962144D01*
X178769037Y-113792626D01*
X178624874Y-113648463D01*
X178455356Y-113535195D01*
X178266998Y-113457174D01*
X178067039Y-113417400D01*
X177863161Y-113417400D01*
X177663202Y-113457174D01*
X177474844Y-113535195D01*
X177305326Y-113648463D01*
X177161163Y-113792626D01*
X177047895Y-113962144D01*
X176969874Y-114150502D01*
X176930100Y-114350461D01*
X176930100Y-114554339D01*
X176969874Y-114754298D01*
X177047895Y-114942656D01*
X177161163Y-115112174D01*
X177305326Y-115256337D01*
X177474844Y-115369605D01*
X177663202Y-115447626D01*
X177717802Y-115458487D01*
X177631063Y-115545226D01*
X177517795Y-115714744D01*
X177439774Y-115903102D01*
X177438000Y-115912021D01*
X177438000Y-115719541D01*
X177398226Y-115519582D01*
X177320205Y-115331224D01*
X177206937Y-115161706D01*
X177062774Y-115017543D01*
X176893256Y-114904275D01*
X176704898Y-114826254D01*
X176504939Y-114786480D01*
X176301061Y-114786480D01*
X176101102Y-114826254D01*
X175912744Y-114904275D01*
X175743226Y-115017543D01*
X175599063Y-115161706D01*
X175485795Y-115331224D01*
X175407774Y-115519582D01*
X175368000Y-115719541D01*
X165905429Y-115719541D01*
X166017205Y-115552256D01*
X166095226Y-115363898D01*
X166135000Y-115163939D01*
X166135000Y-114960061D01*
X166095226Y-114760102D01*
X166017205Y-114571744D01*
X165903937Y-114402226D01*
X165759774Y-114258063D01*
X165590256Y-114144795D01*
X165401898Y-114066774D01*
X165201939Y-114027000D01*
X164998061Y-114027000D01*
X164798102Y-114066774D01*
X164609744Y-114144795D01*
X164440226Y-114258063D01*
X164296063Y-114402226D01*
X164182795Y-114571744D01*
X164104774Y-114760102D01*
X164065000Y-114960061D01*
X159827975Y-114960061D01*
X159748256Y-114906795D01*
X159559898Y-114828774D01*
X159359939Y-114789000D01*
X159156061Y-114789000D01*
X158956102Y-114828774D01*
X158767744Y-114906795D01*
X158598226Y-115020063D01*
X158454063Y-115164226D01*
X158340795Y-115333744D01*
X158262774Y-115522102D01*
X158223000Y-115722061D01*
X145075650Y-115722061D01*
X145075937Y-115721774D01*
X145189205Y-115552256D01*
X145267226Y-115363898D01*
X145307000Y-115163939D01*
X145307000Y-114960061D01*
X145267226Y-114760102D01*
X145189205Y-114571744D01*
X145075937Y-114402226D01*
X144931774Y-114258063D01*
X144762256Y-114144795D01*
X144573898Y-114066774D01*
X144373939Y-114027000D01*
X144170061Y-114027000D01*
X143970102Y-114066774D01*
X143781744Y-114144795D01*
X143612226Y-114258063D01*
X143468063Y-114402226D01*
X143354795Y-114571744D01*
X143276774Y-114760102D01*
X143237000Y-114960061D01*
X142458072Y-114960061D01*
X142458072Y-114212000D01*
X142445812Y-114087518D01*
X142409502Y-113967820D01*
X142350537Y-113857506D01*
X142271185Y-113760815D01*
X142174494Y-113681463D01*
X142064180Y-113622498D01*
X141991620Y-113600487D01*
X142123475Y-113468632D01*
X142285990Y-113225411D01*
X142397932Y-112955158D01*
X142455000Y-112668260D01*
X142455000Y-112375740D01*
X142413292Y-112166061D01*
X152127000Y-112166061D01*
X152127000Y-112369939D01*
X152166774Y-112569898D01*
X152244795Y-112758256D01*
X152358063Y-112927774D01*
X152502226Y-113071937D01*
X152671744Y-113185205D01*
X152860102Y-113263226D01*
X153060061Y-113303000D01*
X153263939Y-113303000D01*
X153463898Y-113263226D01*
X153652256Y-113185205D01*
X153821774Y-113071937D01*
X153965937Y-112927774D01*
X154079205Y-112758256D01*
X154157226Y-112569898D01*
X154197000Y-112369939D01*
X154197000Y-112166061D01*
X154157226Y-111966102D01*
X154079205Y-111777744D01*
X153992554Y-111648061D01*
X162043000Y-111648061D01*
X162043000Y-111851939D01*
X162082774Y-112051898D01*
X162160795Y-112240256D01*
X162274063Y-112409774D01*
X162418226Y-112553937D01*
X162587744Y-112667205D01*
X162776102Y-112745226D01*
X162976061Y-112785000D01*
X163079294Y-112785000D01*
X163020102Y-112796774D01*
X162831744Y-112874795D01*
X162662226Y-112988063D01*
X162518063Y-113132226D01*
X162404795Y-113301744D01*
X162326774Y-113490102D01*
X162287000Y-113690061D01*
X162287000Y-113893939D01*
X162326774Y-114093898D01*
X162404795Y-114282256D01*
X162518063Y-114451774D01*
X162662226Y-114595937D01*
X162831744Y-114709205D01*
X163020102Y-114787226D01*
X163220061Y-114827000D01*
X163423939Y-114827000D01*
X163623898Y-114787226D01*
X163812256Y-114709205D01*
X163981774Y-114595937D01*
X164125937Y-114451774D01*
X164239205Y-114282256D01*
X164317226Y-114093898D01*
X164357000Y-113893939D01*
X164357000Y-113690061D01*
X164317226Y-113490102D01*
X164239205Y-113301744D01*
X164125937Y-113132226D01*
X163981774Y-112988063D01*
X163812256Y-112874795D01*
X163623898Y-112796774D01*
X163423939Y-112757000D01*
X163320706Y-112757000D01*
X163379898Y-112745226D01*
X163568256Y-112667205D01*
X163737774Y-112553937D01*
X163881937Y-112409774D01*
X163995205Y-112240256D01*
X164073226Y-112051898D01*
X164113000Y-111851939D01*
X164113000Y-111648061D01*
X164073226Y-111448102D01*
X163995205Y-111259744D01*
X163881937Y-111090226D01*
X163773355Y-110981644D01*
X165631417Y-110981644D01*
X165631417Y-111185522D01*
X165671191Y-111385481D01*
X165749212Y-111573839D01*
X165862480Y-111743357D01*
X166006643Y-111887520D01*
X166176161Y-112000788D01*
X166364519Y-112078809D01*
X166564478Y-112118583D01*
X166768356Y-112118583D01*
X166968315Y-112078809D01*
X167156673Y-112000788D01*
X167326191Y-111887520D01*
X167470354Y-111743357D01*
X167534028Y-111648061D01*
X174965000Y-111648061D01*
X174965000Y-111851939D01*
X175004774Y-112051898D01*
X175082795Y-112240256D01*
X175196063Y-112409774D01*
X175311289Y-112525000D01*
X175256063Y-112580226D01*
X175142795Y-112749744D01*
X175064774Y-112938102D01*
X175025000Y-113138061D01*
X175025000Y-113341939D01*
X175064774Y-113541898D01*
X175142795Y-113730256D01*
X175256063Y-113899774D01*
X175400226Y-114043937D01*
X175569744Y-114157205D01*
X175758102Y-114235226D01*
X175958061Y-114275000D01*
X176161939Y-114275000D01*
X176361898Y-114235226D01*
X176550256Y-114157205D01*
X176719774Y-114043937D01*
X176863937Y-113899774D01*
X176977205Y-113730256D01*
X177055226Y-113541898D01*
X177095000Y-113341939D01*
X177095000Y-113138061D01*
X177055226Y-112938102D01*
X176977205Y-112749744D01*
X176863937Y-112580226D01*
X176748711Y-112465000D01*
X176803937Y-112409774D01*
X176917205Y-112240256D01*
X176995226Y-112051898D01*
X177035000Y-111851939D01*
X177035000Y-111648061D01*
X176995226Y-111448102D01*
X176917205Y-111259744D01*
X176803937Y-111090226D01*
X176659774Y-110946063D01*
X176490256Y-110832795D01*
X176301898Y-110754774D01*
X176101939Y-110715000D01*
X175898061Y-110715000D01*
X175698102Y-110754774D01*
X175509744Y-110832795D01*
X175340226Y-110946063D01*
X175196063Y-111090226D01*
X175082795Y-111259744D01*
X175004774Y-111448102D01*
X174965000Y-111648061D01*
X167534028Y-111648061D01*
X167583622Y-111573839D01*
X167661643Y-111385481D01*
X167701417Y-111185522D01*
X167701417Y-110981644D01*
X167661643Y-110781685D01*
X167583622Y-110593327D01*
X167470354Y-110423809D01*
X167326191Y-110279646D01*
X167156673Y-110166378D01*
X166968315Y-110088357D01*
X166768356Y-110048583D01*
X166564478Y-110048583D01*
X166364519Y-110088357D01*
X166176161Y-110166378D01*
X166006643Y-110279646D01*
X165862480Y-110423809D01*
X165749212Y-110593327D01*
X165671191Y-110781685D01*
X165631417Y-110981644D01*
X163773355Y-110981644D01*
X163737774Y-110946063D01*
X163568256Y-110832795D01*
X163379898Y-110754774D01*
X163179939Y-110715000D01*
X162976061Y-110715000D01*
X162776102Y-110754774D01*
X162587744Y-110832795D01*
X162418226Y-110946063D01*
X162274063Y-111090226D01*
X162160795Y-111259744D01*
X162082774Y-111448102D01*
X162043000Y-111648061D01*
X153992554Y-111648061D01*
X153965937Y-111608226D01*
X153821774Y-111464063D01*
X153652256Y-111350795D01*
X153463898Y-111272774D01*
X153263939Y-111233000D01*
X153060061Y-111233000D01*
X152860102Y-111272774D01*
X152671744Y-111350795D01*
X152502226Y-111464063D01*
X152358063Y-111608226D01*
X152244795Y-111777744D01*
X152166774Y-111966102D01*
X152127000Y-112166061D01*
X142413292Y-112166061D01*
X142397932Y-112088842D01*
X142285990Y-111818589D01*
X142123475Y-111575368D01*
X141916632Y-111368525D01*
X141742240Y-111252000D01*
X141916632Y-111135475D01*
X142123475Y-110928632D01*
X142285990Y-110685411D01*
X142397932Y-110415158D01*
X142455000Y-110128260D01*
X142455000Y-109835740D01*
X142413292Y-109626061D01*
X152127000Y-109626061D01*
X152127000Y-109829939D01*
X152166774Y-110029898D01*
X152244795Y-110218256D01*
X152358063Y-110387774D01*
X152502226Y-110531937D01*
X152671744Y-110645205D01*
X152860102Y-110723226D01*
X153060061Y-110763000D01*
X153263939Y-110763000D01*
X153463898Y-110723226D01*
X153652256Y-110645205D01*
X153821774Y-110531937D01*
X153965937Y-110387774D01*
X154079205Y-110218256D01*
X154157226Y-110029898D01*
X154197000Y-109829939D01*
X154197000Y-109626061D01*
X154157226Y-109426102D01*
X154079205Y-109237744D01*
X153965937Y-109068226D01*
X153821774Y-108924063D01*
X153782860Y-108898061D01*
X161559000Y-108898061D01*
X161559000Y-109101939D01*
X161598774Y-109301898D01*
X161676795Y-109490256D01*
X161790063Y-109659774D01*
X161934226Y-109803937D01*
X162103744Y-109917205D01*
X162292102Y-109995226D01*
X162492061Y-110035000D01*
X162695939Y-110035000D01*
X162895898Y-109995226D01*
X163084256Y-109917205D01*
X163177859Y-109854661D01*
X168078200Y-109854661D01*
X168078200Y-110058539D01*
X168117974Y-110258498D01*
X168195995Y-110446856D01*
X168309263Y-110616374D01*
X168453426Y-110760537D01*
X168622944Y-110873805D01*
X168811302Y-110951826D01*
X169011261Y-110991600D01*
X169215139Y-110991600D01*
X169415098Y-110951826D01*
X169603456Y-110873805D01*
X169772974Y-110760537D01*
X169917137Y-110616374D01*
X170030405Y-110446856D01*
X170096843Y-110286461D01*
X172980400Y-110286461D01*
X172980400Y-110490339D01*
X173020174Y-110690298D01*
X173098195Y-110878656D01*
X173211463Y-111048174D01*
X173355626Y-111192337D01*
X173525144Y-111305605D01*
X173713502Y-111383626D01*
X173913461Y-111423400D01*
X174117339Y-111423400D01*
X174317298Y-111383626D01*
X174505656Y-111305605D01*
X174675174Y-111192337D01*
X174819337Y-111048174D01*
X174932605Y-110878656D01*
X175010626Y-110690298D01*
X175050400Y-110490339D01*
X175050400Y-110286461D01*
X175010626Y-110086502D01*
X174932605Y-109898144D01*
X174819337Y-109728626D01*
X174675174Y-109584463D01*
X174505656Y-109471195D01*
X174317298Y-109393174D01*
X174117339Y-109353400D01*
X173913461Y-109353400D01*
X173713502Y-109393174D01*
X173525144Y-109471195D01*
X173355626Y-109584463D01*
X173211463Y-109728626D01*
X173098195Y-109898144D01*
X173020174Y-110086502D01*
X172980400Y-110286461D01*
X170096843Y-110286461D01*
X170108426Y-110258498D01*
X170148200Y-110058539D01*
X170148200Y-109854661D01*
X170108426Y-109654702D01*
X170030405Y-109466344D01*
X169917137Y-109296826D01*
X169772974Y-109152663D01*
X169603456Y-109039395D01*
X169415098Y-108961374D01*
X169215139Y-108921600D01*
X169011261Y-108921600D01*
X168811302Y-108961374D01*
X168622944Y-109039395D01*
X168453426Y-109152663D01*
X168309263Y-109296826D01*
X168195995Y-109466344D01*
X168117974Y-109654702D01*
X168078200Y-109854661D01*
X163177859Y-109854661D01*
X163253774Y-109803937D01*
X163397937Y-109659774D01*
X163511205Y-109490256D01*
X163589226Y-109301898D01*
X163629000Y-109101939D01*
X163629000Y-108898061D01*
X163589226Y-108698102D01*
X163545894Y-108593489D01*
X166081418Y-108593489D01*
X166081418Y-108797367D01*
X166121192Y-108997326D01*
X166199213Y-109185684D01*
X166312481Y-109355202D01*
X166456644Y-109499365D01*
X166626162Y-109612633D01*
X166814520Y-109690654D01*
X167014479Y-109730428D01*
X167218357Y-109730428D01*
X167418316Y-109690654D01*
X167606674Y-109612633D01*
X167776192Y-109499365D01*
X167920355Y-109355202D01*
X168033623Y-109185684D01*
X168111644Y-108997326D01*
X168151418Y-108797367D01*
X168151418Y-108593489D01*
X168111644Y-108393530D01*
X168096124Y-108356061D01*
X177527000Y-108356061D01*
X177527000Y-108559939D01*
X177566774Y-108759898D01*
X177644795Y-108948256D01*
X177758063Y-109117774D01*
X177902226Y-109261937D01*
X178071744Y-109375205D01*
X178260102Y-109453226D01*
X178460061Y-109493000D01*
X178663939Y-109493000D01*
X178863898Y-109453226D01*
X179052256Y-109375205D01*
X179221774Y-109261937D01*
X179365937Y-109117774D01*
X179479205Y-108948256D01*
X179557226Y-108759898D01*
X179597000Y-108559939D01*
X179597000Y-108356061D01*
X179557226Y-108156102D01*
X179479205Y-107967744D01*
X179365937Y-107798226D01*
X179221774Y-107654063D01*
X179052256Y-107540795D01*
X178863898Y-107462774D01*
X178663939Y-107423000D01*
X178460061Y-107423000D01*
X178260102Y-107462774D01*
X178071744Y-107540795D01*
X177902226Y-107654063D01*
X177758063Y-107798226D01*
X177644795Y-107967744D01*
X177566774Y-108156102D01*
X177527000Y-108356061D01*
X168096124Y-108356061D01*
X168033623Y-108205172D01*
X167987907Y-108136753D01*
X168100102Y-108183226D01*
X168300061Y-108223000D01*
X168503939Y-108223000D01*
X168703898Y-108183226D01*
X168892256Y-108105205D01*
X169061774Y-107991937D01*
X169205937Y-107847774D01*
X169319205Y-107678256D01*
X169397226Y-107489898D01*
X169437000Y-107289939D01*
X169437000Y-107086061D01*
X169397226Y-106886102D01*
X169319205Y-106697744D01*
X169205937Y-106528226D01*
X169061774Y-106384063D01*
X168892256Y-106270795D01*
X168703898Y-106192774D01*
X168503939Y-106153000D01*
X168300061Y-106153000D01*
X168100102Y-106192774D01*
X167911744Y-106270795D01*
X167742226Y-106384063D01*
X167598063Y-106528226D01*
X167484795Y-106697744D01*
X167406774Y-106886102D01*
X167367000Y-107086061D01*
X167367000Y-107289939D01*
X167406774Y-107489898D01*
X167484795Y-107678256D01*
X167530511Y-107746675D01*
X167418316Y-107700202D01*
X167218357Y-107660428D01*
X167014479Y-107660428D01*
X166814520Y-107700202D01*
X166626162Y-107778223D01*
X166456644Y-107891491D01*
X166312481Y-108035654D01*
X166199213Y-108205172D01*
X166121192Y-108393530D01*
X166081418Y-108593489D01*
X163545894Y-108593489D01*
X163511205Y-108509744D01*
X163397937Y-108340226D01*
X163253774Y-108196063D01*
X163084256Y-108082795D01*
X162895898Y-108004774D01*
X162695939Y-107965000D01*
X162492061Y-107965000D01*
X162292102Y-108004774D01*
X162103744Y-108082795D01*
X161934226Y-108196063D01*
X161790063Y-108340226D01*
X161676795Y-108509744D01*
X161598774Y-108698102D01*
X161559000Y-108898061D01*
X153782860Y-108898061D01*
X153652256Y-108810795D01*
X153463898Y-108732774D01*
X153263939Y-108693000D01*
X153060061Y-108693000D01*
X152860102Y-108732774D01*
X152671744Y-108810795D01*
X152502226Y-108924063D01*
X152358063Y-109068226D01*
X152244795Y-109237744D01*
X152166774Y-109426102D01*
X152127000Y-109626061D01*
X142413292Y-109626061D01*
X142397932Y-109548842D01*
X142285990Y-109278589D01*
X142123475Y-109035368D01*
X141916632Y-108828525D01*
X141742240Y-108712000D01*
X141916632Y-108595475D01*
X142123475Y-108388632D01*
X142285990Y-108145411D01*
X142397932Y-107875158D01*
X142455000Y-107588260D01*
X142455000Y-107295740D01*
X142413292Y-107086061D01*
X152127000Y-107086061D01*
X152127000Y-107289939D01*
X152166774Y-107489898D01*
X152244795Y-107678256D01*
X152358063Y-107847774D01*
X152502226Y-107991937D01*
X152671744Y-108105205D01*
X152860102Y-108183226D01*
X153060061Y-108223000D01*
X153263939Y-108223000D01*
X153463898Y-108183226D01*
X153652256Y-108105205D01*
X153821774Y-107991937D01*
X153965937Y-107847774D01*
X154079205Y-107678256D01*
X154157226Y-107489898D01*
X154197000Y-107289939D01*
X154197000Y-107086061D01*
X154157226Y-106886102D01*
X154082236Y-106705061D01*
X161525000Y-106705061D01*
X161525000Y-106908939D01*
X161564774Y-107108898D01*
X161642795Y-107297256D01*
X161756063Y-107466774D01*
X161900226Y-107610937D01*
X162069744Y-107724205D01*
X162258102Y-107802226D01*
X162458061Y-107842000D01*
X162661939Y-107842000D01*
X162861898Y-107802226D01*
X163050256Y-107724205D01*
X163219774Y-107610937D01*
X163363937Y-107466774D01*
X163477205Y-107297256D01*
X163555226Y-107108898D01*
X163595000Y-106908939D01*
X163595000Y-106705061D01*
X163555226Y-106505102D01*
X163477205Y-106316744D01*
X163366995Y-106151803D01*
X163369898Y-106151226D01*
X163558256Y-106073205D01*
X163727774Y-105959937D01*
X163871937Y-105815774D01*
X163985205Y-105646256D01*
X164063226Y-105457898D01*
X164093030Y-105308061D01*
X176765000Y-105308061D01*
X176765000Y-105511939D01*
X176804774Y-105711898D01*
X176882795Y-105900256D01*
X176996063Y-106069774D01*
X177140226Y-106213937D01*
X177309744Y-106327205D01*
X177498102Y-106405226D01*
X177698061Y-106445000D01*
X177901939Y-106445000D01*
X178101898Y-106405226D01*
X178290256Y-106327205D01*
X178459774Y-106213937D01*
X178603937Y-106069774D01*
X178717205Y-105900256D01*
X178795226Y-105711898D01*
X178835000Y-105511939D01*
X178835000Y-105308061D01*
X178795226Y-105108102D01*
X178717205Y-104919744D01*
X178603937Y-104750226D01*
X178459774Y-104606063D01*
X178290256Y-104492795D01*
X178101898Y-104414774D01*
X177901939Y-104375000D01*
X177698061Y-104375000D01*
X177498102Y-104414774D01*
X177309744Y-104492795D01*
X177140226Y-104606063D01*
X176996063Y-104750226D01*
X176882795Y-104919744D01*
X176804774Y-105108102D01*
X176765000Y-105308061D01*
X164093030Y-105308061D01*
X164103000Y-105257939D01*
X164103000Y-105054061D01*
X164063226Y-104854102D01*
X163985205Y-104665744D01*
X163871937Y-104496226D01*
X163727774Y-104352063D01*
X163558256Y-104238795D01*
X163369898Y-104160774D01*
X163169939Y-104121000D01*
X162966061Y-104121000D01*
X162766102Y-104160774D01*
X162577744Y-104238795D01*
X162408226Y-104352063D01*
X162264063Y-104496226D01*
X162150795Y-104665744D01*
X162072774Y-104854102D01*
X162033000Y-105054061D01*
X162033000Y-105257939D01*
X162072774Y-105457898D01*
X162150795Y-105646256D01*
X162261005Y-105811197D01*
X162258102Y-105811774D01*
X162069744Y-105889795D01*
X161900226Y-106003063D01*
X161756063Y-106147226D01*
X161642795Y-106316744D01*
X161564774Y-106505102D01*
X161525000Y-106705061D01*
X154082236Y-106705061D01*
X154079205Y-106697744D01*
X153965937Y-106528226D01*
X153821774Y-106384063D01*
X153652256Y-106270795D01*
X153463898Y-106192774D01*
X153263939Y-106153000D01*
X153060061Y-106153000D01*
X152860102Y-106192774D01*
X152671744Y-106270795D01*
X152502226Y-106384063D01*
X152358063Y-106528226D01*
X152244795Y-106697744D01*
X152166774Y-106886102D01*
X152127000Y-107086061D01*
X142413292Y-107086061D01*
X142397932Y-107008842D01*
X142285990Y-106738589D01*
X142123475Y-106495368D01*
X141916632Y-106288525D01*
X141742240Y-106172000D01*
X141916632Y-106055475D01*
X142123475Y-105848632D01*
X142285990Y-105605411D01*
X142397932Y-105335158D01*
X142455000Y-105048260D01*
X142455000Y-104755740D01*
X142413292Y-104546061D01*
X152127000Y-104546061D01*
X152127000Y-104749939D01*
X152166774Y-104949898D01*
X152244795Y-105138256D01*
X152358063Y-105307774D01*
X152502226Y-105451937D01*
X152671744Y-105565205D01*
X152860102Y-105643226D01*
X153060061Y-105683000D01*
X153263939Y-105683000D01*
X153463898Y-105643226D01*
X153652256Y-105565205D01*
X153821774Y-105451937D01*
X153965937Y-105307774D01*
X154079205Y-105138256D01*
X154157226Y-104949898D01*
X154197000Y-104749939D01*
X154197000Y-104546061D01*
X154157226Y-104346102D01*
X154079205Y-104157744D01*
X153965937Y-103988226D01*
X153821774Y-103844063D01*
X153652256Y-103730795D01*
X153463898Y-103652774D01*
X153263939Y-103613000D01*
X153060061Y-103613000D01*
X152860102Y-103652774D01*
X152671744Y-103730795D01*
X152502226Y-103844063D01*
X152358063Y-103988226D01*
X152244795Y-104157744D01*
X152166774Y-104346102D01*
X152127000Y-104546061D01*
X142413292Y-104546061D01*
X142397932Y-104468842D01*
X142285990Y-104198589D01*
X142123475Y-103955368D01*
X141916632Y-103748525D01*
X141742240Y-103632000D01*
X141916632Y-103515475D01*
X142123475Y-103308632D01*
X142285990Y-103065411D01*
X142397932Y-102795158D01*
X142455000Y-102508260D01*
X142455000Y-102215740D01*
X142413292Y-102006061D01*
X152127000Y-102006061D01*
X152127000Y-102209939D01*
X152166774Y-102409898D01*
X152244795Y-102598256D01*
X152358063Y-102767774D01*
X152502226Y-102911937D01*
X152671744Y-103025205D01*
X152860102Y-103103226D01*
X153060061Y-103143000D01*
X153263939Y-103143000D01*
X153463898Y-103103226D01*
X153652256Y-103025205D01*
X153821774Y-102911937D01*
X153965937Y-102767774D01*
X154079205Y-102598256D01*
X154114079Y-102514061D01*
X163303000Y-102514061D01*
X163303000Y-102717939D01*
X163342774Y-102917898D01*
X163420795Y-103106256D01*
X163534063Y-103275774D01*
X163678226Y-103419937D01*
X163847744Y-103533205D01*
X164036102Y-103611226D01*
X164236061Y-103651000D01*
X164439939Y-103651000D01*
X164639898Y-103611226D01*
X164828256Y-103533205D01*
X164997774Y-103419937D01*
X165141937Y-103275774D01*
X165255205Y-103106256D01*
X165333226Y-102917898D01*
X165373000Y-102717939D01*
X165373000Y-102514061D01*
X165333226Y-102314102D01*
X165255205Y-102125744D01*
X165141937Y-101956226D01*
X164997774Y-101812063D01*
X164828256Y-101698795D01*
X164639898Y-101620774D01*
X164439939Y-101581000D01*
X164236061Y-101581000D01*
X164036102Y-101620774D01*
X163847744Y-101698795D01*
X163678226Y-101812063D01*
X163534063Y-101956226D01*
X163420795Y-102125744D01*
X163342774Y-102314102D01*
X163303000Y-102514061D01*
X154114079Y-102514061D01*
X154157226Y-102409898D01*
X154197000Y-102209939D01*
X154197000Y-102006061D01*
X154157226Y-101806102D01*
X154079205Y-101617744D01*
X153965937Y-101448226D01*
X153821774Y-101304063D01*
X153652256Y-101190795D01*
X153463898Y-101112774D01*
X153263939Y-101073000D01*
X153060061Y-101073000D01*
X152860102Y-101112774D01*
X152671744Y-101190795D01*
X152502226Y-101304063D01*
X152358063Y-101448226D01*
X152244795Y-101617744D01*
X152166774Y-101806102D01*
X152127000Y-102006061D01*
X142413292Y-102006061D01*
X142397932Y-101928842D01*
X142285990Y-101658589D01*
X142123475Y-101415368D01*
X141916632Y-101208525D01*
X141742240Y-101092000D01*
X141916632Y-100975475D01*
X142123475Y-100768632D01*
X142285990Y-100525411D01*
X142397932Y-100255158D01*
X142455000Y-99968260D01*
X142455000Y-99675740D01*
X142413292Y-99466061D01*
X152127000Y-99466061D01*
X152127000Y-99669939D01*
X152166774Y-99869898D01*
X152244795Y-100058256D01*
X152358063Y-100227774D01*
X152502226Y-100371937D01*
X152671744Y-100485205D01*
X152860102Y-100563226D01*
X153060061Y-100603000D01*
X153263939Y-100603000D01*
X153463898Y-100563226D01*
X153652256Y-100485205D01*
X153821774Y-100371937D01*
X153965937Y-100227774D01*
X154079205Y-100058256D01*
X154157226Y-99869898D01*
X154197000Y-99669939D01*
X154197000Y-99466061D01*
X154157226Y-99266102D01*
X154108332Y-99148061D01*
X162097000Y-99148061D01*
X162097000Y-99351939D01*
X162136774Y-99551898D01*
X162214795Y-99740256D01*
X162328063Y-99909774D01*
X162472226Y-100053937D01*
X162641744Y-100167205D01*
X162830102Y-100245226D01*
X163030061Y-100285000D01*
X163233939Y-100285000D01*
X163433898Y-100245226D01*
X163622256Y-100167205D01*
X163791774Y-100053937D01*
X163935937Y-99909774D01*
X164049205Y-99740256D01*
X164127226Y-99551898D01*
X164167000Y-99351939D01*
X164167000Y-99148061D01*
X164127226Y-98948102D01*
X164049205Y-98759744D01*
X163935937Y-98590226D01*
X163791774Y-98446063D01*
X163622256Y-98332795D01*
X163433898Y-98254774D01*
X163233939Y-98215000D01*
X163030061Y-98215000D01*
X162830102Y-98254774D01*
X162641744Y-98332795D01*
X162472226Y-98446063D01*
X162328063Y-98590226D01*
X162214795Y-98759744D01*
X162136774Y-98948102D01*
X162097000Y-99148061D01*
X154108332Y-99148061D01*
X154079205Y-99077744D01*
X153965937Y-98908226D01*
X153821774Y-98764063D01*
X153652256Y-98650795D01*
X153463898Y-98572774D01*
X153263939Y-98533000D01*
X153060061Y-98533000D01*
X152860102Y-98572774D01*
X152671744Y-98650795D01*
X152502226Y-98764063D01*
X152358063Y-98908226D01*
X152244795Y-99077744D01*
X152166774Y-99266102D01*
X152127000Y-99466061D01*
X142413292Y-99466061D01*
X142397932Y-99388842D01*
X142285990Y-99118589D01*
X142123475Y-98875368D01*
X141916632Y-98668525D01*
X141742240Y-98552000D01*
X141916632Y-98435475D01*
X142123475Y-98228632D01*
X142285990Y-97985411D01*
X142326027Y-97888751D01*
X155121690Y-97888751D01*
X155121690Y-98092629D01*
X155161464Y-98292588D01*
X155239485Y-98480946D01*
X155352753Y-98650464D01*
X155496916Y-98794627D01*
X155666434Y-98907895D01*
X155854792Y-98985916D01*
X156054751Y-99025690D01*
X156258629Y-99025690D01*
X156458588Y-98985916D01*
X156646946Y-98907895D01*
X156816464Y-98794627D01*
X156960627Y-98650464D01*
X157073895Y-98480946D01*
X157151916Y-98292588D01*
X157191690Y-98092629D01*
X157191690Y-97888751D01*
X163864310Y-97888751D01*
X163864310Y-98092629D01*
X163904084Y-98292588D01*
X163982105Y-98480946D01*
X164095373Y-98650464D01*
X164239536Y-98794627D01*
X164409054Y-98907895D01*
X164597412Y-98985916D01*
X164797371Y-99025690D01*
X165001249Y-99025690D01*
X165201208Y-98985916D01*
X165389566Y-98907895D01*
X165559084Y-98794627D01*
X165703247Y-98650464D01*
X165816515Y-98480946D01*
X165894536Y-98292588D01*
X165934310Y-98092629D01*
X165934310Y-97888751D01*
X165894536Y-97688792D01*
X165816515Y-97500434D01*
X165779879Y-97445603D01*
X166085458Y-97445603D01*
X166085458Y-97649481D01*
X166125232Y-97849440D01*
X166203253Y-98037798D01*
X166316521Y-98207316D01*
X166460684Y-98351479D01*
X166630202Y-98464747D01*
X166742233Y-98511152D01*
X166715000Y-98648061D01*
X166715000Y-98851939D01*
X166754774Y-99051898D01*
X166832795Y-99240256D01*
X166946063Y-99409774D01*
X167090226Y-99553937D01*
X167259744Y-99667205D01*
X167448102Y-99745226D01*
X167648061Y-99785000D01*
X167851939Y-99785000D01*
X168051898Y-99745226D01*
X168240256Y-99667205D01*
X168409774Y-99553937D01*
X168553937Y-99409774D01*
X168667205Y-99240256D01*
X168745226Y-99051898D01*
X168785000Y-98851939D01*
X168785000Y-98648061D01*
X168745226Y-98448102D01*
X168667205Y-98259744D01*
X168553937Y-98090226D01*
X168409774Y-97946063D01*
X168240256Y-97832795D01*
X168128225Y-97786390D01*
X168155458Y-97649481D01*
X168155458Y-97445603D01*
X168115684Y-97245644D01*
X168037663Y-97057286D01*
X167924395Y-96887768D01*
X167780232Y-96743605D01*
X167610714Y-96630337D01*
X167422356Y-96552316D01*
X167222397Y-96512542D01*
X167018519Y-96512542D01*
X166818560Y-96552316D01*
X166630202Y-96630337D01*
X166460684Y-96743605D01*
X166316521Y-96887768D01*
X166203253Y-97057286D01*
X166125232Y-97245644D01*
X166085458Y-97445603D01*
X165779879Y-97445603D01*
X165703247Y-97330916D01*
X165559084Y-97186753D01*
X165389566Y-97073485D01*
X165201208Y-96995464D01*
X165001249Y-96955690D01*
X164797371Y-96955690D01*
X164597412Y-96995464D01*
X164409054Y-97073485D01*
X164239536Y-97186753D01*
X164095373Y-97330916D01*
X163982105Y-97500434D01*
X163904084Y-97688792D01*
X163864310Y-97888751D01*
X157191690Y-97888751D01*
X157151916Y-97688792D01*
X157073895Y-97500434D01*
X156960627Y-97330916D01*
X156816464Y-97186753D01*
X156646946Y-97073485D01*
X156458588Y-96995464D01*
X156258629Y-96955690D01*
X156054751Y-96955690D01*
X155854792Y-96995464D01*
X155666434Y-97073485D01*
X155496916Y-97186753D01*
X155352753Y-97330916D01*
X155239485Y-97500434D01*
X155161464Y-97688792D01*
X155121690Y-97888751D01*
X142326027Y-97888751D01*
X142397932Y-97715158D01*
X142455000Y-97428260D01*
X142455000Y-97135740D01*
X142397932Y-96848842D01*
X142285990Y-96578589D01*
X142123475Y-96335368D01*
X141916632Y-96128525D01*
X141742240Y-96012000D01*
X141916632Y-95895475D01*
X142123475Y-95688632D01*
X142285990Y-95445411D01*
X142397932Y-95175158D01*
X142455000Y-94888260D01*
X142455000Y-94623061D01*
X164465000Y-94623061D01*
X164465000Y-94826939D01*
X164504774Y-95026898D01*
X164582795Y-95215256D01*
X164696063Y-95384774D01*
X164840226Y-95528937D01*
X165009744Y-95642205D01*
X165198102Y-95720226D01*
X165398061Y-95760000D01*
X165601939Y-95760000D01*
X165801898Y-95720226D01*
X165990256Y-95642205D01*
X166159774Y-95528937D01*
X166303937Y-95384774D01*
X166417205Y-95215256D01*
X166495226Y-95026898D01*
X166535000Y-94826939D01*
X166535000Y-94623061D01*
X166495226Y-94423102D01*
X166417205Y-94234744D01*
X166303937Y-94065226D01*
X166159774Y-93921063D01*
X166125349Y-93898061D01*
X167715000Y-93898061D01*
X167715000Y-94101939D01*
X167754774Y-94301898D01*
X167832795Y-94490256D01*
X167946063Y-94659774D01*
X168090226Y-94803937D01*
X168259744Y-94917205D01*
X168448102Y-94995226D01*
X168648061Y-95035000D01*
X168851939Y-95035000D01*
X169051898Y-94995226D01*
X169240256Y-94917205D01*
X169409774Y-94803937D01*
X169553937Y-94659774D01*
X169667205Y-94490256D01*
X169745226Y-94301898D01*
X169785000Y-94101939D01*
X169785000Y-93898061D01*
X169745226Y-93698102D01*
X169667205Y-93509744D01*
X169553937Y-93340226D01*
X169409774Y-93196063D01*
X169240256Y-93082795D01*
X169051898Y-93004774D01*
X168851939Y-92965000D01*
X168648061Y-92965000D01*
X168448102Y-93004774D01*
X168259744Y-93082795D01*
X168090226Y-93196063D01*
X167946063Y-93340226D01*
X167832795Y-93509744D01*
X167754774Y-93698102D01*
X167715000Y-93898061D01*
X166125349Y-93898061D01*
X165990256Y-93807795D01*
X165801898Y-93729774D01*
X165601939Y-93690000D01*
X165398061Y-93690000D01*
X165198102Y-93729774D01*
X165009744Y-93807795D01*
X164840226Y-93921063D01*
X164696063Y-94065226D01*
X164582795Y-94234744D01*
X164504774Y-94423102D01*
X164465000Y-94623061D01*
X142455000Y-94623061D01*
X142455000Y-94595740D01*
X142397932Y-94308842D01*
X142285990Y-94038589D01*
X142123475Y-93795368D01*
X141916632Y-93588525D01*
X141742240Y-93472000D01*
X141916632Y-93355475D01*
X142123475Y-93148632D01*
X142285990Y-92905411D01*
X142397932Y-92635158D01*
X142455000Y-92348260D01*
X142455000Y-92100061D01*
X159747000Y-92100061D01*
X159747000Y-92303939D01*
X159786774Y-92503898D01*
X159864795Y-92692256D01*
X159978063Y-92861774D01*
X160122226Y-93005937D01*
X160291744Y-93119205D01*
X160480102Y-93197226D01*
X160680061Y-93237000D01*
X160883939Y-93237000D01*
X161083898Y-93197226D01*
X161272256Y-93119205D01*
X161441774Y-93005937D01*
X161585937Y-92861774D01*
X161699205Y-92692256D01*
X161777226Y-92503898D01*
X161817000Y-92303939D01*
X161817000Y-92100061D01*
X161777226Y-91900102D01*
X161699205Y-91711744D01*
X161585937Y-91542226D01*
X161441774Y-91398063D01*
X161272256Y-91284795D01*
X161083898Y-91206774D01*
X160883939Y-91167000D01*
X160680061Y-91167000D01*
X160480102Y-91206774D01*
X160291744Y-91284795D01*
X160122226Y-91398063D01*
X159978063Y-91542226D01*
X159864795Y-91711744D01*
X159786774Y-91900102D01*
X159747000Y-92100061D01*
X142455000Y-92100061D01*
X142455000Y-92055740D01*
X142397932Y-91768842D01*
X142285990Y-91498589D01*
X142123475Y-91255368D01*
X142016168Y-91148061D01*
X176965000Y-91148061D01*
X176965000Y-91351939D01*
X177004774Y-91551898D01*
X177082795Y-91740256D01*
X177196063Y-91909774D01*
X177340226Y-92053937D01*
X177509744Y-92167205D01*
X177698102Y-92245226D01*
X177898061Y-92285000D01*
X178101939Y-92285000D01*
X178301898Y-92245226D01*
X178490256Y-92167205D01*
X178659774Y-92053937D01*
X178803937Y-91909774D01*
X178917205Y-91740256D01*
X178995226Y-91551898D01*
X179035000Y-91351939D01*
X179035000Y-91148061D01*
X178995226Y-90948102D01*
X178917205Y-90759744D01*
X178803937Y-90590226D01*
X178659774Y-90446063D01*
X178490256Y-90332795D01*
X178301898Y-90254774D01*
X178101939Y-90215000D01*
X177898061Y-90215000D01*
X177698102Y-90254774D01*
X177509744Y-90332795D01*
X177340226Y-90446063D01*
X177196063Y-90590226D01*
X177082795Y-90759744D01*
X177004774Y-90948102D01*
X176965000Y-91148061D01*
X142016168Y-91148061D01*
X141916632Y-91048525D01*
X141673411Y-90886010D01*
X141403158Y-90774068D01*
X141116260Y-90717000D01*
X140823740Y-90717000D01*
X140536842Y-90774068D01*
X140266589Y-90886010D01*
X140023368Y-91048525D01*
X139816525Y-91255368D01*
X139698900Y-91431406D01*
X139527588Y-91201731D01*
X139311355Y-91006822D01*
X139061252Y-90857843D01*
X138786891Y-90760519D01*
X138557000Y-90881186D01*
X138303000Y-90881186D01*
X138073109Y-90760519D01*
X137798748Y-90857843D01*
X137548645Y-91006822D01*
X137332412Y-91201731D01*
X137158359Y-91435080D01*
X137033175Y-91697901D01*
X136988524Y-91845110D01*
X128108833Y-91845110D01*
X128101660Y-87398061D01*
X167715000Y-87398061D01*
X167715000Y-87601939D01*
X167754774Y-87801898D01*
X167832795Y-87990256D01*
X167946063Y-88159774D01*
X168090226Y-88303937D01*
X168259744Y-88417205D01*
X168448102Y-88495226D01*
X168648061Y-88535000D01*
X168851939Y-88535000D01*
X169051898Y-88495226D01*
X169240256Y-88417205D01*
X169409774Y-88303937D01*
X169553937Y-88159774D01*
X169667205Y-87990256D01*
X169745226Y-87801898D01*
X169785000Y-87601939D01*
X169785000Y-87398061D01*
X169745226Y-87198102D01*
X169667205Y-87009744D01*
X169553937Y-86840226D01*
X169409774Y-86696063D01*
X169240256Y-86582795D01*
X169051898Y-86504774D01*
X168851939Y-86465000D01*
X168648061Y-86465000D01*
X168448102Y-86504774D01*
X168259744Y-86582795D01*
X168090226Y-86696063D01*
X167946063Y-86840226D01*
X167832795Y-87009744D01*
X167754774Y-87198102D01*
X167715000Y-87398061D01*
X128101660Y-87398061D01*
X128093676Y-82448061D01*
X174225000Y-82448061D01*
X174225000Y-82651939D01*
X174264774Y-82851898D01*
X174342795Y-83040256D01*
X174456063Y-83209774D01*
X174600226Y-83353937D01*
X174769744Y-83467205D01*
X174958102Y-83545226D01*
X175158061Y-83585000D01*
X175361939Y-83585000D01*
X175561898Y-83545226D01*
X175750256Y-83467205D01*
X175919774Y-83353937D01*
X176063937Y-83209774D01*
X176105172Y-83148061D01*
X176465000Y-83148061D01*
X176465000Y-83351939D01*
X176504774Y-83551898D01*
X176582795Y-83740256D01*
X176696063Y-83909774D01*
X176840226Y-84053937D01*
X177009744Y-84167205D01*
X177198102Y-84245226D01*
X177398061Y-84285000D01*
X177601939Y-84285000D01*
X177801898Y-84245226D01*
X177990256Y-84167205D01*
X178159774Y-84053937D01*
X178303937Y-83909774D01*
X178417205Y-83740256D01*
X178495226Y-83551898D01*
X178535000Y-83351939D01*
X178535000Y-83148061D01*
X178495226Y-82948102D01*
X178417205Y-82759744D01*
X178303937Y-82590226D01*
X178159774Y-82446063D01*
X177990256Y-82332795D01*
X177801898Y-82254774D01*
X177601939Y-82215000D01*
X177398061Y-82215000D01*
X177198102Y-82254774D01*
X177009744Y-82332795D01*
X176840226Y-82446063D01*
X176696063Y-82590226D01*
X176582795Y-82759744D01*
X176504774Y-82948102D01*
X176465000Y-83148061D01*
X176105172Y-83148061D01*
X176177205Y-83040256D01*
X176255226Y-82851898D01*
X176295000Y-82651939D01*
X176295000Y-82448061D01*
X176255226Y-82248102D01*
X176177205Y-82059744D01*
X176063937Y-81890226D01*
X175919774Y-81746063D01*
X175750256Y-81632795D01*
X175561898Y-81554774D01*
X175361939Y-81515000D01*
X175158061Y-81515000D01*
X174958102Y-81554774D01*
X174769744Y-81632795D01*
X174600226Y-81746063D01*
X174456063Y-81890226D01*
X174342795Y-82059744D01*
X174264774Y-82248102D01*
X174225000Y-82448061D01*
X128093676Y-82448061D01*
X128089169Y-79654061D01*
X172701000Y-79654061D01*
X172701000Y-79857939D01*
X172740774Y-80057898D01*
X172818795Y-80246256D01*
X172932063Y-80415774D01*
X173076226Y-80559937D01*
X173245744Y-80673205D01*
X173434102Y-80751226D01*
X173634061Y-80791000D01*
X173837939Y-80791000D01*
X174037898Y-80751226D01*
X174226256Y-80673205D01*
X174395774Y-80559937D01*
X174539937Y-80415774D01*
X174653205Y-80246256D01*
X174731226Y-80057898D01*
X174771000Y-79857939D01*
X174771000Y-79654061D01*
X174731226Y-79454102D01*
X174653205Y-79265744D01*
X174539937Y-79096226D01*
X174395774Y-78952063D01*
X174226256Y-78838795D01*
X174037898Y-78760774D01*
X173837939Y-78721000D01*
X173634061Y-78721000D01*
X173434102Y-78760774D01*
X173245744Y-78838795D01*
X173076226Y-78952063D01*
X172932063Y-79096226D01*
X172818795Y-79265744D01*
X172740774Y-79454102D01*
X172701000Y-79654061D01*
X128089169Y-79654061D01*
X128079705Y-73787000D01*
X180213000Y-73787000D01*
X180213000Y-86573289D01*
G37*
X180213000Y-86573289D02*
X180196063Y-86590226D01*
X180082795Y-86759744D01*
X180004774Y-86948102D01*
X179965000Y-87148061D01*
X179965000Y-87351939D01*
X180004774Y-87551898D01*
X180082795Y-87740256D01*
X180196063Y-87909774D01*
X180213000Y-87926711D01*
X180213000Y-99240539D01*
X180103744Y-99285795D01*
X179934226Y-99399063D01*
X179790063Y-99543226D01*
X179676795Y-99712744D01*
X179598774Y-99901102D01*
X179559000Y-100101061D01*
X179559000Y-100304939D01*
X179598774Y-100504898D01*
X179676795Y-100693256D01*
X179790063Y-100862774D01*
X179934226Y-101006937D01*
X180103744Y-101120205D01*
X180213000Y-101165461D01*
X180213000Y-103680710D01*
X180100226Y-103756063D01*
X179956063Y-103900226D01*
X179842795Y-104069744D01*
X179764774Y-104258102D01*
X179725000Y-104458061D01*
X179725000Y-104661939D01*
X179764774Y-104861898D01*
X179842795Y-105050256D01*
X179956063Y-105219774D01*
X180100226Y-105363937D01*
X180213000Y-105439290D01*
X180213000Y-136197539D01*
X180103744Y-136242795D01*
X179934226Y-136356063D01*
X179790063Y-136500226D01*
X179676795Y-136669744D01*
X179598774Y-136858102D01*
X179559000Y-137058061D01*
X179559000Y-137261939D01*
X179598774Y-137461898D01*
X179676795Y-137650256D01*
X179790063Y-137819774D01*
X179934226Y-137963937D01*
X180103744Y-138077205D01*
X180213000Y-138122461D01*
X180213000Y-141071505D01*
X180051898Y-141004774D01*
X179851939Y-140965000D01*
X179648061Y-140965000D01*
X179448102Y-141004774D01*
X179259744Y-141082795D01*
X179090226Y-141196063D01*
X178946063Y-141340226D01*
X178832795Y-141509744D01*
X178754774Y-141698102D01*
X178715000Y-141898061D01*
X178715000Y-142101939D01*
X178754774Y-142301898D01*
X178832795Y-142490256D01*
X178946063Y-142659774D01*
X179090226Y-142803937D01*
X179259744Y-142917205D01*
X179448102Y-142995226D01*
X179648061Y-143035000D01*
X179851939Y-143035000D01*
X180051898Y-142995226D01*
X180092550Y-142978387D01*
X180106774Y-143049898D01*
X180184795Y-143238256D01*
X180213000Y-143280468D01*
X180213000Y-152273000D01*
X128206295Y-152273000D01*
X128198962Y-147726061D01*
X172574000Y-147726061D01*
X172574000Y-147929939D01*
X172613774Y-148129898D01*
X172691795Y-148318256D01*
X172805063Y-148487774D01*
X172949226Y-148631937D01*
X173118744Y-148745205D01*
X173307102Y-148823226D01*
X173507061Y-148863000D01*
X173710939Y-148863000D01*
X173910898Y-148823226D01*
X174099256Y-148745205D01*
X174268774Y-148631937D01*
X174412937Y-148487774D01*
X174526205Y-148318256D01*
X174604226Y-148129898D01*
X174644000Y-147929939D01*
X174644000Y-147726061D01*
X174604226Y-147526102D01*
X174526205Y-147337744D01*
X174412937Y-147168226D01*
X174268774Y-147024063D01*
X174099256Y-146910795D01*
X173910898Y-146832774D01*
X173710939Y-146793000D01*
X173507061Y-146793000D01*
X173307102Y-146832774D01*
X173118744Y-146910795D01*
X172949226Y-147024063D01*
X172805063Y-147168226D01*
X172691795Y-147337744D01*
X172613774Y-147526102D01*
X172574000Y-147726061D01*
X128198962Y-147726061D01*
X128173972Y-132232061D01*
X158985000Y-132232061D01*
X158985000Y-132435939D01*
X159024774Y-132635898D01*
X159102795Y-132824256D01*
X159216063Y-132993774D01*
X159360226Y-133137937D01*
X159529744Y-133251205D01*
X159718102Y-133329226D01*
X159918061Y-133369000D01*
X160121939Y-133369000D01*
X160321898Y-133329226D01*
X160510256Y-133251205D01*
X160514961Y-133248061D01*
X167465000Y-133248061D01*
X167465000Y-133451939D01*
X167504774Y-133651898D01*
X167582795Y-133840256D01*
X167696063Y-134009774D01*
X167840226Y-134153937D01*
X168009744Y-134267205D01*
X168198102Y-134345226D01*
X168398061Y-134385000D01*
X168601939Y-134385000D01*
X168801898Y-134345226D01*
X168990256Y-134267205D01*
X169159774Y-134153937D01*
X169303937Y-134009774D01*
X169417205Y-133840256D01*
X169495226Y-133651898D01*
X169535000Y-133451939D01*
X169535000Y-133248061D01*
X169495226Y-133048102D01*
X169417205Y-132859744D01*
X169303937Y-132690226D01*
X169159774Y-132546063D01*
X168990256Y-132432795D01*
X168801898Y-132354774D01*
X168601939Y-132315000D01*
X168398061Y-132315000D01*
X168198102Y-132354774D01*
X168009744Y-132432795D01*
X167840226Y-132546063D01*
X167696063Y-132690226D01*
X167582795Y-132859744D01*
X167504774Y-133048102D01*
X167465000Y-133248061D01*
X160514961Y-133248061D01*
X160679774Y-133137937D01*
X160823937Y-132993774D01*
X160937205Y-132824256D01*
X161015226Y-132635898D01*
X161055000Y-132435939D01*
X161055000Y-132232061D01*
X161038292Y-132148061D01*
X173965000Y-132148061D01*
X173965000Y-132351939D01*
X174004774Y-132551898D01*
X174082795Y-132740256D01*
X174196063Y-132909774D01*
X174340226Y-133053937D01*
X174509744Y-133167205D01*
X174698102Y-133245226D01*
X174898061Y-133285000D01*
X175101939Y-133285000D01*
X175301898Y-133245226D01*
X175490256Y-133167205D01*
X175659774Y-133053937D01*
X175803937Y-132909774D01*
X175917205Y-132740256D01*
X175995226Y-132551898D01*
X176035000Y-132351939D01*
X176035000Y-132148061D01*
X175995226Y-131948102D01*
X175917205Y-131759744D01*
X175803937Y-131590226D01*
X175659774Y-131446063D01*
X175490256Y-131332795D01*
X175301898Y-131254774D01*
X175101939Y-131215000D01*
X174898061Y-131215000D01*
X174698102Y-131254774D01*
X174509744Y-131332795D01*
X174340226Y-131446063D01*
X174196063Y-131590226D01*
X174082795Y-131759744D01*
X174004774Y-131948102D01*
X173965000Y-132148061D01*
X161038292Y-132148061D01*
X161015226Y-132032102D01*
X160937205Y-131843744D01*
X160823937Y-131674226D01*
X160679774Y-131530063D01*
X160510256Y-131416795D01*
X160321898Y-131338774D01*
X160121939Y-131299000D01*
X159918061Y-131299000D01*
X159718102Y-131338774D01*
X159529744Y-131416795D01*
X159360226Y-131530063D01*
X159216063Y-131674226D01*
X159102795Y-131843744D01*
X159024774Y-132032102D01*
X158985000Y-132232061D01*
X128173972Y-132232061D01*
X128169057Y-129184061D01*
X170161000Y-129184061D01*
X170161000Y-129387939D01*
X170200774Y-129587898D01*
X170278795Y-129776256D01*
X170392063Y-129945774D01*
X170536226Y-130089937D01*
X170705744Y-130203205D01*
X170894102Y-130281226D01*
X171094061Y-130321000D01*
X171297939Y-130321000D01*
X171497898Y-130281226D01*
X171686256Y-130203205D01*
X171855774Y-130089937D01*
X171999937Y-129945774D01*
X172113205Y-129776256D01*
X172191226Y-129587898D01*
X172231000Y-129387939D01*
X172231000Y-129184061D01*
X172225948Y-129158661D01*
X175088600Y-129158661D01*
X175088600Y-129362539D01*
X175128374Y-129562498D01*
X175206395Y-129750856D01*
X175319663Y-129920374D01*
X175463826Y-130064537D01*
X175633344Y-130177805D01*
X175691531Y-130201907D01*
X175612795Y-130319744D01*
X175534774Y-130508102D01*
X175495000Y-130708061D01*
X175495000Y-130911939D01*
X175534774Y-131111898D01*
X175612795Y-131300256D01*
X175726063Y-131469774D01*
X175870226Y-131613937D01*
X176039744Y-131727205D01*
X176228102Y-131805226D01*
X176428061Y-131845000D01*
X176631939Y-131845000D01*
X176831898Y-131805226D01*
X177020256Y-131727205D01*
X177189774Y-131613937D01*
X177333937Y-131469774D01*
X177447205Y-131300256D01*
X177525226Y-131111898D01*
X177565000Y-130911939D01*
X177565000Y-130708061D01*
X177525226Y-130508102D01*
X177447205Y-130319744D01*
X177333937Y-130150226D01*
X177189774Y-130006063D01*
X177020256Y-129892795D01*
X176962069Y-129868693D01*
X177040805Y-129750856D01*
X177118826Y-129562498D01*
X177158600Y-129362539D01*
X177158600Y-129158661D01*
X177118826Y-128958702D01*
X177040805Y-128770344D01*
X176927537Y-128600826D01*
X176783374Y-128456663D01*
X176613856Y-128343395D01*
X176425498Y-128265374D01*
X176225539Y-128225600D01*
X176021661Y-128225600D01*
X175821702Y-128265374D01*
X175633344Y-128343395D01*
X175463826Y-128456663D01*
X175319663Y-128600826D01*
X175206395Y-128770344D01*
X175128374Y-128958702D01*
X175088600Y-129158661D01*
X172225948Y-129158661D01*
X172191226Y-128984102D01*
X172113205Y-128795744D01*
X171999937Y-128626226D01*
X171855774Y-128482063D01*
X171686256Y-128368795D01*
X171497898Y-128290774D01*
X171297939Y-128251000D01*
X171094061Y-128251000D01*
X170894102Y-128290774D01*
X170705744Y-128368795D01*
X170536226Y-128482063D01*
X170392063Y-128626226D01*
X170278795Y-128795744D01*
X170200774Y-128984102D01*
X170161000Y-129184061D01*
X128169057Y-129184061D01*
X128162660Y-125218061D01*
X176275000Y-125218061D01*
X176275000Y-125421939D01*
X176314774Y-125621898D01*
X176392795Y-125810256D01*
X176506063Y-125979774D01*
X176650226Y-126123937D01*
X176819744Y-126237205D01*
X177008102Y-126315226D01*
X177208061Y-126355000D01*
X177411939Y-126355000D01*
X177611898Y-126315226D01*
X177800256Y-126237205D01*
X177969774Y-126123937D01*
X178113937Y-125979774D01*
X178227205Y-125810256D01*
X178305226Y-125621898D01*
X178345000Y-125421939D01*
X178345000Y-125218061D01*
X178305226Y-125018102D01*
X178227205Y-124829744D01*
X178113937Y-124660226D01*
X177969774Y-124516063D01*
X177800256Y-124402795D01*
X177611898Y-124324774D01*
X177411939Y-124285000D01*
X177208061Y-124285000D01*
X177008102Y-124324774D01*
X176819744Y-124402795D01*
X176650226Y-124516063D01*
X176506063Y-124660226D01*
X176392795Y-124829744D01*
X176314774Y-125018102D01*
X176275000Y-125218061D01*
X128162660Y-125218061D01*
X128159492Y-123254061D01*
X161296000Y-123254061D01*
X161296000Y-123457939D01*
X161335774Y-123657898D01*
X161413795Y-123846256D01*
X161527063Y-124015774D01*
X161671226Y-124159937D01*
X161840744Y-124273205D01*
X162029102Y-124351226D01*
X162229061Y-124391000D01*
X162432939Y-124391000D01*
X162632898Y-124351226D01*
X162821256Y-124273205D01*
X162990774Y-124159937D01*
X163134937Y-124015774D01*
X163248205Y-123846256D01*
X163326226Y-123657898D01*
X163366000Y-123457939D01*
X163366000Y-123398061D01*
X171086600Y-123398061D01*
X171086600Y-123601939D01*
X171126374Y-123801898D01*
X171204395Y-123990256D01*
X171317663Y-124159774D01*
X171461826Y-124303937D01*
X171631344Y-124417205D01*
X171819702Y-124495226D01*
X172019661Y-124535000D01*
X172223539Y-124535000D01*
X172423498Y-124495226D01*
X172611856Y-124417205D01*
X172781374Y-124303937D01*
X172925537Y-124159774D01*
X173038805Y-123990256D01*
X173116826Y-123801898D01*
X173156600Y-123601939D01*
X173156600Y-123398061D01*
X173116826Y-123198102D01*
X173038805Y-123009744D01*
X172925537Y-122840226D01*
X172781374Y-122696063D01*
X172611856Y-122582795D01*
X172423498Y-122504774D01*
X172223539Y-122465000D01*
X172019661Y-122465000D01*
X171819702Y-122504774D01*
X171631344Y-122582795D01*
X171461826Y-122696063D01*
X171317663Y-122840226D01*
X171204395Y-123009744D01*
X171126374Y-123198102D01*
X171086600Y-123398061D01*
X163366000Y-123398061D01*
X163366000Y-123254061D01*
X163326226Y-123054102D01*
X163248205Y-122865744D01*
X163134937Y-122696226D01*
X162990774Y-122552063D01*
X162821256Y-122438795D01*
X162632898Y-122360774D01*
X162432939Y-122321000D01*
X162229061Y-122321000D01*
X162029102Y-122360774D01*
X161840744Y-122438795D01*
X161671226Y-122552063D01*
X161527063Y-122696226D01*
X161413795Y-122865744D01*
X161335774Y-123054102D01*
X161296000Y-123254061D01*
X128159492Y-123254061D01*
X128154718Y-120294061D01*
X164319000Y-120294061D01*
X164319000Y-120497939D01*
X164358774Y-120697898D01*
X164436795Y-120886256D01*
X164550063Y-121055774D01*
X164694226Y-121199937D01*
X164863744Y-121313205D01*
X165052102Y-121391226D01*
X165252061Y-121431000D01*
X165455939Y-121431000D01*
X165655898Y-121391226D01*
X165844256Y-121313205D01*
X166013774Y-121199937D01*
X166157937Y-121055774D01*
X166271205Y-120886256D01*
X166349141Y-120698104D01*
X166522061Y-120732500D01*
X166725939Y-120732500D01*
X166925898Y-120692726D01*
X167114256Y-120614705D01*
X167283774Y-120501437D01*
X167427937Y-120357274D01*
X167492344Y-120260881D01*
X168984820Y-120260881D01*
X168984820Y-120464759D01*
X169024594Y-120664718D01*
X169102615Y-120853076D01*
X169215883Y-121022594D01*
X169360046Y-121166757D01*
X169529564Y-121280025D01*
X169717922Y-121358046D01*
X169917881Y-121397820D01*
X170121759Y-121397820D01*
X170321718Y-121358046D01*
X170510076Y-121280025D01*
X170679594Y-121166757D01*
X170823757Y-121022594D01*
X170937025Y-120853076D01*
X171015046Y-120664718D01*
X171054820Y-120464759D01*
X171054820Y-120260881D01*
X171015046Y-120060922D01*
X170937025Y-119872564D01*
X170823757Y-119703046D01*
X170679594Y-119558883D01*
X170510076Y-119445615D01*
X170395272Y-119398061D01*
X175073140Y-119398061D01*
X175073140Y-119601939D01*
X175112914Y-119801898D01*
X175190935Y-119990256D01*
X175304203Y-120159774D01*
X175448366Y-120303937D01*
X175617884Y-120417205D01*
X175806242Y-120495226D01*
X176006201Y-120535000D01*
X176210079Y-120535000D01*
X176410038Y-120495226D01*
X176598396Y-120417205D01*
X176767914Y-120303937D01*
X176912077Y-120159774D01*
X177025345Y-119990256D01*
X177103366Y-119801898D01*
X177143140Y-119601939D01*
X177143140Y-119398061D01*
X177103366Y-119198102D01*
X177025345Y-119009744D01*
X176912077Y-118840226D01*
X176767914Y-118696063D01*
X176598396Y-118582795D01*
X176410038Y-118504774D01*
X176210079Y-118465000D01*
X176006201Y-118465000D01*
X175806242Y-118504774D01*
X175617884Y-118582795D01*
X175448366Y-118696063D01*
X175304203Y-118840226D01*
X175190935Y-119009744D01*
X175112914Y-119198102D01*
X175073140Y-119398061D01*
X170395272Y-119398061D01*
X170321718Y-119367594D01*
X170121759Y-119327820D01*
X169917881Y-119327820D01*
X169717922Y-119367594D01*
X169529564Y-119445615D01*
X169360046Y-119558883D01*
X169215883Y-119703046D01*
X169102615Y-119872564D01*
X169024594Y-120060922D01*
X168984820Y-120260881D01*
X167492344Y-120260881D01*
X167541205Y-120187756D01*
X167619226Y-119999398D01*
X167659000Y-119799439D01*
X167659000Y-119595561D01*
X167619226Y-119395602D01*
X167541205Y-119207244D01*
X167427937Y-119037726D01*
X167283774Y-118893563D01*
X167114256Y-118780295D01*
X166925898Y-118702274D01*
X166725939Y-118662500D01*
X166522061Y-118662500D01*
X166322102Y-118702274D01*
X166133744Y-118780295D01*
X165964226Y-118893563D01*
X165820063Y-119037726D01*
X165706795Y-119207244D01*
X165628859Y-119395396D01*
X165455939Y-119361000D01*
X165252061Y-119361000D01*
X165052102Y-119400774D01*
X164863744Y-119478795D01*
X164694226Y-119592063D01*
X164550063Y-119736226D01*
X164436795Y-119905744D01*
X164358774Y-120094102D01*
X164319000Y-120294061D01*
X128154718Y-120294061D01*
X128152669Y-119024061D01*
X152127000Y-119024061D01*
X152127000Y-119227939D01*
X152166774Y-119427898D01*
X152244795Y-119616256D01*
X152358063Y-119785774D01*
X152502226Y-119929937D01*
X152671744Y-120043205D01*
X152860102Y-120121226D01*
X153060061Y-120161000D01*
X153263939Y-120161000D01*
X153463898Y-120121226D01*
X153652256Y-120043205D01*
X153821774Y-119929937D01*
X153965937Y-119785774D01*
X154079205Y-119616256D01*
X154157226Y-119427898D01*
X154197000Y-119227939D01*
X154197000Y-119024061D01*
X154157226Y-118824102D01*
X154134842Y-118770061D01*
X155937000Y-118770061D01*
X155937000Y-118973939D01*
X155976774Y-119173898D01*
X156054795Y-119362256D01*
X156168063Y-119531774D01*
X156312226Y-119675937D01*
X156481744Y-119789205D01*
X156670102Y-119867226D01*
X156870061Y-119907000D01*
X157073939Y-119907000D01*
X157273898Y-119867226D01*
X157462256Y-119789205D01*
X157631774Y-119675937D01*
X157775937Y-119531774D01*
X157889205Y-119362256D01*
X157967226Y-119173898D01*
X158007000Y-118973939D01*
X158007000Y-118770061D01*
X157967226Y-118570102D01*
X157889205Y-118381744D01*
X157775937Y-118212226D01*
X157631774Y-118068063D01*
X157462256Y-117954795D01*
X157273898Y-117876774D01*
X157073939Y-117837000D01*
X156870061Y-117837000D01*
X156670102Y-117876774D01*
X156481744Y-117954795D01*
X156312226Y-118068063D01*
X156168063Y-118212226D01*
X156054795Y-118381744D01*
X155976774Y-118570102D01*
X155937000Y-118770061D01*
X154134842Y-118770061D01*
X154079205Y-118635744D01*
X153965937Y-118466226D01*
X153821774Y-118322063D01*
X153652256Y-118208795D01*
X153463898Y-118130774D01*
X153263939Y-118091000D01*
X153060061Y-118091000D01*
X152860102Y-118130774D01*
X152671744Y-118208795D01*
X152502226Y-118322063D01*
X152358063Y-118466226D01*
X152244795Y-118635744D01*
X152166774Y-118824102D01*
X152127000Y-119024061D01*
X128152669Y-119024061D01*
X128146854Y-115418890D01*
X136988524Y-115418890D01*
X137033175Y-115566099D01*
X137158359Y-115828920D01*
X137332412Y-116062269D01*
X137548645Y-116257178D01*
X137798748Y-116406157D01*
X138073109Y-116503481D01*
X138303000Y-116382814D01*
X138303000Y-115189000D01*
X137109845Y-115189000D01*
X136988524Y-115418890D01*
X128146854Y-115418890D01*
X128142758Y-112878890D01*
X136988524Y-112878890D01*
X137033175Y-113026099D01*
X137158359Y-113288920D01*
X137332412Y-113522269D01*
X137548645Y-113717178D01*
X137674255Y-113792000D01*
X137548645Y-113866822D01*
X137332412Y-114061731D01*
X137158359Y-114295080D01*
X137033175Y-114557901D01*
X136988524Y-114705110D01*
X137109845Y-114935000D01*
X138303000Y-114935000D01*
X138303000Y-112649000D01*
X137109845Y-112649000D01*
X136988524Y-112878890D01*
X128142758Y-112878890D01*
X128138662Y-110338890D01*
X136988524Y-110338890D01*
X137033175Y-110486099D01*
X137158359Y-110748920D01*
X137332412Y-110982269D01*
X137548645Y-111177178D01*
X137674255Y-111252000D01*
X137548645Y-111326822D01*
X137332412Y-111521731D01*
X137158359Y-111755080D01*
X137033175Y-112017901D01*
X136988524Y-112165110D01*
X137109845Y-112395000D01*
X138303000Y-112395000D01*
X138303000Y-110109000D01*
X137109845Y-110109000D01*
X136988524Y-110338890D01*
X128138662Y-110338890D01*
X128134566Y-107798890D01*
X136988524Y-107798890D01*
X137033175Y-107946099D01*
X137158359Y-108208920D01*
X137332412Y-108442269D01*
X137548645Y-108637178D01*
X137674255Y-108712000D01*
X137548645Y-108786822D01*
X137332412Y-108981731D01*
X137158359Y-109215080D01*
X137033175Y-109477901D01*
X136988524Y-109625110D01*
X137109845Y-109855000D01*
X138303000Y-109855000D01*
X138303000Y-107569000D01*
X137109845Y-107569000D01*
X136988524Y-107798890D01*
X128134566Y-107798890D01*
X128130469Y-105258890D01*
X136988524Y-105258890D01*
X137033175Y-105406099D01*
X137158359Y-105668920D01*
X137332412Y-105902269D01*
X137548645Y-106097178D01*
X137674255Y-106172000D01*
X137548645Y-106246822D01*
X137332412Y-106441731D01*
X137158359Y-106675080D01*
X137033175Y-106937901D01*
X136988524Y-107085110D01*
X137109845Y-107315000D01*
X138303000Y-107315000D01*
X138303000Y-105029000D01*
X137109845Y-105029000D01*
X136988524Y-105258890D01*
X128130469Y-105258890D01*
X128126372Y-102718890D01*
X136988524Y-102718890D01*
X137033175Y-102866099D01*
X137158359Y-103128920D01*
X137332412Y-103362269D01*
X137548645Y-103557178D01*
X137674255Y-103632000D01*
X137548645Y-103706822D01*
X137332412Y-103901731D01*
X137158359Y-104135080D01*
X137033175Y-104397901D01*
X136988524Y-104545110D01*
X137109845Y-104775000D01*
X138303000Y-104775000D01*
X138303000Y-102489000D01*
X137109845Y-102489000D01*
X136988524Y-102718890D01*
X128126372Y-102718890D01*
X128122275Y-100178890D01*
X136988524Y-100178890D01*
X137033175Y-100326099D01*
X137158359Y-100588920D01*
X137332412Y-100822269D01*
X137548645Y-101017178D01*
X137674255Y-101092000D01*
X137548645Y-101166822D01*
X137332412Y-101361731D01*
X137158359Y-101595080D01*
X137033175Y-101857901D01*
X136988524Y-102005110D01*
X137109845Y-102235000D01*
X138303000Y-102235000D01*
X138303000Y-99949000D01*
X137109845Y-99949000D01*
X136988524Y-100178890D01*
X128122275Y-100178890D01*
X128118178Y-97638890D01*
X136988524Y-97638890D01*
X137033175Y-97786099D01*
X137158359Y-98048920D01*
X137332412Y-98282269D01*
X137548645Y-98477178D01*
X137674255Y-98552000D01*
X137548645Y-98626822D01*
X137332412Y-98821731D01*
X137158359Y-99055080D01*
X137033175Y-99317901D01*
X136988524Y-99465110D01*
X137109845Y-99695000D01*
X138303000Y-99695000D01*
X138303000Y-97409000D01*
X137109845Y-97409000D01*
X136988524Y-97638890D01*
X128118178Y-97638890D01*
X128114081Y-95098890D01*
X136988524Y-95098890D01*
X137033175Y-95246099D01*
X137158359Y-95508920D01*
X137332412Y-95742269D01*
X137548645Y-95937178D01*
X137674255Y-96012000D01*
X137548645Y-96086822D01*
X137332412Y-96281731D01*
X137158359Y-96515080D01*
X137033175Y-96777901D01*
X136988524Y-96925110D01*
X137109845Y-97155000D01*
X138303000Y-97155000D01*
X138303000Y-94869000D01*
X137109845Y-94869000D01*
X136988524Y-95098890D01*
X128114081Y-95098890D01*
X128109984Y-92558890D01*
X136988524Y-92558890D01*
X137033175Y-92706099D01*
X137158359Y-92968920D01*
X137332412Y-93202269D01*
X137548645Y-93397178D01*
X137674255Y-93472000D01*
X137548645Y-93546822D01*
X137332412Y-93741731D01*
X137158359Y-93975080D01*
X137033175Y-94237901D01*
X136988524Y-94385110D01*
X137109845Y-94615000D01*
X138303000Y-94615000D01*
X138303000Y-92329000D01*
X137109845Y-92329000D01*
X136988524Y-92558890D01*
X128109984Y-92558890D01*
X128108833Y-91845110D01*
X136988524Y-91845110D01*
X137109845Y-92075000D01*
X138303000Y-92075000D01*
X138303000Y-90881186D01*
X138557000Y-90881186D01*
X138557000Y-92075000D01*
X138577000Y-92075000D01*
X138577000Y-92329000D01*
X138557000Y-92329000D01*
X138557000Y-94615000D01*
X138577000Y-94615000D01*
X138577000Y-94869000D01*
X138557000Y-94869000D01*
X138557000Y-97155000D01*
X138577000Y-97155000D01*
X138577000Y-97409000D01*
X138557000Y-97409000D01*
X138557000Y-99695000D01*
X138577000Y-99695000D01*
X138577000Y-99949000D01*
X138557000Y-99949000D01*
X138557000Y-102235000D01*
X138577000Y-102235000D01*
X138577000Y-102489000D01*
X138557000Y-102489000D01*
X138557000Y-104775000D01*
X138577000Y-104775000D01*
X138577000Y-105029000D01*
X138557000Y-105029000D01*
X138557000Y-107315000D01*
X138577000Y-107315000D01*
X138577000Y-107569000D01*
X138557000Y-107569000D01*
X138557000Y-109855000D01*
X138577000Y-109855000D01*
X138577000Y-110109000D01*
X138557000Y-110109000D01*
X138557000Y-112395000D01*
X138577000Y-112395000D01*
X138577000Y-112649000D01*
X138557000Y-112649000D01*
X138557000Y-114935000D01*
X138577000Y-114935000D01*
X138577000Y-115189000D01*
X138557000Y-115189000D01*
X138557000Y-116382814D01*
X138786891Y-116503481D01*
X139061252Y-116406157D01*
X139311355Y-116257178D01*
X139507502Y-116080374D01*
X139530498Y-116156180D01*
X139589463Y-116266494D01*
X139668815Y-116363185D01*
X139765506Y-116442537D01*
X139875820Y-116501502D01*
X139995518Y-116537812D01*
X140120000Y-116550072D01*
X141820000Y-116550072D01*
X141944482Y-116537812D01*
X142064180Y-116501502D01*
X142174494Y-116442537D01*
X142271185Y-116363185D01*
X142350537Y-116266494D01*
X142409502Y-116156180D01*
X142445812Y-116036482D01*
X142458072Y-115912000D01*
X142458072Y-114960061D01*
X143237000Y-114960061D01*
X143237000Y-115163939D01*
X143276774Y-115363898D01*
X143354795Y-115552256D01*
X143468063Y-115721774D01*
X143612226Y-115865937D01*
X143781744Y-115979205D01*
X143970102Y-116057226D01*
X144170061Y-116097000D01*
X144373939Y-116097000D01*
X144573898Y-116057226D01*
X144762256Y-115979205D01*
X144931774Y-115865937D01*
X145075650Y-115722061D01*
X158223000Y-115722061D01*
X158223000Y-115925939D01*
X158262774Y-116125898D01*
X158340795Y-116314256D01*
X158454063Y-116483774D01*
X158598226Y-116627937D01*
X158767744Y-116741205D01*
X158956102Y-116819226D01*
X159156061Y-116859000D01*
X159359939Y-116859000D01*
X159559898Y-116819226D01*
X159748256Y-116741205D01*
X159917774Y-116627937D01*
X160061937Y-116483774D01*
X160175205Y-116314256D01*
X160253226Y-116125898D01*
X160293000Y-115925939D01*
X160293000Y-115722061D01*
X160253226Y-115522102D01*
X160175205Y-115333744D01*
X160061937Y-115164226D01*
X159917774Y-115020063D01*
X159827975Y-114960061D01*
X164065000Y-114960061D01*
X164065000Y-115163939D01*
X164104774Y-115363898D01*
X164182795Y-115552256D01*
X164296063Y-115721774D01*
X164440226Y-115865937D01*
X164609744Y-115979205D01*
X164798102Y-116057226D01*
X164998061Y-116097000D01*
X165201939Y-116097000D01*
X165401898Y-116057226D01*
X165590256Y-115979205D01*
X165759774Y-115865937D01*
X165903937Y-115721774D01*
X165905429Y-115719541D01*
X175368000Y-115719541D01*
X175368000Y-115923419D01*
X175407774Y-116123378D01*
X175485795Y-116311736D01*
X175599063Y-116481254D01*
X175743226Y-116625417D01*
X175912744Y-116738685D01*
X175939063Y-116749587D01*
X175866795Y-116857744D01*
X175788774Y-117046102D01*
X175749000Y-117246061D01*
X175749000Y-117449939D01*
X175788774Y-117649898D01*
X175866795Y-117838256D01*
X175980063Y-118007774D01*
X176124226Y-118151937D01*
X176293744Y-118265205D01*
X176482102Y-118343226D01*
X176682061Y-118383000D01*
X176885939Y-118383000D01*
X177085898Y-118343226D01*
X177274256Y-118265205D01*
X177443774Y-118151937D01*
X177587937Y-118007774D01*
X177701205Y-117838256D01*
X177779226Y-117649898D01*
X177819000Y-117449939D01*
X177819000Y-117246061D01*
X177779226Y-117046102D01*
X177755775Y-116989486D01*
X177775226Y-117008937D01*
X177944744Y-117122205D01*
X178133102Y-117200226D01*
X178333061Y-117240000D01*
X178536939Y-117240000D01*
X178736898Y-117200226D01*
X178925256Y-117122205D01*
X179094774Y-117008937D01*
X179238937Y-116864774D01*
X179352205Y-116695256D01*
X179430226Y-116506898D01*
X179470000Y-116306939D01*
X179470000Y-116103061D01*
X179430226Y-115903102D01*
X179352205Y-115714744D01*
X179238937Y-115545226D01*
X179094774Y-115401063D01*
X178925256Y-115287795D01*
X178736898Y-115209774D01*
X178682298Y-115198913D01*
X178769037Y-115112174D01*
X178882305Y-114942656D01*
X178960326Y-114754298D01*
X179000100Y-114554339D01*
X179000100Y-114350461D01*
X178960326Y-114150502D01*
X178882305Y-113962144D01*
X178769037Y-113792626D01*
X178624874Y-113648463D01*
X178455356Y-113535195D01*
X178266998Y-113457174D01*
X178067039Y-113417400D01*
X177863161Y-113417400D01*
X177663202Y-113457174D01*
X177474844Y-113535195D01*
X177305326Y-113648463D01*
X177161163Y-113792626D01*
X177047895Y-113962144D01*
X176969874Y-114150502D01*
X176930100Y-114350461D01*
X176930100Y-114554339D01*
X176969874Y-114754298D01*
X177047895Y-114942656D01*
X177161163Y-115112174D01*
X177305326Y-115256337D01*
X177474844Y-115369605D01*
X177663202Y-115447626D01*
X177717802Y-115458487D01*
X177631063Y-115545226D01*
X177517795Y-115714744D01*
X177439774Y-115903102D01*
X177438000Y-115912021D01*
X177438000Y-115719541D01*
X177398226Y-115519582D01*
X177320205Y-115331224D01*
X177206937Y-115161706D01*
X177062774Y-115017543D01*
X176893256Y-114904275D01*
X176704898Y-114826254D01*
X176504939Y-114786480D01*
X176301061Y-114786480D01*
X176101102Y-114826254D01*
X175912744Y-114904275D01*
X175743226Y-115017543D01*
X175599063Y-115161706D01*
X175485795Y-115331224D01*
X175407774Y-115519582D01*
X175368000Y-115719541D01*
X165905429Y-115719541D01*
X166017205Y-115552256D01*
X166095226Y-115363898D01*
X166135000Y-115163939D01*
X166135000Y-114960061D01*
X166095226Y-114760102D01*
X166017205Y-114571744D01*
X165903937Y-114402226D01*
X165759774Y-114258063D01*
X165590256Y-114144795D01*
X165401898Y-114066774D01*
X165201939Y-114027000D01*
X164998061Y-114027000D01*
X164798102Y-114066774D01*
X164609744Y-114144795D01*
X164440226Y-114258063D01*
X164296063Y-114402226D01*
X164182795Y-114571744D01*
X164104774Y-114760102D01*
X164065000Y-114960061D01*
X159827975Y-114960061D01*
X159748256Y-114906795D01*
X159559898Y-114828774D01*
X159359939Y-114789000D01*
X159156061Y-114789000D01*
X158956102Y-114828774D01*
X158767744Y-114906795D01*
X158598226Y-115020063D01*
X158454063Y-115164226D01*
X158340795Y-115333744D01*
X158262774Y-115522102D01*
X158223000Y-115722061D01*
X145075650Y-115722061D01*
X145075937Y-115721774D01*
X145189205Y-115552256D01*
X145267226Y-115363898D01*
X145307000Y-115163939D01*
X145307000Y-114960061D01*
X145267226Y-114760102D01*
X145189205Y-114571744D01*
X145075937Y-114402226D01*
X144931774Y-114258063D01*
X144762256Y-114144795D01*
X144573898Y-114066774D01*
X144373939Y-114027000D01*
X144170061Y-114027000D01*
X143970102Y-114066774D01*
X143781744Y-114144795D01*
X143612226Y-114258063D01*
X143468063Y-114402226D01*
X143354795Y-114571744D01*
X143276774Y-114760102D01*
X143237000Y-114960061D01*
X142458072Y-114960061D01*
X142458072Y-114212000D01*
X142445812Y-114087518D01*
X142409502Y-113967820D01*
X142350537Y-113857506D01*
X142271185Y-113760815D01*
X142174494Y-113681463D01*
X142064180Y-113622498D01*
X141991620Y-113600487D01*
X142123475Y-113468632D01*
X142285990Y-113225411D01*
X142397932Y-112955158D01*
X142455000Y-112668260D01*
X142455000Y-112375740D01*
X142413292Y-112166061D01*
X152127000Y-112166061D01*
X152127000Y-112369939D01*
X152166774Y-112569898D01*
X152244795Y-112758256D01*
X152358063Y-112927774D01*
X152502226Y-113071937D01*
X152671744Y-113185205D01*
X152860102Y-113263226D01*
X153060061Y-113303000D01*
X153263939Y-113303000D01*
X153463898Y-113263226D01*
X153652256Y-113185205D01*
X153821774Y-113071937D01*
X153965937Y-112927774D01*
X154079205Y-112758256D01*
X154157226Y-112569898D01*
X154197000Y-112369939D01*
X154197000Y-112166061D01*
X154157226Y-111966102D01*
X154079205Y-111777744D01*
X153992554Y-111648061D01*
X162043000Y-111648061D01*
X162043000Y-111851939D01*
X162082774Y-112051898D01*
X162160795Y-112240256D01*
X162274063Y-112409774D01*
X162418226Y-112553937D01*
X162587744Y-112667205D01*
X162776102Y-112745226D01*
X162976061Y-112785000D01*
X163079294Y-112785000D01*
X163020102Y-112796774D01*
X162831744Y-112874795D01*
X162662226Y-112988063D01*
X162518063Y-113132226D01*
X162404795Y-113301744D01*
X162326774Y-113490102D01*
X162287000Y-113690061D01*
X162287000Y-113893939D01*
X162326774Y-114093898D01*
X162404795Y-114282256D01*
X162518063Y-114451774D01*
X162662226Y-114595937D01*
X162831744Y-114709205D01*
X163020102Y-114787226D01*
X163220061Y-114827000D01*
X163423939Y-114827000D01*
X163623898Y-114787226D01*
X163812256Y-114709205D01*
X163981774Y-114595937D01*
X164125937Y-114451774D01*
X164239205Y-114282256D01*
X164317226Y-114093898D01*
X164357000Y-113893939D01*
X164357000Y-113690061D01*
X164317226Y-113490102D01*
X164239205Y-113301744D01*
X164125937Y-113132226D01*
X163981774Y-112988063D01*
X163812256Y-112874795D01*
X163623898Y-112796774D01*
X163423939Y-112757000D01*
X163320706Y-112757000D01*
X163379898Y-112745226D01*
X163568256Y-112667205D01*
X163737774Y-112553937D01*
X163881937Y-112409774D01*
X163995205Y-112240256D01*
X164073226Y-112051898D01*
X164113000Y-111851939D01*
X164113000Y-111648061D01*
X164073226Y-111448102D01*
X163995205Y-111259744D01*
X163881937Y-111090226D01*
X163773355Y-110981644D01*
X165631417Y-110981644D01*
X165631417Y-111185522D01*
X165671191Y-111385481D01*
X165749212Y-111573839D01*
X165862480Y-111743357D01*
X166006643Y-111887520D01*
X166176161Y-112000788D01*
X166364519Y-112078809D01*
X166564478Y-112118583D01*
X166768356Y-112118583D01*
X166968315Y-112078809D01*
X167156673Y-112000788D01*
X167326191Y-111887520D01*
X167470354Y-111743357D01*
X167534028Y-111648061D01*
X174965000Y-111648061D01*
X174965000Y-111851939D01*
X175004774Y-112051898D01*
X175082795Y-112240256D01*
X175196063Y-112409774D01*
X175311289Y-112525000D01*
X175256063Y-112580226D01*
X175142795Y-112749744D01*
X175064774Y-112938102D01*
X175025000Y-113138061D01*
X175025000Y-113341939D01*
X175064774Y-113541898D01*
X175142795Y-113730256D01*
X175256063Y-113899774D01*
X175400226Y-114043937D01*
X175569744Y-114157205D01*
X175758102Y-114235226D01*
X175958061Y-114275000D01*
X176161939Y-114275000D01*
X176361898Y-114235226D01*
X176550256Y-114157205D01*
X176719774Y-114043937D01*
X176863937Y-113899774D01*
X176977205Y-113730256D01*
X177055226Y-113541898D01*
X177095000Y-113341939D01*
X177095000Y-113138061D01*
X177055226Y-112938102D01*
X176977205Y-112749744D01*
X176863937Y-112580226D01*
X176748711Y-112465000D01*
X176803937Y-112409774D01*
X176917205Y-112240256D01*
X176995226Y-112051898D01*
X177035000Y-111851939D01*
X177035000Y-111648061D01*
X176995226Y-111448102D01*
X176917205Y-111259744D01*
X176803937Y-111090226D01*
X176659774Y-110946063D01*
X176490256Y-110832795D01*
X176301898Y-110754774D01*
X176101939Y-110715000D01*
X175898061Y-110715000D01*
X175698102Y-110754774D01*
X175509744Y-110832795D01*
X175340226Y-110946063D01*
X175196063Y-111090226D01*
X175082795Y-111259744D01*
X175004774Y-111448102D01*
X174965000Y-111648061D01*
X167534028Y-111648061D01*
X167583622Y-111573839D01*
X167661643Y-111385481D01*
X167701417Y-111185522D01*
X167701417Y-110981644D01*
X167661643Y-110781685D01*
X167583622Y-110593327D01*
X167470354Y-110423809D01*
X167326191Y-110279646D01*
X167156673Y-110166378D01*
X166968315Y-110088357D01*
X166768356Y-110048583D01*
X166564478Y-110048583D01*
X166364519Y-110088357D01*
X166176161Y-110166378D01*
X166006643Y-110279646D01*
X165862480Y-110423809D01*
X165749212Y-110593327D01*
X165671191Y-110781685D01*
X165631417Y-110981644D01*
X163773355Y-110981644D01*
X163737774Y-110946063D01*
X163568256Y-110832795D01*
X163379898Y-110754774D01*
X163179939Y-110715000D01*
X162976061Y-110715000D01*
X162776102Y-110754774D01*
X162587744Y-110832795D01*
X162418226Y-110946063D01*
X162274063Y-111090226D01*
X162160795Y-111259744D01*
X162082774Y-111448102D01*
X162043000Y-111648061D01*
X153992554Y-111648061D01*
X153965937Y-111608226D01*
X153821774Y-111464063D01*
X153652256Y-111350795D01*
X153463898Y-111272774D01*
X153263939Y-111233000D01*
X153060061Y-111233000D01*
X152860102Y-111272774D01*
X152671744Y-111350795D01*
X152502226Y-111464063D01*
X152358063Y-111608226D01*
X152244795Y-111777744D01*
X152166774Y-111966102D01*
X152127000Y-112166061D01*
X142413292Y-112166061D01*
X142397932Y-112088842D01*
X142285990Y-111818589D01*
X142123475Y-111575368D01*
X141916632Y-111368525D01*
X141742240Y-111252000D01*
X141916632Y-111135475D01*
X142123475Y-110928632D01*
X142285990Y-110685411D01*
X142397932Y-110415158D01*
X142455000Y-110128260D01*
X142455000Y-109835740D01*
X142413292Y-109626061D01*
X152127000Y-109626061D01*
X152127000Y-109829939D01*
X152166774Y-110029898D01*
X152244795Y-110218256D01*
X152358063Y-110387774D01*
X152502226Y-110531937D01*
X152671744Y-110645205D01*
X152860102Y-110723226D01*
X153060061Y-110763000D01*
X153263939Y-110763000D01*
X153463898Y-110723226D01*
X153652256Y-110645205D01*
X153821774Y-110531937D01*
X153965937Y-110387774D01*
X154079205Y-110218256D01*
X154157226Y-110029898D01*
X154197000Y-109829939D01*
X154197000Y-109626061D01*
X154157226Y-109426102D01*
X154079205Y-109237744D01*
X153965937Y-109068226D01*
X153821774Y-108924063D01*
X153782860Y-108898061D01*
X161559000Y-108898061D01*
X161559000Y-109101939D01*
X161598774Y-109301898D01*
X161676795Y-109490256D01*
X161790063Y-109659774D01*
X161934226Y-109803937D01*
X162103744Y-109917205D01*
X162292102Y-109995226D01*
X162492061Y-110035000D01*
X162695939Y-110035000D01*
X162895898Y-109995226D01*
X163084256Y-109917205D01*
X163177859Y-109854661D01*
X168078200Y-109854661D01*
X168078200Y-110058539D01*
X168117974Y-110258498D01*
X168195995Y-110446856D01*
X168309263Y-110616374D01*
X168453426Y-110760537D01*
X168622944Y-110873805D01*
X168811302Y-110951826D01*
X169011261Y-110991600D01*
X169215139Y-110991600D01*
X169415098Y-110951826D01*
X169603456Y-110873805D01*
X169772974Y-110760537D01*
X169917137Y-110616374D01*
X170030405Y-110446856D01*
X170096843Y-110286461D01*
X172980400Y-110286461D01*
X172980400Y-110490339D01*
X173020174Y-110690298D01*
X173098195Y-110878656D01*
X173211463Y-111048174D01*
X173355626Y-111192337D01*
X173525144Y-111305605D01*
X173713502Y-111383626D01*
X173913461Y-111423400D01*
X174117339Y-111423400D01*
X174317298Y-111383626D01*
X174505656Y-111305605D01*
X174675174Y-111192337D01*
X174819337Y-111048174D01*
X174932605Y-110878656D01*
X175010626Y-110690298D01*
X175050400Y-110490339D01*
X175050400Y-110286461D01*
X175010626Y-110086502D01*
X174932605Y-109898144D01*
X174819337Y-109728626D01*
X174675174Y-109584463D01*
X174505656Y-109471195D01*
X174317298Y-109393174D01*
X174117339Y-109353400D01*
X173913461Y-109353400D01*
X173713502Y-109393174D01*
X173525144Y-109471195D01*
X173355626Y-109584463D01*
X173211463Y-109728626D01*
X173098195Y-109898144D01*
X173020174Y-110086502D01*
X172980400Y-110286461D01*
X170096843Y-110286461D01*
X170108426Y-110258498D01*
X170148200Y-110058539D01*
X170148200Y-109854661D01*
X170108426Y-109654702D01*
X170030405Y-109466344D01*
X169917137Y-109296826D01*
X169772974Y-109152663D01*
X169603456Y-109039395D01*
X169415098Y-108961374D01*
X169215139Y-108921600D01*
X169011261Y-108921600D01*
X168811302Y-108961374D01*
X168622944Y-109039395D01*
X168453426Y-109152663D01*
X168309263Y-109296826D01*
X168195995Y-109466344D01*
X168117974Y-109654702D01*
X168078200Y-109854661D01*
X163177859Y-109854661D01*
X163253774Y-109803937D01*
X163397937Y-109659774D01*
X163511205Y-109490256D01*
X163589226Y-109301898D01*
X163629000Y-109101939D01*
X163629000Y-108898061D01*
X163589226Y-108698102D01*
X163545894Y-108593489D01*
X166081418Y-108593489D01*
X166081418Y-108797367D01*
X166121192Y-108997326D01*
X166199213Y-109185684D01*
X166312481Y-109355202D01*
X166456644Y-109499365D01*
X166626162Y-109612633D01*
X166814520Y-109690654D01*
X167014479Y-109730428D01*
X167218357Y-109730428D01*
X167418316Y-109690654D01*
X167606674Y-109612633D01*
X167776192Y-109499365D01*
X167920355Y-109355202D01*
X168033623Y-109185684D01*
X168111644Y-108997326D01*
X168151418Y-108797367D01*
X168151418Y-108593489D01*
X168111644Y-108393530D01*
X168096124Y-108356061D01*
X177527000Y-108356061D01*
X177527000Y-108559939D01*
X177566774Y-108759898D01*
X177644795Y-108948256D01*
X177758063Y-109117774D01*
X177902226Y-109261937D01*
X178071744Y-109375205D01*
X178260102Y-109453226D01*
X178460061Y-109493000D01*
X178663939Y-109493000D01*
X178863898Y-109453226D01*
X179052256Y-109375205D01*
X179221774Y-109261937D01*
X179365937Y-109117774D01*
X179479205Y-108948256D01*
X179557226Y-108759898D01*
X179597000Y-108559939D01*
X179597000Y-108356061D01*
X179557226Y-108156102D01*
X179479205Y-107967744D01*
X179365937Y-107798226D01*
X179221774Y-107654063D01*
X179052256Y-107540795D01*
X178863898Y-107462774D01*
X178663939Y-107423000D01*
X178460061Y-107423000D01*
X178260102Y-107462774D01*
X178071744Y-107540795D01*
X177902226Y-107654063D01*
X177758063Y-107798226D01*
X177644795Y-107967744D01*
X177566774Y-108156102D01*
X177527000Y-108356061D01*
X168096124Y-108356061D01*
X168033623Y-108205172D01*
X167987907Y-108136753D01*
X168100102Y-108183226D01*
X168300061Y-108223000D01*
X168503939Y-108223000D01*
X168703898Y-108183226D01*
X168892256Y-108105205D01*
X169061774Y-107991937D01*
X169205937Y-107847774D01*
X169319205Y-107678256D01*
X169397226Y-107489898D01*
X169437000Y-107289939D01*
X169437000Y-107086061D01*
X169397226Y-106886102D01*
X169319205Y-106697744D01*
X169205937Y-106528226D01*
X169061774Y-106384063D01*
X168892256Y-106270795D01*
X168703898Y-106192774D01*
X168503939Y-106153000D01*
X168300061Y-106153000D01*
X168100102Y-106192774D01*
X167911744Y-106270795D01*
X167742226Y-106384063D01*
X167598063Y-106528226D01*
X167484795Y-106697744D01*
X167406774Y-106886102D01*
X167367000Y-107086061D01*
X167367000Y-107289939D01*
X167406774Y-107489898D01*
X167484795Y-107678256D01*
X167530511Y-107746675D01*
X167418316Y-107700202D01*
X167218357Y-107660428D01*
X167014479Y-107660428D01*
X166814520Y-107700202D01*
X166626162Y-107778223D01*
X166456644Y-107891491D01*
X166312481Y-108035654D01*
X166199213Y-108205172D01*
X166121192Y-108393530D01*
X166081418Y-108593489D01*
X163545894Y-108593489D01*
X163511205Y-108509744D01*
X163397937Y-108340226D01*
X163253774Y-108196063D01*
X163084256Y-108082795D01*
X162895898Y-108004774D01*
X162695939Y-107965000D01*
X162492061Y-107965000D01*
X162292102Y-108004774D01*
X162103744Y-108082795D01*
X161934226Y-108196063D01*
X161790063Y-108340226D01*
X161676795Y-108509744D01*
X161598774Y-108698102D01*
X161559000Y-108898061D01*
X153782860Y-108898061D01*
X153652256Y-108810795D01*
X153463898Y-108732774D01*
X153263939Y-108693000D01*
X153060061Y-108693000D01*
X152860102Y-108732774D01*
X152671744Y-108810795D01*
X152502226Y-108924063D01*
X152358063Y-109068226D01*
X152244795Y-109237744D01*
X152166774Y-109426102D01*
X152127000Y-109626061D01*
X142413292Y-109626061D01*
X142397932Y-109548842D01*
X142285990Y-109278589D01*
X142123475Y-109035368D01*
X141916632Y-108828525D01*
X141742240Y-108712000D01*
X141916632Y-108595475D01*
X142123475Y-108388632D01*
X142285990Y-108145411D01*
X142397932Y-107875158D01*
X142455000Y-107588260D01*
X142455000Y-107295740D01*
X142413292Y-107086061D01*
X152127000Y-107086061D01*
X152127000Y-107289939D01*
X152166774Y-107489898D01*
X152244795Y-107678256D01*
X152358063Y-107847774D01*
X152502226Y-107991937D01*
X152671744Y-108105205D01*
X152860102Y-108183226D01*
X153060061Y-108223000D01*
X153263939Y-108223000D01*
X153463898Y-108183226D01*
X153652256Y-108105205D01*
X153821774Y-107991937D01*
X153965937Y-107847774D01*
X154079205Y-107678256D01*
X154157226Y-107489898D01*
X154197000Y-107289939D01*
X154197000Y-107086061D01*
X154157226Y-106886102D01*
X154082236Y-106705061D01*
X161525000Y-106705061D01*
X161525000Y-106908939D01*
X161564774Y-107108898D01*
X161642795Y-107297256D01*
X161756063Y-107466774D01*
X161900226Y-107610937D01*
X162069744Y-107724205D01*
X162258102Y-107802226D01*
X162458061Y-107842000D01*
X162661939Y-107842000D01*
X162861898Y-107802226D01*
X163050256Y-107724205D01*
X163219774Y-107610937D01*
X163363937Y-107466774D01*
X163477205Y-107297256D01*
X163555226Y-107108898D01*
X163595000Y-106908939D01*
X163595000Y-106705061D01*
X163555226Y-106505102D01*
X163477205Y-106316744D01*
X163366995Y-106151803D01*
X163369898Y-106151226D01*
X163558256Y-106073205D01*
X163727774Y-105959937D01*
X163871937Y-105815774D01*
X163985205Y-105646256D01*
X164063226Y-105457898D01*
X164093030Y-105308061D01*
X176765000Y-105308061D01*
X176765000Y-105511939D01*
X176804774Y-105711898D01*
X176882795Y-105900256D01*
X176996063Y-106069774D01*
X177140226Y-106213937D01*
X177309744Y-106327205D01*
X177498102Y-106405226D01*
X177698061Y-106445000D01*
X177901939Y-106445000D01*
X178101898Y-106405226D01*
X178290256Y-106327205D01*
X178459774Y-106213937D01*
X178603937Y-106069774D01*
X178717205Y-105900256D01*
X178795226Y-105711898D01*
X178835000Y-105511939D01*
X178835000Y-105308061D01*
X178795226Y-105108102D01*
X178717205Y-104919744D01*
X178603937Y-104750226D01*
X178459774Y-104606063D01*
X178290256Y-104492795D01*
X178101898Y-104414774D01*
X177901939Y-104375000D01*
X177698061Y-104375000D01*
X177498102Y-104414774D01*
X177309744Y-104492795D01*
X177140226Y-104606063D01*
X176996063Y-104750226D01*
X176882795Y-104919744D01*
X176804774Y-105108102D01*
X176765000Y-105308061D01*
X164093030Y-105308061D01*
X164103000Y-105257939D01*
X164103000Y-105054061D01*
X164063226Y-104854102D01*
X163985205Y-104665744D01*
X163871937Y-104496226D01*
X163727774Y-104352063D01*
X163558256Y-104238795D01*
X163369898Y-104160774D01*
X163169939Y-104121000D01*
X162966061Y-104121000D01*
X162766102Y-104160774D01*
X162577744Y-104238795D01*
X162408226Y-104352063D01*
X162264063Y-104496226D01*
X162150795Y-104665744D01*
X162072774Y-104854102D01*
X162033000Y-105054061D01*
X162033000Y-105257939D01*
X162072774Y-105457898D01*
X162150795Y-105646256D01*
X162261005Y-105811197D01*
X162258102Y-105811774D01*
X162069744Y-105889795D01*
X161900226Y-106003063D01*
X161756063Y-106147226D01*
X161642795Y-106316744D01*
X161564774Y-106505102D01*
X161525000Y-106705061D01*
X154082236Y-106705061D01*
X154079205Y-106697744D01*
X153965937Y-106528226D01*
X153821774Y-106384063D01*
X153652256Y-106270795D01*
X153463898Y-106192774D01*
X153263939Y-106153000D01*
X153060061Y-106153000D01*
X152860102Y-106192774D01*
X152671744Y-106270795D01*
X152502226Y-106384063D01*
X152358063Y-106528226D01*
X152244795Y-106697744D01*
X152166774Y-106886102D01*
X152127000Y-107086061D01*
X142413292Y-107086061D01*
X142397932Y-107008842D01*
X142285990Y-106738589D01*
X142123475Y-106495368D01*
X141916632Y-106288525D01*
X141742240Y-106172000D01*
X141916632Y-106055475D01*
X142123475Y-105848632D01*
X142285990Y-105605411D01*
X142397932Y-105335158D01*
X142455000Y-105048260D01*
X142455000Y-104755740D01*
X142413292Y-104546061D01*
X152127000Y-104546061D01*
X152127000Y-104749939D01*
X152166774Y-104949898D01*
X152244795Y-105138256D01*
X152358063Y-105307774D01*
X152502226Y-105451937D01*
X152671744Y-105565205D01*
X152860102Y-105643226D01*
X153060061Y-105683000D01*
X153263939Y-105683000D01*
X153463898Y-105643226D01*
X153652256Y-105565205D01*
X153821774Y-105451937D01*
X153965937Y-105307774D01*
X154079205Y-105138256D01*
X154157226Y-104949898D01*
X154197000Y-104749939D01*
X154197000Y-104546061D01*
X154157226Y-104346102D01*
X154079205Y-104157744D01*
X153965937Y-103988226D01*
X153821774Y-103844063D01*
X153652256Y-103730795D01*
X153463898Y-103652774D01*
X153263939Y-103613000D01*
X153060061Y-103613000D01*
X152860102Y-103652774D01*
X152671744Y-103730795D01*
X152502226Y-103844063D01*
X152358063Y-103988226D01*
X152244795Y-104157744D01*
X152166774Y-104346102D01*
X152127000Y-104546061D01*
X142413292Y-104546061D01*
X142397932Y-104468842D01*
X142285990Y-104198589D01*
X142123475Y-103955368D01*
X141916632Y-103748525D01*
X141742240Y-103632000D01*
X141916632Y-103515475D01*
X142123475Y-103308632D01*
X142285990Y-103065411D01*
X142397932Y-102795158D01*
X142455000Y-102508260D01*
X142455000Y-102215740D01*
X142413292Y-102006061D01*
X152127000Y-102006061D01*
X152127000Y-102209939D01*
X152166774Y-102409898D01*
X152244795Y-102598256D01*
X152358063Y-102767774D01*
X152502226Y-102911937D01*
X152671744Y-103025205D01*
X152860102Y-103103226D01*
X153060061Y-103143000D01*
X153263939Y-103143000D01*
X153463898Y-103103226D01*
X153652256Y-103025205D01*
X153821774Y-102911937D01*
X153965937Y-102767774D01*
X154079205Y-102598256D01*
X154114079Y-102514061D01*
X163303000Y-102514061D01*
X163303000Y-102717939D01*
X163342774Y-102917898D01*
X163420795Y-103106256D01*
X163534063Y-103275774D01*
X163678226Y-103419937D01*
X163847744Y-103533205D01*
X164036102Y-103611226D01*
X164236061Y-103651000D01*
X164439939Y-103651000D01*
X164639898Y-103611226D01*
X164828256Y-103533205D01*
X164997774Y-103419937D01*
X165141937Y-103275774D01*
X165255205Y-103106256D01*
X165333226Y-102917898D01*
X165373000Y-102717939D01*
X165373000Y-102514061D01*
X165333226Y-102314102D01*
X165255205Y-102125744D01*
X165141937Y-101956226D01*
X164997774Y-101812063D01*
X164828256Y-101698795D01*
X164639898Y-101620774D01*
X164439939Y-101581000D01*
X164236061Y-101581000D01*
X164036102Y-101620774D01*
X163847744Y-101698795D01*
X163678226Y-101812063D01*
X163534063Y-101956226D01*
X163420795Y-102125744D01*
X163342774Y-102314102D01*
X163303000Y-102514061D01*
X154114079Y-102514061D01*
X154157226Y-102409898D01*
X154197000Y-102209939D01*
X154197000Y-102006061D01*
X154157226Y-101806102D01*
X154079205Y-101617744D01*
X153965937Y-101448226D01*
X153821774Y-101304063D01*
X153652256Y-101190795D01*
X153463898Y-101112774D01*
X153263939Y-101073000D01*
X153060061Y-101073000D01*
X152860102Y-101112774D01*
X152671744Y-101190795D01*
X152502226Y-101304063D01*
X152358063Y-101448226D01*
X152244795Y-101617744D01*
X152166774Y-101806102D01*
X152127000Y-102006061D01*
X142413292Y-102006061D01*
X142397932Y-101928842D01*
X142285990Y-101658589D01*
X142123475Y-101415368D01*
X141916632Y-101208525D01*
X141742240Y-101092000D01*
X141916632Y-100975475D01*
X142123475Y-100768632D01*
X142285990Y-100525411D01*
X142397932Y-100255158D01*
X142455000Y-99968260D01*
X142455000Y-99675740D01*
X142413292Y-99466061D01*
X152127000Y-99466061D01*
X152127000Y-99669939D01*
X152166774Y-99869898D01*
X152244795Y-100058256D01*
X152358063Y-100227774D01*
X152502226Y-100371937D01*
X152671744Y-100485205D01*
X152860102Y-100563226D01*
X153060061Y-100603000D01*
X153263939Y-100603000D01*
X153463898Y-100563226D01*
X153652256Y-100485205D01*
X153821774Y-100371937D01*
X153965937Y-100227774D01*
X154079205Y-100058256D01*
X154157226Y-99869898D01*
X154197000Y-99669939D01*
X154197000Y-99466061D01*
X154157226Y-99266102D01*
X154108332Y-99148061D01*
X162097000Y-99148061D01*
X162097000Y-99351939D01*
X162136774Y-99551898D01*
X162214795Y-99740256D01*
X162328063Y-99909774D01*
X162472226Y-100053937D01*
X162641744Y-100167205D01*
X162830102Y-100245226D01*
X163030061Y-100285000D01*
X163233939Y-100285000D01*
X163433898Y-100245226D01*
X163622256Y-100167205D01*
X163791774Y-100053937D01*
X163935937Y-99909774D01*
X164049205Y-99740256D01*
X164127226Y-99551898D01*
X164167000Y-99351939D01*
X164167000Y-99148061D01*
X164127226Y-98948102D01*
X164049205Y-98759744D01*
X163935937Y-98590226D01*
X163791774Y-98446063D01*
X163622256Y-98332795D01*
X163433898Y-98254774D01*
X163233939Y-98215000D01*
X163030061Y-98215000D01*
X162830102Y-98254774D01*
X162641744Y-98332795D01*
X162472226Y-98446063D01*
X162328063Y-98590226D01*
X162214795Y-98759744D01*
X162136774Y-98948102D01*
X162097000Y-99148061D01*
X154108332Y-99148061D01*
X154079205Y-99077744D01*
X153965937Y-98908226D01*
X153821774Y-98764063D01*
X153652256Y-98650795D01*
X153463898Y-98572774D01*
X153263939Y-98533000D01*
X153060061Y-98533000D01*
X152860102Y-98572774D01*
X152671744Y-98650795D01*
X152502226Y-98764063D01*
X152358063Y-98908226D01*
X152244795Y-99077744D01*
X152166774Y-99266102D01*
X152127000Y-99466061D01*
X142413292Y-99466061D01*
X142397932Y-99388842D01*
X142285990Y-99118589D01*
X142123475Y-98875368D01*
X141916632Y-98668525D01*
X141742240Y-98552000D01*
X141916632Y-98435475D01*
X142123475Y-98228632D01*
X142285990Y-97985411D01*
X142326027Y-97888751D01*
X155121690Y-97888751D01*
X155121690Y-98092629D01*
X155161464Y-98292588D01*
X155239485Y-98480946D01*
X155352753Y-98650464D01*
X155496916Y-98794627D01*
X155666434Y-98907895D01*
X155854792Y-98985916D01*
X156054751Y-99025690D01*
X156258629Y-99025690D01*
X156458588Y-98985916D01*
X156646946Y-98907895D01*
X156816464Y-98794627D01*
X156960627Y-98650464D01*
X157073895Y-98480946D01*
X157151916Y-98292588D01*
X157191690Y-98092629D01*
X157191690Y-97888751D01*
X163864310Y-97888751D01*
X163864310Y-98092629D01*
X163904084Y-98292588D01*
X163982105Y-98480946D01*
X164095373Y-98650464D01*
X164239536Y-98794627D01*
X164409054Y-98907895D01*
X164597412Y-98985916D01*
X164797371Y-99025690D01*
X165001249Y-99025690D01*
X165201208Y-98985916D01*
X165389566Y-98907895D01*
X165559084Y-98794627D01*
X165703247Y-98650464D01*
X165816515Y-98480946D01*
X165894536Y-98292588D01*
X165934310Y-98092629D01*
X165934310Y-97888751D01*
X165894536Y-97688792D01*
X165816515Y-97500434D01*
X165779879Y-97445603D01*
X166085458Y-97445603D01*
X166085458Y-97649481D01*
X166125232Y-97849440D01*
X166203253Y-98037798D01*
X166316521Y-98207316D01*
X166460684Y-98351479D01*
X166630202Y-98464747D01*
X166742233Y-98511152D01*
X166715000Y-98648061D01*
X166715000Y-98851939D01*
X166754774Y-99051898D01*
X166832795Y-99240256D01*
X166946063Y-99409774D01*
X167090226Y-99553937D01*
X167259744Y-99667205D01*
X167448102Y-99745226D01*
X167648061Y-99785000D01*
X167851939Y-99785000D01*
X168051898Y-99745226D01*
X168240256Y-99667205D01*
X168409774Y-99553937D01*
X168553937Y-99409774D01*
X168667205Y-99240256D01*
X168745226Y-99051898D01*
X168785000Y-98851939D01*
X168785000Y-98648061D01*
X168745226Y-98448102D01*
X168667205Y-98259744D01*
X168553937Y-98090226D01*
X168409774Y-97946063D01*
X168240256Y-97832795D01*
X168128225Y-97786390D01*
X168155458Y-97649481D01*
X168155458Y-97445603D01*
X168115684Y-97245644D01*
X168037663Y-97057286D01*
X167924395Y-96887768D01*
X167780232Y-96743605D01*
X167610714Y-96630337D01*
X167422356Y-96552316D01*
X167222397Y-96512542D01*
X167018519Y-96512542D01*
X166818560Y-96552316D01*
X166630202Y-96630337D01*
X166460684Y-96743605D01*
X166316521Y-96887768D01*
X166203253Y-97057286D01*
X166125232Y-97245644D01*
X166085458Y-97445603D01*
X165779879Y-97445603D01*
X165703247Y-97330916D01*
X165559084Y-97186753D01*
X165389566Y-97073485D01*
X165201208Y-96995464D01*
X165001249Y-96955690D01*
X164797371Y-96955690D01*
X164597412Y-96995464D01*
X164409054Y-97073485D01*
X164239536Y-97186753D01*
X164095373Y-97330916D01*
X163982105Y-97500434D01*
X163904084Y-97688792D01*
X163864310Y-97888751D01*
X157191690Y-97888751D01*
X157151916Y-97688792D01*
X157073895Y-97500434D01*
X156960627Y-97330916D01*
X156816464Y-97186753D01*
X156646946Y-97073485D01*
X156458588Y-96995464D01*
X156258629Y-96955690D01*
X156054751Y-96955690D01*
X155854792Y-96995464D01*
X155666434Y-97073485D01*
X155496916Y-97186753D01*
X155352753Y-97330916D01*
X155239485Y-97500434D01*
X155161464Y-97688792D01*
X155121690Y-97888751D01*
X142326027Y-97888751D01*
X142397932Y-97715158D01*
X142455000Y-97428260D01*
X142455000Y-97135740D01*
X142397932Y-96848842D01*
X142285990Y-96578589D01*
X142123475Y-96335368D01*
X141916632Y-96128525D01*
X141742240Y-96012000D01*
X141916632Y-95895475D01*
X142123475Y-95688632D01*
X142285990Y-95445411D01*
X142397932Y-95175158D01*
X142455000Y-94888260D01*
X142455000Y-94623061D01*
X164465000Y-94623061D01*
X164465000Y-94826939D01*
X164504774Y-95026898D01*
X164582795Y-95215256D01*
X164696063Y-95384774D01*
X164840226Y-95528937D01*
X165009744Y-95642205D01*
X165198102Y-95720226D01*
X165398061Y-95760000D01*
X165601939Y-95760000D01*
X165801898Y-95720226D01*
X165990256Y-95642205D01*
X166159774Y-95528937D01*
X166303937Y-95384774D01*
X166417205Y-95215256D01*
X166495226Y-95026898D01*
X166535000Y-94826939D01*
X166535000Y-94623061D01*
X166495226Y-94423102D01*
X166417205Y-94234744D01*
X166303937Y-94065226D01*
X166159774Y-93921063D01*
X166125349Y-93898061D01*
X167715000Y-93898061D01*
X167715000Y-94101939D01*
X167754774Y-94301898D01*
X167832795Y-94490256D01*
X167946063Y-94659774D01*
X168090226Y-94803937D01*
X168259744Y-94917205D01*
X168448102Y-94995226D01*
X168648061Y-95035000D01*
X168851939Y-95035000D01*
X169051898Y-94995226D01*
X169240256Y-94917205D01*
X169409774Y-94803937D01*
X169553937Y-94659774D01*
X169667205Y-94490256D01*
X169745226Y-94301898D01*
X169785000Y-94101939D01*
X169785000Y-93898061D01*
X169745226Y-93698102D01*
X169667205Y-93509744D01*
X169553937Y-93340226D01*
X169409774Y-93196063D01*
X169240256Y-93082795D01*
X169051898Y-93004774D01*
X168851939Y-92965000D01*
X168648061Y-92965000D01*
X168448102Y-93004774D01*
X168259744Y-93082795D01*
X168090226Y-93196063D01*
X167946063Y-93340226D01*
X167832795Y-93509744D01*
X167754774Y-93698102D01*
X167715000Y-93898061D01*
X166125349Y-93898061D01*
X165990256Y-93807795D01*
X165801898Y-93729774D01*
X165601939Y-93690000D01*
X165398061Y-93690000D01*
X165198102Y-93729774D01*
X165009744Y-93807795D01*
X164840226Y-93921063D01*
X164696063Y-94065226D01*
X164582795Y-94234744D01*
X164504774Y-94423102D01*
X164465000Y-94623061D01*
X142455000Y-94623061D01*
X142455000Y-94595740D01*
X142397932Y-94308842D01*
X142285990Y-94038589D01*
X142123475Y-93795368D01*
X141916632Y-93588525D01*
X141742240Y-93472000D01*
X141916632Y-93355475D01*
X142123475Y-93148632D01*
X142285990Y-92905411D01*
X142397932Y-92635158D01*
X142455000Y-92348260D01*
X142455000Y-92100061D01*
X159747000Y-92100061D01*
X159747000Y-92303939D01*
X159786774Y-92503898D01*
X159864795Y-92692256D01*
X159978063Y-92861774D01*
X160122226Y-93005937D01*
X160291744Y-93119205D01*
X160480102Y-93197226D01*
X160680061Y-93237000D01*
X160883939Y-93237000D01*
X161083898Y-93197226D01*
X161272256Y-93119205D01*
X161441774Y-93005937D01*
X161585937Y-92861774D01*
X161699205Y-92692256D01*
X161777226Y-92503898D01*
X161817000Y-92303939D01*
X161817000Y-92100061D01*
X161777226Y-91900102D01*
X161699205Y-91711744D01*
X161585937Y-91542226D01*
X161441774Y-91398063D01*
X161272256Y-91284795D01*
X161083898Y-91206774D01*
X160883939Y-91167000D01*
X160680061Y-91167000D01*
X160480102Y-91206774D01*
X160291744Y-91284795D01*
X160122226Y-91398063D01*
X159978063Y-91542226D01*
X159864795Y-91711744D01*
X159786774Y-91900102D01*
X159747000Y-92100061D01*
X142455000Y-92100061D01*
X142455000Y-92055740D01*
X142397932Y-91768842D01*
X142285990Y-91498589D01*
X142123475Y-91255368D01*
X142016168Y-91148061D01*
X176965000Y-91148061D01*
X176965000Y-91351939D01*
X177004774Y-91551898D01*
X177082795Y-91740256D01*
X177196063Y-91909774D01*
X177340226Y-92053937D01*
X177509744Y-92167205D01*
X177698102Y-92245226D01*
X177898061Y-92285000D01*
X178101939Y-92285000D01*
X178301898Y-92245226D01*
X178490256Y-92167205D01*
X178659774Y-92053937D01*
X178803937Y-91909774D01*
X178917205Y-91740256D01*
X178995226Y-91551898D01*
X179035000Y-91351939D01*
X179035000Y-91148061D01*
X178995226Y-90948102D01*
X178917205Y-90759744D01*
X178803937Y-90590226D01*
X178659774Y-90446063D01*
X178490256Y-90332795D01*
X178301898Y-90254774D01*
X178101939Y-90215000D01*
X177898061Y-90215000D01*
X177698102Y-90254774D01*
X177509744Y-90332795D01*
X177340226Y-90446063D01*
X177196063Y-90590226D01*
X177082795Y-90759744D01*
X177004774Y-90948102D01*
X176965000Y-91148061D01*
X142016168Y-91148061D01*
X141916632Y-91048525D01*
X141673411Y-90886010D01*
X141403158Y-90774068D01*
X141116260Y-90717000D01*
X140823740Y-90717000D01*
X140536842Y-90774068D01*
X140266589Y-90886010D01*
X140023368Y-91048525D01*
X139816525Y-91255368D01*
X139698900Y-91431406D01*
X139527588Y-91201731D01*
X139311355Y-91006822D01*
X139061252Y-90857843D01*
X138786891Y-90760519D01*
X138557000Y-90881186D01*
X138303000Y-90881186D01*
X138073109Y-90760519D01*
X137798748Y-90857843D01*
X137548645Y-91006822D01*
X137332412Y-91201731D01*
X137158359Y-91435080D01*
X137033175Y-91697901D01*
X136988524Y-91845110D01*
X128108833Y-91845110D01*
X128101660Y-87398061D01*
X167715000Y-87398061D01*
X167715000Y-87601939D01*
X167754774Y-87801898D01*
X167832795Y-87990256D01*
X167946063Y-88159774D01*
X168090226Y-88303937D01*
X168259744Y-88417205D01*
X168448102Y-88495226D01*
X168648061Y-88535000D01*
X168851939Y-88535000D01*
X169051898Y-88495226D01*
X169240256Y-88417205D01*
X169409774Y-88303937D01*
X169553937Y-88159774D01*
X169667205Y-87990256D01*
X169745226Y-87801898D01*
X169785000Y-87601939D01*
X169785000Y-87398061D01*
X169745226Y-87198102D01*
X169667205Y-87009744D01*
X169553937Y-86840226D01*
X169409774Y-86696063D01*
X169240256Y-86582795D01*
X169051898Y-86504774D01*
X168851939Y-86465000D01*
X168648061Y-86465000D01*
X168448102Y-86504774D01*
X168259744Y-86582795D01*
X168090226Y-86696063D01*
X167946063Y-86840226D01*
X167832795Y-87009744D01*
X167754774Y-87198102D01*
X167715000Y-87398061D01*
X128101660Y-87398061D01*
X128093676Y-82448061D01*
X174225000Y-82448061D01*
X174225000Y-82651939D01*
X174264774Y-82851898D01*
X174342795Y-83040256D01*
X174456063Y-83209774D01*
X174600226Y-83353937D01*
X174769744Y-83467205D01*
X174958102Y-83545226D01*
X175158061Y-83585000D01*
X175361939Y-83585000D01*
X175561898Y-83545226D01*
X175750256Y-83467205D01*
X175919774Y-83353937D01*
X176063937Y-83209774D01*
X176105172Y-83148061D01*
X176465000Y-83148061D01*
X176465000Y-83351939D01*
X176504774Y-83551898D01*
X176582795Y-83740256D01*
X176696063Y-83909774D01*
X176840226Y-84053937D01*
X177009744Y-84167205D01*
X177198102Y-84245226D01*
X177398061Y-84285000D01*
X177601939Y-84285000D01*
X177801898Y-84245226D01*
X177990256Y-84167205D01*
X178159774Y-84053937D01*
X178303937Y-83909774D01*
X178417205Y-83740256D01*
X178495226Y-83551898D01*
X178535000Y-83351939D01*
X178535000Y-83148061D01*
X178495226Y-82948102D01*
X178417205Y-82759744D01*
X178303937Y-82590226D01*
X178159774Y-82446063D01*
X177990256Y-82332795D01*
X177801898Y-82254774D01*
X177601939Y-82215000D01*
X177398061Y-82215000D01*
X177198102Y-82254774D01*
X177009744Y-82332795D01*
X176840226Y-82446063D01*
X176696063Y-82590226D01*
X176582795Y-82759744D01*
X176504774Y-82948102D01*
X176465000Y-83148061D01*
X176105172Y-83148061D01*
X176177205Y-83040256D01*
X176255226Y-82851898D01*
X176295000Y-82651939D01*
X176295000Y-82448061D01*
X176255226Y-82248102D01*
X176177205Y-82059744D01*
X176063937Y-81890226D01*
X175919774Y-81746063D01*
X175750256Y-81632795D01*
X175561898Y-81554774D01*
X175361939Y-81515000D01*
X175158061Y-81515000D01*
X174958102Y-81554774D01*
X174769744Y-81632795D01*
X174600226Y-81746063D01*
X174456063Y-81890226D01*
X174342795Y-82059744D01*
X174264774Y-82248102D01*
X174225000Y-82448061D01*
X128093676Y-82448061D01*
X128089169Y-79654061D01*
X172701000Y-79654061D01*
X172701000Y-79857939D01*
X172740774Y-80057898D01*
X172818795Y-80246256D01*
X172932063Y-80415774D01*
X173076226Y-80559937D01*
X173245744Y-80673205D01*
X173434102Y-80751226D01*
X173634061Y-80791000D01*
X173837939Y-80791000D01*
X174037898Y-80751226D01*
X174226256Y-80673205D01*
X174395774Y-80559937D01*
X174539937Y-80415774D01*
X174653205Y-80246256D01*
X174731226Y-80057898D01*
X174771000Y-79857939D01*
X174771000Y-79654061D01*
X174731226Y-79454102D01*
X174653205Y-79265744D01*
X174539937Y-79096226D01*
X174395774Y-78952063D01*
X174226256Y-78838795D01*
X174037898Y-78760774D01*
X173837939Y-78721000D01*
X173634061Y-78721000D01*
X173434102Y-78760774D01*
X173245744Y-78838795D01*
X173076226Y-78952063D01*
X172932063Y-79096226D01*
X172818795Y-79265744D01*
X172740774Y-79454102D01*
X172701000Y-79654061D01*
X128089169Y-79654061D01*
X128079705Y-73787000D01*
X180213000Y-73787000D01*
X180213000Y-86573289D01*
%TD*%
M02*
